<?xml version="1.0" encoding="utf-8"?>
<!-- Generator: Adobe Illustrator 23.1.1, SVG Export Plug-In . SVG Version: 6.00 Build 0)  -->
<svg version="1.1" id="Layer_1" xmlns="http://www.w3.org/2000/svg" xmlns:xlink="http://www.w3.org/1999/xlink" x="0px" y="0px"
	 viewBox="0 0 140 150" style="enable-background:new 0 0 140 150;" xml:space="preserve">
<style type="text/css">
	.st0{fill:url(#SVGID_1_);}
	.st1{fill:url(#SVGID_2_);}
	.st2{fill:url(#SVGID_3_);}
	.st3{fill:url(#SVGID_4_);}
</style>
<g id="ficha_tecnica">
	<linearGradient id="SVGID_1_" gradientUnits="userSpaceOnUse" x1="85.1894" y1="24.9439" x2="95.9991" y2="14.1342">
		<stop  offset="0" style="stop-color:#ED7F22"/>
		<stop  offset="1" style="stop-color:#F19549"/>
	</linearGradient>
	<path class="st0" d="M93.44,28.35h16.77L81.7,0v16.61C81.7,23.07,86.98,28.35,93.44,28.35z"/>
	<linearGradient id="SVGID_2_" gradientUnits="userSpaceOnUse" x1="90.0783" y1="119.5945" x2="130.4336" y2="79.2392">
		<stop  offset="0" style="stop-color:#ED7F22"/>
		<stop  offset="1" style="stop-color:#F19549"/>
	</linearGradient>
	<path class="st1" d="M110.26,70.88c-15.76,0-28.54,12.78-28.54,28.54c0,15.76,12.78,28.54,28.54,28.54
		c15.76,0,28.54-12.78,28.54-28.54C138.79,83.66,126.02,70.88,110.26,70.88z M128.89,103.61h-3.51c-0.35,1.25-0.84,2.44-1.46,3.55
		l2.48,2.48c1.63,1.63,1.63,4.29,0,5.92c-1.63,1.63-4.29,1.63-5.92,0l-2.48-2.48c-1.11,0.63-2.3,1.12-3.55,1.46v3.51
		c0,2.3-1.88,4.19-4.19,4.19c-2.3,0-4.19-1.88-4.19-4.19v-3.51c-1.25-0.35-2.44-0.84-3.55-1.46l-2.48,2.48
		c-1.63,1.63-4.29,1.63-5.92,0c-1.63-1.63-1.63-4.29,0-5.92l2.48-2.48c-0.63-1.11-1.12-2.3-1.46-3.55h-3.51
		c-2.3,0-4.19-1.88-4.19-4.19c0-2.3,1.88-4.19,4.19-4.19h3.51c0.35-1.25,0.84-2.44,1.46-3.55l-2.48-2.48
		c-1.63-1.63-1.63-4.29,0-5.92c1.63-1.63,4.29-1.63,5.92,0l2.48,2.48c1.11-0.63,2.3-1.12,3.55-1.47v-3.51c0-2.3,1.88-4.19,4.19-4.19
		c2.3,0,4.19,1.89,4.19,4.19v3.51c1.25,0.35,2.44,0.84,3.55,1.47l2.48-2.48c1.63-1.63,4.29-1.63,5.92,0c1.63,1.63,1.63,4.29,0,5.92
		l-2.48,2.48c0.63,1.11,1.12,2.3,1.46,3.55h3.51c2.3,0,4.19,1.88,4.19,4.19C133.08,101.72,131.2,103.61,128.89,103.61z"/>
	<linearGradient id="SVGID_3_" gradientUnits="userSpaceOnUse" x1="104.9648" y1="104.7082" x2="115.5472" y2="94.1258">
		<stop  offset="0" style="stop-color:#ED7F22"/>
		<stop  offset="1" style="stop-color:#F19549"/>
	</linearGradient>
	<circle class="st2" cx="110.26" cy="99.42" r="7.48"/>
	<linearGradient id="SVGID_4_" gradientUnits="userSpaceOnUse" x1="-5.5851" y1="136.305" x2="103.6371" y2="27.0829">
		<stop  offset="0" style="stop-color:#ED7F22"/>
		<stop  offset="1" style="stop-color:#F19549"/>
	</linearGradient>
	<path class="st3" d="M76.26,99.42c0-18.76,15.19-33.97,33.95-33.99V33.65H92.5c-8.88,0-16.14-7.26-16.14-16.14V0.02H12.96
		c-6.46,0-11.75,5.29-11.75,11.75v126.48c0,6.46,5.29,11.75,11.75,11.75h85.51c6.46,0,11.75-5.29,11.75-11.75v-4.84
		C91.46,133.38,76.26,118.18,76.26,99.42z M15.21,46.01c0-1.1,0.9-2.01,2.01-2.01h30.3c1.1,0,2.01,0.9,2.01,2.01v1.01
		c0,1.1-0.9,2.01-2.01,2.01h-30.3c-1.1,0-2.01-0.9-2.01-2.01V46.01z M27.85,133.7c0,0.67-0.55,1.22-1.22,1.22H16.43
		c-0.67,0-1.22-0.55-1.22-1.22v-2.58c0-0.67,0.55-1.22,1.22-1.22h10.21c0.67,0,1.22,0.55,1.22,1.22V133.7z M27.85,116.52
		c0,0.67-0.55,1.22-1.22,1.22H16.43c-0.67,0-1.22-0.55-1.22-1.22v-2.58c0-0.67,0.55-1.22,1.22-1.22h10.21
		c0.67,0,1.22,0.55,1.22,1.22V116.52z M27.85,99.34c0,0.67-0.55,1.22-1.22,1.22H16.43c-0.67,0-1.22-0.55-1.22-1.22v-2.58
		c0-0.67,0.55-1.22,1.22-1.22h10.21c0.67,0,1.22,0.55,1.22,1.22V99.34z M48.37,133.7c0,0.67-0.55,1.22-1.22,1.22H36.94
		c-0.67,0-1.22-0.55-1.22-1.22v-2.58c0-0.67,0.55-1.22,1.22-1.22h10.21c0.67,0,1.22,0.55,1.22,1.22V133.7z M48.37,116.52
		c0,0.67-0.55,1.22-1.22,1.22H36.94c-0.67,0-1.22-0.55-1.22-1.22v-2.58c0-0.67,0.55-1.22,1.22-1.22h10.21
		c0.67,0,1.22,0.55,1.22,1.22V116.52z M48.37,99.34c0,0.67-0.55,1.22-1.22,1.22H36.94c-0.67,0-1.22-0.55-1.22-1.22v-2.58
		c0-0.67,0.55-1.22,1.22-1.22h10.21c0.67,0,1.22,0.55,1.22,1.22V99.34z M68.89,133.7c0,0.67-0.55,1.22-1.22,1.22H57.46
		c-0.67,0-1.22-0.55-1.22-1.22v-2.58c0-0.67,0.55-1.22,1.22-1.22h10.21c0.67,0,1.22,0.55,1.22,1.22V133.7z M68.89,116.52
		c0,0.67-0.55,1.22-1.22,1.22H57.46c-0.67,0-1.22-0.55-1.22-1.22v-2.58c0-0.67,0.55-1.22,1.22-1.22h10.21
		c0.67,0,1.22,0.55,1.22,1.22V116.52z M68.89,99.34c0,0.67-0.55,1.22-1.22,1.22H57.46c-0.67,0-1.22-0.55-1.22-1.22v-2.58
		c0-0.67,0.55-1.22,1.22-1.22h10.21c0.67,0,1.22,0.55,1.22,1.22V99.34z M66.37,83.38H17.72c-1.38,0-2.51-1.13-2.51-2.51
		c0-1.38,1.13-2.51,2.51-2.51h48.66c1.38,0,2.51,1.13,2.51,2.51C68.89,82.25,67.76,83.38,66.37,83.38z M68.89,29.33
		c0,1.38-1.13,2.51-2.51,2.51H17.72c-1.38,0-2.51-1.13-2.51-2.51v0c0-1.38,1.13-2.51,2.51-2.51h48.66
		C67.76,26.82,68.89,27.95,68.89,29.33L68.89,29.33z"/>
</g>
</svg>
