<?xml version="1.0" encoding="utf-8"?>
<!-- Generator: Adobe Illustrator 23.1.1, SVG Export Plug-In . SVG Version: 6.00 Build 0)  -->
<svg version="1.1" id="Layer_1" xmlns="http://www.w3.org/2000/svg" xmlns:xlink="http://www.w3.org/1999/xlink" x="0px" y="0px"
	 viewBox="0 0 140 150" style="enable-background:new 0 0 140 150;" xml:space="preserve">
<style type="text/css">
	.st0{fill:url(#SVGID_1_);}
	.st1{fill:url(#SVGID_2_);}
	.st2{fill:url(#SVGID_3_);}
</style>
<g id="detalles_constructivos">
	<linearGradient id="SVGID_1_" gradientUnits="userSpaceOnUse" x1="85.1894" y1="24.9439" x2="95.9991" y2="14.1342">
		<stop  offset="0" style="stop-color:#ED7F22"/>
		<stop  offset="1" style="stop-color:#F19549"/>
	</linearGradient>
	<path class="st0" d="M93.44,28.35h16.77L81.7,0v16.61C81.7,23.07,86.98,28.35,93.44,28.35z"/>
	<linearGradient id="SVGID_2_" gradientUnits="userSpaceOnUse" x1="90.0783" y1="119.5945" x2="130.4336" y2="79.2392">
		<stop  offset="0" style="stop-color:#ED7F22"/>
		<stop  offset="1" style="stop-color:#F19549"/>
	</linearGradient>
	<path class="st1" d="M110.26,70.88c-15.76,0-28.54,12.78-28.54,28.54c0,15.76,12.78,28.54,28.54,28.54
		c15.76,0,28.54-12.78,28.54-28.54C138.79,83.66,126.02,70.88,110.26,70.88z M127.37,98.21H126c0.01,0.13,0.02,0.28,0.02,0.41v15.63
		c0,1.74-1.35,3.16-3.01,3.16h-25.5c-1.66,0-3.02-1.42-3.02-3.16V98.62c0-0.13,0.01-0.28,0.02-0.41h-1.37
		c-3.31,0-3.85-4.04-1.18-6.11l15.16-11.12c2.66-2.08,3.55-2.08,6.22,0l15.22,11.12C131.22,94.17,130.69,98.21,127.37,98.21z"/>
	<linearGradient id="SVGID_3_" gradientUnits="userSpaceOnUse" x1="-5.5851" y1="136.305" x2="103.6371" y2="27.0829">
		<stop  offset="0" style="stop-color:#ED7F22"/>
		<stop  offset="1" style="stop-color:#F19549"/>
	</linearGradient>
	<path class="st2" d="M76.26,99.42c0-18.76,15.19-33.97,33.95-33.99V33.65H92.5c-8.88,0-16.14-7.26-16.14-16.14V0.02h-7.82
		c0.03,0.08,0.05,0.16,0.05,0.24v11.18c0,0.39-0.31,0.7-0.7,0.7h-0.64c-0.39,0-0.7-0.31-0.7-0.7V0.26c0-0.09,0.02-0.17,0.05-0.24
		H20.28c0.03,0.08,0.05,0.16,0.05,0.24v11.18c0,0.39-0.31,0.7-0.7,0.7h-0.64c-0.39,0-0.7-0.31-0.7-0.7V0.26
		c0-0.09,0.02-0.17,0.05-0.24h-5.38c-6.46,0-11.75,5.29-11.75,11.75v126.48c0,6.46,5.29,11.75,11.75,11.75h85.51
		c6.46,0,11.75-5.29,11.75-11.75v-4.84C91.46,133.38,76.26,118.18,76.26,99.42z M66.54,17.45c0-0.39,0.31-0.7,0.7-0.7h0.64
		c0.39,0,0.7,0.31,0.7,0.7v11.18c0,0.39-0.31,0.7-0.7,0.7h-0.64c-0.39,0-0.7-0.31-0.7-0.7V17.45z M66.54,34.63
		c0-0.39,0.31-0.7,0.7-0.7h0.64c0.39,0,0.7,0.31,0.7,0.7v11.18c0,0.39-0.31,0.7-0.7,0.7h-0.64c-0.39,0-0.7-0.31-0.7-0.7V34.63z
		 M66.54,51.81c0-0.39,0.31-0.7,0.7-0.7h0.64c0.39,0,0.7,0.31,0.7,0.7v11.18c0,0.39-0.31,0.7-0.7,0.7h-0.64
		c-0.39,0-0.7-0.31-0.7-0.7V51.81z M66.54,68.99c0-0.39,0.31-0.7,0.7-0.7h0.64c0.39,0,0.7,0.31,0.7,0.7v5.3h7.04
		c0.39,0,0.7,0.31,0.7,0.7v0.64c0,0.39-0.31,0.7-0.7,0.7h-7.04v3.83c0,0.39-0.31,0.7-0.7,0.7h-0.64c-0.39,0-0.7-0.31-0.7-0.7v-3.83
		h-2.1c-0.39,0-0.7-0.31-0.7-0.7v-0.64c0-0.39,0.31-0.7,0.7-0.7h2.1V68.99z M67.89,98.05h-0.64c-0.39,0-0.7-0.31-0.7-0.7V86.17
		c0-0.39,0.31-0.7,0.7-0.7h0.64c0.39,0,0.7,0.31,0.7,0.7v11.18C68.59,97.74,68.28,98.05,67.89,98.05z M68.59,103.35v11.18
		c0,0.39-0.31,0.7-0.7,0.7h-0.64c-0.39,0-0.7-0.31-0.7-0.7v-11.18c0-0.39,0.31-0.7,0.7-0.7h0.64
		C68.28,102.65,68.59,102.96,68.59,103.35z M55.04,37.87l7.91-7.91c0.27-0.27,0.72-0.27,0.99,0l0.46,0.46
		c0.27,0.27,0.27,0.72,0,0.99l-7.91,7.91c-0.27,0.27-0.72,0.27-0.99,0l-0.46-0.46C54.77,38.59,54.77,38.14,55.04,37.87z
		 M30.74,62.17l7.91-7.91c0.27-0.27,0.72-0.27,0.99,0l0.46,0.46c0.27,0.27,0.27,0.72,0,0.99l-7.91,7.91c-0.27,0.27-0.72,0.27-0.99,0
		l-0.46-0.46C30.47,62.88,30.47,62.44,30.74,62.17z M18.29,17.45c0-0.39,0.31-0.7,0.7-0.7h0.64c0.39,0,0.7,0.31,0.7,0.7v11.18
		c0,0.39-0.31,0.7-0.7,0.7h-0.64c-0.39,0-0.7-0.31-0.7-0.7V17.45z M18.29,34.63c0-0.39,0.31-0.7,0.7-0.7h0.64
		c0.39,0,0.7,0.31,0.7,0.7v11.18c0,0.39-0.31,0.7-0.7,0.7h-0.64c-0.39,0-0.7-0.31-0.7-0.7V34.63z M18.29,51.81
		c0-0.39,0.31-0.7,0.7-0.7h0.64c0.39,0,0.7,0.31,0.7,0.7v11.18c0,0.39-0.31,0.7-0.7,0.7h-0.64c-0.39,0-0.7-0.31-0.7-0.7V51.81z
		 M24.79,124.59c0,0.39-0.31,0.7-0.7,0.7h-3.76v6.42c0,0.39-0.31,0.7-0.7,0.7h-0.64c-0.39,0-0.7-0.31-0.7-0.7v-6.42h-5.38
		c-0.39,0-0.7-0.31-0.7-0.7v-0.64c0-0.39,0.31-0.7,0.7-0.7h5.38v-2.72c0-0.39,0.31-0.7,0.7-0.7h0.64c0.39,0,0.7,0.31,0.7,0.7v2.72
		h3.76c0.39,0,0.7,0.31,0.7,0.7V124.59z M18.99,102.65h0.64c0.39,0,0.7,0.31,0.7,0.7v11.18c0,0.39-0.31,0.7-0.7,0.7h-0.64
		c-0.39,0-0.7-0.31-0.7-0.7v-11.18C18.29,102.96,18.6,102.65,18.99,102.65z M18.29,97.35V86.17c0-0.39,0.31-0.7,0.7-0.7h0.64
		c0.39,0,0.7,0.31,0.7,0.7v11.18c0,0.39-0.31,0.7-0.7,0.7h-0.64C18.6,98.05,18.29,97.74,18.29,97.35z M27.95,67.86l-6.44,6.44h2.58
		c0.39,0,0.7,0.31,0.7,0.7v0.64c0,0.39-0.31,0.7-0.7,0.7h-3.76v3.83c0,0.39-0.31,0.7-0.7,0.7h-0.64c-0.39,0-0.7-0.31-0.7-0.7v-3.83
		h-5.38c-0.39,0-0.7-0.31-0.7-0.7v-0.64c0-0.39,0.31-0.7,0.7-0.7h5.38v-5.3c0-0.39,0.31-0.7,0.7-0.7h0.64c0.39,0,0.7,0.31,0.7,0.7
		v3.59l6.17-6.17c0.27-0.27,0.72-0.27,0.99,0l0.46,0.46C28.22,67.14,28.22,67.58,27.95,67.86z M41.97,124.59
		c0,0.39-0.31,0.7-0.7,0.7H30.09c-0.39,0-0.7-0.31-0.7-0.7v-0.64c0-0.39,0.31-0.7,0.7-0.7h11.18c0.39,0,0.7,0.31,0.7,0.7V124.59z
		 M41.97,75.64c0,0.39-0.31,0.7-0.7,0.7H30.09c-0.39,0-0.7-0.31-0.7-0.7v-0.64c0-0.39,0.31-0.7,0.7-0.7h11.18
		c0.39,0,0.7,0.31,0.7,0.7V75.64z M43.35,51.47l-0.46-0.46c-0.27-0.27-0.27-0.72,0-0.99l7.91-7.91c0.27-0.27,0.72-0.27,0.99,0
		l0.46,0.46c0.27,0.27,0.27,0.72,0,0.99l-7.91,7.91C44.06,51.74,43.62,51.74,43.35,51.47z M59.15,124.59c0,0.39-0.31,0.7-0.7,0.7
		H47.27c-0.39,0-0.7-0.31-0.7-0.7v-0.64c0-0.39,0.31-0.7,0.7-0.7h11.18c0.39,0,0.7,0.31,0.7,0.7V124.59z M59.15,75.64
		c0,0.39-0.31,0.7-0.7,0.7H47.27c-0.39,0-0.7-0.31-0.7-0.7v-0.64c0-0.39,0.31-0.7,0.7-0.7h11.18c0.39,0,0.7,0.31,0.7,0.7V75.64z
		 M76.33,124.59c0,0.39-0.31,0.7-0.7,0.7h-7.04v6.42c0,0.39-0.31,0.7-0.7,0.7h-0.64c-0.39,0-0.7-0.31-0.7-0.7v-6.42h-2.1
		c-0.39,0-0.7-0.31-0.7-0.7v-0.64c0-0.39,0.31-0.7,0.7-0.7h2.1v-2.72c0-0.39,0.31-0.7,0.7-0.7h0.64c0.39,0,0.7,0.31,0.7,0.7v2.72
		h7.04c0.39,0,0.7,0.31,0.7,0.7V124.59z"/>
</g>
</svg>
