<?xml version="1.0" encoding="utf-8"?>
<!-- Generator: Adobe Illustrator 23.1.1, SVG Export Plug-In . SVG Version: 6.00 Build 0)  -->
<svg version="1.1" id="Layer_1" xmlns="http://www.w3.org/2000/svg" xmlns:xlink="http://www.w3.org/1999/xlink" x="0px" y="0px"
	 viewBox="0 0 140 150" style="enable-background:new 0 0 140 150;" xml:space="preserve">
<style type="text/css">
	.st0{fill:url(#SVGID_1_);}
	.st1{fill:url(#SVGID_2_);}
	.st2{fill:url(#SVGID_3_);}
</style>
<g id="manual_instalacion">
	<linearGradient id="SVGID_1_" gradientUnits="userSpaceOnUse" x1="85.1894" y1="24.9439" x2="95.9991" y2="14.1342">
		<stop  offset="0" style="stop-color:#ED7F22"/>
		<stop  offset="1" style="stop-color:#F19549"/>
	</linearGradient>
	<path class="st0" d="M93.44,28.35h16.77L81.7,0v16.61C81.7,23.07,86.98,28.35,93.44,28.35z"/>
	<linearGradient id="SVGID_2_" gradientUnits="userSpaceOnUse" x1="89.5218" y1="119.0379" x2="129.877" y2="78.6827">
		<stop  offset="0" style="stop-color:#ED7F22"/>
		<stop  offset="1" style="stop-color:#F19549"/>
	</linearGradient>
	<path class="st1" d="M110.26,70.88c-15.76,0-28.54,12.78-28.54,28.54c0,15.76,12.78,28.54,28.54,28.54c4.3,0,8.38-0.96,12.03-2.66
		l-6.1-6.1c-6.39,1.77-13.89,0.76-18.91-3.1c-5.79-4.45-8.52-11.1-8.22-17.63c0.15-3.3,2.32-4.09,4.65-1.75l7.4,7.4
		c3.72,3.72,9.82,3.72,13.54,0v0c3.72-3.72,3.72-9.82,0-13.54l-7.4-7.4c-1.66-1.66-0.59-4.55,1.75-4.65
		c5.68-0.26,11.44,1.77,15.77,6.11c5.74,5.74,7.45,13.98,5.13,21.2l6.04,6.04c1.83-3.76,2.85-7.98,2.85-12.45
		C138.79,83.66,126.02,70.88,110.26,70.88z"/>
	<linearGradient id="SVGID_3_" gradientUnits="userSpaceOnUse" x1="-5.5851" y1="136.305" x2="103.6371" y2="27.0829">
		<stop  offset="0" style="stop-color:#ED7F22"/>
		<stop  offset="1" style="stop-color:#F19549"/>
	</linearGradient>
	<path class="st2" d="M76.26,99.42c0-18.76,15.19-33.97,33.95-33.99V33.65H92.5c-8.88,0-16.14-7.26-16.14-16.14V0.02H12.96
		c-6.46,0-11.75,5.29-11.75,11.75v126.48c0,6.46,5.29,11.75,11.75,11.75h85.51c6.46,0,11.75-5.29,11.75-11.75v-4.84
		C91.46,133.38,76.26,118.18,76.26,99.42z M15.21,46.01c0-1.1,0.9-2.01,2.01-2.01h30.3c1.1,0,2.01,0.9,2.01,2.01v1.01
		c0,1.1-0.9,2.01-2.01,2.01h-30.3c-1.1,0-2.01-0.9-2.01-2.01V46.01z M15.21,81.32c0-1.19,0.97-2.16,2.16-2.16h20.31
		c1.19,0,2.16,0.97,2.16,2.16v20.31c0,1.19-0.97,2.16-2.16,2.16H17.37c-1.19,0-2.16-0.97-2.16-2.16V81.32z M49.53,132.63
		c0,1.1-0.9,2.01-2.01,2.01h-30.3c-1.1,0-2.01-0.9-2.01-2.01v-1.01c0-1.1,0.9-2.01,2.01-2.01h30.3c1.1,0,2.01,0.9,2.01,2.01V132.63z
		 M58.12,115.21c0,1.23-1.01,2.25-2.25,2.25H17.45c-1.23,0-2.25-1.01-2.25-2.25v-0.53c0-1.23,1.01-2.25,2.25-2.25h38.42
		c1.23,0,2.25,1.01,2.25,2.25V115.21z M58.12,63.96c0,1.23-1.01,2.25-2.25,2.25H17.45c-1.23,0-2.25-1.01-2.25-2.25v-0.53
		c0-1.23,1.01-2.25,2.25-2.25h38.42c1.23,0,2.25,1.01,2.25,2.25V63.96z M68.89,29.33c0,1.38-1.13,2.51-2.51,2.51H17.72
		c-1.38,0-2.51-1.13-2.51-2.51v0c0-1.38,1.13-2.51,2.51-2.51h48.66C67.76,26.82,68.89,27.95,68.89,29.33L68.89,29.33z"/>
</g>
</svg>
