<?xml version="1.0" encoding="utf-8"?>
<!-- Generator: Adobe Illustrator 23.1.1, SVG Export Plug-In . SVG Version: 6.00 Build 0)  -->
<svg version="1.1" id="Layer_1" xmlns="http://www.w3.org/2000/svg" xmlns:xlink="http://www.w3.org/1999/xlink" x="0px" y="0px"
	 viewBox="0 0 180 150" style="enable-background:new 0 0 180 150;" xml:space="preserve">
<style type="text/css">
	.st0{fill:url(#SVGID_1_);}
	.st1{fill:url(#SVGID_2_);}
	.st2{fill:url(#SVGID_3_);}
	.st3{fill:url(#SVGID_4_);}
</style>
<g>
	<linearGradient id="SVGID_1_" gradientUnits="userSpaceOnUse" x1="37.3867" y1="22.388" x2="81.7329" y2="66.7342">
		<stop  offset="0" style="stop-color:#ED7F22"/>
		<stop  offset="1" style="stop-color:#F19549"/>
	</linearGradient>
	<path class="st0" d="M36.12,87.73L36,100.43c-0.04,4.45,5.33,6.7,8.47,3.56l7.3-7.3c-16.69-16.69-16.69-43.76,0-60.46
		c16.69-16.69,43.76-16.69,60.46,0l6.76-6.76c3.14-3.14,0.89-8.52-3.56-8.47l-12.7,0.12c-1.35,0.01-2.65-0.52-3.59-1.49L85.28,5.51
		c-1.95-1.98-5.14-1.98-7.09,0L64.33,19.64c-0.95,0.96-2.24,1.5-3.59,1.49l-19.79-0.19c-2.78-0.03-5.04,2.23-5.01,5.01l0.19,19.79
		c0.01,1.35-0.52,2.65-1.49,3.59L20.51,63.19c-1.98,1.95-1.98,5.14,0,7.09l14.13,13.86C35.6,85.08,36.14,86.38,36.12,87.73z"/>
	<linearGradient id="SVGID_2_" gradientUnits="userSpaceOnUse" x1="86.264" y1="71.2627" x2="89.928" y2="74.9268">
		<stop  offset="0" style="stop-color:#ED7F22"/>
		<stop  offset="1" style="stop-color:#F19549"/>
	</linearGradient>
	<path class="st1" d="M143.06,18.13L143.06,18.13c-1.01-1.01-2.66-1.01-3.66,0L33.14,124.39c-1.01,1.01-1.01,2.66,0,3.66
		c1.01,1.01,2.66,1.01,3.66,0L143.06,21.8C144.06,20.79,144.06,19.14,143.06,18.13z"/>
	<linearGradient id="SVGID_3_" gradientUnits="userSpaceOnUse" x1="56.6038" y1="41.0663" x2="82.0023" y2="66.4648">
		<stop  offset="0" style="stop-color:#ED7F22"/>
		<stop  offset="1" style="stop-color:#F19549"/>
	</linearGradient>
	<path class="st2" d="M56.6,41.07c-14.03,14.03-14.03,36.77,0,50.8l50.8-50.8C93.37,27.04,70.63,27.04,56.6,41.07z"/>
	<linearGradient id="SVGID_4_" gradientUnits="userSpaceOnUse" x1="93.9572" y1="78.9585" x2="130.9138" y2="115.9151">
		<stop  offset="0" style="stop-color:#ED7F22"/>
		<stop  offset="1" style="stop-color:#F19549"/>
	</linearGradient>
	<path class="st3" d="M155.82,76.05h-14.25l5.79-5.79c1.01-1,1.51-2.32,1.51-3.64s-0.5-2.65-1.51-3.65c-2-2-5.29-2-7.3,0
		l-10.94,10.95l-2.14,2.13H106.2l6.81-6.81l2,0l10.24,0c0.94,0,1.79-0.39,2.41-1.01c0.62-0.62,1-1.47,1-2.4
		c0-1.88-1.53-3.42-3.41-3.41h-5.42l6.66-6.66c0.66-0.66,1-1.54,0.99-2.41c0-0.87-0.33-1.75-0.99-2.41
		c-1.03-1.03-2.57-1.25-3.83-0.68l-57.43,57.43c-0.2,0.45-0.31,0.92-0.31,1.4c0,0.87,0.33,1.75,0.99,2.41c1.33,1.33,3.5,1.33,4.83,0
		l6.66-6.66v5.42c0,0.94,0.38,1.79,1,2.41c0.62,0.62,1.47,1.01,2.41,1c1.87,0,3.41-1.53,3.41-3.41l0-10.24l0-2l6.81-6.81v20.77
		l-2.14,2.15l-10.95,10.94c-1,1-1.5,2.33-1.5,3.65s0.5,2.64,1.5,3.64c2.01,2.01,5.3,2.01,7.3,0l5.79-5.79v14.25
		c0,1.41,0.58,2.71,1.52,3.64c0.93,0.94,2.23,1.52,3.64,1.52c2.84,0,5.16-2.32,5.16-5.16v-14.25l5.79,5.79
		c1,1.01,2.32,1.51,3.64,1.51c1.32,0,2.65-0.5,3.65-1.51c2-2,2-5.29,0-7.3l-10.95-10.94l-2.13-2.14V91.2l6.81,6.81l0,2l0,10.24
		c0,0.94,0.39,1.79,1.01,2.41c0.62,0.62,1.47,1,2.4,1c1.88,0,3.42-1.53,3.41-3.41v-5.42l6.66,6.66c0.66,0.66,1.54,1,2.41,0.99
		c0.87,0,1.75-0.33,2.41-0.99c1.33-1.33,1.33-3.5,0-4.83l-6.66-6.66h5.42c0.94,0,1.79-0.38,2.41-1c0.62-0.62,1.01-1.47,1-2.41
		c0-1.87-1.53-3.41-3.41-3.41l-10.24,0l-2,0l-6.81-6.81l20.77,0l2.15,2.14l10.94,10.95c1,1,2.33,1.5,3.65,1.5
		c1.32,0,2.64-0.5,3.64-1.5c2.01-2.01,2.01-5.3,0-7.3l-5.79-5.79h14.25c1.41,0,2.71-0.58,3.64-1.52c0.94-0.93,1.52-2.23,1.52-3.64
		C160.98,78.37,158.66,76.05,155.82,76.05z"/>
</g>
</svg>
