<?xml version="1.0" encoding="utf-8"?>
<!-- Generator: Adobe Illustrator 23.1.1, SVG Export Plug-In . SVG Version: 6.00 Build 0)  -->
<svg version="1.1" id="Layer_14" xmlns="http://www.w3.org/2000/svg" xmlns:xlink="http://www.w3.org/1999/xlink" x="0px" y="0px"
	 viewBox="0 0 240 150" style="enable-background:new 0 0 240 150;" xml:space="preserve">
<style type="text/css">
	.st0{fill:url(#SVGID_1_);}
	.st1{fill:none;stroke:url(#SVGID_2_);stroke-width:5;stroke-linecap:round;stroke-miterlimit:10;}
	.st2{fill:none;stroke:#FFFFFF;stroke-width:5;stroke-linecap:round;stroke-miterlimit:10;}
	.st3{fill:#FFFFFF;}
	.st4{fill:none;stroke:url(#SVGID_3_);stroke-width:5;stroke-linecap:round;stroke-miterlimit:10;}
	.st5{fill:url(#SVGID_4_);}
</style>
<g>
	<linearGradient id="SVGID_1_" gradientUnits="userSpaceOnUse" x1="94.4652" y1="75" x2="170.9301" y2="75">
		<stop  offset="0" style="stop-color:#ED7F22"/>
		<stop  offset="1" style="stop-color:#F19549"/>
	</linearGradient>
	<path class="st0" d="M165.41,117.42l-21.55,0c-4.26,0-7.79-3.3-8.08-7.55l-5.53-82.38c-0.21-3.1-2.78-5.51-5.89-5.51h0
		c-3.26,0-5.9,2.64-5.9,5.9v89.54l-18.48,0c-2.54,0-4.88,1.69-5.4,4.17c-0.72,3.4,1.9,6.43,5.18,6.43h65.86
		c3.29,0,5.9-3.03,5.18-6.43C170.29,119.1,167.95,117.42,165.41,117.42z"/>
	<linearGradient id="SVGID_2_" gradientUnits="userSpaceOnUse" x1="44.2443" y1="30.0698" x2="114.5465" y2="30.0698">
		<stop  offset="0" style="stop-color:#ED7F22"/>
		<stop  offset="1" style="stop-color:#F19549"/>
	</linearGradient>
	<line class="st1" x1="46.74" y1="30.07" x2="112.05" y2="30.07"/>
	<line class="st2" x1="46.74" y1="38.72" x2="112.05" y2="38.72"/>
	<line class="st2" x1="46.74" y1="47.37" x2="112.05" y2="47.37"/>
	<line class="st2" x1="46.74" y1="56.02" x2="61.81" y2="56.02"/>
	<line class="st2" x1="108.7" y1="73.33" x2="112.05" y2="73.33"/>
	<line class="st2" x1="108.19" y1="81.98" x2="112.05" y2="81.98"/>
	<line class="st2" x1="46.74" y1="107.93" x2="112.05" y2="107.93"/>
	<line class="st2" x1="46.74" y1="116.58" x2="88.88" y2="116.58"/>
	<line class="st3" x1="46.74" y1="125.23" x2="88.05" y2="125.23"/>
	<linearGradient id="SVGID_3_" gradientUnits="userSpaceOnUse" x1="173.7092" y1="120.3749" x2="195.7557" y2="120.3749">
		<stop  offset="0" style="stop-color:#ED7F22"/>
		<stop  offset="1" style="stop-color:#F19549"/>
	</linearGradient>
	<line class="st4" x1="176.21" y1="120.37" x2="193.26" y2="120.37"/>
	<linearGradient id="SVGID_4_" gradientUnits="userSpaceOnUse" x1="52.0976" y1="77.3721" x2="106.8177" y2="77.3721">
		<stop  offset="0" style="stop-color:#ED7F22"/>
		<stop  offset="1" style="stop-color:#F19549"/>
	</linearGradient>
	<path class="st5" d="M105.38,80.85L87.69,98.53c-3.1,3.1-8.4,0.9-8.4-3.48v-6.46H63.32c-6.17,0-11.22-5.05-11.22-11.22
		s5.05-11.22,11.22-11.22H79.3v-6.46c0-4.38,5.3-6.58,8.4-3.48l17.68,17.68C107.3,75.82,107.3,78.93,105.38,80.85z"/>
	<line class="st2" x1="93.23" y1="56.02" x2="112.05" y2="56.02"/>
	<line class="st2" x1="46.74" y1="99.84" x2="61.81" y2="99.84"/>
	<line class="st2" x1="93.23" y1="99.84" x2="112.05" y2="99.84"/>
	<line class="st2" x1="99.21" y1="64.67" x2="112.05" y2="64.67"/>
	<line class="st2" x1="99.21" y1="90.91" x2="112.05" y2="90.91"/>
</g>
</svg>
