<?xml version="1.0" encoding="utf-8"?>
<!-- Generator: Adobe Illustrator 23.1.1, SVG Export Plug-In . SVG Version: 6.00 Build 0)  -->
<svg version="1.1" id="Layer_5" xmlns="http://www.w3.org/2000/svg" xmlns:xlink="http://www.w3.org/1999/xlink" x="0px" y="0px"
	 viewBox="0 0 240 150" style="enable-background:new 0 0 240 150;" xml:space="preserve">
<style type="text/css">
	.st0{fill:url(#SVGID_1_);}
	.st1{fill:url(#SVGID_2_);}
	.st2{fill:url(#SVGID_3_);}
	.st3{fill:url(#SVGID_4_);}
</style>
<g>
	
		<linearGradient id="SVGID_1_" gradientUnits="userSpaceOnUse" x1="134.043" y1="-375.6581" x2="231.289" y2="-375.6581" gradientTransform="matrix(0.7071 -0.7071 0.7071 0.7071 249.4893 447.2582)">
		<stop  offset="0" style="stop-color:#ED7F22"/>
		<stop  offset="1" style="stop-color:#F19549"/>
	</linearGradient>
	<path class="st0" d="M133.6,15L90.9,57.7L86,52.9c-3.3-3.3-8.9-1-8.9,3.7l0,26.6c0,2.9,2.3,5.2,5.2,5.2h26.6c4.7,0,7-5.6,3.7-8.9
		l-4.9-4.9l42.7-42.7c3-3,3-7.8,0-10.8l-6.1-6.1C141.4,12.1,136.6,12.1,133.6,15z"/>
	
		<linearGradient id="SVGID_2_" gradientUnits="userSpaceOnUse" x1="3251.6484" y1="104.3146" x2="3348.8945" y2="104.3146" gradientTransform="matrix(-0.7071 0.7071 -0.7071 -0.7071 2534.3608 -2160.3462)">
		<stop  offset="0" style="stop-color:#ED7F22"/>
		<stop  offset="1" style="stop-color:#F19549"/>
	</linearGradient>
	<path class="st1" d="M106.4,137l42.7-42.7l4.9,4.9c3.3,3.3,8.9,1,8.9-3.7l0-26.6c0-2.9-2.3-5.2-5.2-5.2h-26.6c-4.7,0-7,5.6-3.7,8.9
		l4.9,4.9l-42.7,42.7c-3,3-3,7.8,0,10.8l6.1,6.1C98.6,139.9,103.4,139.9,106.4,137z"/>
	<g>
		
			<linearGradient id="SVGID_3_" gradientUnits="userSpaceOnUse" x1="109.022" y1="-383.871" x2="214.491" y2="-383.871" gradientTransform="matrix(0.7071 -0.7071 0.7071 0.7071 249.4893 447.2582)">
			<stop  offset="0" style="stop-color:#ED7F22"/>
			<stop  offset="1" style="stop-color:#F19549"/>
		</linearGradient>
		<path class="st2" d="M74.4,47.4c2.1-3.4,4.6-6.6,7.6-9.5c2.9-2.9,6.1-5.4,9.5-7.5c7.2-4.5,15.2-7.1,23.4-7.9
			c0.9-0.1,1.7-0.5,2.4-1.1c0,0,0,0,0,0l3.2-3.2c1.5-1.5,0.4-4.1-1.7-4.1c-11,0.2-21.9,3.4-31.5,9.4c-3.9,2.4-7.6,5.3-10.9,8.7
			c-3.4,3.4-6.3,7.1-8.7,11c-15,23.9-12.1,55.8,8.8,76.7l0.1,0.1c0.9,0.9,2.4,0.9,3.3,0l2.4-2.4c0.9-0.9,0.9-2.5,0-3.4l0,0
			C63.9,95.9,61.3,68.2,74.4,47.4z"/>
		
			<linearGradient id="SVGID_4_" gradientUnits="userSpaceOnUse" x1="127.4469" y1="-324.3082" x2="232.8755" y2="-324.3082" gradientTransform="matrix(0.7071 -0.7071 0.7071 0.7071 249.4893 447.2582)">
			<stop  offset="0" style="stop-color:#ED7F22"/>
			<stop  offset="1" style="stop-color:#F19549"/>
		</linearGradient>
		<path class="st3" d="M158,34.5c-0.9,0.9-0.9,2.5,0,3.4l0,0c21,21,21.1,55.1,0.1,76.1c-9.2,9.2-20.9,14.3-32.9,15.5
			c-0.9,0.1-1.7,0.5-2.4,1.2c0,0,0,0,0,0l-3.1,3.1c-1.5,1.5-0.4,4.1,1.8,4.1c15.4-0.3,30.7-6.4,42.4-18.1
			c24.2-24.2,24.1-63.4-0.1-87.6l-0.1-0.1c-0.9-0.9-2.4-0.9-3.3,0L158,34.5z"/>
	</g>
</g>
</svg>
