<?xml version="1.0" encoding="utf-8"?>
<!-- Generator: Adobe Illustrator 23.1.1, SVG Export Plug-In . SVG Version: 6.00 Build 0)  -->
<svg version="1.1" id="Layer_1" xmlns="http://www.w3.org/2000/svg" xmlns:xlink="http://www.w3.org/1999/xlink" x="0px" y="0px"
	 viewBox="0 0 180 150" style="enable-background:new 0 0 180 150;" xml:space="preserve">
<style type="text/css">
	.st0{fill:url(#SVGID_1_);}
	.st1{fill:#FFFFFF;}
</style>
<g>
	<linearGradient id="SVGID_1_" gradientUnits="userSpaceOnUse" x1="30" y1="75" x2="150" y2="75">
		<stop  offset="0" style="stop-color:#ED7F22"/>
		<stop  offset="1" style="stop-color:#F19549"/>
	</linearGradient>
	<path class="st0" d="M148.94,33.84c-12.61,0-22.83-10.22-22.83-22.83c0-0.66,0.03-1.31,0.09-1.95H53.8
		c0.05,0.64,0.09,1.3,0.09,1.95c0,12.61-10.22,22.83-22.83,22.83c-0.36,0-0.71-0.01-1.06-0.03v35.24c0,33,41.53,71.89,60,71.89h0
		c17.25,0,60-38.89,60-71.89V33.82C149.65,33.83,149.3,33.84,148.94,33.84z"/>
	<path class="st1" d="M129.15,58.56L87.85,99.87c-4.18,4.17-11.01,4.17-15.18,0L51.41,78.61c-4.18-4.17-4.18-11.01,0-15.18
		c4.18-4.18,11.01-4.18,15.18,0L80.25,77.1l33.72-33.72c4.17-4.17,11.01-4.17,15.18,0C133.33,47.55,133.33,54.39,129.15,58.56z"/>
</g>
</svg>
