<?xml version="1.0" encoding="utf-8"?>
<!-- Generator: Adobe Illustrator 23.1.1, SVG Export Plug-In . SVG Version: 6.00 Build 0)  -->
<svg version="1.1" id="Layer_1" xmlns="http://www.w3.org/2000/svg" xmlns:xlink="http://www.w3.org/1999/xlink" x="0px" y="0px"
	 viewBox="0 0 240 150" style="enable-background:new 0 0 240 150;" xml:space="preserve">
<style type="text/css">
	.st0{fill:url(#SVGID_1_);}
</style>
<linearGradient id="SVGID_1_" gradientUnits="userSpaceOnUse" x1="57.5" y1="75" x2="182.5" y2="75">
	<stop  offset="0" style="stop-color:#ED7F22"/>
	<stop  offset="1" style="stop-color:#F19549"/>
</linearGradient>
<path class="st0" d="M120,12.5c-34.52,0-62.5,27.98-62.5,62.5c0,34.52,27.98,62.5,62.5,62.5c34.52,0,62.5-27.98,62.5-62.5
	C182.5,40.48,154.52,12.5,120,12.5z M162.41,61.02l-45.76,45.76c-4.63,4.63-12.19,4.63-16.82,0L76.28,83.23
	c-4.63-4.63-4.63-12.19,0-16.82c4.63-4.63,12.19-4.63,16.82,0l15.14,15.14l37.35-37.35c4.63-4.63,12.19-4.63,16.82,0
	C167.04,48.82,167.04,56.39,162.41,61.02z"/>
</svg>
