<?xml version="1.0" encoding="utf-8"?>
<!-- Generator: Adobe Illustrator 23.1.1, SVG Export Plug-In . SVG Version: 6.00 Build 0)  -->
<svg version="1.1" id="Layer_14" xmlns="http://www.w3.org/2000/svg" xmlns:xlink="http://www.w3.org/1999/xlink" x="0px" y="0px"
	 viewBox="0 0 240 150" style="enable-background:new 0 0 240 150;" xml:space="preserve">
<style type="text/css">
	.st0{fill:url(#SVGID_1_);}
	.st1{fill:url(#SVGID_2_);}
	.st2{fill:url(#SVGID_3_);}
	.st3{fill:url(#SVGID_4_);}
	.st4{fill:url(#SVGID_5_);}
	.st5{fill:url(#SVGID_6_);}
	.st6{fill:url(#SVGID_7_);}
	.st7{fill:url(#SVGID_8_);}
	.st8{fill:url(#SVGID_9_);}
	.st9{fill:url(#SVGID_10_);}
	.st10{fill:url(#SVGID_11_);}
	.st11{fill:url(#SVGID_12_);}
	.st12{fill:url(#SVGID_13_);}
	.st13{fill:url(#SVGID_14_);}
	.st14{fill:url(#SVGID_15_);}
	.st15{fill:url(#SVGID_16_);}
</style>
<g>
	<linearGradient id="SVGID_1_" gradientUnits="userSpaceOnUse" x1="39.7754" y1="108.7339" x2="200.2253" y2="108.7339">
		<stop  offset="0" style="stop-color:#ED7F22"/>
		<stop  offset="1" style="stop-color:#F19549"/>
	</linearGradient>
	<path class="st0" d="M197.07,105.58H42.93c-1.73,0-3.15,1.42-3.15,3.15c0,1.73,1.42,3.15,3.15,3.15h154.15
		c1.73,0,3.15-1.42,3.15-3.15C200.23,107,198.81,105.58,197.07,105.58z"/>
	<linearGradient id="SVGID_2_" gradientUnits="userSpaceOnUse" x1="46.7132" y1="97.5545" x2="74.9356" y2="97.5545">
		<stop  offset="0" style="stop-color:#ED7F22"/>
		<stop  offset="1" style="stop-color:#F19549"/>
	</linearGradient>
	<path class="st1" d="M46.71,93.53v8.05c0,1.54,1.26,2.8,2.8,2.8h22.62c1.54,0,2.8-1.26,2.8-2.8v-8.05c0-1.54-1.26-2.8-2.8-2.8
		H49.52C47.97,90.73,46.71,91.99,46.71,93.53z"/>
	<linearGradient id="SVGID_3_" gradientUnits="userSpaceOnUse" x1="76.3012" y1="97.5545" x2="104.5235" y2="97.5545">
		<stop  offset="0" style="stop-color:#ED7F22"/>
		<stop  offset="1" style="stop-color:#F19549"/>
	</linearGradient>
	<path class="st2" d="M79.1,90.73c-1.54,0-2.8,1.26-2.8,2.8v8.05c0,1.54,1.26,2.8,2.8,2.8h22.62c1.54,0,2.8-1.26,2.8-2.8v-8.05
		c0-1.54-1.26-2.8-2.8-2.8H79.1z"/>
	<linearGradient id="SVGID_4_" gradientUnits="userSpaceOnUse" x1="105.8892" y1="97.5545" x2="134.1114" y2="97.5545">
		<stop  offset="0" style="stop-color:#ED7F22"/>
		<stop  offset="1" style="stop-color:#F19549"/>
	</linearGradient>
	<path class="st3" d="M108.69,104.38h22.62c1.54,0,2.8-1.26,2.8-2.8v-8.05c0-1.54-1.26-2.8-2.8-2.8h-22.62c-1.54,0-2.8,1.26-2.8,2.8
		v8.05C105.89,103.12,107.15,104.38,108.69,104.38z"/>
	<linearGradient id="SVGID_5_" gradientUnits="userSpaceOnUse" x1="135.4771" y1="97.5545" x2="163.6993" y2="97.5545">
		<stop  offset="0" style="stop-color:#ED7F22"/>
		<stop  offset="1" style="stop-color:#F19549"/>
	</linearGradient>
	<path class="st4" d="M138.28,104.38h22.62c1.54,0,2.8-1.26,2.8-2.8v-8.05c0-1.54-1.26-2.8-2.8-2.8h-22.62c-1.54,0-2.8,1.26-2.8,2.8
		v8.05C135.48,103.12,136.74,104.38,138.28,104.38z"/>
	<linearGradient id="SVGID_6_" gradientUnits="userSpaceOnUse" x1="165.065" y1="97.5545" x2="193.2872" y2="97.5545">
		<stop  offset="0" style="stop-color:#ED7F22"/>
		<stop  offset="1" style="stop-color:#F19549"/>
	</linearGradient>
	<path class="st5" d="M165.07,93.53v8.05c0,1.54,1.26,2.8,2.8,2.8h22.62c1.54,0,2.8-1.26,2.8-2.8v-8.05c0-1.54-1.26-2.8-2.8-2.8
		h-22.62C166.33,90.73,165.07,91.99,165.07,93.53z"/>
	<linearGradient id="SVGID_7_" gradientUnits="userSpaceOnUse" x1="91.0951" y1="52.9163" x2="119.3175" y2="52.9163">
		<stop  offset="0" style="stop-color:#ED7F22"/>
		<stop  offset="1" style="stop-color:#F19549"/>
	</linearGradient>
	<path class="st6" d="M116.51,46.09H93.9c-1.54,0-2.8,1.26-2.8,2.8v8.05c0,1.54,1.26,2.8,2.8,2.8h22.62c1.54,0,2.8-1.26,2.8-2.8
		v-8.05C119.32,47.35,118.06,46.09,116.51,46.09z"/>
	<linearGradient id="SVGID_8_" gradientUnits="userSpaceOnUse" x1="120.6832" y1="52.9163" x2="148.9054" y2="52.9163">
		<stop  offset="0" style="stop-color:#ED7F22"/>
		<stop  offset="1" style="stop-color:#F19549"/>
	</linearGradient>
	<path class="st7" d="M146.1,46.09h-22.62c-1.54,0-2.8,1.26-2.8,2.8v8.05c0,1.54,1.26,2.8,2.8,2.8h22.62c1.54,0,2.8-1.26,2.8-2.8
		v-8.05C148.91,47.35,147.64,46.09,146.1,46.09z"/>
	<linearGradient id="SVGID_9_" gradientUnits="userSpaceOnUse" x1="76.3012" y1="67.7958" x2="104.5235" y2="67.7958">
		<stop  offset="0" style="stop-color:#ED7F22"/>
		<stop  offset="1" style="stop-color:#F19549"/>
	</linearGradient>
	<path class="st8" d="M76.3,63.77v8.05c0,1.54,1.26,2.8,2.8,2.8h22.62c1.54,0,2.8-1.26,2.8-2.8v-8.05c0-1.54-1.26-2.8-2.8-2.8H79.1
		C77.56,60.97,76.3,62.23,76.3,63.77z"/>
	<linearGradient id="SVGID_10_" gradientUnits="userSpaceOnUse" x1="105.8892" y1="67.7958" x2="134.1114" y2="67.7958">
		<stop  offset="0" style="stop-color:#ED7F22"/>
		<stop  offset="1" style="stop-color:#F19549"/>
	</linearGradient>
	<path class="st9" d="M105.89,63.77v8.05c0,1.54,1.26,2.8,2.8,2.8h22.62c1.54,0,2.8-1.26,2.8-2.8v-8.05c0-1.54-1.26-2.8-2.8-2.8
		h-22.62C107.15,60.97,105.89,62.23,105.89,63.77z"/>
	<linearGradient id="SVGID_11_" gradientUnits="userSpaceOnUse" x1="135.4771" y1="67.7958" x2="163.6993" y2="67.7958">
		<stop  offset="0" style="stop-color:#ED7F22"/>
		<stop  offset="1" style="stop-color:#F19549"/>
	</linearGradient>
	<path class="st10" d="M160.9,60.97h-22.62c-1.54,0-2.8,1.26-2.8,2.8v8.05c0,1.54,1.26,2.8,2.8,2.8h22.62c1.54,0,2.8-1.26,2.8-2.8
		v-8.05C163.7,62.23,162.44,60.97,160.9,60.97z"/>
	<linearGradient id="SVGID_12_" gradientUnits="userSpaceOnUse" x1="61.5072" y1="82.6751" x2="89.7295" y2="82.6751">
		<stop  offset="0" style="stop-color:#ED7F22"/>
		<stop  offset="1" style="stop-color:#F19549"/>
	</linearGradient>
	<path class="st11" d="M61.51,78.65v8.05c0,1.54,1.26,2.8,2.8,2.8h22.62c1.54,0,2.8-1.26,2.8-2.8v-8.05c0-1.54-1.26-2.8-2.8-2.8
		H64.31C62.77,75.85,61.51,77.11,61.51,78.65z"/>
	<linearGradient id="SVGID_13_" gradientUnits="userSpaceOnUse" x1="91.0951" y1="82.6751" x2="119.3175" y2="82.6751">
		<stop  offset="0" style="stop-color:#ED7F22"/>
		<stop  offset="1" style="stop-color:#F19549"/>
	</linearGradient>
	<path class="st12" d="M119.32,86.7v-8.05c0-1.54-1.26-2.8-2.8-2.8H93.9c-1.54,0-2.8,1.26-2.8,2.8v8.05c0,1.54,1.26,2.8,2.8,2.8
		h22.62C118.06,89.5,119.32,88.24,119.32,86.7z"/>
	<linearGradient id="SVGID_14_" gradientUnits="userSpaceOnUse" x1="120.6832" y1="82.6751" x2="148.9054" y2="82.6751">
		<stop  offset="0" style="stop-color:#ED7F22"/>
		<stop  offset="1" style="stop-color:#F19549"/>
	</linearGradient>
	<path class="st13" d="M148.91,86.7v-8.05c0-1.54-1.26-2.8-2.8-2.8h-22.62c-1.54,0-2.8,1.26-2.8,2.8v8.05c0,1.54,1.26,2.8,2.8,2.8
		h22.62C147.64,89.5,148.91,88.24,148.91,86.7z"/>
	<linearGradient id="SVGID_15_" gradientUnits="userSpaceOnUse" x1="150.2711" y1="82.6751" x2="178.4933" y2="82.6751">
		<stop  offset="0" style="stop-color:#ED7F22"/>
		<stop  offset="1" style="stop-color:#F19549"/>
	</linearGradient>
	<path class="st14" d="M175.69,75.85h-22.62c-1.54,0-2.8,1.26-2.8,2.8v8.05c0,1.54,1.26,2.8,2.8,2.8h22.62c1.54,0,2.8-1.26,2.8-2.8
		v-8.05C178.49,77.11,177.23,75.85,175.69,75.85z"/>
	<linearGradient id="SVGID_16_" gradientUnits="userSpaceOnUse" x1="9.7212" y1="75" x2="230.2788" y2="75">
		<stop  offset="0" style="stop-color:#ED7F22"/>
		<stop  offset="1" style="stop-color:#F19549"/>
	</linearGradient>
	<path class="st15" d="M228.32,107.98h-6.56L150.6,38.12H92.13l-70.71,69.41h-9.74c-1.08,0-1.95,0.88-1.95,1.95
		c0,1.08,0.88,1.95,1.95,1.95h11.34l70.71-69.41H149l71.16,69.86h8.16c1.08,0,1.95-0.88,1.95-1.95
		C230.28,108.85,229.4,107.98,228.32,107.98z"/>
</g>
</svg>
