<?xml version="1.0" encoding="utf-8"?>
<!-- Generator: Adobe Illustrator 23.1.1, SVG Export Plug-In . SVG Version: 6.00 Build 0)  -->
<svg version="1.1" id="Layer_1" xmlns="http://www.w3.org/2000/svg" xmlns:xlink="http://www.w3.org/1999/xlink" x="0px" y="0px"
	 viewBox="0 0 180 150" style="enable-background:new 0 0 180 150;" xml:space="preserve">
<style type="text/css">
	.st0{fill:url(#SVGID_1_);}
	.st1{fill:url(#SVGID_2_);}
	.st2{fill:url(#SVGID_3_);}
	.st3{fill:url(#SVGID_4_);}
	.st4{fill:url(#SVGID_5_);}
	.st5{fill:url(#SVGID_6_);}
	.st6{fill:url(#SVGID_7_);}
	.st7{fill:url(#SVGID_8_);}
	.st8{fill:url(#SVGID_9_);}
	.st9{fill:url(#SVGID_10_);}
	.st10{fill:url(#SVGID_11_);}
	.st11{fill:url(#SVGID_12_);}
</style>
<g>
	<g>
		
			<linearGradient id="SVGID_1_" gradientUnits="userSpaceOnUse" x1="66.3968" y1="85.9331" x2="148.4209" y2="85.9331" gradientTransform="matrix(1 0 0 1 -13.8264 -34.1808)">
			<stop  offset="0" style="stop-color:#ED7F22"/>
			<stop  offset="1" style="stop-color:#F19549"/>
		</linearGradient>
		<path class="st0" d="M89.23,29.94L75.98,43.19c-0.66,0.66-0.94,1.59-0.85,2.52c0.26,2.57-0.57,5.23-2.53,7.18
			c-1.95,1.95-4.61,2.79-7.17,2.53c-0.93-0.09-1.87,0.19-2.53,0.86l-9.44,9.44c-1.18,1.18-1.18,3.08,0,4.26l11.54,11.54
			c1.18,1.18,3.08,1.18,4.26,0l9.44-9.44c0.66-0.66,0.94-1.59,0.85-2.52c-0.26-2.57,0.57-5.23,2.53-7.19
			c6.32-6.32,14.61,0.29,16.63,2.32l10.45,10.54c1.17,1.18,3.09,1.19,4.26,0.01l8.37-8.37c1.18-1.18,1.18-3.08,0-4.26L111.29,52.1
			c-5.56-5.56-6.21-12.75,0.05-19c5.62-5.62,13.25-7.03,19.99-6.05c1.45,0.21,2.82-0.68,3.27-2.07v0c-0.01-0.01-0.01-0.01-0.01-0.01
			C119.26,17.46,97.3,21.87,89.23,29.94z"/>
		
			<linearGradient id="SVGID_2_" gradientUnits="userSpaceOnUse" x1="128.8935" y1="134.0902" x2="191.8871" y2="134.0902" gradientTransform="matrix(1 0 0 1 -13.8264 -34.1808)">
			<stop  offset="0" style="stop-color:#ED7F22"/>
			<stop  offset="1" style="stop-color:#F19549"/>
		</linearGradient>
		<path class="st1" d="M125.69,69.29l-9.74,9.74c-0.88,0.88-1.12,2.21-0.62,3.35c4.51,10.27,7.9,14.81,18.13,23.37
			c19.5,16.31,18.65,18.9,22.14,22.46c3.49,3.56,8.1,4.16,10.53,1.73l10.47-10.47c2.43-2.43,1.83-7.04-1.73-10.53
			c-3.56-3.49-6.15-2.64-22.46-22.14c-8.56-10.23-13.1-13.62-23.37-18.13C127.9,68.17,126.57,68.42,125.69,69.29z"/>
	</g>
	
		<linearGradient id="SVGID_3_" gradientUnits="userSpaceOnUse" x1="-162.9899" y1="784.597" x2="-158.9621" y2="788.6248" gradientTransform="matrix(0 1 -1 0 820.5811 214.5396)">
		<stop  offset="0" style="stop-color:#ED7F22"/>
		<stop  offset="1" style="stop-color:#F19549"/>
	</linearGradient>
	<path class="st2" d="M46.3,65.89L46.3,65.89c1.11-1.11,1.11-2.92,0-4.03L25.67,41.24c-1.11-1.11-2.92-1.11-4.03,0
		c-1.11,1.11-1.11,2.92,0,4.03l20.63,20.63C43.38,67,45.19,67,46.3,65.89z"/>
	
		<linearGradient id="SVGID_4_" gradientUnits="userSpaceOnUse" x1="-105.1178" y1="726.725" x2="-101.09" y2="730.7527" gradientTransform="matrix(0 1 -1 0 820.5811 214.5396)">
		<stop  offset="0" style="stop-color:#ED7F22"/>
		<stop  offset="1" style="stop-color:#F19549"/>
	</linearGradient>
	<path class="st3" d="M93.86,113.45L93.86,113.45c1.11-1.11,1.11-2.92,0-4.03h0c-1.11-1.11-2.92-1.11-4.03,0
		c-1.11,1.11-1.11,2.92,0,4.03l0,0C90.94,114.56,92.75,114.56,93.86,113.45z"/>
	
		<linearGradient id="SVGID_5_" gradientUnits="userSpaceOnUse" x1="-118.6679" y1="740.2751" x2="-114.6402" y2="744.3029" gradientTransform="matrix(0 1 -1 0 820.5811 214.5396)">
		<stop  offset="0" style="stop-color:#ED7F22"/>
		<stop  offset="1" style="stop-color:#F19549"/>
	</linearGradient>
	<path class="st4" d="M87.54,107.13L87.54,107.13c1.11-1.11,1.11-2.92,0-4.03L73.07,88.64c-1.11-1.11-2.92-1.11-4.03,0
		c-1.11,1.11-1.11,2.92,0,4.03l14.47,14.47C84.62,108.24,86.43,108.24,87.54,107.13z"/>
	
		<linearGradient id="SVGID_6_" gradientUnits="userSpaceOnUse" x1="120.8932" y1="1054.3668" x2="124.9209" y2="1058.3947" gradientTransform="matrix(-0.7071 0.7071 -0.7071 -0.7071 891.0782 700.5276)">
		<stop  offset="0" style="stop-color:#ED7F22"/>
		<stop  offset="1" style="stop-color:#F19549"/>
	</linearGradient>
	<path class="st5" d="M57.2,53.86L57.2,53.86c1.57,0,2.85-1.28,2.85-2.85l0-21.1c0-1.57-1.28-2.85-2.85-2.85
		c-1.57,0-2.85,1.28-2.85,2.85v21.1C54.35,52.58,55.63,53.86,57.2,53.86z"/>
	
		<linearGradient id="SVGID_7_" gradientUnits="userSpaceOnUse" x1="107.294" y1="1067.9659" x2="111.3218" y2="1071.9938" gradientTransform="matrix(-0.7071 0.7071 -0.7071 -0.7071 891.0782 700.5276)">
		<stop  offset="0" style="stop-color:#ED7F22"/>
		<stop  offset="1" style="stop-color:#F19549"/>
	</linearGradient>
	<path class="st6" d="M57.2,24.87L57.2,24.87c1.57,0,2.85-1.28,2.85-2.85l0-1.58c0-1.57-1.28-2.85-2.85-2.85
		c-1.57,0-2.85,1.28-2.85,2.85v1.58C54.35,23.59,55.63,24.87,57.2,24.87z"/>
	
		<linearGradient id="SVGID_8_" gradientUnits="userSpaceOnUse" x1="823.3696" y1="99.4418" x2="827.3973" y2="103.4696" gradientTransform="matrix(0.7071 -0.7071 0.7071 0.7071 -598.1785 618.1581)">
		<stop  offset="0" style="stop-color:#ED7F22"/>
		<stop  offset="1" style="stop-color:#F19549"/>
	</linearGradient>
	<path class="st7" d="M57.2,89.59L57.2,89.59c-1.57,0-2.85,1.28-2.85,2.85l0,27.65c0,1.57,1.28,2.85,2.85,2.85
		c1.57,0,2.85-1.28,2.85-2.85V92.44C60.04,90.87,58.76,89.59,57.2,89.59z"/>
	
		<linearGradient id="SVGID_9_" gradientUnits="userSpaceOnUse" x1="807.4554" y1="115.356" x2="811.4832" y2="119.3838" gradientTransform="matrix(0.7071 -0.7071 0.7071 0.7071 -598.1785 618.1581)">
		<stop  offset="0" style="stop-color:#ED7F22"/>
		<stop  offset="1" style="stop-color:#F19549"/>
	</linearGradient>
	<path class="st8" d="M57.2,125.13L57.2,125.13c-1.57,0-2.85,1.28-2.85,2.85l0,1.58c0,1.57,1.28,2.85,2.85,2.85
		c1.57,0,2.85-1.28,2.85-2.85v-1.58C60.04,126.41,58.76,125.13,57.2,125.13z"/>
	
		<linearGradient id="SVGID_10_" gradientUnits="userSpaceOnUse" x1="869.2318" y1="891.9895" x2="873.2595" y2="896.0173" gradientTransform="matrix(-0.7071 -0.7071 0.7071 -0.7071 14.5681 1327.219)">
		<stop  offset="0" style="stop-color:#ED7F22"/>
		<stop  offset="1" style="stop-color:#F19549"/>
	</linearGradient>
	<path class="st9" d="M18.14,79L18.14,79c0,1.57,1.28,2.85,2.85,2.85l19.35,0c1.57,0,2.85-1.28,2.85-2.85
		c0-1.57-1.28-2.85-2.85-2.85H20.98C19.42,76.15,18.14,77.43,18.14,79z"/>
	
		<linearGradient id="SVGID_11_" gradientUnits="userSpaceOnUse" x1="884.7927" y1="876.4285" x2="888.8204" y2="880.4563" gradientTransform="matrix(-0.7071 -0.7071 0.7071 -0.7071 14.5681 1327.219)">
		<stop  offset="0" style="stop-color:#ED7F22"/>
		<stop  offset="1" style="stop-color:#F19549"/>
	</linearGradient>
	<path class="st10" d="M1.94,79L1.94,79c0,1.57,1.28,2.85,2.85,2.85l7.73,0c1.57,0,2.85-1.28,2.85-2.85c0-1.57-1.28-2.85-2.85-2.85
		H4.79C3.22,76.15,1.94,77.43,1.94,79z"/>
	
		<linearGradient id="SVGID_12_" gradientUnits="userSpaceOnUse" x1="289.383" y1="203.6671" x2="293.4107" y2="207.6948" gradientTransform="matrix(1 0 0 1 -254.6544 -104.9386)">
		<stop  offset="0" style="stop-color:#ED7F22"/>
		<stop  offset="1" style="stop-color:#F19549"/>
	</linearGradient>
	<path class="st11" d="M49.07,88.42L49.07,88.42c-1.11-1.11-2.92-1.11-4.03,0l-20.63,20.63c-1.11,1.11-1.11,2.92,0,4.03
		c1.11,1.11,2.92,1.11,4.03,0l20.63-20.63C50.18,91.34,50.18,89.52,49.07,88.42z"/>
</g>
</svg>
