<?xml version="1.0" encoding="utf-8"?>
<!-- Generator: Adobe Illustrator 23.1.1, SVG Export Plug-In . SVG Version: 6.00 Build 0)  -->
<svg version="1.1" id="Layer_12" xmlns="http://www.w3.org/2000/svg" xmlns:xlink="http://www.w3.org/1999/xlink" x="0px" y="0px"
	 viewBox="0 0 240 150" style="enable-background:new 0 0 240 150;" xml:space="preserve">
<style type="text/css">
	.st0{fill:url(#SVGID_1_);}
	.st1{fill:url(#SVGID_2_);}
	.st2{fill:url(#SVGID_3_);}
	.st3{fill:url(#SVGID_4_);}
	.st4{fill:url(#SVGID_5_);}
</style>
<g>
	<linearGradient id="SVGID_1_" gradientUnits="userSpaceOnUse" x1="121.6906" y1="113.4688" x2="177.4281" y2="113.4688">
		<stop  offset="0" style="stop-color:#ED7F22"/>
		<stop  offset="1" style="stop-color:#F19549"/>
	</linearGradient>
	<path class="st0" d="M149.56,85.6c-15.39,0-27.87,12.48-27.87,27.87s12.48,27.87,27.87,27.87c15.39,0,27.87-12.48,27.87-27.87
		S164.95,85.6,149.56,85.6z M151.41,128.7l0,2.77c0,1.68-1.36,3.04-3.04,3.04c-1.68,0-3.04-1.36-3.04-3.04l0-2.71
		c-2.73-0.43-5.24-1.4-6.62-2.44c-0.87-0.64-1.47-1.47-1.43-2.53c0.05-1.75,1.52-2.99,2.99-2.94c0.28,0,0.87,0.09,1.38,0.37
		c1.84,0.97,3.77,1.98,6.58,2.07c3.54,0.14,5.43-1.29,5.43-2.99c0-5.33-16.65-2.3-16.64-13.52c-0.01-5.33,3.72-8.24,8.27-9.1l0-2.76
		c0-1.68,1.36-3.04,3.04-3.04s3.04,1.36,3.04,3.04l0,2.81c2.63,0.53,5.16,1.63,6.62,2.66c0.64,0.46,1.38,1.2,1.33,2.35
		c-0.05,1.47-1.33,2.67-2.71,2.62c-0.41,0-0.92-0.14-1.33-0.37c-2.39-1.29-3.82-1.84-7.08-1.84c-3.18,0-4.92,1.52-4.91,3.3
		c-0.01,5.62,16.68,2.68,16.66,13.44C159.97,125.12,155.95,127.86,151.41,128.7z"/>
	<linearGradient id="SVGID_2_" gradientUnits="userSpaceOnUse" x1="62.5719" y1="14.3842" x2="157.7873" y2="14.3842">
		<stop  offset="0" style="stop-color:#ED7F22"/>
		<stop  offset="1" style="stop-color:#F19549"/>
	</linearGradient>
	<path class="st1" d="M63.94,18.94c0.17,0.68,0.78,1.17,1.48,1.17h89.52c0.7,0,1.32-0.48,1.48-1.17l1.26-5.19
		c0.64-2.64-1.86-5.09-5.2-5.09c0,0-32.04,5.22-42.74,5.22c-10.48,0-41.87-5.22-41.87-5.22c-3.34,0-5.85,2.45-5.2,5.09L63.94,18.94z
		"/>
	<linearGradient id="SVGID_3_" gradientUnits="userSpaceOnUse" x1="62.5719" y1="132.6016" x2="123.6734" y2="132.6016">
		<stop  offset="0" style="stop-color:#ED7F22"/>
		<stop  offset="1" style="stop-color:#F19549"/>
	</linearGradient>
	<path class="st2" d="M65.42,126.88c-0.7,0-1.32,0.48-1.48,1.17l-1.26,5.19c-0.64,2.64,1.86,5.09,5.2,5.09
		c0,0,32.04-5.22,42.74-5.22c3.03,0,7.8,0.44,13.06,1.06c-1.78-2.21-3.27-4.66-4.44-7.28H65.42z"/>
	<linearGradient id="SVGID_4_" gradientUnits="userSpaceOnUse" x1="137.7506" y1="57.7147" x2="143.8055" y2="57.7147">
		<stop  offset="0" style="stop-color:#ED7F22"/>
		<stop  offset="1" style="stop-color:#F19549"/>
	</linearGradient>
	<path class="st3" d="M140.78,61c1.73,0,3.03-1.41,3.03-3.28c0-1.87-1.3-3.28-3.03-3.28s-3.03,1.41-3.03,3.28
		C137.75,59.59,139.05,61,140.78,61z"/>
	<linearGradient id="SVGID_5_" gradientUnits="userSpaceOnUse" x1="64.2221" y1="73.4929" x2="156.1371" y2="73.4929">
		<stop  offset="0" style="stop-color:#ED7F22"/>
		<stop  offset="1" style="stop-color:#F19549"/>
	</linearGradient>
	<path class="st4" d="M149.53,80.29c2.26,0,4.47,0.23,6.61,0.66V24.83H64.22v97.33h53.33c-0.76-2.78-1.17-5.7-1.17-8.72
		C116.38,95.13,131.22,80.29,149.53,80.29z M140.78,51.39c3.58,0,6.27,2.72,6.27,6.33s-2.7,6.33-6.27,6.33s-6.27-2.72-6.27-6.33
		S137.2,51.39,140.78,51.39z M83.42,62.29c-1.16,1.13-2.72,1.75-4.4,1.75c-3.58,0-6.27-2.72-6.27-6.33s2.7-6.33,6.27-6.33
		c1.68,0,3.25,0.62,4.4,1.75c0.3,0.29,0.46,0.68,0.46,1.1c0,0.84-0.69,1.53-1.53,1.53c-0.41,0-0.79-0.16-1.08-0.45
		c-0.58-0.58-1.33-0.89-2.17-0.89c-1.8,0-3.11,1.38-3.11,3.28c0,1.87,1.34,3.28,3.11,3.28c0.84,0,1.59-0.31,2.17-0.89
		c0.29-0.29,0.67-0.45,1.08-0.45c0.84,0,1.53,0.69,1.53,1.53C83.89,61.61,83.72,62,83.42,62.29z M90.33,56.29
		c0.84,0,1.52,0.68,1.52,1.52s-0.68,1.52-1.52,1.52h-2.46v1.56h2.98c0.84,0,1.52,0.68,1.52,1.52c0,0.84-0.68,1.52-1.52,1.52h-4.59
		c-0.9,0-1.63-0.73-1.63-1.62v-9.2c0-0.89,0.73-1.62,1.62-1.62h4.6c0.84,0,1.52,0.68,1.52,1.52c0,0.84-0.68,1.52-1.52,1.52h-2.98
		v1.76H90.33z M104.77,62.31c0,0.89-0.73,1.62-1.62,1.62s-1.62-0.73-1.62-1.62v-4.78l-1.34,1.73c-0.29,0.38-0.74,0.6-1.21,0.6
		c-0.54,0-0.98-0.22-1.28-0.6l-1.34-1.73v4.78c0,0.89-0.73,1.62-1.62,1.62c-0.89,0-1.62-0.73-1.62-1.62v-9.2
		c0-0.89,0.73-1.62,1.62-1.62c0.54,0,1.04,0.27,1.35,0.72l2.86,3.7l2.88-3.72c0.28-0.42,0.79-0.69,1.33-0.69
		c0.89,0,1.62,0.73,1.62,1.62V62.31z M111.76,56.29c0.84,0,1.52,0.68,1.52,1.52s-0.68,1.52-1.52,1.52h-2.46v1.56h2.98
		c0.84,0,1.52,0.68,1.52,1.52c0,0.84-0.68,1.52-1.52,1.52h-4.59c-0.9,0-1.63-0.73-1.63-1.62v-9.2c0-0.89,0.73-1.62,1.62-1.62h4.6
		c0.84,0,1.52,0.68,1.52,1.52c0,0.84-0.68,1.52-1.52,1.52h-2.98v1.76H111.76z M124.75,62.31c0,0.43-0.17,0.84-0.48,1.15
		c-0.31,0.31-0.71,0.48-1.13,0.48c-0.52,0-1.06-0.27-1.36-0.69l-4.08-5.54v4.6c0,0.89-0.74,1.62-1.64,1.62
		c-0.89,0-1.61-0.73-1.61-1.62v-9.2c0-0.89,0.72-1.62,1.61-1.62c0.53,0,1.03,0.26,1.35,0.68l4.1,5.56v-4.62
		c0-0.91,0.71-1.62,1.62-1.62c0.44,0,0.84,0.17,1.15,0.48c0.31,0.31,0.47,0.72,0.47,1.15V62.31z M125.24,53.01
		c0-0.84,0.68-1.52,1.52-1.52h6.58c0.84,0,1.52,0.68,1.52,1.52c0,0.84-0.68,1.52-1.52,1.52h-1.66v7.78c0,0.89-0.73,1.62-1.62,1.62
		c-0.89,0-1.62-0.73-1.62-1.62v-7.78h-1.66C125.92,54.53,125.24,53.85,125.24,53.01z"/>
</g>
</svg>
