<?xml version="1.0" encoding="utf-8"?>
<!-- Generator: Adobe Illustrator 23.1.1, SVG Export Plug-In . SVG Version: 6.00 Build 0)  -->
<svg version="1.1" id="Layer_1" xmlns="http://www.w3.org/2000/svg" xmlns:xlink="http://www.w3.org/1999/xlink" x="0px" y="0px"
	 viewBox="0 0 240 150" style="enable-background:new 0 0 240 150;" xml:space="preserve">
<style type="text/css">
	.st0{fill:url(#SVGID_1_);}
	.st1{fill:url(#SVGID_2_);}
	.st2{fill:url(#SVGID_3_);}
	.st3{fill:#ED7F22;}
</style>
<g>
	
		<linearGradient id="SVGID_1_" gradientUnits="userSpaceOnUse" x1="1253.3186" y1="62.1972" x2="1282.6932" y2="62.1972" gradientTransform="matrix(-1 0 0 1 1372.5161 0)">
		<stop  offset="0" style="stop-color:#ED7F22"/>
		<stop  offset="1" style="stop-color:#F19549"/>
	</linearGradient>
	<path class="st0" d="M93.1,12.7h22.8c1.8,0,3.3,1.5,3.3,3.3v92.3c0,1.8-1.5,3.3-3.3,3.3H93.1c-1.8,0-3.3-1.5-3.3-3.3V16
		C89.8,14.2,91.3,12.7,93.1,12.7z"/>
	
		<linearGradient id="SVGID_2_" gradientUnits="userSpaceOnUse" x1="1292.6932" y1="62.1972" x2="1307.3806" y2="62.1972" gradientTransform="matrix(-1 0 0 1 1372.5161 0)">
		<stop  offset="0" style="stop-color:#ED7F22"/>
		<stop  offset="1" style="stop-color:#F19549"/>
	</linearGradient>
	<path class="st1" d="M68.4,12.7h8.1c1.8,0,3.3,1.5,3.3,3.3v92.3c0,1.8-1.5,3.3-3.3,3.3h-8.1c-1.8,0-3.3-1.5-3.3-3.3V16
		C65.1,14.2,66.6,12.7,68.4,12.7z"/>
	
		<linearGradient id="SVGID_3_" gradientUnits="userSpaceOnUse" x1="1199.5585" y1="62.1972" x2="1243.3186" y2="62.1972" gradientTransform="matrix(-1 0 0 1 1372.5161 0)">
		<stop  offset="0" style="stop-color:#ED7F22"/>
		<stop  offset="1" style="stop-color:#F19549"/>
	</linearGradient>
	<path class="st2" d="M132.5,12.7h37.1c1.8,0,3.3,1.5,3.3,3.3v92.3c0,1.8-1.5,3.3-3.3,3.3h-37.1c-1.8,0-3.3-1.5-3.3-3.3V16
		C129.2,14.2,130.7,12.7,132.5,12.7z"/>
	<g>
		<path class="st3" d="M79.9,128h-5.5c-0.6,0-1.2-0.5-1.2-1.2s0.5-1.2,1.2-1.2h5.5c0.6,0,1.2,0.5,1.2,1.2S80.5,128,79.9,128z"/>
		<path class="st3" d="M70.9,128h-5.5c-0.6,0-1.2-0.5-1.2-1.2s0.5-1.2,1.2-1.2h5.5c0.6,0,1.2,0.5,1.2,1.2S71.5,128,70.9,128z"/>
	</g>
	<path class="st3" d="M64.9,135.1c-0.6,0-1.2-0.5-1.2-1.2v-14.1c0-0.6,0.5-1.2,1.2-1.2s1.2,0.5,1.2,1.2v14.1
		C66,134.6,65.5,135.1,64.9,135.1z"/>
	<path class="st3" d="M79.9,135.2c-0.6,0-1.2-0.5-1.2-1.2v-14.1c0-0.6,0.5-1.2,1.2-1.2s1.2,0.5,1.2,1.2V134
		C81,134.7,80.5,135.2,79.9,135.2z"/>
	<g>
		<path class="st3" d="M118.6,128.1h-5.5c-0.6,0-1.2-0.5-1.2-1.2s0.5-1.2,1.2-1.2h5.5c0.6,0,1.2,0.5,1.2,1.2
			S119.2,128.1,118.6,128.1z"/>
		<path class="st3" d="M108.6,128.1h-7.1c-0.6,0-1.2-0.5-1.2-1.2s0.5-1.2,1.2-1.2h7.1c0.6,0,1.2,0.5,1.2,1.2
			S109.2,128.1,108.6,128.1z"/>
		<path class="st3" d="M97.1,128.1h-5.5c-0.6,0-1.2-0.5-1.2-1.2s0.5-1.2,1.2-1.2h5.5c0.6,0,1.2,0.5,1.2,1.2S97.7,128.1,97.1,128.1z"
			/>
	</g>
	<path class="st3" d="M90.6,135.1c-0.6,0-1.2-0.5-1.2-1.2v-14.1c0-0.6,0.5-1.2,1.2-1.2s1.2,0.5,1.2,1.2V134
		C91.8,134.6,91.3,135.1,90.6,135.1z"/>
	<path class="st3" d="M118.6,135.2c-0.6,0-1.2-0.5-1.2-1.2V120c0-0.6,0.5-1.2,1.2-1.2s1.2,0.5,1.2,1.2v14.1
		C119.8,134.7,119.2,135.2,118.6,135.2z"/>
	<g>
		<path class="st3" d="M173.1,128.1h-5.5c-0.6,0-1.2-0.5-1.2-1.2s0.5-1.2,1.2-1.2h5.5c0.6,0,1.2,0.5,1.2,1.2
			S173.7,128.1,173.1,128.1z"/>
		<path class="st3" d="M158.9,128.1h-13.7c-0.6,0-1.2-0.5-1.2-1.2s0.5-1.2,1.2-1.2h13.7c0.6,0,1.2,0.5,1.2,1.2
			S159.5,128.1,158.9,128.1z"/>
		<path class="st3" d="M136.4,128.1h-5.5c-0.6,0-1.2-0.5-1.2-1.2s0.5-1.2,1.2-1.2h5.5c0.6,0,1.2,0.5,1.2,1.2
			S137.1,128.1,136.4,128.1z"/>
	</g>
	<path class="st3" d="M129.5,135.2c-0.6,0-1.2-0.5-1.2-1.2v-14.1c0-0.6,0.5-1.2,1.2-1.2s1.2,0.5,1.2,1.2V134
		C130.7,134.7,130.2,135.2,129.5,135.2z"/>
	<path class="st3" d="M173.1,135.3c-0.6,0-1.2-0.5-1.2-1.2V120c0-0.6,0.5-1.2,1.2-1.2s1.2,0.5,1.2,1.2v14.1
		C174.3,134.8,173.7,135.3,173.1,135.3z"/>
</g>
</svg>
