<?xml version="1.0" encoding="utf-8"?>
<!-- Generator: Adobe Illustrator 23.1.1, SVG Export Plug-In . SVG Version: 6.00 Build 0)  -->
<svg version="1.1" id="Layer_7" xmlns="http://www.w3.org/2000/svg" xmlns:xlink="http://www.w3.org/1999/xlink" x="0px" y="0px"
	 viewBox="0 0 240 150" style="enable-background:new 0 0 240 150;" xml:space="preserve">
<style type="text/css">
	.st0{fill:url(#SVGID_1_);}
	.st1{fill:url(#SVGID_2_);}
</style>
<g>
	<linearGradient id="SVGID_1_" gradientUnits="userSpaceOnUse" x1="68.1569" y1="87.4005" x2="171.8431" y2="87.4005">
		<stop  offset="0" style="stop-color:#ED7F22"/>
		<stop  offset="1" style="stop-color:#F19549"/>
	</linearGradient>
	<path class="st0" d="M68.16,121.98c0,4.88,3.95,8.83,8.83,8.83h86.03c4.88,0,8.83-3.95,8.83-8.83V43.99H68.16V121.98z M83.63,88.66
		c0.29-0.65,0.11-1.33,0.16-2c0.06-1.06,0.04-2.13,0.19-3.18c0.27-1.96,0.63-3.92,1.33-5.79c0.72-1.91,1.65-3.69,3-5.22
		c0.48-0.55,0.92-1.14,1.47-1.61c0.9-0.78,1.78-1.59,2.74-2.32c1.21-0.93,2.45-1.82,3.73-2.64c1.26-0.8,2.55-1.55,3.83-2.31
		c1.36-0.8,2.72-1.6,4.08-2.38c0.96-0.55,1.93-1.09,2.9-1.61c1.17-0.63,2.35-1.24,3.53-1.86c1.54-0.82,3.05-1.69,4.61-2.46
		c1.21-0.6,2.46-0.65,3.66,0.08c0.72,0.44,1.18,1.05,1.41,1.88c0.41,1.48-0.06,2.71-1.11,3.7c-0.91,0.86-1.92,1.61-2.9,2.38
		c-0.89,0.7-1.8,1.38-2.71,2.07c-0.97,0.73-1.93,1.49-2.94,2.17c-0.61,0.41-0.85,1.01-1.02,1.64c-0.13,0.52,0.35,1.34,0.86,1.6
		c0.45,0.23,0.92,0.35,1.44,0.34c5.12-0.01,10.23-0.01,15.35-0.01c6.92,0,13.85,0,20.78,0c0.94,0,1.78,0.31,2.36,1.04
		c1.11,1.41,1.33,3.19-0.09,4.66c-0.79,0.81-1.74,1.08-2.79,1.08c-5.99,0.01-11.99,0.01-17.98,0.01c-1.39,0-2.77-0.01-4.16,0
		c-0.85,0.01-1.47,0.45-1.72,1.18c-0.4,1.16,0.32,2.27,1.55,2.38c0.2,0.02,0.4,0,0.59,0c8.96,0,17.92,0,26.89,0
		c1.1,0,2.08,0.34,2.88,1.11c0.59,0.56,0.91,1.25,0.85,2.09c-0.03,0.39,0.01,0.79-0.07,1.17c-0.31,1.43-2.05,2.43-3.24,2.43
		c-9.05-0.03-18.09-0.02-27.14-0.01c-0.47,0-0.96,0.04-1.39,0.19c-0.32,0.11-0.68,0.39-0.81,0.69c-0.45,1.03-0.26,2.34,1.02,2.69
		c0.39,0.11,0.76,0.15,1.15,0.15c7.97,0,15.94,0,23.92,0c0.92,0,1.76,0.24,2.38,0.98c0.48,0.57,0.78,1.22,0.79,1.97
		c0.01,0.5,0.01,0.98-0.14,1.49c-0.36,1.24-1.27,1.76-2.41,1.99c-0.54,0.11-1.11,0.07-1.65,0.19c-1.28,0.3-2.58,0.14-3.86,0.15
		c-6.96,0.02-13.91,0.01-20.86,0.01c-0.14,0-0.28,0-0.42,0c-1.41-0.02-1.9,0.81-1.86,1.91c0.03,0.82,0.81,1.57,1.71,1.65
		c0.2,0.02,0.4,0,0.59,0c5.17,0,10.35-0.01,15.52,0.01c1,0,1.99,0.16,2.93,0.52c1.61,0.62,1.95,2.13,1.76,3.48
		c-0.04,0.27-0.15,0.53-0.23,0.79c-0.3,0.98-1.13,1.34-1.97,1.63c-0.65,0.23-1.33,0.36-2.04,0.36c-6.13-0.01-12.27-0.01-18.4-0.01
		c-5.77,0-11.53-0.01-17.3,0c-1.23,0-2.44-0.15-3.66-0.32c-1.35-0.19-2.66-0.5-3.95-0.88c-2.14-0.63-4.13-1.61-5.91-2.93
		c-1.14-0.84-2.16-1.85-3.08-2.97c-0.75-0.91-1.37-1.89-1.9-2.92c-0.51-0.97-0.87-2.03-1.19-3.08c-0.3-1-0.54-2.03-0.68-3.06
		c-0.12-0.94-0.28-1.88-0.21-2.84c0.03-0.38,0.11-0.79-0.14-1.15C83.58,88.92,83.59,88.76,83.63,88.66z"/>
	<linearGradient id="SVGID_2_" gradientUnits="userSpaceOnUse" x1="63.9454" y1="28.7926" x2="176.0546" y2="28.7926">
		<stop  offset="0" style="stop-color:#ED7F22"/>
		<stop  offset="1" style="stop-color:#F19549"/>
	</linearGradient>
	<path class="st1" d="M170.23,19.19H69.77c-3.22,0-5.82,2.61-5.82,5.82v13.38h112.11V25.02C176.05,21.8,173.45,19.19,170.23,19.19z"
		/>
</g>
</svg>
