<?xml version="1.0" encoding="utf-8"?>
<!-- Generator: Adobe Illustrator 23.1.1, SVG Export Plug-In . SVG Version: 6.00 Build 0)  -->
<svg version="1.1" id="Layer_9" xmlns="http://www.w3.org/2000/svg" xmlns:xlink="http://www.w3.org/1999/xlink" x="0px" y="0px"
	 viewBox="0 0 240 150" style="enable-background:new 0 0 240 150;" xml:space="preserve">
<style type="text/css">
	.st0{fill:url(#SVGID_1_);}
	.st1{fill:url(#SVGID_2_);}
</style>
<g>
	<linearGradient id="SVGID_1_" gradientUnits="userSpaceOnUse" x1="60.3201" y1="75" x2="179.6799" y2="75">
		<stop  offset="0" style="stop-color:#ED7F22"/>
		<stop  offset="1" style="stop-color:#F19549"/>
	</linearGradient>
	<path class="st0" d="M178.6,34.1c-6.3,0-12-2.5-16.1-6.6c-4.1-4.1-6.6-9.8-6.6-16c0-0.7,0-1.3,0.1-2h-33.7h-0.2H84
		c0.1,0.6,0.1,1.3,0.1,2c0,12.5-10.2,22.7-22.7,22.7c-0.3,0-0.7,0-1,0v35.1c0,32.8,41.3,71.5,59.7,71.5c8.6,0,23.5-9.7,36.3-23.4
		c12.1-13,22.2-29.7,23.3-45.3c0.1-0.9,0.1-1.8,0.1-2.7V34C179.3,34.1,179,34.1,178.6,34.1z M171.2,69.1c0,6.4-2,13.5-6,21.1
		c-3.7,7.1-8.9,14.4-15.2,21.2c-13.1,14.1-25.7,20.7-30.1,20.7c-4.8,0-17.4-6.4-30.5-20.7c-13-14.1-20.7-30-20.7-42.3V41.7
		c11.5-2.8,20.6-12.1,23.1-23.8h56.2c0.5,2.3,1.2,4.4,2.2,6.5c3.9,8.5,11.6,15,20.9,17.3V69.1z"/>
	<linearGradient id="SVGID_2_" gradientUnits="userSpaceOnUse" x1="74.4459" y1="74.9407" x2="165.5541" y2="74.9407">
		<stop  offset="0" style="stop-color:#ED7F22"/>
		<stop  offset="1" style="stop-color:#F19549"/>
	</linearGradient>
	<path class="st1" d="M143.8,23.5H96.2c-3.6,10.2-11.6,18.4-21.7,22.3v21.9c0,11.3,7.3,26.1,19.6,39.5
		c11.5,12.5,22.4,18.4,26.5,19.2c3.3-0.8,13.5-6,25.3-18.8c5.9-6.4,10.9-13.3,14.3-19.9c3.5-6.9,5.3-13.1,5.3-18.5V45.8
		C155.4,41.9,147.5,33.7,143.8,23.5z M120,93.4c-10,0-18.1-8.1-18.1-18.1c0-10.1,7.6-19.6,13-28.1c2.4-3.8,7.9-3.8,10.3,0
		c5.4,8.4,13,18.3,13,28.1C138.1,85.3,130,93.4,120,93.4z"/>
</g>
</svg>
