<?xml version="1.0" encoding="utf-8"?>
<!-- Generator: Adobe Illustrator 23.1.1, SVG Export Plug-In . SVG Version: 6.00 Build 0)  -->
<svg version="1.1" id="Layer_1" xmlns="http://www.w3.org/2000/svg" xmlns:xlink="http://www.w3.org/1999/xlink" x="0px" y="0px"
	 viewBox="0 0 180 150" style="enable-background:new 0 0 180 150;" xml:space="preserve">
<style type="text/css">
	.st0{fill:url(#SVGID_1_);}
</style>
<linearGradient id="SVGID_1_" gradientUnits="userSpaceOnUse" x1="22.6092" y1="75" x2="157.3908" y2="75">
	<stop  offset="0" style="stop-color:#ED7F22"/>
	<stop  offset="1" style="stop-color:#F19549"/>
</linearGradient>
<path class="st0" d="M151.69,53.69l-51.3-37.47c-0.62-0.48-1.2-0.92-1.77-1.34c-0.07-0.05-0.14-0.1-0.22-0.15
	c-0.51-0.37-0.99-0.71-1.46-1.02c-0.04-0.03-0.08-0.05-0.12-0.08c-0.5-0.33-0.99-0.63-1.45-0.9c-0.01,0-0.02-0.01-0.03-0.01
	c-5.5-3.16-8.88-2.01-15.93,3.5L28.33,53.69c-9,7-7.17,20.6,3.98,20.6h4.62c-0.04,0.45-0.07,0.94-0.07,1.39v52.67
	c0,5.88,4.59,10.66,10.18,10.66h36.77h49.16c5.59,0,10.15-4.78,10.15-10.66V75.69c0-0.45-0.04-0.94-0.07-1.39h4.63
	C158.86,74.3,160.65,60.69,151.69,53.69z M46.86,128.36V75.69c0-0.19,0.02-0.4,0.04-0.6l0.86-10.8H32.65
	c0.14-0.69,0.59-1.72,1.73-2.65l27.78-20.38c2.55,4.59,7.99,8.74,15.54,12.14c-4.32,3.82-6.66,8-6.48,12.31
	c0.31,7.07,7.39,13.22,18.73,17.58c-2.25,2.87-3.43,5.88-3.29,8.96c0.12,2.68,1.23,5.23,3.16,7.6
	c-11.81,5.44-18.93,12.46-18.6,19.85c0.15,3.34,1.81,6.46,4.71,9.3H47.12C47.04,128.94,46.86,128.73,46.86,128.36z"/>
</svg>
