<?xml version="1.0" encoding="utf-8"?>
<!-- Generator: Adobe Illustrator 23.1.1, SVG Export Plug-In . SVG Version: 6.00 Build 0)  -->
<svg version="1.1" id="Layer_12" xmlns="http://www.w3.org/2000/svg" xmlns:xlink="http://www.w3.org/1999/xlink" x="0px" y="0px"
	 viewBox="0 0 240 150" style="enable-background:new 0 0 240 150;" xml:space="preserve">
<style type="text/css">
	.st0{fill:url(#SVGID_1_);}
	.st1{fill:url(#SVGID_2_);}
	.st2{fill:url(#SVGID_3_);}
	.st3{fill:url(#SVGID_4_);}
	.st4{fill:url(#SVGID_5_);}
	.st5{fill:#FFFFFF;}
	.st6{fill:url(#SVGID_6_);}
	.st7{fill:url(#SVGID_7_);}
	.st8{fill:url(#SVGID_8_);}
</style>
<g>
	<linearGradient id="SVGID_1_" gradientUnits="userSpaceOnUse" x1="31.4935" y1="131.9821" x2="208.7505" y2="131.9821">
		<stop  offset="0" style="stop-color:#ED7F22"/>
		<stop  offset="1" style="stop-color:#F19549"/>
	</linearGradient>
	<path class="st0" d="M191.22,118.93v8.56c0,2.74-2.23,4.97-4.97,4.97l0,0c-2.74,0-4.97-2.23-4.97-4.97v-8.56
		c0-2.74-2.23-4.97-4.97-4.97h-45.66c-2.74,0-4.97,2.23-4.97,4.97v8.56c0,2.74-2.23,4.97-4.97,4.97h-1.17
		c-2.74,0-4.97-2.23-4.97-4.97v-8.56c0-2.74-2.23-4.97-4.97-4.97H63.93c-2.74,0-4.97,2.23-4.97,4.97v8.56
		c0,2.74-2.23,4.97-4.97,4.97h0c-2.74,0-4.97-2.23-4.97-4.97v-8.56c0-2.74-2.23-4.97-4.97-4.97h-7.59c-2.74,0-4.97,2.23-4.97,4.97
		v26.1c0,2.74,2.23,4.97,4.97,4.97h4.63h7.93h9.94h18.16h26.3h11.14h11.11h13.78h19.97h21.86h9.94h4.24h8.32
		c2.74,0,4.97-2.23,4.97-4.97v-26.1c0-2.74-2.23-4.97-4.97-4.97h-7.59C193.44,113.96,191.22,116.19,191.22,118.93z"/>
	<linearGradient id="SVGID_2_" gradientUnits="userSpaceOnUse" x1="31.4935" y1="56.9709" x2="47.8787" y2="56.9709">
		<stop  offset="0" style="stop-color:#ED7F22"/>
		<stop  offset="1" style="stop-color:#F19549"/>
	</linearGradient>
	<path class="st1" d="M44.61,5.01l-9.84,0c-1.8,0-3.27,1.47-3.27,3.27v97.37c0,1.8,1.47,3.27,3.27,3.27h9.84
		c1.8,0,3.27-1.47,3.27-3.27V8.29C47.88,6.49,46.41,5.01,44.61,5.01z"/>
	<linearGradient id="SVGID_3_" gradientUnits="userSpaceOnUse" x1="192.3653" y1="56.9709" x2="208.7505" y2="56.9709">
		<stop  offset="0" style="stop-color:#ED7F22"/>
		<stop  offset="1" style="stop-color:#F19549"/>
	</linearGradient>
	<path class="st2" d="M205.48,5.01l-9.84,0c-1.8,0-3.27,1.47-3.27,3.27v97.37c0,1.8,1.47,3.27,3.27,3.27h9.84
		c1.8,0,3.27-1.47,3.27-3.27V8.29C208.75,6.49,207.28,5.01,205.48,5.01z"/>
	<g>
		<linearGradient id="SVGID_4_" gradientUnits="userSpaceOnUse" x1="59.9903" y1="56.9709" x2="113.0788" y2="56.9709">
			<stop  offset="0" style="stop-color:#ED7F22"/>
			<stop  offset="1" style="stop-color:#F19549"/>
		</linearGradient>
		<path class="st3" d="M109.81,5.01H63.26c-1.8,0-3.27,1.47-3.27,3.27v97.37c0,1.8,1.47,3.27,3.27,3.27h46.54
			c1.8,0,3.27-1.47,3.27-3.27V8.29C113.08,6.49,111.61,5.01,109.81,5.01z"/>
		<linearGradient id="SVGID_5_" gradientUnits="userSpaceOnUse" x1="125.9622" y1="56.9709" x2="179.0507" y2="56.9709">
			<stop  offset="0" style="stop-color:#ED7F22"/>
			<stop  offset="1" style="stop-color:#F19549"/>
		</linearGradient>
		<path class="st4" d="M175.78,5.01h-46.54c-1.8,0-3.27,1.47-3.27,3.27v97.37c0,1.8,1.47,3.27,3.27,3.27h46.54
			c1.8,0,3.27-1.47,3.27-3.27V8.29C179.05,6.49,177.58,5.01,175.78,5.01z"/>
	</g>
	<path class="st5" d="M216.38,82.2H23.62c-1.15,0-2.1-0.94-2.1-2.1v-7.13c0-1.15,0.94-2.1,2.1-2.1h192.77c1.15,0,2.1,0.94,2.1,2.1
		v7.13C218.48,81.25,217.54,82.2,216.38,82.2z"/>
	<path class="st5" d="M216.38,43.13H23.62c-1.15,0-2.1-0.94-2.1-2.1V33.9c0-1.15,0.94-2.1,2.1-2.1h192.77c1.15,0,2.1,0.94,2.1,2.1
		v7.13C218.48,42.19,217.54,43.13,216.38,43.13z"/>
	<g>
		<linearGradient id="SVGID_6_" gradientUnits="userSpaceOnUse" x1="52.1479" y1="63.816" x2="54.7351" y2="63.816">
			<stop  offset="0" style="stop-color:#ED7F22"/>
			<stop  offset="1" style="stop-color:#F19549"/>
		</linearGradient>
		<path class="st6" d="M53.75,0l-0.62,0c-0.54,0-0.98,0.44-0.98,0.98v125.66c0,0.54,0.44,0.98,0.98,0.98h0.62
			c0.54,0,0.98-0.44,0.98-0.98V0.98C54.74,0.44,54.29,0,53.75,0z"/>
		<linearGradient id="SVGID_7_" gradientUnits="userSpaceOnUse" x1="118.3355" y1="63.816" x2="120.9226" y2="63.816">
			<stop  offset="0" style="stop-color:#ED7F22"/>
			<stop  offset="1" style="stop-color:#F19549"/>
		</linearGradient>
		<path class="st7" d="M119.94,0l-0.62,0c-0.54,0-0.98,0.44-0.98,0.98v125.66c0,0.54,0.44,0.98,0.98,0.98h0.62
			c0.54,0,0.98-0.44,0.98-0.98V0.98C120.92,0.44,120.48,0,119.94,0z"/>
		<linearGradient id="SVGID_8_" gradientUnits="userSpaceOnUse" x1="184.5231" y1="63.816" x2="187.1102" y2="63.816">
			<stop  offset="0" style="stop-color:#ED7F22"/>
			<stop  offset="1" style="stop-color:#F19549"/>
		</linearGradient>
		<path class="st8" d="M186.13,0l-0.62,0c-0.54,0-0.98,0.44-0.98,0.98v125.66c0,0.54,0.44,0.98,0.98,0.98h0.62
			c0.54,0,0.98-0.44,0.98-0.98V0.98C187.11,0.44,186.67,0,186.13,0z"/>
	</g>
</g>
</svg>
