<?xml version="1.0" encoding="utf-8"?>
<!-- Generator: Adobe Illustrator 23.1.1, SVG Export Plug-In . SVG Version: 6.00 Build 0)  -->
<svg version="1.1" id="Layer_12" xmlns="http://www.w3.org/2000/svg" xmlns:xlink="http://www.w3.org/1999/xlink" x="0px" y="0px"
	 viewBox="0 0 240 150" style="enable-background:new 0 0 240 150;" xml:space="preserve">
<style type="text/css">
	.st0{fill:url(#SVGID_1_);}
	.st1{fill:url(#SVGID_2_);}
</style>
<g>
	<linearGradient id="SVGID_1_" gradientUnits="userSpaceOnUse" x1="45" y1="75" x2="195" y2="75">
		<stop  offset="0" style="stop-color:#ED7F22"/>
		<stop  offset="1" style="stop-color:#F19549"/>
	</linearGradient>
	<path class="st0" d="M182.87,79.07l-66.94-66.94c-16.17-16.17-42.63-16.17-58.8,0h0c-16.17,16.17-16.17,42.63,0,58.8l16.22,16.22
		c0.73-0.05,1.46-0.09,2.2-0.09c17.38,0,31.47,14.09,31.47,31.47c0,0.74-0.03,1.47-0.09,2.2l17.14,17.14
		c16.17,16.17,42.63,16.17,58.8,0h0C199.04,121.7,199.04,95.24,182.87,79.07z M110.06,61.3c-0.06,0-0.08,0-0.13-0.01
		c-0.6-0.07-1.23-0.17-1.83-0.3c-0.2-0.02-0.41-0.05-0.59-0.09c-1.72-0.31-3.45-0.75-5.13-1.31c-1.7-0.5-3.37-1.16-4.97-1.86
		c-1.6-0.73-3.16-1.47-4.63-2.29c-2.96-1.61-5.6-3.32-7.78-4.93c-2.18-1.61-3.96-3.01-5.15-4.08c-1.21-1.04-1.86-1.67-1.86-1.67
		s0.52,0.74,1.6,1.95c1.08,1.15,2.62,2.87,4.72,4.65c2.1,1.78,4.62,3.81,7.6,5.57c2.97,1.8,6.33,3.41,9.88,4.54
		c1.76,0.56,3.59,0.98,5.39,1.29c1.3,0.24,2.62,0.38,3.9,0.44c-2.02,4.39-7.05,7.53-13.16,6.52c-2.94-0.49-5.8-1.26-8.56-2.23
		c1.73-0.94,3.38-1.98,4.94-3.09c-3.21,0.67-6.59,1-10.09,0.96c-4.8-2.31-9.2-5.34-13.05-8.94c-0.88-0.81-2.08-2.16-3.33-3.93
		c-0.54-0.6,8.3,0.89,7.56-0.19c-0.76-0.48-10.7-4.58-11.22-6.31c-6.48-12.55-1.94-30.66,3.67-29.68c3.21,0.29,5.84,5.87,9.55,10.18
		c0.28,0.71,0.97,8.49,2.11,9.11c0.6,0.5,0.53-6.78,1.31-6.09c3.42,3.4,8.03,8.21,16.39,12.8c1.13,2.14,2.68,4.23,4.63,6.14
		c-0.74-1.72-1.34-3.45-1.76-5.2c0.75,0.21,1.49,0.36,2.25,0.49c3.73,0.74,8.15,6.02,9.52,13.17c0.1,0.5,0.17,0.98,0.17,1.47
		c0.31,0.04,0.62,0.12,0.94,0.17c0.81,0.16,1.65,0.16,2.44,0.25c0.81,0.08,1.62,0.13,2.39,0.22c0.78,0.02,1.56-0.01,2.31-0.01
		c1.49-0.02,2.92,0.05,4.22-0.17c1.3-0.14,2.51-0.25,3.57-0.36c1.06-0.22,1.99-0.41,2.74-0.57c1.35-0.28,2.21-0.42,2.42-0.44
		c-0.16,0.09-0.94,0.47-2.2,1.07c-0.72,0.32-1.63,0.72-2.64,1.18c-0.38,0.13-0.81,0.24-1.25,0.37c-0.01,0.01-0.04,0.02-0.05,0.03
		c-0.72,0.2-1.47,0.41-2.3,0.63c-1.32,0.41-2.81,0.58-4.39,0.76c-0.79,0.07-1.61,0.2-2.42,0.25c-0.85,0.02-1.7-0.02-2.55-0.02
		c-1.18,0-2.38-0.06-3.58-0.21c0.01-0.01,0.04-0.04,0.02-0.08C111.15,61.43,110.62,61.36,110.06,61.3z M115.87,96.51l6.35-6.23
		c0.43-0.42,0.67-1.01,0.67-1.61l-0.09-8.9c-0.01-1.25,1-2.26,2.25-2.25l8.9,0.09c0.61,0.01,1.19-0.24,1.61-0.67l6.23-6.35
		c0.87-0.89,2.31-0.89,3.19,0l6.23,6.35c0.42,0.43,1.01,0.67,1.61,0.67l5.71-0.05c2-0.02,3.01,2.4,1.6,3.81l-3.04,3.04
		c-7.5-7.5-19.67-7.5-27.17,0c-7.5,7.5-7.5,19.67,0,27.17l-3.28,3.28c-1.41,1.41-3.83,0.4-3.81-1.6l0.05-5.71
		c0.01-0.61-0.24-1.19-0.67-1.61l-6.35-6.23C114.98,98.82,114.98,97.39,115.87,96.51z M154.92,86.57l-22.83,22.83
		c-6.3-6.3-6.3-16.53,0-22.83C138.4,80.27,148.62,80.27,154.92,86.57z M123.19,125.67c-0.45,0.45-1.19,0.45-1.65,0
		c-0.45-0.45-0.45-1.19,0-1.65l47.76-47.76c0.45-0.45,1.19-0.45,1.65,0c0.45,0.45,0.45,1.19,0,1.65L123.19,125.67z M178.32,106.25
		c-0.42,0.42-1,0.68-1.64,0.68h-6.4l2.6,2.6c0.9,0.9,0.9,2.38,0,3.28c-0.45,0.45-1.04,0.67-1.64,0.67c-0.59,0-1.19-0.22-1.64-0.67
		l-4.92-4.92l-0.97-0.96h-9.34l3.06,3.06l0.9,0l4.6,0c0.84,0,1.53,0.69,1.53,1.53c0,0.42-0.17,0.81-0.45,1.08
		c-0.28,0.28-0.66,0.45-1.08,0.45h-2.43l2.99,2.99c0.6,0.6,0.6,1.57,0,2.17c-0.3,0.3-0.69,0.45-1.08,0.45
		c-0.39,0-0.79-0.15-1.08-0.45l-2.99-2.99v2.43c0,0.84-0.69,1.53-1.53,1.53c-0.42,0-0.8-0.17-1.08-0.45
		c-0.28-0.28-0.45-0.66-0.45-1.08l0-4.6l0-0.9l-3.06-3.06v9.34l0.96,0.96l4.92,4.92c0.9,0.9,0.9,2.38,0,3.28
		c-0.45,0.45-1.05,0.68-1.64,0.68c-0.59,0-1.19-0.22-1.64-0.68l-2.6-2.6v6.4c0,1.28-1.04,2.32-2.32,2.32
		c-0.64,0-1.22-0.26-1.64-0.68c-0.42-0.42-0.68-1-0.68-1.64V125l-2.6,2.6c-0.9,0.9-2.38,0.9-3.28,0c-0.45-0.45-0.67-1.04-0.67-1.64
		c0-0.59,0.22-1.19,0.67-1.64l4.92-4.92l0.96-0.97v-9.34l-3.06,3.06l0,0.9l0,4.6c0,0.84-0.69,1.53-1.53,1.53
		c-0.42,0-0.81-0.17-1.08-0.45c-0.28-0.28-0.45-0.66-0.45-1.08v-2.43l-2.99,2.99c-0.6,0.6-1.57,0.6-2.17,0
		c-0.3-0.3-0.45-0.69-0.45-1.08c0-0.22,0.05-0.43,0.14-0.63l25.81-25.81c0.57-0.26,1.26-0.16,1.72,0.31c0.3,0.3,0.45,0.69,0.45,1.08
		c0,0.39-0.15,0.79-0.45,1.08l-2.99,2.99h2.43c0.84,0,1.53,0.69,1.53,1.53c0,0.42-0.17,0.8-0.45,1.08
		c-0.28,0.28-0.66,0.45-1.08,0.45l-4.6,0l-0.9,0l-3.06,3.06h9.34l0.96-0.96l4.92-4.92c0.9-0.9,2.38-0.9,3.28,0
		c0.45,0.45,0.68,1.05,0.68,1.64c0,0.59-0.22,1.19-0.68,1.64l-2.6,2.6h6.4c1.28,0,2.32,1.04,2.32,2.32
		C179.01,105.25,178.75,105.83,178.32,106.25z"/>
	<linearGradient id="SVGID_2_" gradientUnits="userSpaceOnUse" x1="48.9923" y1="118.5314" x2="102.0994" y2="118.5314">
		<stop  offset="0" style="stop-color:#ED7F22"/>
		<stop  offset="1" style="stop-color:#F19549"/>
	</linearGradient>
	<path class="st1" d="M75.55,91.98c-14.67,0-26.55,11.89-26.55,26.55c0,14.67,11.89,26.55,26.55,26.55
		c14.67,0,26.55-11.89,26.55-26.55C102.1,103.87,90.21,91.98,75.55,91.98z M79.77,132.01c0,1.72-1.39,3.11-3.11,3.11
		c-1.72,0-3.11-1.39-3.11-3.11v-19.65l-1.63,0.93c-1.47,0.84-3.34,0.32-4.18-1.15c-0.84-1.47-0.32-3.34,1.15-4.18l6.16-3.5v0
		c0.47-0.29,1.02-0.45,1.61-0.45h0c1.72,0,3.11,1.39,3.11,3.11V132.01z"/>
</g>
</svg>
