<?xml version="1.0" encoding="utf-8"?>
<!-- Generator: Adobe Illustrator 23.1.1, SVG Export Plug-In . SVG Version: 6.00 Build 0)  -->
<svg version="1.1" id="Layer_5" xmlns="http://www.w3.org/2000/svg" xmlns:xlink="http://www.w3.org/1999/xlink" x="0px" y="0px"
	 viewBox="0 0 240 150" style="enable-background:new 0 0 240 150;" xml:space="preserve">
<style type="text/css">
	.st0{fill:url(#SVGID_1_);}
	.st1{fill:url(#SVGID_2_);}
	.st2{fill:url(#SVGID_3_);}
</style>
<g>
	<linearGradient id="SVGID_1_" gradientUnits="userSpaceOnUse" x1="88.4788" y1="21.4131" x2="151.5212" y2="21.4131">
		<stop  offset="0" style="stop-color:#ED7F22"/>
		<stop  offset="1" style="stop-color:#F19549"/>
	</linearGradient>
	<path class="st0" d="M94.57,35.69c2.32,0,4.49-1.32,5.43-3.44c2.73-6.18,8.23-10.87,14.91-12.47c1.65-0.41,3.35-0.62,5.11-0.62
		c1.76,0,3.47,0.21,5.08,0.62c6.7,1.58,12.21,6.28,14.94,12.47c0.94,2.13,3.11,3.44,5.43,3.44h0c4.29,0,7.28-4.4,5.54-8.33
		C146.74,17.7,138.1,10.41,127.6,8c-2.45-0.59-4.98-0.87-7.58-0.87c-2.61,0-5.18,0.32-7.62,0.87c-10.49,2.4-19.14,9.69-23.41,19.36
		c-1.74,3.93,1.25,8.33,5.54,8.33H94.57z"/>
	<g>
		<linearGradient id="SVGID_2_" gradientUnits="userSpaceOnUse" x1="133.6171" y1="95.3828" x2="147.8029" y2="95.3828">
			<stop  offset="0" style="stop-color:#ED7F22"/>
			<stop  offset="1" style="stop-color:#F19549"/>
		</linearGradient>
		<path class="st1" d="M140.74,88.77c-2.08,0-3.78,0.61-5.12,1.83c-1.34,1.22-2,2.8-2,4.76c0,1.96,0.68,3.55,2.04,4.79
			c1.36,1.24,3.05,1.85,5.09,1.85c2.04,0,3.72-0.62,5.06-1.85c1.34-1.24,2.01-2.83,2.01-4.79c0-1.95-0.66-3.54-1.97-4.76
			C144.51,89.38,142.81,88.77,140.74,88.77z"/>
		<linearGradient id="SVGID_3_" gradientUnits="userSpaceOnUse" x1="45" y1="94.1313" x2="195" y2="94.1313">
			<stop  offset="0" style="stop-color:#ED7F22"/>
			<stop  offset="1" style="stop-color:#F19549"/>
		</linearGradient>
		<path class="st2" d="M194.62,130.42l-14.57-78.11c-1.15-4.1-4.69-6.92-8.7-6.92H68.66c-4.02,0-7.56,2.81-8.7,6.92l-14.57,78.11
			c-1.74,6.21,2.63,12.45,8.7,12.45h131.82C191.99,142.87,196.35,136.63,194.62,130.42z M114.61,112.71h-3.57
			c-1.24,0-2.41-0.57-3.18-1.54L97.11,97.51l-4.43,4.73v6.43c0,2.23-1.81,4.04-4.04,4.04h-3.64c-2.23,0-4.04-1.81-4.04-4.04V74.86
			c0-2.23,1.81-4.04,4.04-4.04h3.64c2.23,0,4.04,1.81,4.04,4.04v13.37L107.7,72.1c0.77-0.82,1.84-1.29,2.96-1.29h2.05
			c3.53,0,5.36,4.2,2.97,6.79l-10.86,11.77l12.99,16.83C119.87,108.85,117.97,112.71,114.61,112.71z M159.06,106.79
			c0,6.02-1.64,10.54-4.91,13.56c-3.27,3.01-7.98,4.52-14.13,4.52c-3.19,0-6.18-0.36-8.98-1.08c-1.23-0.32-2.39-0.7-3.46-1.15
			c-2.1-0.88-2.94-3.41-1.9-5.43l0.43-0.83c0.95-1.82,3.14-2.69,5.03-1.87c0.59,0.26,1.23,0.49,1.9,0.69c2.01,0.62,4,0.93,5.96,0.93
			c2.99,0,5.19-0.66,6.58-1.98c1.4-1.32,2.09-3.27,2.09-5.87v-1.08c-2.19,2.55-5.41,3.83-9.64,3.83c-2.87,0-5.53-0.65-7.96-1.95
			c-2.43-1.3-4.37-3.13-5.81-5.51c-1.44-2.37-2.16-5.12-2.16-8.23c0-3.07,0.72-5.8,2.16-8.17c1.44-2.37,3.37-4.21,5.81-5.51
			c2.43-1.3,5.09-1.95,7.96-1.95c4.63,0,8.02,1.5,10.17,4.49c0-2.18,1.77-3.95,3.95-3.95h2.93c2.18,0,3.95,1.77,3.95,3.95V106.79z"
			/>
	</g>
</g>
</svg>
