<?xml version="1.0" encoding="utf-8"?>
<!-- Generator: Adobe Illustrator 23.1.1, SVG Export Plug-In . SVG Version: 6.00 Build 0)  -->
<svg version="1.1" id="Layer_14" xmlns="http://www.w3.org/2000/svg" xmlns:xlink="http://www.w3.org/1999/xlink" x="0px" y="0px"
	 viewBox="0 0 240 150" style="enable-background:new 0 0 240 150;" xml:space="preserve">
<style type="text/css">
	.st0{fill:url(#SVGID_1_);}
	.st1{fill:url(#SVGID_2_);}
	.st2{fill:url(#SVGID_3_);}
	.st3{fill:url(#SVGID_4_);}
</style>
<g>
	<linearGradient id="SVGID_1_" gradientUnits="userSpaceOnUse" x1="77.2026" y1="23.9315" x2="129.3629" y2="23.9315">
		<stop  offset="0" style="stop-color:#ED7F22"/>
		<stop  offset="1" style="stop-color:#F19549"/>
	</linearGradient>
	<path class="st0" d="M82.2,35.75h0.03c1.92,0,3.72-1.09,4.49-2.85c2.26-5.12,6.81-9,12.34-10.32c1.36-0.34,2.77-0.51,4.23-0.51
		c1.46,0,2.87,0.17,4.21,0.51c5.55,1.3,10.1,5.19,12.36,10.32c0.78,1.76,2.57,2.85,4.49,2.85c3.55,0,6.02-3.64,4.59-6.89
		c-3.54-8-10.69-14.03-19.37-16.02c-2.03-0.49-4.12-0.72-6.28-0.72c-2.16,0-4.28,0.26-6.31,0.72c-8.68,1.99-15.84,8.02-19.37,16.02
		C76.18,32.1,78.65,35.75,82.2,35.75z"/>
	<linearGradient id="SVGID_2_" gradientUnits="userSpaceOnUse" x1="113.5277" y1="85.1498" x2="125.5748" y2="85.1498">
		<stop  offset="0" style="stop-color:#ED7F22"/>
		<stop  offset="1" style="stop-color:#F19549"/>
	</linearGradient>
	<path class="st1" d="M119.55,78.32c-3.33,0-6.02,2.84-6.02,6.83c0,3.99,2.7,6.83,6.02,6.83c3.33,0,6.02-2.84,6.02-6.83
		C125.57,81.16,122.88,78.32,119.55,78.32z"/>
	<linearGradient id="SVGID_3_" gradientUnits="userSpaceOnUse" x1="41.2289" y1="84.0973" x2="158.2294" y2="84.0973">
		<stop  offset="0" style="stop-color:#ED7F22"/>
		<stop  offset="1" style="stop-color:#F19549"/>
	</linearGradient>
	<path class="st2" d="M158.23,77.72l-5.26-28.22c-0.95-3.4-3.88-5.72-7.2-5.72H60.8c-3.32,0-6.25,2.33-7.2,5.72l-12.05,64.62
		c-1.44,5.14,2.17,10.3,7.2,10.3h91.21c-2.27-4.54-3.55-9.66-3.55-15.08C136.41,94.89,145.48,82.56,158.23,77.72z M101.23,97.51
		c-1.64,1.15-3.9,0.75-5.04-0.89L86.13,82.26l-4.7,4.55v7.65c0,2.02-1.64,3.66-3.66,3.66c-2.02,0-3.66-1.64-3.66-3.66V65.41
		c0-2.02,1.64-3.66,3.66-3.66c2.02,0,3.66,1.64,3.66,3.66v11.51l14.56-14.21c1.42-1.39,3.71-1.35,5.1,0.09
		c1.38,1.43,1.34,3.71-0.09,5.09l-9.59,9.27l10.72,15.3C103.27,94.1,102.87,96.36,101.23,97.51z M132.46,94.88
		c0,4.08-0.69,6.36-2.45,8.63c-2.57,3.31-6.44,4.84-10.6,4.88c-3.5,0.03-7.2-0.7-10.63-2.7c-0.93-0.54-1.55-1.55-1.55-2.7
		c0-1.73,1.4-3.12,3.12-3.12c0.58,0,1.12,0.16,1.58,0.43c2.5,1.46,5.14,1.86,7.48,1.7c2.02-0.14,3.79-0.92,4.96-2.44
		c0.63-0.82,0.94-1.82,0.98-4.13c-2.02,1.91-4.62,3-7.47,3c-6.39,0-11.56-5.52-11.56-13.28c0-7.76,5.18-13.28,11.56-13.28
		c2.89,0,5.53,1.13,7.56,3.09c0.36-1.58,1.77-2.77,3.46-2.77c1.96,0,3.55,1.59,3.55,3.55V94.88z"/>
	<linearGradient id="SVGID_4_" gradientUnits="userSpaceOnUse" x1="141.6914" y1="109.343" x2="198.7711" y2="109.343">
		<stop  offset="0" style="stop-color:#ED7F22"/>
		<stop  offset="1" style="stop-color:#F19549"/>
	</linearGradient>
	<path class="st3" d="M170.23,80.8c-15.76,0-28.54,12.78-28.54,28.54c0,15.76,12.78,28.54,28.54,28.54
		c15.76,0,28.54-12.78,28.54-28.54C198.77,93.58,185.99,80.8,170.23,80.8z M184.54,113.04L172.58,125c-1.3,1.3-3.4,1.3-4.7,0
		l-11.96-11.96c-2.1-2.1-0.61-5.68,2.35-5.68h5.6V95.58c0-1.58,1.29-2.87,2.87-2.87h6.98c1.58,0,2.87,1.29,2.87,2.87v11.77h5.6
		C185.15,107.36,186.64,110.94,184.54,113.04z"/>
</g>
</svg>
