<?xml version="1.0" encoding="utf-8"?>
<!-- Generator: Adobe Illustrator 23.1.1, SVG Export Plug-In . SVG Version: 6.00 Build 0)  -->
<svg version="1.1" id="Layer_10" xmlns="http://www.w3.org/2000/svg" xmlns:xlink="http://www.w3.org/1999/xlink" x="0px" y="0px"
	 viewBox="0 0 240 150" style="enable-background:new 0 0 240 150;" xml:space="preserve">
<style type="text/css">
	.st0{fill:url(#SVGID_1_);}
	.st1{fill:url(#SVGID_2_);}
	.st2{fill:url(#SVGID_3_);}
	.st3{fill:url(#SVGID_4_);}
	.st4{fill:url(#SVGID_5_);}
</style>
<g>
	<linearGradient id="SVGID_1_" gradientUnits="userSpaceOnUse" x1="51.6997" y1="63.8312" x2="179.3622" y2="63.8312">
		<stop  offset="0" style="stop-color:#ED7F22"/>
		<stop  offset="1" style="stop-color:#F19549"/>
	</linearGradient>
	<path class="st0" d="M137.43,109.23c-0.02-0.28-0.04-0.56-0.03-0.85l0.04-4.56c0-0.11-0.04-0.21-0.12-0.29l-3.25-3.19
		c-1.86-1.83-2.89-4.27-2.89-6.88c0-1.31,0.26-2.57,0.75-3.74H74.13c-2.98,0-5.41-2.44-5.41-5.41c0-2.98,2.44-5.41,5.41-5.41h63.27
		l0-0.35c-0.02-2.59,0.97-5.04,2.79-6.88c1.83-1.84,4.26-2.86,6.85-2.86l4.65,0.04c0.11,0,0.22-0.04,0.29-0.12l3.19-3.25
		c1.83-1.86,4.27-2.89,6.88-2.89s5.06,1.03,6.88,2.89l3.19,3.25c0.07,0.08,0.18,0.12,0.29,0.12l4.65-0.04c0.71,0,1.4,0.08,2.07,0.23
		c0.14-1.72,0.23-3.45,0.23-5.2C179.36,28.58,150.78,0,115.53,0S51.7,28.58,51.7,63.83c0,35.25,28.58,63.83,63.83,63.83
		c6.65,0,13.06-1.02,19.09-2.91L137.43,109.23z M99.9,46.39h5.84V31.96c0-5.57,4.56-10.14,10.14-10.14
		c5.57,0,10.14,4.56,10.14,10.14v14.43h5.84c3.96,0,5.94,4.78,3.14,7.58l-15.97,15.97c-1.73,1.73-4.55,1.73-6.28,0L96.76,53.97
		C93.96,51.18,95.94,46.39,99.9,46.39z"/>
	<g>
		<linearGradient id="SVGID_2_" gradientUnits="userSpaceOnUse" x1="134.7937" y1="120.0337" x2="160.1076" y2="145.3477">
			<stop  offset="0" style="stop-color:#ED7F22"/>
			<stop  offset="1" style="stop-color:#F19549"/>
		</linearGradient>
		<path class="st1" d="M153.45,116.75c-0.46-0.47-1.1-0.74-1.76-0.74l-4.65,0.04c-2.04,0-3.95-0.8-5.39-2.25
			c-0.1-0.11-0.2-0.22-0.3-0.33l-5.52,30.56c-0.41,2.29,2.15,3.94,4.06,2.61l5.13-3.56c1.19-0.82,2.81-0.53,3.64,0.66l3.56,5.13
			c1.33,1.91,4.3,1.27,4.72-1.02l4.63-25.6c-1.87-0.12-3.6-0.9-4.93-2.25L153.45,116.75z"/>
		<linearGradient id="SVGID_3_" gradientUnits="userSpaceOnUse" x1="164.104" y1="120.4605" x2="188.6556" y2="145.0122">
			<stop  offset="0" style="stop-color:#ED7F22"/>
			<stop  offset="1" style="stop-color:#F19549"/>
		</linearGradient>
		<path class="st2" d="M182.56,113.68c-0.04,0.04-0.07,0.08-0.11,0.12c-1.43,1.45-3.35,2.25-5.38,2.25c0,0-4.63-0.04-4.63-0.04
			c-0.68,0-1.32,0.27-1.78,0.74l-3.19,3.25c-1.38,1.4-3.2,2.19-5.15,2.26l4.63,25.59c0.41,2.29,3.39,2.94,4.72,1.02l3.56-5.13
			c0.82-1.19,2.45-1.48,3.64-0.66l5.13,3.56c1.91,1.33,4.47-0.32,4.06-2.61L182.56,113.68z"/>
		<linearGradient id="SVGID_4_" gradientUnits="userSpaceOnUse" x1="143.4829" y1="74.8943" x2="180.6108" y2="112.0222">
			<stop  offset="0" style="stop-color:#ED7F22"/>
			<stop  offset="1" style="stop-color:#F19549"/>
		</linearGradient>
		<path class="st3" d="M168.82,114.95c0.96-0.97,2.27-1.52,3.63-1.5l4.56,0.04c2.81,0.03,5.1-2.26,5.07-5.07l-0.04-4.56
			c-0.01-1.37,0.53-2.68,1.51-3.63l3.25-3.19c2.01-1.97,2.01-5.2,0-7.17l-3.25-3.19c-0.97-0.96-1.52-2.27-1.51-3.63l0.04-4.56
			c0.03-2.81-2.26-5.1-5.07-5.07l-4.56,0.04c-1.37,0.01-2.68-0.53-3.63-1.5l-3.19-3.25c-1.97-2.01-5.2-2.01-7.17,0l-3.19,3.25
			c-0.96,0.97-2.27,1.52-3.63,1.5l-4.56-0.04c-2.81-0.03-5.1,2.26-5.07,5.07l0.04,4.56c0.01,1.37-0.53,2.68-1.5,3.63l-3.25,3.19
			c-2.01,1.97-2.01,5.2,0,7.17l3.25,3.19c0.97,0.96,1.52,2.27,1.5,3.63l-0.04,4.56c-0.03,2.81,2.26,5.1,5.07,5.07l4.56-0.04
			c1.37-0.01,2.68,0.53,3.63,1.5l3.19,3.25c1.97,2.01,5.2,2.01,7.17,0L168.82,114.95z M160.83,111.98
			c-9.32-0.59-16.88-8.15-17.47-17.47c-0.71-11.3,8.6-20.62,19.9-19.9c9.32,0.59,16.88,8.15,17.47,17.47
			C181.45,103.38,172.13,112.69,160.83,111.98z"/>
		<linearGradient id="SVGID_5_" gradientUnits="userSpaceOnUse" x1="150.617" y1="81.8615" x2="173.4767" y2="104.7212">
			<stop  offset="0" style="stop-color:#ED7F22"/>
			<stop  offset="1" style="stop-color:#F19549"/>
		</linearGradient>
		<path class="st4" d="M178.18,92.24c-0.51-8.04-7.04-14.57-15.08-15.08c-9.75-0.62-17.8,7.43-17.18,17.18
			c0.51,8.04,7.04,14.57,15.08,15.08C170.75,110.04,178.79,102,178.18,92.24z"/>
	</g>
</g>
</svg>
