<?xml version="1.0" encoding="utf-8"?>
<!-- Generator: Adobe Illustrator 23.1.1, SVG Export Plug-In . SVG Version: 6.00 Build 0)  -->
<svg version="1.1" id="Layer_3" xmlns="http://www.w3.org/2000/svg" xmlns:xlink="http://www.w3.org/1999/xlink" x="0px" y="0px"
	 viewBox="0 0 240 150" style="enable-background:new 0 0 240 150;" xml:space="preserve">
<style type="text/css">
	.st0{fill:url(#SVGID_1_);}
	.st1{fill:url(#SVGID_2_);}
	.st2{fill:url(#SVGID_3_);}
</style>
<g>
	<linearGradient id="SVGID_1_" gradientUnits="userSpaceOnUse" x1="51.6068" y1="52.6138" x2="107.451" y2="52.6138">
		<stop  offset="0" style="stop-color:#ED7F22"/>
		<stop  offset="1" style="stop-color:#F19549"/>
	</linearGradient>
	<path class="st0" d="M53.31,54.92l17.06,5.26c0.76,0.24,1.36,0.83,1.6,1.6l5.26,17.06c0.7,2.27,3.91,2.27,4.61,0l5.26-17.06
		c0.24-0.76,0.83-1.36,1.6-1.6l17.06-5.26c2.27-0.7,2.27-3.91,0-4.61l-17.06-5.26c-0.76-0.24-1.36-0.83-1.6-1.6l-5.26-17.06
		c-0.7-2.27-3.91-2.27-4.61,0l-5.26,17.06c-0.23,0.76-0.83,1.36-1.6,1.6l-17.06,5.26C51.04,51.01,51.04,54.22,53.31,54.92z"/>
	<linearGradient id="SVGID_2_" gradientUnits="userSpaceOnUse" x1="132.549" y1="40.4222" x2="188.3932" y2="40.4222">
		<stop  offset="0" style="stop-color:#ED7F22"/>
		<stop  offset="1" style="stop-color:#F19549"/>
	</linearGradient>
	<path class="st1" d="M134.25,42.73l17.06,5.26c0.76,0.24,1.36,0.83,1.6,1.6l5.26,17.06c0.7,2.27,3.91,2.27,4.61,0l5.26-17.06
		c0.24-0.76,0.83-1.36,1.6-1.6l17.06-5.26c2.27-0.7,2.27-3.91,0-4.61l-17.06-5.26c-0.76-0.24-1.36-0.83-1.6-1.6l-5.26-17.06
		c-0.7-2.27-3.91-2.27-4.61,0l-5.26,17.06c-0.24,0.76-0.83,1.36-1.6,1.6l-17.06,5.26C131.98,38.82,131.98,42.03,134.25,42.73z"/>
	<linearGradient id="SVGID_3_" gradientUnits="userSpaceOnUse" x1="87.319" y1="97.5677" x2="167.1837" y2="97.5677">
		<stop  offset="0" style="stop-color:#ED7F22"/>
		<stop  offset="1" style="stop-color:#F19549"/>
	</linearGradient>
	<path class="st2" d="M89.75,100.87l24.39,7.52c1.09,0.34,1.95,1.19,2.28,2.28l7.52,24.39c1,3.25,5.6,3.25,6.6,0l7.52-24.39
		c0.34-1.09,1.19-1.95,2.28-2.28l24.39-7.52c3.25-1,3.25-5.6,0-6.6l-24.39-7.52c-1.09-0.34-1.95-1.19-2.28-2.28l-7.52-24.39
		c-1-3.25-5.6-3.25-6.6,0l-7.52,24.39c-0.34,1.09-1.19,1.95-2.28,2.28l-24.39,7.52C86.51,95.27,86.51,99.87,89.75,100.87z"/>
</g>
</svg>
