<?xml version="1.0" encoding="utf-8"?>
<!-- Generator: Adobe Illustrator 23.1.1, SVG Export Plug-In . SVG Version: 6.00 Build 0)  -->
<svg version="1.1" id="Layer_17" xmlns="http://www.w3.org/2000/svg" xmlns:xlink="http://www.w3.org/1999/xlink" x="0px" y="0px"
	 viewBox="0 0 240 150" style="enable-background:new 0 0 240 150;" xml:space="preserve">
<style type="text/css">
	.st0{fill:url(#SVGID_1_);}
	.st1{fill:url(#SVGID_2_);}
</style>
<g>
	<linearGradient id="SVGID_1_" gradientUnits="userSpaceOnUse" x1="134.4811" y1="114.2507" x2="191.5608" y2="114.2507">
		<stop  offset="0" style="stop-color:#ED7F22"/>
		<stop  offset="1" style="stop-color:#F19549"/>
	</linearGradient>
	<path class="st0" d="M163.02,85.71c-15.76,0-28.54,12.78-28.54,28.54s12.78,28.54,28.54,28.54c15.76,0,28.54-12.78,28.54-28.54
		S178.78,85.71,163.02,85.71z M177.33,117.94l-11.96,11.96c-1.3,1.3-3.4,1.3-4.7,0l-11.96-11.96c-2.1-2.1-0.61-5.68,2.35-5.68h5.6
		v-11.78c0-1.58,1.29-2.87,2.87-2.87h6.98c1.58,0,2.87,1.29,2.87,2.87v11.78h5.6C177.94,112.27,179.43,115.85,177.33,117.94z"/>
	<linearGradient id="SVGID_2_" gradientUnits="userSpaceOnUse" x1="46.818" y1="70.4514" x2="171.818" y2="70.4514">
		<stop  offset="0" style="stop-color:#ED7F22"/>
		<stop  offset="1" style="stop-color:#F19549"/>
	</linearGradient>
	<path class="st1" d="M109.32,7.95c-34.52,0-62.5,27.98-62.5,62.5s27.98,62.5,62.5,62.5c8.14,0,15.91-1.57,23.05-4.41
		c-2.03-4.34-3.17-9.18-3.17-14.29c0-4.88,1.04-9.52,2.91-13.72H84.06c-2.12,0-3.86-1.74-3.86-3.86v-8.23
		c0-2.12,1.74-3.86,3.86-3.86h8.76c4.98,0,9.02-4.04,9.02-9.02V64.11c0-4.98-4.04-9.02-9.02-9.02h-8.76c-2.12,0-3.86-1.74-3.86-3.86
		V43c0-2.12,1.74-3.86,3.86-3.86h51.52c2.12,0,3.86,1.74,3.86,3.86v8.23c0,2.12-1.74,3.86-3.86,3.86h-8.76
		c-4.98,0-9.02,4.04-9.02,9.02v11.45c0,4.98,4.04,9.02,9.02,9.02h8.76c2.12,0,3.86,1.74,3.86,3.86v1.56
		c6.09-5.93,14.41-9.58,23.58-9.58c2.7,0,5.32,0.32,7.83,0.92c0.62-3.54,0.97-7.18,0.97-10.9C171.82,35.93,143.84,7.95,109.32,7.95z
		"/>
</g>
</svg>
