<?xml version="1.0" encoding="utf-8"?>
<!-- Generator: Adobe Illustrator 23.1.1, SVG Export Plug-In . SVG Version: 6.00 Build 0)  -->
<svg version="1.1" xmlns="http://www.w3.org/2000/svg" xmlns:xlink="http://www.w3.org/1999/xlink" x="0px" y="0px"
	 viewBox="0 0 240 150" style="enable-background:new 0 0 240 150;" xml:space="preserve">
<style type="text/css">
	.st0{fill:url(#SVGID_1_);}
	.st1{fill:url(#SVGID_2_);}
	.st2{fill:url(#SVGID_3_);}
	.st3{fill:url(#SVGID_4_);}
	.st4{fill:url(#SVGID_5_);}
	.st5{fill:url(#SVGID_6_);}
	.st6{fill:url(#SVGID_7_);}
</style>
<g id="Layer_1">
</g>
<g id="Layer_2">
	<g>
		<linearGradient id="SVGID_1_" gradientUnits="userSpaceOnUse" x1="111.4312" y1="63.3388" x2="140.0905" y2="63.3388">
			<stop  offset="0" style="stop-color:#ED7F22"/>
			<stop  offset="1" style="stop-color:#F19549"/>
		</linearGradient>
		<path class="st0" d="M125.76,82.72c7.91,0,14.33-6.42,14.33-14.33c0-7.72-6.03-15.53-10.26-22.2c-1.89-2.98-6.24-2.98-8.14,0
			c-4.24,6.68-10.26,14.21-10.26,22.2C111.43,76.31,117.85,82.72,125.76,82.72z"/>
		<linearGradient id="SVGID_2_" gradientUnits="userSpaceOnUse" x1="57.7601" y1="63.3388" x2="86.4194" y2="63.3388">
			<stop  offset="0" style="stop-color:#ED7F22"/>
			<stop  offset="1" style="stop-color:#F19549"/>
		</linearGradient>
		<path class="st1" d="M72.09,82.72c7.91,0,14.33-6.42,14.33-14.33c0-7.72-6.03-15.53-10.26-22.2c-1.89-2.98-6.24-2.98-8.14,0
			c-4.24,6.68-10.26,14.21-10.26,22.2C57.76,76.31,64.18,82.72,72.09,82.72z"/>
		<linearGradient id="SVGID_3_" gradientUnits="userSpaceOnUse" x1="84.8562" y1="32.5952" x2="113.5155" y2="32.5952">
			<stop  offset="0" style="stop-color:#ED7F22"/>
			<stop  offset="1" style="stop-color:#F19549"/>
		</linearGradient>
		<path class="st2" d="M99.19,51.98c7.91,0,14.33-6.42,14.33-14.33c0-7.72-6.03-15.53-10.26-22.2c-1.89-2.98-6.24-2.98-8.14,0
			c-4.24,6.68-10.26,14.21-10.26,22.2C84.86,45.56,91.27,51.98,99.19,51.98z"/>
		<linearGradient id="SVGID_4_" gradientUnits="userSpaceOnUse" x1="136.443" y1="32.5952" x2="165.1023" y2="32.5952">
			<stop  offset="0" style="stop-color:#ED7F22"/>
			<stop  offset="1" style="stop-color:#F19549"/>
		</linearGradient>
		<path class="st3" d="M150.77,51.98c7.91,0,14.33-6.42,14.33-14.33c0-7.72-6.03-15.53-10.26-22.2c-1.89-2.98-6.24-2.98-8.14,0
			c-4.24,6.68-10.26,14.21-10.26,22.2C136.44,45.56,142.86,51.98,150.77,51.98z"/>
		<linearGradient id="SVGID_5_" gradientUnits="userSpaceOnUse" x1="45.4784" y1="87.3201" x2="192.1479" y2="87.3201">
			<stop  offset="0" style="stop-color:#ED7F22"/>
			<stop  offset="1" style="stop-color:#F19549"/>
		</linearGradient>
		<path class="st4" d="M50.15,117.07h87.14c0,0,0.01,0,0.01,0c1.2,0,2.4-0.45,3.32-1.36l42.2-42.2v7.4c0,2.57,2.1,4.67,4.67,4.67
			s4.67-2.1,4.67-4.67V62.24c0,0,0,0,0,0c0-0.31-0.03-0.62-0.09-0.93c-0.01-0.03-0.02-0.06-0.03-0.09
			c-0.18-0.84-0.59-1.64-1.24-2.29c-0.65-0.65-1.45-1.06-2.29-1.24c-0.03-0.01-0.06-0.02-0.09-0.03c-0.31-0.06-0.62-0.09-0.93-0.09
			c0,0,0,0,0,0h-18.67c-2.57,0-4.67,2.1-4.67,4.67c0,2.57,2.1,4.67,4.67,4.67h7.4l-40.83,40.83H50.15c-2.57,0-4.67,2.1-4.67,4.67
			C45.48,114.97,47.58,117.07,50.15,117.07z"/>
		<linearGradient id="SVGID_6_" gradientUnits="userSpaceOnUse" x1="45.4784" y1="132.1213" x2="194.0005" y2="132.1213">
			<stop  offset="0" style="stop-color:#ED7F22"/>
			<stop  offset="1" style="stop-color:#F19549"/>
		</linearGradient>
		<path class="st5" d="M189.33,127.45H50.15c-2.57,0-4.67,2.1-4.67,4.67c0,2.57,2.1,4.67,4.67,4.67h139.19
			c2.57,0,4.67-2.1,4.67-4.67C194,129.55,191.9,127.45,189.33,127.45z"/>
		<linearGradient id="SVGID_7_" gradientUnits="userSpaceOnUse" x1="153.0813" y1="112.4015" x2="194.5216" y2="112.4015">
			<stop  offset="0" style="stop-color:#ED7F22"/>
			<stop  offset="1" style="stop-color:#F19549"/>
		</linearGradient>
		<path class="st6" d="M157.75,107.73c-2.57,0-4.67,2.1-4.67,4.67c0,2.57,2.1,4.67,4.67,4.67h32.1c2.57,0,4.67-2.1,4.67-4.67
			c0-2.57-2.1-4.67-4.67-4.67H157.75z"/>
	</g>
</g>
</svg>
