<?xml version="1.0" encoding="utf-8"?>
<!-- Generator: Adobe Illustrator 23.1.1, SVG Export Plug-In . SVG Version: 6.00 Build 0)  -->
<svg version="1.1" id="Layer_11" xmlns="http://www.w3.org/2000/svg" xmlns:xlink="http://www.w3.org/1999/xlink" x="0px" y="0px"
	 viewBox="0 0 240 150" style="enable-background:new 0 0 240 150;" xml:space="preserve">
<style type="text/css">
	.st0{fill:url(#SVGID_1_);}
	.st1{fill:url(#SVGID_2_);}
</style>
<g>
	<linearGradient id="SVGID_1_" gradientUnits="userSpaceOnUse" x1="71.3581" y1="21.5071" x2="168.6419" y2="21.5071">
		<stop  offset="0" style="stop-color:#ED7F22"/>
		<stop  offset="1" style="stop-color:#F19549"/>
	</linearGradient>
	<path class="st0" d="M160.44,20.82h-14.99v-0.79c0-8.29-6.75-15.04-15.04-15.04h-20.82c-8.29,0-15.04,6.75-15.04,15.04v0.79H79.56
		c-4.53,0-8.2,3.67-8.2,8.2v6.25c0,1.51,1.22,2.73,2.73,2.73h91.82c1.51,0,2.73-1.22,2.73-2.73v-6.25
		C168.64,24.5,164.97,20.82,160.44,20.82z M137.24,20.82h-34.49v-0.79c0-3.77,3.07-6.84,6.84-6.84h20.82c3.77,0,6.84,3.07,6.84,6.84
		V20.82z"/>
	<linearGradient id="SVGID_2_" gradientUnits="userSpaceOnUse" x1="75.3228" y1="95.6088" x2="164.6762" y2="95.6088">
		<stop  offset="0" style="stop-color:#ED7F22"/>
		<stop  offset="1" style="stop-color:#F19549"/>
	</linearGradient>
	<path class="st1" d="M158.8,46.22H81.2c-3.41,0-6.1,2.89-5.86,6.28l6.19,88.68c0.15,2.15,1.94,3.82,4.09,3.82h68.76
		c2.15,0,3.94-1.67,4.09-3.82l6.19-88.68C164.9,49.1,162.21,46.22,158.8,46.22z M103.77,131.05c-0.06,0-0.12,0-0.18,0
		c-2.18,0-4-1.72-4.09-3.93l-2.73-64.26c-0.1-2.38,1.85-4.38,4.29-4.27c2.16,0.1,3.82,1.98,3.91,4.14l2.73,64.04
		C107.79,129.04,106.03,130.95,103.77,131.05z M124.1,126.95c0,2.39-2.04,4.3-4.47,4.09c-2.15-0.19-3.73-2.13-3.73-4.3V62.91
		c0-2.16,1.58-4.11,3.73-4.3c2.43-0.21,4.47,1.7,4.47,4.09V126.95z M140.5,127.13c-0.09,2.2-1.91,3.93-4.1,3.93
		c-0.06,0-0.12,0-0.18,0c-2.26-0.1-4.02-2.01-3.92-4.27l2.73-64.26c0.1-2.26,2.01-4.02,4.27-3.92c2.26,0.1,4.02,2.01,3.92,4.27
		L140.5,127.13z"/>
</g>
</svg>
