<?xml version="1.0" encoding="utf-8"?>
<!-- Generator: Adobe Illustrator 23.1.1, SVG Export Plug-In . SVG Version: 6.00 Build 0)  -->
<svg version="1.1" id="Layer_12" xmlns="http://www.w3.org/2000/svg" xmlns:xlink="http://www.w3.org/1999/xlink" x="0px" y="0px"
	 viewBox="0 0 240 150" style="enable-background:new 0 0 240 150;" xml:space="preserve">
<style type="text/css">
	.st0{fill:url(#SVGID_1_);}
	.st1{fill:url(#SVGID_2_);}
	.st2{fill:url(#SVGID_3_);}
	.st3{fill:url(#SVGID_4_);}
	.st4{fill:url(#SVGID_5_);}
	.st5{fill:url(#SVGID_6_);}
	.st6{fill:url(#SVGID_7_);}
</style>
<g>
	<g>
		<linearGradient id="SVGID_1_" gradientUnits="userSpaceOnUse" x1="102.059" y1="94.082" x2="137.6356" y2="94.082">
			<stop  offset="0" style="stop-color:#ED7F22"/>
			<stop  offset="1" style="stop-color:#F19549"/>
		</linearGradient>
		<path class="st0" d="M119.85,118.15c9.82,0,17.79-7.96,17.79-17.79c0-9.58-7.48-19.28-12.74-27.56c-2.35-3.7-7.75-3.7-10.1,0
			c-5.26,8.29-12.74,17.64-12.74,27.56C102.06,110.18,110.02,118.15,119.85,118.15z"/>
		<linearGradient id="SVGID_2_" gradientUnits="userSpaceOnUse" x1="35.4336" y1="94.082" x2="71.0103" y2="94.082">
			<stop  offset="0" style="stop-color:#ED7F22"/>
			<stop  offset="1" style="stop-color:#F19549"/>
		</linearGradient>
		<path class="st1" d="M53.22,118.15c9.82,0,17.79-7.96,17.79-17.79c0-9.58-7.48-19.28-12.74-27.56c-2.35-3.7-7.75-3.7-10.1,0
			c-5.26,8.29-12.74,17.64-12.74,27.56C35.43,110.18,43.4,118.15,53.22,118.15z"/>
		<linearGradient id="SVGID_3_" gradientUnits="userSpaceOnUse" x1="168.9897" y1="94.082" x2="204.5664" y2="94.082">
			<stop  offset="0" style="stop-color:#ED7F22"/>
			<stop  offset="1" style="stop-color:#F19549"/>
		</linearGradient>
		<path class="st2" d="M186.78,118.15c9.82,0,17.79-7.96,17.79-17.79c0-9.58-7.48-19.28-12.74-27.56c-2.35-3.7-7.75-3.7-10.1,0
			c-5.26,8.29-12.74,17.64-12.74,27.56C168.99,110.18,176.95,118.15,186.78,118.15z"/>
		<linearGradient id="SVGID_4_" gradientUnits="userSpaceOnUse" x1="69.0698" y1="55.918" x2="104.6464" y2="55.918">
			<stop  offset="0" style="stop-color:#ED7F22"/>
			<stop  offset="1" style="stop-color:#F19549"/>
		</linearGradient>
		<path class="st3" d="M86.86,79.98c9.82,0,17.79-7.96,17.79-17.79c0-9.58-7.48-19.28-12.74-27.56c-2.35-3.7-7.75-3.7-10.1,0
			c-5.26,8.29-12.74,17.64-12.74,27.56C69.07,72.02,77.03,79.98,86.86,79.98z"/>
		<linearGradient id="SVGID_5_" gradientUnits="userSpaceOnUse" x1="133.1078" y1="55.918" x2="168.6844" y2="55.918">
			<stop  offset="0" style="stop-color:#ED7F22"/>
			<stop  offset="1" style="stop-color:#F19549"/>
		</linearGradient>
		<path class="st4" d="M150.9,79.98c9.82,0,17.79-7.96,17.79-17.79c0-9.58-7.48-19.28-12.74-27.56c-2.35-3.7-7.75-3.7-10.1,0
			c-5.26,8.29-12.74,17.64-12.74,27.56C133.11,72.02,141.07,79.98,150.9,79.98z"/>
	</g>
	<g>
		<linearGradient id="SVGID_6_" gradientUnits="userSpaceOnUse" x1="27.815" y1="134.2053" x2="212.185" y2="134.2053">
			<stop  offset="0" style="stop-color:#ED7F22"/>
			<stop  offset="1" style="stop-color:#F19549"/>
		</linearGradient>
		<path class="st5" d="M206.39,128.41H33.61c-3.19,0-5.79,2.61-5.79,5.79c0,3.19,2.61,5.79,5.79,5.79h172.78
			c3.19,0,5.79-2.61,5.79-5.79C212.19,131.02,209.58,128.41,206.39,128.41z"/>
		<linearGradient id="SVGID_7_" gradientUnits="userSpaceOnUse" x1="27.815" y1="15.7947" x2="212.185" y2="15.7947">
			<stop  offset="0" style="stop-color:#ED7F22"/>
			<stop  offset="1" style="stop-color:#F19549"/>
		</linearGradient>
		<path class="st6" d="M206.39,10H33.61c-3.19,0-5.79,2.61-5.79,5.79c0,3.19,2.61,5.79,5.79,5.79h172.78c3.19,0,5.79-2.61,5.79-5.79
			C212.19,12.61,209.58,10,206.39,10z"/>
	</g>
</g>
</svg>
