<?xml version="1.0" encoding="utf-8"?>
<!-- Generator: Adobe Illustrator 23.1.1, SVG Export Plug-In . SVG Version: 6.00 Build 0)  -->
<svg version="1.1" id="Layer_11" xmlns="http://www.w3.org/2000/svg" xmlns:xlink="http://www.w3.org/1999/xlink" x="0px" y="0px"
	 viewBox="0 0 240 150" style="enable-background:new 0 0 240 150;" xml:space="preserve">
<style type="text/css">
	.st0{fill:url(#SVGID_1_);}
	.st1{fill:url(#SVGID_2_);}
	.st2{fill:url(#SVGID_3_);}
</style>
<g>
	<linearGradient id="SVGID_1_" gradientUnits="userSpaceOnUse" x1="131.9274" y1="113.9844" x2="189.0071" y2="113.9844">
		<stop  offset="0" style="stop-color:#ED7F22"/>
		<stop  offset="1" style="stop-color:#F19549"/>
	</linearGradient>
	<path class="st0" d="M160.47,85.44c-15.76,0-28.54,12.78-28.54,28.54c0,15.76,12.78,28.54,28.54,28.54
		c15.76,0,28.54-12.78,28.54-28.54C189.01,98.22,176.23,85.44,160.47,85.44z M174.78,117.68l-11.96,11.96c-1.3,1.3-3.4,1.3-4.7,0
		l-11.96-11.96c-2.1-2.1-0.61-5.68,2.35-5.68h5.6v-11.77c0-1.58,1.29-2.87,2.87-2.87h6.98c1.58,0,2.87,1.29,2.87,2.87V112h5.6
		C175.39,112,176.87,115.58,174.78,117.68z"/>
	<linearGradient id="SVGID_2_" gradientUnits="userSpaceOnUse" x1="50.9929" y1="51.9032" x2="175.9929" y2="51.9032">
		<stop  offset="0" style="stop-color:#ED7F22"/>
		<stop  offset="1" style="stop-color:#F19549"/>
	</linearGradient>
	<path class="st1" d="M115.59,23.54c7.24,0.34,8.95,5.07,3.83,10.19l-16.2,16.2c-8.16,8.16-8.16,21.5,0,29.66h0
		c8.16,8.16,21.5,8.16,29.66,0l16.2-16.2c3.63-3.63,9.96-1.3,10.19,3.82c0.2,4.38-0.23,8.77-1.27,13.05c0.82-0.06,1.64-0.1,2.47-0.1
		c5.03,0,9.81,1.11,14.1,3.08c0.92-4.28,1.42-8.71,1.42-13.27c0-34.52-27.98-62.5-62.5-62.5c-34.52,0-62.5,27.98-62.5,62.5
		c0,9.42,2.1,18.34,5.83,26.35l13.36-13.36c-3.88-13.99-1.67-30.43,6.79-41.42C86.73,28.87,101.29,22.87,115.59,23.54z"/>
	<linearGradient id="SVGID_3_" gradientUnits="userSpaceOnUse" x1="86.2342" y1="122.7417" x2="130.7017" y2="122.7417">
		<stop  offset="0" style="stop-color:#ED7F22"/>
		<stop  offset="1" style="stop-color:#F19549"/>
	</linearGradient>
	<path class="st2" d="M126.66,113.26c-8.87,2.65-18.38,2.58-27.21-0.25l-13.22,13.22c8.24,4,17.49,6.25,27.26,6.25
		c5.97,0,11.74-0.86,17.21-2.42c-2.59-4.78-4.06-10.25-4.06-16.07C126.64,113.74,126.66,113.5,126.66,113.26z"/>
</g>
</svg>
