<?xml version="1.0" encoding="utf-8"?>
<!-- Generator: Adobe Illustrator 23.1.1, SVG Export Plug-In . SVG Version: 6.00 Build 0)  -->
<svg version="1.1" id="Layer_15" xmlns="http://www.w3.org/2000/svg" xmlns:xlink="http://www.w3.org/1999/xlink" x="0px" y="0px"
	 viewBox="0 0 240 150" style="enable-background:new 0 0 240 150;" xml:space="preserve">
<style type="text/css">
	.st0{fill:url(#SVGID_1_);}
	.st1{fill:url(#SVGID_2_);}
	.st2{fill:url(#SVGID_3_);}
	.st3{fill:url(#SVGID_4_);}
	.st4{fill:url(#SVGID_5_);}
	.st5{fill:url(#SVGID_6_);}
	.st6{fill:url(#SVGID_7_);}
	.st7{fill:url(#SVGID_8_);}
	.st8{fill:url(#SVGID_9_);}
	.st9{fill:url(#SVGID_10_);}
	.st10{fill:url(#SVGID_11_);}
	.st11{fill:url(#SVGID_12_);}
	.st12{fill:url(#SVGID_13_);}
	.st13{fill:url(#SVGID_14_);}
</style>
<g>
	<g>
		<linearGradient id="SVGID_1_" gradientUnits="userSpaceOnUse" x1="82.6907" y1="105.1034" x2="97.8087" y2="105.1034">
			<stop  offset="0" style="stop-color:#ED7F22"/>
			<stop  offset="1" style="stop-color:#F19549"/>
		</linearGradient>
		<path class="st0" d="M84.02,106.43h12.46c0.73,0,1.33-0.6,1.33-1.33s-0.6-1.33-1.33-1.33H84.02c-0.73,0-1.33,0.6-1.33,1.33
			S83.29,106.43,84.02,106.43z"/>
		<linearGradient id="SVGID_2_" gradientUnits="userSpaceOnUse" x1="123.4614" y1="105.1034" x2="138.5794" y2="105.1034">
			<stop  offset="0" style="stop-color:#ED7F22"/>
			<stop  offset="1" style="stop-color:#F19549"/>
		</linearGradient>
		<path class="st1" d="M124.79,106.43h12.46c0.73,0,1.33-0.6,1.33-1.33s-0.6-1.33-1.33-1.33h-12.46c-0.73,0-1.33,0.6-1.33,1.33
			S124.06,106.43,124.79,106.43z"/>
		<linearGradient id="SVGID_3_" gradientUnits="userSpaceOnUse" x1="62.3043" y1="105.1034" x2="77.4233" y2="105.1034">
			<stop  offset="0" style="stop-color:#ED7F22"/>
			<stop  offset="1" style="stop-color:#F19549"/>
		</linearGradient>
		<path class="st2" d="M77.42,105.1c0-0.73-0.6-1.33-1.33-1.33H63.63c-0.73,0-1.33,0.6-1.33,1.33s0.6,1.33,1.33,1.33h12.46
			C76.83,106.43,77.42,105.84,77.42,105.1z"/>
		<linearGradient id="SVGID_4_" gradientUnits="userSpaceOnUse" x1="103.0761" y1="105.1034" x2="118.194" y2="105.1034">
			<stop  offset="0" style="stop-color:#ED7F22"/>
			<stop  offset="1" style="stop-color:#F19549"/>
		</linearGradient>
		<path class="st3" d="M104.41,106.43h12.46c0.73,0,1.33-0.6,1.33-1.33s-0.6-1.33-1.33-1.33h-12.46c-0.73,0-1.33,0.6-1.33,1.33
			S103.67,106.43,104.41,106.43z"/>
		<linearGradient id="SVGID_5_" gradientUnits="userSpaceOnUse" x1="143.8479" y1="105.1034" x2="158.9659" y2="105.1034">
			<stop  offset="0" style="stop-color:#ED7F22"/>
			<stop  offset="1" style="stop-color:#F19549"/>
		</linearGradient>
		<path class="st4" d="M145.18,106.43h12.46c0.73,0,1.33-0.6,1.33-1.33s-0.6-1.33-1.33-1.33h-12.46c-0.73,0-1.33,0.6-1.33,1.33
			S144.44,106.43,145.18,106.43z"/>
		<linearGradient id="SVGID_6_" gradientUnits="userSpaceOnUse" x1="164.2333" y1="105.1034" x2="179.3512" y2="105.1034">
			<stop  offset="0" style="stop-color:#ED7F22"/>
			<stop  offset="1" style="stop-color:#F19549"/>
		</linearGradient>
		<path class="st5" d="M178.02,103.77h-12.46c-0.73,0-1.33,0.6-1.33,1.33s0.6,1.33,1.33,1.33h12.46c0.73,0,1.33-0.6,1.33-1.33
			S178.76,103.77,178.02,103.77z"/>
		<linearGradient id="SVGID_7_" gradientUnits="userSpaceOnUse" x1="46.3621" y1="105.104" x2="57.0369" y2="105.104">
			<stop  offset="0" style="stop-color:#ED7F22"/>
			<stop  offset="1" style="stop-color:#F19549"/>
		</linearGradient>
		<path class="st6" d="M47.69,114.6c0.73,0,1.33-0.6,1.33-1.33v-6.9c0.11,0.03,0.21,0.07,0.33,0.07h6.36c0.73,0,1.33-0.6,1.33-1.33
			s-0.6-1.33-1.33-1.33h-6.36c-0.12,0-0.22,0.04-0.33,0.07v-6.9c0-0.73-0.6-1.33-1.33-1.33s-1.33,0.6-1.33,1.33v16.32
			C46.36,114,46.96,114.6,47.69,114.6z"/>
		<linearGradient id="SVGID_8_" gradientUnits="userSpaceOnUse" x1="184.6186" y1="105.2237" x2="193.6381" y2="105.2237">
			<stop  offset="0" style="stop-color:#ED7F22"/>
			<stop  offset="1" style="stop-color:#F19549"/>
		</linearGradient>
		<path class="st7" d="M185.95,106.43h5.03v6.95c0,0.73,0.6,1.33,1.33,1.33c0.73,0,1.33-0.6,1.33-1.33V97.06
			c0-0.73-0.6-1.33-1.33-1.33c-0.73,0-1.33,0.6-1.33,1.33v6.71h-5.03c-0.73,0-1.33,0.6-1.33,1.33S185.21,106.43,185.95,106.43z"/>
		<linearGradient id="SVGID_9_" gradientUnits="userSpaceOnUse" x1="45" y1="134.6464" x2="61.0388" y2="134.6464">
			<stop  offset="0" style="stop-color:#ED7F22"/>
			<stop  offset="1" style="stop-color:#F19549"/>
		</linearGradient>
		<path class="st8" d="M58.43,127.28H47.61c-0.9,0-1.65,0.69-1.72,1.59l-0.89,11.28c-0.08,1,0.71,1.86,1.72,1.86h12.59
			c1.01,0,1.8-0.86,1.72-1.86l-0.89-11.28C60.08,127.97,59.33,127.28,58.43,127.28z"/>
		<linearGradient id="SVGID_10_" gradientUnits="userSpaceOnUse" x1="178.9613" y1="134.6464" x2="195" y2="134.6464">
			<stop  offset="0" style="stop-color:#ED7F22"/>
			<stop  offset="1" style="stop-color:#F19549"/>
		</linearGradient>
		<path class="st9" d="M194.11,128.87c-0.07-0.9-0.82-1.59-1.72-1.59h-10.82c-0.9,0-1.65,0.69-1.72,1.59l-0.89,11.28
			c-0.08,1,0.71,1.86,1.72,1.86h12.59c1.01,0,1.8-0.86,1.72-1.86L194.11,128.87z"/>
		<linearGradient id="SVGID_11_" gradientUnits="userSpaceOnUse" x1="111.9807" y1="134.8232" x2="128.0195" y2="134.8232">
			<stop  offset="0" style="stop-color:#ED7F22"/>
			<stop  offset="1" style="stop-color:#F19549"/>
		</linearGradient>
		<path class="st10" d="M125.41,127.46h-10.82c-0.9,0-1.65,0.69-1.72,1.59l-0.89,11.28c-0.08,1,0.71,1.86,1.72,1.86h12.59
			c1.01,0,1.8-0.86,1.72-1.86l-0.89-11.28C127.06,128.15,126.31,127.46,125.41,127.46z"/>
		<linearGradient id="SVGID_12_" gradientUnits="userSpaceOnUse" x1="64.8616" y1="134.6464" x2="108.0234" y2="134.6464">
			<stop  offset="0" style="stop-color:#ED7F22"/>
			<stop  offset="1" style="stop-color:#F19549"/>
		</linearGradient>
		<path class="st11" d="M104.58,127.28H68.31c-2.01,0-3.59,1.71-3.43,3.71l0.62,7.84c0.14,1.79,1.64,3.17,3.43,3.17h35.04
			c1.8,0,3.29-1.38,3.43-3.17l0.62-7.84C108.17,128.99,106.59,127.28,104.58,127.28z"/>
		<linearGradient id="SVGID_13_" gradientUnits="userSpaceOnUse" x1="131.9766" y1="134.6464" x2="175.1385" y2="134.6464">
			<stop  offset="0" style="stop-color:#ED7F22"/>
			<stop  offset="1" style="stop-color:#F19549"/>
		</linearGradient>
		<path class="st12" d="M171.69,127.28h-36.27c-2.01,0-3.59,1.71-3.43,3.71l0.62,7.84c0.14,1.79,1.64,3.17,3.43,3.17h35.04
			c1.8,0,3.29-1.38,3.43-3.17l0.62-7.84C175.28,128.99,173.7,127.28,171.69,127.28z"/>
	</g>
	<g>
		<linearGradient id="SVGID_14_" gradientUnits="userSpaceOnUse" x1="67.5218" y1="46.8706" x2="172.4782" y2="46.8706">
			<stop  offset="0" style="stop-color:#ED7F22"/>
			<stop  offset="1" style="stop-color:#F19549"/>
		</linearGradient>
		<path class="st13" d="M172.48,67.82c-0.24,0.13-1.37,0.68-3.2,1.56c-1.05,0.47-2.37,1.05-3.84,1.71
			c-0.56,0.18-1.18,0.35-1.82,0.54c-0.02,0.02-0.06,0.02-0.08,0.04c-1.04,0.28-2.14,0.59-3.34,0.92c-1.92,0.6-4.1,0.85-6.4,1.1
			c-1.15,0.11-2.34,0.3-3.53,0.36c-1.23,0.03-2.47-0.02-3.71-0.03c-1.72,0.01-3.47-0.09-5.22-0.3c0.02-0.02,0.06-0.06,0.04-0.12
			c-0.81-0.05-1.59-0.14-2.4-0.23c-0.08,0-0.12,0-0.18-0.01c-0.88-0.11-1.79-0.25-2.67-0.44c-0.28-0.03-0.59-0.08-0.86-0.13
			c-2.51-0.45-5.03-1.1-7.47-1.91c-2.48-0.73-4.91-1.69-7.24-2.71c-2.33-1.06-4.6-2.15-6.74-3.34c-4.31-2.34-8.16-4.84-11.33-7.19
			c-3.17-2.34-5.77-4.39-7.49-5.94c-1.76-1.51-2.71-2.42-2.71-2.42s0.75,1.08,2.32,2.85c1.57,1.68,3.82,4.18,6.88,6.78
			c3.06,2.59,6.73,5.55,11.07,8.11c4.32,2.62,9.22,4.96,14.39,6.62c2.57,0.81,5.22,1.43,7.86,1.88c1.9,0.35,3.81,0.56,5.68,0.65
			c-2.94,6.4-10.27,10.96-19.16,9.49c-4.28-0.72-8.44-1.83-12.47-3.25c2.52-1.38,4.93-2.89,7.19-4.5c-4.68,0.98-9.6,1.45-14.69,1.39
			c-6.98-3.37-13.4-7.77-19-13.02c-1.28-1.18-3.02-3.14-4.85-5.72c-0.79-0.88,12.09,1.3,11.01-0.28c-1.1-0.71-15.59-6.67-16.34-9.19
			C62.72,32.8,69.32,6.43,77.51,7.87c4.68,0.42,8.51,8.55,13.91,14.82c0.41,1.04,1.41,12.36,3.07,13.27
			c0.88,0.73,0.77-9.87,1.91-8.87c4.98,4.95,11.69,11.95,23.87,18.64c1.65,3.11,3.9,6.17,6.74,8.95c-1.07-2.51-1.95-5.03-2.56-7.58
			c1.09,0.3,2.17,0.52,3.27,0.72c5.43,1.08,11.86,8.76,13.87,19.18c0.15,0.72,0.24,1.43,0.25,2.14c0.45,0.06,0.9,0.17,1.37,0.25
			c1.18,0.24,2.4,0.23,3.56,0.37c1.18,0.11,2.36,0.19,3.48,0.33c1.14,0.04,2.27-0.01,3.36-0.01c2.17-0.03,4.26,0.07,6.15-0.24
			c1.9-0.2,3.65-0.37,5.21-0.53c1.55-0.32,2.89-0.6,4-0.83C170.93,68.06,172.18,67.85,172.48,67.82z"/>
	</g>
</g>
</svg>
