<?xml version="1.0" encoding="utf-8"?>
<!-- Generator: Adobe Illustrator 23.1.1, SVG Export Plug-In . SVG Version: 6.00 Build 0)  -->
<svg version="1.1" xmlns="http://www.w3.org/2000/svg" xmlns:xlink="http://www.w3.org/1999/xlink" x="0px" y="0px"
	 viewBox="0 0 240 150" style="enable-background:new 0 0 240 150;" xml:space="preserve">
<style type="text/css">
	.st0{fill:url(#SVGID_1_);}
	.st1{fill:url(#SVGID_2_);}
</style>
<g id="Layer_1">
</g>
<g id="Layer_2">
	<g>
		<linearGradient id="SVGID_1_" gradientUnits="userSpaceOnUse" x1="135.1941" y1="113.6317" x2="191.9098" y2="113.6317">
			<stop  offset="0" style="stop-color:#ED7F22"/>
			<stop  offset="1" style="stop-color:#F19549"/>
		</linearGradient>
		<path class="st0" d="M163.55,85.27c-15.66,0-28.36,12.7-28.36,28.36s12.7,28.36,28.36,28.36c15.66,0,28.36-12.7,28.36-28.36
			S179.21,85.27,163.55,85.27z M177.77,117.3l-11.88,11.88c-1.29,1.29-3.38,1.29-4.67,0l-11.88-11.88
			c-2.08-2.08-0.61-5.64,2.34-5.64h5.57v-11.7c0-1.57,1.28-2.85,2.85-2.85h6.94c1.57,0,2.85,1.28,2.85,2.85v11.7h5.57
			C178.38,111.66,179.85,115.22,177.77,117.3z"/>
		<linearGradient id="SVGID_2_" gradientUnits="userSpaceOnUse" x1="48.0902" y1="70.1117" x2="172.2929" y2="70.1117">
			<stop  offset="0" style="stop-color:#ED7F22"/>
			<stop  offset="1" style="stop-color:#F19549"/>
		</linearGradient>
		<path class="st1" d="M129.95,113.63c0-18.56,15.05-33.61,33.61-33.61c2.68,0,5.28,0.32,7.78,0.92c0.62-3.52,0.96-7.13,0.96-10.83
			c0-34.3-27.8-62.1-62.1-62.1c-34.3,0-62.1,27.8-62.1,62.1s27.8,62.1,62.1,62.1c8.09,0,15.81-1.56,22.9-4.38
			C131.08,123.52,129.95,118.71,129.95,113.63z M116.42,109.01c0,3.57-2.89,6.46-6.46,6.46c-3.57,0-6.46-2.89-6.46-6.46l-0.01-5.77
			c-5.8-0.91-11.15-2.97-14.09-5.19c-1.86-1.37-3.13-3.13-3.03-5.38c0.1-3.72,3.23-6.36,6.36-6.26c0.59,0,1.86,0.19,2.94,0.78
			c3.91,2.05,8.03,4.21,14,4.4c7.54,0.29,11.55-2.74,11.55-6.36c0-11.35-35.43-4.89-35.41-28.77c-0.01-11.35,7.92-17.54,17.61-19.37
			l-0.01-5.88c0-3.57,2.89-6.46,6.46-6.46c3.57,0,6.46,2.89,6.46,6.46l0.01,5.99c5.59,1.14,10.98,3.48,14.09,5.66
			c1.37,0.98,2.94,2.54,2.84,4.99c-0.1,3.13-2.84,5.68-5.77,5.58c-0.88,0-1.96-0.29-2.84-0.78c-5.09-2.74-8.12-3.91-15.07-3.91
			c-6.76,0-10.47,3.23-10.45,7.03c-0.02,11.96,35.5,5.69,35.46,28.6c0.04,11.14-8.51,16.97-18.16,18.76L116.42,109.01z"/>
	</g>
</g>
</svg>
