<?xml version="1.0" encoding="utf-8"?>
<!-- Generator: Adobe Illustrator 23.1.1, SVG Export Plug-In . SVG Version: 6.00 Build 0)  -->
<svg version="1.1" id="Layer_6" xmlns="http://www.w3.org/2000/svg" xmlns:xlink="http://www.w3.org/1999/xlink" x="0px" y="0px"
	 viewBox="0 0 240 150" style="enable-background:new 0 0 240 150;" xml:space="preserve">
<style type="text/css">
	.st0{fill:none;}
	.st1{fill:url(#SVGID_1_);}
	.st2{fill:url(#SVGID_2_);}
	.st3{fill:url(#SVGID_3_);}
	.st4{fill:url(#SVGID_4_);}
	.st5{fill:url(#SVGID_5_);}
	.st6{fill:url(#SVGID_6_);}
	.st7{fill:url(#SVGID_7_);}
	.st8{fill:url(#SVGID_8_);}
</style>
<g>
	<g>
		<path class="st0" d="M149.39,64.63c1.67-0.77,3.31-1.82,4.74-3.25c5.77-5.77,5.53-15.05,5.52-15.44
			c-0.04-1.14-0.95-2.05-2.09-2.09c-0.39-0.01-9.68-0.25-15.45,5.52c-3.03,3.03-4.4,6.98-5.02,10.1
			c-4.16-4.3-11.89-11.3-21.64-15.59v-8.25c0-1.79-0.8-3.45-2.2-4.56c-1.39-1.1-3.18-1.51-4.9-1.11
			c-10.38,2.41-16.38,8.78-18.19,10.97c-3.06,0.52-6.12,1.3-9.09,2.33c-0.01,0-0.01,0.01-0.02,0.01c0,0-0.01,0-0.01,0
			c-6.44,2.25-12.45,5.69-16.93,9.69c-4.5,4.02-6.98,8.13-6.98,11.58c0,7.24,10.91,16.84,24.31,21.41c0,0,0.01,0,0.01,0
			c5.75,1.96,11.66,2.95,17.57,2.95c1.72,0,3.48-0.13,5.25-0.39c1.84,1.5,5.79,4.35,11.03,5.92c0.56,0.17,1.12,0.25,1.68,0.25
			c1.23,0,2.43-0.39,3.46-1.16c1.49-1.11,2.34-2.81,2.34-4.66v-7.56c6.28-3.93,11.24-8.52,14.29-11.67
			c0.61,3.18,1.98,7.22,5.04,10.28c0.67,0.67,1.38,1.25,2.12,1.77c1-1.09,2.06-2.13,3.16-3.11c-0.79-0.48-1.55-1.04-2.23-1.71
			c-2.98-2.98-3.87-7.4-4.14-10.04c2.61,0.27,7.07,1.17,10.04,4.14c0.95,0.95,1.67,2.05,2.24,3.2c1.23-0.76,2.49-1.46,3.79-2.1
			c-0.75-1.47-1.71-2.9-2.97-4.16C152.7,66.48,151.06,65.42,149.39,64.63z M109.33,34.18c0.59-0.14,1.03,0.12,1.23,0.28
			c0.36,0.29,0.57,0.71,0.57,1.17v6.58c-4.1-1.35-8.15-2.03-12.1-2.03c-0.65,0-1.31,0.01-1.96,0.04
			C99.77,38.01,103.87,35.45,109.33,34.18z M81.71,81.47c-12.58-4.61-20.25-12.85-20.25-16.91c0-4,7.55-12.17,19.94-16.8
			c4.63,3.89,7.78,10.81,7.78,17.28C89.18,70.95,86.21,77.4,81.71,81.47z M118.46,88.88c0,0.65-0.37,1.02-0.6,1.19
			c-0.38,0.28-0.86,0.37-1.32,0.23c-2.63-0.79-4.88-1.95-6.62-3.03c2.83-0.84,5.68-2,8.53-3.48V88.88z M119.51,78.25
			c-5.06,3.03-10.09,5-14.96,5.85c-1.86,0.32-3.72,0.49-5.52,0.49c-4.24,0-8.49-0.56-12.68-1.67c4.38-4.84,7.16-11.61,7.16-17.89
			c0-6.87-2.88-13.97-7.42-18.79c1.85-0.5,3.71-0.89,5.58-1.18c2.45-0.37,4.92-0.56,7.36-0.56c4.33,0,8.84,0.94,13.41,2.79
			c0.01,0.01,0.03,0.01,0.04,0.02c11.45,4.65,20.35,13.79,23.42,17.24C133.49,67.25,127.48,73.47,119.51,78.25z M145.17,52.42
			c2.98-2.98,7.4-3.87,10.04-4.14c-0.27,2.64-1.18,7.08-4.14,10.04c-2.97,2.97-7.44,3.79-10.04,4
			C141.31,59.74,142.21,55.38,145.17,52.42z"/>
		<path class="st0" d="M73.72,61.9c-1.19,0-2.16,0.97-2.16,2.16v0.97c0,1.19,0.97,2.16,2.16,2.16c1.19,0,2.16-0.97,2.16-2.16v-0.97
			C75.88,62.87,74.92,61.9,73.72,61.9z"/>
		<linearGradient id="SVGID_1_" gradientUnits="userSpaceOnUse" x1="109.9225" y1="87.0749" x2="118.4574" y2="87.0749">
			<stop  offset="0" style="stop-color:#ED7F22"/>
			<stop  offset="1" style="stop-color:#F19549"/>
		</linearGradient>
		<path class="st1" d="M116.54,90.3c0.46,0.14,0.94,0.05,1.32-0.23c0.22-0.17,0.6-0.54,0.6-1.19v-5.09
			c-2.86,1.48-5.71,2.64-8.53,3.48C111.66,88.35,113.91,89.51,116.54,90.3z"/>
		<linearGradient id="SVGID_2_" gradientUnits="userSpaceOnUse" x1="86.0851" y1="64.5516" x2="135.9024" y2="64.5516">
			<stop  offset="0" style="stop-color:#ED7F22"/>
			<stop  offset="1" style="stop-color:#F19549"/>
		</linearGradient>
		<path class="st2" d="M112.48,47.31c-0.01-0.01-0.03-0.01-0.04-0.02c-4.57-1.85-9.08-2.79-13.41-2.79c-2.44,0-4.91,0.19-7.36,0.56
			c-1.87,0.28-3.73,0.68-5.58,1.18c4.54,4.82,7.42,11.91,7.42,18.79c0,6.28-2.78,13.05-7.16,17.89c4.18,1.11,8.43,1.67,12.68,1.67
			c1.8,0,3.66-0.16,5.52-0.49c4.87-0.85,9.9-2.82,14.96-5.85c7.97-4.78,13.98-11,16.39-13.7C132.82,61.11,123.93,51.96,112.48,47.31
			z"/>
		<linearGradient id="SVGID_3_" gradientUnits="userSpaceOnUse" x1="97.0602" y1="38.1762" x2="111.1254" y2="38.1762">
			<stop  offset="0" style="stop-color:#ED7F22"/>
			<stop  offset="1" style="stop-color:#F19549"/>
		</linearGradient>
		<path class="st3" d="M111.13,42.21v-6.58c0-0.46-0.21-0.89-0.57-1.17c-0.21-0.16-0.64-0.42-1.23-0.28
			c-5.46,1.27-9.56,3.83-12.27,6.04c0.66-0.02,1.31-0.04,1.96-0.04C102.97,40.18,107.03,40.87,111.13,42.21z"/>
		<linearGradient id="SVGID_4_" gradientUnits="userSpaceOnUse" x1="61.4584" y1="64.6092" x2="89.1794" y2="64.6092">
			<stop  offset="0" style="stop-color:#ED7F22"/>
			<stop  offset="1" style="stop-color:#F19549"/>
		</linearGradient>
		<path class="st4" d="M81.4,47.75c-12.38,4.63-19.94,12.8-19.94,16.8c0,4.07,7.67,12.31,20.25,16.91
			c4.51-4.06,7.47-10.51,7.47-16.43C89.18,58.57,86.02,51.64,81.4,47.75z M75.88,65.04c0,1.19-0.97,2.16-2.16,2.16
			c-1.19,0-2.16-0.97-2.16-2.16v-0.97c0-1.19,0.97-2.16,2.16-2.16c1.19,0,2.16,0.97,2.16,2.16V65.04z"/>
		<linearGradient id="SVGID_5_" gradientUnits="userSpaceOnUse" x1="46.2436" y1="63.049" x2="169.6489" y2="63.049">
			<stop  offset="0" style="stop-color:#ED7F22"/>
			<stop  offset="1" style="stop-color:#F19549"/>
		</linearGradient>
		<path class="st5" d="M144.23,81.69c-0.74-0.52-1.45-1.1-2.12-1.77c-3.05-3.05-4.42-7.1-5.04-10.28
			c-3.05,3.15-8.01,7.74-14.29,11.67v7.56c0,1.85-0.85,3.55-2.34,4.66c-1.02,0.76-2.23,1.16-3.46,1.16c-0.56,0-1.13-0.08-1.68-0.25
			c-5.23-1.56-9.19-4.41-11.03-5.92c-1.77,0.26-3.53,0.39-5.25,0.39c-5.91,0-11.82-0.99-17.57-2.95c0,0-0.01,0-0.01,0
			c-13.41-4.57-24.31-14.17-24.31-21.41c0-3.45,2.48-7.57,6.98-11.58c4.48-4,10.49-7.44,16.93-9.69c0,0,0.01,0,0.01,0
			c0.01,0,0.01-0.01,0.02-0.01c2.97-1.04,6.02-1.82,9.09-2.33c1.81-2.19,7.8-8.56,18.19-10.97c1.73-0.4,3.51,0,4.9,1.11
			c1.4,1.11,2.2,2.77,2.2,4.56v8.25c9.75,4.29,17.48,11.29,21.64,15.59c0.62-3.12,1.99-7.07,5.02-10.1
			c5.77-5.77,15.05-5.53,15.45-5.52c1.14,0.04,2.05,0.95,2.09,2.09c0.01,0.39,0.25,9.67-5.52,15.44c-1.43,1.43-3.07,2.48-4.74,3.25
			c1.67,0.79,3.31,1.85,4.74,3.28c1.26,1.26,2.22,2.69,2.97,4.16c3.89-1.89,8.11-3.21,12.55-3.85V13.35c0-6.6-5.4-12-12-12H58.24
			c-6.6,0-12,5.4-12,12v99.41c0,6.6,5.4,12,12,12h77.21c-1.57-4.45-2.43-9.22-2.43-14.2C133.03,99.43,137.28,89.3,144.23,81.69z"/>
		<linearGradient id="SVGID_6_" gradientUnits="userSpaceOnUse" x1="141.0283" y1="72.7055" x2="155.2068" y2="72.7055">
			<stop  offset="0" style="stop-color:#ED7F22"/>
			<stop  offset="1" style="stop-color:#F19549"/>
		</linearGradient>
		<path class="st6" d="M151.07,70.97c-2.97-2.97-7.43-3.87-10.04-4.14c0.27,2.63,1.17,7.06,4.14,10.04
			c0.68,0.68,1.43,1.23,2.23,1.71c1.84-1.63,3.81-3.11,5.91-4.41C152.74,73.02,152.02,71.92,151.07,70.97z"/>
		<linearGradient id="SVGID_7_" gradientUnits="userSpaceOnUse" x1="141.0337" y1="55.3008" x2="155.2077" y2="55.3008">
			<stop  offset="0" style="stop-color:#ED7F22"/>
			<stop  offset="1" style="stop-color:#F19549"/>
		</linearGradient>
		<path class="st7" d="M155.21,48.28c-2.64,0.27-7.06,1.17-10.04,4.14c-2.96,2.96-3.86,7.31-4.14,9.9c2.6-0.22,7.07-1.03,10.04-4
			C154.03,55.36,154.93,50.92,155.21,48.28z"/>
	</g>
	<linearGradient id="SVGID_8_" gradientUnits="userSpaceOnUse" x1="137.8686" y1="110.5468" x2="213.7363" y2="110.5468">
		<stop  offset="0" style="stop-color:#ED7F22"/>
		<stop  offset="1" style="stop-color:#F19549"/>
	</linearGradient>
	<path class="st8" d="M175.8,72.61c-20.95,0-37.93,16.98-37.93,37.93c0,20.95,16.98,37.93,37.93,37.93
		c20.95,0,37.93-16.98,37.93-37.93C213.74,89.6,196.75,72.61,175.8,72.61z M203.05,113.13h-6.67l2.71,2.71
		c0.47,0.47,0.71,1.09,0.71,1.71c0,0.62-0.23,1.24-0.71,1.71c-0.94,0.94-2.48,0.94-3.42,0l-5.12-5.13l-1-1h-9.73l3.19,3.19l0.94,0
		l4.79,0c0.44,0,0.84,0.18,1.13,0.47c0.29,0.29,0.47,0.69,0.47,1.13c0,0.88-0.72,1.6-1.6,1.6h-2.54l3.12,3.12
		c0.31,0.31,0.47,0.72,0.47,1.13c0,0.41-0.16,0.82-0.47,1.13c-0.62,0.62-1.64,0.62-2.26,0l-3.12-3.12v2.54
		c0,0.44-0.18,0.84-0.47,1.13c-0.29,0.29-0.69,0.47-1.13,0.47c-0.88,0-1.6-0.72-1.6-1.6l0-4.79l0-0.94l-3.19-3.19v9.73l1,1.01
		l5.13,5.12c0.47,0.47,0.7,1.09,0.7,1.71s-0.23,1.24-0.7,1.71c-0.94,0.94-2.48,0.94-3.42,0l-2.71-2.71v6.67
		c0,0.66-0.27,1.27-0.71,1.71c-0.44,0.44-1.04,0.71-1.71,0.71c-1.33,0-2.42-1.09-2.42-2.42v-6.67l-2.71,2.71
		c-0.47,0.47-1.09,0.71-1.71,0.71c-0.62,0-1.24-0.23-1.71-0.71c-0.94-0.94-0.94-2.48,0-3.42l5.13-5.12l1-1v-9.73l-3.19,3.19l0,0.94
		l0,4.79c0,0.44-0.18,0.84-0.47,1.13c-0.29,0.29-0.69,0.47-1.13,0.47c-0.88,0-1.6-0.72-1.6-1.6v-2.54l-3.12,3.12
		c-0.31,0.31-0.72,0.47-1.13,0.47c-0.41,0-0.82-0.16-1.13-0.47c-0.62-0.62-0.62-1.64,0-2.26l3.12-3.12h-2.54
		c-0.44,0-0.84-0.18-1.13-0.47c-0.29-0.29-0.47-0.69-0.47-1.13c0-0.88,0.72-1.6,1.6-1.6l4.79,0l0.94,0l3.19-3.19h-9.73l-1.01,1
		l-5.12,5.13c-0.47,0.47-1.09,0.7-1.71,0.7c-0.62,0-1.24-0.23-1.71-0.7c-0.94-0.94-0.94-2.48,0-3.42l2.71-2.71h-6.67
		c-0.66,0-1.27-0.27-1.71-0.71c-0.44-0.44-0.71-1.04-0.71-1.71c0-1.33,1.09-2.42,2.42-2.42h6.67l-2.71-2.71
		c-0.47-0.47-0.71-1.09-0.71-1.71c0-0.62,0.23-1.24,0.71-1.71c0.94-0.94,2.48-0.94,3.42,0l5.12,5.13l1,1h9.73l-3.19-3.19l-0.94,0
		l-4.79,0c-0.44,0-0.84-0.18-1.13-0.47c-0.29-0.29-0.47-0.69-0.47-1.13c0-0.88,0.72-1.6,1.6-1.6h2.54l-3.12-3.12
		c-0.31-0.31-0.47-0.72-0.47-1.13c0-0.41,0.16-0.82,0.47-1.13c0.62-0.62,1.64-0.62,2.26,0l3.12,3.12v-2.54
		c0-0.44,0.18-0.84,0.47-1.13c0.29-0.29,0.69-0.47,1.13-0.47c0.88,0,1.6,0.72,1.6,1.6l0,4.79l0,0.94l3.19,3.19v-9.73l-1-1.01
		l-5.13-5.12c-0.47-0.47-0.7-1.09-0.7-1.71c0-0.62,0.23-1.24,0.7-1.71c0.94-0.94,2.48-0.94,3.42,0l2.71,2.71V82.8
		c0-0.66,0.27-1.27,0.71-1.71c0.44-0.44,1.04-0.71,1.71-0.71c1.33,0,2.42,1.09,2.42,2.42v6.67l2.71-2.71
		c0.47-0.47,1.09-0.71,1.71-0.71c0.62,0,1.24,0.23,1.71,0.71c0.94,0.94,0.94,2.48,0,3.42l-5.13,5.12l-1,1v9.73l3.19-3.19l0-0.94
		l0-4.79c0-0.44,0.18-0.84,0.47-1.13c0.29-0.29,0.69-0.47,1.13-0.47c0.88,0,1.6,0.72,1.6,1.6l0,2.54l3.12-3.12
		c0.31-0.31,0.72-0.47,1.13-0.47c0.41,0,0.82,0.16,1.13,0.47c0.62,0.62,0.62,1.64,0,2.26l-3.12,3.12h2.54
		c0.44,0,0.84,0.18,1.13,0.47c0.29,0.29,0.47,0.69,0.47,1.13c0,0.88-0.72,1.6-1.6,1.6l-4.79,0l-0.94,0l-3.19,3.19h9.73l1.01-1
		l5.12-5.13c0.47-0.47,1.09-0.7,1.71-0.7s1.24,0.23,1.71,0.7c0.94,0.94,0.94,2.48,0,3.42l-2.71,2.71h6.67
		c0.66,0,1.27,0.27,1.71,0.71c0.44,0.44,0.71,1.04,0.71,1.71C205.47,112.05,204.38,113.13,203.05,113.13z"/>
</g>
</svg>
