<?xml version="1.0" encoding="utf-8"?>
<!-- Generator: Adobe Illustrator 23.1.1, SVG Export Plug-In . SVG Version: 6.00 Build 0)  -->
<svg version="1.1" id="Layer_7" xmlns="http://www.w3.org/2000/svg" xmlns:xlink="http://www.w3.org/1999/xlink" x="0px" y="0px"
	 viewBox="0 0 240 150" style="enable-background:new 0 0 240 150;" xml:space="preserve">
<style type="text/css">
	.st0{fill:url(#SVGID_1_);}
	.st1{fill:url(#SVGID_2_);}
	.st2{fill:url(#SVGID_3_);}
	.st3{fill:url(#SVGID_4_);}
	.st4{fill:url(#SVGID_5_);}
	.st5{fill:url(#SVGID_6_);}
	.st6{fill:url(#SVGID_7_);}
	.st7{fill:url(#SVGID_8_);}
	.st8{fill:url(#SVGID_9_);}
	.st9{fill:url(#SVGID_10_);}
	.st10{fill:url(#SVGID_11_);}
	.st11{fill:url(#SVGID_12_);}
	.st12{fill:url(#SVGID_13_);}
	.st13{fill:url(#SVGID_14_);}
</style>
<g>
	<g>
		<linearGradient id="SVGID_1_" gradientUnits="userSpaceOnUse" x1="149.3857" y1="24.0081" x2="170.4608" y2="20.9374">
			<stop  offset="0" style="stop-color:#ED7F22"/>
			<stop  offset="1" style="stop-color:#F19549"/>
		</linearGradient>
		<path class="st0" d="M153.44,31.02c1.01,0.05,2,0.2,2.96,0.44c0.09-2.23,0.87-6.13,4.62-9.83c1.05-1.03,3.23-2.32,5.97-2.57
			c1.65-0.15,2.87-1.61,2.72-3.26c-0.15-1.65-1.6-2.86-3.26-2.72c-3.61,0.33-7.31,1.97-9.64,4.28c-5.06,4.98-6.22,10.42-6.38,13.8
			c0.73-0.11,1.48-0.16,2.24-0.16C152.93,31,153.18,31.01,153.44,31.02z"/>
		<linearGradient id="SVGID_2_" gradientUnits="userSpaceOnUse" x1="122.5177" y1="37.468" x2="144.6384" y2="34.245">
			<stop  offset="0" style="stop-color:#ED7F22"/>
			<stop  offset="1" style="stop-color:#F19549"/>
		</linearGradient>
		<path class="st1" d="M144.5,33.32c-3.42,2.12-5.97,5.53-6.94,9.54c-1.03-0.22-2.09-0.33-3.18-0.33c-3.36,0-6.47,1.07-9.01,2.88
			c-0.11,0.08-0.21,0.16-0.32,0.24c-0.34-0.46-0.65-0.96-0.91-1.47c-0.83-1.59-1.3-3.4-1.3-5.32c0-6.37,5.17-11.54,11.54-11.54
			C138.74,27.32,142.54,29.75,144.5,33.32z"/>
		<linearGradient id="SVGID_3_" gradientUnits="userSpaceOnUse" x1="137.7249" y1="105.0798" x2="160.209" y2="101.8038">
			<stop  offset="0" style="stop-color:#ED7F22"/>
			<stop  offset="1" style="stop-color:#F19549"/>
		</linearGradient>
		<path class="st2" d="M160.05,101.36c0,6.37-5.16,11.53-11.53,11.53c-4.87,0-9.03-3.01-10.72-7.27c1.6-3.4,2.63-6.45,3.27-9.08
			c2.34-0.3,4.52-1.14,6.41-2.38c2.81,3.9,7.39,6.43,12.55,6.44C160.04,100.85,160.05,101.1,160.05,101.36z"/>
		<linearGradient id="SVGID_4_" gradientUnits="userSpaceOnUse" x1="161.3487" y1="64.8965" x2="177.9325" y2="62.4801">
			<stop  offset="0" style="stop-color:#ED7F22"/>
			<stop  offset="1" style="stop-color:#F19549"/>
		</linearGradient>
		<path class="st3" d="M171.6,56.14c-2.09,0-4.08-0.41-5.9-1.16c-1.3,2-3.04,3.67-5.08,4.9c2.16,2.66,3.44,6.05,3.44,9.73
			c0,0.15,0,0.29-0.01,0.44c2.12,0.56,4.07,1.56,5.73,2.91c4.63-1.5,7.96-5.85,7.96-10.97c0-2.38-0.72-4.59-1.96-6.43
			C174.45,55.94,173.05,56.14,171.6,56.14z"/>
		<linearGradient id="SVGID_5_" gradientUnits="userSpaceOnUse" x1="149.8878" y1="87.0991" x2="171.5589" y2="83.9416">
			<stop  offset="0" style="stop-color:#ED7F22"/>
			<stop  offset="1" style="stop-color:#F19549"/>
		</linearGradient>
		<path class="st4" d="M166.54,75.52c-0.95-0.64-2-1.15-3.12-1.49c-0.11,0.38-0.24,0.76-0.38,1.12c-0.25,0.64-0.53,1.25-0.85,1.85
			c-1.72,3.17-4.52,5.68-7.91,7.03c-0.16,0.91-0.41,1.79-0.73,2.63c-0.24,0.63-0.52,1.24-0.84,1.82c-0.32,0.62-0.69,1.2-1.1,1.76
			c-0.33,0.46-0.69,0.9-1.07,1.32c1.88,2.77,4.95,4.67,8.47,4.99c0.34,0.03,0.7,0.05,1.05,0.05c0.38,0,0.75-0.02,1.11-0.05
			c0.69-0.07,1.35-0.19,2-0.38c4.87-1.35,8.43-5.82,8.43-11.11c0-2.98-1.12-5.68-2.97-7.72C168.01,76.65,167.31,76.04,166.54,75.52z
			"/>
		<linearGradient id="SVGID_6_" gradientUnits="userSpaceOnUse" x1="141.2545" y1="88.1495" x2="150.1226" y2="86.8574">
			<stop  offset="0" style="stop-color:#ED7F22"/>
			<stop  offset="1" style="stop-color:#F19549"/>
		</linearGradient>
		<path class="st5" d="M149.86,85.08c-0.1,0.27-0.2,0.53-0.32,0.78c-0.23,0.52-0.5,1.01-0.8,1.48c-0.1,0.17-0.21,0.32-0.33,0.48
			c-0.36,0.52-0.76,1-1.22,1.45c-0.24,0.26-0.51,0.51-0.8,0.75c-0.26,0.22-0.54,0.43-0.83,0.63c-1.1,0.76-2.35,1.33-3.7,1.68
			c0.09-0.67,0.15-1.29,0.19-1.85c0.06-0.7,0.09-1.42,0.09-2.2v-4.52c0.77,0.36,1.56,0.64,2.39,0.86c0.65,0.17,1.31,0.3,1.99,0.39
			c0.65,0.09,1.32,0.13,2,0.13C148.97,85.14,149.42,85.12,149.86,85.08z"/>
		<linearGradient id="SVGID_7_" gradientUnits="userSpaceOnUse" x1="163.157" y1="41.8314" x2="183.0173" y2="38.9377">
			<stop  offset="0" style="stop-color:#ED7F22"/>
			<stop  offset="1" style="stop-color:#F19549"/>
		</linearGradient>
		<path class="st6" d="M171.6,29.07c-3.98,0-7.49,2.02-9.56,5.08c3.74,2.84,6.16,7.33,6.16,12.38v0.05c0,0.68-0.05,1.35-0.14,2
			c-0.08,0.67-0.22,1.33-0.39,1.97c-0.07,0.27-0.15,0.55-0.24,0.81c1.29,0.51,2.7,0.78,4.17,0.78c0.2,0,0.4-0.01,0.59-0.01h0.01
			c0.95-0.05,1.86-0.22,2.73-0.48c0.71-0.21,1.4-0.49,2.04-0.84c3.67-1.92,6.17-5.77,6.17-10.2
			C183.14,34.24,177.97,29.07,171.6,29.07z"/>
		<linearGradient id="SVGID_8_" gradientUnits="userSpaceOnUse" x1="137.5948" y1="73.3472" x2="137.655" y2="73.3384">
			<stop  offset="0" style="stop-color:#ED7F22"/>
			<stop  offset="1" style="stop-color:#F19549"/>
		</linearGradient>
		<path class="st7" d="M137.58,73.27c0.02,0,0.04-0.01,0.06-0.01v0.17C137.62,73.38,137.6,73.32,137.58,73.27z"/>
		<linearGradient id="SVGID_9_" gradientUnits="userSpaceOnUse" x1="141.1843" y1="72.6361" x2="160.2146" y2="69.8633">
			<stop  offset="0" style="stop-color:#ED7F22"/>
			<stop  offset="1" style="stop-color:#F19549"/>
		</linearGradient>
		<path class="st8" d="M160.05,69.53v0.08c0,0.65-0.05,1.3-0.16,1.92c-0.01,0.04-0.01,0.08-0.02,0.11c-0.12,0.66-0.29,1.3-0.51,1.91
			c-0.01,0.04-0.03,0.07-0.04,0.1c-0.24,0.63-0.52,1.24-0.86,1.81c-0.98,1.66-2.35,3.04-4,4.03c-0.61,0.37-1.25,0.68-1.93,0.93
			c-0.63,0.24-1.29,0.42-1.98,0.54c-0.43,0.08-0.88,0.13-1.34,0.16c-0.23,0.01-0.46,0.02-0.69,0.02c-0.47,0-0.94-0.03-1.39-0.09
			c-0.68-0.07-1.33-0.21-1.97-0.41c-1.08-0.33-2.1-0.81-3.02-1.42v-7.7c0.51-0.29,1-0.61,1.47-0.96c0.58-0.43,1.14-0.9,1.65-1.41
			c0.5-0.48,0.95-0.99,1.37-1.54c1.34-1.71,2.33-3.7,2.85-5.87c0.39,0.08,0.78,0.15,1.18,0.2c0.65,0.09,1.32,0.13,2,0.13
			c0.68,0,1.35-0.04,2-0.13c0.71-0.09,1.4-0.23,2.08-0.42C158.77,63.58,160.03,66.41,160.05,69.53z"/>
		<linearGradient id="SVGID_10_" gradientUnits="userSpaceOnUse" x1="127.2427" y1="58.1096" x2="144.972" y2="55.5264">
			<stop  offset="0" style="stop-color:#ED7F22"/>
			<stop  offset="1" style="stop-color:#F19549"/>
		</linearGradient>
		<path class="st9" d="M145.68,60.41c-0.45,2.17-1.5,4.11-2.97,5.65c-0.18,0.19-0.37,0.37-0.57,0.55v-2.06
			c0-1.25-0.53-2.46-1.46-3.31c-0.83-0.76-1.92-1.19-3.04-1.19c-0.13,0-0.25,0.01-0.38,0.02c-0.06,0-0.11,0.01-0.17,0.01
			c-0.05,0-0.11-0.01-0.16-0.01c-2.91,0-5.64-1.13-7.69-3.18c-1.85-1.85-2.95-4.26-3.15-6.84c0.09-0.1,0.18-0.19,0.28-0.29
			c0.5-0.48,1.04-0.91,1.62-1.3c1.83-1.22,4.03-1.93,6.39-1.93c0.95,0,1.87,0.11,2.75,0.33c0.02,1.06,0.14,2.1,0.38,3.1
			c0.14,0.65,0.33,1.29,0.55,1.91h0.01c0,0-0.01,0-0.01,0.01c0.24,0.63,0.52,1.25,0.83,1.84c0.47,0.91,1.03,1.76,1.67,2.55
			c0.43,0.53,0.89,1.03,1.39,1.5c0.52,0.5,1.08,0.97,1.68,1.39C144.28,59.63,144.96,60.05,145.68,60.41z"/>
		<linearGradient id="SVGID_11_" gradientUnits="userSpaceOnUse" x1="141.1466" y1="48.4129" x2="164.3652" y2="45.0298">
			<stop  offset="0" style="stop-color:#ED7F22"/>
			<stop  offset="1" style="stop-color:#F19549"/>
		</linearGradient>
		<path class="st10" d="M145.28,37.69c-0.26,0.22-0.51,0.45-0.75,0.68c-0.03,0.03-0.06,0.06-0.09,0.09c-0.2,0.2-0.39,0.41-0.57,0.63
			c-0.07,0.08-0.15,0.16-0.22,0.25c-0.1,0.12-0.19,0.26-0.29,0.38c-1.46,1.96-2.34,4.37-2.34,7c0,6.48,5.25,11.73,11.73,11.73
			c6.48,0,11.73-5.25,11.73-11.73c0-6.17-4.77-11.22-10.83-11.69c-0.21-0.02-0.42-0.03-0.64-0.03c-0.09,0-0.17-0.01-0.26-0.01
			c-0.01,0-0.03,0-0.04,0c-0.02,0-0.03,0-0.05,0c-0.63,0-1.25,0.05-1.85,0.15c-0.12,0.02-0.24,0.06-0.36,0.08
			c-0.06,0.01-0.12,0.03-0.18,0.04c-0.25,0.05-0.5,0.09-0.74,0.16c-0.66,0.18-1.29,0.43-1.89,0.72c-0.65,0.31-1.26,0.68-1.83,1.11
			c-0.17,0.12-0.33,0.26-0.49,0.4C145.31,37.66,145.29,37.68,145.28,37.69z"/>
	</g>
	<g>
		<g>
			<g>
				<linearGradient id="SVGID_12_" gradientUnits="userSpaceOnUse" x1="66.4229" y1="92.5054" x2="128.083" y2="92.5054">
					<stop  offset="0" style="stop-color:#ED7F22"/>
					<stop  offset="1" style="stop-color:#F19549"/>
				</linearGradient>
				<path class="st11" d="M128.08,72.79v15.76c0,3.68-1.22,7.9-3.61,12.54c-2.33,4.5-5.68,9.16-9.69,13.48
					c-8.03,8.67-14.94,12.19-17.14,12.73c-2.79-0.53-10.18-4.54-17.95-13c-8.3-9.06-13.27-19.04-13.27-26.71v-14.8
					c6.84-2.61,12.25-8.17,14.69-15.07h32.28C115.83,64.62,121.24,70.18,128.08,72.79z"/>
			</g>
			<g>
				<linearGradient id="SVGID_13_" gradientUnits="userSpaceOnUse" x1="98.7329" y1="48.1854" x2="98.8429" y2="48.1854">
					<stop  offset="0" style="stop-color:#ED7F22"/>
					<stop  offset="1" style="stop-color:#F19549"/>
				</linearGradient>
				<path class="st12" d="M98.73,48.16c0.03,0.02,0.05,0.04,0.08,0.06c0.01-0.02,0.02-0.04,0.03-0.06H98.73z"/>
				<linearGradient id="SVGID_14_" gradientUnits="userSpaceOnUse" x1="56.8629" y1="92.5455" x2="137.643" y2="92.5455">
					<stop  offset="0" style="stop-color:#ED7F22"/>
					<stop  offset="1" style="stop-color:#F19549"/>
				</linearGradient>
				<path class="st13" d="M136.93,64.84c-4.24,0-8.09-1.72-10.87-4.5c-2.78-2.78-4.5-6.62-4.5-10.86c0-0.45,0.02-0.88,0.06-1.32
					H98.84c-0.01,0.02-0.02,0.04-0.03,0.06c-0.03-0.02-0.05-0.04-0.08-0.06H72.88c0.04,0.44,0.06,0.87,0.06,1.32
					c0,8.48-6.88,15.36-15.37,15.36c-0.23,0-0.47,0-0.71-0.02v23.73c0,22.22,27.95,48.39,40.39,48.39c5.81,0,15.91-6.54,24.55-15.86
					c8.17-8.81,15.04-20.08,15.77-30.67c0.05-0.62,0.07-1.24,0.07-1.86V64.82C137.4,64.84,137.16,64.84,136.93,64.84z M131.9,88.55
					c0,4.3-1.36,9.11-4.03,14.29c-2.48,4.8-6.03,9.75-10.28,14.34c-8.87,9.56-17.38,14.02-20.34,14.02
					c-3.23,0-11.77-4.34-20.63-14.01C67.84,107.62,62.6,96.9,62.6,88.55V69.98c7.81-1.91,13.93-8.19,15.62-16.08h38.06
					c0.33,1.53,0.83,3,1.47,4.39c2.66,5.77,7.86,10.15,14.15,11.69V88.55z"/>
			</g>
		</g>
	</g>
</g>
</svg>
