<?xml version="1.0" encoding="utf-8"?>
<!-- Generator: Adobe Illustrator 23.1.1, SVG Export Plug-In . SVG Version: 6.00 Build 0)  -->
<svg version="1.1" id="Layer_1" xmlns="http://www.w3.org/2000/svg" xmlns:xlink="http://www.w3.org/1999/xlink" x="0px" y="0px"
	 viewBox="0 0 240 150" style="enable-background:new 0 0 240 150;" xml:space="preserve">
<style type="text/css">
	.st0{fill:url(#SVGID_1_);}
	.st1{fill:url(#SVGID_2_);}
	.st2{fill:url(#SVGID_3_);}
	.st3{fill:url(#SVGID_4_);}
</style>
<g>
	<linearGradient id="SVGID_1_" gradientUnits="userSpaceOnUse" x1="72.4269" y1="116.9142" x2="119.135" y2="116.9142">
		<stop  offset="0" style="stop-color:#ED7F22"/>
		<stop  offset="1" style="stop-color:#F19549"/>
	</linearGradient>
	<path class="st0" d="M104.43,89.75c-0.83-0.85-2-1.34-3.19-1.34l-8.43,0.08c-3.69,0-7.16-1.44-9.76-4.07
		c-0.19-0.19-0.36-0.4-0.54-0.6l-10.01,55.36c-0.75,4.15,3.89,7.14,7.36,4.73l9.3-6.45c2.15-1.49,5.1-0.96,6.59,1.19l6.45,9.3
		c2.4,3.47,7.8,2.29,8.55-1.86l8.39-46.39c-3.39-0.21-6.53-1.63-8.93-4.07L104.43,89.75z"/>
	<linearGradient id="SVGID_2_" gradientUnits="userSpaceOnUse" x1="120.4821" y1="117.102" x2="167.1866" y2="117.102">
		<stop  offset="0" style="stop-color:#ED7F22"/>
		<stop  offset="1" style="stop-color:#F19549"/>
	</linearGradient>
	<path class="st1" d="M157.16,84.2c-0.07,0.07-0.13,0.15-0.2,0.22c-2.6,2.62-6.06,4.07-9.75,4.07c0,0-8.39-0.08-8.39-0.08
		c-1.23,0-2.4,0.49-3.23,1.34l-5.78,5.89c-2.49,2.54-5.79,3.97-9.33,4.09l8.38,46.37c0.75,4.15,6.14,5.32,8.55,1.86l6.45-9.3
		c1.49-2.15,4.44-2.68,6.59-1.19l9.3,6.45c3.47,2.4,8.11-0.58,7.36-4.73L157.16,84.2z"/>
	<linearGradient id="SVGID_3_" gradientUnits="userSpaceOnUse" x1="72.4463" y1="47.5634" x2="167.5731" y2="47.5634">
		<stop  offset="0" style="stop-color:#ED7F22"/>
		<stop  offset="1" style="stop-color:#F19549"/>
	</linearGradient>
	<path class="st2" d="M132.29,86.51c1.73-1.77,4.11-2.75,6.58-2.73l8.25,0.08c5.09,0.05,9.23-4.09,9.19-9.19l-0.08-8.25
		c-0.02-2.47,0.96-4.85,2.73-6.58l5.89-5.78c3.64-3.57,3.64-9.42,0-12.99l-5.89-5.78c-1.77-1.73-2.75-4.11-2.73-6.58l0.08-8.25
		c0.05-5.09-4.09-9.23-9.19-9.19l-8.25,0.08c-2.47,0.02-4.85-0.96-6.58-2.73l-5.78-5.89c-3.57-3.64-9.42-3.64-12.99,0l-5.78,5.89
		c-1.73,1.77-4.11,2.75-6.58,2.73l-8.25-0.08c-5.09-0.05-9.23,4.09-9.19,9.19l0.08,8.25c0.02,2.47-0.96,4.85-2.73,6.58l-5.89,5.78
		c-3.64,3.57-3.64,9.42,0,12.99l5.89,5.78c1.77,1.73,2.75,4.11,2.73,6.58l-0.08,8.25c-0.05,5.09,4.09,9.23,9.19,9.19l8.25-0.08
		c2.47-0.02,4.85,0.96,6.58,2.73l5.78,5.89c3.57,3.64,9.42,3.64,12.99,0L132.29,86.51z M117.81,81.12
		c-16.88-1.07-30.59-14.77-31.65-31.65c-1.29-20.47,15.59-37.35,36.06-36.06c16.88,1.07,30.59,14.77,31.65,31.65
		C155.16,65.53,138.28,82.41,117.81,81.12z"/>
	<linearGradient id="SVGID_4_" gradientUnits="userSpaceOnUse" x1="90.7249" y1="47.261" x2="149.2945" y2="47.261">
		<stop  offset="0" style="stop-color:#ED7F22"/>
		<stop  offset="1" style="stop-color:#F19549"/>
	</linearGradient>
	<path class="st3" d="M149.23,45.36c-0.92-14.57-12.75-26.4-27.32-27.32c-17.67-1.12-32.24,13.45-31.13,31.13
		c0.92,14.57,12.75,26.4,27.32,27.32C135.78,77.6,150.35,63.03,149.23,45.36z"/>
</g>
</svg>
