<?xml version="1.0" encoding="utf-8"?>
<!-- Generator: Adobe Illustrator 23.1.1, SVG Export Plug-In . SVG Version: 6.00 Build 0)  -->
<svg version="1.1" id="Layer_15" xmlns="http://www.w3.org/2000/svg" xmlns:xlink="http://www.w3.org/1999/xlink" x="0px" y="0px"
	 viewBox="0 0 240 150" style="enable-background:new 0 0 240 150;" xml:space="preserve">
<style type="text/css">
	.st0{fill:url(#SVGID_1_);}
	.st1{fill:url(#SVGID_2_);}
	.st2{fill:url(#SVGID_3_);}
	.st3{fill:url(#SVGID_4_);}
</style>
<g>
	<linearGradient id="SVGID_1_" gradientUnits="userSpaceOnUse" x1="63.0524" y1="42.9392" x2="112.8458" y2="42.9392">
		<stop  offset="0" style="stop-color:#ED7F22"/>
		<stop  offset="1" style="stop-color:#F19549"/>
	</linearGradient>
	<path class="st0" d="M76.36,37.22c0.37,0.09,0.71,0.28,0.97,0.55l30.07,30.07l5.44-5.44L82.78,32.33
		c-0.27-0.27-0.46-0.61-0.56-0.98l-1.36-5.41c-0.34-1.36-1.22-2.52-2.44-3.22l-6.87-3.93c-2.23-1.27-5.03-0.9-6.84,0.92l0,0
		c-1.81,1.81-2.19,4.62-0.92,6.84l3.93,6.87c0.7,1.22,1.86,2.1,3.22,2.44L76.36,37.22z"/>
	<linearGradient id="SVGID_2_" gradientUnits="userSpaceOnUse" x1="161.6783" y1="125.295" x2="178.9228" y2="125.295">
		<stop  offset="0" style="stop-color:#ED7F22"/>
		<stop  offset="1" style="stop-color:#F19549"/>
	</linearGradient>
	<path class="st1" d="M161.68,133.1c4.69,1.76,9.97,0.62,13.51-2.92c3.54-3.54,4.68-8.82,2.92-13.51L161.68,133.1z"/>
	<linearGradient id="SVGID_3_" gradientUnits="userSpaceOnUse" x1="120.898" y1="103.3963" x2="175.9151" y2="103.3963">
		<stop  offset="0" style="stop-color:#ED7F22"/>
		<stop  offset="1" style="stop-color:#F19549"/>
	</linearGradient>
	<path class="st2" d="M175.19,112.12l-20.41-20.42c-1.56-1.56-3.8-2.34-5.95-1.85c-2.14,0.5-4.47-0.1-6.13-1.75
		c-1.66-1.65-2.25-3.99-1.76-6.13c0.5-2.14-0.29-4.38-1.84-5.94l-0.14-0.14L120.9,93.95l0.15,0.15c1.56,1.56,3.8,2.34,5.95,1.84
		c2.14-0.5,4.48,0.1,6.13,1.75c1.66,1.65,2.25,3.99,1.76,6.14c-0.5,2.14,0.29,4.38,1.84,5.94l20.4,20.41
		c0.26,0.26,0.53,0.5,0.8,0.73l17.99-17.99C175.68,112.64,175.44,112.37,175.19,112.12z"/>
	<linearGradient id="SVGID_4_" gradientUnits="userSpaceOnUse" x1="57.5" y1="75" x2="182.5" y2="75">
		<stop  offset="0" style="stop-color:#ED7F22"/>
		<stop  offset="1" style="stop-color:#F19549"/>
	</linearGradient>
	<path class="st3" d="M176.19,49.24c4.46-4.46,6.55-10.39,6.28-16.24c-0.11-2.41-3.08-3.5-4.79-1.8l-7.61,7.61
		c-3.83,3.83-10.1,3.83-13.93,0h0c-3.83-3.83-3.83-10.1,0-13.93l7.61-7.61c2.41-2.41,1.6-4.63-1.8-4.79
		c-6.72-0.31-13.56,2.51-18.14,8.46c-3.98,5.16-5.01,12.89-3.19,19.46l0.06,0.11l-7.3,7.3l-0.05-0.05l-47.7,47.7
		c-7.44-2.38-15.91-0.62-21.82,5.29c-4.46,4.46-6.55,10.39-6.28,16.23c0.11,2.41,3.08,3.5,4.79,1.8l7.61-7.61
		c3.83-3.83,10.1-3.83,13.93,0h0c3.83,3.83,3.83,10.1,0,13.93l-7.61,7.61c-2.41,2.41-1.6,4.63,1.8,4.79
		c6.72,0.31,13.56-2.51,18.14-8.46c3.98-5.16,5.01-12.89,3.19-19.46l-0.06-0.11l7.3-7.3l0.05,0.05l47.7-47.7
		C161.82,56.9,170.29,55.14,176.19,49.24z"/>
</g>
</svg>
