<?xml version="1.0" encoding="utf-8"?>
<!-- Generator: Adobe Illustrator 23.1.1, SVG Export Plug-In . SVG Version: 6.00 Build 0)  -->
<svg version="1.1" id="Layer_8" xmlns="http://www.w3.org/2000/svg" xmlns:xlink="http://www.w3.org/1999/xlink" x="0px" y="0px"
	 viewBox="0 0 240 150" style="enable-background:new 0 0 240 150;" xml:space="preserve">
<style type="text/css">
	.st0{fill:url(#SVGID_1_);}
	.st1{fill:url(#SVGID_2_);}
	.st2{fill:url(#SVGID_3_);}
	.st3{fill:url(#SVGID_4_);}
	.st4{fill:url(#SVGID_5_);}
	.st5{fill:url(#SVGID_6_);}
	.st6{fill:url(#SVGID_7_);}
	.st7{fill:url(#SVGID_8_);}
	.st8{fill:url(#SVGID_9_);}
	.st9{fill:url(#SVGID_10_);}
</style>
<g>
	<linearGradient id="SVGID_1_" gradientUnits="userSpaceOnUse" x1="170.4077" y1="109.6167" x2="172.9077" y2="109.6167">
		<stop  offset="0" style="stop-color:#ED7F22"/>
		<stop  offset="1" style="stop-color:#F19549"/>
	</linearGradient>
	<path class="st0" d="M171.66,103.02c-0.69,0-1.25,0.56-1.25,1.25v10.7c0,0.69,0.56,1.25,1.25,1.25s1.25-0.56,1.25-1.25v-10.7
		C172.91,103.58,172.35,103.02,171.66,103.02z"/>
	<linearGradient id="SVGID_2_" gradientUnits="userSpaceOnUse" x1="170.4077" y1="39.6108" x2="172.9077" y2="39.6108">
		<stop  offset="0" style="stop-color:#ED7F22"/>
		<stop  offset="1" style="stop-color:#F19549"/>
	</linearGradient>
	<path class="st1" d="M172.91,34.26c0-0.69-0.56-1.25-1.25-1.25s-1.25,0.56-1.25,1.25v10.7c0,0.69,0.56,1.25,1.25,1.25
		s1.25-0.56,1.25-1.25V34.26z"/>
	<linearGradient id="SVGID_3_" gradientUnits="userSpaceOnUse" x1="170.4077" y1="57.1118" x2="172.9077" y2="57.1118">
		<stop  offset="0" style="stop-color:#ED7F22"/>
		<stop  offset="1" style="stop-color:#F19549"/>
	</linearGradient>
	<path class="st2" d="M172.91,51.76c0-0.69-0.56-1.25-1.25-1.25s-1.25,0.56-1.25,1.25v10.7c0,0.69,0.56,1.25,1.25,1.25
		s1.25-0.56,1.25-1.25V51.76z"/>
	<linearGradient id="SVGID_4_" gradientUnits="userSpaceOnUse" x1="170.4077" y1="74.6138" x2="172.9077" y2="74.6138">
		<stop  offset="0" style="stop-color:#ED7F22"/>
		<stop  offset="1" style="stop-color:#F19549"/>
	</linearGradient>
	<path class="st3" d="M172.91,69.27c0-0.69-0.56-1.25-1.25-1.25s-1.25,0.56-1.25,1.25v10.7c0,0.69,0.56,1.25,1.25,1.25
		s1.25-0.56,1.25-1.25V69.27z"/>
	<linearGradient id="SVGID_5_" gradientUnits="userSpaceOnUse" x1="170.4077" y1="92.1147" x2="172.9077" y2="92.1147">
		<stop  offset="0" style="stop-color:#ED7F22"/>
		<stop  offset="1" style="stop-color:#F19549"/>
	</linearGradient>
	<path class="st4" d="M172.91,86.77c0-0.69-0.56-1.25-1.25-1.25s-1.25,0.56-1.25,1.25v10.7c0,0.69,0.56,1.25,1.25,1.25
		s1.25-0.56,1.25-1.25V86.77z"/>
	<linearGradient id="SVGID_6_" gradientUnits="userSpaceOnUse" x1="163.3491" y1="24.4028" x2="179.9673" y2="24.4028">
		<stop  offset="0" style="stop-color:#ED7F22"/>
		<stop  offset="1" style="stop-color:#F19549"/>
	</linearGradient>
	<path class="st5" d="M164.6,22.6h5.81v4.86c0,0.69,0.56,1.25,1.25,1.25s1.25-0.56,1.25-1.25V22.6h5.81c0.69,0,1.25-0.56,1.25-1.25
		s-0.56-1.25-1.25-1.25H164.6c-0.69,0-1.25,0.56-1.25,1.25S163.91,22.6,164.6,22.6z"/>
	<linearGradient id="SVGID_7_" gradientUnits="userSpaceOnUse" x1="163.3491" y1="125.2109" x2="179.9673" y2="125.2109">
		<stop  offset="0" style="stop-color:#ED7F22"/>
		<stop  offset="1" style="stop-color:#F19549"/>
	</linearGradient>
	<path class="st6" d="M178.72,127.4h-5.84c0-0.04,0.03-0.08,0.03-0.13v-5.5c0-0.69-0.56-1.25-1.25-1.25s-1.25,0.56-1.25,1.25v5.5
		c0,0.05,0.02,0.09,0.03,0.13h-5.83c-0.69,0-1.25,0.56-1.25,1.25s0.56,1.25,1.25,1.25h14.12c0.69,0,1.25-0.56,1.25-1.25
		S179.41,127.4,178.72,127.4z"/>
	<linearGradient id="SVGID_8_" gradientUnits="userSpaceOnUse" x1="112.2127" y1="76.3109" x2="156.6328" y2="76.3109">
		<stop  offset="0" style="stop-color:#ED7F22"/>
		<stop  offset="1" style="stop-color:#F19549"/>
	</linearGradient>
	<path class="st7" d="M151.64,23.97h-34.43c-2.76,0-5,2.24-5,5v21.7h10.5c6.62,0,12,5.38,12,12v60.98c0,1.78-0.39,3.48-1.09,5h18.02
		c2.76,0,4.99-2.24,4.99-5V28.97C156.63,26.21,154.4,23.97,151.64,23.97z"/>
	<linearGradient id="SVGID_9_" gradientUnits="userSpaceOnUse" x1="75.8528" y1="93.1609" x2="127.7127" y2="93.1609">
		<stop  offset="0" style="stop-color:#ED7F22"/>
		<stop  offset="1" style="stop-color:#F19549"/>
	</linearGradient>
	<path class="st8" d="M122.71,57.67h-10.5H80.85c-2.76,0-5,2.24-5,5v18.88h19.29c6.61,0,11.99,5.38,11.99,11.99v30.11
		c0,1.78-0.39,3.48-1.09,5h11.17h5.5c2.76,0,5-2.24,5-5V62.67C127.71,59.91,125.47,57.67,122.71,57.67z"/>
	<linearGradient id="SVGID_10_" gradientUnits="userSpaceOnUse" x1="60.0327" y1="108.6009" x2="100.1328" y2="108.6009">
		<stop  offset="0" style="stop-color:#ED7F22"/>
		<stop  offset="1" style="stop-color:#F19549"/>
	</linearGradient>
	<path class="st9" d="M95.14,88.55H75.85h-3.5h-3.5h-3.82c-2.76,0-5,2.24-5,4.99v30.11c0,2.76,2.24,5,5,5h4.92h4.03h6.87h14.29
		c2.76,0,4.99-2.24,4.99-5V93.54C100.13,90.79,97.9,88.55,95.14,88.55z"/>
</g>
</svg>
