<?xml version="1.0" encoding="utf-8"?>
<!-- Generator: Adobe Illustrator 23.1.1, SVG Export Plug-In . SVG Version: 6.00 Build 0)  -->
<svg version="1.1" id="Layer_12" xmlns="http://www.w3.org/2000/svg" xmlns:xlink="http://www.w3.org/1999/xlink" x="0px" y="0px"
	 viewBox="0 0 240 150" style="enable-background:new 0 0 240 150;" xml:space="preserve">
<style type="text/css">
	.st0{fill:url(#SVGID_1_);}
	.st1{fill:url(#SVGID_2_);}
	.st2{fill:url(#SVGID_3_);}
	.st3{fill:url(#SVGID_4_);}
	.st4{fill:url(#SVGID_5_);}
	.st5{fill:url(#SVGID_6_);}
	.st6{fill:url(#SVGID_7_);}
	.st7{fill:url(#SVGID_8_);}
	.st8{fill:url(#SVGID_9_);}
</style>
<g>
	<linearGradient id="SVGID_1_" gradientUnits="userSpaceOnUse" x1="69.8313" y1="129.6518" x2="109.0111" y2="129.6518">
		<stop  offset="0" style="stop-color:#ED7F22"/>
		<stop  offset="1" style="stop-color:#F19549"/>
	</linearGradient>
	<path class="st0" d="M109.01,119.34v19.7c0,3.04-2.45,5.5-5.49,5.5H69.83c0.51-0.28,1-0.57,1.49-0.86
		c1.32-0.81,2.74-1.73,4.13-2.88c3.48-2.9,6.96-5.8,10.43-8.68l3.95-3.28l3.47-2.88c3.94-3.28,7.88-6.56,11.83-9.82
		c0.5-0.42,0.97-0.86,1.41-1.36C108.03,115.74,109.01,117.43,109.01,119.34z"/>
	<g>
		<linearGradient id="SVGID_2_" gradientUnits="userSpaceOnUse" x1="38.4544" y1="53.2937" x2="109.0111" y2="53.2937">
			<stop  offset="0" style="stop-color:#ED7F22"/>
			<stop  offset="1" style="stop-color:#F19549"/>
		</linearGradient>
		<path class="st1" d="M109.01,43.44v19.7c0,3.04-2.45,5.49-5.49,5.49H91.37c-1.59-1.83-3.81-3.16-6.46-3.72
			c-0.74-0.15-1.46-0.23-2.2-0.23c-2.52,0-4.92,0.89-6.96,2.59l-1.64,1.36H43.94c-3.04,0-5.49-2.45-5.49-5.49v-19.7
			c0-3.04,2.45-5.49,5.49-5.49h59.58C106.56,37.95,109.01,40.41,109.01,43.44z"/>
		<linearGradient id="SVGID_3_" gradientUnits="userSpaceOnUse" x1="115.4262" y1="53.2929" x2="185.9855" y2="53.2929">
			<stop  offset="0" style="stop-color:#ED7F22"/>
			<stop  offset="1" style="stop-color:#F19549"/>
		</linearGradient>
		<path class="st2" d="M181.66,37.95h-61.91c-2.39,0-4.32,1.94-4.32,4.32v22.04c0,2.39,1.94,4.32,4.32,4.32h61.91
			c2.39,0,4.32-1.94,4.32-4.32V42.27C185.99,39.89,184.05,37.95,181.66,37.95z"/>
	</g>
	<g>
		<linearGradient id="SVGID_4_" gradientUnits="userSpaceOnUse" x1="38.4488" y1="15.3489" x2="70.5281" y2="15.3489">
			<stop  offset="0" style="stop-color:#ED7F22"/>
			<stop  offset="1" style="stop-color:#F19549"/>
		</linearGradient>
		<path class="st3" d="M70.53,5.1v20.48c0,2.82-2.29,5.11-5.1,5.11H43.88c-3,0-5.43-2.43-5.43-5.43V5.43c0-3,2.43-5.43,5.43-5.43
			h21.55C68.25,0.01,70.53,2.29,70.53,5.1z"/>
		<linearGradient id="SVGID_5_" gradientUnits="userSpaceOnUse" x1="76.94" y1="15.3433" x2="147.4993" y2="15.3433">
			<stop  offset="0" style="stop-color:#ED7F22"/>
			<stop  offset="1" style="stop-color:#F19549"/>
		</linearGradient>
		<path class="st4" d="M143.18,0H81.26c-2.39,0-4.32,1.94-4.32,4.32v22.04c0,2.39,1.94,4.32,4.32,4.32h61.91
			c2.39,0,4.32-1.94,4.32-4.32V4.32C147.5,1.94,145.56,0,143.18,0z"/>
		<linearGradient id="SVGID_6_" gradientUnits="userSpaceOnUse" x1="153.9129" y1="15.3489" x2="185.9805" y2="15.3489">
			<stop  offset="0" style="stop-color:#ED7F22"/>
			<stop  offset="1" style="stop-color:#F19549"/>
		</linearGradient>
		<path class="st5" d="M185.98,5.43v19.83c0,3-2.43,5.43-5.43,5.43h-21.54c-2.82,0-5.1-2.28-5.1-5.1V5.1c0-2.82,2.28-5.1,5.1-5.1
			h21.54C183.55,0.01,185.98,2.44,185.98,5.43z"/>
	</g>
	<g id="_x38_qwmVC.tif_1_">
		<g>
			<g>
				<linearGradient id="SVGID_7_" gradientUnits="userSpaceOnUse" x1="31.8784" y1="106.586" x2="102.411" y2="106.586">
					<stop  offset="0" style="stop-color:#ED7F22"/>
					<stop  offset="1" style="stop-color:#F19549"/>
				</linearGradient>
				<path class="st6" d="M102.22,105.83c0.11,0.25,0.17,0.51,0.18,0.75c0.03,0.71-0.32,1.35-0.69,1.97
					c-0.38,0.64-0.85,1.22-1.45,1.7c-1.45,1.19-2.88,2.4-4.33,3.6c-3.66,3.04-7.32,6.09-10.98,9.12
					c-4.79,3.98-9.59,7.97-14.39,11.96c-1.02,0.85-2.13,1.56-3.27,2.26c-1.25,0.76-2.55,1.41-3.89,2c-2.21,0.95-4.55,1.51-6.94,1.65
					c-0.32,0.01-0.62,0.03-0.93,0.03c-1.23,0-2.47-0.14-3.69-0.37c-1.26-0.24-2.45-0.64-3.6-1.12c-1.11-0.44-2.13-1.08-3.13-1.73
					c-0.94-0.62-1.84-1.32-2.67-2.08c-0.75-0.7-1.54-1.37-2.15-2.22c-0.23-0.33-0.44-0.74-0.9-0.86c-0.1-0.03-0.22-0.15-0.24-0.27
					c-0.13-0.46-0.42-0.81-0.72-1.14c-0.18-0.2-0.37-0.41-0.52-0.62c-0.69-0.93-1.45-1.8-2.05-2.78c-1.13-1.82-2.19-3.69-2.88-5.73
					c-0.72-2.08-1.18-4.21-1.12-6.42c0.01-0.79-0.03-1.59,0.1-2.36c0.2-1.27,0.38-2.55,0.67-3.81c0.37-1.61,0.78-3.2,1.28-4.78
					c0.5-1.54,1.04-3.05,1.59-4.58c0.57-1.6,1.16-3.2,1.75-4.8c0.38-1,0.76-2.01,1.17-3.01c0.04-0.11,0.09-0.22,0.13-0.33
					c0.53-1.33,1.11-2.66,1.64-3.98c0.72-1.75,1.39-3.52,2.15-5.25c0.58-1.33,1.59-2.24,3.1-2.45c0.18-0.04,0.36-0.05,0.53-0.05
					c0.69,0,1.32,0.22,1.93,0.64c1.36,0.95,1.82,2.3,1.63,3.85c-0.15,1.33-0.48,2.66-0.76,3.99c-0.25,1.19-0.55,2.39-0.83,3.58
					c-0.31,1.28-0.57,2.58-0.94,3.84c-0.22,0.78-0.01,1.44,0.29,2.07c0.2,0.44,0.95,0.78,1.54,0.78c0.09,0,0.19-0.01,0.28-0.04
					c0.53-0.11,1-0.34,1.44-0.7c4.24-3.55,8.5-7.08,12.76-10.62c2.4-1.98,4.8-3.98,7.19-5.97c3.37-2.8,6.74-5.59,10.09-8.39
					c0.62-0.51,1.33-0.83,2.1-0.83c0.19,0,0.39,0.01,0.6,0.06c1.77,0.38,3.13,1.58,3.15,3.53c0,0.13,0,0.27-0.01,0.41
					c-0.09,1.22-0.7,2.1-1.58,2.82c-2.64,2.21-5.29,4.41-7.94,6.61c-2.13,1.78-4.27,3.55-6.4,5.32c-0.2,0.17-0.39,0.33-0.6,0.5
					c-1.16,0.97-2.31,1.91-3.46,2.87c-0.7,0.6-0.92,1.39-0.61,2.17c0.3,0.83,1.02,1.28,1.77,1.28c0.39,0,0.79-0.11,1.16-0.37
					c0.18-0.13,0.33-0.28,0.5-0.42c0.42-0.34,0.83-0.69,1.25-1.03c2.13-1.78,4.27-3.55,6.4-5.32c4.91-4.08,9.81-8.16,14.72-12.23
					c0.83-0.69,1.78-1.08,2.83-1.08c0.11,0,0.22,0.01,0.33,0.01c0.88,0.08,1.61,0.41,2.15,1.16c0.24,0.34,0.56,0.65,0.75,1.03
					c0.72,1.4-0.03,3.43-1.02,4.26c-6.61,5.45-13.18,10.93-19.76,16.41c-0.94,0.78-1.88,1.55-2.82,2.34
					c-0.38,0.33-0.78,0.7-1.03,1.13c-0.18,0.3-0.29,0.79-0.19,1.13c0.27,0.91,0.98,1.72,1.92,1.72c0.24,0,0.51-0.06,0.79-0.18
					c0.39-0.18,0.74-0.41,1.05-0.67c0.5-0.42,1-0.83,1.5-1.25c6.14-5.08,12.26-10.19,18.4-15.29c0.64-0.52,1.33-0.86,2.13-0.86
					c0.17,0,0.34,0.01,0.52,0.04c0.79,0.15,1.49,0.48,2.02,1.09c0.34,0.41,0.69,0.81,0.92,1.33c0.56,1.28,0.17,2.34-0.62,3.33
					c-0.37,0.46-0.88,0.83-1.25,1.3c-0.86,1.13-2.05,1.91-3.11,2.8c-3.33,2.78-6.66,5.55-10,8.32c-2.45,2.03-4.89,4.07-7.35,6.1
					c-0.11,0.1-0.23,0.2-0.36,0.29c-0.36,0.28-0.58,0.58-0.71,0.88c-0.32,0.7-0.06,1.39,0.5,2.01c0.32,0.37,0.83,0.56,1.36,0.56
					c0.41,0,0.84-0.13,1.19-0.37c0.18-0.13,0.33-0.28,0.5-0.41c0.71-0.6,1.44-1.19,2.15-1.79c2.92-2.43,5.83-4.85,8.76-7.27
					c0.67-0.56,1.33-1.11,2.01-1.66c0.84-0.69,1.78-1.25,2.8-1.59c0.37-0.11,0.7-0.18,1.02-0.18c1.27,0,2.24,0.86,2.86,1.86
					C102.03,105.26,102.11,105.55,102.22,105.83z"/>
			</g>
		</g>
	</g>
	<linearGradient id="SVGID_8_" gradientUnits="userSpaceOnUse" x1="104.3599" y1="110.2187" x2="142.1662" y2="110.2187">
		<stop  offset="0" style="stop-color:#ED7F22"/>
		<stop  offset="1" style="stop-color:#F19549"/>
	</linearGradient>
	<path class="st7" d="M142.17,75.92c-0.06,0-0.11-0.02-0.16-0.02h-37.64c0.04,0.06,0.08,0.14,0.11,0.22
		c1.16,2.24,1.37,4.65,0.94,6.9c0.58,0.44,1.12,0.95,1.59,1.51c0.51,0.58,1.44,1.66,2.12,3.24c1.64,3.72,1.04,7.79-1.64,11.15
		c-0.11,0.14-0.23,0.28-0.34,0.41c0.43,0.51,0.84,1.07,1.22,1.66c0.5,0.81,0.78,1.55,0.9,1.89l0.01,0.04
		c0.51,1.19,0.75,2.43,0.75,3.66h11.2C123.36,93.54,131.23,82.43,142.17,75.92z M120.03,113.85c-2.54,0-4.61,2.06-4.61,4.61v21.47
		c0,2.54,2.06,4.61,4.61,4.61h13.21c-7.77-7.91-12.57-18.73-12.6-30.69H120.03z"/>
	<linearGradient id="SVGID_9_" gradientUnits="userSpaceOnUse" x1="128.3496" y1="113.7305" x2="200.8884" y2="113.7305">
		<stop  offset="0" style="stop-color:#ED7F22"/>
		<stop  offset="1" style="stop-color:#F19549"/>
	</linearGradient>
	<path class="st8" d="M164.62,77.46c-20.03,0-36.27,16.24-36.27,36.27S144.59,150,164.62,150c20.03,0,36.27-16.24,36.27-36.27
		S184.65,77.46,164.62,77.46z M167.03,133.55l0.01,3.61c0,2.18-1.77,3.95-3.95,3.95s-3.95-1.77-3.95-3.95l-0.01-3.53
		c-3.55-0.56-6.82-1.82-8.61-3.18c-1.14-0.84-1.92-1.92-1.86-3.29c0.06-2.27,1.97-3.89,3.89-3.83c0.36,0,1.14,0.12,1.8,0.48
		c2.39,1.26,4.91,2.57,8.56,2.69c4.61,0.18,7.06-1.68,7.06-3.89c0-6.94-21.67-2.99-21.66-17.6c-0.01-6.94,4.85-10.72,10.77-11.85
		l0-3.59c0-2.18,1.77-3.95,3.95-3.95s3.95,1.77,3.95,3.95l0,3.66c3.42,0.69,6.72,2.13,8.62,3.46c0.84,0.6,1.8,1.56,1.74,3.05
		c-0.06,1.92-1.74,3.47-3.53,3.41c-0.54,0-1.2-0.18-1.74-0.48c-3.11-1.68-4.97-2.39-9.22-2.39c-4.14,0-6.4,1.98-6.39,4.3
		c-0.01,7.31,21.71,3.48,21.69,17.49C178.16,128.9,172.94,132.46,167.03,133.55z"/>
</g>
</svg>
