<?xml version="1.0" encoding="utf-8"?>
<!-- Generator: Adobe Illustrator 23.1.1, SVG Export Plug-In . SVG Version: 6.00 Build 0)  -->
<svg version="1.1" id="Layer_17" xmlns="http://www.w3.org/2000/svg" xmlns:xlink="http://www.w3.org/1999/xlink" x="0px" y="0px"
	 viewBox="0 0 240 150" style="enable-background:new 0 0 240 150;" xml:space="preserve">
<style type="text/css">
	.st0{fill:url(#SVGID_1_);}
	.st1{fill:url(#SVGID_2_);}
	.st2{fill:url(#SVGID_3_);}
	.st3{fill:url(#SVGID_4_);}
	.st4{fill:url(#SVGID_5_);}
	.st5{fill:url(#SVGID_6_);}
	.st6{fill:url(#SVGID_7_);}
</style>
<g>
	<linearGradient id="SVGID_1_" gradientUnits="userSpaceOnUse" x1="134.4811" y1="114.2508" x2="191.5608" y2="114.2508">
		<stop  offset="0" style="stop-color:#ED7F22"/>
		<stop  offset="1" style="stop-color:#F19549"/>
	</linearGradient>
	<path class="st0" d="M163.02,85.71c-15.76,0-28.54,12.78-28.54,28.54s12.78,28.54,28.54,28.54c15.76,0,28.54-12.78,28.54-28.54
		S178.78,85.71,163.02,85.71z M177.33,117.94l-11.96,11.96c-1.3,1.3-3.4,1.3-4.7,0l-11.96-11.96c-2.1-2.1-0.61-5.68,2.35-5.68h5.6
		v-11.77c0-1.58,1.29-2.87,2.87-2.87h6.98c1.58,0,2.87,1.29,2.87,2.87v11.77h5.6C177.94,112.27,179.43,115.85,177.33,117.94z"/>
	<linearGradient id="SVGID_2_" gradientUnits="userSpaceOnUse" x1="100.4587" y1="69.4649" x2="123.3385" y2="69.4649">
		<stop  offset="0" style="stop-color:#ED7F22"/>
		<stop  offset="1" style="stop-color:#F19549"/>
	</linearGradient>
	<ellipse class="st1" cx="111.9" cy="69.46" rx="11.44" ry="17.28"/>
	<linearGradient id="SVGID_3_" gradientUnits="userSpaceOnUse" x1="69.5045" y1="79.8648" x2="84.4645" y2="79.8648">
		<stop  offset="0" style="stop-color:#ED7F22"/>
		<stop  offset="1" style="stop-color:#F19549"/>
	</linearGradient>
	<path class="st2" d="M76.98,72.98c-4.45,0-7.48,2.87-7.48,6.88s3.03,6.88,7.48,6.88c4.45,0,7.48-2.87,7.48-6.88
		S81.43,72.98,76.98,72.98z"/>
	<linearGradient id="SVGID_4_" gradientUnits="userSpaceOnUse" x1="139.3784" y1="52.3199" x2="143.0659" y2="52.3199">
		<stop  offset="0" style="stop-color:#ED7F22"/>
		<stop  offset="1" style="stop-color:#F19549"/>
	</linearGradient>
	<path class="st3" d="M141.22,54.24c1.02,0,1.84-0.8,1.84-1.92c0-1.12-0.83-1.92-1.84-1.92s-1.84,0.8-1.84,1.92
		C139.38,53.44,140.2,54.24,141.22,54.24z"/>
	<linearGradient id="SVGID_5_" gradientUnits="userSpaceOnUse" x1="46.818" y1="70.4515" x2="171.818" y2="70.4515">
		<stop  offset="0" style="stop-color:#ED7F22"/>
		<stop  offset="1" style="stop-color:#F19549"/>
	</linearGradient>
	<path class="st4" d="M163.02,80.43c2.7,0,5.32,0.32,7.83,0.92c0.62-3.54,0.97-7.18,0.97-10.9c0-34.52-27.98-62.5-62.5-62.5
		c-34.52,0-62.5,27.98-62.5,62.5s27.98,62.5,62.5,62.5c8.14,0,15.91-1.57,23.05-4.41c-2.03-4.34-3.17-9.18-3.17-14.29
		C129.2,95.57,144.34,80.43,163.02,80.43z M155.05,70.69c-2.91,0-5.27-2.19-5.27-5.27c0-3.08,2.36-5.27,5.27-5.27
		c2.91,0,5.27,2.19,5.27,5.27C160.31,68.5,157.95,70.69,155.05,70.69z M155.81,46.63c0.77-0.85,2.05-1.09,3.09-0.49
		c1.36,0.78,1.66,2.64,0.6,3.81l-19.04,21.15c-0.77,0.85-2.05,1.09-3.09,0.49c-1.36-0.78-1.66-2.64-0.6-3.81L155.81,46.63z
		 M141.22,47.05c2.91,0,5.27,2.19,5.27,5.27c0,3.08-2.36,5.27-5.27,5.27c-2.91,0-5.27-2.19-5.27-5.27
		C135.95,49.24,138.31,47.05,141.22,47.05z M111.9,96.35c-7.7,0-14.33-4.57-18.06-12.13c-1.68,7.02-8.07,12.13-16.85,12.13
		c-10.29,0-17.31-7-17.31-15.88c0-5.13,2.34-9.63,6.3-12.52c-3.06-2.65-4.83-6.47-4.83-10.76c0-8.16,6.42-14.6,15.84-14.6
		c9.36,0,15.75,6.36,15.83,14.45c3.44-8.93,10.63-14.45,19.08-14.45c11.89,0,21.27,10.9,21.27,26.88
		C133.17,85.45,123.79,96.35,111.9,96.35z"/>
	<linearGradient id="SVGID_6_" gradientUnits="userSpaceOnUse" x1="70.9708" y1="57.7847" x2="82.9977" y2="57.7847">
		<stop  offset="0" style="stop-color:#ED7F22"/>
		<stop  offset="1" style="stop-color:#F19549"/>
	</linearGradient>
	<path class="st5" d="M76.98,63.38c3.57,0,6.01-2.33,6.01-5.6s-2.44-5.6-6.01-5.6c-3.58,0-6.01,2.33-6.01,5.6
		S73.41,63.38,76.98,63.38z"/>
	<linearGradient id="SVGID_7_" gradientUnits="userSpaceOnUse" x1="153.2016" y1="65.421" x2="156.8891" y2="65.421">
		<stop  offset="0" style="stop-color:#ED7F22"/>
		<stop  offset="1" style="stop-color:#F19549"/>
	</linearGradient>
	<ellipse class="st6" cx="155.05" cy="65.42" rx="1.84" ry="1.92"/>
</g>
</svg>
