<?xml version="1.0" encoding="utf-8"?>
<!-- Generator: Adobe Illustrator 23.1.1, SVG Export Plug-In . SVG Version: 6.00 Build 0)  -->
<svg version="1.1" id="Layer_1" xmlns="http://www.w3.org/2000/svg" xmlns:xlink="http://www.w3.org/1999/xlink" x="0px" y="0px"
	 viewBox="0 0 240 150" style="enable-background:new 0 0 240 150;" xml:space="preserve">
<style type="text/css">
	.st0{fill:url(#SVGID_1_);}
	.st1{fill:url(#SVGID_2_);}
</style>
<g>
	<linearGradient id="SVGID_1_" gradientUnits="userSpaceOnUse" x1="50" y1="75" x2="190" y2="75">
		<stop  offset="0" style="stop-color:#ED7F22"/>
		<stop  offset="1" style="stop-color:#F19549"/>
	</linearGradient>
	<path class="st0" d="M185.98,65.44l-8.67-8.51c-2.6-2.55-4.05-6.05-4.02-9.68l0.12-12.16c0.07-7.49-6.02-13.58-13.51-13.51
		l-12.16,0.12c-3.63,0.03-7.14-1.41-9.68-4.02l-8.51-8.67c-5.25-5.36-13.86-5.36-19.12,0l-8.51,8.67c-2.55,2.6-6.05,4.05-9.68,4.02
		L80.1,21.59C72.6,21.51,66.51,27.6,66.59,35.1l0.12,12.16c0.03,3.63-1.41,7.14-4.02,9.68l-8.67,8.51c-5.36,5.25-5.36,13.86,0,19.12
		l8.67,8.51c2.6,2.55,4.05,6.05,4.02,9.68l-0.12,12.16c-0.07,7.49,6.02,13.58,13.51,13.51l12.16-0.12c3.63-0.03,7.14,1.41,9.68,4.02
		l8.51,8.67c5.25,5.36,13.86,5.36,19.12,0l8.51-8.67c2.55-2.6,6.05-4.05,9.68-4.02l12.16,0.12c7.49,0.07,13.58-6.02,13.51-13.51
		l-0.12-12.16c-0.03-3.63,1.41-7.14,4.02-9.68l8.67-8.51C191.34,79.3,191.34,70.7,185.98,65.44z M116.75,124.38
		c-24.84-1.57-45-21.74-46.58-46.58c-1.9-30.14,22.93-54.98,53.07-53.07c24.84,1.56,45,21.72,46.58,46.58
		C171.72,101.44,146.89,126.28,116.75,124.38z"/>
	<linearGradient id="SVGID_2_" gradientUnits="userSpaceOnUse" x1="76.9014" y1="74.5577" x2="163.0986" y2="74.5577">
		<stop  offset="0" style="stop-color:#ED7F22"/>
		<stop  offset="1" style="stop-color:#F19549"/>
	</linearGradient>
	<path class="st1" d="M163.01,71.76c-1.35-21.44-18.76-38.85-40.21-40.21c-26.02-1.65-47.46,19.79-45.81,45.8
		c1.35,21.46,18.76,38.87,40.21,40.22C143.22,119.2,164.66,97.76,163.01,71.76z M143.44,69.27l-24.92,24.92
		c-2.52,2.52-6.65,2.52-9.17,0L96.53,81.37c-2.52-2.53-2.52-6.64,0-9.15c2.52-2.53,6.64-2.53,9.17,0l8.23,8.24l20.35-20.34
		c2.52-2.52,6.62-2.52,9.15,0C145.95,62.62,145.95,66.75,143.44,69.27z"/>
</g>
</svg>
