<?xml version="1.0" encoding="utf-8"?>
<!-- Generator: Adobe Illustrator 23.1.1, SVG Export Plug-In . SVG Version: 6.00 Build 0)  -->
<svg version="1.1" id="Layer_5" xmlns="http://www.w3.org/2000/svg" xmlns:xlink="http://www.w3.org/1999/xlink" x="0px" y="0px"
	 viewBox="0 0 240 150" style="enable-background:new 0 0 240 150;" xml:space="preserve">
<style type="text/css">
	.st0{fill:url(#SVGID_1_);}
</style>
<linearGradient id="SVGID_1_" gradientUnits="userSpaceOnUse" x1="52.6092" y1="75" x2="187.3908" y2="75">
	<stop  offset="0" style="stop-color:#ED7F22"/>
	<stop  offset="1" style="stop-color:#F19549"/>
</linearGradient>
<path class="st0" d="M181.7,53.7l-51.3-37.5c-9-7-12-7-21,0L58.3,53.7c-9,7-7.2,20.6,4,20.6h4.6c0,0.5-0.1,0.9-0.1,1.4v52.7
	c0,5.9,4.6,10.7,10.2,10.7H163c5.6,0,10.1-4.8,10.1-10.7V75.7c0-0.5,0-0.9-0.1-1.4h4.6C188.9,74.3,190.6,60.7,181.7,53.7z
	 M140.4,104.4c-9.1,11.8-25.2,15-37.9,8.3c-0.2,0.5-0.5,1-0.7,1.4c-1.2,3.1-2.6,6-3.5,8.6c-1,2.5-1.8,4.6-2.3,6.2
	c-0.6,1.5-0.9,2.4-0.9,2.4s0-0.8,0-2.3c0.1-1.6,0.3-4,0.9-6.9c0.2-1.4,0.6-2.8,1-4.4c0.4-1.5,0.8-3.2,1.4-4.8
	c0.3-0.7,0.5-1.4,0.8-2.1c1-2.6,2-5.4,3.5-8c0.9-1.6,1.9-3.3,2.8-4.9c0.8-1.7,2.1-3,3.1-4.4c1.1-1.4,2.2-2.7,3.2-3.9
	c0.5-0.6,1-1.3,1.5-1.8c0.6-0.5,1.1-1,1.7-1.5c1.9-1.7,3.5-3.1,4.8-4.1c0.4-0.4,0.8-0.9,1.2-1.3c1.2-1.3,1.8-2.2,1.8-2.2
	s-1,0.3-2.7,0.9c-1.7,0.7-4.1,1.7-6.7,3.4c-1.3,0.8-2.8,1.8-4.1,3c-1.3,1.2-2.9,2.4-4.1,4c-1.3,1.5-2.8,2.9-3.8,4.8
	c-1.2,1.7-2.3,3.5-3.3,5.4c-1,1.9-1.8,3.8-2.5,5.8c-0.2,0.4-0.3,0.8-0.4,1.3c-10.6-10.6-11.9-27.8-2.5-40c10.2-13.2,54-20.3,54-20.3
	S150.6,91.2,140.4,104.4z"/>
</svg>
