<?xml version="1.0" encoding="utf-8"?>
<!-- Generator: Adobe Illustrator 23.1.1, SVG Export Plug-In . SVG Version: 6.00 Build 0)  -->
<svg version="1.1" id="Layer_13" xmlns="http://www.w3.org/2000/svg" xmlns:xlink="http://www.w3.org/1999/xlink" x="0px" y="0px"
	 viewBox="0 0 240 150" style="enable-background:new 0 0 240 150;" xml:space="preserve">
<style type="text/css">
	.st0{fill:url(#SVGID_1_);}
	.st1{fill:url(#SVGID_2_);}
	.st2{fill:url(#SVGID_3_);}
	.st3{fill:url(#SVGID_4_);}
	.st4{fill:url(#SVGID_5_);}
	.st5{fill:url(#SVGID_6_);}
	.st6{fill:url(#SVGID_7_);}
	.st7{fill:url(#SVGID_8_);}
	.st8{fill:url(#SVGID_9_);}
	.st9{fill:url(#SVGID_10_);}
	.st10{fill:url(#SVGID_11_);}
	.st11{fill:url(#SVGID_12_);}
	.st12{fill:url(#SVGID_13_);}
	.st13{fill:url(#SVGID_14_);}
	.st14{fill:url(#SVGID_15_);}
	.st15{fill:url(#SVGID_16_);}
	.st16{fill:url(#SVGID_17_);}
</style>
<g>
	<g>
		<g>
			<linearGradient id="SVGID_1_" gradientUnits="userSpaceOnUse" x1="57.6304" y1="75" x2="182.3696" y2="75">
				<stop  offset="0" style="stop-color:#ED7F22"/>
				<stop  offset="1" style="stop-color:#F19549"/>
			</linearGradient>
			<path class="st0" d="M177.87,17.13c-2.49,0-4.5,2.01-4.5,4.5v93.6c0,4.76-3.88,8.64-8.64,8.64H75.27c-4.76,0-8.64-3.88-8.64-8.64
				v-93.6c0-2.49-2.01-4.5-4.5-4.5s-4.5,2.01-4.5,4.5v93.6c0,9.73,7.91,17.64,17.64,17.64h89.46c9.73,0,17.64-7.91,17.64-17.64
				v-93.6C182.37,19.14,180.35,17.13,177.87,17.13z"/>
		</g>
		<g>
			<linearGradient id="SVGID_2_" gradientUnits="userSpaceOnUse" x1="71.5243" y1="110.0734" x2="89.1188" y2="110.0734">
				<stop  offset="0" style="stop-color:#ED7F22"/>
				<stop  offset="1" style="stop-color:#F19549"/>
			</linearGradient>
			<path class="st1" d="M80.32,118.87c4.86,0,8.8-3.94,8.8-8.8c0-4.86-3.94-8.8-8.8-8.8s-8.8,3.94-8.8,8.8
				C71.52,114.93,75.46,118.87,80.32,118.87z"/>
		</g>
		<g>
			<linearGradient id="SVGID_3_" gradientUnits="userSpaceOnUse" x1="91.3635" y1="110.0734" x2="108.9581" y2="110.0734">
				<stop  offset="0" style="stop-color:#ED7F22"/>
				<stop  offset="1" style="stop-color:#F19549"/>
			</linearGradient>
			<path class="st2" d="M100.16,118.87c4.86,0,8.8-3.94,8.8-8.8c0-4.86-3.94-8.8-8.8-8.8s-8.8,3.94-8.8,8.8
				C91.36,114.93,95.3,118.87,100.16,118.87z"/>
		</g>
		<g>
			<linearGradient id="SVGID_4_" gradientUnits="userSpaceOnUse" x1="111.2028" y1="110.0734" x2="128.7973" y2="110.0734">
				<stop  offset="0" style="stop-color:#ED7F22"/>
				<stop  offset="1" style="stop-color:#F19549"/>
			</linearGradient>
			<path class="st3" d="M120,118.87c4.86,0,8.8-3.94,8.8-8.8c0-4.86-3.94-8.8-8.8-8.8s-8.8,3.94-8.8,8.8
				C111.2,114.93,115.14,118.87,120,118.87z"/>
		</g>
		<g>
			<linearGradient id="SVGID_5_" gradientUnits="userSpaceOnUse" x1="131.0421" y1="110.0734" x2="148.6366" y2="110.0734">
				<stop  offset="0" style="stop-color:#ED7F22"/>
				<stop  offset="1" style="stop-color:#F19549"/>
			</linearGradient>
			<path class="st4" d="M139.84,118.87c4.86,0,8.8-3.94,8.8-8.8c0-4.86-3.94-8.8-8.8-8.8s-8.8,3.94-8.8,8.8
				C131.04,114.93,134.98,118.87,139.84,118.87z"/>
		</g>
		<g>
			<linearGradient id="SVGID_6_" gradientUnits="userSpaceOnUse" x1="150.8813" y1="110.0734" x2="168.4758" y2="110.0734">
				<stop  offset="0" style="stop-color:#ED7F22"/>
				<stop  offset="1" style="stop-color:#F19549"/>
			</linearGradient>
			<path class="st5" d="M159.68,118.87c4.86,0,8.8-3.94,8.8-8.8c0-4.86-3.94-8.8-8.8-8.8c-4.86,0-8.8,3.94-8.8,8.8
				C150.88,114.93,154.82,118.87,159.68,118.87z"/>
		</g>
		<g>
			<linearGradient id="SVGID_7_" gradientUnits="userSpaceOnUse" x1="71.5243" y1="89.0118" x2="89.1188" y2="89.0118">
				<stop  offset="0" style="stop-color:#ED7F22"/>
				<stop  offset="1" style="stop-color:#F19549"/>
			</linearGradient>
			<path class="st6" d="M80.32,97.81c4.86,0,8.8-3.94,8.8-8.8c0-4.86-3.94-8.8-8.8-8.8s-8.8,3.94-8.8,8.8
				C71.52,93.87,75.46,97.81,80.32,97.81z"/>
		</g>
		<g>
			<linearGradient id="SVGID_8_" gradientUnits="userSpaceOnUse" x1="91.3635" y1="89.0118" x2="108.9581" y2="89.0118">
				<stop  offset="0" style="stop-color:#ED7F22"/>
				<stop  offset="1" style="stop-color:#F19549"/>
			</linearGradient>
			<path class="st7" d="M100.16,97.81c4.86,0,8.8-3.94,8.8-8.8c0-4.86-3.94-8.8-8.8-8.8s-8.8,3.94-8.8,8.8
				C91.36,93.87,95.3,97.81,100.16,97.81z"/>
		</g>
		<g>
			<linearGradient id="SVGID_9_" gradientUnits="userSpaceOnUse" x1="111.2028" y1="89.0118" x2="128.7973" y2="89.0118">
				<stop  offset="0" style="stop-color:#ED7F22"/>
				<stop  offset="1" style="stop-color:#F19549"/>
			</linearGradient>
			<path class="st8" d="M120,97.81c4.86,0,8.8-3.94,8.8-8.8c0-4.86-3.94-8.8-8.8-8.8s-8.8,3.94-8.8,8.8
				C111.2,93.87,115.14,97.81,120,97.81z"/>
		</g>
		<g>
			<linearGradient id="SVGID_10_" gradientUnits="userSpaceOnUse" x1="131.0421" y1="89.0118" x2="148.6366" y2="89.0118">
				<stop  offset="0" style="stop-color:#ED7F22"/>
				<stop  offset="1" style="stop-color:#F19549"/>
			</linearGradient>
			<path class="st9" d="M139.84,97.81c4.86,0,8.8-3.94,8.8-8.8c0-4.86-3.94-8.8-8.8-8.8s-8.8,3.94-8.8,8.8
				C131.04,93.87,134.98,97.81,139.84,97.81z"/>
		</g>
		<g>
			<linearGradient id="SVGID_11_" gradientUnits="userSpaceOnUse" x1="150.8813" y1="89.0118" x2="168.4758" y2="89.0118">
				<stop  offset="0" style="stop-color:#ED7F22"/>
				<stop  offset="1" style="stop-color:#F19549"/>
			</linearGradient>
			<path class="st10" d="M159.68,97.81c4.86,0,8.8-3.94,8.8-8.8c0-4.86-3.94-8.8-8.8-8.8c-4.86,0-8.8,3.94-8.8,8.8
				C150.88,93.87,154.82,97.81,159.68,97.81z"/>
		</g>
		<g>
			<linearGradient id="SVGID_12_" gradientUnits="userSpaceOnUse" x1="71.5243" y1="67.9503" x2="89.1188" y2="67.9503">
				<stop  offset="0" style="stop-color:#ED7F22"/>
				<stop  offset="1" style="stop-color:#F19549"/>
			</linearGradient>
			<path class="st11" d="M80.32,76.75c4.86,0,8.8-3.94,8.8-8.8c0-4.86-3.94-8.8-8.8-8.8s-8.8,3.94-8.8,8.8
				C71.52,72.81,75.46,76.75,80.32,76.75z"/>
		</g>
		<g>
			<linearGradient id="SVGID_13_" gradientUnits="userSpaceOnUse" x1="91.3635" y1="67.9503" x2="108.9581" y2="67.9503">
				<stop  offset="0" style="stop-color:#ED7F22"/>
				<stop  offset="1" style="stop-color:#F19549"/>
			</linearGradient>
			<path class="st12" d="M100.16,76.75c4.86,0,8.8-3.94,8.8-8.8c0-4.86-3.94-8.8-8.8-8.8s-8.8,3.94-8.8,8.8
				C91.36,72.81,95.3,76.75,100.16,76.75z"/>
		</g>
		<g>
			<linearGradient id="SVGID_14_" gradientUnits="userSpaceOnUse" x1="111.2028" y1="67.9503" x2="128.7973" y2="67.9503">
				<stop  offset="0" style="stop-color:#ED7F22"/>
				<stop  offset="1" style="stop-color:#F19549"/>
			</linearGradient>
			<path class="st13" d="M120,76.75c4.86,0,8.8-3.94,8.8-8.8c0-4.86-3.94-8.8-8.8-8.8s-8.8,3.94-8.8,8.8
				C111.2,72.81,115.14,76.75,120,76.75z"/>
		</g>
		<g>
			<linearGradient id="SVGID_15_" gradientUnits="userSpaceOnUse" x1="131.0421" y1="67.9503" x2="148.6366" y2="67.9503">
				<stop  offset="0" style="stop-color:#ED7F22"/>
				<stop  offset="1" style="stop-color:#F19549"/>
			</linearGradient>
			<path class="st14" d="M139.84,76.75c4.86,0,8.8-3.94,8.8-8.8c0-4.86-3.94-8.8-8.8-8.8s-8.8,3.94-8.8,8.8
				C131.04,72.81,134.98,76.75,139.84,76.75z"/>
		</g>
		<g>
			<linearGradient id="SVGID_16_" gradientUnits="userSpaceOnUse" x1="150.8813" y1="67.9503" x2="168.4758" y2="67.9503">
				<stop  offset="0" style="stop-color:#ED7F22"/>
				<stop  offset="1" style="stop-color:#F19549"/>
			</linearGradient>
			<path class="st15" d="M159.68,76.75c4.86,0,8.8-3.94,8.8-8.8c0-4.86-3.94-8.8-8.8-8.8c-4.86,0-8.8,3.94-8.8,8.8
				C150.88,72.81,154.82,76.75,159.68,76.75z"/>
		</g>
	</g>
	<linearGradient id="SVGID_17_" gradientUnits="userSpaceOnUse" x1="70.5902" y1="50.2757" x2="168.2416" y2="50.2757">
		<stop  offset="0" style="stop-color:#ED7F22"/>
		<stop  offset="1" style="stop-color:#F19549"/>
	</linearGradient>
	<path class="st16" d="M165.74,55.78c-5.37,0-8.16-1.81-10.62-3.4c-2.24-1.45-4.01-2.6-7.91-2.6s-5.67,1.15-7.91,2.6
		c-2.46,1.59-5.25,3.4-10.62,3.4c-5.37,0-8.16-1.81-10.62-3.4c-2.24-1.45-4.01-2.6-7.91-2.6c-3.89,0-5.66,1.15-7.91,2.6
		c-2.46,1.59-5.25,3.4-10.62,3.4c-5.37,0-8.16-1.81-10.62-3.4c-2.24-1.45-4.01-2.6-7.9-2.6c-1.38,0-2.5-1.12-2.5-2.5
		s1.12-2.5,2.5-2.5c5.37,0,8.16,1.81,10.62,3.4c2.24,1.45,4.01,2.6,7.9,2.6c3.89,0,5.67-1.15,7.91-2.6c2.46-1.59,5.25-3.4,10.62-3.4
		s8.16,1.81,10.62,3.4c2.24,1.45,4.01,2.6,7.91,2.6c3.89,0,5.67-1.15,7.91-2.6c2.46-1.59,5.25-3.4,10.62-3.4s8.16,1.81,10.62,3.4
		c2.24,1.45,4.01,2.6,7.91,2.6c1.38,0,2.5,1.12,2.5,2.5S167.12,55.78,165.74,55.78z"/>
</g>
</svg>
