<?xml version="1.0" encoding="utf-8"?>
<!-- Generator: Adobe Illustrator 23.1.1, SVG Export Plug-In . SVG Version: 6.00 Build 0)  -->
<svg version="1.1" id="Layer_5" xmlns="http://www.w3.org/2000/svg" xmlns:xlink="http://www.w3.org/1999/xlink" x="0px" y="0px"
	 viewBox="0 0 240 150" style="enable-background:new 0 0 240 150;" xml:space="preserve">
<style type="text/css">
	.st0{fill:url(#SVGID_1_);}
	.st1{fill:url(#SVGID_2_);}
</style>
<g>
	<linearGradient id="SVGID_1_" gradientUnits="userSpaceOnUse" x1="52.6092" y1="75" x2="187.3908" y2="75">
		<stop  offset="0" style="stop-color:#ED7F22"/>
		<stop  offset="1" style="stop-color:#F19549"/>
	</linearGradient>
	<path class="st0" d="M181.69,53.7l-51.3-37.47c-9-7-12.01-7-20.97,0L58.33,53.7c-9,7-7.17,20.6,3.98,20.6h4.62
		c-0.04,0.45-0.07,0.94-0.07,1.39v52.67c0,5.88,4.59,10.66,10.18,10.66h85.93c5.59,0,10.15-4.78,10.15-10.66V75.7
		c0-0.45-0.04-0.94-0.07-1.39h4.63C188.86,74.3,190.65,60.7,181.69,53.7z M120.27,129.08c-0.01,0-0.02,0-0.03,0
		c-0.02,0.01-0.05,0-0.08,0c-19.66,0-35.66-16-35.66-35.65c0-0.68,0-1.35,0.04-2.02c0.58-20.24,10.55-25.3,10.98-25.51
		c0.57-0.28,1.23-0.26,1.8,0.03c0.56,0.3,0.94,0.84,1.03,1.47c0.02,0.13,1.85,12.22,9.93,13.94c0.03-5.2,0.27-13.08,2.04-20.09
		c2.55-10.07,9.85-20.62,18.6-26.88c0.6-0.44,1.4-0.49,2.06-0.15c0.66,0.34,1.08,1.02,1.08,1.76c0,9.25,4.66,15.52,10.05,22.78
		c5.82,7.84,12.43,16.73,13.52,30.91c0,0,0.2,2.77,0.2,3.76C155.82,113.05,139.88,129.02,120.27,129.08z"/>
	<linearGradient id="SVGID_2_" gradientUnits="userSpaceOnUse" x1="108.2814" y1="91.5486" x2="132.0526" y2="91.5486">
		<stop  offset="0" style="stop-color:#ED7F22"/>
		<stop  offset="1" style="stop-color:#F19549"/>
	</linearGradient>
	<path class="st1" d="M126.92,82.25c-1.6-2.28-3.24-4.61-4.08-7.49c-1.89,2.22-3.39,4.99-4.01,7.59c-0.7,2.94-0.76,6.19-0.76,9.01
		c0,1.09-0.89,1.98-1.98,1.98c-3.34,0-5.39-2.27-6.54-4.74c-0.61,1.34-1.17,3.35-1.25,6.29c-0.02,0.29-0.02,0.53-0.02,0.77
		c0,6.98,5.33,12.66,11.89,12.66c6.55,0,11.89-5.68,11.89-12.66c0-0.37-0.03-0.71-0.05-1.05C131.59,88.88,129.22,85.51,126.92,82.25
		z"/>
</g>
</svg>
