<?xml version="1.0" encoding="utf-8"?>
<!-- Generator: Adobe Illustrator 23.1.1, SVG Export Plug-In . SVG Version: 6.00 Build 0)  -->
<svg version="1.1" xmlns="http://www.w3.org/2000/svg" xmlns:xlink="http://www.w3.org/1999/xlink" x="0px" y="0px"
	 viewBox="0 0 240 150" style="enable-background:new 0 0 240 150;" xml:space="preserve">
<style type="text/css">
	.st0{fill:url(#SVGID_1_);}
	.st1{fill:url(#SVGID_2_);}
	.st2{fill:url(#SVGID_3_);}
	.st3{fill:url(#SVGID_4_);}
	.st4{fill:url(#SVGID_5_);}
	.st5{fill:url(#SVGID_6_);}
	.st6{fill:url(#SVGID_7_);}
	.st7{fill:url(#SVGID_8_);}
</style>
<g id="Layer_1">
</g>
<g id="Layer_2">
	<g>
		
			<linearGradient id="SVGID_1_" gradientUnits="userSpaceOnUse" x1="2885.106" y1="1296.4531" x2="2910.1177" y2="1296.4531" gradientTransform="matrix(0.6186 -0.7857 0.7857 0.6186 -2716.6443 1574.1827)">
			<stop  offset="0" style="stop-color:#ED7F22"/>
			<stop  offset="1" style="stop-color:#F19549"/>
		</linearGradient>
		<path class="st0" d="M80.02,93.98c1.37,1.87,3.7,4.53,6.82,6.18c10.24,1.87,21.78,6.8,27.79,10.15
			c-7.06-0.64-19.99-3.53-29.34-9.38c0,0,0,0,0,0c-1.58-0.86-5.75-3.53-8.45-7.92c-0.06-0.11-0.13-0.21-0.19-0.32
			c-0.05-0.09-0.1-0.17-0.15-0.25c0-0.01,0-0.01,0-0.02c-1.46-2.61-2.02-5.36-1.64-8.23c0.53-4.05,2.49-6.08,6.36-6.58
			c0.9-0.12,1.9-0.14,2.96-0.08c-1.33-1.23-2.81-2.96-4.05-5.26c-1.15,0.17-2.24,0.44-3.25,0.84c-2.93,1.17-6.6,3.91-7.45,10.38
			c-0.53,4.05,0.22,7.89,2.18,11.46c0.67,1.2,1.81,2.97,3.54,4.82c0,0,0,0,0,0c0.29,0.31,0.59,0.62,0.91,0.92
			c0.03,0.03,0.07,0.07,0.1,0.1c2.31,2.22,5.18,4.29,8.6,6.19c8.44,4.66,17.65,6.89,22.39,7.8c5.64,1.09,12.89,1.94,15.41-0.14
			c1.09-0.9,1.49-2.28,1.06-3.6c-1.4-4.29-15.65-10.04-18.49-11.15C99.37,97.62,89.08,94.16,80.02,93.98z"/>
		
			<linearGradient id="SVGID_2_" gradientUnits="userSpaceOnUse" x1="2865.3452" y1="1304.2816" x2="2891.6589" y2="1304.2816" gradientTransform="matrix(0.6186 -0.7857 0.7857 0.6186 -2716.6443 1574.1827)">
			<stop  offset="0" style="stop-color:#ED7F22"/>
			<stop  offset="1" style="stop-color:#F19549"/>
		</linearGradient>
		<path class="st1" d="M74.52,115.58c1.5,1.34,3.71,3.09,6.36,4.47c0.22-0.02,0.43-0.05,0.66-0.07c11.7-1.05,23.82,2.2,30.91,8.17
			c-5.61,0.61-20.47-1.14-31.96-6.76c0,0,0,0,0,0c-0.45-0.22-6.37-2.67-10.03-7.36c0,0,0-0.01,0.01-0.02
			c-1.8-2.32-2.6-4.76-2.35-7.31c0.32-3.32,1.95-5.39,5.11-6.46c-1.24-0.98-2.58-2.39-3.7-4.34c-4.01,2.01-6.39,5.52-6.84,10.28
			c-0.39,4.09,0.86,7.93,3.65,11.41c0,0,0,0,0,0s2.23,2.59,5,4.71c0.01,0,0.01,0,0.02-0.01c3.71,2.73,8.57,5.12,14.5,7.12
			c6.33,2.13,13.57,3.63,19.86,4.12c9.37,0.73,11.83-1.05,12.71-2.17c0.14-0.18,0.24-0.34,0.33-0.48c0.39-0.63,1.45-2.86-1.06-5.35
			c-7.89-7.84-22.61-12.26-36.63-11C78.74,114.75,76.56,115.1,74.52,115.58z"/>
		
			<linearGradient id="SVGID_3_" gradientUnits="userSpaceOnUse" x1="2907.7437" y1="1293.0232" x2="2931.397" y2="1293.0232" gradientTransform="matrix(0.6186 -0.7857 0.7857 0.6186 -2716.6443 1574.1827)">
			<stop  offset="0" style="stop-color:#ED7F22"/>
			<stop  offset="1" style="stop-color:#F19549"/>
		</linearGradient>
		<path class="st2" d="M101.74,82.93c1.68,0.8,3.39,1.69,5.15,2.66c8.75,4.84,14.51,9.6,16.23,11.72
			c-2.75,0.05-11.49-3.65-21.66-12.25c-1.07-0.9-2.08-1.81-3.04-2.71c0,0-0.01,0-0.01,0c-2.41-2.01-6.33-5.76-9-10.49
			c0,0,0-0.01,0-0.01c-2.15-3.49-3.04-6.53-2.41-8.74c0.66-2.27,4.3-2.22,7.24-1.78c0.5,0.08,1.03,0.17,1.57,0.28
			c-0.79-1.55-1.58-3.47-2.26-5.87c-1.02-0.1-2-0.13-2.91-0.09c-6.31,0.26-8.28,3.84-8.88,5.95c-0.59,2.03-0.78,5.44,1.49,10.26
			c0.48,0.98,1.63,3.17,3.64,5.98c0.01,0,0.02,0,0.03,0c1.7,2.27,3.88,4.76,6.67,7.46c5.08,4.92,11.29,9.63,17.05,12.93
			c6.62,3.8,11.59,5.2,14.75,4.18c1.91-0.62,3.21-2.12,3.56-4.13c0.4-2.26-1.38-4.82-5.95-8.55c-6.48-5.28-18.68-12.67-29.81-15.96
			C94.8,76,97.62,79.44,101.74,82.93z"/>
		
			<linearGradient id="SVGID_4_" gradientUnits="userSpaceOnUse" x1="2846.0256" y1="1303.1327" x2="2864.3169" y2="1303.1327" gradientTransform="matrix(0.6186 -0.7857 0.7857 0.6186 -2716.6443 1574.1827)">
			<stop  offset="0" style="stop-color:#ED7F22"/>
			<stop  offset="1" style="stop-color:#F19549"/>
		</linearGradient>
		<path class="st3" d="M59.03,124.91c-2.69,3.85-2.24,7.16-1.39,9.26c1.77,4.37,7.17,8.19,16.06,11.38
			c6.24,2.24,11.96,3.36,12.2,3.4c1.48,0.29,2.91-0.68,3.2-2.16c0.29-1.48-0.68-2.91-2.16-3.2c-8.22-1.6-22.08-6.13-24.24-11.47
			c-0.32-0.8-0.59-2.08,0.81-4.08c1.44-2.06,3.66-3.8,6.49-5.14c-1.5-0.95-3.17-2.23-4.45-3.83
			C62.83,120.66,60.63,122.62,59.03,124.91z"/>
		
			<linearGradient id="SVGID_5_" gradientUnits="userSpaceOnUse" x1="2973.0283" y1="1306.2448" x2="3017.405" y2="1306.2448" gradientTransform="matrix(0.6186 -0.7857 0.7857 0.6186 -2716.6443 1574.1827)">
			<stop  offset="0" style="stop-color:#ED7F22"/>
			<stop  offset="1" style="stop-color:#F19549"/>
		</linearGradient>
		<path class="st4" d="M158.47,1.01c-7.58-0.31-10.63,7.03-11.77,11.43c-0.24,0.92-0.43,1.84-0.59,2.77
			c-0.02-0.01-0.05-0.02-0.07-0.03c-0.21,1.68-0.36,4-0.32,7.14c0.69,14.91,10.25,29.28,16.36,34.39c2.81,2.36,5.24,3.09,7.21,2.18
			c0.93-0.43,2.49-1.59,2.52-4.62c0.13-11.95-8.15-25.31-17.77-33.59c-0.51,2.27-0.59,5.24,0.83,8.42
			c6.14,6.71,11.14,15.58,11.46,24.02c-1.66-1.2-4.43-3.99-7.37-8.59c-3.17-4.95-5.43-10.15-6.67-15.19l0,0c0,0,0-0.01,0-0.01
			c-0.11-0.45-0.21-0.91-0.31-1.36c-0.64-2.87-1.06-5.62-0.7-9.51c-0.01-0.01-0.03-0.02-0.04-0.03c0.11-1.6,0.36-3.15,0.74-4.62
			c1.96-7.52,5.2-7.39,6.27-7.35c3.22,0.13,7.64,3.06,11.84,7.84c3.88,4.42,6.9,9.72,7.51,13.18c0.26,1.48,1.68,2.48,3.16,2.22
			c1.49-0.26,2.48-1.68,2.22-3.16C181.35,17.25,168.87,1.43,158.47,1.01z"/>
		
			<linearGradient id="SVGID_6_" gradientUnits="userSpaceOnUse" x1="2957.7595" y1="1299.275" x2="2994.7976" y2="1299.275" gradientTransform="matrix(0.6186 -0.7857 0.7857 0.6186 -2716.6443 1574.1827)">
			<stop  offset="0" style="stop-color:#ED7F22"/>
			<stop  offset="1" style="stop-color:#F19549"/>
		</linearGradient>
		<path class="st5" d="M134.53,30.27c-0.1,2.29,0.5,5.36,2.82,9.16c6.53,5.98,11.6,13.57,14.57,21.72
			c-2.73-1.97-6.78-5.59-10.81-10.85c-2.44-3.19-5.84-8.31-7.81-14.21c0.02,0.02,0.04,0.04,0.07,0.05c-0.81-2.4-1.41-4.84-1.59-7.56
			c-0.01,0-0.01-0.01-0.02-0.01c-0.09-1.41-0.07-2.83,0.1-4.26c0.35-3.03,1.32-6.46,5.66-6.19c1.69,0.11,3.61,0.72,5.65,1.73
			c-0.28-1.23-0.5-2.87-0.57-5.09c-0.01-0.39,0.01-0.74,0.05-1.06c-1.64-0.58-3.25-0.93-4.77-1.03c-7.45-0.48-10.09,4.87-11.03,8.74
			c-0.01,0.02-1.03,4.3-0.17,10.7c0,0,0.01,0,0.01,0c1.22,7.35,4.81,13.96,8.08,18.73c5.39,7.85,11.97,13.77,16.12,16.15
			c1.11,0.64,4.06,2.34,6.29,0.67c0.57-0.43,1.83-1.69,1.22-4.18c-0.01-0.03-0.02-0.06-0.02-0.09
			C154.35,49,144.53,36.93,134.53,30.27z"/>
		
			<linearGradient id="SVGID_7_" gradientUnits="userSpaceOnUse" x1="2941.762" y1="1294.5472" x2="2974.123" y2="1294.5472" gradientTransform="matrix(0.6186 -0.7857 0.7857 0.6186 -2716.6443 1574.1827)">
			<stop  offset="0" style="stop-color:#ED7F22"/>
			<stop  offset="1" style="stop-color:#F19549"/>
		</linearGradient>
		<path class="st6" d="M115.38,36.39c-0.18,1.98,0.16,4.6,1.77,7.83c3.58,2.82,7.57,6.75,11.69,11.56
			c5.43,6.36,9.41,12.25,11.48,15.92c-4.35-2.47-11.61-7.9-17.76-15.09c-2.59-3.03-5.4-6.88-7.24-10.99
			c-2.08-3.77-3.22-8.49-1.35-12.31c1-2.49,2.93-2.99,4.45-3.12c1.75-0.15,3.82,0.21,6.06,1.02c-0.25-1.19-0.44-2.74-0.5-4.75
			c-0.01-0.4,0-0.77,0.02-1.11c-2.13-0.54-4.17-0.75-6.05-0.59c-5.25,0.46-8.75,3.73-9.77,9.07c0,0,0,0,0,0
			c-0.34,1.9-0.47,4.58,0.21,8.06c0,0.01-0.01,0.01-0.01,0.02c3.46,16.53,24.16,32.75,32.2,35.99c2.85,1.15,4.91,0.95,6.13-0.59
			c1.41-1.8,0.56-4.27-1.29-7.67C141.98,63.3,128.09,43.54,115.38,36.39z"/>
		
			<linearGradient id="SVGID_8_" gradientUnits="userSpaceOnUse" x1="2924.438" y1="1293.0647" x2="2955.8398" y2="1293.0647" gradientTransform="matrix(0.6186 -0.7857 0.7857 0.6186 -2716.6443 1574.1827)">
			<stop  offset="0" style="stop-color:#ED7F22"/>
			<stop  offset="1" style="stop-color:#F19549"/>
		</linearGradient>
		<path class="st7" d="M108.86,66.18c3.71,1.71,7.56,3.78,11.3,6.1c9.84,6.13,13.54,10.71,13.96,12.24
			c-2.26,0.37-11.22-2.75-20.39-11.2c-1.45-1.34-2.74-2.66-3.89-3.95c-0.33-0.19-0.23-0.25-0.23-0.25c0,0,0,0,0,0
			c-2.42-2.01-6.34-7.3-7.82-14.46c0,0,0,0,0,0c-0.96-4.54-0.34-8.25,0.48-10.75c1.07-3.27,2.53-4.28,3.71-4.57
			c-0.32-1.26-0.58-3-0.66-5.42c-2.83,0.47-6.31,2.36-8.25,8.3c-1.28,3.93-1.57,8.03-0.89,12.18c0,0,0,0.02,0.01,0.04
			c0.04,0.24,0.1,0.47,0.14,0.71c0.28,1.3,0.98,4.14,2.34,7.22c0.56,1.22,1.2,2.44,1.93,3.65c0.06,0.1,0.13,0.2,0.19,0.3
			c0.1,0.16,0.2,0.32,0.31,0.48c0,0,0,0.01,0,0.01c3.75,5.94,9.43,11.69,16.1,16.26c2.5,1.71,15.22,10.03,20.53,5.7
			c1.85-1.51,2.37-3.81,1.43-6.3c-2.66-7-19.63-18.52-34.33-23.89C105.52,60.62,106.73,63.32,108.86,66.18z"/>
	</g>
</g>
</svg>
