<?xml version="1.0" encoding="utf-8"?>
<!-- Generator: Adobe Illustrator 23.1.1, SVG Export Plug-In . SVG Version: 6.00 Build 0)  -->
<svg version="1.1" id="Layer_1" xmlns="http://www.w3.org/2000/svg" xmlns:xlink="http://www.w3.org/1999/xlink" x="0px" y="0px"
	 viewBox="0 0 180 150" style="enable-background:new 0 0 180 150;" xml:space="preserve">
<style type="text/css">
	.st0{fill-rule:evenodd;clip-rule:evenodd;fill:url(#SVGID_1_);}
</style>
<g>
	<linearGradient id="SVGID_1_" gradientUnits="userSpaceOnUse" x1="20" y1="75" x2="160" y2="75">
		<stop  offset="0" style="stop-color:#ED7F22"/>
		<stop  offset="1" style="stop-color:#F19549"/>
	</linearGradient>
	<path class="st0" d="M159.69,82.85c0.82,4.28,0,8.2-2.47,11.78c-0.4,0.73-0.93,1.48-1.6,2.25c-0.06,0.06-0.11,0.12-0.14,0.18
		l-20.34,32.26c-0.52,0.79-1.28,1.59-2.29,2.38c-2.05,1.59-4.28,2.37-6.69,2.34l-14.27-0.19c-1.59-0.02-2.89,1.24-2.92,2.83l0,0
		c-0.05,2.92-3.92,3.92-5.38,1.39l-10.82-18.81c-0.5-0.87-0.51-1.93-0.04-2.8l10.44-19.33c1.44-2.66,5.49-1.59,5.41,1.44l-0.01,0.34
		c-0.04,1.61,1.25,2.94,2.86,2.95l15.74,0.12c2.22,0.02,3.63-2.39,2.52-4.31l-11.05-19.23c-2.74-4.77-1.1-10.86,3.66-13.61
		l12.4-7.16c4.78-2.76,10.9-1.11,13.64,3.68l10.02,17.51c0.06,0.1,0.11,0.2,0.15,0.3C159.07,80.36,159.46,81.59,159.69,82.85z
		 M47.39,35.29l9.81-17.66c0.06-0.11,0.13-0.21,0.2-0.31c0.74-1.04,1.59-2,2.55-2.87c3.19-2.86,6.59-3.95,11.16-3.95
		c0.13,0,35.87,0,39.46,0c4.99,0,9.35,4.1,10.5,6.11l7.25,12.33c0.8,1.37,2.56,1.83,3.93,1.03l0.01-0.01
		c2.53-1.47,5.38,1.32,3.97,3.88l-10.49,18.98c-0.48,0.87-1.38,1.43-2.38,1.48l-21.89,1.07c-3.03,0.15-4.2-3.88-1.57-5.38l0.25-0.14
		c1.4-0.79,1.87-2.58,1.06-3.96l-7.97-13.53c-1.13-1.92-3.92-1.88-5,0.06L77.41,51.9c-2.67,4.8-8.71,6.54-13.53,3.89L51.3,48.87
		C46.46,46.21,44.71,40.12,47.39,35.29z M29.21,58.06h21.71c1,0,1.92,0.52,2.45,1.37l11.55,18.68c1.59,2.57-1.36,5.55-3.94,3.98
		l-0.3-0.18c-1.38-0.84-3.18-0.38-3.99,1.02l-7.85,13.57c-1.11,1.92,0.27,4.32,2.49,4.32h22.12c5.5,0,9.97,4.46,9.97,9.96
		l0.02,14.37c0.01,5.51-4.46,9.99-9.97,9.99H54.67c-1.68,0.09-3.54-0.23-5.59-0.96c-4.06-1.41-7.03-4.06-8.89-7.97
		c-0.39-0.68-0.74-1.45-1.03-2.31c-0.05-0.14-0.11-0.28-0.17-0.41L21.04,89.73c-0.43-0.86-0.73-1.91-0.92-3.16
		c-0.37-2.54,0.08-4.84,1.33-6.92l7.29-12.28c0.81-1.37,0.36-3.13-1-3.94l0,0C25.22,61.92,26.28,58.06,29.21,58.06z"/>
</g>
</svg>
