<?xml version="1.0" encoding="utf-8"?>
<!-- Generator: Adobe Illustrator 23.1.1, SVG Export Plug-In . SVG Version: 6.00 Build 0)  -->
<svg version="1.1" id="Layer_17" xmlns="http://www.w3.org/2000/svg" xmlns:xlink="http://www.w3.org/1999/xlink" x="0px" y="0px"
	 viewBox="0 0 240 150" style="enable-background:new 0 0 240 150;" xml:space="preserve">
<style type="text/css">
	.st0{fill:url(#SVGID_1_);}
	.st1{fill:url(#SVGID_2_);}
	.st2{fill:url(#SVGID_3_);}
	.st3{fill:url(#SVGID_4_);}
</style>
<g>
	<linearGradient id="SVGID_1_" gradientUnits="userSpaceOnUse" x1="29.5737" y1="97.2811" x2="96.4813" y2="97.2811">
		<stop  offset="0" style="stop-color:#ED7F22"/>
		<stop  offset="1" style="stop-color:#F19549"/>
	</linearGradient>
	<path class="st0" d="M63.87,100l1.78,1.78h5.84l-1.08-1.08c-0.1-0.1-0.15-0.23-0.15-0.35s0.05-0.26,0.15-0.35
		c0.2-0.2,0.51-0.2,0.71,0l1.78,1.78h5.84l-1.08-1.08c-0.1-0.1-0.15-0.23-0.15-0.35s0.05-0.26,0.15-0.35c0.2-0.2,0.51-0.2,0.71,0
		l1.78,1.78h5.84l-1.08-1.08c-0.1-0.1-0.15-0.23-0.15-0.35s0.05-0.26,0.15-0.35c0.2-0.2,0.51-0.2,0.71,0l1.78,1.78h0.06l9-9h-5.81
		l-1.78,1.78c-0.2,0.2-0.51,0.2-0.71,0c-0.1-0.1-0.15-0.23-0.15-0.35s0.05-0.26,0.15-0.35l1.08-1.08h-5.84l-1.78,1.78
		c-0.2,0.2-0.51,0.2-0.71,0c-0.1-0.1-0.15-0.23-0.15-0.35s0.05-0.26,0.15-0.35l1.08-1.08h-5.84l-1.78,1.78c-0.2,0.2-0.51,0.2-0.71,0
		c-0.1-0.1-0.15-0.23-0.15-0.35s0.05-0.26,0.15-0.35l1.08-1.08h-5.84l-1.78,1.78c-0.2,0.2-0.51,0.2-0.71,0
		c-0.1-0.1-0.15-0.23-0.15-0.35s0.05-0.26,0.15-0.35l1.08-1.08h-5.84l-1.78,1.78c-0.2,0.2-0.51,0.2-0.71,0
		c-0.1-0.1-0.15-0.23-0.15-0.35s0.05-0.26,0.15-0.35l1.08-1.08H54.4l-1.78,1.78c-0.2,0.2-0.51,0.2-0.71,0
		c-0.1-0.1-0.15-0.23-0.15-0.35s0.05-0.26,0.15-0.35l1.08-1.08h-5.84l-1.78,1.78c-0.2,0.2-0.51,0.2-0.71,0
		c-0.1-0.1-0.15-0.23-0.15-0.35s0.05-0.26,0.15-0.35l1.08-1.08h-5.84l-1.78,1.78c-0.2,0.2-0.51,0.2-0.71,0
		c-0.1-0.1-0.15-0.23-0.15-0.35s0.05-0.26,0.15-0.35l1.08-1.08h-4.4c-2.49,0-4.5,2.01-4.5,4.5s2.01,4.5,4.5,4.5h8.4l-1.08-1.08
		c-0.1-0.1-0.15-0.23-0.15-0.35s0.05-0.26,0.15-0.35c0.2-0.2,0.51-0.2,0.71,0l1.78,1.78h5.84l-1.08-1.08
		c-0.1-0.1-0.15-0.23-0.15-0.35s0.05-0.26,0.15-0.35c0.2-0.2,0.51-0.2,0.71,0l1.78,1.78h5.84l-1.08-1.08
		c-0.1-0.1-0.15-0.23-0.15-0.35s0.05-0.26,0.15-0.35c0.2-0.2,0.51-0.2,0.71,0l1.78,1.78h5.84l-1.08-1.08
		c-0.1-0.1-0.15-0.23-0.15-0.35s0.05-0.26,0.15-0.35C63.36,99.8,63.67,99.8,63.87,100z"/>
	<linearGradient id="SVGID_2_" gradientUnits="userSpaceOnUse" x1="43.7133" y1="85.8392" x2="107.9232" y2="85.8392">
		<stop  offset="0" style="stop-color:#ED7F22"/>
		<stop  offset="1" style="stop-color:#F19549"/>
	</linearGradient>
	<path class="st1" d="M52.61,81.34h-4.4c-2.49,0-4.5,2.01-4.5,4.5s2.01,4.5,4.5,4.5h8.4l-1.08-1.08c-0.1-0.1-0.15-0.23-0.15-0.35
		s0.05-0.26,0.15-0.35c0.2-0.2,0.51-0.2,0.71,0l1.78,1.78h5.84l-1.08-1.08c-0.1-0.1-0.15-0.23-0.15-0.35s0.05-0.26,0.15-0.35
		c0.2-0.2,0.51-0.2,0.71,0l1.78,1.78h5.84l-1.08-1.08c-0.1-0.1-0.15-0.23-0.15-0.35s0.05-0.26,0.15-0.35c0.2-0.2,0.51-0.2,0.71,0
		l1.78,1.78h5.84l-1.08-1.08c-0.1-0.1-0.15-0.23-0.15-0.35s0.05-0.26,0.15-0.35c0.2-0.2,0.51-0.2,0.71,0l1.78,1.78h5.84l-1.08-1.08
		c-0.1-0.1-0.15-0.23-0.15-0.35s0.05-0.26,0.15-0.35c0.2-0.2,0.51-0.2,0.71,0l1.78,1.78h5.84l-1.08-1.08
		c-0.1-0.1-0.15-0.23-0.15-0.35s0.05-0.26,0.15-0.35c0.2-0.2,0.51-0.2,0.71,0l1.78,1.78h4.62l0.61-0.61l-0.47-0.47
		c-0.1-0.1-0.15-0.23-0.15-0.35s0.05-0.26,0.15-0.35c0.2-0.2,0.51-0.2,0.71,0l0.47,0.47l7.68-7.68h-3.11l-1.78,1.78
		c-0.2,0.2-0.51,0.2-0.71,0c-0.1-0.1-0.15-0.23-0.15-0.35s0.05-0.26,0.15-0.35l1.08-1.08h-5.84l-1.78,1.78c-0.2,0.2-0.51,0.2-0.71,0
		c-0.1-0.1-0.15-0.23-0.15-0.35s0.05-0.26,0.15-0.35l1.08-1.08H90.3l-1.78,1.78c-0.2,0.2-0.51,0.2-0.71,0
		c-0.1-0.1-0.15-0.23-0.15-0.35s0.05-0.26,0.15-0.35l1.08-1.08h-5.84l-1.78,1.78c-0.2,0.2-0.51,0.2-0.71,0
		c-0.1-0.1-0.15-0.23-0.15-0.35s0.05-0.26,0.15-0.35l1.08-1.08h-5.84l-1.78,1.78c-0.2,0.2-0.51,0.2-0.71,0
		c-0.1-0.1-0.15-0.23-0.15-0.35s0.05-0.26,0.15-0.35l1.08-1.08h-5.84l-1.78,1.78c-0.2,0.2-0.51,0.2-0.71,0
		c-0.1-0.1-0.15-0.23-0.15-0.35s0.05-0.26,0.15-0.35l1.08-1.08h-5.84l-1.78,1.78c-0.2,0.2-0.51,0.2-0.71,0
		c-0.1-0.1-0.15-0.23-0.15-0.35s0.05-0.26,0.15-0.35l1.08-1.08h-5.84l-1.78,1.78c-0.2,0.2-0.51,0.2-0.71,0
		c-0.1-0.1-0.15-0.23-0.15-0.35s0.05-0.26,0.15-0.35L52.61,81.34z"/>
	<linearGradient id="SVGID_3_" gradientUnits="userSpaceOnUse" x1="29.5737" y1="51.3676" x2="172.2655" y2="51.3676">
		<stop  offset="0" style="stop-color:#ED7F22"/>
		<stop  offset="1" style="stop-color:#F19549"/>
	</linearGradient>
	<path class="st2" d="M170.85,25.25L170.85,25.25c-1.88-1.88-4.96-1.88-6.84,0l-21.77,21.77h-0.78l-1.78,1.78
		c-0.2,0.2-0.51,0.2-0.71,0c-0.1-0.1-0.15-0.23-0.15-0.35s0.05-0.26,0.15-0.35l1.08-1.08h-5.84l-1.78,1.78c-0.2,0.2-0.51,0.2-0.71,0
		c-0.1-0.1-0.15-0.23-0.15-0.35s0.05-0.26,0.15-0.35l1.08-1.08h-5.84l-1.78,1.78c-0.2,0.2-0.51,0.2-0.71,0
		c-0.1-0.1-0.15-0.23-0.15-0.35s0.05-0.26,0.15-0.35l1.08-1.08h-5.84l-1.78,1.78c-0.2,0.2-0.51,0.2-0.71,0
		c-0.1-0.1-0.15-0.23-0.15-0.35s0.05-0.26,0.15-0.35l1.08-1.08h-5.84l-1.78,1.78c-0.2,0.2-0.51,0.2-0.71,0
		c-0.1-0.1-0.15-0.23-0.15-0.35s0.05-0.26,0.15-0.35l1.08-1.08h-5.84l-1.78,1.78c-0.2,0.2-0.51,0.2-0.71,0
		c-0.1-0.1-0.15-0.23-0.15-0.35s0.05-0.26,0.15-0.35l1.08-1.08h-5.84l-1.78,1.78c-0.2,0.2-0.51,0.2-0.71,0
		c-0.1-0.1-0.15-0.23-0.15-0.35s0.05-0.26,0.15-0.35l1.08-1.08h-5.84l-1.78,1.78c-0.2,0.2-0.51,0.2-0.71,0
		c-0.1-0.1-0.15-0.23-0.15-0.35s0.05-0.26,0.15-0.35l1.08-1.08h-5.84l-1.78,1.78c-0.2,0.2-0.51,0.2-0.71,0
		c-0.1-0.1-0.15-0.23-0.15-0.35s0.05-0.26,0.15-0.35l1.08-1.08h-5.84l-1.78,1.78c-0.2,0.2-0.51,0.2-0.71,0
		c-0.1-0.1-0.15-0.23-0.15-0.35s0.05-0.26,0.15-0.35l1.08-1.08h-5.84l-1.78,1.78c-0.2,0.2-0.51,0.2-0.71,0
		c-0.1-0.1-0.15-0.23-0.15-0.35s0.05-0.26,0.15-0.35l1.08-1.08h-5.84l-1.78,1.78c-0.2,0.2-0.51,0.2-0.71,0
		c-0.1-0.1-0.15-0.23-0.15-0.35s0.05-0.26,0.15-0.35l1.08-1.08H54.4l-1.78,1.78c-0.2,0.2-0.51,0.2-0.71,0
		c-0.1-0.1-0.15-0.23-0.15-0.35s0.05-0.26,0.15-0.35l1.08-1.08h-5.84l-1.78,1.78c-0.2,0.2-0.51,0.2-0.71,0
		c-0.1-0.1-0.15-0.23-0.15-0.35s0.05-0.26,0.15-0.35l1.08-1.08h-5.84L38.1,48.8c-0.2,0.2-0.51,0.2-0.71,0
		c-0.1-0.1-0.15-0.23-0.15-0.35s0.05-0.26,0.15-0.35l1.08-1.08h-4.4c-2.49,0-4.5,2.01-4.5,4.5s2.01,4.5,4.5,4.5h8.4l-1.08-1.08
		c-0.1-0.1-0.15-0.23-0.15-0.35s0.05-0.26,0.15-0.35c0.2-0.2,0.51-0.2,0.71,0l1.78,1.78h5.84l-1.08-1.08
		c-0.1-0.1-0.15-0.23-0.15-0.35s0.05-0.26,0.15-0.35c0.2-0.2,0.51-0.2,0.71,0l1.78,1.78h5.84l-1.08-1.08
		c-0.1-0.1-0.15-0.23-0.15-0.35s0.05-0.26,0.15-0.35c0.2-0.2,0.51-0.2,0.71,0l1.78,1.78h5.84l-1.08-1.08
		c-0.1-0.1-0.15-0.23-0.15-0.35s0.05-0.26,0.15-0.35c0.2-0.2,0.51-0.2,0.71,0l1.78,1.78h5.84l-1.08-1.08
		c-0.1-0.1-0.15-0.23-0.15-0.35s0.05-0.26,0.15-0.35c0.2-0.2,0.51-0.2,0.71,0l1.78,1.78h5.84l-1.08-1.08
		c-0.1-0.1-0.15-0.23-0.15-0.35s0.05-0.26,0.15-0.35c0.2-0.2,0.51-0.2,0.71,0l1.78,1.78h5.84l-1.08-1.08
		c-0.1-0.1-0.15-0.23-0.15-0.35s0.05-0.26,0.15-0.35c0.2-0.2,0.51-0.2,0.71,0l1.78,1.78h5.84l-1.08-1.08
		c-0.1-0.1-0.15-0.23-0.15-0.35s0.05-0.26,0.15-0.35c0.2-0.2,0.51-0.2,0.71,0l1.78,1.78h5.84l-1.08-1.08
		c-0.1-0.1-0.15-0.23-0.15-0.35s0.05-0.26,0.15-0.35c0.2-0.2,0.51-0.2,0.71,0l1.78,1.78h5.84l-1.08-1.08
		c-0.1-0.1-0.15-0.23-0.15-0.35s0.05-0.26,0.15-0.35c0.2-0.2,0.51-0.2,0.71,0l1.78,1.78h5.84l-1.08-1.08
		c-0.1-0.1-0.15-0.23-0.15-0.35s0.05-0.26,0.15-0.35c0.2-0.2,0.51-0.2,0.71,0l1.78,1.78h5.84l-1.08-1.08
		c-0.1-0.1-0.15-0.23-0.15-0.35s0.05-0.26,0.15-0.35c0.2-0.2,0.51-0.2,0.71,0l1.78,1.78h5.84l-1.08-1.08
		c-0.1-0.1-0.15-0.23-0.15-0.35s0.05-0.26,0.15-0.35c0.2-0.2,0.51-0.2,0.71,0l1.78,1.78h2.3l-2.44,2.44h-4.22l-1.78,1.78
		c-0.2,0.2-0.51,0.2-0.71,0c-0.1-0.1-0.15-0.23-0.15-0.35s0.05-0.26,0.15-0.35l1.08-1.08h-5.84l-1.78,1.78c-0.2,0.2-0.51,0.2-0.71,0
		c-0.1-0.1-0.15-0.23-0.15-0.35s0.05-0.26,0.15-0.35l1.08-1.08h-5.84l-1.78,1.78c-0.2,0.2-0.51,0.2-0.71,0
		c-0.1-0.1-0.15-0.23-0.15-0.35s0.05-0.26,0.15-0.35l1.08-1.08h-5.84l-1.78,1.78c-0.2,0.2-0.51,0.2-0.71,0
		c-0.1-0.1-0.15-0.23-0.15-0.35s0.05-0.26,0.15-0.35l1.08-1.08h-5.84l-1.78,1.78c-0.2,0.2-0.51,0.2-0.71,0
		c-0.1-0.1-0.15-0.23-0.15-0.35s0.05-0.26,0.15-0.35l1.08-1.08H90.3l-1.78,1.78c-0.2,0.2-0.51,0.2-0.71,0
		c-0.1-0.1-0.15-0.23-0.15-0.35s0.05-0.26,0.15-0.35l1.08-1.08h-5.84l-1.78,1.78c-0.2,0.2-0.51,0.2-0.71,0
		c-0.1-0.1-0.15-0.23-0.15-0.35s0.05-0.26,0.15-0.35l1.08-1.08h-5.84l-1.78,1.78c-0.2,0.2-0.51,0.2-0.71,0
		c-0.1-0.1-0.15-0.23-0.15-0.35s0.05-0.26,0.15-0.35l1.08-1.08h-5.84l-1.78,1.78c-0.2,0.2-0.51,0.2-0.71,0
		c-0.1-0.1-0.15-0.23-0.15-0.35s0.05-0.26,0.15-0.35l1.08-1.08h-5.84l-1.78,1.78c-0.2,0.2-0.51,0.2-0.71,0
		c-0.1-0.1-0.15-0.23-0.15-0.35s0.05-0.26,0.15-0.35l1.08-1.08h-5.84l-1.78,1.78c-0.2,0.2-0.51,0.2-0.71,0
		c-0.1-0.1-0.15-0.23-0.15-0.35s0.05-0.26,0.15-0.35l1.08-1.08h-4.4c-2.49,0-4.5,2.01-4.5,4.5s2.01,4.5,4.5,4.5h8.4l-1.08-1.08
		c-0.1-0.1-0.15-0.23-0.15-0.35s0.05-0.26,0.15-0.35c0.2-0.2,0.51-0.2,0.71,0l1.78,1.78h5.84l-1.08-1.08
		c-0.1-0.1-0.15-0.23-0.15-0.35s0.05-0.26,0.15-0.35c0.2-0.2,0.51-0.2,0.71,0l1.78,1.78h5.84l-1.08-1.08
		c-0.1-0.1-0.15-0.23-0.15-0.35s0.05-0.26,0.15-0.35c0.2-0.2,0.51-0.2,0.71,0l1.78,1.78h5.84l-1.08-1.08
		c-0.1-0.1-0.15-0.23-0.15-0.35s0.05-0.26,0.15-0.35c0.2-0.2,0.51-0.2,0.71,0l1.78,1.78h5.84l-1.08-1.08
		c-0.1-0.1-0.15-0.23-0.15-0.35s0.05-0.26,0.15-0.35c0.2-0.2,0.51-0.2,0.71,0l1.78,1.78h5.84l-1.08-1.08
		c-0.1-0.1-0.15-0.23-0.15-0.35s0.05-0.26,0.15-0.35c0.2-0.2,0.51-0.2,0.71,0l1.78,1.78h5.84l-1.08-1.08
		c-0.1-0.1-0.15-0.23-0.15-0.35s0.05-0.26,0.15-0.35c0.2-0.2,0.51-0.2,0.71,0l1.78,1.78h5.84l-1.08-1.08
		c-0.1-0.1-0.15-0.23-0.15-0.35s0.05-0.26,0.15-0.35c0.2-0.2,0.51-0.2,0.71,0l1.78,1.78h5.84l-1.08-1.08
		c-0.1-0.1-0.15-0.23-0.15-0.35s0.05-0.26,0.15-0.35c0.2-0.2,0.51-0.2,0.71,0l1.78,1.78h5.74l-4.35,4.35
		c-0.09-0.02-0.18-0.06-0.25-0.13c-0.1-0.1-0.15-0.23-0.15-0.35s0.05-0.26,0.15-0.35l1.08-1.08h-5.84l-1.78,1.78
		c-0.2,0.2-0.51,0.2-0.71,0c-0.1-0.1-0.15-0.23-0.15-0.35s0.05-0.26,0.15-0.35l1.08-1.08h-5.84l-1.78,1.78c-0.2,0.2-0.51,0.2-0.71,0
		c-0.1-0.1-0.15-0.23-0.15-0.35s0.05-0.26,0.15-0.35l1.08-1.08h-5.84l-1.78,1.78c-0.2,0.2-0.51,0.2-0.71,0
		c-0.1-0.1-0.15-0.23-0.15-0.35s0.05-0.26,0.15-0.35l1.08-1.08h-5.84l-1.78,1.78c-0.2,0.2-0.51,0.2-0.71,0
		c-0.1-0.1-0.15-0.23-0.15-0.35s0.05-0.26,0.15-0.35l1.08-1.08h-5.84l-1.78,1.78c-0.2,0.2-0.51,0.2-0.71,0
		c-0.1-0.1-0.15-0.23-0.15-0.35s0.05-0.26,0.15-0.35l1.08-1.08h-5.84l-1.78,1.78c-0.2,0.2-0.51,0.2-0.71,0
		c-0.1-0.1-0.15-0.23-0.15-0.35s0.05-0.26,0.15-0.35l1.08-1.08h-5.84l-1.78,1.78c-0.2,0.2-0.51,0.2-0.71,0
		c-0.1-0.1-0.15-0.23-0.15-0.35s0.05-0.26,0.15-0.35l1.08-1.08h-5.84l-1.78,1.78c-0.2,0.2-0.51,0.2-0.71,0
		c-0.1-0.1-0.15-0.23-0.15-0.35s0.05-0.26,0.15-0.35l1.08-1.08H54.4l-1.78,1.78c-0.2,0.2-0.51,0.2-0.71,0
		c-0.1-0.1-0.15-0.23-0.15-0.35s0.05-0.26,0.15-0.35l1.08-1.08h-5.84l-1.78,1.78c-0.2,0.2-0.51,0.2-0.71,0
		c-0.1-0.1-0.15-0.23-0.15-0.35s0.05-0.26,0.15-0.35l1.08-1.08h-5.84l-1.78,1.78c-0.2,0.2-0.51,0.2-0.71,0
		c-0.1-0.1-0.15-0.23-0.15-0.35s0.05-0.26,0.15-0.35l1.08-1.08h-4.4c-2.49,0-4.5,2.01-4.5,4.5s2.01,4.5,4.5,4.5h8.4l-1.08-1.08
		c-0.1-0.1-0.15-0.23-0.15-0.35s0.05-0.26,0.15-0.35c0.2-0.2,0.51-0.2,0.71,0l1.78,1.78h5.84l-1.08-1.08
		c-0.1-0.1-0.15-0.23-0.15-0.35s0.05-0.26,0.15-0.35c0.2-0.2,0.51-0.2,0.71,0l1.78,1.78h5.84l-1.08-1.08
		c-0.1-0.1-0.15-0.23-0.15-0.35s0.05-0.26,0.15-0.35c0.2-0.2,0.51-0.2,0.71,0l1.78,1.78h5.84l-1.08-1.08
		c-0.1-0.1-0.15-0.23-0.15-0.35s0.05-0.26,0.15-0.35c0.2-0.2,0.51-0.2,0.71,0l1.78,1.78h5.84l-1.08-1.08
		c-0.1-0.1-0.15-0.23-0.15-0.35s0.05-0.26,0.15-0.35c0.2-0.2,0.51-0.2,0.71,0l1.78,1.78h5.84l-1.08-1.08
		c-0.1-0.1-0.15-0.23-0.15-0.35s0.05-0.26,0.15-0.35c0.2-0.2,0.51-0.2,0.71,0l1.78,1.78h5.84l-1.08-1.08
		c-0.1-0.1-0.15-0.23-0.15-0.35s0.05-0.26,0.15-0.35c0.2-0.2,0.51-0.2,0.71,0l1.78,1.78h5.84l-1.08-1.08
		c-0.1-0.1-0.15-0.23-0.15-0.35s0.05-0.26,0.15-0.35c0.2-0.2,0.51-0.2,0.71,0l1.78,1.78h5.84l-1.08-1.08
		c-0.1-0.1-0.15-0.23-0.15-0.35s0.05-0.26,0.15-0.35c0.2-0.2,0.51-0.2,0.71,0l1.78,1.78h5.84l-1.08-1.08
		c-0.1-0.1-0.15-0.23-0.15-0.35s0.05-0.26,0.15-0.35c0.2-0.2,0.51-0.2,0.71,0l1.78,1.78h1.18l35.56-35.56h13.68l11.24-11.24
		C172.74,30.21,172.74,27.13,170.85,25.25z M121.86,67.4l-1.02-1.02c-0.1-0.1-0.15-0.23-0.15-0.35s0.05-0.26,0.15-0.35
		c0.2-0.2,0.51-0.2,0.71,0l1.02,1.02L121.86,67.4z"/>
	<linearGradient id="SVGID_4_" gradientUnits="userSpaceOnUse" x1="69.1991" y1="85.1184" x2="208.9916" y2="85.1184">
		<stop  offset="0" style="stop-color:#ED7F22"/>
		<stop  offset="1" style="stop-color:#F19549"/>
	</linearGradient>
	<path class="st3" d="M204.49,81.34h-5.35l-1.78,1.78c-0.2,0.2-0.51,0.2-0.71,0c-0.1-0.1-0.15-0.23-0.15-0.35s0.05-0.26,0.15-0.35
		l1.08-1.08h-5.84l-1.78,1.78c-0.2,0.2-0.51,0.2-0.71,0c-0.1-0.1-0.15-0.23-0.15-0.35s0.05-0.26,0.15-0.35l1.08-1.08h-5.84
		l-1.78,1.78c-0.2,0.2-0.51,0.2-0.71,0c-0.1-0.1-0.15-0.23-0.15-0.35s0.05-0.26,0.15-0.35l1.08-1.08h-5.84l-1.78,1.78
		c-0.2,0.2-0.51,0.2-0.71,0c-0.1-0.1-0.15-0.23-0.15-0.35s0.05-0.26,0.15-0.35l1.08-1.08h-5.84l-1.78,1.78c-0.2,0.2-0.51,0.2-0.71,0
		c-0.1-0.1-0.15-0.23-0.15-0.35s0.05-0.26,0.15-0.35l1.08-1.08h-5.84l-1.78,1.78c-0.2,0.2-0.51,0.2-0.71,0
		c-0.1-0.1-0.15-0.23-0.15-0.35s0.05-0.26,0.15-0.35l1.08-1.08h-5.84l-1.78,1.78c-0.2,0.2-0.51,0.2-0.71,0
		c-0.1-0.1-0.15-0.23-0.15-0.35s0.05-0.26,0.15-0.35l1.08-1.08h-5.84l-1.78,1.78c-0.2,0.2-0.51,0.2-0.71,0
		c-0.1-0.1-0.15-0.23-0.15-0.35s0.05-0.26,0.15-0.35l1.08-1.08h-5.84l-1.78,1.78c-0.2,0.2-0.51,0.2-0.71,0
		c-0.1-0.1-0.15-0.23-0.15-0.35s0.05-0.26,0.15-0.35l1.08-1.08h-5.84l-1.78,1.78c-0.2,0.2-0.51,0.2-0.71,0
		c-0.1-0.1-0.15-0.23-0.15-0.35s0.05-0.26,0.15-0.35l1.08-1.08h-5.84l-1.78,1.78c-0.2,0.2-0.51,0.2-0.71,0
		c-0.1-0.1-0.15-0.23-0.15-0.35s0.05-0.26,0.15-0.35l1.08-1.08h-3.56l2.44-2.44h5.49l-1.08-1.08c-0.1-0.1-0.15-0.23-0.15-0.35
		s0.05-0.26,0.15-0.35c0.2-0.2,0.51-0.2,0.71,0l1.78,1.78h5.84l-1.08-1.08c-0.1-0.1-0.15-0.23-0.15-0.35s0.05-0.26,0.15-0.35
		c0.2-0.2,0.51-0.2,0.71,0l1.78,1.78h5.84l-1.08-1.08c-0.1-0.1-0.15-0.23-0.15-0.35s0.05-0.26,0.15-0.35c0.2-0.2,0.51-0.2,0.71,0
		l1.78,1.78h5.84l-1.08-1.08c-0.1-0.1-0.15-0.23-0.15-0.35s0.05-0.26,0.15-0.35c0.2-0.2,0.51-0.2,0.71,0l1.78,1.78h5.84l-1.08-1.08
		c-0.1-0.1-0.15-0.23-0.15-0.35s0.05-0.26,0.15-0.35c0.2-0.2,0.51-0.2,0.71,0l1.78,1.78h5.84l-1.08-1.08
		c-0.1-0.1-0.15-0.23-0.15-0.35s0.05-0.26,0.15-0.35c0.2-0.2,0.51-0.2,0.71,0l1.78,1.78h5.84L172,77.82
		c-0.1-0.1-0.15-0.23-0.15-0.35s0.05-0.26,0.15-0.35c0.2-0.2,0.51-0.2,0.71,0l1.78,1.78h5.84l-1.08-1.08
		c-0.1-0.1-0.15-0.23-0.15-0.35s0.05-0.26,0.15-0.35c0.2-0.2,0.51-0.2,0.71,0l1.78,1.78h5.84l-1.08-1.08
		c-0.1-0.1-0.15-0.23-0.15-0.35s0.05-0.26,0.15-0.35c0.2-0.2,0.51-0.2,0.71,0L189,78.9h1.35c2.49,0,4.5-2.01,4.5-4.5
		s-2.01-4.5-4.5-4.5H185l-1.78,1.78c-0.2,0.2-0.51,0.2-0.71,0c-0.1-0.1-0.15-0.23-0.15-0.35s0.05-0.26,0.15-0.35l1.08-1.08h-5.84
		l-1.78,1.78c-0.2,0.2-0.51,0.2-0.71,0c-0.1-0.1-0.15-0.23-0.15-0.35s0.05-0.26,0.15-0.35l1.08-1.08h-5.84l-1.78,1.78
		c-0.2,0.2-0.51,0.2-0.71,0c-0.1-0.1-0.15-0.23-0.15-0.35s0.05-0.26,0.15-0.35l1.08-1.08h-5.84l-1.78,1.78c-0.2,0.2-0.51,0.2-0.71,0
		c-0.1-0.1-0.15-0.23-0.15-0.35s0.05-0.26,0.15-0.35l1.08-1.08h-5.84l-1.78,1.78c-0.2,0.2-0.51,0.2-0.71,0
		c-0.1-0.1-0.15-0.23-0.15-0.35s0.05-0.26,0.15-0.35l1.08-1.08h-5.84l-1.78,1.78c-0.2,0.2-0.51,0.2-0.71,0
		c-0.1-0.1-0.15-0.23-0.15-0.35s0.05-0.26,0.15-0.35l1.08-1.08h-5.84l-1.78,1.78c-0.2,0.2-0.51,0.2-0.71,0
		c-0.1-0.1-0.15-0.23-0.15-0.35s0.05-0.26,0.15-0.35l1.08-1.08h-5.84l-1.78,1.78c-0.2,0.2-0.51,0.2-0.71,0
		c-0.09-0.09-0.13-0.2-0.14-0.32l3.91-3.91h0.94l-0.47-0.47l0.71-0.71l1.17,1.17h5.84l-1.08-1.08c-0.1-0.1-0.15-0.23-0.15-0.35
		s0.05-0.26,0.15-0.35c0.2-0.2,0.51-0.2,0.71,0l1.78,1.78h5.84l-1.08-1.08c-0.1-0.1-0.15-0.23-0.15-0.35s0.05-0.26,0.15-0.35
		c0.2-0.2,0.51-0.2,0.71,0l1.78,1.78h5.84l-1.08-1.08c-0.1-0.1-0.15-0.23-0.15-0.35s0.05-0.26,0.15-0.35c0.2-0.2,0.51-0.2,0.71,0
		l1.78,1.78h5.84l-1.08-1.08c-0.1-0.1-0.15-0.23-0.15-0.35s0.05-0.26,0.15-0.35c0.2-0.2,0.51-0.2,0.71,0l1.78,1.78h5.84l-1.08-1.08
		c-0.1-0.1-0.15-0.23-0.15-0.35s0.05-0.26,0.15-0.35c0.2-0.2,0.51-0.2,0.71,0l1.78,1.78h5.84l-1.08-1.08
		c-0.1-0.1-0.15-0.23-0.15-0.35s0.05-0.26,0.15-0.35c0.2-0.2,0.51-0.2,0.71,0l1.78,1.78h5.84l-1.08-1.08
		c-0.1-0.1-0.15-0.23-0.15-0.35s0.05-0.26,0.15-0.35c0.2-0.2,0.51-0.2,0.71,0l1.78,1.78h5.84l-1.08-1.08
		c-0.1-0.1-0.15-0.23-0.15-0.35s0.05-0.26,0.15-0.35c0.2-0.2,0.51-0.2,0.71,0l1.78,1.78h5.84l-1.08-1.08
		c-0.1-0.1-0.15-0.23-0.15-0.35s0.05-0.26,0.15-0.35c0.2-0.2,0.51-0.2,0.71,0l1.78,1.78h1.35c2.49,0,4.5-2.01,4.5-4.5
		s-2.01-4.5-4.5-4.5h-5.35l-1.78,1.78c-0.2,0.2-0.51,0.2-0.71,0c-0.1-0.1-0.15-0.23-0.15-0.35s0.05-0.26,0.15-0.35l1.08-1.08h-5.84
		l-1.78,1.78c-0.2,0.2-0.51,0.2-0.71,0c-0.1-0.1-0.15-0.23-0.15-0.35s0.05-0.26,0.15-0.35l1.08-1.08h-5.84l-1.78,1.78
		c-0.2,0.2-0.51,0.2-0.71,0c-0.1-0.1-0.15-0.23-0.15-0.35s0.05-0.26,0.15-0.35l1.08-1.08h-5.84l-1.78,1.78c-0.2,0.2-0.51,0.2-0.71,0
		c-0.1-0.1-0.15-0.23-0.15-0.35s0.05-0.26,0.15-0.35l1.08-1.08h-5.84l-1.78,1.78c-0.2,0.2-0.51,0.2-0.71,0
		c-0.1-0.1-0.15-0.23-0.15-0.35s0.05-0.26,0.15-0.35l1.08-1.08h-5.84l-1.78,1.78c-0.2,0.2-0.51,0.2-0.71,0
		c-0.1-0.1-0.15-0.23-0.15-0.35s0.05-0.26,0.15-0.35l1.08-1.08h-5.84l-1.78,1.78c-0.2,0.2-0.51,0.2-0.71,0
		c-0.1-0.1-0.15-0.23-0.15-0.35s0.05-0.26,0.15-0.35l1.08-1.08h-5.84l-1.78,1.78c-0.2,0.2-0.51,0.2-0.71,0
		c-0.1-0.1-0.15-0.23-0.15-0.35s0.05-0.26,0.15-0.35l1.08-1.08h-2.45l2.44-2.44h4.38l-1.08-1.08c-0.1-0.1-0.15-0.23-0.15-0.35
		s0.05-0.26,0.15-0.35c0.2-0.2,0.51-0.2,0.71,0l1.78,1.78h5.84l-1.08-1.08c-0.1-0.1-0.15-0.23-0.15-0.35s0.05-0.26,0.15-0.35
		c0.2-0.2,0.51-0.2,0.71,0l1.78,1.78h5.84l-1.08-1.08c-0.1-0.1-0.15-0.23-0.15-0.35s0.05-0.26,0.15-0.35c0.2-0.2,0.51-0.2,0.71,0
		l1.78,1.78h5.84L172,54.94c-0.1-0.1-0.15-0.23-0.15-0.35s0.05-0.26,0.15-0.35c0.2-0.2,0.51-0.2,0.71,0l1.78,1.78h5.84l-1.08-1.08
		c-0.1-0.1-0.15-0.23-0.15-0.35s0.05-0.26,0.15-0.35c0.2-0.2,0.51-0.2,0.71,0l1.78,1.78h5.84l-1.08-1.08
		c-0.1-0.1-0.15-0.23-0.15-0.35s0.05-0.26,0.15-0.35c0.2-0.2,0.51-0.2,0.71,0l1.78,1.78h1.35c2.49,0,4.5-2.01,4.5-4.5
		s-2.01-4.5-4.5-4.5H185l-1.78,1.78c-0.2,0.2-0.51,0.2-0.71,0c-0.1-0.1-0.15-0.23-0.15-0.35s0.05-0.26,0.15-0.35l1.08-1.08h-5.84
		l-1.78,1.78c-0.2,0.2-0.51,0.2-0.71,0c-0.1-0.1-0.15-0.23-0.15-0.35s0.05-0.26,0.15-0.35l1.08-1.08h-5.84l-1.78,1.78
		c-0.2,0.2-0.51,0.2-0.71,0c-0.1-0.1-0.15-0.23-0.15-0.35s0.05-0.26,0.15-0.35l1.08-1.08h-5.84l-1.78,1.78c-0.2,0.2-0.51,0.2-0.71,0
		c-0.1-0.1-0.15-0.23-0.15-0.35s0.05-0.26,0.15-0.35l1.08-1.08h-5.84l-1.78,1.78c-0.04,0.04-0.09,0.07-0.14,0.09l5.56-5.56
		l-61.29,61.29H84.64l-14.03,14.03c-1.88,1.88-1.88,4.96,0,6.84s4.96,1.88,6.84,0l24.1-24.1l0.38,0.38h5.84l-1.08-1.08
		c-0.1-0.1-0.15-0.23-0.15-0.35s0.05-0.26,0.15-0.35c0.2-0.2,0.51-0.2,0.71,0l1.78,1.78h5.84l-1.08-1.08
		c-0.1-0.1-0.15-0.23-0.15-0.35s0.05-0.26,0.15-0.35c0.2-0.2,0.51-0.2,0.71,0l1.78,1.78h5.84l-1.08-1.08
		c-0.1-0.1-0.15-0.23-0.15-0.35s0.05-0.26,0.15-0.35c0.2-0.2,0.51-0.2,0.71,0l1.78,1.78h5.84l-1.08-1.08
		c-0.1-0.1-0.15-0.23-0.15-0.35s0.05-0.26,0.15-0.35c0.2-0.2,0.51-0.2,0.71,0l1.78,1.78h5.84l-1.08-1.08
		c-0.1-0.1-0.15-0.23-0.15-0.35s0.05-0.26,0.15-0.35c0.2-0.2,0.51-0.2,0.71,0l1.78,1.78h5.84l-1.08-1.08
		c-0.1-0.1-0.15-0.23-0.15-0.35s0.05-0.26,0.15-0.35c0.2-0.2,0.51-0.2,0.71,0l1.78,1.78h5.84l-1.08-1.08
		c-0.1-0.1-0.15-0.23-0.15-0.35s0.05-0.26,0.15-0.35c0.2-0.2,0.51-0.2,0.71,0l1.78,1.78h5.84l-1.08-1.08
		c-0.1-0.1-0.15-0.23-0.15-0.35s0.05-0.26,0.15-0.35c0.2-0.2,0.51-0.2,0.71,0l1.78,1.78h5.84l-1.08-1.08
		c-0.1-0.1-0.15-0.23-0.15-0.35s0.05-0.26,0.15-0.35c0.2-0.2,0.51-0.2,0.71,0l1.78,1.78h5.84L172,100.7
		c-0.1-0.1-0.15-0.23-0.15-0.35s0.05-0.26,0.15-0.35c0.2-0.2,0.51-0.2,0.71,0l1.78,1.78h5.84l-1.08-1.08
		c-0.1-0.1-0.15-0.23-0.15-0.35s0.05-0.26,0.15-0.35c0.2-0.2,0.51-0.2,0.71,0l1.78,1.78h5.84l-1.08-1.08
		c-0.1-0.1-0.15-0.23-0.15-0.35s0.05-0.26,0.15-0.35c0.2-0.2,0.51-0.2,0.71,0l1.78,1.78h1.35c2.49,0,4.5-2.01,4.5-4.5
		s-2.01-4.5-4.5-4.5H185l-1.78,1.78c-0.2,0.2-0.51,0.2-0.71,0c-0.1-0.1-0.15-0.23-0.15-0.35s0.05-0.26,0.15-0.35l1.08-1.08h-5.84
		l-1.78,1.78c-0.2,0.2-0.51,0.2-0.71,0c-0.1-0.1-0.15-0.23-0.15-0.35s0.05-0.26,0.15-0.35l1.08-1.08h-5.84l-1.78,1.78
		c-0.2,0.2-0.51,0.2-0.71,0c-0.1-0.1-0.15-0.23-0.15-0.35s0.05-0.26,0.15-0.35l1.08-1.08h-5.84l-1.78,1.78c-0.2,0.2-0.51,0.2-0.71,0
		c-0.1-0.1-0.15-0.23-0.15-0.35s0.05-0.26,0.15-0.35l1.08-1.08h-5.84l-1.78,1.78c-0.2,0.2-0.51,0.2-0.71,0
		c-0.1-0.1-0.15-0.23-0.15-0.35s0.05-0.26,0.15-0.35l1.08-1.08h-5.84l-1.78,1.78c-0.2,0.2-0.51,0.2-0.71,0
		c-0.1-0.1-0.15-0.23-0.15-0.35s0.05-0.26,0.15-0.35l1.08-1.08h-5.84l-1.78,1.78c-0.2,0.2-0.51,0.2-0.71,0
		c-0.1-0.1-0.15-0.23-0.15-0.35s0.05-0.26,0.15-0.35l1.08-1.08h-5.84l-1.78,1.78c-0.2,0.2-0.51,0.2-0.71,0
		c-0.1-0.1-0.15-0.23-0.15-0.35s0.05-0.26,0.15-0.35l1.08-1.08h-5.84l-1.78,1.78c-0.2,0.2-0.51,0.2-0.71,0
		c-0.1-0.1-0.15-0.23-0.15-0.35s0.05-0.26,0.15-0.35l1.08-1.08h-5.84l-1.78,1.78c-0.2,0.2-0.51,0.2-0.71,0
		c-0.1-0.1-0.15-0.23-0.15-0.35s0.05-0.26,0.15-0.35l1.08-1.08h-5.84l-1.78,1.78c-0.2,0.2-0.51,0.2-0.71,0
		c-0.1-0.1-0.15-0.23-0.15-0.35s0.05-0.26,0.15-0.35l1.08-1.08h-0.87l2.44-2.44h2.05l-1.03-1.03l0.71-0.71l1.73,1.73h5.84
		l-1.08-1.08c-0.1-0.1-0.15-0.23-0.15-0.35s0.05-0.26,0.15-0.35c0.2-0.2,0.51-0.2,0.71,0l1.78,1.78h5.84l-1.08-1.08
		c-0.1-0.1-0.15-0.23-0.15-0.35s0.05-0.26,0.15-0.35c0.2-0.2,0.51-0.2,0.71,0l1.78,1.78h5.84l-1.08-1.08
		c-0.1-0.1-0.15-0.23-0.15-0.35s0.05-0.26,0.15-0.35c0.2-0.2,0.51-0.2,0.71,0l1.78,1.78h5.84l-1.08-1.08
		c-0.1-0.1-0.15-0.23-0.15-0.35s0.05-0.26,0.15-0.35c0.2-0.2,0.51-0.2,0.71,0l1.78,1.78h5.84l-1.08-1.08
		c-0.1-0.1-0.15-0.23-0.15-0.35s0.05-0.26,0.15-0.35c0.2-0.2,0.51-0.2,0.71,0l1.78,1.78h5.84l-1.08-1.08
		c-0.1-0.1-0.15-0.23-0.15-0.35s0.05-0.26,0.15-0.35c0.2-0.2,0.51-0.2,0.71,0l1.78,1.78h5.84l-1.08-1.08
		c-0.1-0.1-0.15-0.23-0.15-0.35s0.05-0.26,0.15-0.35c0.2-0.2,0.51-0.2,0.71,0l1.78,1.78h5.84l-1.08-1.08
		c-0.1-0.1-0.15-0.23-0.15-0.35s0.05-0.26,0.15-0.35c0.2-0.2,0.51-0.2,0.71,0l1.78,1.78h5.84l-1.08-1.08
		c-0.1-0.1-0.15-0.23-0.15-0.35s0.05-0.26,0.15-0.35c0.2-0.2,0.51-0.2,0.71,0l1.78,1.78h5.84l-1.08-1.08
		c-0.1-0.1-0.15-0.23-0.15-0.35s0.05-0.26,0.15-0.35c0.2-0.2,0.51-0.2,0.71,0l1.78,1.78h5.84l-1.08-1.08
		c-0.1-0.1-0.15-0.23-0.15-0.35s0.05-0.26,0.15-0.35c0.2-0.2,0.51-0.2,0.71,0l1.78,1.78h5.84l-1.08-1.08
		c-0.1-0.1-0.15-0.23-0.15-0.35s0.05-0.26,0.15-0.35c0.2-0.2,0.51-0.2,0.71,0l1.78,1.78h1.35c2.49,0,4.5-2.01,4.5-4.5
		S206.98,81.34,204.49,81.34z"/>
</g>
</svg>
