<?xml version="1.0" encoding="utf-8"?>
<!-- Generator: Adobe Illustrator 23.1.1, SVG Export Plug-In . SVG Version: 6.00 Build 0)  -->
<svg version="1.1" id="Layer_7" xmlns="http://www.w3.org/2000/svg" xmlns:xlink="http://www.w3.org/1999/xlink" x="0px" y="0px"
	 viewBox="0 0 240 150" style="enable-background:new 0 0 240 150;" xml:space="preserve">
<style type="text/css">
	.st0{fill:url(#SVGID_1_);}
</style>
<linearGradient id="SVGID_1_" gradientUnits="userSpaceOnUse" x1="54.655" y1="75" x2="185.345" y2="75">
	<stop  offset="0" style="stop-color:#ED7F22"/>
	<stop  offset="1" style="stop-color:#F19549"/>
</linearGradient>
<path class="st0" d="M151.05,80.54V66.29H83.05v33.94c0,2.38,1.93,4.32,4.32,4.32h36.94c0.09-0.31,0.16-0.62,0.25-0.92
	c1.43-4.5,3.77-8.59,6.81-12.05c-0.12,0.02-0.24,0.04-0.36,0.04h0c-1.33,0-2.42-1.09-2.42-2.42s1.09-2.42,2.42-2.42
	c1.33,0,2.42,1.09,2.42,2.42c0,0.1-0.02,0.19-0.03,0.28C138.16,84.91,144.25,81.71,151.05,80.54z M93.94,99.73L93.94,99.73
	c-1.33,0-2.42-1.09-2.42-2.42s1.09-2.42,2.42-2.42c1.33,0,2.42,1.09,2.42,2.42S95.27,99.73,93.94,99.73z M93.94,91.62L93.94,91.62
	c-1.33,0-2.42-1.09-2.42-2.42s1.09-2.42,2.42-2.42c1.33,0,2.42,1.09,2.42,2.42S95.27,91.62,93.94,91.62z M93.94,83.51L93.94,83.51
	c-1.33,0-2.42-1.09-2.42-2.42c0-1.33,1.09-2.42,2.42-2.42c1.33,0,2.42,1.09,2.42,2.42S95.27,83.51,93.94,83.51z M93.94,75.4
	L93.94,75.4c-1.33,0-2.42-1.09-2.42-2.42c0-1.33,1.09-2.42,2.42-2.42c1.33,0,2.42,1.09,2.42,2.42C96.35,74.32,95.27,75.4,93.94,75.4
	z M103.67,99.73L103.67,99.73c-1.33,0-2.42-1.09-2.42-2.42s1.09-2.42,2.42-2.42c1.33,0,2.42,1.09,2.42,2.42S105,99.73,103.67,99.73z
	 M103.67,91.62L103.67,91.62c-1.33,0-2.42-1.09-2.42-2.42s1.09-2.42,2.42-2.42c1.33,0,2.42,1.09,2.42,2.42S105,91.62,103.67,91.62z
	 M103.67,83.51L103.67,83.51c-1.33,0-2.42-1.09-2.42-2.42c0-1.33,1.09-2.42,2.42-2.42c1.33,0,2.42,1.09,2.42,2.42
	S105,83.51,103.67,83.51z M103.67,75.4L103.67,75.4c-1.33,0-2.42-1.09-2.42-2.42c0-1.33,1.09-2.42,2.42-2.42
	c1.33,0,2.42,1.09,2.42,2.42C106.08,74.32,105,75.4,103.67,75.4z M113.4,99.73L113.4,99.73c-1.33,0-2.42-1.09-2.42-2.42
	s1.09-2.42,2.42-2.42c1.33,0,2.42,1.09,2.42,2.42S114.73,99.73,113.4,99.73z M113.4,91.62L113.4,91.62c-1.33,0-2.42-1.09-2.42-2.42
	s1.09-2.42,2.42-2.42c1.33,0,2.42,1.09,2.42,2.42S114.73,91.62,113.4,91.62z M113.4,83.51L113.4,83.51c-1.33,0-2.42-1.09-2.42-2.42
	c0-1.33,1.09-2.42,2.42-2.42c1.33,0,2.42,1.09,2.42,2.42S114.73,83.51,113.4,83.51z M113.4,75.4L113.4,75.4
	c-1.33,0-2.42-1.09-2.42-2.42c0-1.33,1.09-2.42,2.42-2.42c1.33,0,2.42,1.09,2.42,2.42C115.82,74.32,114.73,75.4,113.4,75.4z
	 M122.44,99.73L122.44,99.73c-1.33,0-2.42-1.09-2.42-2.42s1.09-2.42,2.42-2.42c1.33,0,2.42,1.09,2.42,2.42
	S123.77,99.73,122.44,99.73z M122.44,91.62L122.44,91.62c-1.33,0-2.42-1.09-2.42-2.42s1.09-2.42,2.42-2.42
	c1.33,0,2.42,1.09,2.42,2.42S123.77,91.62,122.44,91.62z M122.44,83.51L122.44,83.51c-1.33,0-2.42-1.09-2.42-2.42
	s1.09-2.42,2.42-2.42c1.33,0,2.42,1.09,2.42,2.42C124.86,82.42,123.77,83.51,122.44,83.51z M122.44,75.4L122.44,75.4
	c-1.33,0-2.42-1.09-2.42-2.42c0-1.33,1.09-2.42,2.42-2.42c1.33,0,2.42,1.09,2.42,2.42C124.86,74.32,123.77,75.4,122.44,75.4z
	 M140.74,70.57c1.33,0,2.42,1.09,2.42,2.42c0,1.33-1.09,2.42-2.42,2.42h0c-1.33,0-2.42-1.09-2.42-2.42
	C138.33,71.66,139.41,70.57,140.74,70.57z M140.74,78.68c1.33,0,2.42,1.09,2.42,2.42c0,1.33-1.09,2.42-2.42,2.42l0,0
	c-1.33,0-2.42-1.09-2.42-2.42S139.41,78.68,140.74,78.68z M131.01,70.57c1.33,0,2.42,1.09,2.42,2.42c0,1.33-1.09,2.42-2.42,2.42h0
	c-1.33,0-2.42-1.09-2.42-2.42C128.59,71.66,129.68,70.57,131.01,70.57z M131.01,83.51L131.01,83.51c-1.33,0-2.42-1.09-2.42-2.42
	s1.09-2.42,2.42-2.42c1.33,0,2.42,1.09,2.42,2.42C133.43,82.42,132.34,83.51,131.01,83.51z M89.08,50.73c0,2.68,2.19,4.87,4.86,4.87
	c2.68,0,4.87-2.19,4.87-4.87c0-1.79-0.99-3.37-2.45-4.21v4.44c0,0.66-0.27,1.27-0.71,1.7c-0.43,0.44-1.04,0.71-1.71,0.71
	c-1.33,0-2.42-1.09-2.42-2.41v-4.44C90.07,47.37,89.08,48.95,89.08,50.73z M135.3,50.73c0,2.68,2.19,4.87,4.87,4.87
	c2.67,0,4.86-2.19,4.86-4.87c0-1.79-0.99-3.37-2.44-4.21v4.44c0,1.32-1.09,2.41-2.42,2.41c-0.67,0-1.27-0.27-1.71-0.71
	c-0.44-0.43-0.71-1.04-0.71-1.7v-4.44C136.29,47.37,135.3,48.95,135.3,50.73z M156.8,85.34c-0.15,0-0.3,0-0.45,0.01
	c-1.82,0.02-3.59,0.22-5.31,0.57c-2.83,0.58-5.5,1.58-7.96,2.93c-0.99,0.54-1.94,1.14-2.85,1.8c-4.52,3.22-8.05,7.73-10.07,12.99
	c-0.66,1.7-1.15,3.47-1.47,5.31c-0.28,1.6-0.43,3.25-0.43,4.93c0,15.76,12.78,28.54,28.54,28.54c15.76,0,28.54-12.78,28.54-28.54
	S172.57,85.34,156.8,85.34z M158.97,93.25c1.11-1.11,2.88-1.89,4.61-2.05c0.79-0.07,1.49,0.51,1.56,1.3
	c0.07,0.79-0.51,1.49-1.3,1.56c-1.31,0.12-2.35,0.74-2.86,1.23c-1.79,1.77-2.17,3.64-2.21,4.7c-0.2-0.05-0.4-0.09-0.6-0.12
	c-0.13-0.02-0.26-0.03-0.38-0.05c-0.06-0.01-0.12-0.02-0.18-0.02c-0.04-0.01-0.09-0.01-0.13-0.01c-0.08-0.01-0.15-0.01-0.23-0.01
	c-0.01,0-0.01,0-0.01,0c-0.07,0-0.13,0-0.2,0h-0.08c-0.01,0-0.01,0-0.02,0c-0.18,0-0.36,0.01-0.54,0.02c-0.06,0-0.12,0.01-0.18,0.02
	c-0.1,0.01-0.2,0.02-0.3,0.03C155.99,98.24,156.55,95.63,158.97,93.25z M153.45,102.98c0,0,0.01-0.01,0.02-0.02
	c0.05-0.04,0.1-0.08,0.15-0.12c0.03-0.02,0.06-0.05,0.09-0.07c0.27-0.21,0.56-0.38,0.88-0.53c0.29-0.14,0.59-0.26,0.9-0.34
	c0.11-0.03,0.23-0.05,0.35-0.08c0.03-0.01,0.06-0.01,0.09-0.02c0.06-0.01,0.11-0.03,0.17-0.04c0.29-0.05,0.58-0.07,0.89-0.07h0.04
	c0.03,0,0.05,0,0.07,0c0.02,0,0.03,0,0.05,0c0.1,0,0.21,0.01,0.31,0.01c0.72,0.06,1.39,0.25,2.01,0.54c0.01,0,0.01,0.01,0.02,0.01
	c0.02,0.01,0.03,0.02,0.05,0.03c0.3,0.15,0.58,0.32,0.85,0.52c1.37,1.02,2.25,2.65,2.25,4.49c0,0.18-0.01,0.36-0.03,0.54
	c0,0.02-0.01,0.05-0.01,0.07c-0.02,0.17-0.04,0.34-0.08,0.51c0,0,0,0,0,0.01c-0.04,0.18-0.08,0.35-0.13,0.52
	c0,0.02-0.01,0.03-0.01,0.05c-0.05,0.15-0.1,0.3-0.17,0.45c-0.01,0.02-0.01,0.04-0.02,0.05c-0.07,0.16-0.14,0.32-0.23,0.47
	c0,0,0,0,0,0.01c-0.08,0.14-0.16,0.28-0.25,0.42c-0.02,0.03-0.03,0.05-0.05,0.07c-0.19,0.27-0.4,0.53-0.63,0.76
	c-0.03,0.03-0.05,0.05-0.08,0.08c-0.1,0.1-0.2,0.19-0.31,0.28c-0.02,0.02-0.04,0.04-0.06,0.05c-0.13,0.1-0.26,0.2-0.39,0.29
	c-0.03,0.02-0.05,0.04-0.08,0.05c-0.11,0.07-0.23,0.15-0.35,0.21c-0.03,0.02-0.06,0.04-0.09,0.05c-0.03,0.01-0.05,0.03-0.08,0.04
	c0,0,0,0,0,0c-1.14-0.92-2.56-1.51-4.11-1.63c-0.03,0-0.06,0-0.09,0c-0.56-2.03-1.96-3.73-3.8-4.69c0,0,0,0,0,0
	c0-0.01,0.01-0.02,0.01-0.03c0.04-0.15,0.09-0.31,0.14-0.45c0.03-0.08,0.06-0.15,0.09-0.22c0.03-0.08,0.07-0.17,0.1-0.25
	c0.03-0.07,0.07-0.14,0.1-0.21c0.04-0.09,0.09-0.17,0.14-0.26c0.03-0.06,0.06-0.11,0.1-0.17c0.09-0.14,0.18-0.28,0.28-0.41
	c0.05-0.06,0.09-0.12,0.14-0.19c0,0,0,0,0,0c0.03-0.04,0.07-0.08,0.1-0.12c0.08-0.08,0.15-0.16,0.23-0.25
	c0.02-0.02,0.03-0.03,0.05-0.05l0.03-0.03l0.02-0.02C153.21,103.19,153.33,103.08,153.45,102.98z M160.5,118.16
	c0,0.19-0.01,0.38-0.03,0.57c0,0.02-0.01,0.05-0.01,0.07c-0.02,0.16-0.04,0.32-0.07,0.48c-0.01,0.06-0.03,0.11-0.04,0.17
	c-0.03,0.12-0.06,0.24-0.09,0.36c-0.02,0.07-0.05,0.14-0.07,0.21c-0.03,0.1-0.07,0.2-0.11,0.3c-0.03,0.08-0.07,0.16-0.11,0.24
	c-0.04,0.08-0.07,0.16-0.12,0.24c-0.05,0.09-0.1,0.17-0.15,0.26c-0.04,0.06-0.07,0.13-0.12,0.19c-0.06,0.09-0.13,0.19-0.2,0.28
	c-0.04,0.05-0.07,0.1-0.11,0.14c-0.08,0.1-0.16,0.19-0.25,0.29c-0.03,0.03-0.06,0.07-0.09,0.1c-0.1,0.1-0.2,0.2-0.3,0.29
	c-0.02,0.02-0.04,0.04-0.07,0.06c-0.12,0.1-0.23,0.19-0.36,0.29c-0.01,0.01-0.03,0.02-0.04,0.03c-0.13,0.1-0.27,0.19-0.41,0.27
	c0,0-0.01,0.01-0.01,0.01c-0.75,0.44-1.61,0.72-2.53,0.77c-0.11,0.01-0.21,0.02-0.32,0.02c-2.45,0-4.53-1.57-5.3-3.75
	c-0.14-0.4-0.23-0.82-0.28-1.25c-0.02-0.2-0.04-0.41-0.04-0.61v-0.03c0-1.25,0.43-2.39,1.12-3.33c0.04-0.06,0.09-0.12,0.13-0.18
	c0.03-0.04,0.07-0.08,0.11-0.12c0.09-0.11,0.18-0.21,0.27-0.3c0.01-0.01,0.03-0.03,0.04-0.04c0.11-0.11,0.23-0.22,0.36-0.33
	c0.01,0,0.01-0.01,0.02-0.02c0.08-0.06,0.15-0.13,0.23-0.19c0.23-0.18,0.48-0.33,0.75-0.47c0.04-0.02,0.09-0.04,0.13-0.06
	c0.29-0.14,0.59-0.26,0.9-0.34c0.11-0.03,0.23-0.05,0.35-0.08c0.01,0,0.02,0,0.03-0.01h0c0.02,0,0.03,0,0.05-0.01
	c0.03-0.01,0.06-0.01,0.1-0.02c0.03-0.01,0.05-0.01,0.08-0.01c0.29-0.05,0.58-0.07,0.89-0.07h0.04c0.04,0,0.09,0,0.12,0h0.04
	c0.01,0,0.01,0,0.02,0c0.08,0,0.17,0,0.25,0.01c0.11,0.01,0.22,0.02,0.33,0.04c0.42,0.05,0.82,0.16,1.19,0.3c0.01,0,0.01,0,0.02,0
	c0.03,0.01,0.05,0.02,0.08,0.03c0.16,0.06,0.32,0.14,0.48,0.22c0.05,0.02,0.1,0.05,0.15,0.07c0.17,0.09,0.33,0.19,0.49,0.3
	c0.05,0.03,0.09,0.06,0.14,0.1c0.16,0.12,0.31,0.24,0.46,0.37c0.03,0.02,0.05,0.05,0.08,0.08c0.13,0.12,0.25,0.24,0.36,0.37
	c0.02,0.03,0.05,0.05,0.07,0.08c0.02,0.02,0.03,0.04,0.04,0.06c0.04,0.05,0.09,0.11,0.13,0.16c0.05,0.06,0.1,0.12,0.14,0.18
	c0.09,0.12,0.17,0.24,0.24,0.37c0.02,0.03,0.04,0.07,0.06,0.1c0.06,0.1,0.11,0.2,0.16,0.31c0.02,0.04,0.04,0.09,0.06,0.13
	c0.05,0.1,0.09,0.2,0.13,0.3c0.02,0.05,0.03,0.09,0.05,0.14c0.04,0.1,0.07,0.21,0.1,0.31c0.01,0.05,0.03,0.09,0.04,0.14
	c0.03,0.11,0.05,0.22,0.08,0.34c0.01,0.04,0.02,0.09,0.03,0.13c0.02,0.13,0.04,0.26,0.05,0.39c0,0.03,0.01,0.06,0.01,0.09
	C160.5,117.83,160.5,118,160.5,118.16z M148.24,98.02c2.09,0,3.9,1.16,4.84,2.87c-0.08,0.05-0.16,0.11-0.24,0.17
	c-0.09,0.06-0.18,0.12-0.27,0.18c-0.01,0.01-0.02,0.02-0.03,0.03c-0.04,0.03-0.08,0.06-0.12,0.09c-0.04,0.03-0.07,0.06-0.11,0.09
	l-0.05,0.04l-0.02,0.02c-0.02,0.02-0.04,0.04-0.06,0.06c-0.13,0.11-0.26,0.23-0.39,0.35c-0.01,0.01-0.03,0.02-0.04,0.03l-0.05,0.05
	c-0.02,0.02-0.05,0.05-0.07,0.08c-0.1,0.1-0.19,0.2-0.28,0.31c-0.01,0.01-0.01,0.02-0.02,0.02l-0.02,0.02
	c-0.04,0.04-0.08,0.09-0.11,0.13c-0.07,0.08-0.12,0.15-0.17,0.22l-0.01,0.01l-0.02,0.03c-0.09,0.13-0.18,0.26-0.27,0.39
	c-0.05,0.07-0.1,0.14-0.14,0.22c0,0,0,0,0,0c-0.36,0.59-0.63,1.22-0.81,1.87c-0.35-0.08-0.7-0.13-1.07-0.16
	c-0.11-0.01-0.25-0.01-0.38-0.02c-0.07,0-0.13-0.01-0.2-0.01h-0.07c-0.4,0-0.79,0.03-1.17,0.1c-0.07,0.01-0.15,0.03-0.22,0.04h0.01
	c-0.05,0.01-0.09,0.02-0.12,0.02l-0.07,0.01c-0.11,0.02-0.25,0.05-0.41,0.1c-0.41,0.11-0.81,0.26-1.22,0.46
	c-0.41,0.2-0.81,0.44-1.19,0.72c-0.01,0.01-0.01,0.01-0.02,0.02c-0.11-0.16-0.22-0.33-0.3-0.51c-0.4-0.76-0.62-1.63-0.62-2.55
	C142.72,100.49,145.19,98.02,148.24,98.02z M143.73,116.12c-0.07-0.09-0.14-0.18-0.2-0.27c-0.04-0.05-0.07-0.1-0.11-0.16
	c-0.06-0.09-0.12-0.19-0.17-0.29c-0.03-0.06-0.06-0.11-0.09-0.17c-0.05-0.1-0.1-0.2-0.15-0.3c-0.03-0.06-0.05-0.12-0.08-0.18
	c-0.04-0.11-0.08-0.21-0.12-0.32c-0.02-0.06-0.04-0.12-0.06-0.18c-0.03-0.12-0.06-0.23-0.09-0.35c-0.01-0.06-0.03-0.11-0.04-0.17
	c-0.03-0.14-0.05-0.27-0.06-0.41c-0.01-0.04-0.01-0.08-0.02-0.13c-0.02-0.18-0.03-0.37-0.03-0.56c0-0.59,0.1-1.15,0.26-1.68
	c0.01-0.04,0.02-0.08,0.03-0.11c0,0,0,0,0-0.01c0.19-0.56,0.47-1.08,0.82-1.55c0.02-0.02,0.03-0.04,0.05-0.07
	c0.03-0.04,0.06-0.08,0.09-0.12c0.03-0.04,0.07-0.08,0.11-0.12c0.04-0.05,0.09-0.1,0.14-0.15c0.04-0.05,0.09-0.1,0.13-0.14
	l0.04-0.04c0.01-0.01,0.02-0.02,0.03-0.02c0.11-0.11,0.22-0.21,0.33-0.31c0.01,0,0.01-0.01,0.02-0.01c0,0,0,0,0.01,0
	c0.04-0.04,0.08-0.07,0.12-0.1c0.04-0.03,0.07-0.06,0.11-0.09c0.27-0.21,0.56-0.38,0.88-0.53c0.29-0.14,0.59-0.26,0.9-0.34
	c0.09-0.03,0.18-0.04,0.27-0.06c0.03-0.01,0.06-0.01,0.09-0.02c0.03,0,0.06-0.01,0.08-0.02c0,0,0,0,0,0
	c0.06-0.01,0.11-0.03,0.17-0.04c0.29-0.05,0.58-0.07,0.89-0.07h0.04c0.04,0,0.09,0,0.13,0c0.05,0,0.11,0.01,0.16,0.01
	c0.05,0,0.09,0,0.14,0.01c0.16,0.01,0.32,0.03,0.47,0.06c0.01,0,0.01,0,0.02,0c0.15,0.03,0.3,0.06,0.45,0.1
	c0.18,0.04,0.36,0.1,0.53,0.16c0,0,0,0,0,0c0.17,0.06,0.33,0.13,0.5,0.21c0.02,0.01,0.03,0.02,0.04,0.02
	c0.13,0.06,0.26,0.13,0.38,0.21c0.04,0.02,0.08,0.05,0.12,0.07c0.1,0.06,0.2,0.13,0.29,0.2c0.03,0.02,0.07,0.04,0.1,0.07
	c0,0,0,0,0.01,0.01c0.88,0.66,1.56,1.57,1.93,2.63c-0.04,0.01-0.07,0.01-0.1,0.02l-0.07,0.01c-0.11,0.02-0.25,0.05-0.41,0.09
	c-0.03,0.01-0.06,0.01-0.09,0.02c-0.38,0.11-0.75,0.25-1.14,0.44c-0.22,0.11-0.44,0.23-0.66,0.36c-0.18,0.11-0.36,0.23-0.53,0.36
	c-0.09,0.07-0.17,0.13-0.26,0.21l-0.05,0.04l-0.03,0.02c-0.17,0.14-0.33,0.29-0.49,0.44l-0.05,0.05c-0.12,0.13-0.24,0.26-0.37,0.41
	l-0.01,0.02c-0.04,0.04-0.08,0.09-0.11,0.13c-0.06,0.08-0.11,0.15-0.17,0.22l-0.03,0.03c-0.97,1.3-1.49,2.86-1.49,4.49v0.04
	c-0.05-0.01-0.1-0.02-0.15-0.03c-0.1-0.02-0.21-0.03-0.31-0.06c-0.08-0.02-0.16-0.04-0.23-0.06c-0.09-0.02-0.18-0.05-0.27-0.08
	c-0.09-0.03-0.18-0.07-0.27-0.1c-0.07-0.03-0.14-0.05-0.21-0.08c-0.32-0.14-0.63-0.3-0.92-0.5c-0.03-0.02-0.07-0.05-0.1-0.07
	c-0.11-0.08-0.22-0.15-0.32-0.24c-0.04-0.03-0.08-0.07-0.12-0.1c-0.09-0.08-0.18-0.16-0.27-0.24c-0.04-0.04-0.08-0.08-0.12-0.13
	c-0.08-0.08-0.16-0.17-0.23-0.26C143.8,116.22,143.77,116.17,143.73,116.12z M149.34,126.73c-0.04,0.04-0.08,0.09-0.11,0.13
	c-0.06,0.08-0.11,0.15-0.17,0.22l-0.02,0.04c-0.58,0.78-1,1.65-1.24,2.57c-2.19-0.76-3.77-2.84-3.77-5.3c0-1.26,0.42-2.41,1.12-3.35
	c0.05-0.06,0.09-0.12,0.14-0.18c0.03-0.04,0.07-0.08,0.1-0.12c0.09-0.1,0.18-0.2,0.27-0.3c0.01-0.01,0.03-0.03,0.04-0.04
	c0.12-0.11,0.24-0.22,0.36-0.33c0.01-0.01,0.01-0.01,0.02-0.02c0.05-0.04,0.1-0.08,0.16-0.13c0.45,0.12,0.92,0.19,1.39,0.22
	c0.57,2.1,2.04,3.84,3.96,4.77c-0.34,0.17-0.67,0.38-0.99,0.61c-0.09,0.07-0.17,0.14-0.26,0.21l-0.05,0.04l-0.03,0.02
	c-0.17,0.14-0.33,0.29-0.49,0.45l-0.05,0.05c-0.12,0.12-0.24,0.26-0.37,0.41L149.34,126.73z M156.2,137.1
	c-0.37,0.07-0.74,0.11-1.13,0.11c-3.1,0-5.61-2.51-5.61-5.61c0-0.28,0.02-0.55,0.06-0.81c0,0,0,0,0-0.01
	c0.04-0.27,0.1-0.53,0.18-0.78c0.19-0.64,0.49-1.23,0.88-1.75c0.04-0.06,0.09-0.12,0.14-0.19c0.03-0.04,0.07-0.08,0.1-0.12
	c0.09-0.1,0.18-0.2,0.27-0.3l0.04-0.04c0.11-0.11,0.23-0.22,0.36-0.33c0,0,0.01-0.01,0.02-0.01c0.08-0.07,0.15-0.13,0.23-0.19
	c0.27-0.21,0.56-0.38,0.88-0.53c0.29-0.14,0.59-0.26,0.9-0.34c0.12-0.03,0.24-0.05,0.35-0.08c0.03-0.01,0.06-0.01,0.09-0.02
	c0.06-0.01,0.11-0.03,0.17-0.04c0.29-0.05,0.58-0.07,0.89-0.07h0.04c0.02,0,0.03,0,0.05,0c0.03,0,0.05,0,0.08,0
	c0.1,0,0.2,0.01,0.3,0.01c0.16,0.01,0.32,0.03,0.47,0.06c0.01,0,0.01,0,0.02,0c0.15,0.02,0.29,0.06,0.44,0.09
	c0.01,0,0.03,0.01,0.04,0.01c0.15,0.04,0.31,0.09,0.46,0.14c0,0,0,0,0,0c0.15,0.05,0.3,0.11,0.44,0.18
	c1.95,0.88,3.31,2.83,3.31,5.11C160.68,134.32,158.76,136.58,156.2,137.1z M162.54,130.77c-0.29-2.58-1.9-4.8-4.16-5.91
	c1.34-0.68,2.44-1.76,3.15-3.08c0.15-0.29,0.29-0.58,0.41-0.89c0.07-0.17,0.13-0.35,0.18-0.54c0.54,0.16,1.04,0.41,1.49,0.71
	c0.37,0.25,0.7,0.54,1,0.87c0.89,0.98,1.42,2.27,1.42,3.69C166.04,127.97,164.59,129.97,162.54,130.77z M165.17,119.85
	c-0.79-0.65-1.73-1.12-2.74-1.39c0-0.07,0-0.14,0-0.21c0-0.53-0.06-1.04-0.17-1.54c-0.22-1.09-0.67-2.11-1.31-2.98
	c0.99-0.61,1.82-1.43,2.44-2.41c0.82,0.32,1.71,0.49,2.65,0.49c0.69,0,1.36-0.1,2-0.28c0.59,0.88,0.94,1.94,0.94,3.08
	C168.98,117.05,167.39,119.13,165.17,119.85z M168.61,109.26c-0.31,0.17-0.64,0.3-0.98,0.4c-0.42,0.12-0.85,0.21-1.31,0.23h0
	c-0.09,0-0.19,0-0.28,0c-0.65,0-1.26-0.11-1.84-0.32c0.23-0.72,0.35-1.48,0.35-2.27c0-2.46-1.21-4.67-3.07-6.05
	c0.99-1.45,2.66-2.4,4.55-2.4c3.05,0,5.52,2.47,5.52,5.52C171.56,106.49,170.37,108.34,168.61,109.26z M123.24,109.87H87.38
	c-5.32,0-9.63-4.32-9.63-9.63V49.41c0-5.31,4.31-9.63,9.63-9.63h4.14v-5.23c0-1.32,1.09-2.41,2.42-2.41c1.33,0,2.42,1.09,2.42,2.41
	v5.23h41.39v-5.23c0-1.32,1.09-2.41,2.42-2.41c1.33,0,2.42,1.09,2.42,2.41v5.23h4.15c5.31,0,9.62,4.32,9.62,9.63v30.66
	c0.15-0.01,0.3-0.01,0.45-0.01c7.72,0,14.82,2.58,20.52,6.93c1.5-5.38,2.33-11.04,2.33-16.9c0-34.52-27.98-62.5-62.5-62.5
	c-34.52,0-62.5,27.98-62.5,62.5c0,34.51,27.98,62.5,62.5,62.5c3.7,0,7.33-0.35,10.86-0.96c-3.19-5.16-5.03-11.24-5.03-17.75
	C122.98,112.52,123.09,111.18,123.24,109.87z"/>
</svg>
