<?xml version="1.0" encoding="utf-8"?>
<!-- Generator: Adobe Illustrator 23.1.1, SVG Export Plug-In . SVG Version: 6.00 Build 0)  -->
<svg version="1.1" id="Layer_5" xmlns="http://www.w3.org/2000/svg" xmlns:xlink="http://www.w3.org/1999/xlink" x="0px" y="0px"
	 viewBox="0 0 240 150" style="enable-background:new 0 0 240 150;" xml:space="preserve">
<style type="text/css">
	.st0{fill:#606060;}
	.st1{fill:url(#SVGID_1_);}
	.st2{fill:url(#SVGID_2_);}
</style>
<g>
	<path class="st0" d="M115.85,150c-0.03,0-0.07,0-0.1,0c-2.59-0.04-4.84-1.79-5.53-4.29l-13.45-48.9l-6.96,13.93
		c-0.99,1.98-3.01,3.23-5.22,3.23H52.61c-3.23,0-5.84-2.61-5.84-5.84c0-3.23,2.61-5.84,5.84-5.84h28.36l12.16-24.33
		c1.08-2.16,3.39-3.45,5.79-3.2c2.41,0.24,4.42,1.93,5.06,4.26l12.21,44.42l7.32-23.41c0.68-2.19,2.58-3.77,4.86-4.05
		c2.27-0.28,4.5,0.79,5.7,2.74L145,116.53l5.98-11.16c1.02-1.9,2.99-3.08,5.15-3.08h31.27c3.23,0,5.84,2.61,5.84,5.84
		c0,3.23-2.61,5.84-5.84,5.84h-27.77l-9.14,17.06c-0.99,1.84-2.89,3.02-4.98,3.08c-2.08,0.07-4.06-1-5.15-2.79l-9.52-15.53
		l-9.41,30.12C120.66,148.34,118.4,150,115.85,150z"/>
	<g>
		<linearGradient id="SVGID_1_" gradientUnits="userSpaceOnUse" x1="52.6098" y1="51.0433" x2="187.3908" y2="51.0433">
			<stop  offset="0" style="stop-color:#ED7F22"/>
			<stop  offset="1" style="stop-color:#F19549"/>
		</linearGradient>
		<path class="st1" d="M62.31,63.32h4.62c-0.04,0.45-0.07,0.94-0.07,1.39v30.38h9.66l10.18-20.36c2.22-4.44,6.68-7.2,11.63-7.2
			c0.44,0,0.88,0.02,1.32,0.07c5.3,0.52,9.84,4.34,11.26,9.51l5.72,20.81l0.01-0.05c1.52-4.87,5.77-8.42,10.83-9.04
			c0.52-0.07,1.07-0.1,1.6-0.1c4.5,0,8.75,2.38,11.11,6.22l4.37,7.13l0.06-0.12c2.27-4.24,6.67-6.88,11.48-6.88h17V64.72
			c0-0.45-0.04-0.94-0.07-1.39h4.63c11.19,0,12.98-13.6,4.01-20.6l-51.3-37.47c-9-7-12.01-7-20.97,0L58.33,42.72
			C49.33,49.72,51.16,63.32,62.31,63.32z"/>
	</g>
	<linearGradient id="SVGID_2_" gradientUnits="userSpaceOnUse" x1="46.769" y1="112.3613" x2="193.231" y2="112.3613">
		<stop  offset="0" style="stop-color:#ED7F22"/>
		<stop  offset="1" style="stop-color:#F19549"/>
	</linearGradient>
	<path class="st2" d="M115.85,150c-0.03,0-0.07,0-0.1,0c-2.59-0.04-4.84-1.79-5.53-4.29l-13.45-48.9l-6.96,13.93
		c-0.99,1.98-3.01,3.23-5.22,3.23H52.61c-3.23,0-5.84-2.61-5.84-5.84c0-3.23,2.61-5.84,5.84-5.84h28.36l12.16-24.33
		c1.08-2.16,3.39-3.45,5.79-3.2c2.41,0.24,4.42,1.93,5.06,4.26l12.21,44.42l7.32-23.41c0.68-2.19,2.58-3.77,4.86-4.05
		c2.27-0.28,4.5,0.79,5.7,2.74L145,116.53l5.98-11.16c1.02-1.9,2.99-3.08,5.15-3.08h31.27c3.23,0,5.84,2.61,5.84,5.84
		c0,3.23-2.61,5.84-5.84,5.84h-27.77l-9.14,17.06c-0.99,1.84-2.89,3.02-4.98,3.08c-2.08,0.07-4.06-1-5.15-2.79l-9.52-15.53
		l-9.41,30.12C120.66,148.34,118.4,150,115.85,150z"/>
</g>
</svg>
