<?xml version="1.0" encoding="utf-8"?>
<!-- Generator: Adobe Illustrator 23.1.1, SVG Export Plug-In . SVG Version: 6.00 Build 0)  -->
<svg version="1.1" id="Layer_13" xmlns="http://www.w3.org/2000/svg" xmlns:xlink="http://www.w3.org/1999/xlink" x="0px" y="0px"
	 viewBox="0 0 240 150" style="enable-background:new 0 0 240 150;" xml:space="preserve">
<style type="text/css">
	.st0{fill:url(#SVGID_1_);}
	.st1{fill:url(#SVGID_2_);}
	.st2{fill:url(#SVGID_3_);}
	.st3{fill:url(#SVGID_4_);}
	.st4{fill:url(#SVGID_5_);}
	.st5{fill:url(#SVGID_6_);}
	.st6{fill:url(#SVGID_7_);}
	.st7{fill:url(#SVGID_8_);}
	.st8{fill:url(#SVGID_9_);}
	.st9{fill:url(#SVGID_10_);}
	.st10{fill:url(#SVGID_11_);}
	.st11{fill:url(#SVGID_12_);}
	.st12{fill:url(#SVGID_13_);}
</style>
<g>
	<linearGradient id="SVGID_1_" gradientUnits="userSpaceOnUse" x1="57.4878" y1="75" x2="116.7439" y2="75">
		<stop  offset="0" style="stop-color:#ED7F22"/>
		<stop  offset="1" style="stop-color:#F19549"/>
	</linearGradient>
	<path class="st0" d="M90.38,67.9c2.62,3.73,6.95,6.17,11.86,6.17c8.01,0,14.5-6.49,14.5-14.5c0-8.01-6.49-14.5-14.5-14.5
		c-4.91,0-9.24,2.44-11.86,6.17c-1.64-3.03-4.16-5.51-7.2-7.13c2.93-1.62,5.33-4.08,6.88-7.05c2.58,4,7.07,6.66,12.18,6.66
		c8.01,0,14.5-6.49,14.5-14.5c0-8.01-6.49-14.5-14.5-14.5c-5.12,0-9.6,2.66-12.18,6.66c-2.84-5.44-8.52-9.16-15.07-9.16
		c-9.39,0-17,7.61-17,17c0,6.42,3.56,12,8.8,14.89c-5.53,2.94-9.3,8.76-9.3,15.46c0,6.5,3.55,12.16,8.81,15.17
		c-5.26,3.02-8.81,8.68-8.81,15.18s3.55,12.16,8.81,15.17c-5.26,3.02-8.81,8.68-8.81,15.18c0,9.67,7.84,17.5,17.5,17.5
		c6.65,0,12.43-3.71,15.4-9.17c2.62,3.73,6.95,6.17,11.86,6.17c8.01,0,14.5-6.49,14.5-14.5c0-8.01-6.49-14.5-14.5-14.5
		c-4.91,0-9.24,2.44-11.86,6.17c-1.55-2.86-3.88-5.23-6.7-6.85c2.82-1.62,5.15-3.99,6.7-6.85c2.62,3.73,6.95,6.17,11.86,6.17
		c8.01,0,14.5-6.49,14.5-14.5s-6.49-14.5-14.5-14.5c-4.91,0-9.24,2.44-11.86,6.17c-1.55-2.86-3.88-5.23-6.7-6.85
		C86.5,73.13,88.83,70.76,90.38,67.9z"/>
	<linearGradient id="SVGID_2_" gradientUnits="userSpaceOnUse" x1="119" y1="120.2751" x2="140" y2="120.2751">
		<stop  offset="0" style="stop-color:#ED7F22"/>
		<stop  offset="1" style="stop-color:#F19549"/>
	</linearGradient>
	<circle class="st1" cx="129.5" cy="120.28" r="10.5"/>
	<linearGradient id="SVGID_3_" gradientUnits="userSpaceOnUse" x1="119" y1="89.9251" x2="140" y2="89.9251">
		<stop  offset="0" style="stop-color:#ED7F22"/>
		<stop  offset="1" style="stop-color:#F19549"/>
	</linearGradient>
	<circle class="st2" cx="129.5" cy="89.93" r="10.5"/>
	<linearGradient id="SVGID_4_" gradientUnits="userSpaceOnUse" x1="119" y1="59.575" x2="140" y2="59.575">
		<stop  offset="0" style="stop-color:#ED7F22"/>
		<stop  offset="1" style="stop-color:#F19549"/>
	</linearGradient>
	<circle class="st3" cx="129.5" cy="59.57" r="10.5"/>
	<linearGradient id="SVGID_5_" gradientUnits="userSpaceOnUse" x1="119" y1="29.2249" x2="140" y2="29.2249">
		<stop  offset="0" style="stop-color:#ED7F22"/>
		<stop  offset="1" style="stop-color:#F19549"/>
	</linearGradient>
	<circle class="st4" cx="129.5" cy="29.22" r="10.5"/>
	<linearGradient id="SVGID_6_" gradientUnits="userSpaceOnUse" x1="147.7561" y1="120.2751" x2="161.7561" y2="120.2751">
		<stop  offset="0" style="stop-color:#ED7F22"/>
		<stop  offset="1" style="stop-color:#F19549"/>
	</linearGradient>
	<circle class="st5" cx="154.76" cy="120.28" r="7"/>
	<linearGradient id="SVGID_7_" gradientUnits="userSpaceOnUse" x1="147.7561" y1="89.9251" x2="161.7561" y2="89.9251">
		<stop  offset="0" style="stop-color:#ED7F22"/>
		<stop  offset="1" style="stop-color:#F19549"/>
	</linearGradient>
	<circle class="st6" cx="154.76" cy="89.93" r="7"/>
	<linearGradient id="SVGID_8_" gradientUnits="userSpaceOnUse" x1="147.7561" y1="59.575" x2="161.7561" y2="59.575">
		<stop  offset="0" style="stop-color:#ED7F22"/>
		<stop  offset="1" style="stop-color:#F19549"/>
	</linearGradient>
	<circle class="st7" cx="154.76" cy="59.57" r="7"/>
	<linearGradient id="SVGID_9_" gradientUnits="userSpaceOnUse" x1="147.7561" y1="29.2249" x2="161.7561" y2="29.2249">
		<stop  offset="0" style="stop-color:#ED7F22"/>
		<stop  offset="1" style="stop-color:#F19549"/>
	</linearGradient>
	<circle class="st8" cx="154.76" cy="29.22" r="7"/>
	<linearGradient id="SVGID_10_" gradientUnits="userSpaceOnUse" x1="173.5122" y1="120.2751" x2="182.5122" y2="120.2751">
		<stop  offset="0" style="stop-color:#ED7F22"/>
		<stop  offset="1" style="stop-color:#F19549"/>
	</linearGradient>
	<circle class="st9" cx="178.01" cy="120.28" r="4.5"/>
	<linearGradient id="SVGID_11_" gradientUnits="userSpaceOnUse" x1="173.5122" y1="89.9251" x2="182.5122" y2="89.9251">
		<stop  offset="0" style="stop-color:#ED7F22"/>
		<stop  offset="1" style="stop-color:#F19549"/>
	</linearGradient>
	<circle class="st10" cx="178.01" cy="89.93" r="4.5"/>
	<linearGradient id="SVGID_12_" gradientUnits="userSpaceOnUse" x1="173.5122" y1="59.575" x2="182.5122" y2="59.575">
		<stop  offset="0" style="stop-color:#ED7F22"/>
		<stop  offset="1" style="stop-color:#F19549"/>
	</linearGradient>
	<circle class="st11" cx="178.01" cy="59.57" r="4.5"/>
	<linearGradient id="SVGID_13_" gradientUnits="userSpaceOnUse" x1="173.5122" y1="29.2249" x2="182.5122" y2="29.2249">
		<stop  offset="0" style="stop-color:#ED7F22"/>
		<stop  offset="1" style="stop-color:#F19549"/>
	</linearGradient>
	<circle class="st12" cx="178.01" cy="29.22" r="4.5"/>
</g>
</svg>
