<?xml version="1.0" encoding="utf-8"?>
<!-- Generator: Adobe Illustrator 23.1.1, SVG Export Plug-In . SVG Version: 6.00 Build 0)  -->
<svg version="1.1" id="Layer_11" xmlns="http://www.w3.org/2000/svg" xmlns:xlink="http://www.w3.org/1999/xlink" x="0px" y="0px"
	 viewBox="0 0 240 150" style="enable-background:new 0 0 240 150;" xml:space="preserve">
<style type="text/css">
	.st0{fill:url(#SVGID_1_);}
	.st1{fill:url(#SVGID_2_);}
	.st2{fill:url(#SVGID_3_);}
	.st3{fill:url(#SVGID_4_);}
	.st4{fill:url(#SVGID_5_);}
	.st5{fill:url(#SVGID_6_);}
	.st6{fill:url(#SVGID_7_);}
	.st7{fill:url(#SVGID_8_);}
</style>
<g>
	<linearGradient id="SVGID_1_" gradientUnits="userSpaceOnUse" x1="83.7697" y1="77.5305" x2="121.5918" y2="115.3525">
		<stop  offset="0" style="stop-color:#ED7F22"/>
		<stop  offset="1" style="stop-color:#F19549"/>
	</linearGradient>
	<path class="st0" d="M107.87,100.76V65.95c0-2.85-2.34-5.19-5.19-5.19c-2.85,0-5.19,2.34-5.19,5.19v34.81
		c-5.32,2.08-9.1,7.24-9.1,13.3c0,7.89,6.4,14.29,14.29,14.29s14.29-6.4,14.29-14.29C116.97,108,113.19,102.84,107.87,100.76z"/>
	<linearGradient id="SVGID_2_" gradientUnits="userSpaceOnUse" x1="62.3501" y1="36.8016" x2="143.013" y2="117.4644">
		<stop  offset="0" style="stop-color:#ED7F22"/>
		<stop  offset="1" style="stop-color:#F19549"/>
	</linearGradient>
	<path class="st1" d="M123.31,91.02V25.62c0-11.38-9.26-20.62-20.62-20.62c-11.38,0-20.62,9.25-20.62,20.62v65.39
		c-6.33,5.67-10.32,13.9-10.32,23.04c0,17.06,13.88,30.94,30.94,30.94c17.05,0,30.94-13.88,30.94-30.94
		C133.62,104.92,129.64,96.68,123.31,91.02z M102.68,134.62c-11.34,0-20.56-9.23-20.56-20.56c0-2.83,0.58-5.54,1.63-8
		c1.7-4.05,4.68-7.43,8.42-9.66V25.62c0-5.8,4.71-10.51,10.51-10.51c5.79,0,10.51,4.71,10.51,10.51v70.77
		c3.74,2.24,6.71,5.63,8.42,9.66c1.05,2.46,1.63,5.17,1.63,8C123.24,125.39,114.02,134.62,102.68,134.62z"/>
	<linearGradient id="SVGID_3_" gradientUnits="userSpaceOnUse" x1="130.4519" y1="14.3082" x2="144.4737" y2="28.3301">
		<stop  offset="0" style="stop-color:#ED7F22"/>
		<stop  offset="1" style="stop-color:#F19549"/>
	</linearGradient>
	<path class="st2" d="M132.67,29.56h9.87c0.95,0,1.71-0.77,1.71-1.71c0-0.95-0.77-1.71-1.71-1.71h-6.07c3.39-3.54,7.47-6,7.48-9.73
		c-0.01-6.14-8.54-7.77-12.08-3.48c-0.27,0.33-0.44,0.74-0.44,1.2c0,1.03,0.84,1.87,1.87,1.87c0.62,0,1.16-0.3,1.49-0.77
		c1.52-2.16,5.33-1.59,5.34,1.17c0.01,2.99-4.39,3.87-8.82,10.4c-0.22,0.29-0.35,0.65-0.35,1.04
		C130.95,28.79,131.72,29.56,132.67,29.56z"/>
	<linearGradient id="SVGID_4_" gradientUnits="userSpaceOnUse" x1="145.1193" y1="14.3082" x2="159.1411" y2="28.33">
		<stop  offset="0" style="stop-color:#ED7F22"/>
		<stop  offset="1" style="stop-color:#F19549"/>
	</linearGradient>
	<path class="st3" d="M147.33,29.56h9.87c0.95,0,1.71-0.77,1.71-1.71c0-0.95-0.77-1.71-1.71-1.71h-6.07c3.39-3.54,7.47-6,7.48-9.73
		c-0.01-6.14-8.54-7.77-12.08-3.48c-0.27,0.33-0.44,0.74-0.44,1.2c0,1.03,0.84,1.87,1.87,1.87c0.62,0,1.16-0.3,1.49-0.77
		c1.52-2.16,5.33-1.59,5.34,1.17c0.01,2.99-4.39,3.87-8.82,10.4c-0.22,0.29-0.35,0.65-0.35,1.04
		C145.62,28.79,146.39,29.56,147.33,29.56z"/>
	<linearGradient id="SVGID_5_" gradientUnits="userSpaceOnUse" x1="161.7453" y1="11.6731" x2="167.1732" y2="17.1009">
		<stop  offset="0" style="stop-color:#ED7F22"/>
		<stop  offset="1" style="stop-color:#F19549"/>
	</linearGradient>
	<path class="st4" d="M164.46,18.2c2.1,0,3.8-1.59,3.8-3.81s-1.7-3.81-3.8-3.81c-2.1,0-3.8,1.59-3.8,3.81S162.36,18.2,164.46,18.2z
		 M164.46,12.43c0.96,0,1.73,0.82,1.73,1.96c0,1.14-0.77,1.96-1.73,1.96c-0.96,0-1.73-0.82-1.73-1.96
		C162.73,13.24,163.5,12.43,164.46,12.43z"/>
	<linearGradient id="SVGID_6_" gradientUnits="userSpaceOnUse" x1="139.2355" y1="51.894" x2="159.2285" y2="71.887">
		<stop  offset="0" style="stop-color:#ED7F22"/>
		<stop  offset="1" style="stop-color:#F19549"/>
	</linearGradient>
	<path class="st5" d="M163.35,57.73h-28.24c-2.29,0-4.16,1.87-4.16,4.16l0,0c0,2.29,1.87,4.16,4.16,4.16h28.24
		c2.29,0,4.16-1.87,4.16-4.16C167.51,59.6,165.64,57.73,163.35,57.73z"/>
	<linearGradient id="SVGID_7_" gradientUnits="userSpaceOnUse" x1="135.0602" y1="38.1478" x2="146.7026" y2="49.7902">
		<stop  offset="0" style="stop-color:#ED7F22"/>
		<stop  offset="1" style="stop-color:#F19549"/>
	</linearGradient>
	<path class="st6" d="M135.11,48.13h11.54c2.29,0,4.16-1.87,4.16-4.16c0-2.29-1.87-4.16-4.16-4.16h-11.54
		c-2.29,0-4.16,1.87-4.16,4.16h0C130.95,46.26,132.82,48.13,135.11,48.13z"/>
	<linearGradient id="SVGID_8_" gradientUnits="userSpaceOnUse" x1="135.0602" y1="75.2285" x2="146.7026" y2="86.8709">
		<stop  offset="0" style="stop-color:#ED7F22"/>
		<stop  offset="1" style="stop-color:#F19549"/>
	</linearGradient>
	<path class="st7" d="M146.65,76.89h-11.54c-2.29,0-4.16,1.87-4.16,4.16h0c0,2.29,1.87,4.16,4.16,4.16l11.54,0
		c2.29,0,4.16-1.87,4.16-4.16C150.81,78.76,148.94,76.89,146.65,76.89z"/>
</g>
</svg>
