<?xml version="1.0" encoding="utf-8"?>
<!-- Generator: Adobe Illustrator 23.1.1, SVG Export Plug-In . SVG Version: 6.00 Build 0)  -->
<svg version="1.1" id="Layer_12" xmlns="http://www.w3.org/2000/svg" xmlns:xlink="http://www.w3.org/1999/xlink" x="0px" y="0px"
	 viewBox="0 0 240 150" style="enable-background:new 0 0 240 150;" xml:space="preserve">
<style type="text/css">
	.st0{fill:url(#SVGID_1_);}
	.st1{fill:url(#SVGID_2_);}
	.st2{fill:url(#SVGID_3_);}
	.st3{fill:url(#SVGID_4_);}
</style>
<g>
	<linearGradient id="SVGID_1_" gradientUnits="userSpaceOnUse" x1="57.6961" y1="21.356" x2="181.6871" y2="21.356">
		<stop  offset="0" style="stop-color:#ED7F22"/>
		<stop  offset="1" style="stop-color:#F19549"/>
	</linearGradient>
	<path class="st0" d="M60.23,30.53h118.93c1.4,0,2.53-1.13,2.53-2.53V14.71c0-1.4-1.13-2.53-2.53-2.53h-3.86
		c-1.4,0-2.53,1.13-2.53,2.53v4.22c0,1.26-0.86,2.43-2.11,2.63c-1.59,0.26-2.96-0.96-2.96-2.5v-4.36c0-1.4-1.13-2.53-2.53-2.53
		H145.4h-3.47h-0.39c-1.4,0-2.53,1.13-2.53,2.53v4.22c0,1.26-0.86,2.43-2.11,2.63c-1.58,0.26-2.95-0.96-2.95-2.5v-4.36
		c0-1.4-1.13-2.53-2.53-2.53h-0.21h-23.04h-0.21c-1.4,0-2.53,1.13-2.53,2.53v4.36c0,1.4-1.13,2.53-2.53,2.53
		c-1.4,0-2.53-1.13-2.53-2.53v-4.36c0-1.4-1.13-2.53-2.53-2.53h-0.39h-3.47H74.21c-1.4,0-2.53,1.13-2.53,2.53v4.22
		c0,1.26-0.86,2.43-2.11,2.63c-1.59,0.26-2.96-0.96-2.96-2.5v-4.36c0-1.4-1.13-2.53-2.53-2.53h-3.86c-1.4,0-2.53,1.13-2.53,2.53V28
		C57.7,29.4,58.83,30.53,60.23,30.53z"/>
	<linearGradient id="SVGID_2_" gradientUnits="userSpaceOnUse" x1="185.486" y1="100.2005" x2="205.4627" y2="100.2005">
		<stop  offset="0" style="stop-color:#ED7F22"/>
		<stop  offset="1" style="stop-color:#F19549"/>
	</linearGradient>
	<path class="st1" d="M185.49,140.74c0,2.35,1.91,4.26,4.26,4.26h11.46c2.35,0,4.26-1.91,4.26-4.26V55.4h-19.98V140.74z"/>
	<linearGradient id="SVGID_3_" gradientUnits="userSpaceOnUse" x1="34.3347" y1="100.2003" x2="54.3113" y2="100.2003">
		<stop  offset="0" style="stop-color:#ED7F22"/>
		<stop  offset="1" style="stop-color:#F19549"/>
	</linearGradient>
	<path class="st2" d="M34.33,140.74c0,2.35,1.91,4.26,4.26,4.26h11.46c2.35,0,4.26-1.91,4.26-4.26V55.4H34.33V140.74z"/>
	<linearGradient id="SVGID_4_" gradientUnits="userSpaceOnUse" x1="16.5836" y1="74.9032" x2="223.4164" y2="74.9032">
		<stop  offset="0" style="stop-color:#ED7F22"/>
		<stop  offset="1" style="stop-color:#F19549"/>
	</linearGradient>
	<path class="st3" d="M223.38,42.34c-0.38-3.99-3.96-6.93-7.98-6.93h-12.25v-22.4c0-4.01-2.93-7.6-6.93-7.98
		c-4.58-0.44-8.44,3.15-8.44,7.65v22.73H52.01v-22.4c0-4.01-2.93-7.6-6.93-7.98c-4.58-0.44-8.44,3.15-8.44,7.65v22.73H24.6
		c-4.01,0-7.6,2.93-7.98,6.93c-0.44,4.58,3.15,8.44,7.65,8.44h36.71c0.22,0.29,30.16,30.3,30.16,30.3v55.72
		c0,4.01,2.93,7.6,6.93,7.98c4.58,0.44,8.44-3.15,8.44-7.65V50.97c0-0.07-0.02-0.13-0.02-0.19h29.27c0,0.07-0.02,0.13-0.02,0.19
		v85.82c0,4.01,2.93,7.6,6.93,7.98c4.58,0.44,8.44-3.15,8.44-7.65V81.31c0,0,30.17-30.23,30.39-30.53h34.24
		C220.23,50.78,223.82,46.93,223.38,42.34z M91.14,50.97v8.38l-8.58-8.57h8.6C91.16,50.85,91.14,50.91,91.14,50.97z M151.1,59.59
		v-8.61c0-0.07-0.02-0.13-0.02-0.19h8.83L151.1,59.59z"/>
</g>
</svg>
