<?xml version="1.0" encoding="utf-8"?>
<!-- Generator: Adobe Illustrator 23.1.1, SVG Export Plug-In . SVG Version: 6.00 Build 0)  -->
<svg version="1.1" id="Layer_5" xmlns="http://www.w3.org/2000/svg" xmlns:xlink="http://www.w3.org/1999/xlink" x="0px" y="0px"
	 viewBox="0 0 240 150" style="enable-background:new 0 0 240 150;" xml:space="preserve">
<style type="text/css">
	.st0{fill:url(#SVGID_1_);}
	.st1{fill:url(#SVGID_2_);}
	.st2{fill:url(#SVGID_3_);}
	.st3{fill:url(#SVGID_4_);}
	.st4{fill:url(#SVGID_5_);}
	.st5{fill:url(#SVGID_6_);}
	.st6{fill:url(#SVGID_7_);}
	.st7{fill:url(#SVGID_8_);}
	.st8{fill:url(#SVGID_9_);}
</style>
<g>
	<linearGradient id="SVGID_1_" gradientUnits="userSpaceOnUse" x1="82.0281" y1="75" x2="157.6186" y2="75">
		<stop  offset="0" style="stop-color:#ED7F22"/>
		<stop  offset="1" style="stop-color:#F19549"/>
	</linearGradient>
	<path class="st0" d="M153.31,68.52c-0.22,0-18.22-0.07-18.22-0.07l9.68-56.14c0.01-0.04,0.01-0.08,0.02-0.12
		c0.74-4.6-2.99-7.95-5.52-4.99l-56.14,65.4c-2.31,2.7-0.86,8.87,3.38,8.87c0.22,0,18.22,0.07,18.22,0.07l-9.68,56.14
		c-0.01,0.04-0.01,0.08-0.02,0.12c-0.74,4.6,2.99,7.95,5.52,4.99l56.14-65.4C159.01,74.69,156.64,68.52,153.31,68.52z"/>
	<linearGradient id="SVGID_2_" gradientUnits="userSpaceOnUse" x1="118.2011" y1="79.7802" x2="181.7448" y2="79.7802">
		<stop  offset="0" style="stop-color:#ED7F22"/>
		<stop  offset="1" style="stop-color:#F19549"/>
	</linearGradient>
	<path class="st1" d="M150.67,24.03l-0.89,5.09c-0.12,0.66,0.17,1.32,0.72,1.7C164.45,40.53,173.6,56.73,173.6,75
		c0,28.25-21.81,51.45-49.46,53.62c-0.44,0.03-0.86,0.24-1.15,0.57l-4.36,4.95c-0.96,1.09-0.2,2.82,1.24,2.82c0.01,0,0.02,0,0.04,0
		c34.16,0,61.83-27.73,61.83-61.96c0-21.89-11.35-41.11-28.45-52.12C152.26,22.21,150.88,22.81,150.67,24.03z"/>
	<g>
		<linearGradient id="SVGID_3_" gradientUnits="userSpaceOnUse" x1="79.6464" y1="26.8543" x2="95.7249" y2="26.8543">
			<stop  offset="0" style="stop-color:#ED7F22"/>
			<stop  offset="1" style="stop-color:#F19549"/>
		</linearGradient>
		<path class="st2" d="M91.29,20.06c-3.92,2.05-7.6,4.5-10.97,7.3c-0.84,0.7-0.91,1.96-0.14,2.73l3.23,3.23
			c0.68,0.68,1.75,0.71,2.49,0.1c2.73-2.25,5.69-4.23,8.83-5.9c0.84-0.45,1.22-1.45,0.86-2.33l-1.72-4.21
			C93.46,19.98,92.26,19.56,91.29,20.06z"/>
		<linearGradient id="SVGID_4_" gradientUnits="userSpaceOnUse" x1="65.0213" y1="42.5639" x2="78.7749" y2="42.5639">
			<stop  offset="0" style="stop-color:#ED7F22"/>
			<stop  offset="1" style="stop-color:#F19549"/>
		</linearGradient>
		<path class="st3" d="M72.7,49.4c1.62-2.99,3.51-5.81,5.65-8.42c0.6-0.74,0.57-1.81-0.11-2.48l-3.23-3.23
			c-0.76-0.76-2.01-0.72-2.7,0.1c-2.71,3.26-5.09,6.79-7.09,10.56c-0.5,0.95-0.06,2.12,0.93,2.53l4.21,1.76
			C71.24,50.62,72.24,50.24,72.7,49.4z"/>
		<linearGradient id="SVGID_5_" gradientUnits="userSpaceOnUse" x1="64.7855" y1="107.2048" x2="78.7874" y2="107.2048">
			<stop  offset="0" style="stop-color:#ED7F22"/>
			<stop  offset="1" style="stop-color:#F19549"/>
		</linearGradient>
		<path class="st4" d="M70.15,99.3l-4.23,1.73c-1.01,0.41-1.43,1.61-0.92,2.57c2.04,3.92,4.49,7.59,7.29,10.96
			c0.7,0.84,1.96,0.91,2.73,0.14l3.23-3.23c0.68-0.68,0.71-1.74,0.11-2.48c-2.23-2.73-4.21-5.69-5.88-8.83
			C72.04,99.32,71.04,98.94,70.15,99.3z"/>
		<linearGradient id="SVGID_6_" gradientUnits="userSpaceOnUse" x1="100.5045" y1="18.2966" x2="121.7571" y2="18.2966">
			<stop  offset="0" style="stop-color:#ED7F22"/>
			<stop  offset="1" style="stop-color:#F19549"/>
		</linearGradient>
		<path class="st5" d="M102.35,22.4c0.35,0.87,1.31,1.34,2.21,1.07c0.93-0.28,1.86-0.53,2.81-0.75c2.95-0.74,5.98-1.2,9.08-1.39
			c0.53-0.03,1.01-0.29,1.34-0.7l3.58-4.62c0.93-1.2,0.09-2.96-1.42-2.96c-0.01,0-0.02,0-0.04,0c-4.76,0-9.44,0.58-13.91,1.59
			c-1.42,0.32-2.81,0.7-4.19,1.13c-1.04,0.32-1.58,1.46-1.17,2.46L102.35,22.4z"/>
		<linearGradient id="SVGID_7_" gradientUnits="userSpaceOnUse" x1="79.6544" y1="121.7691" x2="90.1734" y2="121.7691">
			<stop  offset="0" style="stop-color:#ED7F22"/>
			<stop  offset="1" style="stop-color:#F19549"/>
		</linearGradient>
		<path class="st6" d="M80.3,122.58c1.95,1.63,4,3.14,6.14,4.52c1.1,0.71,2.58,0.08,2.82-1.21l0.89-4.83
			c0.13-0.71-0.17-1.43-0.77-1.84c-1.2-0.83-2.35-1.72-3.48-2.65c-0.74-0.61-1.81-0.58-2.49,0.1l-3.21,3.21
			C79.44,120.64,79.48,121.9,80.3,122.58z"/>
		<linearGradient id="SVGID_8_" gradientUnits="userSpaceOnUse" x1="58.2552" y1="86.5276" x2="68.5068" y2="86.5276">
			<stop  offset="0" style="stop-color:#ED7F22"/>
			<stop  offset="1" style="stop-color:#F19549"/>
		</linearGradient>
		<path class="st7" d="M68.43,90.28c-0.95-3.2-1.6-6.53-1.94-9.94c-0.09-0.95-0.87-1.68-1.83-1.68H60.1c-1.07,0-1.93,0.91-1.84,1.98
			c0.39,4.3,1.22,8.48,2.44,12.49c0.31,1.02,1.46,1.54,2.45,1.14l4.22-1.73C68.25,92.17,68.7,91.2,68.43,90.28z"/>
		<linearGradient id="SVGID_9_" gradientUnits="userSpaceOnUse" x1="58.2652" y1="63.2136" x2="68.6582" y2="63.2136">
			<stop  offset="0" style="stop-color:#ED7F22"/>
			<stop  offset="1" style="stop-color:#F19549"/>
		</linearGradient>
		<path class="st8" d="M66.49,69.66c0.35-3.58,1.06-7.06,2.08-10.4c0.28-0.91-0.16-1.89-1.04-2.26l-4.21-1.77
			c-1.01-0.42-2.15,0.12-2.47,1.17c-1.3,4.13-2.17,8.45-2.58,12.91c-0.1,1.09,0.74,2.03,1.83,2.03h4.56
			C65.62,71.34,66.4,70.61,66.49,69.66z"/>
	</g>
</g>
</svg>
