<?xml version="1.0" encoding="utf-8"?>
<!-- Generator: Adobe Illustrator 23.1.1, SVG Export Plug-In . SVG Version: 6.00 Build 0)  -->
<svg version="1.1" id="Layer_15" xmlns="http://www.w3.org/2000/svg" xmlns:xlink="http://www.w3.org/1999/xlink" x="0px" y="0px"
	 viewBox="0 0 240 150" style="enable-background:new 0 0 240 150;" xml:space="preserve">
<style type="text/css">
	.st0{fill:url(#SVGID_1_);}
	.st1{fill:url(#SVGID_2_);}
	.st2{fill:url(#SVGID_3_);}
	.st3{fill:url(#SVGID_4_);}
	.st4{fill:url(#SVGID_5_);}
	.st5{fill:url(#SVGID_6_);}
	.st6{fill:url(#SVGID_7_);}
	.st7{fill:url(#SVGID_8_);}
	.st8{fill:url(#SVGID_9_);}
	.st9{fill:url(#SVGID_10_);}
	.st10{fill:url(#SVGID_11_);}
	.st11{fill:url(#SVGID_12_);}
	.st12{fill:url(#SVGID_13_);}
</style>
<g>
	<linearGradient id="SVGID_1_" gradientUnits="userSpaceOnUse" x1="45" y1="115.2019" x2="61.0388" y2="115.2019">
		<stop  offset="0" style="stop-color:#ED7F22"/>
		<stop  offset="1" style="stop-color:#F19549"/>
	</linearGradient>
	<path class="st0" d="M46.73,122.57h12.59c1.01,0,1.8-0.86,1.72-1.86l-0.89-11.28c-0.07-0.9-0.82-1.59-1.72-1.59H47.61
		c-0.9,0-1.65,0.69-1.72,1.59l-0.89,11.28C44.93,121.71,45.72,122.57,46.73,122.57z"/>
	<linearGradient id="SVGID_2_" gradientUnits="userSpaceOnUse" x1="178.9613" y1="115.2019" x2="195" y2="115.2019">
		<stop  offset="0" style="stop-color:#ED7F22"/>
		<stop  offset="1" style="stop-color:#F19549"/>
	</linearGradient>
	<path class="st1" d="M192.39,107.84h-10.82c-0.9,0-1.65,0.69-1.72,1.59l-0.89,11.28c-0.08,1,0.71,1.86,1.72,1.86h12.59
		c1.01,0,1.8-0.86,1.72-1.86l-0.89-11.28C194.04,108.53,193.29,107.84,192.39,107.84z"/>
	<linearGradient id="SVGID_3_" gradientUnits="userSpaceOnUse" x1="111.9807" y1="115.3786" x2="128.0195" y2="115.3786">
		<stop  offset="0" style="stop-color:#ED7F22"/>
		<stop  offset="1" style="stop-color:#F19549"/>
	</linearGradient>
	<path class="st2" d="M125.41,108.01h-10.82c-0.9,0-1.65,0.69-1.72,1.59l-0.89,11.28c-0.08,1,0.71,1.86,1.72,1.86h12.59
		c1.01,0,1.8-0.86,1.72-1.86l-0.89-11.28C127.06,108.71,126.31,108.01,125.41,108.01z"/>
	<linearGradient id="SVGID_4_" gradientUnits="userSpaceOnUse" x1="64.8616" y1="115.2019" x2="108.0234" y2="115.2019">
		<stop  offset="0" style="stop-color:#ED7F22"/>
		<stop  offset="1" style="stop-color:#F19549"/>
	</linearGradient>
	<path class="st3" d="M68.31,107.84c-2.01,0-3.59,1.71-3.43,3.71l0.62,7.84c0.14,1.79,1.64,3.17,3.43,3.17h35.04
		c1.8,0,3.29-1.38,3.43-3.17l0.62-7.84c0.16-2-1.42-3.71-3.43-3.71H68.31z"/>
	<linearGradient id="SVGID_5_" gradientUnits="userSpaceOnUse" x1="131.9766" y1="115.2019" x2="175.1385" y2="115.2019">
		<stop  offset="0" style="stop-color:#ED7F22"/>
		<stop  offset="1" style="stop-color:#F19549"/>
	</linearGradient>
	<path class="st4" d="M135.42,107.84c-2.01,0-3.59,1.71-3.43,3.71l0.62,7.84c0.14,1.79,1.64,3.17,3.43,3.17h35.04
		c1.8,0,3.29-1.38,3.43-3.17l0.62-7.84c0.16-2-1.42-3.71-3.43-3.71H135.42z"/>
	<linearGradient id="SVGID_6_" gradientUnits="userSpaceOnUse" x1="45.0333" y1="102.1714" x2="194.9667" y2="102.1714">
		<stop  offset="0" style="stop-color:#ED7F22"/>
		<stop  offset="1" style="stop-color:#F19549"/>
	</linearGradient>
	<path class="st5" d="M46.27,103.41h147.46c0.68,0,1.24-0.56,1.24-1.24c0-0.68-0.56-1.24-1.24-1.24H46.27
		c-0.68,0-1.24,0.56-1.24,1.24C45.03,102.85,45.59,103.41,46.27,103.41z"/>
	<linearGradient id="SVGID_7_" gradientUnits="userSpaceOnUse" x1="45.0333" y1="128.8455" x2="194.9667" y2="128.8455">
		<stop  offset="0" style="stop-color:#ED7F22"/>
		<stop  offset="1" style="stop-color:#F19549"/>
	</linearGradient>
	<path class="st6" d="M193.73,127.61H46.27c-0.68,0-1.24,0.56-1.24,1.24s0.56,1.24,1.24,1.24h147.46c0.68,0,1.24-0.56,1.24-1.24
		S194.41,127.61,193.73,127.61z"/>
	<linearGradient id="SVGID_8_" gradientUnits="userSpaceOnUse" x1="143.9387" y1="24.7916" x2="155.3371" y2="24.7916">
		<stop  offset="0" style="stop-color:#ED7F22"/>
		<stop  offset="1" style="stop-color:#F19549"/>
	</linearGradient>
	<path class="st7" d="M154.02,27.62c1.76-1.76,1.76-4.63,0-6.39l0,0c-1.76-1.76-4.63-1.76-6.39,0l-3.69,3.69
		c2.81,1.35,5.5,2.94,8.04,4.74L154.02,27.62z"/>
	<linearGradient id="SVGID_9_" gradientUnits="userSpaceOnUse" x1="83.8044" y1="85.7975" x2="96.8618" y2="85.7975">
		<stop  offset="0" style="stop-color:#ED7F22"/>
		<stop  offset="1" style="stop-color:#F19549"/>
	</linearGradient>
	<path class="st8" d="M85.12,83.74c-1.76,1.76-1.76,4.63,0,6.39h0c1.76,1.76,4.63,1.76,6.39,0l5.35-5.35
		c-2.84-1.31-5.57-2.86-8.14-4.63L85.12,83.74z"/>
	<linearGradient id="SVGID_10_" gradientUnits="userSpaceOnUse" x1="74.9279" y1="50.6086" x2="139.6114" y2="50.6086">
		<stop  offset="0" style="stop-color:#ED7F22"/>
		<stop  offset="1" style="stop-color:#F19549"/>
	</linearGradient>
	<path class="st9" d="M92.86,76.01l10.18-10.18c-2.11-3.21-3.35-7.04-3.35-11.17c0-11.23,9.1-20.32,20.32-20.32
		c4.13,0,7.96,1.24,11.17,3.35l8.45-8.45c-6.01-2.6-12.64-4.04-19.61-4.04c-19.88,0-37.02,11.72-44.89,28.63
		c-0.24,0.51-0.24,1.11,0,1.63C79.01,63.86,85.19,70.97,92.86,76.01z"/>
	<linearGradient id="SVGID_11_" gradientUnits="userSpaceOnUse" x1="101.2219" y1="58.9526" x2="165.0721" y2="58.9526">
		<stop  offset="0" style="stop-color:#ED7F22"/>
		<stop  offset="1" style="stop-color:#F19549"/>
	</linearGradient>
	<path class="st10" d="M137.41,44.23c1.83,3.05,2.91,6.61,2.91,10.44c0,11.22-9.1,20.32-20.32,20.32c-3.82,0-7.38-1.07-10.44-2.91
		l-8.34,8.34c5.79,2.38,12.13,3.69,18.78,3.69c19.88,0,37.02-11.72,44.89-28.63c0.24-0.51,0.24-1.11,0-1.63
		c-3.78-8.13-9.71-15.05-17.04-20.05L137.41,44.23z"/>
	<linearGradient id="SVGID_12_" gradientUnits="userSpaceOnUse" x1="106.9933" y1="51.0657" x2="125.8254" y2="51.0657">
		<stop  offset="0" style="stop-color:#ED7F22"/>
		<stop  offset="1" style="stop-color:#F19549"/>
	</linearGradient>
	<path class="st11" d="M106.99,54.66c0,2.1,0.51,4.07,1.39,5.82l17.44-17.44c-1.75-0.88-3.73-1.39-5.83-1.39
		C112.82,41.65,106.99,47.47,106.99,54.66z"/>
	<linearGradient id="SVGID_13_" gradientUnits="userSpaceOnUse" x1="114.9832" y1="58.6514" x2="133.007" y2="58.6514">
		<stop  offset="0" style="stop-color:#ED7F22"/>
		<stop  offset="1" style="stop-color:#F19549"/>
	</linearGradient>
	<path class="st12" d="M133.01,54.66c0-1.78-0.36-3.47-1.01-5.02l-17.02,17.02c1.54,0.65,3.24,1.01,5.02,1.01
		C127.18,67.66,133.01,61.84,133.01,54.66z"/>
</g>
</svg>
