<?xml version="1.0" encoding="utf-8"?>
<!-- Generator: Adobe Illustrator 23.1.1, SVG Export Plug-In . SVG Version: 6.00 Build 0)  -->
<svg version="1.1" id="Layer_4" xmlns="http://www.w3.org/2000/svg" xmlns:xlink="http://www.w3.org/1999/xlink" x="0px" y="0px"
	 viewBox="0 0 240 150" style="enable-background:new 0 0 240 150;" xml:space="preserve">
<style type="text/css">
	.st0{fill:url(#SVGID_1_);}
	.st1{fill:url(#SVGID_2_);}
	.st2{fill:url(#SVGID_3_);}
	.st3{fill:url(#SVGID_4_);}
	.st4{fill:url(#SVGID_5_);}
	.st5{fill:url(#SVGID_6_);}
	.st6{fill:url(#SVGID_7_);}
	.st7{fill:url(#SVGID_8_);}
	.st8{fill:url(#SVGID_9_);}
	.st9{fill:url(#SVGID_10_);}
	.st10{fill:url(#SVGID_11_);}
	.st11{fill:url(#SVGID_12_);}
	.st12{fill:url(#SVGID_13_);}
	.st13{fill:url(#SVGID_14_);}
	.st14{fill:url(#SVGID_15_);}
	.st15{fill:url(#SVGID_16_);}
</style>
<g>
	<linearGradient id="SVGID_1_" gradientUnits="userSpaceOnUse" x1="138.8039" y1="25.7729" x2="140.8366" y2="25.7729">
		<stop  offset="0" style="stop-color:#ED7F22"/>
		<stop  offset="1" style="stop-color:#F19549"/>
	</linearGradient>
	<path class="st0" d="M139.5,32.03h0.64c0.38,0,0.7-0.31,0.7-0.7V20.21c0-0.38-0.31-0.7-0.7-0.7h-0.64c-0.38,0-0.7,0.31-0.7,0.7
		v11.12C138.8,31.72,139.12,32.03,139.5,32.03z"/>
	<linearGradient id="SVGID_2_" gradientUnits="userSpaceOnUse" x1="138.8039" y1="42.8591" x2="140.8366" y2="42.8591">
		<stop  offset="0" style="stop-color:#ED7F22"/>
		<stop  offset="1" style="stop-color:#F19549"/>
	</linearGradient>
	<path class="st1" d="M139.5,49.12h0.64c0.38,0,0.7-0.31,0.7-0.7V37.3c0-0.38-0.31-0.7-0.7-0.7h-0.64c-0.38,0-0.7,0.31-0.7,0.7
		v11.12C138.8,48.8,139.12,49.12,139.5,49.12z"/>
	<linearGradient id="SVGID_3_" gradientUnits="userSpaceOnUse" x1="143.2964" y1="28.491" x2="153.9428" y2="28.491">
		<stop  offset="0" style="stop-color:#ED7F22"/>
		<stop  offset="1" style="stop-color:#F19549"/>
	</linearGradient>
	<path class="st2" d="M152.44,32.66c0.31,0.23,0.74,0.17,0.97-0.14l0.39-0.51c0.23-0.31,0.17-0.74-0.14-0.97l-8.87-6.71
		c-0.31-0.23-0.74-0.17-0.97,0.13l-0.39,0.51c-0.23,0.31-0.17,0.74,0.14,0.97L152.44,32.66z"/>
	<linearGradient id="SVGID_4_" gradientUnits="userSpaceOnUse" x1="170.5466" y1="49.1111" x2="181.1928" y2="49.1111">
		<stop  offset="0" style="stop-color:#ED7F22"/>
		<stop  offset="1" style="stop-color:#F19549"/>
	</linearGradient>
	<path class="st3" d="M181.05,52.63c0.23-0.31,0.17-0.74-0.14-0.97l-8.87-6.71c-0.31-0.23-0.74-0.17-0.97,0.14l-0.39,0.51
		c-0.23,0.31-0.17,0.74,0.14,0.97l8.87,6.71c0.31,0.23,0.74,0.17,0.97-0.14L181.05,52.63z"/>
	<linearGradient id="SVGID_5_" gradientUnits="userSpaceOnUse" x1="184.3537" y1="59.2551" x2="195" y2="59.2551">
		<stop  offset="0" style="stop-color:#ED7F22"/>
		<stop  offset="1" style="stop-color:#F19549"/>
	</linearGradient>
	<path class="st4" d="M194.72,61.8l-8.87-6.71c-0.31-0.23-0.74-0.17-0.97,0.14l-0.39,0.51c-0.23,0.31-0.17,0.74,0.14,0.97l8.87,6.71
		c0.31,0.23,0.74,0.17,0.97-0.13l0.39-0.51C195.09,62.47,195.03,62.03,194.72,61.8z"/>
	<linearGradient id="SVGID_6_" gradientUnits="userSpaceOnUse" x1="180.8036" y1="126.2465" x2="193.3157" y2="126.2465">
		<stop  offset="0" style="stop-color:#ED7F22"/>
		<stop  offset="1" style="stop-color:#F19549"/>
	</linearGradient>
	<path class="st5" d="M192.62,125.05h-3.74v-2.35c0-0.38-0.31-0.7-0.7-0.7h-0.64c-0.38,0-0.7,0.31-0.7,0.7v2.35h-5.35
		c-0.38,0-0.7,0.31-0.7,0.7v0.64c0,0.38,0.31,0.7,0.7,0.7h5.35v2.7c0,0.38,0.31,0.7,0.7,0.7h0.64c0.38,0,0.7-0.31,0.7-0.7v-2.7h3.74
		c0.38,0,0.7-0.31,0.7-0.7v-0.64C193.32,125.36,193,125.05,192.62,125.05z"/>
	<linearGradient id="SVGID_7_" gradientUnits="userSpaceOnUse" x1="186.7951" y1="95.8206" x2="188.8278" y2="95.8206">
		<stop  offset="0" style="stop-color:#ED7F22"/>
		<stop  offset="1" style="stop-color:#F19549"/>
	</linearGradient>
	<path class="st6" d="M188.83,90.26c0-0.38-0.31-0.7-0.7-0.7h-0.64c-0.38,0-0.7,0.31-0.7,0.7v11.12c0,0.38,0.31,0.7,0.7,0.7h0.64
		c0.38,0,0.7-0.31,0.7-0.7V90.26z"/>
	<linearGradient id="SVGID_8_" gradientUnits="userSpaceOnUse" x1="186.7951" y1="112.3281" x2="188.8278" y2="112.3281">
		<stop  offset="0" style="stop-color:#ED7F22"/>
		<stop  offset="1" style="stop-color:#F19549"/>
	</linearGradient>
	<path class="st7" d="M188.13,106.07h-0.64c-0.38,0-0.7,0.31-0.7,0.7v11.12c0,0.38,0.31,0.7,0.7,0.7h0.64c0.38,0,0.7-0.31,0.7-0.7
		v-11.12C188.83,106.38,188.52,106.07,188.13,106.07z"/>
	<linearGradient id="SVGID_9_" gradientUnits="userSpaceOnUse" x1="186.7951" y1="78.7344" x2="188.8278" y2="78.7344">
		<stop  offset="0" style="stop-color:#ED7F22"/>
		<stop  offset="1" style="stop-color:#F19549"/>
	</linearGradient>
	<path class="st8" d="M188.83,73.17c0-0.38-0.31-0.7-0.7-0.7h-0.64c-0.38,0-0.7,0.31-0.7,0.7v11.12c0,0.38,0.31,0.7,0.7,0.7h0.64
		c0.38,0,0.7-0.31,0.7-0.7V73.17z"/>
	<linearGradient id="SVGID_10_" gradientUnits="userSpaceOnUse" x1="165.2771" y1="125.9819" x2="177.7892" y2="125.9819">
		<stop  offset="0" style="stop-color:#ED7F22"/>
		<stop  offset="1" style="stop-color:#F19549"/>
	</linearGradient>
	<path class="st9" d="M177.09,124.97h-11.12c-0.38,0-0.7,0.31-0.7,0.7v0.64c0,0.38,0.31,0.7,0.7,0.7h11.12c0.38,0,0.7-0.31,0.7-0.7
		v-0.64C177.79,125.28,177.48,124.97,177.09,124.97z"/>
	<linearGradient id="SVGID_11_" gradientUnits="userSpaceOnUse" x1="165.2771" y1="68.0151" x2="177.7892" y2="68.0151">
		<stop  offset="0" style="stop-color:#ED7F22"/>
		<stop  offset="1" style="stop-color:#F19549"/>
	</linearGradient>
	<path class="st10" d="M177.09,67h-11.12c-0.38,0-0.7,0.31-0.7,0.7v0.64c0,0.38,0.31,0.7,0.7,0.7h11.12c0.38,0,0.7-0.31,0.7-0.7
		v-0.64C177.79,67.31,177.48,67,177.09,67z"/>
	<linearGradient id="SVGID_12_" gradientUnits="userSpaceOnUse" x1="180.2114" y1="68.0151" x2="192.7234" y2="68.0151">
		<stop  offset="0" style="stop-color:#ED7F22"/>
		<stop  offset="1" style="stop-color:#F19549"/>
	</linearGradient>
	<path class="st11" d="M192.03,69.03c0.38,0,0.7-0.31,0.7-0.7v-0.64c0-0.38-0.31-0.7-0.7-0.7h-11.12c-0.38,0-0.7,0.31-0.7,0.7v0.64
		c0,0.38,0.31,0.7,0.7,0.7H192.03z"/>
	<linearGradient id="SVGID_13_" gradientUnits="userSpaceOnUse" x1="156.9215" y1="38.801" x2="167.5678" y2="38.801">
		<stop  offset="0" style="stop-color:#ED7F22"/>
		<stop  offset="1" style="stop-color:#F19549"/>
	</linearGradient>
	<path class="st12" d="M166.07,42.97c0.31,0.23,0.74,0.17,0.97-0.14l0.39-0.51c0.23-0.31,0.17-0.74-0.14-0.97l-8.87-6.71
		c-0.31-0.23-0.74-0.17-0.97,0.14l-0.39,0.51c-0.23,0.31-0.17,0.74,0.14,0.97L166.07,42.97z"/>
	<linearGradient id="SVGID_14_" gradientUnits="userSpaceOnUse" x1="148.1908" y1="125.9819" x2="160.703" y2="125.9819">
		<stop  offset="0" style="stop-color:#ED7F22"/>
		<stop  offset="1" style="stop-color:#F19549"/>
	</linearGradient>
	<path class="st13" d="M160.01,124.97h-11.12c-0.38,0-0.7,0.31-0.7,0.7v0.64c0,0.38,0.31,0.7,0.7,0.7h11.12c0.38,0,0.7-0.31,0.7-0.7
		v-0.64C160.7,125.28,160.39,124.97,160.01,124.97z"/>
	<linearGradient id="SVGID_15_" gradientUnits="userSpaceOnUse" x1="45" y1="74.6892" x2="160.703" y2="74.6892">
		<stop  offset="0" style="stop-color:#ED7F22"/>
		<stop  offset="1" style="stop-color:#F19549"/>
	</linearGradient>
	<path class="st14" d="M160.01,67h-4.93c0.25-3.31-1.26-7.08-4.63-9.72l-28.49-20.81l1.44-1.1c0.31-0.23,0.36-0.67,0.13-0.98
		l-0.39-0.51c-0.23-0.31-0.67-0.36-0.98-0.13l-1.92,1.47l-11.71-8.55c-7.35-5.72-9.81-5.72-17.13,0L49.67,57.28
		c-7.35,5.72-5.86,16.83,3.25,16.83h3.78c-0.03,0.37-0.06,0.77-0.06,1.14v43.03c0,4.8,3.75,8.71,8.32,8.71h66.83
		c0.02,0,0.05,0.01,0.07,0.01h11.12c0.38,0,0.7-0.31,0.7-0.7v-0.64c0-0.38-0.31-0.7-0.7-0.7h-2.52c1.83-1.6,2.99-4,2.99-6.69V75.25
		c0-0.37-0.03-0.77-0.06-1.14h3.78c4.04,0,6.57-2.17,7.52-5.08h5.32c0.38,0,0.7-0.31,0.7-0.7v-0.64C160.7,67.31,160.39,67,160.01,67
		z"/>
	<linearGradient id="SVGID_16_" gradientUnits="userSpaceOnUse" x1="125.9426" y1="28.0959" x2="136.5622" y2="28.0959">
		<stop  offset="0" style="stop-color:#ED7F22"/>
		<stop  offset="1" style="stop-color:#F19549"/>
	</linearGradient>
	<path class="st15" d="M126.47,32.15c0.23,0.31,0.67,0.36,0.98,0.13l8.84-6.75c0.31-0.23,0.36-0.67,0.13-0.98l-0.39-0.51
		c-0.23-0.31-0.67-0.36-0.98-0.13l-8.84,6.75c-0.31,0.23-0.36,0.67-0.13,0.98L126.47,32.15z"/>
</g>
</svg>
