<?xml version="1.0" encoding="utf-8"?>
<!-- Generator: Adobe Illustrator 23.1.1, SVG Export Plug-In . SVG Version: 6.00 Build 0)  -->
<svg version="1.1" id="Layer_1" xmlns="http://www.w3.org/2000/svg" xmlns:xlink="http://www.w3.org/1999/xlink" x="0px" y="0px"
	 viewBox="0 0 180 150" style="enable-background:new 0 0 180 150;" xml:space="preserve">
<style type="text/css">
	.st0{fill:url(#SVGID_1_);}
</style>
<g>
	<linearGradient id="SVGID_1_" gradientUnits="userSpaceOnUse" x1="15" y1="75" x2="165" y2="75">
		<stop  offset="0" style="stop-color:#ED7F22"/>
		<stop  offset="1" style="stop-color:#F19549"/>
	</linearGradient>
	<path class="st0" d="M165,104.94c-0.34,0.19-1.96,0.97-4.57,2.24c-1.51,0.67-3.38,1.49-5.49,2.45c-0.8,0.26-1.69,0.5-2.6,0.77
		c-0.03,0.03-0.09,0.03-0.11,0.06c-1.49,0.41-3.06,0.85-4.78,1.32c-2.75,0.86-5.86,1.22-9.14,1.58c-1.64,0.15-3.34,0.42-5.05,0.52
		c-1.76,0.04-3.53-0.03-5.3-0.05c-2.46,0.01-4.96-0.12-7.46-0.43c0.03-0.03,0.08-0.09,0.05-0.17c-1.16-0.07-2.27-0.2-3.43-0.33
		c-0.12,0.01-0.17,0.01-0.26-0.02c-1.25-0.15-2.56-0.36-3.82-0.63c-0.41-0.04-0.84-0.11-1.22-0.18c-3.59-0.64-7.19-1.57-10.68-2.73
		c-3.55-1.05-7.02-2.41-10.35-3.87c-3.33-1.52-6.58-3.07-9.63-4.77C75,97.34,69.5,93.77,64.96,90.42
		c-4.54-3.35-8.25-6.27-10.71-8.49c-2.52-2.16-3.88-3.47-3.88-3.47s1.08,1.55,3.32,4.07c2.24,2.4,5.45,5.98,9.83,9.68
		c4.38,3.7,9.62,7.93,15.82,11.59c6.17,3.75,13.17,7.09,20.56,9.46c3.67,1.16,7.47,2.05,11.23,2.68c2.71,0.5,5.45,0.8,8.11,0.92
		c-4.2,9.14-14.68,15.67-27.39,13.57c-6.12-1.03-12.06-2.62-17.82-4.65c3.6-1.97,7.04-4.13,10.28-6.43
		c-6.69,1.39-13.72,2.08-21,1.99c-9.98-4.81-19.15-11.11-27.16-18.61c-1.83-1.69-4.32-4.49-6.93-8.18
		c-1.12-1.26,17.27,1.86,15.73-0.4c-1.58-1.01-22.27-9.54-23.35-13.14C8.14,54.9,17.58,17.21,29.27,19.26
		c6.68,0.6,12.16,12.22,19.88,21.18c0.58,1.48,2.02,17.67,4.39,18.96c1.26,1.05,1.1-14.11,2.73-12.67
		c7.12,7.07,16.7,17.08,34.12,26.64c2.35,4.45,5.57,8.81,9.64,12.79c-1.54-3.59-2.78-7.19-3.65-10.83c1.55,0.43,3.1,0.74,4.67,1.03
		c7.76,1.54,16.95,12.53,19.82,27.41c0.22,1.03,0.34,2.04,0.36,3.05c0.64,0.09,1.28,0.24,1.95,0.36c1.69,0.34,3.43,0.33,5.09,0.52
		c1.69,0.16,3.37,0.27,4.97,0.47c1.62,0.05,3.24-0.01,4.8-0.02c3.1-0.04,6.08,0.11,8.79-0.35c2.71-0.28,5.22-0.53,7.44-0.76
		c2.21-0.46,4.13-0.86,5.71-1.18C162.79,105.29,164.57,104.98,165,104.94z"/>
</g>
</svg>
