<?xml version="1.0" encoding="utf-8"?>
<!-- Generator: Adobe Illustrator 23.1.1, SVG Export Plug-In . SVG Version: 6.00 Build 0)  -->
<svg version="1.1" id="Layer_5" xmlns="http://www.w3.org/2000/svg" xmlns:xlink="http://www.w3.org/1999/xlink" x="0px" y="0px"
	 viewBox="0 0 240 150" style="enable-background:new 0 0 240 150;" xml:space="preserve">
<style type="text/css">
	.st0{fill:url(#SVGID_1_);}
</style>
<linearGradient id="SVGID_1_" gradientUnits="userSpaceOnUse" x1="52.6092" y1="75" x2="187.3908" y2="75">
	<stop  offset="0" style="stop-color:#ED7F22"/>
	<stop  offset="1" style="stop-color:#F19549"/>
</linearGradient>
<path class="st0" d="M181.69,53.7l-51.3-37.47c-9-7-12.01-7-20.97,0L58.33,53.7c-9,7-7.17,20.6,3.98,20.6h4.62
	c-0.04,0.45-0.07,0.94-0.07,1.39v52.67c0,5.88,4.59,10.66,10.18,10.66h44.61c-0.01-0.17-0.03-0.34-0.03-0.52
	c0-0.73,0.1-1.44,0.29-2.11c-3.23-0.32-6.23-1.04-8.69-2.1c-6-2.59-6.89-6.31-6.89-8.3c0-1,0.23-2.45,1.22-3.98
	c-5.23-0.98-9.96-2.68-12.62-5.35c-1.5-1.51-1.5-3.95,0.01-5.45c1.51-1.5,3.95-1.5,5.45,0.01c1.61,1.61,8.35,4.18,19.61,4.18
	c0.84,0,1.65-0.02,2.43-0.04c0.84-0.08,1.7-0.12,2.57-0.14c7.84-0.59,12.68-2.47,14.26-3.67c-1.89-1.43-8.47-3.85-19.26-3.85
	c-8.72,0-16.97-0.95-23.22-2.68c-7.98-2.2-12.02-5.51-12.02-9.84c0-3.31,2.36-6.02,7.03-8.09c-7.87-1.95-13.97-4.71-17.46-8.09
	c-2.97-2.88-3.61-5.76-3.62-7.67c-0.03-4.38,3.04-10.67,17.79-15.73c10.18-3.5,23.67-5.63,37.97-6c15.23-0.39,29.88,1.32,40.18,4.69
	c2.02,0.66,3.12,2.84,2.46,4.86c-0.66,2.02-2.84,3.12-4.86,2.46c-9.5-3.11-23.2-4.68-37.59-4.31c-13.54,0.35-26.2,2.33-35.66,5.58
	c-9.98,3.43-12.6,6.99-12.59,8.4c0,0.78,0.7,1.62,1.28,2.18c5.15,4.99,22.77,9.71,46.56,9.16c0.19-0.03,0.37-0.06,0.57-0.06
	c7.1-0.21,13.72-1.25,18.65-2.94c3.31-1.14,4.9-2.29,5.48-2.9c-2.56-2.41-11.91-4.78-24.32-4.46c-8.84,0.23-16.42,2.15-18.53,2.73
	c-2.05,0.57-4.17-0.64-4.74-2.69s0.64-4.17,2.69-4.74c6.21-1.71,13.82-2.83,20.38-3c10.85-0.28,24.4,1.32,29.92,6.66
	c2.06,1.99,2.5,4.05,2.51,5.43c0.02,2.96-1.86,7.15-10.89,10.25c-5.53,1.9-12.79,3.08-20.48,3.34c-0.2,0.04-0.41,0.07-0.62,0.07
	c-1.51,0.04-3.01,0.06-4.49,0.06c-0.71,0-1.42,0-2.13-0.01c-0.08,0.01-0.16,0.01-0.24,0.01c-7.12,0-14,0.69-19.37,1.94
	c-4.38,1.02-6.67,2.16-7.67,2.87c1.01,0.71,3.29,1.85,7.67,2.87c5.37,1.25,12.25,1.94,19.37,1.94c13.71,0,24.08-2.5,27.23-4.96
	c1.68-1.31,4.1-1.01,5.41,0.66c1.31,1.68,1.01,4.1-0.66,5.41c-2.1,1.64-5.14,2.93-8.68,3.91c2.53,1.71,4.05,3.88,4.05,6.53
	c0,6.67-9.6,10.27-20.71,11.26c-0.28,0.06-0.56,0.1-0.86,0.1c-0.14,0-0.28,0-0.42,0c-0.82,0.06-1.65,0.1-2.49,0.13
	c-4.82,0.47-7.83,2.02-8.68,2.93c1.02,1.04,5,2.9,11.59,2.9h8.47c2.13,0,3.85,1.72,3.85,3.85c0,2.13-1.72,3.85-3.85,3.85
	c-3.29,0-4.93,1.56-4.93,1.93c0,0.1,0.14,0.29,0.38,0.52h33.27c5.59,0,10.15-4.78,10.15-10.66V75.7c0-0.45-0.04-0.94-0.07-1.39h4.63
	C188.86,74.3,190.65,60.7,181.69,53.7z"/>
</svg>
