<?xml version="1.0" encoding="utf-8"?>
<!-- Generator: Adobe Illustrator 23.1.1, SVG Export Plug-In . SVG Version: 6.00 Build 0)  -->
<svg version="1.1" id="Layer_12" xmlns="http://www.w3.org/2000/svg" xmlns:xlink="http://www.w3.org/1999/xlink" x="0px" y="0px"
	 viewBox="0 0 240 150" style="enable-background:new 0 0 240 150;" xml:space="preserve">
<style type="text/css">
	.st0{fill:url(#SVGID_1_);}
	.st1{fill:url(#SVGID_2_);}
	.st2{fill:url(#SVGID_3_);}
	.st3{fill:url(#SVGID_4_);}
	.st4{fill:url(#SVGID_5_);}
	.st5{fill:url(#SVGID_6_);}
	.st6{fill:url(#SVGID_7_);}
	.st7{fill:url(#SVGID_8_);}
	.st8{fill:url(#SVGID_9_);}
	.st9{fill:url(#SVGID_10_);}
	.st10{fill:url(#SVGID_11_);}
	.st11{fill:url(#SVGID_12_);}
	.st12{fill:url(#SVGID_13_);}
</style>
<g>
	<linearGradient id="SVGID_1_" gradientUnits="userSpaceOnUse" x1="148.3698" y1="63.8309" x2="161.3949" y2="63.8309">
		<stop  offset="0" style="stop-color:#ED7F22"/>
		<stop  offset="1" style="stop-color:#F19549"/>
	</linearGradient>
	<path class="st0" d="M159.89,67.06c2.01-2.01,2.01-5.29,0-7.3c-2.01-2.01-5.29-2.01-7.3,0l-4.22,4.22
		c3.21,1.55,6.28,3.36,9.18,5.42L159.89,67.06z"/>
	<linearGradient id="SVGID_2_" gradientUnits="userSpaceOnUse" x1="79.6541" y1="133.5426" x2="94.5748" y2="133.5426">
		<stop  offset="0" style="stop-color:#ED7F22"/>
		<stop  offset="1" style="stop-color:#F19549"/>
	</linearGradient>
	<path class="st1" d="M81.16,131.19c-2.01,2.01-2.01,5.29,0,7.3h0c2.01,2.01,5.29,2.01,7.3,0l6.11-6.11
		c-3.25-1.5-6.36-3.27-9.31-5.29L81.16,131.19z"/>
	<linearGradient id="SVGID_3_" gradientUnits="userSpaceOnUse" x1="69.5108" y1="93.332" x2="143.425" y2="93.332">
		<stop  offset="0" style="stop-color:#ED7F22"/>
		<stop  offset="1" style="stop-color:#F19549"/>
	</linearGradient>
	<path class="st2" d="M90,122.36l11.63-11.63c-2.41-3.66-3.83-8.04-3.83-12.76c0-12.83,10.4-23.22,23.22-23.22
		c4.72,0,9.1,1.41,12.76,3.83l9.65-9.65c-6.87-2.97-14.45-4.62-22.41-4.62c-22.72,0-42.3,13.39-51.3,32.72
		c-0.28,0.59-0.28,1.27,0,1.87C74.18,108.48,81.24,116.6,90,122.36z"/>
	<linearGradient id="SVGID_4_" gradientUnits="userSpaceOnUse" x1="99.5571" y1="102.8667" x2="172.519" y2="102.8667">
		<stop  offset="0" style="stop-color:#ED7F22"/>
		<stop  offset="1" style="stop-color:#F19549"/>
	</linearGradient>
	<path class="st3" d="M140.91,86.04c2.1,3.49,3.32,7.56,3.32,11.92c0,12.82-10.4,23.22-23.22,23.22c-4.37,0-8.44-1.23-11.92-3.32
		l-9.53,9.53c6.62,2.72,13.86,4.22,21.46,4.22c22.72,0,42.3-13.39,51.3-32.72c0.28-0.59,0.28-1.27,0-1.87
		c-4.32-9.29-11.09-17.19-19.47-22.91L140.91,86.04z"/>
	<linearGradient id="SVGID_5_" gradientUnits="userSpaceOnUse" x1="106.1522" y1="93.8542" x2="127.6717" y2="93.8542">
		<stop  offset="0" style="stop-color:#ED7F22"/>
		<stop  offset="1" style="stop-color:#F19549"/>
	</linearGradient>
	<path class="st4" d="M106.15,97.96c0,2.4,0.58,4.65,1.59,6.66l19.93-19.93c-2-1.01-4.26-1.59-6.66-1.59
		C112.81,83.09,106.15,89.75,106.15,97.96z"/>
	<linearGradient id="SVGID_6_" gradientUnits="userSpaceOnUse" x1="115.2822" y1="102.5226" x2="135.8781" y2="102.5226">
		<stop  offset="0" style="stop-color:#ED7F22"/>
		<stop  offset="1" style="stop-color:#F19549"/>
	</linearGradient>
	<path class="st5" d="M135.88,97.96c0-2.03-0.41-3.97-1.15-5.73l-19.45,19.45c1.76,0.74,3.7,1.15,5.73,1.15
		C129.22,112.82,135.88,106.17,135.88,97.96z"/>
	<linearGradient id="SVGID_7_" gradientUnits="userSpaceOnUse" x1="37.4585" y1="28.9414" x2="204.5714" y2="28.9414">
		<stop  offset="0" style="stop-color:#ED7F22"/>
		<stop  offset="1" style="stop-color:#F19549"/>
	</linearGradient>
	<path class="st6" d="M46.08,16.58h-5.21c-1.88,0-3.41,1.53-3.41,3.41v17.9c0,1.88,1.53,3.41,3.41,3.41h160.29
		c1.88,0,3.41-1.53,3.41-3.41v-17.9c0-1.88-1.53-3.41-3.41-3.41h-5.21c-1.88,0-3.41,1.53-3.41,3.41v5.88c0,1.88-1.53,3.41-3.41,3.41
		c-1.88,0-3.41-1.53-3.41-3.41v-5.88c0-1.88-1.53-3.41-3.41-3.41h-26.65h-4.68h-0.53c-1.88,0-3.41,1.53-3.41,3.41v5.88
		c0,1.88-1.53,3.41-3.41,3.41c-1.88,0-3.41-1.53-3.41-3.41v-5.88c0-1.88-1.53-3.41-3.41-3.41h-0.28h-31.05h-0.28
		c-1.88,0-3.41,1.53-3.41,3.41v5.88c0,1.88-1.53,3.41-3.41,3.41h0c-1.88,0-3.41-1.53-3.41-3.41v-5.88c0-1.88-1.53-3.41-3.41-3.41
		h-0.53h-4.68H59.72c-1.88,0-3.41,1.53-3.41,3.41v5.88c0,1.88-1.53,3.41-3.41,3.41s-3.41-1.53-3.41-3.41v-5.88
		C49.49,18.11,47.96,16.58,46.08,16.58z"/>
	<linearGradient id="SVGID_8_" gradientUnits="userSpaceOnUse" x1="34.3352" y1="11.4157" x2="205.6648" y2="11.4157">
		<stop  offset="0" style="stop-color:#ED7F22"/>
		<stop  offset="1" style="stop-color:#F19549"/>
	</linearGradient>
	<path class="st7" d="M35.75,12.83h168.5c0.78,0,1.42-0.64,1.42-1.42c0-0.78-0.64-1.42-1.42-1.42H35.75c-0.78,0-1.42,0.64-1.42,1.42
		C34.34,12.19,34.97,12.83,35.75,12.83z"/>
	<linearGradient id="SVGID_9_" gradientUnits="userSpaceOnUse" x1="34.3352" y1="46.467" x2="205.6648" y2="46.467">
		<stop  offset="0" style="stop-color:#ED7F22"/>
		<stop  offset="1" style="stop-color:#F19549"/>
	</linearGradient>
	<path class="st8" d="M204.25,45.05H35.75c-0.78,0-1.42,0.64-1.42,1.42c0,0.78,0.64,1.42,1.42,1.42h168.5
		c0.78,0,1.42-0.64,1.42-1.42C205.66,45.69,205.03,45.05,204.25,45.05z"/>
	<linearGradient id="SVGID_10_" gradientUnits="userSpaceOnUse" x1="51.3847" y1="25.7446" x2="54.5736" y2="25.7446">
		<stop  offset="0" style="stop-color:#ED7F22"/>
		<stop  offset="1" style="stop-color:#F19549"/>
	</linearGradient>
	<circle class="st9" cx="52.98" cy="25.74" r="1.59"/>
	<linearGradient id="SVGID_11_" gradientUnits="userSpaceOnUse" x1="96.827" y1="25.7446" x2="100.016" y2="25.7446">
		<stop  offset="0" style="stop-color:#ED7F22"/>
		<stop  offset="1" style="stop-color:#F19549"/>
	</linearGradient>
	<path class="st10" d="M100.02,25.74c0-0.88-0.71-1.59-1.59-1.59c-0.88,0-1.59,0.71-1.59,1.59c0,0.88,0.71,1.59,1.59,1.59
		C99.3,27.34,100.02,26.63,100.02,25.74z"/>
	<linearGradient id="SVGID_12_" gradientUnits="userSpaceOnUse" x1="142.0302" y1="25.7446" x2="145.2192" y2="25.7446">
		<stop  offset="0" style="stop-color:#ED7F22"/>
		<stop  offset="1" style="stop-color:#F19549"/>
	</linearGradient>
	<path class="st11" d="M145.22,25.74c0-0.88-0.71-1.59-1.59-1.59s-1.59,0.71-1.59,1.59c0,0.88,0.71,1.59,1.59,1.59
		S145.22,26.63,145.22,25.74z"/>
	<linearGradient id="SVGID_13_" gradientUnits="userSpaceOnUse" x1="187.4726" y1="25.7446" x2="190.6615" y2="25.7446">
		<stop  offset="0" style="stop-color:#ED7F22"/>
		<stop  offset="1" style="stop-color:#F19549"/>
	</linearGradient>
	<path class="st12" d="M190.66,25.74c0-0.88-0.71-1.59-1.59-1.59c-0.88,0-1.59,0.71-1.59,1.59c0,0.88,0.71,1.59,1.59,1.59
		C189.95,27.34,190.66,26.63,190.66,25.74z"/>
</g>
</svg>
