<?xml version="1.0" encoding="utf-8"?>
<!-- Generator: Adobe Illustrator 23.1.1, SVG Export Plug-In . SVG Version: 6.00 Build 0)  -->
<svg version="1.1" id="Layer_9" xmlns="http://www.w3.org/2000/svg" xmlns:xlink="http://www.w3.org/1999/xlink" x="0px" y="0px"
	 viewBox="0 0 240 150" style="enable-background:new 0 0 240 150;" xml:space="preserve">
<style type="text/css">
	.st0{fill:url(#SVGID_1_);}
	.st1{fill:url(#SVGID_2_);}
	.st2{fill:url(#SVGID_3_);}
	.st3{fill:url(#SVGID_4_);}
</style>
<g>
	<g>
		<linearGradient id="SVGID_1_" gradientUnits="userSpaceOnUse" x1="62.8582" y1="61.4033" x2="154.0101" y2="61.4033">
			<stop  offset="0" style="stop-color:#ED7F22"/>
			<stop  offset="1" style="stop-color:#F19549"/>
		</linearGradient>
		<path class="st0" d="M99.58,98.98c-0.92-2.27-1.43-4.77-1.43-7.4c0-0.35,0-0.71,0.02-1.15c0.12-4.37,0.95-7.36,1.86-9.34
			c1.71,3.66,4.76,7.03,9.71,7.03c0.29,0,0.56-0.05,0.82-0.13l1.99-1.99c0.08-0.26,0.13-0.54,0.13-0.82c0-4.19,0.09-9.02,1.13-13.38
			c0.93-3.87,3.15-7.98,5.95-11.28c1.25,4.28,3.69,7.74,6.06,11.12c0.15,0.21,0.3,0.42,0.44,0.63l27.73-27.73
			c-1.87-2.71-3.78-5.29-5.64-7.79c-8.01-10.78-14.92-20.09-14.92-33.82c0-1.1-0.62-2.11-1.6-2.62c-0.98-0.51-2.16-0.42-3.06,0.22
			c-12.99,9.29-23.83,24.96-27.61,39.91c-2.63,10.41-2.98,22.1-3.02,29.83c-12-2.56-14.71-20.5-14.74-20.7
			c-0.14-0.93-0.7-1.74-1.53-2.18c-0.84-0.44-1.82-0.47-2.67-0.05c-0.63,0.3-15.44,7.83-16.3,37.88c-0.06,1-0.06,2-0.06,3
			c0,13.2,4.87,25.29,12.9,34.57L99.58,98.98z"/>
		<linearGradient id="SVGID_2_" gradientUnits="userSpaceOnUse" x1="85.5963" y1="98.6987" x2="168.7454" y2="98.6987">
			<stop  offset="0" style="stop-color:#ED7F22"/>
			<stop  offset="1" style="stop-color:#F19549"/>
		</linearGradient>
		<path class="st1" d="M161.06,56.21l-28.52,28.52c0.4,1.61,0.7,3.35,0.84,5.28c0.04,0.51,0.07,1.01,0.07,1.56
			c0,10.37-7.92,18.8-17.65,18.8c-2.58,0-5.02-0.61-7.23-1.67L85.6,131.68c8.57,5.98,18.98,9.5,30.21,9.5c0.04,0,0.08,0.01,0.12,0
			c0.01,0,0.02,0,0.04,0c29.12-0.08,52.79-23.8,52.79-52.94c0-1.47-0.3-5.58-0.3-5.58C167.64,72.15,164.79,63.59,161.06,56.21z"/>
	</g>
	<g>
		<linearGradient id="SVGID_3_" gradientUnits="userSpaceOnUse" x1="57.9185" y1="138.7471" x2="80.8564" y2="138.7471">
			<stop  offset="0" style="stop-color:#ED7F22"/>
			<stop  offset="1" style="stop-color:#F19549"/>
		</linearGradient>
		<path class="st2" d="M71.07,127.49l-11.22,11.22c-2.57,2.57-2.57,6.78,0,9.36c2.57,2.57,6.78,2.57,9.36,0l11.65-11.65
			C77.27,133.81,73.99,130.82,71.07,127.49z"/>
		<linearGradient id="SVGID_4_" gradientUnits="userSpaceOnUse" x1="158.7649" y1="38.5842" x2="182.0815" y2="38.5842">
			<stop  offset="0" style="stop-color:#ED7F22"/>
			<stop  offset="1" style="stop-color:#F19549"/>
		</linearGradient>
		<path class="st3" d="M180.15,27.77c-2.57-2.57-6.78-2.57-9.36,0L158.76,39.8c2.47,3.52,4.93,7.34,7.18,11.53l14.21-14.21
			C182.72,34.55,182.72,30.34,180.15,27.77z"/>
	</g>
</g>
</svg>
