<?xml version="1.0" encoding="utf-8"?>
<!-- Generator: Adobe Illustrator 23.1.1, SVG Export Plug-In . SVG Version: 6.00 Build 0)  -->
<svg version="1.1" id="Layer_1" xmlns="http://www.w3.org/2000/svg" xmlns:xlink="http://www.w3.org/1999/xlink" x="0px" y="0px"
	 viewBox="0 0 180 150" style="enable-background:new 0 0 180 150;" xml:space="preserve">
<style type="text/css">
	.st0{fill:url(#SVGID_1_);}
	.st1{fill:url(#SVGID_2_);}
	.st2{fill:url(#SVGID_3_);}
	.st3{fill:url(#SVGID_4_);}
</style>
<g>
	<linearGradient id="SVGID_1_" gradientUnits="userSpaceOnUse" x1="22.6092" y1="82.0426" x2="157.3908" y2="82.0426">
		<stop  offset="0" style="stop-color:#ED7F22"/>
		<stop  offset="1" style="stop-color:#F19549"/>
	</linearGradient>
	<path class="st0" d="M151.69,60.74l-51.3-37.47c-9-7-12.01-7-20.97,0L28.33,60.74c-9,7-7.17,20.6,3.98,20.6h4.62
		c-0.04,0.45-0.07,0.94-0.07,1.39v52.67c0,5.88,4.59,10.66,10.18,10.66h85.93c5.59,0,10.15-4.78,10.15-10.66V82.74
		c0-0.45-0.04-0.94-0.07-1.39h4.63C158.86,81.35,160.65,67.74,151.69,60.74z M61.28,136.06H47.12c-0.08-0.07-0.26-0.28-0.26-0.66
		V82.74c0-0.18,0.02-0.39,0.04-0.58l0.06-0.74h14.32V136.06z M61.28,71.42h-13.5l0.01-0.08H32.65c0.14-0.69,0.59-1.72,1.74-2.65
		l26.89-19.72V71.42z M108.72,136.06H71.28V81.42h37.44V136.06z M108.72,71.42H71.28V41.64l14.17-10.4l0.12-0.09
		c2.44-1.9,3.7-2.68,4.32-2.99c0.62,0.31,1.89,1.09,4.35,3l0.24,0.18l14.23,10.4V71.42z M133.12,135.41c0,0.39-0.17,0.59-0.24,0.66
		h-14.16V81.42h14.3l0.06,0.74c0.02,0.19,0.04,0.39,0.04,0.59V135.41z M132.19,71.35l0.01,0.08h-13.48V49.05l26.9,19.65
		c1.13,0.92,1.59,1.96,1.72,2.65H132.19z"/>
	<linearGradient id="SVGID_2_" gradientUnits="userSpaceOnUse" x1="108.2223" y1="16.315" x2="125.4554" y2="16.315">
		<stop  offset="0" style="stop-color:#ED7F22"/>
		<stop  offset="1" style="stop-color:#F19549"/>
	</linearGradient>
	<path class="st1" d="M108.75,17.03l5.26,1.62c0.24,0.07,0.42,0.26,0.49,0.49l1.62,5.26c0.22,0.7,1.21,0.7,1.42,0l1.62-5.26
		c0.07-0.24,0.26-0.42,0.49-0.49l5.26-1.62c0.7-0.22,0.7-1.21,0-1.42l-5.26-1.62c-0.24-0.07-0.42-0.26-0.49-0.49l-1.62-5.26
		c-0.22-0.7-1.21-0.7-1.42,0l-1.62,5.26c-0.07,0.24-0.26,0.42-0.49,0.49l-5.26,1.62C108.05,15.82,108.05,16.81,108.75,17.03z"/>
	<linearGradient id="SVGID_3_" gradientUnits="userSpaceOnUse" x1="133.2005" y1="12.5528" x2="150.4336" y2="12.5528">
		<stop  offset="0" style="stop-color:#ED7F22"/>
		<stop  offset="1" style="stop-color:#F19549"/>
	</linearGradient>
	<path class="st2" d="M133.73,13.26l5.26,1.62c0.24,0.07,0.42,0.26,0.49,0.49l1.62,5.26c0.22,0.7,1.21,0.7,1.42,0l1.62-5.26
		c0.07-0.24,0.26-0.42,0.49-0.49l5.26-1.62c0.7-0.22,0.7-1.21,0-1.42l-5.26-1.62c-0.24-0.07-0.42-0.26-0.49-0.49l-1.62-5.26
		c-0.22-0.7-1.21-0.7-1.42,0l-1.62,5.26c-0.07,0.24-0.26,0.42-0.49,0.49l-5.26,1.62C133.03,12.06,133.03,13.05,133.73,13.26z"/>
	<linearGradient id="SVGID_4_" gradientUnits="userSpaceOnUse" x1="119.2429" y1="30.1875" x2="143.8885" y2="30.1875">
		<stop  offset="0" style="stop-color:#ED7F22"/>
		<stop  offset="1" style="stop-color:#F19549"/>
	</linearGradient>
	<path class="st3" d="M119.99,31.21l7.53,2.32c0.34,0.1,0.6,0.37,0.7,0.7l2.32,7.53c0.31,1,1.73,1,2.04,0l2.32-7.53
		c0.1-0.34,0.37-0.6,0.7-0.7l7.53-2.32c1-0.31,1-1.73,0-2.04l-7.53-2.32c-0.34-0.1-0.6-0.37-0.7-0.7l-2.32-7.53
		c-0.31-1-1.73-1-2.04,0l-2.32,7.53c-0.1,0.34-0.37,0.6-0.7,0.7l-7.53,2.32C118.99,29.48,118.99,30.9,119.99,31.21z"/>
</g>
</svg>
