<?xml version="1.0" encoding="utf-8"?>
<!-- Generator: Adobe Illustrator 23.1.1, SVG Export Plug-In . SVG Version: 6.00 Build 0)  -->
<svg version="1.1" id="Layer_13" xmlns="http://www.w3.org/2000/svg" xmlns:xlink="http://www.w3.org/1999/xlink" x="0px" y="0px"
	 viewBox="0 0 240 150" style="enable-background:new 0 0 240 150;" xml:space="preserve">
<style type="text/css">
	.st0{fill:url(#SVGID_1_);}
	.st1{fill:url(#SVGID_2_);}
	.st2{fill:url(#SVGID_3_);}
	.st3{fill:url(#SVGID_4_);}
	.st4{fill:url(#SVGID_5_);}
</style>
<g>
	<g>
		<linearGradient id="SVGID_1_" gradientUnits="userSpaceOnUse" x1="109.6732" y1="98.5739" x2="182.19" y2="98.5739">
			<stop  offset="0" style="stop-color:#ED7F22"/>
			<stop  offset="1" style="stop-color:#F19549"/>
		</linearGradient>
		<path class="st0" d="M182.19,93.71v9.74c0,1.24-1.01,2.24-2.24,2.24h-7.01c-1.37-6-6.75-10.49-13.16-10.49
			s-11.79,4.49-13.16,10.49h-36.94V91.46h70.27C181.18,91.46,182.19,92.47,182.19,93.71z"/>
	</g>
	<g>
		<g>
			<linearGradient id="SVGID_2_" gradientUnits="userSpaceOnUse" x1="104.467" y1="79.0154" x2="57.81" y2="79.0154">
				<stop  offset="0" style="stop-color:#ED7F22"/>
				<stop  offset="1" style="stop-color:#F19549"/>
			</linearGradient>
			<path class="st1" d="M102.3,52.34H77.2c-1.91,0-3.66,1.07-4.54,2.76L58.61,82.25c-0.53,1.01-0.8,2.14-0.8,3.28v15.92
				c0,2.34,1.9,4.23,4.23,4.23h2.5c1.37-6,6.75-10.49,13.16-10.49s11.79,4.49,13.16,10.49h13.61V54.51
				C104.47,53.32,103.5,52.34,102.3,52.34z M95.44,74.45H72.73l7.29-13.29h15.41V74.45z"/>
		</g>
	</g>
	<g>
		<g>
			<linearGradient id="SVGID_3_" gradientUnits="userSpaceOnUse" x1="68.2976" y1="108.7029" x2="87.0972" y2="108.7029">
				<stop  offset="0" style="stop-color:#ED7F22"/>
				<stop  offset="1" style="stop-color:#F19549"/>
			</linearGradient>
			<path class="st2" d="M87.1,108.7c0,5.19-4.21,9.4-9.4,9.4c-5.19,0-9.4-4.21-9.4-9.4c0-1.05,0.17-2.07,0.5-3.02
				c1.25-3.71,4.76-6.38,8.9-6.38s7.65,2.67,8.9,6.38C86.93,106.64,87.1,107.65,87.1,108.7z"/>
		</g>
	</g>
	<g>
		<g>
			<linearGradient id="SVGID_4_" gradientUnits="userSpaceOnUse" x1="150.3784" y1="108.7029" x2="169.1712" y2="108.7029">
				<stop  offset="0" style="stop-color:#ED7F22"/>
				<stop  offset="1" style="stop-color:#F19549"/>
			</linearGradient>
			<path class="st3" d="M169.17,108.7c0,5.19-4.21,9.4-9.39,9.4c-5.19,0-9.4-4.21-9.4-9.4c0-1.05,0.17-2.07,0.5-3.02
				c1.25-3.71,4.76-6.38,8.9-6.38c4.13,0,7.64,2.67,8.89,6.38C169,106.64,169.17,107.65,169.17,108.7z"/>
		</g>
	</g>
	
		<linearGradient id="SVGID_5_" gradientUnits="userSpaceOnUse" x1="-1479.5752" y1="2016.6964" x2="-1531.338" y2="2016.6964" gradientTransform="matrix(0.304 0.9527 -0.9527 0.304 2524.2427 877.9741)">
		<stop  offset="0" style="stop-color:#ED7F22"/>
		<stop  offset="1" style="stop-color:#F19549"/>
	</linearGradient>
	<path class="st4" d="M117.76,80.75l-8.74-27.38c-1.21-3.78,0.52-7.88,4.08-9.65l20.37-10.15c0.85-0.43,1.79-0.66,2.75-0.69
		l34.36-0.98c1.14-0.03,2.17,0.7,2.52,1.79l8.3,26c0.35,1.09-0.07,2.28-1.02,2.92L151.8,81.7c-0.79,0.53-1.69,0.88-2.64,1.03
		l-22.48,3.52C122.76,86.87,118.97,84.54,117.76,80.75z"/>
</g>
</svg>
