<?xml version="1.0" encoding="utf-8"?>
<!-- Generator: Adobe Illustrator 23.1.1, SVG Export Plug-In . SVG Version: 6.00 Build 0)  -->
<svg version="1.1" id="Layer_1" xmlns="http://www.w3.org/2000/svg" xmlns:xlink="http://www.w3.org/1999/xlink" x="0px" y="0px"
	 viewBox="0 0 240 150" style="enable-background:new 0 0 240 150;" xml:space="preserve">
<style type="text/css">
	.st0{fill:url(#SVGID_1_);}
	.st1{fill:url(#SVGID_2_);}
</style>
<g>
	<linearGradient id="SVGID_1_" gradientUnits="userSpaceOnUse" x1="51.0675" y1="101.0683" x2="188.9325" y2="101.0683">
		<stop  offset="0" style="stop-color:#ED7F22"/>
		<stop  offset="1" style="stop-color:#F19549"/>
	</linearGradient>
	<path class="st0" d="M184.36,72.1h-1.53h-40.41V61.88c0-0.61-0.15-1.37-0.46-1.98c-0.31-0.76-0.92-1.53-1.68-1.98
		c-1.37-0.76-3.05-0.92-4.42-0.15L113.29,68.9v-7.17c0-1.68-0.92-3.05-2.29-3.97c-1.37-0.76-3.2-0.92-4.58,0L86.75,68.75v-7.02
		c0-1.68-0.92-3.05-2.29-3.97c-1.37-0.76-3.2-0.92-4.58,0L53.36,72.71c-1.53,0.76-2.29,2.29-2.29,3.97v63.75
		c0,2.59,1.98,4.58,4.58,4.58h128.71c2.59,0,4.58-1.98,4.58-4.58V76.68C188.93,74.08,186.95,72.1,184.36,72.1z M96.82,121.06
		c0,2.59-1.98,4.58-4.58,4.58H71.81c-2.59,0-4.58-1.98-4.58-4.58v-17.54c0-2.59,1.98-4.58,4.58-4.58h20.44
		c2.59,0,4.58,1.98,4.58,4.58V121.06z M134.79,121.06c0,2.59-1.98,4.58-4.58,4.58h-20.44c-2.59,0-4.58-1.98-4.58-4.58v-17.54
		c0-2.59,1.98-4.58,4.58-4.58h20.44c2.59,0,4.58,1.98,4.58,4.58V121.06z M172.92,121.06c0,2.59-1.98,4.58-4.58,4.58h-20.44
		c-2.59,0-4.58-1.98-4.58-4.58v-17.54c0-2.59,1.98-4.58,4.58-4.58h20.44c2.59,0,4.58,1.98,4.58,4.58V121.06z"/>
	<linearGradient id="SVGID_2_" gradientUnits="userSpaceOnUse" x1="142.1278" y1="36.3619" x2="181.3466" y2="36.3619">
		<stop  offset="0" style="stop-color:#ED7F22"/>
		<stop  offset="1" style="stop-color:#F19549"/>
	</linearGradient>
	<path class="st1" d="M142.41,54.09l0.06,0.04l0.06,0.04c1.49,0.9,2.73,2.33,3.42,3.95c0.53,1.14,0.84,2.5,0.84,3.77v5.84h34.55
		l-4.16-31.31l-3.36-27.45c-0.3-2.29-2.29-3.97-4.58-3.97h-16.78c-2.29,0-4.27,1.68-4.58,3.97l-1.83,14.49l-3.95,30.49
		C142.22,53.99,142.32,54.04,142.41,54.09z"/>
</g>
</svg>
