<?xml version="1.0" encoding="utf-8"?>
<!-- Generator: Adobe Illustrator 23.1.1, SVG Export Plug-In . SVG Version: 6.00 Build 0)  -->
<svg version="1.1" id="Layer_9" xmlns="http://www.w3.org/2000/svg" xmlns:xlink="http://www.w3.org/1999/xlink" x="0px" y="0px"
	 viewBox="0 0 240 150" style="enable-background:new 0 0 240 150;" xml:space="preserve">
<style type="text/css">
	.st0{fill:url(#SVGID_1_);}
	.st1{fill:url(#SVGID_2_);}
</style>
<g>
	<linearGradient id="SVGID_1_" gradientUnits="userSpaceOnUse" x1="129.107" y1="117.8356" x2="192" y2="117.8356">
		<stop  offset="0" style="stop-color:#ED7F22"/>
		<stop  offset="1" style="stop-color:#F19549"/>
	</linearGradient>
	<path class="st0" d="M160.55,86.39c-17.37,0-31.45,14.08-31.45,31.45c0,17.37,14.08,31.45,31.45,31.45
		c17.37,0,31.45-14.08,31.45-31.45C192,100.47,177.92,86.39,160.55,86.39z M181.89,110.8l-23.03,23.03c-2.33,2.33-6.14,2.33-8.46,0
		l-11.85-11.85c-2.33-2.33-2.33-6.14,0-8.46c2.33-2.33,6.14-2.33,8.46,0l7.62,7.62l18.79-18.79c2.33-2.33,6.14-2.33,8.46,0
		C184.22,104.66,184.22,108.47,181.89,110.8z"/>
	<linearGradient id="SVGID_2_" gradientUnits="userSpaceOnUse" x1="48" y1="69.5829" x2="185.73" y2="69.5829">
		<stop  offset="0" style="stop-color:#ED7F22"/>
		<stop  offset="1" style="stop-color:#F19549"/>
	</linearGradient>
	<path class="st1" d="M116.86,0.72C78.83,0.72,48,31.55,48,69.58s30.83,68.86,68.86,68.86c4.08,0,8.08-0.38,11.96-1.06
		c-3.51-5.69-5.54-12.38-5.54-19.55c0-7.5,2.23-14.48,6.04-20.33H72.14c-2.97,0-5.4-2.43-5.4-5.4v-0.71c0-2.97,2.43-5.4,5.4-5.4
		h69.05c5.64-3.44,12.27-5.42,19.36-5.42c8.5,0,16.33,2.85,22.61,7.65c1.66-5.93,2.57-12.17,2.57-18.63
		C185.73,31.55,154.9,0.72,116.86,0.72z M137.97,58.88l-17.26,17.26c-1.87,1.87-4.91,1.87-6.79,0L96.67,58.88
		c-3.02-3.02-0.88-8.19,3.39-8.19h6.31v-15.6c0-6.02,4.93-10.95,10.95-10.95c6.02,0,10.95,4.93,10.95,10.95v15.6h6.31
		C138.85,50.68,140.99,55.85,137.97,58.88z"/>
</g>
</svg>
