<?xml version="1.0" encoding="utf-8"?>
<!-- Generator: Adobe Illustrator 23.1.1, SVG Export Plug-In . SVG Version: 6.00 Build 0)  -->
<svg version="1.1" id="Layer_13" xmlns="http://www.w3.org/2000/svg" xmlns:xlink="http://www.w3.org/1999/xlink" x="0px" y="0px"
	 viewBox="0 0 240 150" style="enable-background:new 0 0 240 150;" xml:space="preserve">
<style type="text/css">
	.st0{fill:url(#SVGID_1_);}
	.st1{fill:url(#SVGID_2_);}
	.st2{fill:url(#SVGID_3_);}
	.st3{fill:url(#SVGID_4_);}
	.st4{fill:url(#SVGID_5_);}
	.st5{fill:url(#SVGID_6_);}
	.st6{fill:url(#SVGID_7_);}
	.st7{fill:url(#SVGID_8_);}
	.st8{fill:url(#SVGID_9_);}
	.st9{fill:url(#SVGID_10_);}
	.st10{fill:url(#SVGID_11_);}
	.st11{fill:url(#SVGID_12_);}
	.st12{fill:url(#SVGID_13_);}
</style>
<g>
	<linearGradient id="SVGID_1_" gradientUnits="userSpaceOnUse" x1="135.2917" y1="113.8797" x2="192.3714" y2="113.8797">
		<stop  offset="0" style="stop-color:#ED7F22"/>
		<stop  offset="1" style="stop-color:#F19549"/>
	</linearGradient>
	<path class="st0" d="M163.83,85.34c-15.76,0-28.54,12.78-28.54,28.54c0,15.76,12.78,28.54,28.54,28.54
		c15.76,0,28.54-12.78,28.54-28.54C192.37,98.12,179.59,85.34,163.83,85.34z M178.14,117.57l-11.96,11.96c-1.3,1.3-3.4,1.3-4.7,0
		l-11.96-11.96c-2.1-2.1-0.61-5.68,2.35-5.68h5.6v-11.78c0-1.58,1.29-2.87,2.87-2.87h6.98c1.58,0,2.87,1.29,2.87,2.87v11.78h5.6
		C178.75,111.9,180.24,115.48,178.14,117.57z"/>
	<linearGradient id="SVGID_2_" gradientUnits="userSpaceOnUse" x1="128.4136" y1="78.3096" x2="132.8512" y2="78.3096">
		<stop  offset="0" style="stop-color:#ED7F22"/>
		<stop  offset="1" style="stop-color:#F19549"/>
	</linearGradient>
	<rect x="128.41" y="73.87" class="st1" width="4.44" height="8.88"/>
	<linearGradient id="SVGID_3_" gradientUnits="userSpaceOnUse" x1="128.4136" y1="62.256" x2="132.8512" y2="62.256">
		<stop  offset="0" style="stop-color:#ED7F22"/>
		<stop  offset="1" style="stop-color:#F19549"/>
	</linearGradient>
	<rect x="128.41" y="57.82" class="st2" width="4.44" height="8.88"/>
	<linearGradient id="SVGID_4_" gradientUnits="userSpaceOnUse" x1="116.8074" y1="62.256" x2="121.2451" y2="62.256">
		<stop  offset="0" style="stop-color:#ED7F22"/>
		<stop  offset="1" style="stop-color:#F19549"/>
	</linearGradient>
	<rect x="116.81" y="57.82" class="st3" width="4.44" height="8.88"/>
	<linearGradient id="SVGID_5_" gradientUnits="userSpaceOnUse" x1="128.4136" y1="46.2073" x2="132.8512" y2="46.2073">
		<stop  offset="0" style="stop-color:#ED7F22"/>
		<stop  offset="1" style="stop-color:#F19549"/>
	</linearGradient>
	<rect x="128.41" y="41.76" class="st4" width="4.44" height="8.89"/>
	<linearGradient id="SVGID_6_" gradientUnits="userSpaceOnUse" x1="105.1916" y1="46.2073" x2="109.6292" y2="46.2073">
		<stop  offset="0" style="stop-color:#ED7F22"/>
		<stop  offset="1" style="stop-color:#F19549"/>
	</linearGradient>
	<rect x="105.19" y="41.76" class="st5" width="4.44" height="8.89"/>
	<linearGradient id="SVGID_7_" gradientUnits="userSpaceOnUse" x1="116.8074" y1="78.3096" x2="121.2451" y2="78.3096">
		<stop  offset="0" style="stop-color:#ED7F22"/>
		<stop  offset="1" style="stop-color:#F19549"/>
	</linearGradient>
	<rect x="116.81" y="73.87" class="st6" width="4.44" height="8.88"/>
	<linearGradient id="SVGID_8_" gradientUnits="userSpaceOnUse" x1="105.1916" y1="78.3096" x2="109.6292" y2="78.3096">
		<stop  offset="0" style="stop-color:#ED7F22"/>
		<stop  offset="1" style="stop-color:#F19549"/>
	</linearGradient>
	<rect x="105.19" y="73.87" class="st7" width="4.44" height="8.88"/>
	<linearGradient id="SVGID_9_" gradientUnits="userSpaceOnUse" x1="105.1916" y1="62.256" x2="109.6292" y2="62.256">
		<stop  offset="0" style="stop-color:#ED7F22"/>
		<stop  offset="1" style="stop-color:#F19549"/>
	</linearGradient>
	<rect x="105.19" y="57.82" class="st8" width="4.44" height="8.88"/>
	<linearGradient id="SVGID_10_" gradientUnits="userSpaceOnUse" x1="116.8074" y1="46.2073" x2="121.2451" y2="46.2073">
		<stop  offset="0" style="stop-color:#ED7F22"/>
		<stop  offset="1" style="stop-color:#F19549"/>
	</linearGradient>
	<rect x="116.81" y="41.76" class="st9" width="4.44" height="8.89"/>
	<linearGradient id="SVGID_11_" gradientUnits="userSpaceOnUse" x1="82.6202" y1="89.341" x2="90.9468" y2="89.341">
		<stop  offset="0" style="stop-color:#ED7F22"/>
		<stop  offset="1" style="stop-color:#F19549"/>
	</linearGradient>
	<path class="st10" d="M89.82,83.62c-0.54,0-0.99,0.38-1.1,0.88c-0.65-0.62-1.49-0.98-2.41-0.98c-2.03,0-3.68,1.76-3.68,4.23
		c0,2.47,1.65,4.23,3.68,4.23c0.91,0,1.74-0.35,2.38-0.96c-0.01,0.74-0.11,1.06-0.31,1.32c-0.37,0.48-0.94,0.73-1.58,0.78
		c-0.74,0.05-1.59-0.07-2.38-0.54c-0.15-0.09-0.32-0.14-0.5-0.14c-0.55,0-1,0.45-1,1c0,0.37,0.2,0.69,0.49,0.86
		c1.09,0.64,2.27,0.87,3.39,0.86c1.32-0.01,2.56-0.5,3.38-1.56c0.56-0.72,0.78-1.45,0.78-2.75v-6.1
		C90.95,84.13,90.44,83.62,89.82,83.62z M86.83,89.93c-1.06,0-1.92-0.91-1.92-2.18c0-1.27,0.86-2.18,1.92-2.18
		c1.06,0,1.92,0.91,1.92,2.18C88.75,89.02,87.89,89.93,86.83,89.93z"/>
	<linearGradient id="SVGID_12_" gradientUnits="userSpaceOnUse" x1="72.3576" y1="86.0903" x2="81.4901" y2="86.0903">
		<stop  offset="0" style="stop-color:#ED7F22"/>
		<stop  offset="1" style="stop-color:#F19549"/>
	</linearGradient>
	<path class="st11" d="M77.87,85.21l3.05-2.95c0.46-0.44,0.47-1.17,0.03-1.62c-0.44-0.46-1.17-0.47-1.62-0.03l-4.64,4.53v-3.67
		c0-0.64-0.52-1.16-1.17-1.16c-0.64,0-1.17,0.52-1.17,1.16v9.25c0,0.64,0.52,1.16,1.17,1.16c0.64,0,1.17-0.52,1.17-1.16v-2.44
		l1.5-1.45l3.2,4.58c0.37,0.52,1.08,0.65,1.61,0.28c0.52-0.37,0.65-1.08,0.28-1.61L77.87,85.21z"/>
	<linearGradient id="SVGID_13_" gradientUnits="userSpaceOnUse" x1="47.6286" y1="70.0804" x2="172.6286" y2="70.0804">
		<stop  offset="0" style="stop-color:#ED7F22"/>
		<stop  offset="1" style="stop-color:#F19549"/>
	</linearGradient>
	<path class="st12" d="M125.68,98.8v-9.89h-13.32v9.89h-8.74c0.58-1.16,0.72-2.51,0.41-3.78l-3.67-19.64l-0.03-0.13l-0.03-0.13
		c-0.46-1.63-1.65-2.92-3.13-3.51V37.48c0-2.57,2.09-4.63,4.63-4.63h34.43c2.56,0,4.63,2.07,4.63,4.63v51.57
		c6.03-5.58,14.1-9,22.96-9c2.7,0,5.32,0.32,7.83,0.92c0.62-3.54,0.97-7.18,0.97-10.9c0-34.52-27.98-62.5-62.5-62.5
		c-34.52,0-62.5,27.98-62.5,62.5s27.98,62.5,62.5,62.5c8.14,0,15.91-1.57,23.05-4.41c-2.03-4.34-3.17-9.18-3.17-14.29
		c0-5.42,1.28-10.54,3.55-15.08H125.68z M73.48,69.82c1.13-2.55,3.41-4.47,6.17-5.1c0.65-0.15,1.32-0.23,2.01-0.23
		c0.69,0,1.35,0.07,2,0.23c2.77,0.63,5.04,2.55,6.17,5.1c0.46,1.03-0.33,2.2-1.46,2.2c-0.61,0-1.18-0.35-1.43-0.91
		c-0.72-1.63-2.17-2.87-3.94-3.29c-0.43-0.11-0.88-0.16-1.34-0.16c-0.46,0-0.91,0.05-1.35,0.16c-1.76,0.42-3.21,1.66-3.93,3.29
		c-0.25,0.56-0.82,0.91-1.43,0.91h-0.01C73.81,72.02,73.02,70.85,73.48,69.82z M99.03,100.26H64.28c-1.6,0-2.75-1.64-2.29-3.28
		l3.84-20.59c0.3-1.08,1.24-1.82,2.29-1.82h27.07c1.06,0,1.99,0.74,2.29,1.82l3.84,20.59C101.78,98.62,100.63,100.26,99.03,100.26z"
		/>
</g>
</svg>
