<?xml version="1.0" encoding="utf-8"?>
<!-- Generator: Adobe Illustrator 23.1.1, SVG Export Plug-In . SVG Version: 6.00 Build 0)  -->
<svg version="1.1" id="Layer_17" xmlns="http://www.w3.org/2000/svg" xmlns:xlink="http://www.w3.org/1999/xlink" x="0px" y="0px"
	 viewBox="0 0 240 150" style="enable-background:new 0 0 240 150;" xml:space="preserve">
<style type="text/css">
	.st0{fill:url(#SVGID_1_);}
	.st1{fill:url(#SVGID_2_);}
</style>
<g>
	<linearGradient id="SVGID_1_" gradientUnits="userSpaceOnUse" x1="134.4012" y1="114.0523" x2="191.1894" y2="114.0523">
		<stop  offset="0" style="stop-color:#ED7F22"/>
		<stop  offset="1" style="stop-color:#F19549"/>
	</linearGradient>
	<path class="st0" d="M162.8,85.66c-3.94,0-7.69,0.81-11.1,2.25c-0.6,0.26-1.18,0.53-1.75,0.83c-9.22,4.69-15.54,14.26-15.54,25.32
		c0,15.68,12.71,28.39,28.39,28.39c15.69,0,28.39-12.71,28.39-28.39C191.19,98.36,178.48,85.66,162.8,85.66z M177.03,117.72
		l-11.89,11.9c-1.29,1.29-3.39,1.29-4.69,0l-11.9-11.9c-2.08-2.09-0.61-5.65,2.34-5.65h5.57v-11.71c0-1.57,1.29-2.86,2.86-2.86h6.94
		c1.57,0,2.86,1.28,2.86,2.86v11.71h5.57C177.65,112.07,179.12,115.63,177.03,117.72z"/>
	<linearGradient id="SVGID_2_" gradientUnits="userSpaceOnUse" x1="47.1894" y1="70.4761" x2="171.5504" y2="70.4761">
		<stop  offset="0" style="stop-color:#ED7F22"/>
		<stop  offset="1" style="stop-color:#F19549"/>
	</linearGradient>
	<path class="st1" d="M79.71,57.28l-5.15,9.38h16.05v-9.38H79.71z M79.71,57.28l-5.15,9.38h16.05v-9.38H79.71z M109.37,8.3
		c-34.34,0-62.18,27.84-62.18,62.18c0,34.33,27.84,62.18,62.18,62.18c8.1,0,15.83-1.57,22.93-4.39c-2.02-4.32-3.15-9.13-3.15-14.22
		c0-6.19,1.67-11.99,4.59-16.97c-2.53-0.94-4.32-3.36-4.32-6.22c0-0.74,0.12-1.45,0.36-2.13c0.88-2.63,3.36-4.51,6.29-4.51
		c2.51,0,4.7,1.39,5.82,3.46c0.77-0.61,1.55-1.18,2.36-1.71c-1.66-2.79-4.71-4.66-8.18-4.66c-4.54,0-8.34,3.17-9.3,7.41h-26.1V78.68
		h49.64c0.88,0,1.58,0.72,1.58,1.58v1.94c3.42-1.17,7.08-1.81,10.9-1.81c2.69,0,5.29,0.33,7.79,0.92c0.63-3.52,0.97-7.13,0.97-10.83
		C171.55,36.13,143.71,8.3,109.37,8.3z M78.07,97.51c-3.67,0-6.65-2.97-6.65-6.65c0-0.74,0.13-1.45,0.36-2.13
		c0.89-2.63,3.36-4.51,6.29-4.51c2.92,0,5.4,1.88,6.29,4.51c0.23,0.68,0.35,1.39,0.35,2.13C84.71,94.53,81.74,97.51,78.07,97.51z
		 M96.98,88.73h-9.61c-0.98-4.24-4.78-7.41-9.3-7.41s-8.34,3.17-9.3,7.41h-1.76c-1.65,0-2.98-1.33-2.98-2.98V74.51
		c0-0.82,0.19-1.61,0.57-2.33L74.52,53c0.62-1.19,1.85-1.95,3.2-1.95h17.73c0.85,0,1.53,0.69,1.53,1.53V88.73z M150.62,58.3
		l-20.2,13.49c-0.56,0.38-1.19,0.63-1.86,0.73l-15.89,2.5c-2.77,0.43-5.44-1.22-6.3-3.89l-6.17-19.35
		c-0.86-2.67,0.37-5.56,2.88-6.82l14.4-7.17c0.6-0.3,1.26-0.47,1.94-0.49l24.28-0.69c0.81-0.03,1.53,0.49,1.78,1.25l5.86,18.38
		C151.58,57.01,151.28,57.84,150.62,58.3z M74.56,66.67h16.05v-9.38H79.71L74.56,66.67z"/>
</g>
</svg>
