<?xml version="1.0" encoding="utf-8"?>
<!-- Generator: Adobe Illustrator 23.1.1, SVG Export Plug-In . SVG Version: 6.00 Build 0)  -->
<svg version="1.1" id="Layer_12" xmlns="http://www.w3.org/2000/svg" xmlns:xlink="http://www.w3.org/1999/xlink" x="0px" y="0px"
	 viewBox="0 0 240 150" style="enable-background:new 0 0 240 150;" xml:space="preserve">
<style type="text/css">
	.st0{fill:url(#SVGID_1_);}
	.st1{fill:url(#SVGID_2_);}
</style>
<g id="_x38_qwmVC.tif_2_">
	<g>
		<g>
			<linearGradient id="SVGID_1_" gradientUnits="userSpaceOnUse" x1="67.059" y1="66.2825" x2="202.5814" y2="66.2825">
				<stop  offset="0" style="stop-color:#ED7F22"/>
				<stop  offset="1" style="stop-color:#F19549"/>
			</linearGradient>
			<path class="st0" d="M188.6,0H81c-7.7,0-14,6.3-14,14v44.5c1.9,2.4,2.8,5.5,2.3,8.8c-0.2,1.8-0.6,3.5-0.9,5.1
				c-0.1,0.4-0.2,0.9-0.3,1.3c-0.2,1.2-0.5,2.3-0.8,3.5c2-1.7,12.9-10.7,12.9-10.7c3.6-2.9,7.1-5.9,10.7-8.8c5-4.2,10-8.3,15-12.4
				c2.1-1.7,4.4-2.6,6.8-2.6c0.8,0,1.5,0.1,2.2,0.2c4.9,1.1,8.3,4.6,9,9.1c1.9-1.1,4-1.7,6.2-1.7c0.2,0,0.4,0,0.6,0h0.2l0.3,0
				c3.9,0.3,6.2,2.4,7.4,4.1c0.1,0.1,0.1,0.2,0.2,0.2c0.4,0.5,0.9,1.1,1.4,2.1c1.7,3.3,1.2,7.2-0.5,10.2c1.9,0.6,3.6,1.7,4.9,3.1
				c0.7,0.9,1.6,1.9,2.3,3.5c1.1,2.6,1.7,6.6-1.7,10.9c-0.5,0.7-1,1.1-1.4,1.5c-0.1,0.1-0.3,0.3-0.4,0.4c-0.8,1.1-1.7,1.9-2.6,2.7
				c2.1,0.9,4,2.5,5.4,4.7l0.1,0.1c0.4,0.7,0.7,1.4,0.8,1.8l0.1,0.2c0.4,1,0.6,2,0.7,3c0.1,2.9-1.2,5.1-1.8,6.2
				c-1,1.6-2.1,3-3.5,4.1c-1,0.8-2,1.7-3,2.5c-1.1,0.9-2.2,1.8-3.3,2.8L119.8,128c-1.8,1.5-3.7,3.1-5.5,4.6h74.3c7.7,0,14-6.3,14-14
				V14C202.6,6.3,196.3,0,188.6,0z"/>
			<linearGradient id="SVGID_2_" gradientUnits="userSpaceOnUse" x1="37.4186" y1="99.1861" x2="141.9683" y2="99.1861">
				<stop  offset="0" style="stop-color:#ED7F22"/>
				<stop  offset="1" style="stop-color:#F19549"/>
			</linearGradient>
			<path class="st1" d="M141.7,98.1c0.2,0.4,0.2,0.8,0.3,1.1c0,1.1-0.5,2-1,2.9c-0.6,0.9-1.3,1.8-2.1,2.5c-2.1,1.8-4.3,3.6-6.4,5.3
				c-5.4,4.5-10.9,9-16.3,13.5c-7.1,5.9-14.2,11.8-21.3,17.7c-1.5,1.3-3.2,2.3-4.8,3.4c-1.8,1.1-3.8,2.1-5.8,3
				c-3.3,1.4-6.7,2.2-10.3,2.4c-0.5,0-0.9,0-1.4,0c-1.8,0-3.7-0.2-5.5-0.5c-1.9-0.4-3.6-0.9-5.3-1.7c-1.6-0.7-3.2-1.6-4.6-2.6
				c-1.4-0.9-2.7-2-4-3.1c-1.1-1-2.3-2-3.2-3.3c-0.3-0.5-0.7-1.1-1.3-1.3c-0.2,0-0.3-0.2-0.4-0.4c-0.2-0.7-0.6-1.2-1.1-1.7
				c-0.3-0.3-0.5-0.6-0.8-0.9c-1-1.4-2.1-2.7-3-4.1c-1.7-2.7-3.2-5.5-4.3-8.5c-1.1-3.1-1.8-6.2-1.7-9.5c0-1.2,0-2.4,0.2-3.5
				c0.3-1.9,0.6-3.8,1-5.7c0.5-2.4,1.1-4.7,1.9-7.1c0.7-2.3,1.5-4.5,2.4-6.8c0.8-2.4,1.7-4.7,2.6-7.1c0.6-1.5,1.1-3,1.7-4.5
				c0.1-0.2,0.1-0.3,0.2-0.5c0.8-2,1.6-3.9,2.4-5.9c1.1-2.6,2.1-5.2,3.2-7.8c0.9-2,2.4-3.3,4.6-3.6c0.3-0.1,0.5-0.1,0.8-0.1
				c1,0,2,0.3,2.9,0.9c2,1.4,2.7,3.4,2.4,5.7c-0.2,2-0.7,3.9-1.1,5.9c-0.4,1.8-0.8,3.5-1.2,5.3c-0.5,1.9-0.8,3.8-1.4,5.7
				c-0.3,1.1,0,2.1,0.4,3.1c0.3,0.7,1.4,1.1,2.3,1.1c0.1,0,0.3,0,0.4-0.1c0.8-0.2,1.5-0.5,2.1-1c6.3-5.3,12.6-10.5,18.9-15.7
				c3.6-2.9,7.1-5.9,10.7-8.9c5-4.1,10-8.3,15-12.4c0.9-0.8,2-1.2,3.1-1.2c0.3,0,0.6,0,0.9,0.1c2.6,0.6,4.6,2.3,4.7,5.2
				c0,0.2,0,0.4,0,0.6c-0.1,1.8-1,3.1-2.3,4.2c-3.9,3.3-7.8,6.5-11.8,9.8c-3.2,2.6-6.3,5.3-9.5,7.9c-0.3,0.2-0.6,0.5-0.9,0.7
				c-1.7,1.4-3.4,2.8-5.1,4.3c-1,0.9-1.4,2.1-0.9,3.2c0.5,1.2,1.5,1.9,2.6,1.9c0.6,0,1.2-0.2,1.7-0.5c0.3-0.2,0.5-0.4,0.7-0.6
				c0.6-0.5,1.2-1,1.8-1.5c3.2-2.6,6.3-5.3,9.5-7.9c7.3-6,14.5-12.1,21.8-18.1c1.2-1,2.6-1.6,4.2-1.6c0.2,0,0.3,0,0.5,0
				c1.3,0.1,2.4,0.6,3.2,1.7c0.4,0.5,0.8,1,1.1,1.5c1.1,2.1,0,5.1-1.5,6.3c-9.8,8.1-19.5,16.2-29.3,24.3c-1.4,1.1-2.8,2.3-4.2,3.5
				c-0.6,0.5-1.1,1-1.5,1.7c-0.3,0.5-0.4,1.2-0.3,1.7c0.4,1.4,1.5,2.5,2.8,2.5c0.4,0,0.8-0.1,1.2-0.3c0.6-0.3,1.1-0.6,1.6-1
				c0.7-0.6,1.5-1.2,2.2-1.8c9.1-7.5,18.2-15.1,27.3-22.7c0.9-0.8,2-1.3,3.2-1.3c0.2,0,0.5,0,0.8,0.1c1.2,0.2,2.2,0.7,3,1.6
				c0.5,0.6,1,1.2,1.4,2c0.8,1.9,0.2,3.5-0.9,4.9c-0.5,0.7-1.3,1.2-1.8,1.9c-1.3,1.7-3,2.8-4.6,4.1c-4.9,4.1-9.9,8.2-14.8,12.3
				c-3.6,3-7.3,6-10.9,9c-0.2,0.2-0.3,0.3-0.5,0.4c-0.5,0.4-0.9,0.9-1.1,1.3c-0.5,1-0.1,2.1,0.7,3c0.5,0.5,1.2,0.8,2,0.8
				c0.6,0,1.2-0.2,1.8-0.5c0.3-0.2,0.5-0.4,0.7-0.6c1.1-0.9,2.1-1.8,3.2-2.7c4.3-3.6,8.6-7.2,13-10.8c1-0.8,2-1.6,3-2.5
				c1.2-1,2.6-1.8,4.1-2.4c0.5-0.2,1-0.3,1.5-0.3c1.9,0,3.3,1.3,4.2,2.8C141.4,97.2,141.5,97.7,141.7,98.1z"/>
		</g>
	</g>
</g>
</svg>
