<?xml version="1.0" encoding="utf-8"?>
<!-- Generator: Adobe Illustrator 23.1.1, SVG Export Plug-In . SVG Version: 6.00 Build 0)  -->
<svg version="1.1" id="Layer_8" xmlns="http://www.w3.org/2000/svg" xmlns:xlink="http://www.w3.org/1999/xlink" x="0px" y="0px"
	 viewBox="0 0 240 150" style="enable-background:new 0 0 240 150;" xml:space="preserve">
<style type="text/css">
	.st0{fill:url(#SVGID_1_);}
	.st1{fill:url(#SVGID_2_);}
	.st2{fill:url(#SVGID_3_);}
</style>
<g>
	<linearGradient id="SVGID_1_" gradientUnits="userSpaceOnUse" x1="47.6357" y1="69.9785" x2="172.6357" y2="69.9785">
		<stop  offset="0" style="stop-color:#ED7F22"/>
		<stop  offset="1" style="stop-color:#F19549"/>
	</linearGradient>
	<path class="st0" d="M110.13,126.86c-31.35,0-56.77-25.47-56.77-56.88c0-31.41,25.42-56.88,56.77-56.88
		c31.35,0,56.77,25.47,56.77,56.88c0,3.43-0.32,6.79-0.9,10.05c1.94,0.13,3.83,0.41,5.67,0.85c0.62-3.54,0.97-7.18,0.97-10.9
		c0-34.52-27.98-62.5-62.5-62.5c-34.52,0-62.5,27.98-62.5,62.5s27.98,62.5,62.5,62.5c8.14,0,15.91-1.57,23.05-4.41
		c-0.79-1.69-1.44-3.46-1.95-5.29C124.71,125.4,117.6,126.86,110.13,126.86z"/>
	<linearGradient id="SVGID_2_" gradientUnits="userSpaceOnUse" x1="57.8312" y1="69.9786" x2="162.4403" y2="69.9786">
		<stop  offset="0" style="stop-color:#ED7F22"/>
		<stop  offset="1" style="stop-color:#F19549"/>
	</linearGradient>
	<path class="st1" d="M161.47,80.05c0.63-3.26,0.97-6.62,0.97-10.07c0-28.94-23.42-52.41-52.31-52.41
		c-28.88,0-52.3,23.47-52.3,52.41c0,28.94,23.42,52.41,52.3,52.41c7.16,0,13.98-1.45,20.2-4.06c-0.2-1.49-0.32-3.01-0.32-4.55
		C130.02,95.9,143.89,81.27,161.47,80.05z M75.98,71.94h-7.73c-1.09,0-1.95-0.86-1.95-1.96c0-1.09,0.86-1.96,1.95-1.96h7.73
		c1.09,0,1.95,0.86,1.95,1.96C77.93,71.07,77.07,71.94,75.98,71.94z M112.09,110.16c0,1.09-0.86,1.96-1.95,1.96
		c-1.09,0-1.95-0.86-1.95-1.96v-7.74c0-1.09,0.86-1.96,1.95-1.96c1.09,0,1.95,0.86,1.95,1.96V110.16z M110.13,73.89
		c-2.18,0-3.9-1.72-3.9-3.91V31.5c0-2.11,1.72-3.91,3.9-3.91c2.11,0,3.9,1.8,3.9,3.91v34.57h27.17c2.19,0,3.9,1.72,3.9,3.91
		c0,2.19-1.72,3.91-3.9,3.91H110.13z"/>
	<linearGradient id="SVGID_3_" gradientUnits="userSpaceOnUse" x1="135.1551" y1="113.9169" x2="192.3643" y2="113.9169">
		<stop  offset="0" style="stop-color:#ED7F22"/>
		<stop  offset="1" style="stop-color:#F19549"/>
	</linearGradient>
	<path class="st2" d="M163.76,85.31c-15.8,0-28.6,12.81-28.6,28.6c0,15.8,12.81,28.6,28.6,28.6s28.6-12.81,28.6-28.6
		C192.36,98.12,179.56,85.31,163.76,85.31z M183.47,107.57l-20.9,20.9c-2.11,2.11-5.57,2.11-7.68,0l-10.75-10.75
		c-2.11-2.11-2.11-5.57,0-7.68c2.11-2.11,5.57-2.11,7.68,0l6.91,6.91l17.06-17.06c2.11-2.11,5.57-2.11,7.68,0
		C185.58,102,185.58,105.46,183.47,107.57z"/>
</g>
</svg>
