<?xml version="1.0" encoding="utf-8"?>
<!-- Generator: Adobe Illustrator 23.1.1, SVG Export Plug-In . SVG Version: 6.00 Build 0)  -->
<svg version="1.1" xmlns="http://www.w3.org/2000/svg" xmlns:xlink="http://www.w3.org/1999/xlink" x="0px" y="0px"
	 viewBox="0 0 240 150" style="enable-background:new 0 0 240 150;" xml:space="preserve">
<style type="text/css">
	.st0{fill:url(#SVGID_1_);}
	.st1{fill:url(#SVGID_2_);}
	.st2{fill:url(#SVGID_3_);}
	.st3{fill:url(#SVGID_4_);}
	.st4{fill:url(#SVGID_5_);}
</style>
<g id="Layer_1">
</g>
<g id="Layer_2">
</g>
<g id="Layer_3">
	<g>
		<linearGradient id="SVGID_1_" gradientUnits="userSpaceOnUse" x1="128.265" y1="113.875" x2="185.345" y2="113.875">
			<stop  offset="0" style="stop-color:#ED7F22"/>
			<stop  offset="1" style="stop-color:#F19549"/>
		</linearGradient>
		<path class="st0" d="M156.8,85.34c-0.15,0-0.3,0-0.45,0.01c-1.82,0.02-3.59,0.22-5.31,0.57c-2.83,0.58-5.5,1.58-7.96,2.93
			c-0.99,0.54-1.94,1.14-2.85,1.8c-4.52,3.22-8.05,7.73-10.07,12.99c-0.66,1.7-1.15,3.47-1.47,5.31c-0.28,1.6-0.43,3.25-0.43,4.93
			c0,15.76,12.78,28.54,28.54,28.54c15.76,0,28.54-12.78,28.54-28.54S172.56,85.34,156.8,85.34z M176.17,107.49l-20.9,20.9
			c-2.11,2.11-5.57,2.11-7.68,0l-10.75-10.75c-2.12-2.12-2.12-5.57,0-7.68c0.42-0.42,0.9-0.76,1.4-1.01c1.53-0.77,3.35-0.77,4.88,0
			c0.5,0.25,0.98,0.59,1.4,1.01l6.91,6.91l17.06-17.06c2.11-2.11,5.56-2.11,7.68,0C178.29,101.91,178.29,105.37,176.17,107.49z"/>
		<linearGradient id="SVGID_2_" gradientUnits="userSpaceOnUse" x1="83.055" y1="85.425" x2="151.045" y2="85.425">
			<stop  offset="0" style="stop-color:#ED7F22"/>
			<stop  offset="1" style="stop-color:#F19549"/>
		</linearGradient>
		<path class="st1" d="M151.05,80.54V66.29H83.05v33.94c0,2.38,1.93,4.32,4.32,4.32h36.94c0.09-0.31,0.16-0.62,0.25-0.92
			c1.43-4.5,3.77-8.59,6.81-12.05c-0.12,0.02-0.24,0.04-0.36,0.04h0c-1.33,0-2.42-1.09-2.42-2.42s1.09-2.42,2.42-2.42
			c1.33,0,2.42,1.09,2.42,2.42c0,0.1-0.02,0.19-0.03,0.28C138.16,84.91,144.25,81.71,151.05,80.54z M93.94,99.73L93.94,99.73
			c-1.33,0-2.42-1.09-2.42-2.42s1.09-2.42,2.42-2.42c1.33,0,2.42,1.09,2.42,2.42S95.27,99.73,93.94,99.73z M93.94,91.62L93.94,91.62
			c-1.33,0-2.42-1.09-2.42-2.42s1.09-2.42,2.42-2.42c1.33,0,2.42,1.09,2.42,2.42S95.27,91.62,93.94,91.62z M93.94,83.51L93.94,83.51
			c-1.33,0-2.42-1.09-2.42-2.42c0-1.33,1.09-2.42,2.42-2.42c1.33,0,2.42,1.09,2.42,2.42S95.27,83.51,93.94,83.51z M93.94,75.4
			L93.94,75.4c-1.33,0-2.42-1.09-2.42-2.42c0-1.33,1.09-2.42,2.42-2.42c1.33,0,2.42,1.09,2.42,2.42
			C96.35,74.32,95.27,75.4,93.94,75.4z M103.67,99.73L103.67,99.73c-1.33,0-2.42-1.09-2.42-2.42s1.09-2.42,2.42-2.42
			c1.33,0,2.42,1.09,2.42,2.42S105,99.73,103.67,99.73z M103.67,91.62L103.67,91.62c-1.33,0-2.42-1.09-2.42-2.42
			s1.09-2.42,2.42-2.42c1.33,0,2.42,1.09,2.42,2.42S105,91.62,103.67,91.62z M103.67,83.51L103.67,83.51
			c-1.33,0-2.42-1.09-2.42-2.42c0-1.33,1.09-2.42,2.42-2.42c1.33,0,2.42,1.09,2.42,2.42S105,83.51,103.67,83.51z M103.67,75.4
			L103.67,75.4c-1.33,0-2.42-1.09-2.42-2.42c0-1.33,1.09-2.42,2.42-2.42c1.33,0,2.42,1.09,2.42,2.42
			C106.08,74.32,105,75.4,103.67,75.4z M113.4,99.73L113.4,99.73c-1.33,0-2.42-1.09-2.42-2.42s1.09-2.42,2.42-2.42
			c1.33,0,2.42,1.09,2.42,2.42S114.73,99.73,113.4,99.73z M113.4,91.62L113.4,91.62c-1.33,0-2.42-1.09-2.42-2.42
			s1.09-2.42,2.42-2.42c1.33,0,2.42,1.09,2.42,2.42S114.73,91.62,113.4,91.62z M113.4,83.51L113.4,83.51
			c-1.33,0-2.42-1.09-2.42-2.42c0-1.33,1.09-2.42,2.42-2.42c1.33,0,2.42,1.09,2.42,2.42S114.73,83.51,113.4,83.51z M113.4,75.4
			L113.4,75.4c-1.33,0-2.42-1.09-2.42-2.42c0-1.33,1.09-2.42,2.42-2.42c1.33,0,2.42,1.09,2.42,2.42
			C115.82,74.32,114.73,75.4,113.4,75.4z M122.44,99.73L122.44,99.73c-1.33,0-2.42-1.09-2.42-2.42s1.09-2.42,2.42-2.42
			c1.33,0,2.42,1.09,2.42,2.42S123.77,99.73,122.44,99.73z M122.44,91.62L122.44,91.62c-1.33,0-2.42-1.09-2.42-2.42
			s1.09-2.42,2.42-2.42c1.33,0,2.42,1.09,2.42,2.42S123.77,91.62,122.44,91.62z M122.44,83.51L122.44,83.51
			c-1.33,0-2.42-1.09-2.42-2.42s1.09-2.42,2.42-2.42c1.33,0,2.42,1.09,2.42,2.42C124.86,82.42,123.77,83.51,122.44,83.51z
			 M122.44,75.4L122.44,75.4c-1.33,0-2.42-1.09-2.42-2.42c0-1.33,1.09-2.42,2.42-2.42c1.33,0,2.42,1.09,2.42,2.42
			C124.86,74.32,123.77,75.4,122.44,75.4z M140.74,70.57c1.33,0,2.42,1.09,2.42,2.42c0,1.33-1.09,2.42-2.42,2.42h0
			c-1.33,0-2.42-1.09-2.42-2.42C138.33,71.66,139.41,70.57,140.74,70.57z M140.74,78.68c1.33,0,2.42,1.09,2.42,2.42
			c0,1.33-1.09,2.42-2.42,2.42l0,0c-1.33,0-2.42-1.09-2.42-2.42S139.41,78.68,140.74,78.68z M131.01,70.57
			c1.33,0,2.42,1.09,2.42,2.42c0,1.33-1.09,2.42-2.42,2.42h0c-1.33,0-2.42-1.09-2.42-2.42C128.59,71.66,129.68,70.57,131.01,70.57z
			 M131.01,83.51L131.01,83.51c-1.33,0-2.42-1.09-2.42-2.42s1.09-2.42,2.42-2.42c1.33,0,2.42,1.09,2.42,2.42
			C133.43,82.42,132.34,83.51,131.01,83.51z"/>
		<linearGradient id="SVGID_3_" gradientUnits="userSpaceOnUse" x1="54.655" y1="70.085" x2="179.655" y2="70.085">
			<stop  offset="0" style="stop-color:#ED7F22"/>
			<stop  offset="1" style="stop-color:#F19549"/>
		</linearGradient>
		<path class="st2" d="M123.24,109.87H87.37c-5.32,0-9.63-4.32-9.63-9.63V49.41c0-5.31,4.31-9.63,9.63-9.63h4.14v-5.23
			c0-1.32,1.09-2.41,2.42-2.41c1.33,0,2.42,1.09,2.42,2.41v5.23h41.39v-5.23c0-1.32,1.09-2.41,2.42-2.41c1.33,0,2.42,1.09,2.42,2.41
			v5.23h4.15c5.31,0,9.62,4.32,9.62,9.63v30.66c0.15-0.01,0.3-0.01,0.45-0.01c7.72,0,14.82,2.58,20.52,6.93
			c1.5-5.38,2.33-11.04,2.33-16.9c0-34.52-27.98-62.5-62.5-62.5c-34.52,0-62.5,27.98-62.5,62.5c0,34.51,27.98,62.5,62.5,62.5
			c3.7,0,7.33-0.35,10.86-0.96c-3.19-5.16-5.03-11.24-5.03-17.75C122.98,112.52,123.09,111.18,123.24,109.87z"/>
		<linearGradient id="SVGID_4_" gradientUnits="userSpaceOnUse" x1="89.075" y1="51.065" x2="98.805" y2="51.065">
			<stop  offset="0" style="stop-color:#ED7F22"/>
			<stop  offset="1" style="stop-color:#F19549"/>
		</linearGradient>
		<path class="st3" d="M89.07,50.73c0,2.68,2.19,4.87,4.86,4.87c2.68,0,4.87-2.19,4.87-4.87c0-1.79-0.99-3.37-2.45-4.21v4.44
			c0,0.66-0.27,1.27-0.71,1.7c-0.43,0.44-1.04,0.71-1.71,0.71c-1.33,0-2.42-1.09-2.42-2.41v-4.44
			C90.06,47.37,89.07,48.95,89.07,50.73z"/>
		<linearGradient id="SVGID_5_" gradientUnits="userSpaceOnUse" x1="135.295" y1="51.065" x2="145.025" y2="51.065">
			<stop  offset="0" style="stop-color:#ED7F22"/>
			<stop  offset="1" style="stop-color:#F19549"/>
		</linearGradient>
		<path class="st4" d="M135.3,50.73c0,2.68,2.19,4.87,4.87,4.87c2.67,0,4.86-2.19,4.86-4.87c0-1.79-0.99-3.37-2.44-4.21v4.44
			c0,1.32-1.09,2.41-2.42,2.41c-0.67,0-1.27-0.27-1.71-0.71c-0.44-0.43-0.71-1.04-0.71-1.7v-4.44
			C136.29,47.37,135.3,48.95,135.3,50.73z"/>
	</g>
</g>
</svg>
