<?xml version="1.0" encoding="utf-8"?>
<!-- Generator: Adobe Illustrator 23.1.1, SVG Export Plug-In . SVG Version: 6.00 Build 0)  -->
<svg version="1.1" id="Layer_1" xmlns="http://www.w3.org/2000/svg" xmlns:xlink="http://www.w3.org/1999/xlink" x="0px" y="0px"
	 viewBox="0 0 240 150" style="enable-background:new 0 0 240 150;" xml:space="preserve">
<style type="text/css">
	.st0{fill:url(#SVGID_1_);}
	.st1{fill:url(#SVGID_2_);}
	.st2{fill:url(#SVGID_3_);}
	.st3{fill:url(#SVGID_4_);}
	.st4{fill:url(#SVGID_5_);}
	.st5{fill:url(#SVGID_6_);}
	.st6{fill:url(#SVGID_7_);}
	.st7{fill:url(#SVGID_8_);}
	.st8{fill:url(#SVGID_9_);}
	.st9{fill:url(#SVGID_10_);}
	.st10{fill:url(#SVGID_11_);}
	.st11{fill:url(#SVGID_12_);}
</style>
<g>
	<linearGradient id="SVGID_1_" gradientUnits="userSpaceOnUse" x1="163.6379" y1="60.6381" x2="165.8473" y2="62.8475">
		<stop  offset="0" style="stop-color:#ED7F22"/>
		<stop  offset="1" style="stop-color:#F19549"/>
	</linearGradient>
	<polygon class="st0" points="164.57,63.07 165.62,63.07 165.14,61.12 165.13,60.88 165.07,60.69 165.05,60.49 165.03,60.26 
		165.01,60.06 164.96,59.79 164.93,59.59 164.91,59.4 164.92,59.36 164.86,59.59 164.79,59.87 164.73,60.06 164.67,60.3 
		164.57,60.53 164.51,60.73 164.42,60.92 164.36,61.12 163.51,63.07 164.57,63.07 	"/>
	<linearGradient id="SVGID_2_" gradientUnits="userSpaceOnUse" x1="135.9346" y1="60.9883" x2="138.5861" y2="63.6398">
		<stop  offset="0" style="stop-color:#ED7F22"/>
		<stop  offset="1" style="stop-color:#F19549"/>
	</linearGradient>
	<polygon class="st1" points="135.67,63.23 135.7,63.43 135.76,63.58 135.82,63.78 135.92,63.9 136.03,64.05 136.13,64.17 
		136.24,64.25 136.39,64.33 136.54,64.41 136.69,64.44 136.88,64.48 137.08,64.48 137.08,64.48 137.24,64.48 137.43,64.44 
		137.59,64.4 137.76,64.33 137.92,64.25 138.05,64.17 138.17,64.05 138.31,63.9 138.43,63.78 138.53,63.58 138.62,63.43 
		138.68,63.23 138.78,63.03 138.83,62.84 138.86,62.57 138.92,62.33 138.91,62.1 138.93,61.86 138.91,61.63 138.89,61.43 
		138.83,61.24 138.77,61.08 138.75,60.88 138.64,60.77 138.54,60.61 138.43,60.53 138.32,60.45 138.17,60.37 138.02,60.3 
		137.83,60.26 137.63,60.26 137.48,60.26 137.28,60.26 137.09,60.26 136.89,60.3 136.73,60.37 136.56,60.45 136.44,60.53 
		136.31,60.61 136.18,60.77 136.09,60.88 135.99,61.08 135.9,61.24 135.81,61.43 135.75,61.63 135.69,61.86 135.67,62.1 
		135.64,62.33 135.62,62.57 135.6,62.84 135.62,63.04 	"/>
	<linearGradient id="SVGID_3_" gradientUnits="userSpaceOnUse" x1="66.498" y1="53.6973" x2="83.3649" y2="70.5643">
		<stop  offset="0" style="stop-color:#ED7F22"/>
		<stop  offset="1" style="stop-color:#F19549"/>
	</linearGradient>
	<path class="st2" d="M85.64,55.15l-0.02-0.28l-0.07-0.29l-0.04-0.08l-0.16-0.38l-0.14-0.27l-0.22-0.31l-0.21-0.23l-0.09-0.15
		l-0.09-0.1l-0.49-0.43l-0.35-0.22l-0.17-0.09l-0.16-0.1l-0.28-0.1l-0.27-0.04l-0.27-0.09l-0.37-0.06H81.9l-0.28-0.05H70.45
		l-0.33,0.05h-0.28l-0.37,0.06l-0.3,0.1l-0.28,0.05l-0.38,0.12l-0.21,0.1l-0.57,0.33l-0.62,0.46l-0.56,0.51l-0.1,0.11l-0.33,0.47
		l-0.11,0.12l-0.09,0.2l-0.16,0.23l-0.26,0.61l-0.24,0.95L64.15,68.2l0.06,0.93l0.15,0.62l0.07,0.18l0.04,0.13l0.1,0.14l0.24,0.47
		l0.05,0.07l0.57,0.63l0.15,0.09l0.22,0.19l0.61,0.38l0.62,0.21l0.92,0.15h11.78l1-0.15l0.62-0.2l0.12-0.07l0.37-0.18l0.33-0.19
		l0.25-0.19l0.18-0.1L82.93,71l0.12-0.16l0.29-0.27l0.26-0.3l0.44-0.63l0.05-0.09l0.17-0.4l0.07-0.28l0.12-0.28l0.09-0.37
		l1.18-12.43l-0.02-0.38L85.64,55.15z M83.58,67.26l-0.18,0.66l-0.11,0.24l-0.04,0.16L83,68.8l-0.11,0.13L82.8,69.1l-0.19,0.27
		l-0.28,0.29l-0.13,0.16l-0.49,0.45l-0.8,0.5l-0.8,0.33l-1.13,0.21H69.2l-1.08-0.2l-0.84-0.35l-0.62-0.47l-0.33-0.32l-0.1-0.16
		l-0.12-0.13l-0.22-0.34l-0.28-0.58l-0.19-0.61l-0.05-0.47l-0.06-0.23l0.02-0.19l-0.02-0.2l0.02-0.23l0.37-3.88h3.5
		C69.32,65.8,71.52,68,74.47,68c2.95,0,5.57-2.2,6.23-5.05h3.29L83.58,67.26z M70.64,62.15c0.23-2.44,2.4-4.42,4.84-4.42
		s4.23,1.98,4,4.42c-0.23,2.44-2.4,4.42-4.84,4.42C72.2,66.57,70.41,64.59,70.64,62.15z M84.5,57.48l-0.35,3.72h-3.31
		c-0.19-2.78-2.37-4.91-5.27-4.91c-2.9,0-5.48,2.13-6.2,4.91h-3.52l0.37-3.95l0.07-0.27l0.02-0.2l0.12-0.24l0.1-0.39l0.41-0.8
		l0.56-0.74L68.18,54l0.59-0.39l1.01-0.45l1.12-0.21l0.23,0h9.56l1.08,0.2l0.65,0.28l0.12,0.1l0.21,0.1l0.47,0.35l0.41,0.45
		l0.49,0.74l0.05,0.17l0.11,0.18l0.12,0.39l0.03,0.24l0.05,0.16l0.07,0.66L84.5,57.48z"/>
	<linearGradient id="SVGID_4_" gradientUnits="userSpaceOnUse" x1="107.0999" y1="60.6665" x2="109.2721" y2="62.8387">
		<stop  offset="0" style="stop-color:#ED7F22"/>
		<stop  offset="1" style="stop-color:#F19549"/>
	</linearGradient>
	<polygon class="st3" points="108.58,60.88 108.52,60.69 108.46,60.49 108.44,60.26 108.42,60.06 108.41,59.79 108.35,59.59 
		108.37,59.4 108.31,59.59 108.21,59.87 108.15,60.06 108.09,60.3 108.03,60.53 107.93,60.73 107.87,60.92 107.78,61.12 
		106.97,63.07 108.02,63.07 108.02,63.07 109.04,63.07 108.6,61.12 	"/>
	<linearGradient id="SVGID_5_" gradientUnits="userSpaceOnUse" x1="66.3512" y1="9.3551" x2="198.932" y2="141.9358">
		<stop  offset="0" style="stop-color:#ED7F22"/>
		<stop  offset="1" style="stop-color:#F19549"/>
	</linearGradient>
	<path class="st4" d="M233.66,74.29l-10.34-4.51l-4.9-20.52c1.19-0.8,1.97-2.16,1.94-3.58c-0.03-1.96-1.61-3.43-3.67-3.43h-24.88
		l1-10.58c0.35-3.72-2.39-6.75-6.12-6.75H53.79c-3.72,0-7.04,3.03-7.39,6.75l-0.64,6.72h6.69c1.71,0,3.33,0.71,4.46,1.95
		c1.13,1.24,1.68,2.93,1.52,4.64C58.11,48.36,55.21,51,51.82,51h-7.25L41.9,79.23h10.24c1.71,0,3.33,0.71,4.46,1.95
		c1.13,1.24,1.68,2.93,1.52,4.64c-0.32,3.38-3.22,6.02-6.61,6.02H40.71l-0.32,3.38c-0.35,3.72,2.39,6.75,6.12,6.75h1.91l-0.45,4.8
		c-0.35,3.72,2.39,6.75,6.12,6.75h5.3c1.11,6.75,6.78,11.56,13.84,11.56c4.42,0,8.82-1.93,12.05-5.23c2.6,3.3,6.64,5.23,11.06,5.23
		c7.05,0,13.64-4.8,16.02-11.56h65.49c1.11,6.75,6.78,11.56,13.84,11.56c8.17,0,15.49-6.39,16.76-14.44h18.8
		c3.72,0,7.04-3.03,7.39-6.75l2.32-24.5C237.16,77.06,235.81,74.98,233.66,74.29z M165.14,57.05h3.98l2.32,10.13h-5.27l-0.26-1.33
		h-1.6h-1.6l-0.56,1.33h-5.23l4.2-10.13H165.14z M151.4,64.05l-0.07-0.08l-0.07-0.04l-0.07-0.04l-0.15-0.04h-0.19h-0.12h-0.23h-0.27
		l-0.39-0.04h-0.43l-0.35-0.04h-0.35l-0.27-0.04l-0.46-0.08l-0.38-0.08l-0.34-0.08l-0.34-0.12l-0.3-0.12l-0.26-0.16l-0.22-0.16
		l-0.21-0.2l-0.14-0.19l-0.18-0.2l-0.09-0.23l-0.09-0.24l-0.05-0.31l-0.05-0.27L145.29,61l0.03-0.35l0.03-0.27l0.06-0.23l0.02-0.2
		l0.1-0.23l0.06-0.24l0.1-0.19l0.06-0.2l0.14-0.19l0.09-0.16l0.17-0.2l0.13-0.16l0.13-0.16l0.21-0.16l0.13-0.16l0.21-0.12l0.21-0.12
		l0.21-0.12l0.24-0.08l0.25-0.12l0.24-0.08l0.57-0.2l0.56-0.12l0.63-0.12l0.71-0.08l0.78-0.04h0.78h0.59l0.62,0.04h0.59l0.62,0.08
		l0.62,0.04l0.61,0.12l0.62,0.08l0.65,0.12l-0.29,3.05l-0.69-0.08l-0.62-0.08l-0.58-0.04l-0.5-0.08h-0.43l-0.43-0.04h-0.39h-0.39
		h-0.55h-0.47l-0.35,0.04l-0.24,0.04l-0.16,0.08l-0.12,0.08l-0.08,0.04l-0.01,0.08l-0.04,0.04l-0.01,0.08l0,0.04l0.03,0.04
		l-0.01,0.08l0.08,0.04l0.11,0.08l0.15,0.08l0.19,0.04h0.27l0.27,0.04l0.35,0.04h0.27h0.24h0.23h0.2h0.51l0.46,0.08L154.5,61
		l0.38,0.08l0.38,0.08l0.3,0.12l0.3,0.16l0.26,0.16l0.18,0.16l0.17,0.24l0.13,0.23l0.13,0.24l0.09,0.27l0.01,0.31l0.05,0.31
		l-0.04,0.39l-0.02,0.24l-0.02,0.19l-0.1,0.24l-0.02,0.2l-0.1,0.2l-0.06,0.23l-0.13,0.16l-0.1,0.2l-0.13,0.16l-0.1,0.2l-0.17,0.16
		l-0.13,0.16l-0.17,0.12l-0.17,0.16l-0.21,0.12l-0.17,0.12l-0.46,0.27l-0.48,0.16l-0.48,0.16l-0.6,0.16l-0.59,0.08l-0.63,0.08
		l-0.71,0.04l-0.75,0.04h-0.66l-0.66-0.04l-0.62-0.04l-0.7-0.04l-0.62-0.08l-0.66-0.08l-0.7-0.08l-0.65-0.12l0.27-2.86l0.69,0.12
		l0.69,0.08l0.66,0.08l0.66,0.08l0.62,0.04l0.58,0.08h0.55h0.51h0.31h0.23l0.2-0.04l0.16-0.04l0.09-0.08l0.08-0.04l0.05-0.08
		l0.01-0.12l0.01-0.12l0.01-0.08L151.4,64.05z M130.36,62.45l0.03-0.35l0.03-0.31l0.07-0.35l0.03-0.31l0.06-0.27l0.1-0.27l0.11-0.31
		l0.1-0.27l0.14-0.23l0.14-0.27l0.14-0.23l0.14-0.2l0.18-0.23l0.17-0.2l0.21-0.2l0.21-0.2l0.21-0.16l0.25-0.16l0.25-0.16l0.25-0.16
		l0.29-0.12l0.28-0.12l0.28-0.12l0.32-0.08l0.32-0.08l0.36-0.08l0.32-0.08l0.4-0.08h0.39l0.79-0.08l0.86-0.04l0.81,0.04l0.81,0.08
		h0.35l0.38,0.08l0.3,0.08l0.34,0.08l0.31,0.08l0.3,0.08l0.26,0.12l0.26,0.12l0.26,0.12l0.22,0.16l0.22,0.16l0.22,0.16l0.18,0.16
		l0.18,0.2l0.18,0.2l0.14,0.2l0.13,0.23l0.1,0.2l0.14,0.23l0.09,0.27l0.06,0.23l0.09,0.27l0.01,0.31l0.05,0.27l0.01,0.27l0.01,0.31
		l-0.03,0.35l-0.03,0.31l-0.03,0.35l-0.03,0.31l-0.07,0.31l-0.07,0.31l-0.11,0.31l-0.06,0.27l-0.14,0.27l-0.1,0.24l-0.14,0.27
		l-0.18,0.24l-0.14,0.23l-0.17,0.2l-0.17,0.2l-0.21,0.2l-0.21,0.2l-0.21,0.16l-0.25,0.16l-0.25,0.16l-0.25,0.16l-0.29,0.12
		l-0.28,0.12l-0.28,0.12l-0.32,0.08l-0.32,0.12l-0.36,0.08l-0.32,0.04l-0.4,0.08l-0.36,0.04l-0.83,0.08h-0.82h-0.86l-0.77-0.08
		l-0.39-0.04l-0.38-0.08l-0.31-0.04l-0.34-0.08l-0.3-0.12l-0.3-0.08l-0.26-0.12l-0.26-0.12l-0.26-0.12l-0.22-0.16l-0.22-0.16
		l-0.22-0.16l-0.18-0.16l-0.18-0.2l-0.18-0.2l-0.14-0.2l-0.14-0.2l-0.09-0.23l-0.09-0.24l-0.09-0.27l-0.09-0.24l-0.05-0.27
		l-0.05-0.27l-0.05-0.31l-0.01-0.31l0.03-0.31L130.36,62.45z M116.55,57.05h5.19l1.69,2.82l0.13,0.24l0.1,0.2l0.1,0.2l0.14,0.19
		l0.17,0.31l0.13,0.31l0.03-0.31l0.04-0.39l0.01-0.16l0.02-0.23l0.02-0.24l0.03-0.31l0.25-2.62h4.92l-0.96,10.13h-4.53l-2.34-3.36
		l-0.24-0.35l-0.2-0.35l-0.16-0.35l-0.17-0.31l-0.03,0.27l0.02,0.24l-0.02,0.19l-0.02,0.24l-0.04,0.39l-0.02,0.24l-0.3,3.17h-4.92
		L116.55,57.05z M60.11,105.81h-4.32l0.36-3.83l5.89,0C61.23,103.18,60.58,104.47,60.11,105.81z M79.97,114.74
		c-1.62,1.66-3.82,2.62-6.02,2.62c-2.68,0-4.99-1.36-6.19-3.65c-1.24-2.34-1.04-5.23,0.54-7.91c1.36-2.31,4.01-3.81,6.76-3.83h0.12
		c4,0.03,7.11,2.9,7.23,6.67C82.47,110.9,81.61,113.06,79.97,114.74z M87.81,56.71l-1.05,11.14l-0.07,0.25l-0.04,0.41l-0.15,0.39
		l-0.07,0.26l-0.14,0.36l-0.13,0.3l-0.19,0.38l-0.53,0.89l-0.24,0.31l-0.68,0.76l-0.85,0.78l-0.27,0.15l-0.27,0.21l-0.31,0.17
		l-0.28,0.18l-0.41,0.2l-0.34,0.11l-0.28,0.12l-0.38,0.11l-0.21,0.07L80.5,74.4l-0.78,0.11H68.03l-0.38-0.06l-0.36-0.06l-0.64-0.19
		l-0.3-0.1l-0.4-0.17l-0.23-0.07l-0.4-0.21l-0.24-0.17l-0.37-0.19l-0.23-0.25l-0.06-0.04h-0.16l-0.43-0.56l-0.1-0.15l-0.38-0.42
		l-0.43-0.6l-0.13-0.31l-0.15-0.25l-0.17-0.43l-0.08-0.35l-0.07-0.18l-0.09-0.36l-0.07-0.35l-0.08-0.31l-0.03-0.78l-0.02-0.31
		l1.05-11.14l0.25-1.06l0.25-0.67l0.13-0.3l0.2-0.39l0.1-0.24l0.23-0.4l0.24-0.31l0.11-0.16l0.23-0.3l0.29-0.33l0.74-0.68l0.78-0.59
		l0.42-0.27l0.86-0.41l0.37-0.15l0.36-0.12l0.72-0.2l0.75-0.11h11.69l0.77,0.11l0.38,0.11l0.29,0.1l0.32,0.09l0.37,0.16l0.93,0.49
		l0.31,0.27l0.14,0.1l0.51,0.44l0.17,0.17l0.15,0.18l0.2,0.21l0.34,0.49l0.21,0.35l0.17,0.23l0.36,0.9l0.13,0.37l0.09,0.36
		l0.09,0.45l0.01,0.3l0.07,0.39l-0.04,0.39L87.81,56.71z M90.76,57.05h10.85h0.31l-0.34,3.56h-0.31h-5.66l-0.09,0.94h5.66h0.31
		l-0.29,3.05h-0.31h-5.66l-0.24,2.58H89.8L90.76,57.05z M103.08,114.74c-1.62,1.66-3.82,2.62-6.02,2.62c-2.68,0-4.99-1.36-6.19-3.65
		c-1.24-2.34-1.04-5.23,0.54-7.91c1.36-2.31,4.01-3.81,6.76-3.83h0.12c4,0.03,7.11,2.9,7.23,6.67
		C105.59,110.9,104.72,113.06,103.08,114.74z M109.36,65.85h-1.6h-1.64l-0.52,1.33h-4.96h-0.31l0.41-0.98l3.83-9.15h4.02h3.98
		l2.32,10.13h-5.27L109.36,65.85z M178.57,105.81h-65.49c-0.22-1.33-0.63-2.62-1.21-3.82l68.63,0
		C179.7,103.18,179.04,104.47,178.57,105.81z M199.36,113.62c-1.61,2.31-4.27,3.74-6.95,3.74c-2.46,0-4.67-1.19-5.93-3.19
		c-1.28-2.03-1.41-4.62-0.36-7.1c1.29-3.04,4.39-5.09,7.71-5.09l0.12,0c0.14-0.01,0.28-0.01,0.41-0.01c2.6,0,4.81,1.37,5.77,3.57
		C201.32,108.25,201.04,111.2,199.36,113.62z M226.98,102.92h-19.35c-2.08-5.29-7.12-8.67-13.04-8.67l-7.69,0l4.18-44.28h19.35
		l0.75,5.58h-12.94c-2.13,0-4.03,1.73-4.23,3.87l-0.71,7.5c-0.35,3.72,2.39,6.75,6.12,6.75h11.42l17,7.16
		c0.7,0.2,1.14,0.86,1.07,1.6L226.98,102.92z"/>
	<linearGradient id="SVGID_6_" gradientUnits="userSpaceOnUse" x1="20.4921" y1="24.4122" x2="33.8288" y2="37.7488">
		<stop  offset="0" style="stop-color:#ED7F22"/>
		<stop  offset="1" style="stop-color:#F19549"/>
	</linearGradient>
	<path class="st5" d="M17.97,34.39l17.76,0c1.82,0,3.45-1.49,3.62-3.31c0.17-1.82-1.17-3.31-2.99-3.31H18.59
		c-1.82,0-3.45,1.49-3.62,3.31h0C14.8,32.9,16.15,34.39,17.97,34.39z"/>
	<linearGradient id="SVGID_7_" gradientUnits="userSpaceOnUse" x1="11.81" y1="48.6527" x2="31.1201" y2="67.9627">
		<stop  offset="0" style="stop-color:#ED7F22"/>
		<stop  offset="1" style="stop-color:#F19549"/>
	</linearGradient>
	<path class="st6" d="M6.3,61.62H36c1.82,0,3.45-1.49,3.62-3.31S38.45,55,36.63,55H6.93c-1.82,0-3.45,1.49-3.62,3.31h0
		C3.13,60.13,4.48,61.62,6.3,61.62z"/>
	<linearGradient id="SVGID_8_" gradientUnits="userSpaceOnUse" x1="22.1192" y1="66.2956" x2="33.3706" y2="77.547">
		<stop  offset="0" style="stop-color:#ED7F22"/>
		<stop  offset="1" style="stop-color:#F19549"/>
	</linearGradient>
	<path class="st7" d="M21.26,68.61c-1.82,0-3.45,1.49-3.62,3.31h0c-0.17,1.82,1.17,3.31,2.99,3.31l13.59,0
		c1.82,0,3.45-1.49,3.62-3.31c0.17-1.82-1.17-3.31-2.99-3.31H21.26z"/>
	<linearGradient id="SVGID_9_" gradientUnits="userSpaceOnUse" x1="10.493" y1="91.3014" x2="26.1872" y2="106.9956">
		<stop  offset="0" style="stop-color:#ED7F22"/>
		<stop  offset="1" style="stop-color:#F19549"/>
	</linearGradient>
	<path class="st8" d="M32.89,99.15c0.17-1.82-1.17-3.31-2.99-3.31H7.42c-1.82,0-3.45,1.49-3.62,3.31l0,0
		c-0.17,1.82,1.17,3.31,2.99,3.31h22.48C31.08,102.46,32.71,100.97,32.89,99.15z"/>
	<linearGradient id="SVGID_10_" gradientUnits="userSpaceOnUse" x1="27.59" y1="107.6594" x2="37.7952" y2="117.8647">
		<stop  offset="0" style="stop-color:#ED7F22"/>
		<stop  offset="1" style="stop-color:#F19549"/>
	</linearGradient>
	<path class="st9" d="M38.76,109.45h-11.5c-1.82,0-3.45,1.49-3.62,3.31h0c-0.17,1.82,1.17,3.31,2.99,3.31l11.5,0
		c1.82,0,3.45-1.49,3.62-3.31C41.92,110.94,40.58,109.45,38.76,109.45z"/>
	<linearGradient id="SVGID_11_" gradientUnits="userSpaceOnUse" x1="33.0524" y1="36.847" x2="48.7466" y2="52.5412">
		<stop  offset="0" style="stop-color:#ED7F22"/>
		<stop  offset="1" style="stop-color:#F19549"/>
	</linearGradient>
	<path class="st10" d="M26.35,44.69L26.35,44.69C26.18,46.51,27.53,48,29.35,48h22.48c1.82,0,3.45-1.49,3.62-3.31
		c0.17-1.82-1.17-3.31-2.99-3.31H29.98C28.16,41.39,26.53,42.87,26.35,44.69z"/>
	<linearGradient id="SVGID_12_" gradientUnits="userSpaceOnUse" x1="15.5024" y1="71.9398" x2="42.6924" y2="99.1298">
		<stop  offset="0" style="stop-color:#ED7F22"/>
		<stop  offset="1" style="stop-color:#F19549"/>
	</linearGradient>
	<path class="st11" d="M6.05,88.84l45.47,0c1.82,0,3.45-1.49,3.62-3.31c0.17-1.82-1.17-3.31-2.99-3.31H6.68
		c-1.82,0-3.45,1.49-3.62,3.31l0,0C2.88,87.35,4.23,88.84,6.05,88.84z"/>
</g>
</svg>
