<?xml version="1.0" encoding="utf-8"?>
<!-- Generator: Adobe Illustrator 23.1.1, SVG Export Plug-In . SVG Version: 6.00 Build 0)  -->
<svg version="1.1" id="Layer_17" xmlns="http://www.w3.org/2000/svg" xmlns:xlink="http://www.w3.org/1999/xlink" x="0px" y="0px"
	 viewBox="0 0 240 150" style="enable-background:new 0 0 240 150;" xml:space="preserve">
<style type="text/css">
	.st0{fill:url(#SVGID_1_);}
	.st1{fill:url(#SVGID_2_);}
	.st2{fill:url(#SVGID_3_);}
	.st3{fill:url(#SVGID_4_);}
</style>
<g id="_x34_cOCFj.tif">
	<g>
		<g>
			<linearGradient id="SVGID_1_" gradientUnits="userSpaceOnUse" x1="130.8517" y1="104.2242" x2="180.9118" y2="104.2242">
				<stop  offset="0" style="stop-color:#ED7F22"/>
				<stop  offset="1" style="stop-color:#F19549"/>
			</linearGradient>
			<path class="st0" d="M180.91,87.54v45.13c0,2.72-2.21,4.93-4.93,4.93h-44.86c0.07-4.49-0.06-8.99,0.08-13.48
				c0.06-1.89,0.21-1.93,2.03-1.16c4.99,2.1,9.6,1.1,12.45-2.55c3.24-4.16,2.39-7.93,0.26-11.28c-1.88-2.93-6.27-4.47-9.97-3.6
				c-0.73,0.17-1.44,0.41-2.14,0.68c-2.56,0.98-3.02,0.69-2.97-2.08c0.06-3.64,0.19-7.27,0.28-10.91c0.03-0.86-0.01-1.71,0.02-2.57
				c0.08-2.64,0.15-2.75,2.72-2.77c4.07-0.04,8.14,0.03,12.21-0.03c1.27-0.01,2.79,0.07,4.04-0.19c2.96-0.62,3.16-1.75,1.87-4.41
				c-0.42-0.86-0.88-1.72-1.14-2.64c-1.11-3.91,1.16-8.02,4.76-9.34c3.84-1.4,8.33,1.04,9.35,4.52c0.7,2.37,0.33,4.65-0.61,6.89
				c-1.61,3.82-1.08,4.7,3.11,4.81c3.96,0.1,7.93,0.03,11.89,0.05C179.86,87.53,180.39,87.52,180.91,87.54z"/>
		</g>
		<g>
			<linearGradient id="SVGID_2_" gradientUnits="userSpaceOnUse" x1="57.467" y1="46.2843" x2="107.3969" y2="46.2843">
				<stop  offset="0" style="stop-color:#ED7F22"/>
				<stop  offset="1" style="stop-color:#F19549"/>
			</linearGradient>
			<path class="st1" d="M70.6,62.69c1.67,0,3.56,0.01,4.63,1.78c1.06,1.76,0.18,3.48-0.47,4.74c-0.66,1.26-0.64,2.63-0.55,4.74
				c0.14,3.18,3.98,5.47,6.5,5.47c0.16,0,0.31-0.01,0.45-0.03c2.01-0.31,3.7-1.34,4.74-2.9c1.03-1.53,1.34-3.46,0.87-5.39
				c-0.08-0.32-0.12-0.6-0.15-0.83c-0.02-0.1-0.03-0.2-0.06-0.3c-0.28-0.95-0.72-2.39-1.05-3.41c-0.28-0.9-0.13-1.87,0.42-2.64
				c0.54-0.77,1.41-1.24,2.35-1.27c0.36-0.01,0.7-0.01,1.02-0.01c0.55,0,1.04,0.01,1.51,0.03c0.4,0.01,0.78,0.02,1.18,0.02h0.2
				c1.14-0.02,2.28-0.02,3.41-0.02h2.77c0.91,0.01,1.83,0.01,2.74,0.01c1.31,0,2.61-0.01,3.92-0.03h0.11c0.85,0,1.6,0.13,2.26,0.4
				c-0.33-0.83-0.34-1.71-0.35-2.58c-0.03-2.21-0.03-4.46-0.03-6.63c0-2.77,0-5.64-0.05-8.43c-0.01-0.32-0.06-0.66-0.14-0.98
				c-1.83,1.13-3.93,1.7-6.26,1.7c-0.29,0-0.59-0.01-0.89-0.03c-2.7-0.17-5.09-1.37-6.74-3.38c-1.74-2.13-2.51-5.04-2.1-7.98
				c0.59-4.27,3.01-7.09,6.83-7.95c0.76-0.17,1.56-0.25,2.39-0.25c1.56,0,3.19,0.29,4.87,0.87c0.49,0.18,0.86,0.35,1.13,0.47
				c0.1,0.05,0.19,0.09,0.3,0.14c0.22,0.09,0.41,0.15,0.56,0.2c0.03-0.19,0.06-0.43,0.07-0.73c0.06-0.98,0.05-1.97,0.05-3.02
				c-0.01-0.44-0.01-0.88-0.01-1.31c0.01-1.16,0-2.33,0-3.49c-0.01-2.14-0.01-4.34,0.02-6.52H62.4c-2.72,0-4.93,2.21-4.93,4.93
				v44.59c1.86,0,3.72-0.01,5.58-0.01C65.57,62.66,68.09,62.67,70.6,62.69z"/>
			<linearGradient id="SVGID_3_" gradientUnits="userSpaceOnUse" x1="57.467" y1="90.4494" x2="124.0585" y2="90.4494">
				<stop  offset="0" style="stop-color:#ED7F22"/>
				<stop  offset="1" style="stop-color:#F19549"/>
			</linearGradient>
			<path class="st2" d="M117.02,85.01c-0.77,0-1.55,0.14-2.3,0.42c-0.9,0.34-1.73,0.86-2.62,1.21c-0.81,0.33-1.49,0.5-2.07,0.5
				c-1.34,0-2.12-0.9-2.56-2.84c-0.21-0.92-0.16-1.91-0.17-2.88c-0.01-4.49-0.04-8.98,0.02-13.48c0.01-0.6-0.07-1.08-0.26-1.43
				c-0.31-0.59-0.92-0.86-1.92-0.86h-0.07c-1.32,0.02-2.64,0.03-3.96,0.03c-1.83,0-3.67-0.01-5.51-0.01c-1.12,0-2.25,0-3.38,0.02
				h-0.23c-0.89,0-1.69-0.05-2.69-0.05c-0.29,0-0.6,0-0.93,0.01c0.32,1,0.77,2.47,1.07,3.47c0.12,0.41,0.14,0.84,0.25,1.26
				c1.39,5.79-2.22,11.07-8.07,11.98c-0.29,0.04-0.6,0.06-0.91,0.06c-3.86,0-9.27-3.33-9.5-8.33c-0.09-2.13-0.17-4.23,0.89-6.26
				c1.04-2.03,0.91-2.13-1.52-2.14c-2.51-0.02-5.02-0.03-7.53-0.03c-1.86,0-3.72,0.01-5.58,0.01c0,0.01,0,0.01,0,0.01v0.91v43.74
				c0,2.72,2.21,4.93,4.93,4.93h44.89c0.02-4.1,0-8.2,0.03-12.31c0.01-0.95,0.03-1.94,0.24-2.86c0.38-1.69,1.16-2.48,2.43-2.48
				c0.46,0,0.98,0.1,1.57,0.31c1.4,0.5,2.78,1.07,4.21,1.42c0.52,0.12,1.04,0.18,1.56,0.18c2.33,0,4.54-1.27,5.84-3.39
				c1.42-2.29,1.1-6.38-0.65-8.47C121.09,85.96,119.06,85.01,117.02,85.01z"/>
			<linearGradient id="SVGID_4_" gradientUnits="userSpaceOnUse" x1="93.7284" y1="37.8294" x2="159.5771" y2="37.8294">
				<stop  offset="0" style="stop-color:#ED7F22"/>
				<stop  offset="1" style="stop-color:#F19549"/>
			</linearGradient>
			<path class="st3" d="M154.65,13.15h-43.76h-0.84c-0.05,3.33-0.01,6.68-0.02,10.01c0,1.5,0.04,3-0.04,4.5
				c-0.14,2.51-0.9,3.68-2.48,3.68c-0.62,0-1.37-0.18-2.27-0.54c-0.39-0.15-0.72-0.35-1.3-0.55c-1.26-0.44-2.59-0.71-3.88-0.71
				c-0.59,0-1.18,0.06-1.74,0.18c-2.59,0.59-4.09,2.42-4.51,5.43c-0.56,4.11,1.91,7.7,6.06,7.96c0.23,0.01,0.47,0.02,0.7,0.02
				c1.97,0,3.78-0.52,5.35-1.71c0.27-0.2,0.53-0.35,0.77-0.45h0.01c0.25-0.09,0.48-0.14,0.7-0.14c0.44,0,0.83,0.18,1.17,0.5
				c0,0.01,0,0.01,0.01,0.01c0.19,0.19,0.37,0.43,0.53,0.71c0.54,0.96,0.83,2.18,0.86,3.29c0.1,5.04,0.02,10.07,0.08,15.1
				c0.02,1.47,0.06,1.88,0.8,1.99c0.21,0.03,0.48,0.04,0.82,0.04c0.17,0,0.36,0,0.57-0.01c2.55-0.02,5.11-0.04,7.66-0.04
				c2.38,0,4.75,0.02,7.11,0.08c0.11,0.01,0.2,0.01,0.29,0.01c1.2,0,0.93-0.27,0.48-1.31c-1.19-2.68-1.68-5.49-0.83-8.42
				c0.88-3.01,3.01-4.66,5.79-5.92c1.17-0.54,2.58-0.79,4.03-0.79c3.05,0,6.29,1.14,7.88,3.29c2.32,3.12,2.43,6.73,1.51,10.39
				c-0.22,0.88-0.66,1.72-1.01,2.58c0.85,0.07,12.42,0.18,14.2,0.18c0.14,0,0.22-0.01,0.23-0.01V18.08
				C159.58,15.36,157.37,13.15,154.65,13.15z"/>
		</g>
	</g>
</g>
</svg>
