<?xml version="1.0" encoding="utf-8"?>
<!-- Generator: Adobe Illustrator 23.1.1, SVG Export Plug-In . SVG Version: 6.00 Build 0)  -->
<svg version="1.1" id="Layer_13" xmlns="http://www.w3.org/2000/svg" xmlns:xlink="http://www.w3.org/1999/xlink" x="0px" y="0px"
	 viewBox="0 0 240 150" style="enable-background:new 0 0 240 150;" xml:space="preserve">
<style type="text/css">
	.st0{fill:url(#SVGID_1_);}
	.st1{fill:url(#SVGID_2_);}
	.st2{fill:url(#SVGID_3_);}
	.st3{fill:url(#SVGID_4_);}
	.st4{fill:url(#SVGID_5_);}
	.st5{fill:url(#SVGID_6_);}
	.st6{fill:url(#SVGID_7_);}
	.st7{fill:url(#SVGID_8_);}
</style>
<g>
	<g>
		<linearGradient id="SVGID_1_" gradientUnits="userSpaceOnUse" x1="114.18" y1="53.8262" x2="157.25" y2="53.8262">
			<stop  offset="0" style="stop-color:#ED7F22"/>
			<stop  offset="1" style="stop-color:#F19549"/>
		</linearGradient>
		<path class="st0" d="M157.25,56.95c0,7.07-3.04,13.42-7.89,17.8V62.72c0-1.06-0.45-2.08-1.23-2.81c-0.71-0.65-1.64-1.01-2.6-1.01
			c-0.1,0-0.2,0-0.3,0.01c-0.08,0-0.16,0.01-0.24,0.01h-0.17c-6.37,0-11.54-5.18-11.54-11.54c0-0.34,0.01-0.66,0.04-0.99
			c0.09-1.07-0.27-2.13-0.99-2.92c-0.73-0.79-1.75-1.24-2.82-1.24h-15.33c4.39-5.68,11.28-9.33,19.02-9.33
			C146.48,32.9,157.25,43.67,157.25,56.95z"/>
		<linearGradient id="SVGID_2_" gradientUnits="userSpaceOnUse" x1="106.62" y1="46.0912" x2="106.73" y2="46.0912">
			<stop  offset="0" style="stop-color:#ED7F22"/>
			<stop  offset="1" style="stop-color:#F19549"/>
		</linearGradient>
		<path class="st1" d="M106.73,46.06c-0.01,0.02-0.02,0.04-0.03,0.06c-0.03-0.02-0.05-0.04-0.08-0.06H106.73z"/>
		<linearGradient id="SVGID_3_" gradientUnits="userSpaceOnUse" x1="102.5298" y1="51.5201" x2="175.25" y2="51.5201">
			<stop  offset="0" style="stop-color:#ED7F22"/>
			<stop  offset="1" style="stop-color:#F19549"/>
		</linearGradient>
		<path class="st2" d="M174.29,59.49l-9.4,9.22c-0.74,0.73-1.16,1.73-1.15,2.78l0.13,13.17c0.01,1.78-1.44,3.24-3.22,3.22
			l-11.32-0.11c0.02-0.44,0.03-0.88,0.03-1.32v-5.88c7.53-5.15,12.46-13.81,12.46-23.62c0-15.81-12.81-28.62-28.62-28.62
			c-10.43,0-19.55,5.57-24.55,13.9h-6l-0.12-12.47c-0.02-1.79,1.43-3.24,3.22-3.22l13.17,0.12c1.04,0.01,2.04-0.4,2.78-1.15
			l9.22-9.4c1.25-1.27,3.3-1.27,4.55,0l9.23,9.4c0.73,0.75,1.73,1.16,2.78,1.15l13.17-0.12c1.78-0.02,3.23,1.43,3.22,3.22
			l-0.13,13.17c-0.01,1.04,0.41,2.05,1.15,2.78l9.4,9.22C175.57,56.18,175.57,58.23,174.29,59.49z"/>
		<linearGradient id="SVGID_4_" gradientUnits="userSpaceOnUse" x1="114.18" y1="53.8262" x2="157.25" y2="53.8262">
			<stop  offset="0" style="stop-color:#ED7F22"/>
			<stop  offset="1" style="stop-color:#F19549"/>
		</linearGradient>
		<path class="st3" d="M157.25,56.95c0,7.07-3.04,13.42-7.89,17.8V62.72c0-1.06-0.45-2.08-1.23-2.81c-0.71-0.65-1.64-1.01-2.6-1.01
			c-0.1,0-0.2,0-0.3,0.01c-0.08,0-0.16,0.01-0.24,0.01h-0.17c-6.37,0-11.54-5.18-11.54-11.54c0-0.34,0.01-0.66,0.04-0.99
			c0.09-1.07-0.27-2.13-0.99-2.92c-0.73-0.79-1.75-1.24-2.82-1.24h-15.33c4.39-5.68,11.28-9.33,19.02-9.33
			C146.48,32.9,157.25,43.67,157.25,56.95z"/>
		<linearGradient id="SVGID_5_" gradientUnits="userSpaceOnUse" x1="114.18" y1="53.8262" x2="157.25" y2="53.8262">
			<stop  offset="0" style="stop-color:#ED7F22"/>
			<stop  offset="1" style="stop-color:#F19549"/>
		</linearGradient>
		<path class="st4" d="M157.25,56.95c0,7.07-3.04,13.42-7.89,17.8V62.72c0-1.06-0.45-2.08-1.23-2.81c-0.71-0.65-1.64-1.01-2.6-1.01
			c-0.1,0-0.2,0-0.3,0.01c-0.08,0-0.16,0.01-0.24,0.01h-0.17c-6.37,0-11.54-5.18-11.54-11.54c0-0.34,0.01-0.66,0.04-0.99
			c0.09-1.07-0.27-2.13-0.99-2.92c-0.73-0.79-1.75-1.24-2.82-1.24h-15.33c4.39-5.68,11.28-9.33,19.02-9.33
			C146.48,32.9,157.25,43.67,157.25,56.95z"/>
	</g>
	<g>
		<g>
			<g>
				<linearGradient id="SVGID_6_" gradientUnits="userSpaceOnUse" x1="74.31" y1="90.4111" x2="135.97" y2="90.4111">
					<stop  offset="0" style="stop-color:#ED7F22"/>
					<stop  offset="1" style="stop-color:#F19549"/>
				</linearGradient>
				<path class="st5" d="M135.97,70.69v15.76c0,3.68-1.22,7.9-3.61,12.54c-2.33,4.5-5.68,9.16-9.69,13.48
					c-8.03,8.67-14.94,12.19-17.14,12.73c-2.79-0.53-10.18-4.54-17.95-13c-8.3-9.06-13.27-19.04-13.27-26.71v-14.8
					c6.84-2.61,12.25-8.17,14.69-15.07h32.28C123.72,62.52,129.13,68.08,135.97,70.69z"/>
			</g>
			<g>
				<linearGradient id="SVGID_7_" gradientUnits="userSpaceOnUse" x1="106.62" y1="46.0912" x2="106.73" y2="46.0912">
					<stop  offset="0" style="stop-color:#ED7F22"/>
					<stop  offset="1" style="stop-color:#F19549"/>
				</linearGradient>
				<path class="st6" d="M106.62,46.06c0.03,0.02,0.05,0.04,0.08,0.06c0.01-0.02,0.02-0.04,0.03-0.06H106.62z"/>
				<linearGradient id="SVGID_8_" gradientUnits="userSpaceOnUse" x1="64.75" y1="90.4512" x2="145.53" y2="90.4512">
					<stop  offset="0" style="stop-color:#ED7F22"/>
					<stop  offset="1" style="stop-color:#F19549"/>
				</linearGradient>
				<path class="st7" d="M144.82,62.74c-4.24,0-8.09-1.72-10.87-4.5c-2.78-2.78-4.5-6.62-4.5-10.86c0-0.45,0.02-0.88,0.06-1.32
					h-22.78c-0.01,0.02-0.02,0.04-0.03,0.06c-0.03-0.02-0.05-0.04-0.08-0.06H80.77c0.04,0.44,0.06,0.87,0.06,1.32
					c0,8.48-6.88,15.36-15.37,15.36c-0.23,0-0.47,0-0.71-0.02v23.73c0,22.22,27.95,48.39,40.39,48.39c5.81,0,15.91-6.54,24.55-15.86
					c8.17-8.81,15.04-20.08,15.77-30.67c0.05-0.62,0.07-1.24,0.07-1.86V62.72C145.29,62.74,145.05,62.74,144.82,62.74z
					 M139.79,86.45c0,4.3-1.36,9.11-4.03,14.29c-2.48,4.8-6.03,9.75-10.28,14.34c-8.87,9.56-17.38,14.02-20.34,14.02
					c-3.23,0-11.77-4.34-20.63-14.01c-8.78-9.57-14.02-20.29-14.02-28.64V67.88c7.81-1.91,13.93-8.19,15.62-16.08h38.06
					c0.33,1.53,0.83,3,1.47,4.39c2.66,5.77,7.86,10.15,14.15,11.69V86.45z"/>
			</g>
		</g>
	</g>
</g>
</svg>
