<?xml version="1.0" encoding="utf-8"?>
<!-- Generator: Adobe Illustrator 23.1.1, SVG Export Plug-In . SVG Version: 6.00 Build 0)  -->
<svg version="1.1" id="Layer_13" xmlns="http://www.w3.org/2000/svg" xmlns:xlink="http://www.w3.org/1999/xlink" x="0px" y="0px"
	 viewBox="0 0 240 150" style="enable-background:new 0 0 240 150;" xml:space="preserve">
<style type="text/css">
	.st0{fill:url(#SVGID_1_);}
	.st1{fill:url(#SVGID_2_);}
	.st2{fill:url(#SVGID_3_);}
	.st3{fill:url(#SVGID_4_);}
	.st4{fill:url(#SVGID_5_);}
	.st5{fill:url(#SVGID_6_);}
</style>
<linearGradient id="SVGID_1_" gradientUnits="userSpaceOnUse" x1="122.7863" y1="65.8294" x2="201.8098" y2="65.8294">
	<stop  offset="0" style="stop-color:#ED7F22"/>
	<stop  offset="1" style="stop-color:#F19549"/>
</linearGradient>
<path class="st0" d="M155.56,95.63c0,0.49,0.4,0.89,0.89,0.89h11.69c0.49,0,0.89-0.4,0.89-0.89V83.94c0-0.49-0.4-0.89-0.89-0.89
	h-10.76c-0.37,0.94-0.99,1.79-1.82,2.46V95.63z M136.1,53.71c0,0.49,0.4,0.89,0.89,0.89h11.69c0.49,0,0.89-0.4,0.89-0.89V42.02
	c0-0.49-0.4-0.89-0.89-0.89h-11.69c-0.49,0-0.89,0.4-0.89,0.89V53.71z M136.99,33.64h11.69c0.49,0,0.89-0.4,0.89-0.89V21.06
	c0-0.49-0.4-0.89-0.89-0.89h-11.69c-0.49,0-0.89,0.4-0.89,0.89v11.69C136.1,33.24,136.5,33.64,136.99,33.64z M122.79,116.6
	l7.15-0.04v-9.84l-7.15,5.19V116.6z M155.56,53.71c0,0.49,0.4,0.89,0.89,0.89h11.69c0.49,0,0.89-0.4,0.89-0.89V42.02
	c0-0.49-0.4-0.89-0.89-0.89h-11.69c-0.49,0-0.89,0.4-0.89,0.89V53.71z M156.45,33.64h11.69c0.49,0,0.89-0.4,0.89-0.89V21.06
	c0-0.49-0.4-0.89-0.89-0.89h-11.69c-0.49,0-0.89,0.4-0.89,0.89v11.69C155.56,33.24,155.96,33.64,156.45,33.64z M155.56,74.67
	c0,0.49,0.4,0.89,0.89,0.89h11.69c0.49,0,0.89-0.4,0.89-0.89V62.98c0-0.49-0.4-0.89-0.89-0.89h-11.69c-0.49,0-0.89,0.4-0.89,0.89
	V74.67z M175.92,33.64h11.69c0.49,0,0.89-0.4,0.89-0.89V21.06c0-0.49-0.4-0.89-0.89-0.89h-11.69c-0.49,0-0.89,0.4-0.89,0.89v11.69
	C175.03,33.24,175.43,33.64,175.92,33.64z M175.03,74.67c0,0.49,0.4,0.89,0.89,0.89h11.69c0.49,0,0.89-0.4,0.89-0.89V62.98
	c0-0.49-0.4-0.89-0.89-0.89h-11.69c-0.49,0-0.89,0.4-0.89,0.89V74.67z M175.03,95.63c0,0.49,0.4,0.89,0.89,0.89h11.69
	c0.49,0,0.89-0.4,0.89-0.89V83.94c0-0.49-0.4-0.89-0.89-0.89h-11.69c-0.49,0-0.89,0.4-0.89,0.89V95.63z M175.03,53.71
	c0,0.49,0.4,0.89,0.89,0.89h11.69c0.49,0,0.89-0.4,0.89-0.89V42.02c0-0.49-0.4-0.89-0.89-0.89h-11.69c-0.49,0-0.89,0.4-0.89,0.89
	V53.71z M148.78,75.54c0.18-0.1,0.37-0.19,0.55-0.28c0.14-0.16,0.24-0.37,0.24-0.6V62.98c0-0.49-0.4-0.89-0.89-0.89h-11.69
	c-0.49,0-0.89,0.4-0.89,0.89v11.69c0,0.49,0.4,0.89,0.89,0.89h11.69C148.71,75.56,148.74,75.55,148.78,75.54z M122.79,91.83
	l7.15-5.2v-28.1l-7.15,23.76V91.83z M192.91,3.11h-61.22c-4.91,0-8.9,3.99-8.9,8.9v34.53c0.04,0,0.08,0,0.12,0
	c0.22,0.01,0.46,0.02,0.71,0.05c0.27,0.04,0.52,0.08,0.76,0.13c0.17,0.03,0.34,0.07,0.51,0.12l0.44,0.14l0.17,0.08
	c0.21,0.08,0.39,0.16,0.58,0.25c0.14,0.07,0.27,0.13,0.38,0.19c0.18,0.09,0.36,0.19,0.54,0.3c0.21,0.13,0.4,0.28,0.59,0.43
	c0.14,0.11,0.25,0.2,0.37,0.3c0.28,0.25,0.52,0.49,0.76,0.76c0.12,0.13,0.22,0.25,0.32,0.38c0.22,0.29,0.41,0.58,0.6,0.89
	c0.08,0.14,0.17,0.29,0.25,0.45c0.03,0.05,0.04,0.11,0.07,0.16V12.01c0-0.95,0.8-1.75,1.75-1.75h61.22c0.95,0,1.75,0.8,1.75,1.75
	V121.4h-25.62v-17.96c0-0.49-0.4-0.89-0.89-0.89h-11.69c-0.49,0-0.89,0.4-0.89,0.89v17.96h-14.47c0.16,0.57,0.26,1.17,0.26,1.78
	l0.03,5.37h60.43V12.01C201.81,7.1,197.82,3.11,192.91,3.11z"/>
<g>
	
		<linearGradient id="SVGID_2_" gradientUnits="userSpaceOnUse" x1="146.5101" y1="127.9077" x2="92.211" y2="127.9077" gradientTransform="matrix(1 -5.329503e-03 5.329503e-03 1 -10.8153 -0.2736)">
		<stop  offset="0" style="stop-color:#ED7F22"/>
		<stop  offset="1" style="stop-color:#F19549"/>
	</linearGradient>
	<path class="st1" d="M134.67,121.54l-52.62,0.28l0.06,10.65l27.66-0.15c1-4.5,5.01-7.88,9.81-7.91c4.8-0.03,8.84,3.31,9.89,7.8
		l5.25-0.03c0.93,0,1.68-0.76,1.67-1.68l-0.04-7.3C136.35,122.28,135.59,121.53,134.67,121.54z"/>
	
		<linearGradient id="SVGID_3_" gradientUnits="userSpaceOnUse" x1="88.3127" y1="113.2626" x2="53.3769" y2="113.2626" gradientTransform="matrix(1 -5.329503e-03 5.329503e-03 1 -10.8153 -0.2736)">
		<stop  offset="0" style="stop-color:#ED7F22"/>
		<stop  offset="1" style="stop-color:#F19549"/>
	</linearGradient>
	<path class="st2" d="M76.37,92.56l-18.79,0.1c-1.43,0.01-2.74,0.81-3.39,2.08l-10.42,20.39c-0.39,0.76-0.59,1.61-0.59,2.46
		l0.06,11.92c0.01,1.75,1.44,3.16,3.18,3.15l1.87-0.01c1-4.5,5.01-7.88,9.81-7.91c4.8-0.03,8.85,3.31,9.9,7.8l10.19-0.05L78,94.17
		C78,93.27,77.27,92.55,76.37,92.56z M71.32,109.13l-17,0.09l5.41-9.98l11.54-0.06L71.32,109.13z"/>
	
		<linearGradient id="SVGID_4_" gradientUnits="userSpaceOnUse" x1="75.3065" y1="135.4919" x2="61.2298" y2="135.4919" gradientTransform="matrix(1 -5.329503e-03 5.329503e-03 1 -10.8153 -0.2736)">
		<stop  offset="0" style="stop-color:#ED7F22"/>
		<stop  offset="1" style="stop-color:#F19549"/>
	</linearGradient>
	<path class="st3" d="M58.14,127.81c-3.1,0.02-5.72,2.03-6.64,4.81c-0.24,0.71-0.37,1.47-0.36,2.26c0.02,3.89,3.19,7.02,7.08,7
		c3.89-0.02,7.02-3.19,7-7.08c0-0.79-0.14-1.55-0.39-2.26C63.87,129.78,61.24,127.8,58.14,127.81z"/>
	
		<linearGradient id="SVGID_5_" gradientUnits="userSpaceOnUse" x1="136.7619" y1="135.4919" x2="122.6902" y2="135.4919" gradientTransform="matrix(1 -5.329503e-03 5.329503e-03 1 -10.8153 -0.2736)">
		<stop  offset="0" style="stop-color:#ED7F22"/>
		<stop  offset="1" style="stop-color:#F19549"/>
	</linearGradient>
	<path class="st4" d="M119.6,127.49c-3.1,0.02-5.72,2.03-6.64,4.81c-0.24,0.71-0.37,1.47-0.36,2.26c0.02,3.89,3.19,7.02,7.08,7
		c3.88-0.02,7.02-3.19,7-7.08c0-0.79-0.14-1.55-0.39-2.26C125.33,129.45,122.69,127.47,119.6,127.49z"/>
	<linearGradient id="SVGID_6_" gradientUnits="userSpaceOnUse" x1="152.8261" y1="84.9703" x2="81.9702" y2="84.9703">
		<stop  offset="0" style="stop-color:#ED7F22"/>
		<stop  offset="1" style="stop-color:#F19549"/>
	</linearGradient>
	<path class="st5" d="M152.62,80.16c-0.34-0.47-1.01-0.57-1.48-0.23l-4.51,3.31l-1.15-1.57c-0.04-0.06-0.12-0.07-0.18-0.03
		l-35.25,25.6l15.56-51.69c0.02-0.06,0.02-0.11,0.03-0.17c0.03-0.11,0.05-0.22,0.06-0.34c0.01-0.1,0.02-0.19,0.02-0.29
		c0-0.11,0-0.21,0-0.32c-0.01-0.1-0.02-0.19-0.03-0.28c-0.02-0.11-0.04-0.22-0.07-0.32c-0.02-0.08-0.05-0.16-0.08-0.24
		c-0.04-0.12-0.09-0.23-0.14-0.34c-0.03-0.06-0.06-0.12-0.1-0.18c-0.07-0.12-0.14-0.23-0.22-0.34c-0.04-0.05-0.08-0.1-0.13-0.15
		c-0.09-0.1-0.18-0.2-0.28-0.29c-0.06-0.05-0.12-0.1-0.18-0.14c-0.06-0.05-0.12-0.1-0.19-0.15c-0.04-0.03-0.09-0.04-0.13-0.06
		c-0.07-0.04-0.15-0.08-0.22-0.11c-0.12-0.06-0.23-0.11-0.35-0.15c-0.03-0.01-0.06-0.03-0.09-0.04c-0.05-0.02-0.1-0.02-0.15-0.03
		c-0.12-0.03-0.24-0.05-0.35-0.07c-0.09-0.01-0.19-0.02-0.28-0.02c-0.11,0-0.21,0-0.32,0c-0.1,0.01-0.2,0.02-0.29,0.04
		c-0.1,0.02-0.2,0.04-0.31,0.06c-0.09,0.02-0.18,0.05-0.26,0.08c-0.11,0.04-0.21,0.08-0.31,0.13c-0.08,0.04-0.15,0.08-0.22,0.12
		c-0.1,0.06-0.2,0.12-0.29,0.19c-0.07,0.05-0.13,0.11-0.2,0.17c-0.08,0.07-0.16,0.15-0.24,0.24c-0.07,0.08-0.13,0.16-0.19,0.24
		c-0.04,0.05-0.08,0.09-0.12,0.15l-34.75,54.29l-3.25,0.02l0.06,11.11l18.09-0.1l-8.65-9.18l21.65-33.82l-11.72,38.94
		c-0.5,1.65,0.45,3.41,2.1,3.9c0.3,0.09,0.6,0.12,0.89,0.12c0.11,0,0.22,0,0.33,0c0.01,0,0.02,0,0.03,0
		c0.55-0.04,1.1-0.22,1.57-0.57l42.69-30.98c0.06-0.04,0.07-0.12,0.03-0.18l-1.15-1.57l4.51-3.31
		C152.86,81.3,152.97,80.63,152.62,80.16z"/>
</g>
</svg>
