<?xml version="1.0" encoding="utf-8"?>
<!-- Generator: Adobe Illustrator 23.1.1, SVG Export Plug-In . SVG Version: 6.00 Build 0)  -->
<svg version="1.1" xmlns="http://www.w3.org/2000/svg" xmlns:xlink="http://www.w3.org/1999/xlink" x="0px" y="0px"
	 viewBox="0 0 240 150" style="enable-background:new 0 0 240 150;" xml:space="preserve">
<style type="text/css">
	.st0{fill:url(#SVGID_1_);}
</style>
<g id="Layer_1">
</g>
<g id="Layer_2">
</g>
<g id="Layer_3">
	<linearGradient id="SVGID_1_" gradientUnits="userSpaceOnUse" x1="79.4465" y1="75" x2="160.5535" y2="75">
		<stop  offset="0" style="stop-color:#ED7F22"/>
		<stop  offset="1" style="stop-color:#F19549"/>
	</linearGradient>
	<path class="st0" d="M158.41,34.11c1.18,0,2.14-0.82,2.14-1.83v-7.35c0-1.01-0.96-1.83-2.14-1.83h-5.68l-3.43-7.53
		c-0.7-1.54-2.44-2.56-4.38-2.56H95.07c-1.94,0-3.67,1.02-4.38,2.56l-3.43,7.53h-5.68c-1.18,0-2.14,0.82-2.14,1.83v7.35
		c0,1.01,0.96,1.83,2.14,1.83h1.74l1.03,3.38h-2.77c-1.18,0-2.14,0.82-2.14,1.83v7.35c0,1.01,0.96,1.83,2.14,1.83h1.74l1.03,3.38
		h-2.77c-1.18,0-2.14,0.82-2.14,1.83v7.35c0,1.01,0.96,1.83,2.14,1.83h1.74l1.03,3.38h-2.77c-1.18,0-2.14,0.82-2.14,1.83v7.35
		c0,1.01,0.96,1.83,2.14,1.83h1.74l1.03,3.38h-2.77c-1.18,0-2.14,0.82-2.14,1.83v7.35c0,1.01,0.96,1.83,2.14,1.83h1.74l13,42.77
		c0.46,1.5,2.05,2.55,3.86,2.55h39.62c1.82,0,3.41-1.05,3.86-2.55l13-42.77h1.74c1.18,0,2.14-0.82,2.14-1.83v-7.35
		c0-1.01-0.96-1.83-2.14-1.83h-2.77l1.03-3.38h1.74c1.18,0,2.14-0.82,2.14-1.83v-7.35c0-1.01-0.96-1.83-2.14-1.83h-2.77l1.03-3.38
		h1.74c1.18,0,2.14-0.82,2.14-1.83v-7.35c0-1.01-0.96-1.83-2.14-1.83h-2.77l1.03-3.38h1.74c1.18,0,2.14-0.82,2.14-1.83v-7.35
		c0-1.01-0.96-1.83-2.14-1.83h-2.77l1.03-3.38H158.41z"/>
</g>
</svg>
