<?xml version="1.0" encoding="utf-8"?>
<!-- Generator: Adobe Illustrator 23.1.1, SVG Export Plug-In . SVG Version: 6.00 Build 0)  -->
<svg version="1.1" id="Layer_1" xmlns="http://www.w3.org/2000/svg" xmlns:xlink="http://www.w3.org/1999/xlink" x="0px" y="0px"
	 viewBox="0 0 180 150" style="enable-background:new 0 0 180 150;" xml:space="preserve">
<style type="text/css">
	.st0{fill:url(#SVGID_1_);}
	.st1{fill:url(#SVGID_2_);}
	.st2{fill:url(#SVGID_3_);}
	.st3{fill:url(#SVGID_4_);}
	.st4{fill:url(#SVGID_5_);}
	.st5{fill:url(#SVGID_6_);}
	.st6{fill:url(#SVGID_7_);}
	.st7{fill:url(#SVGID_8_);}
</style>
<g>
	<linearGradient id="SVGID_1_" gradientUnits="userSpaceOnUse" x1="79.6242" y1="98.1705" x2="100.3765" y2="98.1705">
		<stop  offset="0" style="stop-color:#ED7F22"/>
		<stop  offset="1" style="stop-color:#F19549"/>
	</linearGradient>
	<path class="st0" d="M90.05,96.55c-3.34-0.05-6.6-1.14-9.77-3.24c-0.02-0.01-0.05,0-0.05,0.02L79.62,99c0,0.02,0.01,0.03,0.02,0.04
		l10.37,4c0.01,0,0.02,0,0.03,0l10.32-3.99c0.01-0.01,0.02-0.02,0.02-0.04l-0.6-5.66c0-0.03-0.03-0.04-0.05-0.02
		C96.56,95.41,93.31,96.5,90.05,96.55z"/>
	<linearGradient id="SVGID_2_" gradientUnits="userSpaceOnUse" x1="83.9267" y1="113.8932" x2="96.1005" y2="113.8932">
		<stop  offset="0" style="stop-color:#ED7F22"/>
		<stop  offset="1" style="stop-color:#F19549"/>
	</linearGradient>
	<path class="st1" d="M90.05,108.99c-0.01-0.01-0.03-0.01-0.04,0l-6.07,3.69c-0.02,0.01-0.02,0.03-0.01,0.04l2.73,6.07
		c0.01,0.01,0.02,0.02,0.03,0.02h6.67c0.01,0,0.03-0.01,0.03-0.02l2.71-6.09c0.01-0.02,0-0.03-0.01-0.04L90.05,108.99z"/>
	<linearGradient id="SVGID_3_" gradientUnits="userSpaceOnUse" x1="20" y1="57.8499" x2="160" y2="57.8499">
		<stop  offset="0" style="stop-color:#ED7F22"/>
		<stop  offset="1" style="stop-color:#F19549"/>
	</linearGradient>
	<path class="st2" d="M90,5C51.34,5,20,36.34,20,75c0,13.04,3.58,25.25,9.79,35.7c0.02-0.02,0.04-0.05,0.06-0.07
		c1.78-1.89,6.26-4.7,25.25-9.67c6.88-1.8,13.55-3.32,17.29-4.14c0.01,0,0.02-0.02,0.03-0.03l1.03-9.71c0-0.01,0-0.02-0.01-0.03
		c-4.03-4.76-6.86-10.1-8.31-13.16c0-0.01-0.01-0.01-0.02-0.02c-1.86-0.31-3.28-0.95-4.24-1.91c-0.85-0.85-2.01-2.01-2.5-13.76
		c0-0.01-0.01-0.03-0.02-0.03c-3.76-1.72-5.66-3.94-5.66-6.58c0-1.69,0.77-4.07,4.34-6.02c0.01-0.01,0.02-0.02,0.02-0.03
		c1.16-14.83,12.08-27.08,26.74-29.89l0.11-0.02c2.04-0.38,4.1-0.58,6.14-0.58c2.03,0,4.09,0.19,6.13,0.58l0.14,0.03
		c14.63,2.81,25.55,15.06,26.71,29.89c0,0.01,0.01,0.02,0.02,0.03c3.57,1.95,4.34,4.33,4.34,6.02c0,2.65-1.92,4.87-5.69,6.6
		c-0.01,0.01-0.02,0.02-0.02,0.03c-0.49,11.73-1.65,12.89-2.5,13.74c-0.96,0.96-2.38,1.6-4.24,1.91c-0.01,0-0.02,0.01-0.02,0.02
		c-1.45,3.07-4.29,8.42-8.32,13.18c0,0-0.01,0,0,0.01c0.02,0.14,0.98,9.21,1.03,9.72c0,0.01,0.01,0.02,0.03,0.03
		c3.74,0.83,10.41,2.34,17.29,4.14c18.99,4.97,23.47,7.78,25.25,9.67c0.02,0.02,0.04,0.05,0.06,0.07C156.42,100.25,160,88.04,160,75
		C160,36.34,128.66,5,90,5z"/>
	<linearGradient id="SVGID_4_" gradientUnits="userSpaceOnUse" x1="65.9124" y1="74.8329" x2="114.1007" y2="74.8329">
		<stop  offset="0" style="stop-color:#ED7F22"/>
		<stop  offset="1" style="stop-color:#F19549"/>
	</linearGradient>
	<path class="st3" d="M67.61,66.66h2.46c0.01,0,0.03,0.01,0.03,0.02l0.94,2.27c2.13,5.18,10.2,19.99,18.99,20.19
		c8.76-0.19,16.82-15.01,18.95-20.19l0.94-2.27c0.01-0.01,0.02-0.02,0.03-0.02l2.46,0c0.34,0,0.74-0.04,1.12-0.09
		c0.21-1.31,0.42-3.53,0.58-6.01c0-0.02-0.02-0.04-0.04-0.04c-7.08,1.5-15.35,1.97-20.3,2.11c-0.02,0-0.03,0.02-0.03,0.03l0,6.48
		h0.9c2.15,0,3.88,1.85,3.69,4.04c-0.17,1.94-1.93,3.36-3.88,3.36h-4.21c-2.16,0-3.91-1.74-3.91-3.9c0-3.94,0-9.51,0-9.99
		c0-0.02-0.01-0.03-0.03-0.03c-4.97-0.14-13.26-0.61-20.33-2.12c-0.02,0-0.04,0.01-0.04,0.04c0.16,2.48,0.38,4.71,0.58,6.02
		C66.87,66.63,67.29,66.66,67.61,66.66z"/>
	<linearGradient id="SVGID_5_" gradientUnits="userSpaceOnUse" x1="98.7781" y1="124.3201" x2="145.4758" y2="124.3201">
		<stop  offset="0" style="stop-color:#ED7F22"/>
		<stop  offset="1" style="stop-color:#F19549"/>
	</linearGradient>
	<path class="st4" d="M107.66,104.4c-0.02,0-0.04,0.01-0.04,0.03l-0.07,10.18c-0.01,2.19-2.42,3.54-4.29,2.4l-1.43-0.87
		c-0.02-0.01-0.04,0-0.05,0.02l-3,6.6c0,0.01,0,0.01,0,0.02l1.51,21.47c18.35-2.7,34.37-12.53,45.19-26.57
		c-0.19-0.98-0.43-1.65-0.72-1.96C142.67,113.48,126.49,108.56,107.66,104.4z"/>
	<linearGradient id="SVGID_6_" gradientUnits="userSpaceOnUse" x1="86.2315" y1="135.1773" x2="93.7679" y2="135.1773">
		<stop  offset="0" style="stop-color:#ED7F22"/>
		<stop  offset="1" style="stop-color:#F19549"/>
	</linearGradient>
	<path class="st5" d="M92.36,125.35h-4.72c-0.02,0-0.03,0.01-0.03,0.03l-1.37,19.51c1.25,0.07,2.5,0.1,3.77,0.1
		c1.26,0,2.52-0.04,3.77-0.1l-1.37-19.51C92.4,125.37,92.38,125.35,92.36,125.35z"/>
	<linearGradient id="SVGID_7_" gradientUnits="userSpaceOnUse" x1="61.7547" y1="38.8681" x2="118.2897" y2="38.8681">
		<stop  offset="0" style="stop-color:#ED7F22"/>
		<stop  offset="1" style="stop-color:#F19549"/>
	</linearGradient>
	<path class="st6" d="M91.76,22.5c-0.58-0.04-1.16-0.06-1.73-0.06c-0.58,0-1.16,0.02-1.73,0.06c-0.02,0-0.03,0.02-0.03,0.04v13.79
		c0,2.15-1.85,3.88-4.04,3.69c-1.94-0.17-3.36-1.93-3.36-3.88l0-11.94c0-0.02-0.03-0.04-0.05-0.03
		c-9.91,3.81-16.47,13.28-16.47,23.97c0,1.64-1.05,3.03-2.55,3.51c-0.03,0.01-0.03,0.04-0.01,0.06c4.08,1.64,13.67,3.59,28.25,3.59
		s24.17-1.95,28.25-3.59c0.03-0.01,0.02-0.05-0.01-0.06c-1.5-0.48-2.55-1.87-2.55-3.51c0-10.7-6.56-20.17-16.47-23.97
		c-0.02-0.01-0.05,0.01-0.05,0.03v12.14c0,2.15-1.85,3.88-4.04,3.69c-1.94-0.17-3.36-1.93-3.36-3.88v-13.6
		C91.79,22.52,91.77,22.51,91.76,22.5z"/>
	<linearGradient id="SVGID_8_" gradientUnits="userSpaceOnUse" x1="34.5232" y1="124.3177" x2="81.2281" y2="124.3177">
		<stop  offset="0" style="stop-color:#ED7F22"/>
		<stop  offset="1" style="stop-color:#F19549"/>
	</linearGradient>
	<path class="st7" d="M78.28,116.16c-0.01-0.02-0.03-0.03-0.05-0.02l-1.44,0.87c-1.87,1.14-4.27-0.2-4.29-2.39l-0.1-10.2
		c0-0.02-0.02-0.04-0.04-0.03c-18.84,4.16-35.02,9.09-37.12,11.31c-0.29,0.31-0.53,0.98-0.72,1.96
		c10.82,14.05,26.84,23.87,45.19,26.57l1.51-21.56c0-0.01,0-0.01,0-0.02L78.28,116.16z"/>
</g>
</svg>
