<?xml version="1.0" encoding="utf-8"?>
<!-- Generator: Adobe Illustrator 23.1.1, SVG Export Plug-In . SVG Version: 6.00 Build 0)  -->
<svg version="1.1" id="Layer_3" xmlns="http://www.w3.org/2000/svg" xmlns:xlink="http://www.w3.org/1999/xlink" x="0px" y="0px"
	 viewBox="0 0 240 150" style="enable-background:new 0 0 240 150;" xml:space="preserve">
<style type="text/css">
	.st0{fill:url(#SVGID_1_);}
</style>
<linearGradient id="SVGID_1_" gradientUnits="userSpaceOnUse" x1="50" y1="75" x2="190" y2="75">
	<stop  offset="0" style="stop-color:#ED7F22"/>
	<stop  offset="1" style="stop-color:#F19549"/>
</linearGradient>
<path class="st0" d="M120,5C81.34,5,50,36.34,50,75s31.34,70,70,70c38.66,0,70-31.34,70-70S158.66,5,120,5z M92.4,107.6
	c0,1.69-1.37,3.07-3.07,3.07H77.07c-1.69,0-3.07-1.37-3.07-3.07V58.54c0-1.69,1.37-3.07,3.07-3.07h12.27c1.69,0,3.07,1.37,3.07,3.07
	V107.6z M159.21,85.81c0.42,1.05,0.65,2.19,0.65,3.39c0,4.23-2.88,7.81-6.78,8.88c2.56,6.47-2.59,12.59-9.2,12.59h-20.06
	c-11.64,0-19.28-2.94-25.29-4.95V59.71c3.93-1.96,6.92-3.23,10.43-6.74c5.21-5.21,7.97-18.01,7.97-25.1c0-1.69,1.37-3.07,3.07-3.07
	h2.53c6.96,0,12.72,5.58,12.8,12.53c0.05,4.2-1.04,14.49-3.07,18.13h23.91c4.79,0,9.23,3.37,9.77,8.13c0.31,2.77-0.61,5.33-2.29,7.2
	C168.21,75.9,165.79,84.02,159.21,85.81z"/>
</svg>
