<?xml version="1.0" encoding="utf-8"?>
<!-- Generator: Adobe Illustrator 23.1.1, SVG Export Plug-In . SVG Version: 6.00 Build 0)  -->
<svg version="1.1" id="Layer_1" xmlns="http://www.w3.org/2000/svg" xmlns:xlink="http://www.w3.org/1999/xlink" x="0px" y="0px"
	 viewBox="0 0 240 150" style="enable-background:new 0 0 240 150;" xml:space="preserve">
<style type="text/css">
	.st0{fill:url(#SVGID_1_);}
	.st1{fill:url(#SVGID_2_);}
	.st2{fill:url(#SVGID_3_);}
	.st3{fill:url(#SVGID_4_);}
	.st4{fill:url(#SVGID_5_);}
	.st5{fill:url(#SVGID_6_);}
	.st6{fill:url(#SVGID_7_);}
	.st7{fill:url(#SVGID_8_);}
	.st8{fill:url(#SVGID_9_);}
	.st9{fill:url(#SVGID_10_);}
	.st10{fill:url(#SVGID_11_);}
	.st11{fill:url(#SVGID_12_);}
	.st12{fill:url(#SVGID_13_);}
	.st13{fill:url(#SVGID_14_);}
	.st14{fill:url(#SVGID_15_);}
	.st15{fill:url(#SVGID_16_);}
	.st16{fill:url(#SVGID_17_);}
	.st17{fill:url(#SVGID_18_);}
	.st18{fill:url(#SVGID_19_);}
	.st19{fill:url(#SVGID_20_);}
	.st20{fill:url(#SVGID_21_);}
	.st21{fill:url(#SVGID_22_);}
	.st22{fill:url(#SVGID_23_);}
	.st23{fill:url(#SVGID_24_);}
	.st24{fill:url(#SVGID_25_);}
	.st25{fill:url(#SVGID_26_);}
	.st26{fill:url(#SVGID_27_);}
	.st27{fill:url(#SVGID_28_);}
</style>
<g>
	<linearGradient id="SVGID_1_" gradientUnits="userSpaceOnUse" x1="71.3242" y1="71.0714" x2="77.1957" y2="76.9428">
		<stop  offset="0" style="stop-color:#ED7F22"/>
		<stop  offset="1" style="stop-color:#F19549"/>
	</linearGradient>
	<path class="st0" d="M74.26,69.85c-2.29,0-4.16,1.87-4.16,4.16c0,2.29,1.87,4.16,4.16,4.16h0c2.29,0,4.16-1.87,4.16-4.16
		C78.42,71.72,76.55,69.85,74.26,69.85z"/>
	<linearGradient id="SVGID_2_" gradientUnits="userSpaceOnUse" x1="70.1034" y1="74.0071" x2="70.1034" y2="74.0071">
		<stop  offset="0" style="stop-color:#ED7F22"/>
		<stop  offset="1" style="stop-color:#F19549"/>
	</linearGradient>
	<polygon class="st1" points="70.1,74.01 70.1,74.01 70.1,74.01 	"/>
	<linearGradient id="SVGID_3_" gradientUnits="userSpaceOnUse" x1="88.0684" y1="71.0714" x2="93.9398" y2="76.9428">
		<stop  offset="0" style="stop-color:#ED7F22"/>
		<stop  offset="1" style="stop-color:#F19549"/>
	</linearGradient>
	<path class="st2" d="M91,69.85c-2.29,0-4.16,1.87-4.16,4.16c0,2.29,1.87,4.16,4.16,4.16h0c2.29,0,4.16-1.87,4.16-4.16
		C95.16,71.72,93.29,69.85,91,69.85z"/>
	<linearGradient id="SVGID_4_" gradientUnits="userSpaceOnUse" x1="86.8475" y1="74.0071" x2="86.8475" y2="74.0071">
		<stop  offset="0" style="stop-color:#ED7F22"/>
		<stop  offset="1" style="stop-color:#F19549"/>
	</linearGradient>
	<polygon class="st3" points="86.85,74.01 86.85,74.01 86.85,74.01 	"/>
	<linearGradient id="SVGID_5_" gradientUnits="userSpaceOnUse" x1="104.8126" y1="71.0714" x2="110.684" y2="76.9428">
		<stop  offset="0" style="stop-color:#ED7F22"/>
		<stop  offset="1" style="stop-color:#F19549"/>
	</linearGradient>
	<path class="st4" d="M107.75,69.85c-2.29,0-4.16,1.87-4.16,4.16c0,2.29,1.87,4.16,4.16,4.16h0c2.29,0,4.16-1.87,4.16-4.16
		C111.91,71.72,110.03,69.85,107.75,69.85z"/>
	<linearGradient id="SVGID_6_" gradientUnits="userSpaceOnUse" x1="103.5917" y1="74.0071" x2="103.5917" y2="74.0071">
		<stop  offset="0" style="stop-color:#ED7F22"/>
		<stop  offset="1" style="stop-color:#F19549"/>
	</linearGradient>
	<polygon class="st5" points="103.59,74.01 103.59,74.01 103.59,74.01 	"/>
	<linearGradient id="SVGID_7_" gradientUnits="userSpaceOnUse" x1="120.3359" y1="74.0071" x2="120.3359" y2="74.0071">
		<stop  offset="0" style="stop-color:#ED7F22"/>
		<stop  offset="1" style="stop-color:#F19549"/>
	</linearGradient>
	<polygon class="st6" points="120.34,74.01 120.34,74.01 120.34,74.01 	"/>
	<linearGradient id="SVGID_8_" gradientUnits="userSpaceOnUse" x1="121.5567" y1="71.0714" x2="127.4281" y2="76.9428">
		<stop  offset="0" style="stop-color:#ED7F22"/>
		<stop  offset="1" style="stop-color:#F19549"/>
	</linearGradient>
	<path class="st7" d="M120.34,74.01c0,2.29,1.87,4.16,4.16,4.16h0c2.29,0,4.16-1.87,4.16-4.16c0-2.29-1.87-4.16-4.16-4.16
		C122.21,69.85,120.34,71.72,120.34,74.01z"/>
	<linearGradient id="SVGID_9_" gradientUnits="userSpaceOnUse" x1="71.3242" y1="85.0248" x2="77.1957" y2="90.8963">
		<stop  offset="0" style="stop-color:#ED7F22"/>
		<stop  offset="1" style="stop-color:#F19549"/>
	</linearGradient>
	<path class="st8" d="M74.26,83.8c-2.29,0-4.16,1.87-4.16,4.16c0,2.29,1.87,4.16,4.16,4.16l0,0c2.29,0,4.16-1.87,4.16-4.16
		S76.55,83.8,74.26,83.8z"/>
	<linearGradient id="SVGID_10_" gradientUnits="userSpaceOnUse" x1="70.1033" y1="87.9605" x2="70.1034" y2="87.9606">
		<stop  offset="0" style="stop-color:#ED7F22"/>
		<stop  offset="1" style="stop-color:#F19549"/>
	</linearGradient>
	<polygon class="st9" points="70.1,87.96 70.1,87.96 70.1,87.96 	"/>
	<linearGradient id="SVGID_11_" gradientUnits="userSpaceOnUse" x1="86.8475" y1="87.9605" x2="86.8475" y2="87.9606">
		<stop  offset="0" style="stop-color:#ED7F22"/>
		<stop  offset="1" style="stop-color:#F19549"/>
	</linearGradient>
	<polygon class="st10" points="86.85,87.96 86.85,87.96 86.85,87.96 	"/>
	<linearGradient id="SVGID_12_" gradientUnits="userSpaceOnUse" x1="88.0684" y1="85.0248" x2="93.9399" y2="90.8963">
		<stop  offset="0" style="stop-color:#ED7F22"/>
		<stop  offset="1" style="stop-color:#F19549"/>
	</linearGradient>
	<path class="st11" d="M91,83.8c-2.29,0-4.16,1.87-4.16,4.16c0,2.29,1.87,4.16,4.16,4.16l0,0c2.29,0,4.16-1.87,4.16-4.16
		S93.29,83.8,91,83.8z"/>
	<linearGradient id="SVGID_13_" gradientUnits="userSpaceOnUse" x1="103.5916" y1="87.9605" x2="103.5917" y2="87.9606">
		<stop  offset="0" style="stop-color:#ED7F22"/>
		<stop  offset="1" style="stop-color:#F19549"/>
	</linearGradient>
	<polygon class="st12" points="103.59,87.96 103.59,87.96 103.59,87.96 	"/>
	<linearGradient id="SVGID_14_" gradientUnits="userSpaceOnUse" x1="104.8126" y1="85.0248" x2="110.684" y2="90.8963">
		<stop  offset="0" style="stop-color:#ED7F22"/>
		<stop  offset="1" style="stop-color:#F19549"/>
	</linearGradient>
	<path class="st13" d="M107.75,83.8c-2.29,0-4.16,1.87-4.16,4.16c0,2.29,1.87,4.16,4.16,4.16l0,0c2.29,0,4.16-1.87,4.16-4.16
		S110.03,83.8,107.75,83.8z"/>
	<linearGradient id="SVGID_15_" gradientUnits="userSpaceOnUse" x1="71.3242" y1="98.9783" x2="77.1957" y2="104.8497">
		<stop  offset="0" style="stop-color:#ED7F22"/>
		<stop  offset="1" style="stop-color:#F19549"/>
	</linearGradient>
	<path class="st14" d="M74.26,97.76c-2.29,0-4.16,1.87-4.16,4.16s1.87,4.16,4.16,4.16l0,0c2.29,0,4.16-1.87,4.16-4.16
		C78.42,99.63,76.55,97.76,74.26,97.76z"/>
	<linearGradient id="SVGID_16_" gradientUnits="userSpaceOnUse" x1="70.1033" y1="101.914" x2="70.1034" y2="101.9141">
		<stop  offset="0" style="stop-color:#ED7F22"/>
		<stop  offset="1" style="stop-color:#F19549"/>
	</linearGradient>
	<polygon class="st15" points="70.1,101.91 70.1,101.91 70.1,101.91 	"/>
	<linearGradient id="SVGID_17_" gradientUnits="userSpaceOnUse" x1="88.0684" y1="98.9783" x2="93.9398" y2="104.8497">
		<stop  offset="0" style="stop-color:#ED7F22"/>
		<stop  offset="1" style="stop-color:#F19549"/>
	</linearGradient>
	<path class="st16" d="M91,97.76c-2.29,0-4.16,1.87-4.16,4.16s1.87,4.16,4.16,4.16l0,0c2.29,0,4.16-1.87,4.16-4.16
		C95.16,99.63,93.29,97.76,91,97.76z"/>
	<linearGradient id="SVGID_18_" gradientUnits="userSpaceOnUse" x1="86.8475" y1="101.914" x2="86.8475" y2="101.9141">
		<stop  offset="0" style="stop-color:#ED7F22"/>
		<stop  offset="1" style="stop-color:#F19549"/>
	</linearGradient>
	<polygon class="st17" points="86.85,101.91 86.85,101.91 86.85,101.91 	"/>
	<linearGradient id="SVGID_19_" gradientUnits="userSpaceOnUse" x1="103.5916" y1="101.914" x2="103.5917" y2="101.9141">
		<stop  offset="0" style="stop-color:#ED7F22"/>
		<stop  offset="1" style="stop-color:#F19549"/>
	</linearGradient>
	<polygon class="st18" points="103.59,101.91 103.59,101.91 103.59,101.91 	"/>
	<linearGradient id="SVGID_20_" gradientUnits="userSpaceOnUse" x1="104.8125" y1="98.9783" x2="110.684" y2="104.8497">
		<stop  offset="0" style="stop-color:#ED7F22"/>
		<stop  offset="1" style="stop-color:#F19549"/>
	</linearGradient>
	<path class="st19" d="M107.75,97.76c-2.29,0-4.16,1.87-4.16,4.16s1.87,4.16,4.16,4.16l0,0c2.29,0,4.16-1.87,4.16-4.16
		C111.91,99.63,110.03,97.76,107.75,97.76z"/>
	<linearGradient id="SVGID_21_" gradientUnits="userSpaceOnUse" x1="70.1034" y1="115.8675" x2="70.1034" y2="115.8675">
		<stop  offset="0" style="stop-color:#ED7F22"/>
		<stop  offset="1" style="stop-color:#F19549"/>
	</linearGradient>
	<polygon class="st20" points="70.1,115.87 70.1,115.87 70.1,115.87 	"/>
	<linearGradient id="SVGID_22_" gradientUnits="userSpaceOnUse" x1="71.3242" y1="112.9317" x2="77.1957" y2="118.8032">
		<stop  offset="0" style="stop-color:#ED7F22"/>
		<stop  offset="1" style="stop-color:#F19549"/>
	</linearGradient>
	<path class="st21" d="M74.26,111.71c-2.29,0-4.16,1.87-4.16,4.16s1.87,4.16,4.16,4.16h0c2.29,0,4.16-1.87,4.16-4.16
		S76.55,111.71,74.26,111.71z"/>
	<linearGradient id="SVGID_23_" gradientUnits="userSpaceOnUse" x1="86.8475" y1="115.8675" x2="86.8475" y2="115.8675">
		<stop  offset="0" style="stop-color:#ED7F22"/>
		<stop  offset="1" style="stop-color:#F19549"/>
	</linearGradient>
	<polygon class="st22" points="86.85,115.87 86.85,115.87 86.85,115.87 	"/>
	<linearGradient id="SVGID_24_" gradientUnits="userSpaceOnUse" x1="88.0684" y1="112.9317" x2="93.9398" y2="118.8032">
		<stop  offset="0" style="stop-color:#ED7F22"/>
		<stop  offset="1" style="stop-color:#F19549"/>
	</linearGradient>
	<path class="st23" d="M91,111.71c-2.29,0-4.16,1.87-4.16,4.16s1.87,4.16,4.16,4.16h0c2.29,0,4.16-1.87,4.16-4.16
		S93.29,111.71,91,111.71z"/>
	<linearGradient id="SVGID_25_" gradientUnits="userSpaceOnUse" x1="104.8125" y1="112.9317" x2="110.684" y2="118.8032">
		<stop  offset="0" style="stop-color:#ED7F22"/>
		<stop  offset="1" style="stop-color:#F19549"/>
	</linearGradient>
	<path class="st24" d="M103.59,115.87c0,2.29,1.87,4.16,4.16,4.16h0c2.29,0,4.16-1.87,4.16-4.16s-1.87-4.16-4.16-4.16
		C105.46,111.71,103.59,113.58,103.59,115.87z"/>
	<linearGradient id="SVGID_26_" gradientUnits="userSpaceOnUse" x1="103.5917" y1="115.8675" x2="103.5917" y2="115.8675">
		<stop  offset="0" style="stop-color:#ED7F22"/>
		<stop  offset="1" style="stop-color:#F19549"/>
	</linearGradient>
	<polygon class="st25" points="103.59,115.87 103.59,115.87 103.59,115.87 	"/>
	<linearGradient id="SVGID_27_" gradientUnits="userSpaceOnUse" x1="54.918" y1="18.0545" x2="152.3558" y2="115.4923">
		<stop  offset="0" style="stop-color:#ED7F22"/>
		<stop  offset="1" style="stop-color:#F19549"/>
	</linearGradient>
	<path class="st26" d="M129.7,135.9l-2.43-0.53c-2.9-0.63-5.42-2.47-6.9-5.05c-0.37-0.64-0.67-1.31-0.89-2H62.96
		c-4.1,0-7.43-3.33-7.43-7.43v-58.4h116.99v9.15c3.87,0.06,7.35,2.27,9.14,5.57V33.43c0-9.14-7.43-16.57-16.57-16.57h-7.14v-9
		c0-2.29-1.87-4.16-4.16-4.16c-2.29,0-4.16,1.87-4.16,4.16v9H78.42v-9c0-2.29-1.87-4.16-4.16-4.16c-2.29,0-4.16,1.87-4.16,4.16v9
		h-7.14c-9.14,0-16.57,7.43-16.57,16.57v87.46c0,9.14,7.43,16.57,16.57,16.57h67.42l-0.24-1.12
		C130.09,136.12,129.92,135.95,129.7,135.9z M74.26,44.1L74.26,44.1c-4.61,0-8.37-3.77-8.37-8.37c0-3.09,1.7-5.8,4.22-7.25v7.63
		c0,2.29,1.87,4.16,4.16,4.16h0c2.29,0,4.16-1.87,4.16-4.16v-7.63c2.51,1.45,4.22,4.16,4.22,7.25C82.63,40.33,78.86,44.1,74.26,44.1
		z M153.79,44.1L153.79,44.1c-4.61,0-8.37-3.77-8.37-8.37c0-3.09,1.7-5.8,4.22-7.25v7.63c0,2.29,1.87,4.16,4.16,4.16h0
		c2.29,0,4.16-1.87,4.16-4.16v-7.63c2.51,1.45,4.22,4.16,4.22,7.25C162.17,40.33,158.4,44.1,153.79,44.1z"/>
	<linearGradient id="SVGID_28_" gradientUnits="userSpaceOnUse" x1="131.3233" y1="84.0037" x2="182.0383" y2="134.7187">
		<stop  offset="0" style="stop-color:#ED7F22"/>
		<stop  offset="1" style="stop-color:#F19549"/>
	</linearGradient>
	<path class="st27" d="M191.79,105.24l-1.84-1.67c-1.61-1.47-2.22-3.74-1.56-5.82l0.75-2.37c1-3.13-0.91-6.44-4.12-7.14l-2.43-0.53
		c-2.13-0.47-3.79-2.13-4.26-4.26l-0.53-2.43c-0.7-3.21-4.01-5.12-7.14-4.12l-2.37,0.75c-2.08,0.66-4.35,0.05-5.82-1.56l-1.67-1.84
		c-2.21-2.43-6.04-2.43-8.25,0l-1.67,1.84c-1.47,1.61-3.74,2.22-5.82,1.56l-2.37-0.75c-3.13-1-6.44,0.91-7.14,4.12l-0.53,2.43
		c-0.47,2.13-2.13,3.79-4.26,4.26l-2.43,0.53c-3.21,0.7-5.12,4.01-4.12,7.14l0.75,2.37c0.66,2.08,0.05,4.35-1.56,5.82l-1.84,1.67
		c-2.43,2.21-2.43,6.04,0,8.25l1.84,1.67c1.61,1.47,2.22,3.74,1.56,5.82l-0.75,2.37c-1,3.13,0.91,6.44,4.12,7.14l2.43,0.53
		c2.13,0.47,3.79,2.13,4.26,4.26l0.53,2.43c0.7,3.21,4.01,5.12,7.14,4.12l2.37-0.75c2.08-0.66,4.35-0.05,5.82,1.56l1.67,1.84
		c2.21,2.43,6.04,2.43,8.25,0l1.67-1.84c1.47-1.61,3.74-2.22,5.82-1.56l2.37,0.75c3.13,1,6.44-0.91,7.14-4.12l0.53-2.43
		c0.47-2.13,2.13-3.79,4.26-4.26l2.43-0.53c3.21-0.7,5.12-4.01,4.12-7.14l-0.75-2.37c-0.66-2.08-0.05-4.35,1.56-5.82l1.84-1.67
		C194.22,111.27,194.22,107.45,191.79,105.24z"/>
</g>
</svg>
