<?xml version="1.0" encoding="utf-8"?>
<!-- Generator: Adobe Illustrator 23.1.1, SVG Export Plug-In . SVG Version: 6.00 Build 0)  -->
<svg version="1.1" id="Layer_9" xmlns="http://www.w3.org/2000/svg" xmlns:xlink="http://www.w3.org/1999/xlink" x="0px" y="0px"
	 viewBox="0 0 240 150" style="enable-background:new 0 0 240 150;" xml:space="preserve">
<style type="text/css">
	.st0{fill:url(#SVGID_1_);}
	.st1{fill:url(#SVGID_2_);}
	.st2{fill:url(#SVGID_3_);}
</style>
<g>
	<linearGradient id="SVGID_1_" gradientUnits="userSpaceOnUse" x1="60.3201" y1="75" x2="179.6799" y2="75">
		<stop  offset="0" style="stop-color:#ED7F22"/>
		<stop  offset="1" style="stop-color:#F19549"/>
	</linearGradient>
	<path class="st0" d="M178.63,34.06c-6.26,0-11.95-2.54-16.06-6.65c-4.11-4.11-6.65-9.78-6.65-16.05c0-0.67,0.03-1.3,0.09-1.95
		h-33.66h-0.16h-38.2c0.06,0.65,0.09,1.29,0.09,1.95c0,12.53-10.17,22.7-22.71,22.7c-0.34,0-0.69,0-1.05-0.03v35.06
		c0,32.83,41.3,71.5,59.68,71.5c8.58,0,23.51-9.66,36.27-23.43c12.07-13.02,22.22-29.67,23.3-45.32c0.07-0.92,0.1-1.83,0.1-2.75
		V34.03C179.33,34.06,178.97,34.06,178.63,34.06z M171.2,69.09c0,6.35-2.01,13.46-5.95,21.11c-3.66,7.09-8.91,14.41-15.19,21.19
		c-13.11,14.13-25.68,20.72-30.05,20.72c-4.77,0-17.39-6.41-30.48-20.7C76.54,97.27,68.8,81.43,68.8,69.09V41.65
		c11.54-2.82,20.58-12.1,23.08-23.76h56.24c0.49,2.26,1.23,4.43,2.17,6.49c3.93,8.53,11.61,15,20.91,17.27V69.09z"/>
	<g>
		<linearGradient id="SVGID_2_" gradientUnits="userSpaceOnUse" x1="107.7596" y1="71.6974" x2="132.2404" y2="71.6974">
			<stop  offset="0" style="stop-color:#ED7F22"/>
			<stop  offset="1" style="stop-color:#F19549"/>
		</linearGradient>
		<path class="st1" d="M126.26,78.92V47.97c0-3.45-2.81-6.26-6.26-6.26c-3.45,0-6.26,2.81-6.26,6.26v30.95
			c-2.22,1.33-4,3.34-5.01,5.75c-0.62,1.46-0.97,3.08-0.97,4.76c0,6.75,5.49,12.24,12.24,12.24c6.75,0,12.24-5.49,12.24-12.24
			c0-1.69-0.35-3.3-0.97-4.76C130.25,82.27,128.48,80.26,126.26,78.92z M120,97.95c-4.7,0-8.5-3.81-8.5-8.5
			c0-3.61,2.25-6.68,5.41-7.92V60.8c0-1.7,1.39-3.09,3.09-3.09s3.09,1.39,3.09,3.09v20.72c3.17,1.24,5.41,4.31,5.41,7.92
			C128.5,94.14,124.7,97.95,120,97.95z"/>
		<linearGradient id="SVGID_3_" gradientUnits="userSpaceOnUse" x1="74.4458" y1="74.9407" x2="165.5541" y2="74.9407">
			<stop  offset="0" style="stop-color:#ED7F22"/>
			<stop  offset="1" style="stop-color:#F19549"/>
		</linearGradient>
		<path class="st2" d="M143.85,23.54h-47.7c-3.61,10.2-11.6,18.41-21.71,22.27v21.87c0,11.33,7.34,26.08,19.61,39.47
			c11.48,12.5,22.4,18.43,26.52,19.21c3.25-0.8,13.46-6,25.33-18.81c5.93-6.38,10.88-13.27,14.32-19.92
			c3.53-6.86,5.33-13.09,5.33-18.53V45.8C155.45,41.95,147.45,33.73,143.85,23.54z M120,107.86c-10.16,0-18.42-8.26-18.42-18.42
			c0-5.44,2.37-10.34,6.14-13.72V47.97c0-6.77,5.51-12.28,12.28-12.28c6.77,0,12.28,5.51,12.28,12.28v27.75
			c3.77,3.37,6.14,8.27,6.14,13.72C138.42,99.6,130.15,107.86,120,107.86z"/>
	</g>
</g>
</svg>
