<?xml version="1.0" encoding="utf-8"?>
<!-- Generator: Adobe Illustrator 23.1.1, SVG Export Plug-In . SVG Version: 6.00 Build 0)  -->
<svg version="1.1" id="Layer_5" xmlns="http://www.w3.org/2000/svg" xmlns:xlink="http://www.w3.org/1999/xlink" x="0px" y="0px"
	 viewBox="0 0 240 150" style="enable-background:new 0 0 240 150;" xml:space="preserve">
<style type="text/css">
	.st0{fill:url(#SVGID_1_);}
	.st1{fill:url(#SVGID_2_);}
	.st2{fill:url(#SVGID_3_);}
	.st3{fill:url(#SVGID_4_);}
	.st4{fill:url(#SVGID_5_);}
</style>
<g>
	<linearGradient id="SVGID_1_" gradientUnits="userSpaceOnUse" x1="48.7646" y1="89.6931" x2="139.3336" y2="89.6931">
		<stop  offset="0" style="stop-color:#ED7F22"/>
		<stop  offset="1" style="stop-color:#F19549"/>
	</linearGradient>
	<path class="st0" d="M79.74,53.23c-2.19-2.18-4.45-4.29-6.68-6.43c-3.21,0-6.42,0-9.63,0c0-0.07,0-0.13,0-0.2
		c-2.42,0-4.83,0-7.25,0c-0.23,0-0.46-0.01-0.69,0.01c-3.52,0.18-5.78,2.09-6.4,5.5c-0.2,1.11-0.3,2.26-0.31,3.39
		c-0.02,13.01-0.02,26.02,0,39.04c0,1.24,0.22,2.49,0.34,3.73c0.21,2.16,1.6,3.58,3.4,4.42c1.19,0.56,2.66,0.71,4,0.72
		c9.67,0.06,19.33,0.04,29,0.02c1.4,0,2.61,0.2,3.85,1.06c11.32,7.81,22.71,15.54,34.08,23.28c1.9,1.29,3.75,2.65,5.71,3.83
		c4.92,2.96,10,0.18,10.1-5.49c0.06-3.54-0.13-7.08,0.06-10.61c0.13-2.38-0.75-3.99-2.43-5.65C117.8,91.02,98.78,72.11,79.74,53.23z
		"/>
	<linearGradient id="SVGID_2_" gradientUnits="userSpaceOnUse" x1="61.8458" y1="75" x2="178.4182" y2="75">
		<stop  offset="0" style="stop-color:#ED7F22"/>
		<stop  offset="1" style="stop-color:#F19549"/>
	</linearGradient>
	<path class="st1" d="M174.62,119.99c-30.84-30.59-61.68-61.17-92.51-91.76c-2.93-2.91-5.87-5.8-8.8-8.71
		c-1.43-1.43-3.11-2.31-4.88-2.36c-5.18,0.12-8.21,5.49-5.65,9.66c0.7,1.15,1.73,2.12,2.7,3.08c33.35,33.1,66.71,66.19,100.07,99.27
		c0.73,0.73,1.44,1.49,2.25,2.12c2.82,2.2,6.35,2.01,8.74-0.4c2.41-2.44,2.52-5.87,0.23-8.68
		C176.12,121.42,175.35,120.72,174.62,119.99z"/>
	<linearGradient id="SVGID_3_" gradientUnits="userSpaceOnUse" x1="101.3165" y1="46.4453" x2="139.2747" y2="46.4453">
		<stop  offset="0" style="stop-color:#ED7F22"/>
		<stop  offset="1" style="stop-color:#F19549"/>
	</linearGradient>
	<path class="st2" d="M139.27,73.25c0-16.32,0-32.63,0-48.95c0-0.57,0.01-1.14-0.04-1.71c-0.38-3.69-4.18-6.26-7.77-5.14
		c-1.18,0.37-2.3,1.03-3.33,1.73c-8.46,5.7-16.89,11.44-25.32,17.18c-0.63,0.43-1.18,0.96-1.49,1.22
		c12.56,12.61,24.99,25.1,37.96,38.12C139.27,74.36,139.27,73.81,139.27,73.25z"/>
	<linearGradient id="SVGID_4_" gradientUnits="userSpaceOnUse" x1="159.1002" y1="71.1416" x2="191.2354" y2="71.1416">
		<stop  offset="0" style="stop-color:#ED7F22"/>
		<stop  offset="1" style="stop-color:#F19549"/>
	</linearGradient>
	<path class="st3" d="M190.75,68.16c-1.85-14.09-8.53-25.86-19.43-35.18c-0.95-0.81-1.97-1.61-3.08-2.17
		c-4.18-2.1-8.96,0.8-9.14,5.44c-0.1,2.53,1.16,4.21,3.07,5.77c9.51,7.77,15.03,17.83,16.13,29.94c0.98,10.79-2.51,20.45-9.29,28.93
		c-0.62,0.77-1.2,1.57-1.69,2.21c3.05,3.12,5.92,6.05,8.87,9.08c1.07-1.24,2.16-2.42,3.15-3.67
		C188.71,96.6,192.7,83.07,190.75,68.16z"/>
	<linearGradient id="SVGID_5_" gradientUnits="userSpaceOnUse" x1="149.3813" y1="73.3822" x2="168.5659" y2="73.3822">
		<stop  offset="0" style="stop-color:#ED7F22"/>
		<stop  offset="1" style="stop-color:#F19549"/>
	</linearGradient>
	<path class="st4" d="M154.81,81.83c-0.61,2.27-1.69,4.41-2.54,6.55c2.97,2.96,5.88,5.86,9.1,9.08c5.44-8.23,8.02-16.79,6.96-26.42
		c-0.71-6.51-2.87-12.38-6.5-17.77c-0.63-0.94-1.38-1.86-2.26-2.56c-1.95-1.55-4.16-1.84-6.46-0.76c-2.26,1.06-3.5,2.83-3.7,5.34
		c-0.17,2.09,0.82,3.68,1.92,5.33C155.67,67.16,156.84,74.28,154.81,81.83z"/>
</g>
</svg>
