<?xml version="1.0" encoding="utf-8"?>
<!-- Generator: Adobe Illustrator 23.1.1, SVG Export Plug-In . SVG Version: 6.00 Build 0)  -->
<svg version="1.1" id="Layer_11" xmlns="http://www.w3.org/2000/svg" xmlns:xlink="http://www.w3.org/1999/xlink" x="0px" y="0px"
	 viewBox="0 0 240 150" style="enable-background:new 0 0 240 150;" xml:space="preserve">
<style type="text/css">
	.st0{fill:url(#SVGID_1_);}
	.st1{fill:url(#SVGID_2_);}
	.st2{fill:url(#SVGID_3_);}
	.st3{fill:url(#SVGID_4_);}
	.st4{fill:url(#SVGID_5_);}
	.st5{fill:url(#SVGID_6_);}
	.st6{fill:url(#SVGID_7_);}
	.st7{fill:url(#SVGID_8_);}
	.st8{fill:url(#SVGID_9_);}
	.st9{fill:url(#SVGID_10_);}
	.st10{fill:url(#SVGID_11_);}
	.st11{fill:url(#SVGID_12_);}
	.st12{fill:url(#SVGID_13_);}
	.st13{fill:url(#SVGID_14_);}
	.st14{fill:url(#SVGID_15_);}
	.st15{fill:url(#SVGID_16_);}
	.st16{fill:url(#SVGID_17_);}
	.st17{fill:url(#SVGID_18_);}
	.st18{fill:url(#SVGID_19_);}
	.st19{fill:url(#SVGID_20_);}
	.st20{fill:url(#SVGID_21_);}
</style>
<g>
	<linearGradient id="SVGID_1_" gradientUnits="userSpaceOnUse" x1="145.7365" y1="120.3615" x2="167.0739" y2="141.6989">
		<stop  offset="0" style="stop-color:#ED7F22"/>
		<stop  offset="1" style="stop-color:#F19549"/>
	</linearGradient>
	<path class="st0" d="M161.46,117.59c-0.39-0.4-0.93-0.62-1.48-0.62l-3.92,0.04c-1.72,0-3.33-0.67-4.54-1.89
		c-0.09-0.09-0.17-0.18-0.25-0.28l-4.66,25.76c-0.35,1.93,1.81,3.32,3.42,2.2l4.33-3c1-0.69,2.37-0.45,3.07,0.55l3,4.33
		c1.12,1.61,3.63,1.07,3.98-0.86l3.9-21.58c-1.58-0.1-3.04-0.76-4.15-1.89L161.46,117.59z"/>
	<linearGradient id="SVGID_2_" gradientUnits="userSpaceOnUse" x1="170.4425" y1="120.7213" x2="191.1374" y2="141.4161">
		<stop  offset="0" style="stop-color:#ED7F22"/>
		<stop  offset="1" style="stop-color:#F19549"/>
	</linearGradient>
	<path class="st1" d="M186,115.01c-0.03,0.03-0.06,0.07-0.09,0.1c-1.21,1.22-2.82,1.89-4.54,1.89c0,0-3.9-0.04-3.9-0.04
		c-0.57,0-1.11,0.23-1.5,0.62l-2.69,2.74c-1.16,1.18-2.69,1.85-4.34,1.9l3.9,21.57c0.35,1.93,2.86,2.48,3.98,0.86l3-4.33
		c0.69-1,2.07-1.25,3.07-0.55l4.33,3c1.61,1.12,3.77-0.27,3.42-2.2L186,115.01z"/>
	<linearGradient id="SVGID_3_" gradientUnits="userSpaceOnUse" x1="153.0607" y1="82.3129" x2="184.3563" y2="113.6085">
		<stop  offset="0" style="stop-color:#ED7F22"/>
		<stop  offset="1" style="stop-color:#F19549"/>
	</linearGradient>
	<path class="st2" d="M174.42,116.08c0.81-0.82,1.91-1.28,3.06-1.27l3.84,0.04c2.37,0.02,4.3-1.9,4.27-4.27l-0.04-3.84
		c-0.01-1.15,0.45-2.26,1.27-3.06l2.74-2.69c1.69-1.66,1.69-4.38,0-6.04l-2.74-2.69c-0.82-0.81-1.28-1.91-1.27-3.06l0.04-3.84
		c0.02-2.37-1.9-4.3-4.27-4.27l-3.84,0.04c-1.15,0.01-2.26-0.45-3.06-1.27l-2.69-2.74c-1.66-1.69-4.38-1.69-6.04,0L163,79.84
		c-0.81,0.82-1.91,1.28-3.06,1.27l-3.84-0.04c-2.37-0.02-4.3,1.9-4.27,4.27l0.04,3.84c0.01,1.15-0.45,2.26-1.27,3.06l-2.74,2.69
		c-1.69,1.66-1.69,4.38,0,6.04l2.74,2.69c0.82,0.81,1.28,1.91,1.27,3.06l-0.04,3.84c-0.02,2.37,1.9,4.3,4.27,4.27l3.84-0.04
		c1.15-0.01,2.26,0.45,3.06,1.27l2.69,2.74c1.66,1.69,4.38,1.69,6.04,0L174.42,116.08z M167.68,113.57
		c-7.86-0.5-14.23-6.87-14.73-14.73c-0.6-9.53,7.25-17.38,16.78-16.78c7.86,0.5,14.23,6.87,14.73,14.73
		C185.06,106.32,177.21,114.17,167.68,113.57z"/>
	<linearGradient id="SVGID_4_" gradientUnits="userSpaceOnUse" x1="159.0742" y1="88.1857" x2="178.3429" y2="107.4544">
		<stop  offset="0" style="stop-color:#ED7F22"/>
		<stop  offset="1" style="stop-color:#F19549"/>
	</linearGradient>
	<path class="st3" d="M182.31,96.93c-0.43-6.78-5.93-12.28-12.71-12.71c-8.22-0.52-15,6.26-14.48,14.48
		c0.43,6.78,5.93,12.28,12.71,12.71C176.05,111.94,182.83,105.16,182.31,96.93z"/>
	<linearGradient id="SVGID_5_" gradientUnits="userSpaceOnUse" x1="74.095" y1="71.7399" x2="79.9665" y2="77.6114">
		<stop  offset="0" style="stop-color:#ED7F22"/>
		<stop  offset="1" style="stop-color:#F19549"/>
	</linearGradient>
	<path class="st4" d="M77.03,70.52c-2.29,0-4.16,1.87-4.16,4.16c0,2.29,1.87,4.16,4.16,4.16h0c2.29,0,4.16-1.87,4.16-4.16
		C81.19,72.39,79.32,70.52,77.03,70.52z"/>
	<linearGradient id="SVGID_6_" gradientUnits="userSpaceOnUse" x1="90.8392" y1="71.7399" x2="96.7106" y2="77.6114">
		<stop  offset="0" style="stop-color:#ED7F22"/>
		<stop  offset="1" style="stop-color:#F19549"/>
	</linearGradient>
	<path class="st5" d="M93.77,70.52c-2.29,0-4.16,1.87-4.16,4.16c0,2.29,1.87,4.16,4.16,4.16h0c2.29,0,4.16-1.87,4.16-4.16
		C97.93,72.39,96.06,70.52,93.77,70.52z"/>
	<linearGradient id="SVGID_7_" gradientUnits="userSpaceOnUse" x1="107.5833" y1="71.7399" x2="113.4548" y2="77.6114">
		<stop  offset="0" style="stop-color:#ED7F22"/>
		<stop  offset="1" style="stop-color:#F19549"/>
	</linearGradient>
	<path class="st6" d="M110.52,70.52c-2.29,0-4.16,1.87-4.16,4.16c0,2.29,1.87,4.16,4.16,4.16h0c2.29,0,4.16-1.87,4.16-4.16
		C114.68,72.39,112.81,70.52,110.52,70.52z"/>
	<linearGradient id="SVGID_8_" gradientUnits="userSpaceOnUse" x1="74.095" y1="85.6934" x2="79.9665" y2="91.5648">
		<stop  offset="0" style="stop-color:#ED7F22"/>
		<stop  offset="1" style="stop-color:#F19549"/>
	</linearGradient>
	<path class="st7" d="M77.03,84.47c-2.29,0-4.16,1.87-4.16,4.16s1.87,4.16,4.16,4.16h0c2.29,0,4.16-1.87,4.16-4.16
		C81.19,86.34,79.32,84.47,77.03,84.47z"/>
	<linearGradient id="SVGID_9_" gradientUnits="userSpaceOnUse" x1="90.8392" y1="85.6934" x2="96.7106" y2="91.5648">
		<stop  offset="0" style="stop-color:#ED7F22"/>
		<stop  offset="1" style="stop-color:#F19549"/>
	</linearGradient>
	<path class="st8" d="M93.77,84.47c-2.29,0-4.16,1.87-4.16,4.16s1.87,4.16,4.16,4.16h0c2.29,0,4.16-1.87,4.16-4.16
		C97.93,86.34,96.06,84.47,93.77,84.47z"/>
	<linearGradient id="SVGID_10_" gradientUnits="userSpaceOnUse" x1="107.5833" y1="85.6934" x2="113.4548" y2="91.5648">
		<stop  offset="0" style="stop-color:#ED7F22"/>
		<stop  offset="1" style="stop-color:#F19549"/>
	</linearGradient>
	<path class="st9" d="M110.52,84.47c-2.29,0-4.16,1.87-4.16,4.16s1.87,4.16,4.16,4.16h0c2.29,0,4.16-1.87,4.16-4.16
		C114.68,86.34,112.81,84.47,110.52,84.47z"/>
	<linearGradient id="SVGID_11_" gradientUnits="userSpaceOnUse" x1="74.095" y1="99.6469" x2="79.9665" y2="105.5183">
		<stop  offset="0" style="stop-color:#ED7F22"/>
		<stop  offset="1" style="stop-color:#F19549"/>
	</linearGradient>
	<path class="st10" d="M77.03,98.43c-2.29,0-4.16,1.87-4.16,4.16c0,2.29,1.87,4.16,4.16,4.16l0,0c2.29,0,4.16-1.87,4.16-4.16
		C81.19,100.3,79.32,98.43,77.03,98.43z"/>
	<linearGradient id="SVGID_12_" gradientUnits="userSpaceOnUse" x1="90.8392" y1="99.6469" x2="96.7106" y2="105.5183">
		<stop  offset="0" style="stop-color:#ED7F22"/>
		<stop  offset="1" style="stop-color:#F19549"/>
	</linearGradient>
	<path class="st11" d="M93.77,98.43c-2.29,0-4.16,1.87-4.16,4.16c0,2.29,1.87,4.16,4.16,4.16l0,0c2.29,0,4.16-1.87,4.16-4.16
		C97.93,100.3,96.06,98.43,93.77,98.43z"/>
	<linearGradient id="SVGID_13_" gradientUnits="userSpaceOnUse" x1="107.5833" y1="99.6469" x2="113.4548" y2="105.5183">
		<stop  offset="0" style="stop-color:#ED7F22"/>
		<stop  offset="1" style="stop-color:#F19549"/>
	</linearGradient>
	<path class="st12" d="M110.52,98.43c-2.29,0-4.16,1.87-4.16,4.16c0,2.29,1.87,4.16,4.16,4.16l0,0c2.29,0,4.16-1.87,4.16-4.16
		C114.68,100.3,112.81,98.43,110.52,98.43z"/>
	<linearGradient id="SVGID_14_" gradientUnits="userSpaceOnUse" x1="74.095" y1="113.6003" x2="79.9664" y2="119.4718">
		<stop  offset="0" style="stop-color:#ED7F22"/>
		<stop  offset="1" style="stop-color:#F19549"/>
	</linearGradient>
	<path class="st13" d="M77.03,112.38c-2.29,0-4.16,1.87-4.16,4.16s1.87,4.16,4.16,4.16h0c2.29,0,4.16-1.87,4.16-4.16
		C81.19,114.25,79.32,112.38,77.03,112.38z"/>
	<linearGradient id="SVGID_15_" gradientUnits="userSpaceOnUse" x1="90.8391" y1="113.6003" x2="96.7106" y2="119.4717">
		<stop  offset="0" style="stop-color:#ED7F22"/>
		<stop  offset="1" style="stop-color:#F19549"/>
	</linearGradient>
	<path class="st14" d="M93.77,112.38c-2.29,0-4.16,1.87-4.16,4.16s1.87,4.16,4.16,4.16h0c2.29,0,4.16-1.87,4.16-4.16
		C97.93,114.25,96.06,112.38,93.77,112.38z"/>
	<linearGradient id="SVGID_16_" gradientUnits="userSpaceOnUse" x1="107.5833" y1="113.6003" x2="113.4547" y2="119.4717">
		<stop  offset="0" style="stop-color:#ED7F22"/>
		<stop  offset="1" style="stop-color:#F19549"/>
	</linearGradient>
	<path class="st15" d="M106.36,116.54c0,2.29,1.87,4.16,4.16,4.16h0c2.29,0,4.16-1.87,4.16-4.16c0-2.29-1.87-4.16-4.16-4.16
		C108.23,112.38,106.36,114.25,106.36,116.54z"/>
	<linearGradient id="SVGID_17_" gradientUnits="userSpaceOnUse" x1="124.3275" y1="71.7399" x2="130.1989" y2="77.6114">
		<stop  offset="0" style="stop-color:#ED7F22"/>
		<stop  offset="1" style="stop-color:#F19549"/>
	</linearGradient>
	<path class="st16" d="M127.26,70.52c-2.29,0-4.16,1.87-4.16,4.16c0,2.29,1.87,4.16,4.16,4.16h0c2.29,0,4.16-1.87,4.16-4.16
		C131.42,72.39,129.55,70.52,127.26,70.52z"/>
	<linearGradient id="SVGID_18_" gradientUnits="userSpaceOnUse" x1="124.3275" y1="85.6934" x2="130.1989" y2="91.5648">
		<stop  offset="0" style="stop-color:#ED7F22"/>
		<stop  offset="1" style="stop-color:#F19549"/>
	</linearGradient>
	<path class="st17" d="M127.26,84.47c-2.29,0-4.16,1.87-4.16,4.16s1.87,4.16,4.16,4.16h0c2.29,0,4.16-1.87,4.16-4.16
		C131.42,86.34,129.55,84.47,127.26,84.47z"/>
	<linearGradient id="SVGID_19_" gradientUnits="userSpaceOnUse" x1="124.3275" y1="99.6469" x2="130.1989" y2="105.5183">
		<stop  offset="0" style="stop-color:#ED7F22"/>
		<stop  offset="1" style="stop-color:#F19549"/>
	</linearGradient>
	<path class="st18" d="M127.26,98.43c-2.29,0-4.16,1.87-4.16,4.16c0,2.29,1.87,4.16,4.16,4.16l0,0c2.29,0,4.16-1.87,4.16-4.16
		C131.42,100.3,129.55,98.43,127.26,98.43z"/>
	<linearGradient id="SVGID_20_" gradientUnits="userSpaceOnUse" x1="124.3274" y1="113.6003" x2="130.1989" y2="119.4717">
		<stop  offset="0" style="stop-color:#ED7F22"/>
		<stop  offset="1" style="stop-color:#F19549"/>
	</linearGradient>
	<path class="st19" d="M123.11,116.54c0,2.29,1.87,4.16,4.16,4.16h0c2.29,0,4.16-1.87,4.16-4.16c0-2.29-1.87-4.16-4.16-4.16
		C124.98,112.38,123.11,114.25,123.11,116.54z"/>
	<linearGradient id="SVGID_21_" gradientUnits="userSpaceOnUse" x1="57.6887" y1="18.7231" x2="159.5338" y2="120.5682">
		<stop  offset="0" style="stop-color:#ED7F22"/>
		<stop  offset="1" style="stop-color:#F19549"/>
	</linearGradient>
	<path class="st20" d="M84.4,128.99H65.73c-4.1,0-7.43-3.33-7.43-7.43v-58.4h116.99v2.06c0,0.03-0.01,0.05-0.01,0.08v8.28
		c0,0,0.01,0.01,0.01,0.01l2.46,2.51l3.51-0.03c1.11,0,2.17,0.19,3.16,0.54V34.1c0-9.14-7.43-16.57-16.57-16.57h-7.14v-9
		c0-2.29-1.87-4.16-4.16-4.16c-2.29,0-4.16,1.87-4.16,4.16v9H81.19v-9c0-2.29-1.87-4.16-4.16-4.16c-2.29,0-4.16,1.87-4.16,4.16v9
		h-7.14c-9.14,0-16.57,7.43-16.57,16.57v87.46c0,9.14,7.43,16.57,16.57,16.57h67.42l0,0h8.82l1.65-9.15H84.51
		C84.48,128.98,84.44,128.99,84.4,128.99z M152.41,29.14v7.63c0,2.29,1.87,4.16,4.16,4.16h0c2.29,0,4.16-1.87,4.16-4.16v-7.63
		c2.51,1.45,4.22,4.16,4.22,7.25c0,4.6-3.77,8.37-8.37,8.37l0,0c-4.6,0-8.37-3.77-8.37-8.37C148.19,33.3,149.9,30.59,152.41,29.14z
		 M72.87,29.14v7.63c0,2.29,1.87,4.16,4.16,4.16h0c2.29,0,4.16-1.87,4.16-4.16v-7.63c2.51,1.45,4.22,4.16,4.22,7.25
		c0,4.6-3.77,8.37-8.37,8.37l0,0c-4.6,0-8.37-3.77-8.37-8.37C68.66,33.3,70.36,30.59,72.87,29.14z"/>
</g>
</svg>
