<?xml version="1.0" encoding="utf-8"?>
<!-- Generator: Adobe Illustrator 23.1.1, SVG Export Plug-In . SVG Version: 6.00 Build 0)  -->
<svg version="1.1" id="Layer_11" xmlns="http://www.w3.org/2000/svg" xmlns:xlink="http://www.w3.org/1999/xlink" x="0px" y="0px"
	 viewBox="0 0 240 150" style="enable-background:new 0 0 240 150;" xml:space="preserve">
<style type="text/css">
	.st0{fill:url(#SVGID_1_);}
</style>
<linearGradient id="SVGID_1_" gradientUnits="userSpaceOnUse" x1="67.2938" y1="75" x2="172.7062" y2="75">
	<stop  offset="0" style="stop-color:#ED7F22"/>
	<stop  offset="1" style="stop-color:#F19549"/>
</linearGradient>
<path class="st0" d="M172.23,82.88L89.35,0l-2.86,2.86c-0.02,0.03-0.04,0.07-0.07,0.1l-2.15,2.15c-0.03,0.03-0.04,0.07-0.06,0.1
	L72.79,16.63c-0.03,0.02-0.07,0.04-0.1,0.06l-2.43,2.43c-0.03,0.03-0.07,0.04-0.1,0.07l-2.86,2.86l61.31,61.31
	c0.36,0.36,0.36,0.95,0,1.31l-42.99,42.99c-0.36,0.36-0.36,0.95,0,1.31l20.76,20.76c0.36,0.36,0.95,0.36,1.31,0l64.56-64.56
	C172.86,84.54,172.87,83.52,172.23,82.88z M95.14,129.47c-0.47-0.47-0.47-1.24,0-1.7l34.12-34.12c0.47-0.47,1.24-0.47,1.7,0
	c0.47,0.47,0.47,1.23,0,1.7l-34.12,34.12C96.38,129.93,95.61,129.93,95.14,129.47z M100.65,134.97c-0.47-0.47-0.47-1.23,0-1.7
	l34.12-34.12c0.47-0.47,1.24-0.47,1.7,0c0.47,0.47,0.47,1.24,0,1.7l-34.12,34.12C101.88,135.44,101.12,135.44,100.65,134.97z
	 M141.98,106.36l-34.12,34.12c-0.47,0.47-1.23,0.47-1.7,0c-0.47-0.47-0.47-1.24,0-1.7l34.12-34.12c0.47-0.47,1.24-0.47,1.7,0
	C142.45,105.12,142.45,105.89,141.98,106.36z M164.94,82.41L132.6,82.4c-0.25,0-0.48-0.1-0.65-0.27l-0.89-0.89
	c-0.36-0.36-0.36-0.95,0-1.31l0.98-0.98c0.36-0.36,0.36-0.95,0-1.31l-0.99-0.99c-0.36-0.36-0.95-0.36-1.31,0l-0.98,0.98
	c-0.36,0.36-0.95,0.36-1.31,0l-0.9-0.9c-0.36-0.36-0.36-0.95,0-1.31l2.43-2.43c0.36-0.36,0.36-0.95,0-1.31l-0.98-0.98
	c-0.36-0.36-0.95-0.36-1.31,0l-2.43,2.43c-0.36,0.36-0.95,0.36-1.31,0l-0.9-0.9c-0.36-0.36-0.36-0.95,0-1.31l0.98-0.98
	c0.36-0.36,0.36-0.95,0-1.31l-0.98-0.98c-0.36-0.36-0.95-0.36-1.31,0l-0.98,0.98c-0.36,0.36-0.95,0.36-1.31,0l-0.9-0.9
	c-0.36-0.36-0.36-0.95,0-1.31l0.98-0.98c0.36-0.36,0.36-0.95,0-1.31l-0.99-0.99c-0.36-0.36-0.95-0.36-1.31,0l-0.98,0.98
	c-0.36,0.36-0.95,0.36-1.31,0l-0.9-0.9c-0.36-0.36-0.36-0.95,0-1.31l0.98-0.98c0.36-0.36,0.36-0.95,0-1.31l-0.98-0.98
	c-0.36-0.36-0.95-0.36-1.31,0l-0.98,0.98c-0.36,0.36-0.95,0.36-1.31,0l-0.9-0.9c-0.36-0.36-0.36-0.95,0-1.31l2.43-2.43
	c0.36-0.36,0.36-0.95,0-1.31L110,52.7c-0.36-0.36-0.95-0.36-1.31,0l-2.43,2.43c-0.36,0.36-0.95,0.36-1.31,0l-0.9-0.9
	c-0.36-0.36-0.36-0.95,0-1.31l0.98-0.98c0.36-0.36,0.36-0.95,0-1.31l-0.98-0.98c-0.36-0.36-0.95-0.36-1.31,0l-0.98,0.98
	c-0.36,0.36-0.95,0.36-1.31,0l-0.9-0.9c-0.36-0.36-0.36-0.95,0-1.31l0.98-0.98c0.36-0.36,0.36-0.95,0-1.31l-0.99-0.99
	c-0.36-0.36-0.95-0.36-1.31,0l-0.98,0.98c-0.36,0.36-0.95,0.36-1.31,0l-0.9-0.9c-0.36-0.36-0.36-0.95,0-1.31l0.98-0.98
	c0.36-0.36,0.36-0.95,0-1.31l-0.98-0.98c-0.36-0.36-0.95-0.36-1.31,0l-0.98,0.98c-0.36,0.36-0.95,0.36-1.31,0l-0.9-0.9
	c-0.36-0.36-0.36-0.95,0-1.31l2.43-2.43c0.36-0.36,0.36-0.95,0-1.31L92,34.69c-0.36-0.36-0.95-0.36-1.31,0l-2.43,2.43
	c-0.36,0.36-0.95,0.36-1.31,0l-0.9-0.9c-0.36-0.36-0.36-0.95,0-1.31l0.98-0.98c0.36-0.36,0.36-0.95,0-1.31l-0.98-0.98
	c-0.36-0.36-0.95-0.36-1.31,0l-0.98,0.98c-0.36,0.36-0.95,0.36-1.31,0l-0.9-0.9c-0.36-0.36-0.36-0.95,0-1.31l0.98-0.98
	c0.36-0.36,0.36-0.95,0-1.31l-0.99-0.99c-0.36-0.36-0.95-0.36-1.31,0l-0.98,0.98c-0.36,0.36-0.95,0.36-1.31,0l-0.9-0.9
	c-0.36-0.36-0.36-0.95,0-1.31l0.98-0.98c0.36-0.36,0.36-0.95,0-1.31l-0.98-0.98c-0.36-0.36-0.95-0.36-1.31,0l-0.98,0.98
	c-0.36,0.36-0.95,0.36-1.31,0l-0.9-0.9c-0.3-0.3-0.34-0.76-0.13-1.11L88.91,5.12c0.35-0.21,0.81-0.17,1.11,0.13l0.9,0.9
	c0.36,0.36,0.36,0.95,0,1.31l-0.7,0.7c-0.36,0.36-0.36,0.95,0,1.31l0.99,0.99c0.36,0.36,0.95,0.36,1.31,0l0.7-0.7
	c0.36-0.36,0.95-0.36,1.31,0l0.9,0.9c0.36,0.36,0.36,0.95,0,1.31l-0.7,0.7c-0.36,0.36-0.36,0.95,0,1.31l0.98,0.98
	c0.36,0.36,0.95,0.36,1.31,0l0.7-0.7c0.36-0.36,0.95-0.36,1.31,0l0.9,0.9c0.36,0.36,0.36,0.95,0,1.31l-0.7,0.7
	c-0.36,0.36-0.36,0.95,0,1.31l0.99,0.99c0.36,0.36,0.95,0.36,1.31,0l0.7-0.7c0.36-0.36,0.95-0.36,1.31,0l0.9,0.9
	c0.36,0.36,0.36,0.95,0,1.31l-2.15,2.15c-0.36,0.36-0.36,0.95,0,1.31l0.98,0.98c0.36,0.36,0.95,0.36,1.31,0l2.15-2.15
	c0.36-0.36,0.95-0.36,1.31,0l0.9,0.9c0.36,0.36,0.36,0.95,0,1.31l-0.7,0.7c-0.36,0.36-0.36,0.95,0,1.31l0.99,0.99
	c0.36,0.36,0.95,0.36,1.31,0l0.7-0.7c0.36-0.36,0.95-0.36,1.31,0l0.9,0.9c0.36,0.36,0.36,0.95,0,1.31l-0.7,0.7
	c-0.36,0.36-0.36,0.95,0,1.31l0.98,0.98c0.36,0.36,0.95,0.36,1.31,0l0.7-0.7c0.36-0.36,0.95-0.36,1.31,0l0.9,0.9
	c0.36,0.36,0.36,0.95,0,1.31l-0.7,0.7c-0.36,0.36-0.36,0.95,0,1.31l0.98,0.98c0.36,0.36,0.95,0.36,1.31,0l0.7-0.7
	c0.36-0.36,0.95-0.36,1.31,0l0.9,0.9c0.36,0.36,0.36,0.95,0,1.31l-2.15,2.15c-0.36,0.36-0.36,0.95,0,1.31l0.99,0.99
	c0.36,0.36,0.95,0.36,1.31,0l2.15-2.15c0.36-0.36,0.95-0.36,1.31,0l0.9,0.9c0.36,0.36,0.36,0.95,0,1.31l-0.7,0.7
	c-0.36,0.36-0.36,0.95,0,1.31l0.98,0.98c0.36,0.36,0.95,0.36,1.31,0l0.7-0.7c0.36-0.36,0.95-0.36,1.31,0l0.9,0.9
	c0.36,0.36,0.36,0.95,0,1.31l-0.7,0.7c-0.36,0.36-0.36,0.95,0,1.31l0.99,0.99c0.36,0.36,0.95,0.36,1.31,0l0.7-0.7
	c0.36-0.36,0.95-0.36,1.31,0l0.9,0.9c0.36,0.36,0.36,0.95,0,1.31l-0.7,0.7c-0.36,0.36-0.36,0.95,0,1.31l0.98,0.98
	c0.36,0.36,0.95,0.36,1.31,0l0.7-0.7c0.36-0.36,0.95-0.36,1.31,0l0.9,0.9c0.36,0.36,0.36,0.95,0,1.31l-2.15,2.15
	c-0.36,0.36-0.36,0.95,0,1.31l0.99,0.99c0.36,0.36,0.95,0.36,1.31,0l2.15-2.15c0.36-0.36,0.95-0.36,1.31,0l0.9,0.9
	c0.36,0.36,0.36,0.95,0,1.31l-0.7,0.7c-0.36,0.36-0.36,0.95,0,1.31l0.99,0.99c0.36,0.36,0.95,0.36,1.31,0l0.7-0.7
	c0.36-0.36,0.95-0.36,1.31,0l0.95,0.95c0.36,0.36,0.36,0.95,0,1.31l-0.7,0.7c-0.36,0.36-0.36,0.95,0,1.31l0.98,0.98
	c0.36,0.36,0.95,0.36,1.31,0l0.7-0.7c0.36-0.36,0.95-0.36,1.31,0l0.9,0.9c0.36,0.36,0.36,0.95,0,1.31l-0.7,0.7
	c-0.36,0.36-0.36,0.95,0,1.31l0.99,0.99c0.36,0.36,0.95,0.36,1.31,0l0.7-0.7c0.36-0.36,0.95-0.36,1.31,0l0.9,0.9
	c0.36,0.36,0.36,0.95,0,1.31l-2.15,2.15c-0.36,0.36-0.36,0.95,0,1.31l0.98,0.98c0.36,0.36,0.95,0.36,1.31,0l2.15-2.15
	c0.36-0.36,0.95-0.36,1.31,0l3.51,3.51C166.18,81.41,165.76,82.41,164.94,82.41z"/>
</svg>
