<?xml version="1.0" encoding="utf-8"?>
<!-- Generator: Adobe Illustrator 23.1.1, SVG Export Plug-In . SVG Version: 6.00 Build 0)  -->
<svg version="1.1" id="Layer_1" xmlns="http://www.w3.org/2000/svg" xmlns:xlink="http://www.w3.org/1999/xlink" x="0px" y="0px"
	 viewBox="0 0 490 110" style="enable-background:new 0 0 490 110;" xml:space="preserve">
<style type="text/css">
	.st0{fill:#2A66B1;}
	.st1{fill:#ED7F22;}
	.st2{fill:#EE7700;}
	.st3{fill:#0976BC;}
	.st4{fill:none;stroke:#010101;stroke-width:0.5;stroke-miterlimit:10;}
	.st5{fill:#010101;}
	.st6{font-family:'SourceSansPro-BoldIt';}
	.st7{font-size:15.7262px;}
</style>
<g>
	<g>
		<path class="st0" d="M339,37.08h2.2c0,0,0.3-1.1,0.6-2.5s2.9-2.5,5.7-2.5h28.2c2.8,0,5.3,1.1,5.5,2.5l0.4,2.5h1.9
			c2.8,0,5.1-2.3,5.1-5.1v-9.6c0-2.4-1.6-4.3-3.8-4.9c0.1,0.5,0.2,1,0.2,1.5v2.1c0,3.4-2.8,6.1-6.1,6.1h-35.1
			c-3.4,0-6.1-2.8-6.1-6.1v-2.1c0-0.5,0.1-1,0.2-1.5c-2.2,0.6-3.8,2.6-3.8,4.9v9.6C333.9,34.78,336.2,37.08,339,37.08L339,37.08z"/>
		<path class="st0" d="M343.6,25.08h35.1c2.3,0,4.1-1.8,4.1-4.1v-2.1c0-0.6-0.1-1.2-0.4-1.7h-42.5c-0.2,0.5-0.4,1.1-0.4,1.7v2.1
			C339.5,23.28,341.4,25.08,343.6,25.08L343.6,25.08z M341.6,19.08h38.6c0.3,0,0.5,0.2,0.5,0.5s-0.2,0.5-0.5,0.5h-38.6
			c-0.3,0-0.5-0.2-0.5-0.5S341.3,19.08,341.6,19.08L341.6,19.08z M341.6,22.28h38.6c0.3,0,0.5,0.2,0.5,0.5s-0.2,0.5-0.5,0.5h-38.6
			c-0.3,0-0.5-0.2-0.5-0.5C341.1,22.48,341.3,22.28,341.6,22.28L341.6,22.28z"/>
		<path class="st0" d="M379.5,35.18c-0.1-1-2.6-1.9-5.4-1.9h-25.4c-2.8,0-5.3,0.8-5.5,1.9c-0.2,1-0.3,1.9-0.3,1.9h36.9L379.5,35.18z
			"/>
		<path class="st0" d="M346.3,52.98c0.2,0.2,0.4,0.2,0.7,0.2s0.6-0.1,0.8-0.3c0.2-0.2,3.9-4.5,1.1-8c-1.5-2-0.4-3.1-0.2-3.3
			c0.4-0.4,0.5-1,0.2-1.4c-0.4-0.4-1-0.5-1.4-0.2c-1.1,0.9-2.5,3.2-0.2,6.2c1.7,2.2-1,5.4-1,5.4
			C345.8,51.98,345.9,52.68,346.3,52.98L346.3,52.98z"/>
		<path class="st0" d="M355.3,52.98c0.2,0.2,0.4,0.2,0.7,0.2s0.6-0.1,0.8-0.3c0.2-0.2,3.9-4.5,1.1-8c-1.5-2-0.4-3.1-0.2-3.3
			c0.4-0.4,0.5-1,0.2-1.4c-0.4-0.4-1-0.5-1.4-0.2c-1.1,0.9-2.5,3.2-0.2,6.2c1.7,2.2-1,5.4-1,5.4
			C354.8,51.98,354.8,52.68,355.3,52.98L355.3,52.98z"/>
		<path class="st0" d="M364.2,52.98c0.2,0.2,0.4,0.2,0.7,0.2s0.6-0.1,0.8-0.3c0.2-0.2,3.9-4.5,1.1-8c-1.5-2-0.4-3.1-0.2-3.3
			c0.4-0.4,0.5-1,0.2-1.4c-0.4-0.4-1-0.5-1.4-0.2c-1.1,0.9-2.5,3.2-0.2,6.2c1.7,2.2-1,5.4-1,5.4
			C363.8,51.98,363.8,52.68,364.2,52.98L364.2,52.98z"/>
		<path class="st0" d="M373.2,52.98c0.2,0.2,0.4,0.2,0.7,0.2s0.6-0.1,0.8-0.3c0.2-0.2,3.9-4.5,1.1-8c-1.5-2-0.4-3.1-0.2-3.3
			c0.4-0.4,0.5-1,0.2-1.4c-0.4-0.4-1-0.5-1.4-0.2c-1.1,0.9-2.5,3.2-0.2,6.2c1.7,2.2-1,5.4-1,5.4
			C372.7,51.98,372.8,52.68,373.2,52.98L373.2,52.98z"/>
	</g>
	<g>
		<g>
			<g>
				<path class="st1" d="M150.2,5.28h-30.7c-1.8,0-3.3,1.5-3.3,3.3v39.8c0,0.5,0.4,0.8,0.8,0.8h35.6c0.5,0,0.8-0.4,0.8-0.8V8.58
					C153.6,6.78,152.1,5.28,150.2,5.28L150.2,5.28z M117.9,47.58v-34h28.2c0.5,0,0.8-0.4,0.8-0.8c0-0.5-0.4-0.8-0.8-0.8h-28.2v-3.4
					c0-0.9,0.7-1.7,1.7-1.7h30.7c0.9,0,1.7,0.7,1.7,1.7v3.3h-2.5c-0.5,0-0.8,0.4-0.8,0.8c0,0.5,0.4,0.8,0.8,0.8h2.5v34h-34.1V47.58z
					"/>
				<path class="st1" d="M152.7,49.78h-35.6c-0.7,0-1.3-0.6-1.3-1.3V8.58c0-2.1,1.7-3.8,3.8-3.8h30.7c2.1,0,3.8,1.7,3.8,3.8v39.8
					C154,49.18,153.5,49.78,152.7,49.78z M119.6,5.78c-1.6,0-2.8,1.3-2.8,2.8v39.8c0,0.2,0.1,0.3,0.3,0.3h35.6
					c0.2,0,0.3-0.1,0.3-0.3V8.58c0-1.6-1.3-2.8-2.8-2.8C150.2,5.78,119.6,5.78,119.6,5.78z M151.9,48.08h-34c-0.3,0-0.5-0.2-0.5-0.5
					v-34c0-0.3,0.2-0.5,0.5-0.5h28.2c0.2,0,0.3-0.1,0.3-0.3c0-0.2-0.1-0.3-0.3-0.3h-28.2c-0.3,0-0.5-0.2-0.5-0.5v-3.4
					c0-1.2,1-2.2,2.2-2.2h30.7c1.2,0,2.2,1,2.2,2.2v3.3c0,0.3-0.2,0.5-0.5,0.5h-2.5c-0.2,0-0.3,0.1-0.3,0.3c0,0.2,0.1,0.3,0.3,0.3
					h2.5c0.3,0,0.5,0.2,0.5,0.5v34C152.4,47.88,152.2,48.08,151.9,48.08z M118.4,47.08h33v-33h-2c-0.7,0-1.3-0.6-1.3-1.3
					c0-0.7,0.6-1.3,1.3-1.3h2v-2.9c0-0.6-0.5-1.2-1.2-1.2h-30.7c-0.6,0-1.2,0.5-1.2,1.2v2.8H146c0.7,0,1.3,0.6,1.3,1.3
					c0,0.7-0.6,1.3-1.3,1.3h-27.7L118.4,47.08L118.4,47.08z"/>
			</g>
			<g>
				<path class="st1" d="M134.9,16.88c-7.6,0-13.7,6.1-13.7,13.7s6.1,13.7,13.7,13.7s13.7-6.1,13.7-13.7
					C148.6,23.08,142.5,16.88,134.9,16.88L134.9,16.88z M134.9,42.68c-6.6,0-12.1-5.4-12.1-12.1c0-6.6,5.4-12.1,12.1-12.1
					c5,0,9.4,3.1,11.2,7.5h-0.8c-0.4,0-0.7,0.1-1,0.2c-1.7-3.6-5.3-6-9.4-6c-5.7,0-10.4,4.6-10.4,10.4c0,5.7,4.6,10.4,10.4,10.4
					c4,0,7.7-2.4,9.4-6c0.3,0.1,0.7,0.2,1,0.2h0.8C144.3,39.58,140,42.68,134.9,42.68L134.9,42.68z M144.4,33.18L144.4,33.18
					c-0.5-0.3-0.7-0.8-0.7-1.4v-2.4c0-0.6,0.3-1,0.7-1.3l0,0c0.3-0.2,0.6-0.3,0.9-0.3h1.3c0.2,0.9,0.3,1.9,0.3,2.9s-0.1,1.9-0.3,2.9
					h-1.3C145,33.48,144.7,33.38,144.4,33.18L144.4,33.18z M142.9,34.08c-1.4,3.2-4.5,5.2-8,5.2c-4.8,0-8.7-3.9-8.7-8.7
					s3.9-8.7,8.7-8.7c3.5,0,6.6,2.1,8,5.2c-0.5,0.6-0.9,1.4-0.9,2.3v2.4C142,32.68,142.3,33.48,142.9,34.08L142.9,34.08z"/>
				<path class="st1" d="M134.9,44.78c-7.8,0-14.2-6.4-14.2-14.2s6.4-14.2,14.2-14.2s14.2,6.4,14.2,14.2S142.7,44.78,134.9,44.78z
					 M134.9,17.38c-7.3,0-13.2,5.9-13.2,13.2s5.9,13.2,13.2,13.2s13.2-5.9,13.2-13.2S142.2,17.38,134.9,17.38z M134.9,43.18
					c-6.9,0-12.5-5.6-12.5-12.5s5.6-12.5,12.5-12.5c5.1,0,9.7,3.1,11.6,7.8c0.1,0.2,0,0.3,0,0.5c-0.1,0.1-0.2,0.2-0.4,0.2h-0.8
					c-0.3,0-0.6,0-0.9,0.1c-0.2,0.1-0.5,0-0.6-0.3c-1.6-3.5-5.1-5.7-8.9-5.7c-5.4,0-9.9,4.4-9.9,9.9s4.4,9.9,9.9,9.9
					c3.8,0,7.3-2.2,8.9-5.7c0.1-0.2,0.4-0.3,0.6-0.3c0.3,0.1,0.6,0.1,0.9,0.1h0.8c0.2,0,0.3,0.1,0.4,0.2c0.1,0.1,0.1,0.3,0,0.5
					C144.6,40.08,140,43.18,134.9,43.18z M134.9,19.08c-6.4,0-11.6,5.2-11.6,11.6s5.2,11.6,11.6,11.6c4.5,0,8.5-2.5,10.4-6.5
					c-0.3,0-0.5,0-0.7-0.1c-1.8,3.6-5.6,5.9-9.7,5.9c-6,0-10.9-4.9-10.9-10.9s4.9-10.9,10.9-10.9c4.1,0,7.8,2.3,9.7,5.9
					c0.2,0,0.5-0.1,0.7-0.1C143.4,21.58,139.4,19.08,134.9,19.08z M134.9,39.78c-5.1,0-9.2-4.1-9.2-9.2s4.1-9.2,9.2-9.2
					c3.7,0,7,2.2,8.4,5.5c0.1,0.2,0,0.4-0.1,0.5c-0.5,0.5-0.8,1.2-0.8,1.9v2.4c0,0.7,0.3,1.4,0.8,1.9c0.1,0.1,0.2,0.4,0.1,0.5
					C141.9,37.68,138.6,39.78,134.9,39.78z M134.9,22.38c-4.5,0-8.2,3.7-8.2,8.2s3.7,8.2,8.2,8.2c3.2,0,6-1.8,7.4-4.7
					c-0.5-0.7-0.8-1.5-0.8-2.3v-2.4c0-0.8,0.3-1.7,0.8-2.3C140.9,24.28,138.1,22.38,134.9,22.38z M146.6,33.98h-1.3
					c-0.4,0-0.8-0.1-1.2-0.4c-0.6-0.5-1-1.1-1-1.8v-2.4c0-0.7,0.3-1.3,0.9-1.7c0.4-0.3,0.8-0.4,1.3-0.4h1.3c0.2,0,0.4,0.2,0.5,0.4
					c0.2,1,0.4,2,0.4,3s-0.1,2-0.4,3C147,33.78,146.8,33.98,146.6,33.98z M145.3,28.28c-0.2,0-0.5,0.1-0.6,0.2
					c-0.3,0.2-0.5,0.6-0.5,1v2.4c0,0.4,0.2,0.7,0.5,0.9c0.2,0.2,0.4,0.2,0.7,0.2h0.9c0.2-0.8,0.2-1.6,0.2-2.4c0-0.8-0.1-1.6-0.2-2.4
					L145.3,28.28L145.3,28.28z"/>
			</g>
			<g>
				<path class="st1" d="M148.6,9.48c0-0.9-0.7-1.6-1.6-1.6s-1.6,0.7-1.6,1.6s0.7,1.6,1.6,1.6C147.8,11.08,148.6,10.38,148.6,9.48
					L148.6,9.48z"/>
				<path class="st1" d="M146.9,11.58c-1.2,0-2.1-1-2.1-2.1s1-2.1,2.1-2.1c1.2,0,2.1,1,2.1,2.1S148.1,11.58,146.9,11.58z
					 M146.9,8.28c-0.6,0-1.2,0.5-1.2,1.2s0.5,1.2,1.2,1.2s1.2-0.5,1.2-1.2S147.6,8.28,146.9,8.28z"/>
			</g>
			<g>
				<path class="st1" d="M142,7.78c-0.9,0-1.6,0.7-1.6,1.6s0.7,1.6,1.6,1.6s1.6-0.7,1.6-1.6C143.6,8.58,142.9,7.78,142,7.78
					L142,7.78z"/>
				<path class="st1" d="M142,11.58c-1.2,0-2.1-1-2.1-2.1s1-2.1,2.1-2.1c1.2,0,2.1,1,2.1,2.1S143.2,11.58,142,11.58z M142,8.28
					c-0.6,0-1.2,0.5-1.2,1.2s0.5,1.2,1.2,1.2c0.6,0,1.2-0.5,1.2-1.2C143.2,8.78,142.6,8.28,142,8.28z"/>
			</g>
			<g>
				<path class="st1" d="M128.7,8.58h-7.5c-0.5,0-0.8,0.4-0.8,0.8c0,0.5,0.4,0.8,0.8,0.8h7.5c0.5,0,0.8-0.4,0.8-0.8
					C129.6,8.98,129.2,8.58,128.7,8.58L128.7,8.58z"/>
				<path class="st1" d="M128.7,10.78h-7.5c-0.7,0-1.3-0.6-1.3-1.3c0-0.7,0.6-1.3,1.3-1.3h7.5c0.7,0,1.3,0.6,1.3,1.3
					C130.1,10.18,129.5,10.78,128.7,10.78z M121.3,9.08c-0.2,0-0.3,0.1-0.3,0.3s0.1,0.3,0.3,0.3h7.5c0.2,0,0.3-0.1,0.3-0.3
					s-0.1-0.3-0.3-0.3H121.3z"/>
			</g>
			<g>
				<path class="st1" d="M133.6,8.58H132c-0.5,0-0.8,0.4-0.8,0.8c0,0.5,0.4,0.8,0.8,0.8h1.6c0.5,0,0.8-0.4,0.8-0.8
					C134.5,8.98,134.1,8.58,133.6,8.58L133.6,8.58z"/>
				<path class="st1" d="M133.6,10.78H132c-0.7,0-1.3-0.6-1.3-1.3c0-0.7,0.6-1.3,1.3-1.3h1.6c0.7,0,1.3,0.6,1.3,1.3
					C135,10.18,134.4,10.78,133.6,10.78z M132,9.08c-0.2,0-0.3,0.1-0.3,0.3s0.1,0.3,0.3,0.3h1.6c0.2,0,0.3-0.1,0.3-0.3
					s-0.1-0.3-0.3-0.3H132z"/>
			</g>
			<g>
				<path class="st1" d="M134.9,23.58c-3.9,0-7.1,3.2-7.1,7.1c0,0.5,0.4,0.8,0.8,0.8c0.5,0,0.8-0.4,0.8-0.8c0-3,2.4-5.4,5.4-5.4
					c0.5,0,0.8-0.4,0.8-0.8C135.7,23.88,135.4,23.58,134.9,23.58L134.9,23.58z"/>
				<path class="st1" d="M128.7,31.98c-0.7,0-1.3-0.6-1.3-1.3c0-4.2,3.4-7.6,7.6-7.6c0.7,0,1.3,0.6,1.3,1.3s-0.6,1.3-1.3,1.3
					c-2.7,0-4.9,2.2-4.9,4.9C130,31.38,129.4,31.98,128.7,31.98z M134.9,24.08c-3.6,0-6.6,3-6.6,6.6c0,0.4,0.7,0.4,0.7,0
					c0-3.3,2.7-5.9,5.9-5.9c0.2,0,0.3-0.1,0.3-0.3C135.2,24.18,135.1,24.08,134.9,24.08z"/>
			</g>
		</g>
		<path class="st1" d="M54.6,17.48h-14l6.6-6.6c0.5-0.5,0.5-1.4,0-1.9s-1.4-0.5-1.9,0l-7.3,7.3l-9.6-9.6c-0.5-0.5-1.4-0.5-1.9,0
			s-0.5,1.4,0,1.9l9,9h-14c-0.7,0-1.3,0.6-1.3,1.3v19.9c0,0.7,0.6,1.3,1.3,1.3h11.1v1l-5.3,2.4c-0.7,0.3-1,1.1-0.7,1.7
			c0.2,0.5,0.7,0.8,1.2,0.8c0.2,0,0.4,0,0.5-0.1l5.9-2.6h7.7l5.9,2.6c0.1,0,0.3,0,0.5,0c0.5,0,1-0.3,1.2-0.8c0.3-0.7,0-1.4-0.7-1.7
			l-5.3-2.4v-1h11.1c0.7,0,1.3-0.6,1.3-1.3v-19.9C55.9,18.08,55.3,17.48,54.6,17.48L54.6,17.48z M40.8,40.48h-5.6v-0.6h5.6V40.48z
			 M53.3,37.28H22.8v-17.2h30.5V37.28z"/>
		<g>
			<path class="st1" d="M99.2,11.88c0.3-0.3,0.4-0.7,0.2-1.1s-0.5-0.6-0.9-0.6h-2.6c-1-1.6-2.7-2.6-4.5-2.9
				c-0.4-1.1-1.5-1.9-2.7-1.9h-2.8c-1.2,0-2.3,0.8-2.7,1.9c-2.1,0.3-3.9,1.6-4.9,3.5v0.1v0.1v0.1v0.1v0.1l0.2,2.4h-4
				c-0.5,0-1,0.4-1,1v11.2c0,0.5,0.4,1,1,1h1.9c0.5,0,1-0.4,1-1v-8.3h1.5l1.1,13l-1,4.8c-0.4,2.1-0.6,4.2-0.6,6.4v3.3
				c0,0.5,0.4,1,1,1h16c0.5,0,1-0.4,1-1v-3.3c0-2.1-0.2-4.3-0.6-6.4l-1-4.8l1.3-15.5L99.2,11.88z M81.4,10.18c0.8-0.7,1.8-1,2.9-1h6
				c1.1,0,2.1,0.4,2.9,1H81.4z M94.4,44.08H80.3v-2.3c0-2,0.2-4,0.6-6l0.2-1h12.5l0.2,1c0.4,2,0.6,4,0.6,6
				C94.4,41.78,94.4,44.08,94.4,44.08z M94.4,13.88c-0.2,0.2-0.3,0.4-0.3,0.6l-1.3,15.1h-0.2c-0.5,0-1,0.4-1,1c0,0.5,0.4,1,1,1h0.3
				l0.2,1.2H81.5l0.2-1.2h7.2c0.5,0,1-0.4,1-1c0-0.5-0.4-1-1-1h-7.1l-1.1-13.1v-0.1v-0.3c0-0.3-0.2-0.6-0.5-0.7l0,0l0.1-0.1l0.1-0.1
				l0.1-0.1l0.1-0.1v-0.1v-0.1v-0.1l-0.2-2.4h15.8L94.4,13.88z"/>
			<path class="st1" d="M92.3,13.58h-0.1c-0.5,0-0.9,0.4-1,0.9l-1.6,12.8c0,0.3,0,0.5,0.2,0.7s0.4,0.3,0.7,0.4h0.1
				c0.5,0,0.9-0.4,1-0.9l1.6-12.8C93.2,14.18,92.8,13.68,92.3,13.58z"/>
			<path class="st1" d="M82.5,13.58h-0.1c-0.3,0-0.5,0.2-0.7,0.4c-0.2,0.2-0.2,0.5-0.2,0.7l1.6,12.8c0.1,0.5,0.5,0.9,1,0.9h0.1
				c0.5-0.1,0.9-0.6,0.9-1.1l-1.6-12.8C83.4,13.98,83,13.58,82.5,13.58z M84.1,28.08L84.1,28.08L84.1,28.08L84.1,28.08z"/>
			<path class="st1" d="M87.3,36.08c-1,0-1.8,0.4-2.5,1c-0.7,0.7-1,1.6-1,2.5c0,1,0.4,1.8,1,2.5c0.7,0.7,1.6,1,2.5,1
				c1,0,1.8-0.4,2.5-1c0.7-0.7,1-1.6,1-2.5c0-1-0.4-1.8-1-2.5C89.2,36.48,88.3,36.08,87.3,36.08z M86.6,38.88c-0.4,0.4-0.4,1,0,1.4
				s1,0.4,1.4,0l0.9-0.9c0.1,0.5-0.1,0.9-0.5,1.3c-0.6,0.6-1.6,0.6-2.2,0c-0.3-0.3-0.5-0.7-0.5-1.1c0-0.4,0.2-0.8,0.5-1.1
				s0.7-0.5,1.1-0.5c0.1,0,0.1,0,0.2,0L86.6,38.88z"/>
		</g>
		<g>
			<path class="st2" d="M188.6,3.38h-20.2c-0.8,0-1.5,0.7-1.5,1.5v15.8h23.2V4.98C190.2,4.08,189.5,3.38,188.6,3.38L188.6,3.38z
				 M171.3,14.58c0,0.8-0.6,1.4-1.4,1.4v-7.8c0.8,0,1.4,0.6,1.4,1.4V14.58z"/>
			<path class="st2" d="M166.9,46.18c0,0.8,0.7,1.5,1.5,1.5h20.2c0.8,0,1.5-0.7,1.5-1.5v-23.3h-23.2V46.18z M185.7,36.18
				c0-0.5,0.4-0.8,0.8-0.8c0.5,0,0.8,0.4,0.8,0.8v1.4c0,0.5-0.4,0.8-0.8,0.8c-0.5,0-0.8-0.4-0.8-0.8V36.18z M185.7,40.28
				c0-0.5,0.4-0.8,0.8-0.8c0.5,0,0.8,0.4,0.8,0.8v3.7c0,0.5-0.4,0.8-0.8,0.8c-0.5,0-0.8-0.4-0.8-0.8V40.28z M169.8,26.48
				c0.8,0,1.4,0.6,1.4,1.4v4.9c0,0.8-0.6,1.4-1.4,1.4V26.48z"/>
			<path class="st2" d="M187.8,48.38h-18c-0.1,0-0.1,0.1-0.1,0.1v1.9c0,0.1,0.1,0.1,0.1,0.1h1.9l0,0l3.4-0.9h7.1l3.7,0.9l0,0h1.9
				c0.1,0,0.1-0.1,0.1-0.1v-1.9C187.9,48.38,187.8,48.38,187.8,48.38L187.8,48.38z"/>
		</g>
		<g>
			<g>
				<path class="st2" d="M235.3,41.18h-32.1l0.8-1.5h32.1L235.3,41.18z M245,12.08c-2.3,3.5-6.8,4.2-9,7.8c-0.5,0.1-0.8,0.5-0.8,1
					c-0.8,0-1.8,0.1-2.9,0.1c-9.7,0-27.5,12.1-27.5,17.2h31.3c0-4.4,3.8-2.8,3.9-4c0.2-10.8,0.8-12.9-2.6-13.3c0-0.1,0-0.2,0-0.3
					c2.1-3.5,6.7-4.3,9-7.8C246.9,12.08,245.5,11.28,245,12.08L245,12.08z M228,32.68c0.6,0.5,0.9,1,0.9,1.5c0,1.2-1.8,1.2-3.7,1.2
					h-1.6c-0.9,0-1.8,0-2.5-0.1c-0.8-0.1-1.2-0.5-1.2-1c-1.8-0.1-3.1-0.6-3.4-1.5c-0.6-1.8,3-4.5,7.9-6s9.4-1.3,10,0.5
					C234.9,28.78,232.1,31.08,228,32.68L228,32.68z M220.3,34.08c0,0.9,1.9,0.8,4.2,0.8c2.3,0,4.2,0.1,4.2-0.8
					c0-0.9-1.9-2.3-4.2-2.3C222.1,31.78,220.3,33.28,220.3,34.08L220.3,34.08z"/>
			</g>
		</g>
	</g>
	<rect x="8.7" y="65.28" class="st2" width="237.7" height="16.5"/>
	<rect x="245.4" y="65.28" class="st3" width="237.7" height="16.5"/>
	<line class="st4" x1="8.7" y1="89.28" x2="8.7" y2="103.78"/>
	<line class="st4" x1="483.1" y1="89.28" x2="483.1" y2="103.78"/>
	<line class="st4" x1="244.9" y1="89.28" x2="244.9" y2="103.78"/>
	<text transform="matrix(1 0 0 1 99.0094 101.953)" class="st5 st6 st7">50%</text>
	<text transform="matrix(1 0 0 1 359.8688 101.953)" class="st5 st6 st7">50%</text>
	<line class="st4" x1="2.5" y1="96.58" x2="93.1" y2="96.58"/>
	<line class="st4" x1="396.9" y1="96.58" x2="487.5" y2="96.58"/>
	<line class="st4" x1="135.7" y1="96.58" x2="347.9" y2="96.58"/>
</g>
</svg>
