<?xml version="1.0" encoding="utf-8"?>
<!-- Generator: Adobe Illustrator 23.1.1, SVG Export Plug-In . SVG Version: 6.00 Build 0)  -->
<svg version="1.1" id="Layer_2" xmlns="http://www.w3.org/2000/svg" xmlns:xlink="http://www.w3.org/1999/xlink" x="0px" y="0px"
	 viewBox="0 0 490 110" style="enable-background:new 0 0 490 110;" xml:space="preserve">
<style type="text/css">
	.st0{fill:none;}
	.st1{fill:#ED7F22;}
	.st2{font-family:'Montserrat-ExtraBold';}
	.st3{font-size:14.3643px;}
	.st4{fill:#2A66B1;}
	.st5{fill:url(#SVGID_1_);}
	.st6{fill:url(#SVGID_2_);}
	.st7{fill:url(#SVGID_3_);}
	.st8{fill:url(#SVGID_4_);}
	.st9{fill:url(#SVGID_5_);}
	.st10{fill:url(#SVGID_6_);}
	.st11{fill:url(#SVGID_7_);}
	.st12{fill:url(#SVGID_8_);}
	.st13{fill:url(#SVGID_9_);}
</style>
<g>
	<rect x="104.35" y="87.05" class="st0" width="38.72" height="13.65"/>
	<text transform="matrix(1 0 0 1 107.9932 97.707)" class="st1 st2 st3">50%</text>
	<rect x="345.99" y="87.05" class="st0" width="38.72" height="13.65"/>
	<text transform="matrix(1 0 0 1 349.627 97.707)" class="st4 st2 st3">50%</text>
	<linearGradient id="SVGID_1_" gradientUnits="userSpaceOnUse" x1="3" y1="69.1569" x2="244.7124" y2="69.1569">
		<stop  offset="0" style="stop-color:#ED7F22"/>
		<stop  offset="1" style="stop-color:#F19549"/>
	</linearGradient>
	<path class="st5" d="M244.71,77.44H11.12C6.66,77.44,3,73.78,3,69.31V69c0-4.47,3.66-8.12,8.12-8.12h233.59V77.44z"/>
	<linearGradient id="SVGID_2_" gradientUnits="userSpaceOnUse" x1="244.7124" y1="69.1569" x2="486.4247" y2="69.1569">
		<stop  offset="0" style="stop-color:#2A66B1"/>
		<stop  offset="1" style="stop-color:#0066CC"/>
	</linearGradient>
	<path class="st6" d="M244.71,60.88H478.3c4.47,0,8.12,3.66,8.12,8.12v0.31c0,4.47-3.66,8.12-8.12,8.12H244.71V60.88z"/>
	<g>
		<linearGradient id="SVGID_3_" gradientUnits="userSpaceOnUse" x1="355.3281" y1="16.2411" x2="375.3708" y2="36.2838">
			<stop  offset="0" style="stop-color:#2A66B1"/>
			<stop  offset="1" style="stop-color:#0066CC"/>
		</linearGradient>
		<path class="st7" d="M383.61,25.21c-0.27-0.27-0.64-0.44-1.05-0.44h-4.11l1.67-1.67c0.58-0.58,0.58-1.53,0-2.11
			c-0.29-0.29-0.67-0.43-1.05-0.43c-0.38,0-0.77,0.14-1.06,0.43l-3.16,3.16l-0.62,0.62h-6l1.97-1.97l0.58,0l2.96,0
			c0.54,0,0.99-0.44,0.99-0.99c0-0.27-0.11-0.52-0.29-0.7c-0.18-0.18-0.42-0.29-0.7-0.29h-1.56l1.92-1.92
			c0.38-0.38,0.38-1.01,0-1.39c-0.19-0.19-0.44-0.29-0.7-0.29c-0.25,0-0.51,0.1-0.7,0.29l-1.92,1.92l0-1.56
			c0-0.54-0.44-0.99-0.99-0.99c-0.27,0-0.52,0.11-0.69,0.29c-0.18,0.18-0.29,0.43-0.29,0.7l0,2.96l0,0.58l-1.97,1.97v-6l0.62-0.62
			l3.16-3.16c0.58-0.58,0.58-1.53,0-2.11c-0.29-0.29-0.67-0.44-1.06-0.44c-0.38,0-0.76,0.14-1.05,0.44l-1.67,1.67V9.05
			c0-0.82-0.67-1.49-1.49-1.49c-0.41,0-0.78,0.17-1.05,0.44c-0.27,0.27-0.44,0.64-0.44,1.05v4.11l-1.67-1.67
			c-0.58-0.58-1.53-0.58-2.11,0c-0.29,0.29-0.43,0.67-0.43,1.05c0,0.38,0.14,0.77,0.43,1.06l3.16,3.16l0.62,0.62v6l-1.97-1.97
			l0-0.58l0-2.96c0-0.54-0.44-0.99-0.99-0.99c-0.27,0-0.52,0.11-0.7,0.29c-0.18,0.18-0.29,0.42-0.29,0.7v1.56L358,17.52
			c-0.38-0.38-1.01-0.38-1.39,0c-0.19,0.19-0.29,0.44-0.29,0.7c0,0.25,0.1,0.51,0.29,0.7l1.92,1.92h-1.56
			c-0.54,0-0.99,0.44-0.99,0.99c0,0.27,0.11,0.52,0.29,0.69c0.18,0.18,0.43,0.29,0.7,0.29l2.96,0l0.58,0l1.97,1.97h-6l-0.62-0.62
			l-3.16-3.16c-0.58-0.58-1.53-0.58-2.11,0c-0.29,0.29-0.44,0.67-0.44,1.06c0,0.38,0.14,0.76,0.44,1.05l1.67,1.67h-4.11
			c-0.82,0-1.49,0.67-1.49,1.49c0,0.41,0.17,0.78,0.44,1.05c0.27,0.27,0.64,0.44,1.05,0.44h4.11l-1.67,1.67
			c-0.58,0.58-0.58,1.53,0,2.11c0.29,0.29,0.67,0.43,1.05,0.43s0.77-0.14,1.06-0.43l3.16-3.16l0.62-0.62h6l-1.97,1.97l-0.58,0
			l-2.96,0c-0.54,0-0.99,0.44-0.99,0.99c0,0.27,0.11,0.52,0.29,0.7c0.18,0.18,0.42,0.29,0.7,0.29h1.56l-1.92,1.92
			c-0.38,0.38-0.38,1.01,0,1.39c0.19,0.19,0.44,0.29,0.7,0.29c0.25,0,0.51-0.1,0.7-0.29l1.92-1.92v1.56c0,0.54,0.44,0.99,0.99,0.99
			c0.27,0,0.52-0.11,0.69-0.29c0.18-0.18,0.29-0.43,0.29-0.7l0-2.96l0-0.58l1.97-1.97v6l-0.62,0.62l-3.16,3.16
			c-0.58,0.58-0.58,1.53,0,2.11c0.29,0.29,0.67,0.44,1.06,0.44c0.38,0,0.76-0.14,1.05-0.44l1.67-1.67v4.11
			c0,0.82,0.67,1.49,1.49,1.49c0.41,0,0.78-0.17,1.05-0.44c0.27-0.27,0.44-0.64,0.44-1.05v-4.11l1.67,1.67
			c0.58,0.58,1.53,0.58,2.11,0c0.29-0.29,0.43-0.67,0.43-1.05c0-0.38-0.14-0.77-0.43-1.06l-3.16-3.16l-0.62-0.62v-6l1.97,1.97
			l0,0.58l0,2.96c0,0.54,0.44,0.99,0.99,0.99c0.27,0,0.52-0.11,0.7-0.29c0.18-0.18,0.29-0.42,0.29-0.7v-1.56l1.92,1.92
			c0.38,0.38,1.01,0.38,1.39,0c0.19-0.19,0.29-0.44,0.29-0.7c0-0.25-0.1-0.51-0.29-0.7l-1.92-1.92l1.56,0
			c0.54,0,0.99-0.44,0.99-0.99c0-0.27-0.11-0.52-0.29-0.69c-0.18-0.18-0.43-0.29-0.7-0.29l-2.96,0l-0.58,0l-1.97-1.97h6l0.62,0.62
			l3.16,3.16c0.58,0.58,1.53,0.58,2.11,0c0.29-0.29,0.44-0.67,0.44-1.06c0-0.38-0.14-0.76-0.44-1.05l-1.67-1.67h4.11
			c0.82,0,1.49-0.67,1.49-1.49C384.05,25.85,383.89,25.48,383.61,25.21z"/>
	</g>
	<g>
		<linearGradient id="SVGID_4_" gradientUnits="userSpaceOnUse" x1="55.3678" y1="42.3758" x2="89.9371" y2="42.3758">
			<stop  offset="0" style="stop-color:#ED7F22"/>
			<stop  offset="1" style="stop-color:#F19549"/>
		</linearGradient>
		<polygon class="st8" points="55.37,44.56 89.94,44.56 89.94,40.2 57.9,40.2 		"/>
		<linearGradient id="SVGID_5_" gradientUnits="userSpaceOnUse" x1="59.2058" y1="31.3256" x2="93.8722" y2="31.3256">
			<stop  offset="0" style="stop-color:#ED7F22"/>
			<stop  offset="1" style="stop-color:#F19549"/>
		</linearGradient>
		<path class="st9" d="M88.58,24.71H74.48c-4.69,0-9.06,2.52-11.41,6.57l-3.86,6.66h34.67V30C93.87,27.09,91.5,24.71,88.58,24.71z
			 M89.99,31.7c0,0.98-0.79,1.77-1.77,1.77h-9.79c-0.98,0-1.77-0.79-1.77-1.77v-1.24c0-0.98,0.79-1.77,1.77-1.77h9.79
			c0.98,0,1.77,0.79,1.77,1.77V31.7z"/>
	</g>
	<g>
		<linearGradient id="SVGID_6_" gradientUnits="userSpaceOnUse" x1="104.6708" y1="18.6824" x2="128.0245" y2="18.6824">
			<stop  offset="0" style="stop-color:#ED7F22"/>
			<stop  offset="1" style="stop-color:#F19549"/>
		</linearGradient>
		<path class="st10" d="M125.11,13.57h-17.52c-1.61,0-2.92,1.31-2.92,2.92v6.57c0,0.4,0.33,0.73,0.73,0.73h21.89
			c0.4,0,0.73-0.33,0.73-0.73v-6.57C128.02,14.88,126.72,13.57,125.11,13.57z M112.7,20.87h-4.38c-0.3,0-0.56-0.18-0.67-0.45
			c-0.11-0.27-0.05-0.59,0.16-0.8l0.73-0.73c0.29-0.29,0.75-0.29,1.03,0c0.14,0.14,0.21,0.33,0.21,0.52h2.92
			c0.4,0,0.73,0.33,0.73,0.73C113.43,20.55,113.1,20.87,112.7,20.87z"/>
		<linearGradient id="SVGID_7_" gradientUnits="userSpaceOnUse" x1="104.6708" y1="36.9274" x2="128.0245" y2="36.9274">
			<stop  offset="0" style="stop-color:#ED7F22"/>
			<stop  offset="1" style="stop-color:#F19549"/>
		</linearGradient>
		<path class="st11" d="M127.29,25.25H105.4c-0.4,0-0.73,0.33-0.73,0.73v18.25c0,1.61,1.31,2.92,2.92,2.92v0.73
			c0,0.4,0.33,0.73,0.73,0.73h1.46c0.4,0,0.73-0.33,0.73-0.73v-0.73h11.68v0.73c0,0.4,0.33,0.73,0.73,0.73h1.46
			c0.4,0,0.73-0.33,0.73-0.73v-0.73c1.61,0,2.92-1.31,2.92-2.92V25.98C128.02,25.58,127.7,25.25,127.29,25.25z M112.7,29.63h-4.38
			c-0.3,0-0.56-0.18-0.67-0.45c-0.11-0.27-0.05-0.59,0.16-0.8l0.73-0.73c0.29-0.29,0.75-0.29,1.03,0c0.14,0.14,0.21,0.33,0.21,0.52
			h2.92c0.4,0,0.73,0.33,0.73,0.73C113.43,29.3,113.1,29.63,112.7,29.63z"/>
	</g>
	<linearGradient id="SVGID_8_" gradientUnits="userSpaceOnUse" x1="138.8231" y1="31.3256" x2="171.0617" y2="31.3256">
		<stop  offset="0" style="stop-color:#ED7F22"/>
		<stop  offset="1" style="stop-color:#F19549"/>
	</linearGradient>
	<path class="st12" d="M169.04,17.89h-28.21c-1.11,0-2.01,0.9-2.01,2.01v18.8c0,1.11,0.9,2.01,2.01,2.01h11.42v1.45l-7.5,1.25
		c-0.37,0.06-0.61,0.41-0.55,0.77c0.06,0.33,0.34,0.56,0.66,0.56c0.04,0,0.07,0,0.11-0.01l8-1.33h3.92l8,1.33
		c0.04,0.01,0.07,0.01,0.11,0.01c0.32,0,0.61-0.23,0.66-0.56c0.06-0.37-0.19-0.71-0.55-0.77l-7.5-1.25v-1.45h11.42
		c1.11,0,2.01-0.9,2.01-2.01v-18.8C171.06,18.8,170.16,17.89,169.04,17.89z M168.37,38.04h-26.86V20.58h26.86V38.04z"/>
	<g>
		<linearGradient id="SVGID_9_" gradientUnits="userSpaceOnUse" x1="182.6347" y1="31.0775" x2="204.4396" y2="31.0775">
			<stop  offset="0" style="stop-color:#ED7F22"/>
			<stop  offset="1" style="stop-color:#F19549"/>
		</linearGradient>
		<path class="st13" d="M193.54,13.57c-6.01,0-10.9,4.89-10.9,10.9c0,1.13,0.17,2.25,0.51,3.32c0,0,0,0.01,0,0.01c0,0,0,0,0,0.01
			c0,0.01,0,0.01,0,0.02c0,0.01,0.01,0.02,0.01,0.03c0,0.01,0,0.01,0.01,0.02c0,0,0,0.01,0,0.01c0.11,0.26,0.23,0.51,0.34,0.76
			c1.82,4.11,3.35,7.95,4.02,12.38c0.11,0.71,0.58,1.27,1.21,1.51v3.77c0,1.25,1.02,2.27,2.27,2.27h5.04c1.25,0,2.27-1.02,2.27-2.27
			v-3.77c0.63-0.24,1.1-0.81,1.21-1.51c0.67-4.43,2.2-8.26,4.02-12.37c0.11-0.26,0.23-0.51,0.34-0.77c0.01-0.02,0.02-0.04,0.02-0.06
			c0-0.01,0-0.01,0-0.02c0,0,0,0,0-0.01c0.34-1.07,0.52-2.19,0.52-3.33C204.44,18.46,199.55,13.57,193.54,13.57z M190.08,38.69
			c-0.04,0.01-0.07,0.01-0.11,0.01c-0.23,0-0.45-0.16-0.5-0.4l-1.4-6.32c-0.06-0.28,0.11-0.55,0.39-0.61
			c0.28-0.06,0.55,0.11,0.61,0.39l1.4,6.32C190.53,38.36,190.35,38.63,190.08,38.69z M192.36,38.7c-0.01,0-0.03,0-0.04,0
			c-0.27,0-0.49-0.2-0.51-0.47l-0.47-6.32c-0.02-0.28,0.19-0.53,0.47-0.55c0.28-0.02,0.53,0.19,0.55,0.47l0.47,6.32
			C192.85,38.44,192.64,38.68,192.36,38.7z M195.19,38.23c-0.02,0.27-0.24,0.47-0.51,0.47c-0.01,0-0.03,0-0.04,0
			c-0.28-0.02-0.49-0.27-0.47-0.55l0.47-6.32c0.02-0.28,0.27-0.49,0.55-0.47c0.28,0.02,0.49,0.27,0.47,0.55L195.19,38.23z
			 M198.94,31.98l-1.4,6.32c-0.05,0.24-0.26,0.4-0.5,0.4c-0.04,0-0.07,0-0.11-0.01c-0.28-0.06-0.45-0.33-0.39-0.61l1.4-6.32
			c0.06-0.28,0.33-0.45,0.61-0.39C198.83,31.44,199,31.71,198.94,31.98z M203.04,27.2c-0.17,0.01-0.34,0.03-0.51,0.04
			c-0.19,0.02-0.37,0.03-0.56,0.05c-0.22,0.02-0.43,0.03-0.65,0.05c-0.18,0.01-0.37,0.03-0.55,0.04c-0.22,0.01-0.44,0.03-0.66,0.04
			c-0.18,0.01-0.36,0.02-0.55,0.03c-0.22,0.01-0.45,0.02-0.67,0.03c-0.18,0.01-0.36,0.02-0.53,0.03c-0.23,0.01-0.46,0.02-0.69,0.03
			c-0.17,0.01-0.34,0.01-0.52,0.02c-0.24,0.01-0.48,0.01-0.72,0.02c-0.16,0-0.32,0.01-0.48,0.01c-0.27,0.01-0.54,0.01-0.8,0.01
			c-0.13,0-0.27,0-0.4,0.01c-0.4,0-0.8,0.01-1.21,0.01c0,0,0,0,0,0c-0.4,0-0.8,0-1.2-0.01c-0.14,0-0.27,0-0.41-0.01
			c-0.27,0-0.53-0.01-0.8-0.01c-0.16,0-0.32-0.01-0.49-0.01c-0.24-0.01-0.48-0.01-0.72-0.02c-0.17-0.01-0.35-0.01-0.52-0.02
			c-0.23-0.01-0.46-0.02-0.68-0.03c-0.18-0.01-0.36-0.02-0.54-0.03c-0.22-0.01-0.44-0.02-0.66-0.03c-0.18-0.01-0.37-0.02-0.55-0.03
			c-0.22-0.01-0.44-0.03-0.65-0.04c-0.19-0.01-0.37-0.03-0.56-0.04c-0.21-0.02-0.43-0.03-0.64-0.05c-0.19-0.01-0.37-0.03-0.56-0.05
			c-0.17-0.01-0.34-0.03-0.51-0.04c-0.25-0.88-0.38-1.8-0.38-2.72c0-5.45,4.43-9.88,9.88-9.88s9.88,4.43,9.88,9.88
			C203.42,25.4,203.29,26.31,203.04,27.2z"/>
	</g>
</g>
</svg>
