<?xml version="1.0" encoding="utf-8"?>
<!-- Generator: Adobe Illustrator 23.1.1, SVG Export Plug-In . SVG Version: 6.00 Build 0)  -->
<svg version="1.1" id="Layer_1" xmlns="http://www.w3.org/2000/svg" xmlns:xlink="http://www.w3.org/1999/xlink" x="0px" y="0px"
	 viewBox="0 0 490 50" style="enable-background:new 0 0 490 50;" xml:space="preserve">
<style type="text/css">
	.st0{fill:#EE7700;}
	.st1{fill:#0976BC;}
	.st2{fill:#BCBCBB;}
	.st3{fill:none;stroke:#010101;stroke-width:0.5;stroke-miterlimit:10;}
	.st4{fill:#010101;}
	.st5{font-family:'SourceSansPro-BoldIt';}
	.st6{font-size:15.7262px;}
	.st7{opacity:0.1;fill:#010101;enable-background:new    ;}
	.st8{font-size:10.1425px;}
</style>
<rect x="8.7" y="4.33" class="st0" width="237.7" height="16.5"/>
<rect x="245.4" y="4.33" class="st1" width="94.2" height="16.5"/>
<rect x="339.5" y="4.33" class="st2" width="143.6" height="16.5"/>
<line class="st3" x1="8.7" y1="28.33" x2="8.7" y2="42.83"/>
<line class="st3" x1="339.5" y1="28.33" x2="339.5" y2="42.83"/>
<line class="st3" x1="483.1" y1="28.33" x2="483.1" y2="42.83"/>
<line class="st3" x1="244.9" y1="28.33" x2="244.9" y2="42.83"/>
<text transform="matrix(1 0 0 1 99.0094 40.9976)" class="st4 st5 st6">50%</text>
<text transform="matrix(1 0 0 1 272.068 40.9976)" class="st7 st5 st6">15%</text>
<text transform="matrix(1 0 0 1 389.0064 40.9976)" class="st7 st5 st6">35%</text>
<text transform="matrix(1 0 0 1 388.6803 16.2097)" class="st4 st5 st8">Ahorro</text>
<line class="st3" x1="2.5" y1="35.63" x2="93.1" y2="35.63"/>
<line class="st3" x1="304.5" y1="35.63" x2="379.8" y2="35.63"/>
<line class="st3" x1="421.4" y1="35.63" x2="487.5" y2="35.63"/>
<line class="st3" x1="135.7" y1="35.63" x2="257.9" y2="35.63"/>
</svg>
