<?xml version="1.0" encoding="utf-8"?>
<!-- Generator: Adobe Illustrator 23.1.1, SVG Export Plug-In . SVG Version: 6.00 Build 0)  -->
<svg version="1.1" id="Layer_2" xmlns="http://www.w3.org/2000/svg" xmlns:xlink="http://www.w3.org/1999/xlink" x="0px" y="0px"
	 viewBox="0 0 490 50" style="enable-background:new 0 0 490 50;" xml:space="preserve">
<style type="text/css">
	.st0{fill:none;}
	.st1{fill:#ED7F22;}
	.st2{font-family:'Montserrat-ExtraBold';}
	.st3{font-size:14.3467px;}
	.st4{fill:url(#SVGID_1_);}
	.st5{fill:#87898E;}
	.st6{fill:url(#SVGID_2_);}
	.st7{fill:#FFFFFF;}
	.st8{font-size:10.76px;}
</style>
<rect x="103.73" y="32.52" class="st0" width="38.67" height="13.64"/>
<text transform="matrix(1 0 0 1 107.3638 43.1641)" class="st1 st2 st3">50%</text>
<linearGradient id="SVGID_1_" gradientUnits="userSpaceOnUse" x1="2.5" y1="12.7006" x2="243.9154" y2="12.7006">
	<stop  offset="0" style="stop-color:#ED7F22"/>
	<stop  offset="1" style="stop-color:#F19549"/>
</linearGradient>
<path class="st4" d="M243.92,20.97H10.66c-4.49,0-8.16-3.67-8.16-8.16v-0.22c0-4.49,3.67-8.16,8.16-8.16h233.26V20.97z"/>
<path class="st5" d="M339.65,4.43h137.53c4.49,0,8.16,3.67,8.16,8.16v0.22c0,4.49-3.67,8.16-8.16,8.16H339.65V4.43z"/>
<linearGradient id="SVGID_2_" gradientUnits="userSpaceOnUse" x1="243.9154" y1="12.7006" x2="339.6457" y2="12.7006">
	<stop  offset="0" style="stop-color:#2A66B1"/>
	<stop  offset="1" style="stop-color:#0066CC"/>
</linearGradient>
<polygon class="st6" points="243.92,4.43 339.65,4.43 339.65,20.97 243.92,20.97 "/>
<rect x="339.65" y="9.28" class="st0" width="145.69" height="13.64"/>
<text transform="matrix(1 0 0 1 392.583 17.2622)" class="st7 st2 st8">Ahorro</text>
</svg>
