<?xml version="1.0" encoding="utf-8"?>
<!-- Generator: Adobe Illustrator 23.1.1, SVG Export Plug-In . SVG Version: 6.00 Build 0)  -->
<svg version="1.1" id="Layer_1" xmlns="http://www.w3.org/2000/svg" xmlns:xlink="http://www.w3.org/1999/xlink" x="0px" y="0px"
	 viewBox="0 0 120 120" style="enable-background:new 0 0 120 120;" xml:space="preserve">
<style type="text/css">
	.st0{fill:#FFFFFF;}
</style>
<g>
	<path class="st0" d="M35.66,8.4c0,19.25,0,38.37,0,57.63c1-0.1,1.93-0.18,2.86-0.29c0.87-0.1,1.73-0.27,2.61-0.33
		c0.56-0.04,0.73-0.25,0.73-0.81c-0.02-3.63-0.01-7.26-0.01-10.88c0-0.31,0-0.63,0-1.01c1.98,0,3.91,0,5.92,0c0,3.84,0,7.68,0,11.57
		c0.27-0.02,0.46-0.01,0.64-0.05c1.48-0.28,2.96-0.58,4.44-0.85c0.4-0.07,0.58-0.22,0.58-0.66c-0.01-5.55-0.02-11.1,0-16.65
		c0-0.57-0.27-0.62-0.72-0.62c-3.29,0.01-6.57,0-9.86,0c-0.29,0-0.58,0-0.96,0c-0.02-0.3-0.04-0.56-0.04-0.81
		c0-13.08,0-26.15-0.01-39.23c0-0.63,0.21-0.92,0.78-1.18C46.67,2.41,50.85,1,55.29,0.44c1.4-0.18,2.8-0.29,4.28-0.44
		c0,11.14,0,22.17,0,33.27c-1.78,0-3.56,0-5.46,0c0-8.98,0-17.97,0-27.1c-1.14,0.28-2.16,0.5-3.15,0.78
		c-0.87,0.24-1.71,0.58-2.57,0.82c-0.49,0.14-0.63,0.39-0.63,0.89c0.02,2.61,0.01,5.21,0.01,7.82c0,7.69,0,15.39,0,23.08
		c0,0.29,0,0.58,0,0.99c0.34,0,0.62,0,0.9,0c3.19,0,6.38,0.02,9.57-0.02c0.63-0.01,0.77,0.21,0.77,0.79
		c-0.02,6.55-0.01,13.1-0.01,19.65c0,0.31,0,0.62,0,1.06c1.42-0.35,2.73-0.68,4.04-1.01c1.13-0.29,2.25-0.62,3.39-0.87
		c0.59-0.13,0.76-0.4,0.75-1c-0.02-7.28-0.01-14.56-0.01-21.84c0-10.2-0.01-20.4,0.01-30.61c0-0.56-0.09-0.83-0.72-0.87
		c-1.43-0.09-2.85-0.27-4.34-0.42c0-1.74,0-3.5,0-5.41c1.29,0.08,2.57,0.12,3.84,0.25c3.82,0.39,7.52,1.28,11.12,2.62
		c0.5,0.19,0.72,0.41,0.71,0.98c-0.04,1.72-0.02,3.45-0.02,5.25c-1.67-0.65-3.27-1.27-4.97-1.92c0,17.02,0,33.9,0,50.87
		c0.23-0.05,0.43-0.08,0.63-0.15c2-0.7,3.98-1.43,5.99-2.1c0.56-0.19,0.72-0.46,0.72-1.05C80.1,38.39,80.1,22.03,80.1,5.66
		c0-0.15,0-0.29,0-0.44c0.06-0.03,0.13-0.05,0.19-0.08c3.94,8.83,7.89,17.66,11.93,26.69c1.8-4.39,3.52-8.62,5.3-12.96
		c2.52,3.58,4.41,7.34,5.76,11.37c1.34,4.01,2.09,8.14,2.23,12.43c0.17-0.05,0.3-0.06,0.39-0.12c2.99-2.21,5.82-4.58,7.69-7.88
		c1.34-2.37,1.84-4.83,0.38-7.35c-0.98-1.68-2.53-2.72-4.32-3.3c-1.63-0.53-3.34-0.83-5.02-1.24c-0.22-0.05-0.45-0.09-0.68-0.14
		c0.01-0.07,0.02-0.14,0.03-0.2c0.82,0.12,1.65,0.22,2.47,0.37c1.8,0.33,3.55,0.84,5.16,1.74c3.56,1.98,4.78,5.29,3.37,9.12
		c-1.08,2.93-2.98,5.28-5.18,7.42c-3.82,3.72-8.23,6.61-12.88,9.15c-10.58,5.8-21.8,9.97-33.44,13.05
		c-7.16,1.89-14.44,3.2-21.8,4.02c-5.57,0.62-11.16,0.94-16.77,0.6c-4.14-0.25-8.26-0.73-12.14-2.32c-1.49-0.61-2.96-1.41-4.23-2.39
		c-3.76-2.91-4.26-7.12-1.44-10.94c2.02-2.74,4.71-4.76,7.45-6.71c0.03-0.02,0.08,0,0.34,0c-0.36,0.28-0.59,0.46-0.83,0.64
		c-2.43,1.85-4.75,3.82-6.43,6.41c-0.45,0.69-0.84,1.43-1.13,2.2c-1.01,2.69-0.33,5.22,1.86,7.21c2.22,2.03,4.93,2.98,7.79,3.59
		c4.27,0.92,8.59,1,12.94,0.88c0.53-0.02,0.71-0.19,0.71-0.73c-0.02-6.53-0.02-13.05,0-19.58c0-0.62-0.2-0.78-0.8-0.77
		c-1.8,0.04-3.6,0.03-5.41,0c-0.52-0.01-0.67,0.17-0.65,0.68c0.26,4.66,1.26,9.15,3.08,13.45c0.11,0.26,0.21,0.53,0.34,0.86
		c-1.69,0.81-3.33,1.59-4.96,2.37C12.76,45.3,17.49,21.15,35.66,8.4z M86.31,33.76c-0.05,0.02-0.1,0.04-0.14,0.06
		c0,6.4,0,12.8,0,19.25c0.2-0.06,0.32-0.07,0.42-0.12c4.22-2.05,8.44-4.1,12.66-6.14c0.42-0.2,0.54-0.51,0.52-0.94
		c-0.14-2.47-0.19-4.96-0.43-7.42c-0.16-1.58-0.6-3.13-0.92-4.69c-0.08-0.01-0.16-0.01-0.25-0.02c-1.9,4.63-3.8,9.26-5.77,14.07
		C90.32,43.01,88.32,38.38,86.31,33.76z M29.76,23.49c-0.07-0.07-0.14-0.14-0.22-0.22c-0.28,0.21-0.66,0.37-0.84,0.65
		c-1.73,2.78-3.07,5.74-4.03,8.87c-0.77,2.49-1.28,5.03-1.53,7.69c2.22,0,4.39,0,6.61,0C29.76,34.8,29.76,29.15,29.76,23.49z"/>
	<path class="st0" d="M47.35,86.1c-1.37-0.56-2.71-1.19-4.11-1.66c-1.16-0.39-1.47-1.05-1.44-2.25c0.09-3.72,0.05-7.45,0.02-11.17
		c0-0.64,0.18-0.82,0.81-0.85c1.31-0.06,2.62-0.24,3.93-0.36c0.36-0.03,0.72-0.06,1.21-0.09c0,0.31,0,0.57,0,0.82
		c0,3.12,0.01,6.23-0.01,9.35c0,0.52,0.14,0.8,0.66,0.94c1.45,0.41,2.89,0.86,4.34,1.28c0.18,0.05,0.37,0.04,0.67,0.08
		c0-0.37,0-0.68,0-0.99c0-3.85,0.01-7.69-0.02-11.54c-0.01-0.63,0.2-0.84,0.79-0.94c1.55-0.25,3.1-0.57,4.77-0.89
		c0,6.16,0,12.25,0,18.37c2.76,0,5.4,0,8.13,0c0.02-0.34,0.06-0.67,0.06-1c0-6.26,0.01-12.51-0.01-18.77c0-0.59,0.16-0.86,0.74-1.02
		c1.58-0.46,3.14-0.99,4.84-1.54c0,0.39,0,0.67,0,0.95c0,6.84,0.01,13.68-0.02,20.52c0,0.76,0.23,0.92,0.95,0.92
		c13.54-0.02,27.07-0.02,40.61-0.02c0.02,0,0.05-0.01,0.07,0c0.24,0.09,0.48,0.17,0.73,0.26c-0.25,0.08-0.49,0.24-0.74,0.24
		c-8.89,0.01-17.77,0.01-26.66,0.01c-3.14,0-6.28,0.08-9.42-0.02c-3.26-0.11-6.45,0.19-9.6,0.99c-0.4,0.1-0.82,0.13-1.22,0.18
		c-0.04,0.01-0.09-0.03-0.21-0.06c-0.03-0.3-0.06-0.63-0.1-1.02c-2.68,0-5.37,0-8.09,0c-0.02,0.47-0.05,0.92-0.08,1.49
		c-1.6-0.19-3.15-0.31-4.67-0.56c-1.41-0.23-2.81-0.6-4.21-0.89c-0.33-0.07-0.67-0.09-1.01-0.09c-14.22,0-28.44,0-42.65-0.01
		c-0.32,0-0.63-0.16-0.95-0.25c0.31-0.09,0.63-0.25,0.94-0.25c13.37-0.01,26.73-0.01,40.1-0.01c0.29,0,0.57,0,0.86,0
		C47.34,86.2,47.35,86.15,47.35,86.1z"/>
	<path class="st0" d="M86.1,58.73c0,0.56,0,0.99,0,1.43c0,6.62,0,13.23,0.01,19.85c0,0.52-0.12,0.86-0.59,1.12
		c-1.62,0.89-3.21,1.82-4.82,2.73c-0.16,0.09-0.35,0.14-0.6,0.24c0-0.29,0-0.51,0-0.72c0-7.13,0.01-14.25-0.01-21.38
		c0-0.58,0.16-0.86,0.7-1.07C82.53,60.24,84.24,59.5,86.1,58.73z"/>
	<path class="st0" d="M96.59,70.66c-1.32-1.26-2.63-2.51-3.91-3.74c0.9-1.53,1.81-3,2.64-4.51c1.71-3.14,2.87-6.48,3.64-9.97
		c0.06-0.29,0.19-0.65,0.41-0.8c1.96-1.38,3.95-2.73,5.93-4.08C106.14,52.17,100.41,67.31,96.59,70.66z"/>
	<path class="st0" d="M60.15,104.77c-17.92,0-35.84,0-53.76-0.01c-0.32,0-0.63-0.15-0.95-0.24c0.31-0.09,0.62-0.27,0.93-0.27
		c35.82-0.01,71.63-0.01,107.45-0.01c0.29,0,0.59-0.02,0.88,0.01c0.13,0.02,0.24,0.16,0.37,0.24c-0.11,0.09-0.21,0.21-0.34,0.26
		c-0.13,0.04-0.29,0.01-0.43,0.01C96.23,104.77,78.19,104.77,60.15,104.77z"/>
	<path class="st0" d="M29.82,70.53c1.99,0,3.85,0,5.78,0c0,3.14,0,6.21,0,9.35c-0.15-0.07-0.31-0.11-0.42-0.21
		c-1.68-1.44-3.35-2.89-5.02-4.34c-0.15-0.13-0.32-0.35-0.32-0.54C29.81,73.38,29.82,71.97,29.82,70.53z"/>
	<path class="st0" d="M37.82,100.6c0.93-0.51,0.93-0.51,0.94-1.63c0.01-1.73,0.02-3.46,0.01-5.19c-0.01-0.74,0.29-1.66-0.88-1.98
		c0.14-0.04,0.28-0.12,0.42-0.12c1.24-0.01,2.49-0.05,3.72,0.02c0.53,0.03,1.11,0.22,1.57,0.49c0.75,0.44,1.21,1.13,1.08,2.07
		c-0.14,1.01-0.68,1.7-1.69,1.97c-0.12,0.03-0.23,0.07-0.32,0.1c0.52,0.78,1.02,1.55,1.55,2.32c0.52,0.76,0.88,1.69,2.02,1.83
		c-0.02,0.07-0.04,0.15-0.06,0.22c-0.25,0.03-0.51,0.05-0.76,0.1c-1.49,0.3-2.37-0.35-2.85-1.74c-0.21-0.59-0.56-1.14-0.9-1.66
		c-0.16-0.25-0.43-0.47-0.7-0.6c-0.34-0.16-0.63-0.06-0.62,0.41c0.03,0.88-0.01,1.76,0.12,2.62c0.04,0.29,0.48,0.52,0.74,0.79
		C40.96,100.86,38.55,100.93,37.82,100.6z M40.44,94.29c-0.02,0-0.05,0-0.07,0c0,0.48,0.03,0.97-0.01,1.45
		c-0.04,0.54,0.21,0.67,0.69,0.63c1.25-0.1,2.11-1.5,1.78-2.9c-0.19-0.81-0.84-1.36-1.63-1.42c-0.47-0.03-0.76,0.14-0.76,0.64
		C40.44,93.23,40.44,93.76,40.44,94.29z"/>
	<path class="st0" d="M87.27,96.33c-0.05,2.78-1.97,4.69-4.65,4.63c-2.73-0.06-4.55-1.96-4.49-4.69c0.05-2.76,2.07-4.81,4.67-4.75
		C85.45,91.57,87.32,93.58,87.27,96.33z M79.77,95.97c0.07,0.02,0.13,0.05,0.2,0.07c0.01,1.54,0.48,2.89,1.31,3.69
		c1.13,1.09,2.65,0.9,3.48-0.42c1.16-1.86,0.9-4.81-0.56-6.42c-1.07-1.18-2.55-1.16-3.36,0.2C80.32,93.94,80.12,95,79.77,95.97z"/>
	<path class="st0" d="M73.05,111.87c-1.38,2.61-2.7,5.15-4.09,7.65c-0.14,0.26-0.72,0.28-1.24,0.46c-0.13-2.25-0.25-4.3-0.37-6.48
		c-0.16,0.18-0.27,0.28-0.34,0.41c-0.95,1.72-1.92,3.44-2.82,5.19c-0.33,0.64-0.72,0.86-1.51,0.63c-0.16-2.57-0.33-5.2-0.5-7.88
		c0.37,0,0.67,0,1.06,0c0.09,2.09,0.18,4.17,0.29,6.49c0.23-0.38,0.37-0.58,0.48-0.79c0.92-1.69,1.85-3.37,2.73-5.07
		c0.33-0.63,0.74-0.84,1.51-0.6c0.12,2.05,0.24,4.14,0.37,6.37c0.15-0.18,0.25-0.26,0.31-0.36c0.94-1.81,1.9-3.62,2.78-5.46
		C71.99,111.81,72.36,111.68,73.05,111.87z"/>
	<path class="st0" d="M95.8,98.2c0-1.9,0.05-3.67-0.04-5.43c-0.02-0.32-0.59-0.61-0.91-0.92c0.23-0.24,2.01-0.29,2.61,0.07
		c-0.94,0.27-0.84,1.02-0.86,1.7c-0.08,2.14-0.13,4.28-0.2,6.42c-0.01,0.26-0.05,0.52-0.09,1.03c-0.39-0.34-0.69-0.52-0.89-0.77
		c-1.63-2.06-3.24-4.14-4.85-6.21c-0.16-0.21-0.32-0.42-0.59-0.77c-0.05,0.34-0.09,0.51-0.09,0.69c0.04,1.75,0.11,3.5,0.12,5.25
		c0.01,0.8,0.46,1.14,1.21,1.32c-1,0.35-1.93,0.17-2.93,0.12c1.31-0.47,1.02-1.55,1.07-2.46c0.07-1.29,0.07-2.58,0.1-3.87
		c0.03-1.09,0-2.14-1.57-2.4c0.27-0.16,0.37-0.25,0.48-0.28c0.11-0.03,0.24,0.01,0.36-0.01c1.54-0.27,2.56,0.33,3.42,1.66
		C93.23,95.01,94.53,96.53,95.8,98.2z"/>
	<path class="st0" d="M10.17,91.7c0.85,0,1.72-0.09,2.55,0.04c0.34,0.05,0.65,0.54,0.91,0.87c1.32,1.72,2.62,3.45,3.93,5.18
		c0.1,0.13,0.17,0.28,0.31,0.52c0-2.03,0.04-3.84-0.04-5.65c-0.01-0.28-0.61-0.53-1.04-0.87c0.92,0,1.78,0,2.76,0
		c-1.39,0.93-0.84,2.32-0.94,3.47c-0.16,1.83-0.04,3.69-0.04,5.54c-0.1,0.04-0.2,0.09-0.3,0.13c-0.24-0.19-0.52-0.34-0.71-0.58
		c-1.65-2.08-3.28-4.17-4.91-6.26c-0.16-0.21-0.32-0.42-0.57-0.77c-0.06,0.32-0.11,0.5-0.11,0.67c0.03,1.61,0.06,3.21,0.13,4.82
		c0.05,1.25,0.08,1.25,1.1,1.83c-0.91,0.26-1.83,0.11-2.81,0.06c1.46-0.62,0.99-1.87,1.07-2.89c0.09-1.14,0.08-2.29,0.1-3.43
		c0.02-1.08,0-2.14-1.47-2.4C10.11,91.88,10.14,91.79,10.17,91.7z"/>
	<path class="st0" d="M55.46,91.96c-0.76,0.2-0.8,0.77-0.82,1.36c-0.08,2.29-0.16,4.57-0.24,6.85c-0.01,0.21-0.03,0.42-0.07,0.88
		c-0.42-0.37-0.75-0.59-0.99-0.88c-1.61-2.04-3.2-4.1-4.8-6.15c-0.15-0.19-0.29-0.38-0.5-0.66c-0.06,0.25-0.11,0.38-0.11,0.5
		c0.04,1.8,0.09,3.6,0.12,5.4c0.01,0.77,0.41,1.14,1.17,1.21c-0.34,0.38-2.06,0.46-2.92,0.15c1.5-0.54,1.04-1.8,1.12-2.82
		c0.1-1.28,0.09-2.58,0.09-3.87c0.01-1.15-0.23-1.45-1.3-1.88c-0.05-0.02-0.08-0.11-0.17-0.24c0.19-0.05,0.33-0.12,0.47-0.13
		c2.27-0.12,2.28-0.12,3.66,1.69c1.06,1.39,2.12,2.79,3.18,4.19c0.14,0.19,0.3,0.37,0.5,0.62c0.07-0.14,0.14-0.22,0.14-0.3
		c-0.02-1.56-0.06-3.11-0.09-4.67c-0.01-0.63-0.19-1.1-0.93-1.14c-0.07,0-0.13-0.11-0.33-0.3c1.03,0,1.9,0,2.76,0
		C55.41,91.83,55.44,91.9,55.46,91.96z"/>
	<path class="st0" d="M34.77,94.59c0,0.95,0,1.91,0,2.86c-0.05,0.02-0.09,0.05-0.14,0.07c-0.1-0.16-0.18-0.33-0.3-0.47
		c-0.18-0.22-0.33-0.5-0.57-0.62c-1-0.51-1.52-0.17-1.5,0.94c0.01,0.71,0.04,1.41,0.06,2.12c0.02,0.59,0.3,0.86,0.9,0.91
		c1.28,0.12,2.37-0.15,3.12-1.29c0.14-0.22,0.35-0.39,0.53-0.58c0.08,0.03,0.17,0.05,0.25,0.08c-0.18,0.67-0.3,1.36-0.59,1.98
		c-0.09,0.18-0.64,0.2-0.99,0.2c-1.78,0.02-3.55,0.01-5.33,0c-0.22,0-0.44-0.03-0.72-0.05c0.08-0.18,0.11-0.29,0.14-0.29
		c0.97-0.02,0.98-0.64,0.97-1.38c-0.04-1.7,0-3.41-0.04-5.11c-0.02-0.82,0.4-1.89-1.15-1.99c0.05-0.07,0.1-0.13,0.15-0.2
		c0.19-0.03,0.38-0.08,0.57-0.08c1.83,0,3.65,0.01,5.48-0.01c0.38,0,0.59,0.08,0.65,0.49c0.09,0.56,0.24,1.12,0.36,1.68
		c-0.06,0.04-0.11,0.07-0.17,0.11c-0.25-0.24-0.52-0.45-0.73-0.72c-0.73-0.93-1.7-1.24-2.84-1.17c-0.39,0.02-0.58,0.12-0.58,0.54
		c0.01,0.92,0,1.85-0.02,2.77c-0.01,0.37,0.13,0.51,0.51,0.52c0.91,0.01,1.24-0.19,1.6-1.06c0.04-0.1,0.11-0.19,0.16-0.28
		C34.62,94.57,34.7,94.58,34.77,94.59z"/>
	<path class="st0" d="M25.26,92.13c-0.02,0.4-0.05,0.66-0.05,0.92c0,1.92,0,3.85,0,5.77c0,1.29,0,1.29,1.06,1.71
		c-0.35,0.35-3.37,0.4-3.86,0.05c0.02-0.04,0.03-0.12,0.05-0.12c0.91-0.03,1.03-0.57,1.02-1.36c-0.04-2.07-0.02-4.14,0.01-6.21
		c0.01-0.54-0.16-0.7-0.71-0.7c-0.97-0.01-1.7,0.29-2.17,1.17c-0.11,0.21-0.3,0.39-0.45,0.58c-0.08-0.04-0.17-0.07-0.25-0.11
		c0.2-0.87,0.4-1.74,0.58-2.5c2.65,0.53,5.22,0.54,7.89-0.02c0.11,0.79,0.23,1.68,0.35,2.56c-0.07,0.02-0.13,0.05-0.2,0.07
		c-0.42-0.5-0.76-1.16-1.3-1.46C26.71,92.19,25.98,92.25,25.26,92.13z"/>
	<path class="st0" d="M63.37,93.84c0.19-0.87,0.38-1.74,0.58-2.68c1.26,0.8,2.6,0.51,3.88,0.52c1.29,0.01,2.64,0.26,3.97-0.56
		c0.13,0.98,0.25,1.88,0.36,2.78c-0.08,0.03-0.15,0.06-0.23,0.09c-0.2-0.28-0.4-0.55-0.59-0.83c-0.51-0.74-1.48-1.15-2.34-0.92
		c-0.14,0.04-0.32,0.29-0.32,0.44c-0.02,2.36-0.02,4.72,0.02,7.08c0,0.2,0.29,0.43,0.49,0.59c0.13,0.1,0.34,0.1,0.56,0.15
		c-0.4,0.37-3.28,0.43-3.91,0.14c0.01-0.05,0.01-0.12,0.03-0.13c1.05-0.39,1.05-0.39,1.05-1.62c0-1.99-0.01-3.99,0.02-5.98
		c0.01-0.55-0.18-0.69-0.72-0.7c-0.96-0.01-1.7,0.28-2.17,1.16c-0.11,0.21-0.3,0.39-0.46,0.58C63.53,93.9,63.45,93.87,63.37,93.84z"
		/>
	<path class="st0" d="M58.29,100.72c-1,0-1.99,0-3,0c0.01-0.11,0.01-0.2,0.02-0.2c1.03-0.19,1.33-1.02,1.63-1.85
		c0.67-1.85,1.34-3.71,2-5.56c0.11-0.31,0.15-0.65,0.23-1.05c0.43-0.21,0.92-0.45,1.48-0.73c0.44,1.41,0.88,2.83,1.32,4.24
		c0.35,1.11,0.68,2.23,1.06,3.34c0.25,0.73,0.4,1.58,1.55,1.5c-0.42,0.47-3.23,0.54-3.93,0.19c0.14-0.09,0.24-0.2,0.36-0.21
		c0.45-0.05,0.48-0.34,0.4-0.69c-0.04-0.19-0.1-0.37-0.16-0.56c-0.6-2.09-0.6-2.1-2.81-1.88c-0.2,0.02-0.47,0.24-0.55,0.43
		c-0.21,0.51-0.34,1.06-0.49,1.6c-0.18,0.62-0.08,1.07,0.69,1.12c0.08,0.01,0.16,0.08,0.24,0.12
		C58.3,100.58,58.29,100.65,58.29,100.72z M59.64,93.1c-0.09-0.01-0.17-0.01-0.26-0.02c-0.4,1.2-0.8,2.39-1.23,3.66
		c0.85,0,1.6,0,2.44,0C60.26,95.47,59.95,94.29,59.64,93.1z"/>
	<path class="st0" d="M106.53,100.59c-0.64,0.33-3.47,0.28-3.94-0.08c1.16-0.13,0.76-0.83,0.59-1.44c-0.52-1.85-0.52-1.82-2.42-1.85
		c-0.63-0.01-0.94,0.21-1.07,0.79c-0.1,0.45-0.23,0.89-0.35,1.34c-0.16,0.6-0.04,1.02,0.68,1.05c0.06,0,0.13,0.06,0.18,0.1
		c0.02,0.01,0.02,0.04,0.03,0.06c-0.35,0.3-2.34,0.36-2.99,0.09c0-0.05,0-0.13,0.02-0.13c1-0.17,1.32-0.95,1.61-1.76
		c0.69-1.92,1.4-3.84,2.08-5.76c0.1-0.29,0.1-0.61,0.15-0.93c0.47-0.22,0.95-0.45,1.51-0.72c0.29,0.92,0.58,1.84,0.86,2.76
		c0.47,1.51,0.89,3.03,1.42,4.52C105.44,100.18,105.1,99.94,106.53,100.59z M101.58,93.09c-0.08,0-0.16,0-0.24,0
		c-0.41,1.2-0.81,2.41-1.23,3.66c0.87,0,1.6,0,2.44,0C102.21,95.46,101.9,94.27,101.58,93.09z"/>
	<path class="st0" d="M114.19,98.22c-0.21,0.82-0.4,1.64-0.63,2.45c-0.02,0.08-0.29,0.13-0.45,0.13c-1.95,0.01-3.89,0.01-5.84,0
		c-0.13,0-0.25-0.08-0.37-0.12c0.02-0.09,0.03-0.18,0.04-0.18c0.89-0.1,0.97-0.67,0.95-1.43c-0.05-1.73,0.02-3.46-0.02-5.18
		c-0.02-0.76,0.41-1.77-1.02-1.94c0.05-0.05,0.11-0.11,0.16-0.16c1.24,0,2.48,0,3.83,0c-0.14,0.17-0.18,0.27-0.22,0.27
		c-0.97-0.06-1,0.56-0.99,1.28c0.02,2.09,0.03,4.19,0,6.28c-0.01,0.57,0.19,0.81,0.76,0.73c0.1-0.01,0.2-0.02,0.29,0
		c1.51,0.22,2.46-0.46,3.01-1.82c0.06-0.14,0.18-0.25,0.27-0.37C114.04,98.17,114.12,98.2,114.19,98.22z"/>
	<path class="st0" d="M5.34,117.25c0.39,1.72,2.17,2.49,3.66,1.57c0.36-0.22,0.71-0.74,0.72-1.13c0.01-0.34-0.39-0.81-0.74-1.03
		c-0.7-0.43-1.49-0.7-2.23-1.08c-0.81-0.41-1.37-1.02-1.26-2.02c0.1-0.9,0.69-1.61,1.78-1.74c0.91-0.11,1.89-0.04,2.78,0.18
		c0.86,0.21,1.31,0.95,1.36,1.96c-0.3,0.05-0.6,0.09-0.88,0.13c-0.5-1.42-1.78-2.03-3.16-1.44c-0.36,0.16-0.8,0.61-0.83,0.95
		c-0.03,0.35,0.31,0.87,0.64,1.08c0.69,0.44,1.48,0.72,2.23,1.06c0.83,0.38,1.45,0.93,1.4,1.93c-0.04,1.02-0.66,1.64-1.57,1.99
		c-1.16,0.46-2.34,0.4-3.49-0.05c-0.64-0.26-1.07-0.73-1.24-1.42C4.32,117.34,4.39,117.24,5.34,117.25z"/>
	<path class="st0" d="M96.16,115.43c-0.3,0.64-0.6,1.29-0.9,1.93c-0.28,0.59-0.62,1.17-0.83,1.78c-0.24,0.68-0.66,0.83-1.32,0.61
		c-0.03-0.12-0.09-0.25-0.1-0.39c-0.18-1.74-0.36-3.47-0.55-5.27c0.31,0,0.56,0,0.91,0c0.14,1.44,0.28,2.89,0.44,4.56
		c0.68-1.45,1.29-2.67,1.83-3.94c0.28-0.65,0.67-0.83,1.41-0.58c0.09,1.39,0.19,2.82,0.29,4.26c0.05,0.01,0.1,0.03,0.16,0.04
		c0.26-0.56,0.52-1.12,0.79-1.67c0.34-0.7,0.69-1.39,1.03-2.09c0.32-0.66,0.32-0.66,1.21-0.58c-0.4,0.8-0.77,1.57-1.16,2.33
		c-0.46,0.91-0.97,1.8-1.38,2.73c-0.28,0.63-0.65,0.84-1.38,0.59c-0.1-1.4-0.2-2.84-0.3-4.27
		C96.25,115.45,96.21,115.44,96.16,115.43z"/>
	<path class="st0" d="M9.37,100.52c-0.51,0.37-3.37,0.38-3.89,0c0.19-0.06,0.37-0.08,0.47-0.17c0.2-0.19,0.52-0.42,0.52-0.64
		c0.04-2.31,0.01-4.62,0.04-6.93c0.01-0.77-0.6-0.67-1.1-0.75c0.36-0.42,3.22-0.49,3.79-0.17C9.19,91.91,9.18,91.99,9.16,92
		c-0.79,0.09-0.88,0.6-0.87,1.28c0.04,1.92,0.01,3.84,0.02,5.77C8.31,100.19,8.32,100.19,9.37,100.52z"/>
	<path class="st0" d="M72.99,91.78c1.25,0,2.5,0,3.76,0c-0.01,0.1-0.01,0.18-0.02,0.18c-0.92,0.12-0.9,0.77-0.89,1.48
		c0.03,1.8,0,3.6,0.01,5.4c0,0.74-0.28,1.67,1.09,1.6c-0.51,0.45-3.38,0.47-3.91,0.06c0.22-0.07,0.43-0.07,0.55-0.18
		c0.18-0.15,0.43-0.36,0.43-0.55c0.04-2.34,0.01-4.67,0.05-7.01c0.01-0.81-0.68-0.57-1.07-0.79C72.99,91.92,72.99,91.85,72.99,91.78
		z"/>
	<path class="st0" d="M33.21,114.84c0.19-0.82,0.41-1.59,0.52-2.37c0.1-0.67,0.4-0.81,1.08-0.57c-0.28,1.32-0.57,2.64-0.85,3.96
		c-0.28,1.3-0.56,2.61-0.85,3.94c-0.28,0-0.52,0-0.81,0c0-0.2,0-0.4,0-0.68c-0.27,0.19-0.47,0.33-0.67,0.46
		c-1.18,0.79-2.55,0.33-3-1.01c-0.44-1.31,0.16-3.25,1.27-4.1C31.01,113.62,31.94,113.7,33.21,114.84z M32.89,116.14
		c-0.01-0.55-0.19-1.14-0.84-1.38c-0.67-0.25-1.31-0.09-1.77,0.49c-0.6,0.75-0.89,1.61-0.8,2.58c0.05,0.59,0.26,1.1,0.87,1.32
		c0.63,0.23,1.15-0.01,1.59-0.45C32.6,118.02,32.83,117.16,32.89,116.14z"/>
	<path class="st0" d="M89.36,119.77c0-0.2,0-0.39,0-0.64c-0.32,0.22-0.59,0.42-0.88,0.58c-1.09,0.6-2.45,0.08-2.75-1.11
		c-0.37-1.49-0.07-2.87,1.07-3.96c1.07-1.03,2.17-0.97,3.49,0.2c0.18-0.82,0.39-1.58,0.52-2.34c0.1-0.63,0.38-0.84,1.08-0.61
		c-0.24,1.15-0.47,2.3-0.72,3.45c-0.28,1.28-0.59,2.56-0.84,3.85C90.2,119.74,89.97,119.96,89.36,119.77z M89.93,116.17
		c0.04-0.56-0.14-1.17-0.88-1.44c-0.7-0.26-1.42,0.03-1.88,0.74c-0.49,0.75-0.74,1.58-0.61,2.49c0.08,0.57,0.32,1.13,0.91,1.17
		c0.47,0.04,1.07-0.12,1.44-0.41C89.66,118.15,89.91,117.26,89.93,116.17z"/>
	<path class="st0" d="M107.04,119.77c0.02-0.21,0.04-0.4,0.06-0.62c-0.11,0.04-0.19,0.04-0.24,0.08c-0.31,0.19-0.59,0.44-0.92,0.58
		c-1.04,0.44-2.26-0.14-2.52-1.27c-0.33-1.41-0.06-2.72,0.96-3.79c1.07-1.13,2.07-1.11,3.62,0.04c0.18-0.8,0.36-1.58,0.54-2.35
		c0.17-0.74,0.17-0.73,1.06-0.53c-0.39,1.8-0.78,3.6-1.18,5.39c-0.13,0.62-0.3,1.23-0.38,1.85
		C107.95,119.76,107.66,119.95,107.04,119.77z M104.05,117.33c0.06,0.03,0.13,0.07,0.19,0.1c-0.02,0.91,0.3,1.54,0.91,1.74
		c0.67,0.22,1.38-0.01,1.82-0.85c0.36-0.68,0.55-1.49,0.66-2.26c0.09-0.58-0.23-1.11-0.83-1.31c-0.59-0.2-1.23-0.16-1.59,0.38
		C104.75,115.81,104.43,116.59,104.05,117.33z"/>
	<path class="st0" d="M50.28,114.82c0.17-0.79,0.36-1.53,0.48-2.29c0.1-0.63,0.36-0.93,1.09-0.64c-0.16,0.78-0.32,1.58-0.49,2.37
		c-0.35,1.64-0.75,3.27-1.06,4.91c-0.11,0.57-0.32,0.77-0.93,0.6c-0.01-0.16-0.03-0.36-0.04-0.58c-0.09,0.02-0.16,0.02-0.21,0.05
		c-0.2,0.14-0.38,0.3-0.59,0.42c-1.12,0.67-2.54,0.13-2.84-1.13c-0.32-1.37-0.07-2.67,0.92-3.74
		C47.7,113.62,48.8,113.63,50.28,114.82z M49.95,116.02c0-0.43-0.19-1.02-0.84-1.26c-0.67-0.25-1.31-0.1-1.77,0.49
		c-0.64,0.82-1.02,1.75-0.74,2.78c0.12,0.43,0.51,0.98,0.88,1.08c0.42,0.11,1.07-0.1,1.43-0.39
		C49.68,118.12,49.91,117.2,49.95,116.02z"/>
	<path class="st0" d="M35.66,115.54c0.58-1.84,3.26-2.03,4.33-1.15c0.3,0.25,0.52,0.78,0.52,1.18c0,0.67-0.22,1.33-0.33,2.01
		c-0.12,0.71-0.21,1.43-0.32,2.21c-0.37,0.07-0.89,0.27-0.9-0.55c-0.64,0.25-1.2,0.57-1.79,0.69c-1.32,0.26-2.35-0.69-2.18-1.91
		c0.11-0.78,0.89-1.4,1.92-1.51c0.65-0.07,1.31-0.11,1.96-0.15c0.41-0.03,0.76-0.18,0.7-0.64c-0.04-0.32-0.2-0.72-0.44-0.88
		c-0.62-0.42-1.84-0.22-2.27,0.37C36.53,115.67,36.18,115.74,35.66,115.54z M39.24,116.91c-0.8,0.1-1.55,0.17-2.29,0.3
		c-0.75,0.14-1.13,0.66-1.01,1.26c0.11,0.53,0.69,0.86,1.39,0.78C38.45,119.12,39.15,118.28,39.24,116.91z"/>
	<path class="st0" d="M15.97,115.54c0.69-1.59,3.07-2.23,4.34-1.14c0.32,0.28,0.51,0.88,0.51,1.33c0,0.67-0.26,1.33-0.36,2
		c-0.11,0.66-0.17,1.34-0.26,2.03c-0.73,0.16-0.73,0.16-0.98-0.51c-0.55,0.23-1.09,0.52-1.66,0.66c-1.03,0.26-1.99-0.3-2.24-1.24
		c-0.23-0.87,0.29-1.7,1.32-2.03c0.25-0.08,0.52-0.12,0.78-0.15c0.6-0.06,1.22-0.05,1.81-0.17c0.26-0.06,0.62-0.37,0.64-0.59
		c0.02-0.29-0.17-0.72-0.41-0.89c-0.64-0.44-1.87-0.23-2.32,0.4C16.8,115.71,16.46,115.73,15.97,115.54z M19.54,116.92
		c-0.8,0.1-1.55,0.17-2.29,0.29c-0.7,0.12-1.1,0.62-1.02,1.2c0.08,0.56,0.6,0.91,1.32,0.86C18.69,119.19,19.47,118.3,19.54,116.92z"
		/>
	<path class="st0" d="M115.16,118.19c-0.62,0.55-1.08,1.1-1.66,1.44c-0.87,0.51-1.83,0.49-2.69-0.09c-0.87-0.59-1.05-1.48-0.93-2.45
		c0.24-2.04,1.66-3.34,3.48-3.18c1.67,0.15,2.2,1.51,2.01,2.89c-0.02,0.14-0.38,0.32-0.59,0.33c-1.12,0.03-2.24,0.04-3.36,0.02
		c-0.55-0.01-0.68,0.22-0.59,0.71c0.12,0.61,0.36,1.13,1.01,1.3c0.8,0.21,1.46-0.12,1.92-0.74
		C114.09,117.97,114.41,117.82,115.16,118.19z M111.09,116.47c0.91,0,1.76,0,2.61,0c0.83,0,1.04-0.32,0.65-1.06
		c-0.16-0.29-0.47-0.57-0.78-0.7C112.5,114.28,111.33,115.09,111.09,116.47z"/>
	<path class="st0" d="M78.09,116.41c-0.03,2.06-1.43,3.58-3.28,3.56c-1.51-0.02-2.51-1.09-2.41-2.59c0.12-1.92,1.27-3.28,2.93-3.47
		C76.99,113.72,78.12,114.75,78.09,116.41z M73.36,117.47c0.02,0.75,0.2,1.34,0.86,1.65c0.7,0.32,1.35,0.14,1.89-0.35
		c0.79-0.71,1.09-1.66,1.04-2.7c-0.03-0.61-0.3-1.12-0.93-1.37c-0.69-0.27-1.3-0.08-1.83,0.36
		C73.64,115.71,73.42,116.6,73.36,117.47z"/>
	<path class="st0" d="M26.55,119.79c-0.36,0-0.62,0-0.95,0c0.27-1.28,0.56-2.5,0.78-3.74c0.07-0.39,0.06-1.02-0.16-1.18
		c-0.31-0.21-0.89-0.18-1.3-0.07c-0.73,0.19-1.18,0.76-1.39,1.48c-0.27,0.93-0.52,1.87-0.69,2.83c-0.11,0.61-0.33,0.88-1.03,0.65
		c0.01-0.18,0.01-0.39,0.05-0.59c0.32-1.5,0.67-2.99,0.96-4.49c0.11-0.55,0.35-0.76,0.94-0.59c-0.02,0.24-0.04,0.49-0.07,0.88
		c0.3-0.22,0.49-0.43,0.72-0.52c0.53-0.21,1.07-0.5,1.62-0.52c0.96-0.04,1.56,0.68,1.39,1.62
		C27.18,116.96,26.85,118.35,26.55,119.79z"/>
	<path class="st0" d="M57.3,115.64c-0.31,0.03-0.54,0.06-0.76,0.09c-0.63-1.03-1.3-1.37-2.12-1.04c-0.25,0.1-0.57,0.38-0.6,0.61
		c-0.03,0.22,0.22,0.58,0.45,0.71c0.54,0.33,1.14,0.55,1.7,0.83c0.56,0.28,0.92,0.71,0.91,1.38c-0.02,0.69-0.39,1.14-0.98,1.42
		c-0.98,0.47-1.98,0.45-2.96-0.04c-0.64-0.33-0.96-0.86-0.9-1.62c0.5-0.16,0.84-0.25,1.03,0.43c0.27,0.94,2.05,1.19,2.65,0.41
		c0.35-0.46,0.22-0.89-0.25-1.18c-0.39-0.24-0.82-0.42-1.25-0.6c-1.1-0.48-1.48-0.99-1.32-1.82c0.15-0.78,0.89-1.29,1.95-1.33
		c1.24-0.05,2.09,0.41,2.38,1.28C57.28,115.29,57.27,115.42,57.3,115.64z"/>
	<path class="st0" d="M14.18,113.95c0.34,0.05,0.6,0.09,0.85,0.13c0.12,0.46-0.01,0.69-0.49,0.63c-0.48-0.06-0.62,0.19-0.69,0.62
		c-0.16,0.88-0.38,1.76-0.56,2.64c-0.22,1.08-0.22,1.08,0.81,1.27c0.1,0.6-0.29,0.7-0.73,0.71c-0.68,0.02-1.22-0.36-1.2-0.88
		c0.02-0.48,0.14-0.96,0.23-1.43c0.19-0.93,0.39-1.85,0.6-2.82c-0.26-0.05-0.48-0.1-0.87-0.18c0.19-0.24,0.34-0.57,0.47-0.56
		c0.6,0.03,0.69-0.36,0.73-0.78c0.06-0.72,0.52-1.03,1.22-1.25C14.42,112.7,14.3,113.31,14.18,113.95z"/>
	<path class="st0" d="M85.32,111.89c-0.58,2.64-1.15,5.27-1.72,7.9c-0.32,0-0.58,0-0.93,0c0.24-1.12,0.45-2.19,0.68-3.25
		c0.29-1.35,0.61-2.7,0.87-4.06C84.35,111.79,84.7,111.66,85.32,111.89z"/>
	<path class="st0" d="M41.43,119.75c0.38-1.76,0.77-3.47,1.11-5.18c0.11-0.53,0.36-0.63,0.84-0.47c0,0.28,0,0.56,0,0.89
		c0.38-0.32,0.69-0.69,1.08-0.87c0.37-0.17,0.83-0.14,1.33-0.2c-0.12,0.68-0.21,0.96-0.86,0.89c-0.86-0.08-1.39,0.58-1.65,1.31
		c-0.35,0.98-0.56,2.01-0.82,3.02C42.28,119.87,42.29,119.88,41.43,119.75z"/>
	<path class="st0" d="M80.81,114.1c-0.03,0.31-0.05,0.59-0.09,0.98c0.73-0.67,1.31-1.54,2.47-0.99c-0.1,0.26-0.18,0.48-0.26,0.69
		c-1.29-0.06-1.89,0.18-2.48,1.86c-0.29,0.82-0.42,1.69-0.62,2.54c-0.16,0.68-0.15,0.68-1.01,0.57c0.25-1.2,0.51-2.4,0.76-3.6
		c0.11-0.52,0.27-1.04,0.34-1.56C80,114.09,80.24,113.93,80.81,114.1z"/>
	<path class="st0" d="M100.42,119.73c0.39-1.78,0.76-3.58,1.2-5.36c0.05-0.2,0.5-0.3,0.76-0.45c0.06,0.06,0.12,0.12,0.17,0.18
		c-0.07,0.37-0.13,0.74-0.21,1.1c-0.28,1.3-0.59,2.6-0.83,3.91C101.4,119.76,101.12,120,100.42,119.73z"/>
	<path class="st0" d="M102.02,112.76c0.05-0.99,0.07-1.01,0.92-0.9C103.04,112.8,102.97,112.87,102.02,112.76z"/>
</g>
</svg>
