<?xml version="1.0" encoding="utf-8"?>
<!-- Generator: Adobe Illustrator 23.1.1, SVG Export Plug-In . SVG Version: 6.00 Build 0)  -->
<svg version="1.1" id="Layer_1" xmlns="http://www.w3.org/2000/svg" xmlns:xlink="http://www.w3.org/1999/xlink" x="0px" y="0px"
	 viewBox="0 0 120 90" style="enable-background:new 0 0 120 90;" xml:space="preserve">
<style type="text/css">
	.st0{fill:#FFFFFF;}
</style>
<g>
	<path class="st0" d="M1.6,28.66c0,8.98,7.56,11.55,13.55,11.55c6.85,0,11.98-3.28,11.98-11.98l0.14-20.68
		c0-1.14,0.57-1.85,1.28-2.28h-5.85c0.71,0.43,1.43,1.14,1.43,2.28v20.82c0,4.99-2.14,8.98-8.13,8.98c-6.56,0-7.84-4.99-7.84-8.56
		V7.56c0-1.14,0.86-1.85,1.57-2.28h-9.7C0.89,5.7,1.6,6.42,1.6,7.56V28.66z"/>
	<path class="st0" d="M40.25,37.65c-5.28,0-8.27-4.85-9.27-8.41l0.28,8.56c1.71,0.86,5.13,2.42,9.7,2.42
		c6.28,0,11.84-4.28,11.84-10.55c0-7.13-4.99-8.7-9.7-10.98c-4.71-2.14-6.85-3.28-6.85-6.42c0-2.14,1.43-4.85,5.28-4.85
		c4.85,0,7.7,3.99,8.41,6.7L49.8,6.7c-2.57-1.57-5.99-2-7.7-2c-4.56,0-10.98,2.85-10.98,9.7c0,3.85,2,6.56,6.7,9.13
		c4.56,2.42,8.98,3.14,8.98,7.99C46.81,33.94,45.24,37.65,40.25,37.65z"/>
	<path class="st0" d="M56.08,39.79h12.98c13.69,0,20.39-8.98,20.39-17.83c0-4.85-3.28-16.69-19.97-16.69H56.08
		c0.71,0.43,1.28,1.14,1.28,2.28v29.95C57.36,38.5,56.79,39.22,56.08,39.79z M63.78,7.99c0.86-0.14,3.42-0.14,4.71-0.14
		c10.41,0,13.98,8.13,13.98,14.12c0,7.42-3.14,15.12-14.55,15.12c-1,0-2.85,0-4.14,0V7.99z"/>
	<path class="st0" d="M86.45,39.79h6.99c-1.43-0.71-1.57-1.43-1.14-2.57c0-0.57,1.28-3.56,2.85-6.99h12.26
		c1.43,3.42,2.85,6.56,3,6.99c0.29,1.14,0,1.85-1.28,2.57h10.84c-1.71-1-2-1.43-2.57-2.57c-0.86-1.85-14.26-32.94-14.26-32.94
		s-13.4,31.09-14.26,32.94C88.31,38.22,87.88,38.79,86.45,39.79z M101.14,15.26c0,0,2.85,6.7,5.13,12.26H96.15
		C97.72,23.82,101.14,15.26,101.14,15.26z"/>
	<path class="st0" d="M118.4,49.49v-4.85c0,0-73.59-1.85-117.08,21.39C1.32,66.03,47.52,47.77,118.4,49.49z"/>
	<path class="st0" d="M1.32,44.64v4.71c8.56-1.43,40.22,1.28,40.22,1.28C26.13,44.78,1.32,44.64,1.32,44.64z"/>
	<path class="st0" d="M1.32,57.33c2.57-1.28,28.38-4.42,28.38-4.42c-10.7-1-28.38-0.29-28.38-0.29V57.33z"/>
	<path class="st0" d="M106.28,53.48h-0.43c-21.39,0.43-66.17,3-104.53,16.54v16.26h117.22v-32.8
		C118.54,53.48,113.98,53.34,106.28,53.48z"/>
</g>
</svg>
