<?xml version="1.0" encoding="utf-8"?>
<!-- Generator: Adobe Illustrator 23.1.1, SVG Export Plug-In . SVG Version: 6.00 Build 0)  -->
<svg version="1.1" id="Layer_1" xmlns="http://www.w3.org/2000/svg" xmlns:xlink="http://www.w3.org/1999/xlink" x="0px" y="0px"
	 viewBox="0 0 27 27" style="enable-background:new 0 0 27 27;" xml:space="preserve">
<style type="text/css">
	.st0{fill:url(#SVGID_1_);}
</style>
<linearGradient id="SVGID_1_" gradientUnits="userSpaceOnUse" x1="5.8928" y1="13.5" x2="21.1072" y2="13.5">
	<stop  offset="0" style="stop-color:#ED7F22"/>
	<stop  offset="1" style="stop-color:#F19549"/>
</linearGradient>
<path class="st0" d="M12.32,4.73l0.52,2.32c0.1,0.46-0.17,0.92-0.62,1.06l-1.97,0.6C9.83,8.84,9.56,9.26,9.62,9.7
	c0.14,0.97,0.2,2.08,1.48,4.97s2.07,3.67,2.7,4.42c0.29,0.34,0.78,0.42,1.16,0.19l1.76-1.06c0.41-0.24,0.93-0.14,1.2,0.25l1.42,2
	l1.6,2.25c0.28,0.39,0.2,0.94-0.18,1.23l-1.66,1.3c-0.45,0.35-1.01,0.52-1.58,0.47c-1.87-0.18-5.62-1.52-9.3-9.77
	S6.06,4.01,7.17,2.5c0.34-0.45,0.84-0.76,1.41-0.86l2.08-0.37c0.48-0.08,0.93,0.22,1.04,0.69L12.32,4.73z"/>
</svg>
