<?xml version="1.0" encoding="utf-8"?>
<!-- Generator: Adobe Illustrator 23.1.1, SVG Export Plug-In . SVG Version: 6.00 Build 0)  -->
<svg version="1.1" xmlns="http://www.w3.org/2000/svg" xmlns:xlink="http://www.w3.org/1999/xlink" x="0px" y="0px"
	 viewBox="0 0 380 80" style="enable-background:new 0 0 380 80;" xml:space="preserve">
<style type="text/css">
	.st0{fill:#696F75;}
	.st1{fill-rule:evenodd;clip-rule:evenodd;fill:#696F75;}
	.st2{fill-rule:evenodd;clip-rule:evenodd;fill:#2A66B1;}
	.st3{fill:#ED7F22;}
	.st4{fill:#2A66B1;}
	.st5{fill:url(#SVGID_1_);enable-background:new    ;}
</style>
<g id="Layer_1">
	<g>
		<path class="st0" d="M374.5,71.9c0.4,0,0.8,0.2,1.1,0.5c0.3,0.3,0.5,0.7,0.5,1.1c0,0.4-0.1,0.8-0.4,1.1c-0.3,0.3-0.7,0.4-1.1,0.4
			c-0.5,0-0.8-0.2-1.1-0.4c-0.3-0.3-0.4-0.7-0.4-1.2c0-0.4,0.1-0.8,0.5-1.1C373.7,72.1,374,71.9,374.5,71.9z M369.7,72.5l0,0.2
			c0,0.1,0,0.1,0,0.1c0,0.2,0,0.3,0.1,0.4c0.1,0.1,0.1,0.2,0.3,0.2c0.2,0,0.4-0.1,0.6-0.3s0.5-0.6,0.8-1.1l0.5,0.3
			c-0.5,0.9-1,1.6-1.6,2.1c-0.6,0.5-1.1,0.7-1.6,0.7c-0.4,0-0.7-0.1-0.9-0.4c-0.2-0.3-0.3-0.6-0.3-1.1c0-0.1,0-0.3,0-0.4
			c0-0.2,0-0.3,0.1-0.6c-0.5,0.8-1,1.4-1.7,1.9s-1.3,0.7-2,0.7c-0.8,0-1.5-0.3-2-0.9s-0.8-1.4-0.8-2.4c0-0.9,0.2-1.8,0.5-2.8
			c0.4-0.9,0.9-1.8,1.5-2.7c0.7-0.8,1.3-1.5,2-1.9c0.7-0.4,1.3-0.6,2-0.6c0.4,0,0.8,0.1,1.1,0.3c0.3,0.2,0.6,0.5,0.9,0.8l0.3-1.1
			h2.3L369.7,72.5z M363.8,71.9c0,0.6,0.1,1,0.4,1.3c0.2,0.3,0.6,0.4,1,0.4c0.4,0,0.7-0.2,1.1-0.5c0.4-0.3,0.7-0.7,1-1.3
			c0.5-0.9,0.8-1.8,1.1-2.9s0.4-2,0.4-2.8c0-0.5-0.1-0.9-0.3-1.1s-0.5-0.4-0.8-0.4c-0.3,0-0.7,0.2-1.1,0.4c-0.4,0.3-0.7,0.7-1,1.3
			c-0.5,0.8-0.9,1.8-1.2,2.8C363.9,70.2,363.8,71.1,363.8,71.9z M357.1,66.6c0.5-0.9,1.1-1.6,1.6-2.1c0.5-0.5,1-0.7,1.5-0.7
			c0.4,0,0.8,0.1,1,0.4c0.2,0.2,0.4,0.6,0.4,1c0,0.5-0.1,0.8-0.4,1.1c-0.2,0.3-0.5,0.4-0.9,0.4c-0.2,0-0.5-0.1-0.8-0.4
			c-0.3-0.3-0.5-0.4-0.6-0.4c-0.4,0-0.9,0.4-1.4,1.3c-0.5,0.8-0.9,1.9-1.2,3.2l-1,4.3h-2.5l2-8.5c0-0.1,0-0.2,0-0.3
			c0-0.1,0-0.2,0-0.2c0-0.3-0.1-0.5-0.3-0.6s-0.5-0.2-1-0.2h-0.2l0.1-0.5c0.7-0.1,1.4-0.2,2.1-0.3c0.7-0.1,1.4-0.2,2.1-0.3
			L357.1,66.6z M348.6,66.6c0.5-0.9,1.1-1.6,1.6-2.1c0.5-0.5,1-0.7,1.5-0.7c0.4,0,0.8,0.1,1,0.4c0.2,0.2,0.4,0.6,0.4,1
			c0,0.5-0.1,0.8-0.4,1.1c-0.2,0.3-0.5,0.4-0.9,0.4c-0.2,0-0.5-0.1-0.8-0.4c-0.3-0.3-0.5-0.4-0.6-0.4c-0.4,0-0.9,0.4-1.4,1.3
			c-0.5,0.8-0.9,1.9-1.2,3.2l-1,4.3h-2.5l2-8.5c0-0.1,0-0.2,0-0.3c0-0.1,0-0.2,0-0.2c0-0.3-0.1-0.5-0.3-0.6c-0.2-0.1-0.5-0.2-1-0.2
			h-0.2l0.1-0.5c0.7-0.1,1.4-0.2,2.1-0.3c0.7-0.1,1.4-0.2,2.1-0.3L348.6,66.6z M337.1,75.1c-1.2,0-2.1-0.4-2.9-1.2
			c-0.8-0.8-1.1-1.8-1.1-3c0-0.9,0.2-1.8,0.5-2.6c0.4-0.9,0.9-1.7,1.6-2.4c0.6-0.7,1.3-1.2,2-1.5c0.7-0.3,1.4-0.5,2.2-0.5
			c1.2,0,2.2,0.4,2.9,1.2c0.7,0.8,1.1,1.8,1.1,3.1c0,0.9-0.2,1.8-0.6,2.7c-0.4,0.9-1,1.7-1.6,2.4c-0.6,0.6-1.3,1.1-2,1.4
			C338.4,74.9,337.8,75.1,337.1,75.1z M337.1,74.3c0.5,0,0.9-0.2,1.2-0.4c0.4-0.3,0.7-0.7,1-1.3c0.5-0.9,0.8-1.9,1.1-2.9
			s0.4-2,0.4-2.8c0-0.7-0.1-1.2-0.4-1.6c-0.3-0.4-0.7-0.5-1.2-0.5c-0.4,0-0.8,0.1-1.1,0.4s-0.7,0.7-1,1.2c-0.5,0.9-0.9,1.9-1.2,3
			c-0.3,1.1-0.5,2-0.5,2.8c0,0.7,0.1,1.3,0.4,1.7C336.1,74.1,336.6,74.3,337.1,74.3z M320.6,74.8l3.1-13.5c0-0.1,0-0.2,0-0.3
			c0-0.1,0-0.2,0-0.2c0-0.3-0.1-0.5-0.3-0.6s-0.5-0.2-1-0.2h-0.2l0.1-0.5c0.8-0.1,1.5-0.2,2.3-0.3s1.4-0.2,2.1-0.3l-1.8,7.7
			c0.6-0.9,1.3-1.6,2-2c0.7-0.4,1.5-0.7,2.2-0.7c0.7,0,1.2,0.2,1.5,0.5c0.4,0.3,0.5,0.8,0.5,1.4c0,0.1,0,0.3,0,0.5s-0.1,0.4-0.1,0.7
			l-1.3,4.9l-0.1,0.3c-0.1,0.4-0.2,0.7-0.2,0.8c0,0.2,0,0.3,0.1,0.4c0.1,0.1,0.1,0.1,0.3,0.1c0.2,0,0.4-0.1,0.6-0.3
			c0.2-0.2,0.5-0.6,0.9-1.1l0.5,0.3c-0.5,0.9-1.1,1.6-1.6,2.1c-0.6,0.5-1.1,0.7-1.8,0.7c-0.5,0-0.9-0.1-1.1-0.4S327,74,327,73.5
			c0-0.2,0-0.3,0-0.5c0-0.2,0.1-0.5,0.2-0.9l1.4-5.2l0-0.2c0.1-0.3,0.1-0.4,0.1-0.6c0-0.3-0.1-0.5-0.2-0.6c-0.1-0.1-0.4-0.2-0.7-0.2
			c-0.7,0-1.5,0.5-2.2,1.4c-0.8,0.9-1.3,2.1-1.6,3.5l-1.1,4.6L320.6,74.8L320.6,74.8z M314.4,59h0.9l2.9,13.8
			c0.1,0.3,0.1,0.5,0.2,0.7c0.1,0.2,0.2,0.3,0.4,0.4c0.1,0.1,0.2,0.1,0.4,0.2c0.2,0.1,0.4,0.1,0.6,0.1l-0.1,0.6h-6.3l0.1-0.6h0.2
			c0.5,0,1-0.1,1.2-0.3c0.3-0.2,0.4-0.6,0.4-1c0,0,0-0.1,0-0.2l0-0.2l-0.5-2.5H309l-1.3,2.3c-0.1,0.1-0.1,0.2-0.1,0.3
			c0,0.1,0,0.2,0,0.4c0,0.4,0.1,0.7,0.4,0.9s0.6,0.3,1.1,0.3h0.2l-0.1,0.6h-5.4l0.1-0.6c0.5,0,0.9-0.1,1.3-0.4
			c0.4-0.3,0.8-0.7,1.1-1.2L314.4,59z M313.3,62.7l-3.7,6.2h4.9L313.3,62.7z M295.6,71.9c0.4,0,0.8,0.2,1.1,0.5
			c0.3,0.3,0.5,0.7,0.5,1.1c0,0.4-0.1,0.8-0.4,1.1c-0.3,0.3-0.7,0.4-1.1,0.4c-0.5,0-0.8-0.2-1.1-0.4c-0.3-0.3-0.4-0.7-0.4-1.2
			c0-0.4,0.1-0.8,0.5-1.1C294.8,72.1,295.2,71.9,295.6,71.9z M292.3,72.6c-0.7,0.8-1.4,1.4-2.2,1.9c-0.8,0.4-1.6,0.6-2.4,0.6
			c-1.1,0-1.9-0.3-2.5-1c-0.6-0.6-0.9-1.5-0.9-2.7c0-0.9,0.2-1.7,0.5-2.6c0.4-0.9,0.9-1.7,1.5-2.5c0.7-0.8,1.5-1.4,2.3-1.8
			c0.8-0.4,1.6-0.6,2.5-0.6c0.8,0,1.4,0.2,1.8,0.6c0.5,0.4,0.7,0.8,0.7,1.4c0,1-0.5,1.9-1.5,2.6s-2.8,1.4-5.3,2.1v0.1
			c0,0.3,0,0.6,0,0.7c0,0.8,0.2,1.4,0.5,1.8c0.3,0.4,0.8,0.6,1.4,0.6c0.5,0,0.9-0.1,1.4-0.4c0.5-0.3,1-0.7,1.7-1.2L292.3,72.6z
			 M287.1,69.6c1.3-0.4,2.4-0.9,3.2-1.7c0.8-0.7,1.2-1.5,1.2-2.2c0-0.3-0.1-0.6-0.3-0.7c-0.2-0.2-0.4-0.3-0.7-0.3
			c-0.7,0-1.3,0.4-1.9,1.3C288,66.9,287.5,68.1,287.1,69.6z M278,71c-0.2,0.2-0.4,0.3-0.5,0.5c-0.1,0.2-0.2,0.3-0.2,0.5
			c0,0.4,0.5,0.7,1.6,0.8c0.2,0,0.3,0.1,0.4,0.1c1.3,0.3,2.1,0.6,2.6,1c0.4,0.4,0.6,0.9,0.6,1.7c0,1.1-0.5,2.1-1.5,2.8
			c-1,0.7-2.2,1.1-3.8,1.1c-1.3,0-2.3-0.2-3-0.7s-1.1-1.1-1.1-1.8c0-0.6,0.2-1.1,0.6-1.6c0.4-0.4,1.1-0.8,2-1.1
			c-0.2-0.2-0.3-0.3-0.4-0.5c-0.1-0.2-0.1-0.4-0.1-0.6c0-0.4,0.2-0.8,0.5-1.2c0.4-0.4,0.9-0.7,1.5-1c-0.6-0.3-1.1-0.7-1.5-1.2
			s-0.5-1.1-0.5-1.8c0-1.1,0.4-2.1,1.3-2.8c0.9-0.8,1.9-1.2,3.1-1.2c0.4,0,0.7,0,1.1,0.1c0.4,0.1,0.8,0.2,1.3,0.3l2.5-0.1l-0.3,1.5
			h-1c0,0.2,0.1,0.4,0.1,0.6c0,0.2,0,0.4,0,0.5c0,1.2-0.5,2.3-1.3,3.1s-2,1.2-3.5,1.2l-0.2,0L278,71z M279.6,64.6
			c-0.6,0-1.1,0.4-1.5,1.2c-0.4,0.8-0.6,1.8-0.6,2.9c0,0.6,0.1,1,0.3,1.2c0.2,0.3,0.5,0.4,0.9,0.4c0.3,0,0.6-0.1,0.9-0.3
			c0.2-0.2,0.5-0.5,0.7-1c0.2-0.4,0.3-0.9,0.5-1.5c0.1-0.5,0.2-1,0.2-1.5c0-0.5-0.1-0.8-0.3-1.1C280.3,64.7,280,64.6,279.6,64.6z
			 M276.7,74.8c-0.6,0.1-1.1,0.4-1.4,0.7c-0.3,0.3-0.5,0.8-0.5,1.2c0,0.6,0.2,1.1,0.8,1.4s1.2,0.5,2.1,0.5c1,0,1.7-0.2,2.3-0.6
			c0.6-0.4,0.9-0.9,0.9-1.5c0-0.7-1.2-1.2-3.6-1.6L276.7,74.8z M272.7,72.6c-0.7,0.8-1.4,1.4-2.2,1.9c-0.8,0.4-1.6,0.6-2.4,0.6
			c-1.1,0-1.9-0.3-2.5-1c-0.6-0.6-0.9-1.5-0.9-2.7c0-0.9,0.2-1.7,0.6-2.6s0.9-1.7,1.5-2.5c0.7-0.8,1.5-1.4,2.3-1.8
			c0.8-0.4,1.6-0.6,2.5-0.6c0.7,0,1.4,0.2,1.8,0.6c0.5,0.4,0.7,0.8,0.7,1.4c0,1-0.5,1.9-1.5,2.6c-1,0.7-2.8,1.4-5.2,2.1v0.1
			c0,0.3,0,0.6,0,0.7c0,0.8,0.2,1.4,0.5,1.8c0.3,0.4,0.8,0.6,1.4,0.6c0.5,0,0.9-0.1,1.4-0.4s1-0.7,1.7-1.2L272.7,72.6z M267.5,69.6
			c1.3-0.4,2.4-0.9,3.2-1.7c0.8-0.7,1.2-1.5,1.2-2.2c0-0.3-0.1-0.6-0.2-0.7c-0.2-0.2-0.4-0.3-0.7-0.3c-0.6,0-1.3,0.4-1.9,1.3
			C268.4,66.9,267.9,68.1,267.5,69.6z M259.8,65.1h-1.7l0.1-0.7c1.1-0.2,2-0.6,2.7-1.2c0.7-0.6,1.2-1.4,1.6-2.5h0.8l-0.9,3.4h2.3
			l-0.2,1h-2.3l-1.8,7.4l0,0.2l0,0.1c0,0.2,0,0.3,0.1,0.4c0.1,0.1,0.2,0.1,0.3,0.1c0.2,0,0.5-0.1,0.8-0.4c0.3-0.3,0.6-0.7,1-1.2
			l0.5,0.2c-0.6,1-1.2,1.8-1.8,2.3c-0.6,0.5-1.2,0.7-1.9,0.7c-0.5,0-0.9-0.1-1.1-0.4c-0.2-0.3-0.4-0.7-0.4-1.2c0-0.1,0-0.2,0-0.4
			c0-0.1,0-0.3,0.1-0.5L259.8,65.1z M250.3,75.1c-1.2,0-2.1-0.4-2.9-1.2c-0.8-0.8-1.1-1.8-1.1-3c0-0.9,0.2-1.8,0.6-2.6
			c0.4-0.9,0.9-1.7,1.6-2.4c0.6-0.7,1.3-1.2,2-1.5c0.7-0.3,1.4-0.5,2.2-0.5c1.2,0,2.2,0.4,2.9,1.2c0.7,0.8,1.1,1.8,1.1,3.1
			c0,0.9-0.2,1.8-0.6,2.7c-0.4,0.9-0.9,1.7-1.6,2.4c-0.6,0.6-1.3,1.1-1.9,1.4C251.6,74.9,251,75.1,250.3,75.1z M250.3,74.3
			c0.4,0,0.9-0.2,1.2-0.4s0.7-0.7,1-1.3c0.4-0.9,0.8-1.9,1.1-2.9c0.3-1,0.4-2,0.4-2.8c0-0.7-0.1-1.2-0.4-1.6s-0.7-0.5-1.2-0.5
			c-0.4,0-0.8,0.1-1.1,0.4c-0.3,0.3-0.7,0.7-1,1.2c-0.5,0.9-0.9,1.9-1.2,3c-0.3,1.1-0.5,2-0.5,2.8c0,0.7,0.1,1.3,0.4,1.7
			C249.4,74.1,249.8,74.3,250.3,74.3z M241.8,66.6c0.5-0.9,1.1-1.6,1.6-2.1c0.5-0.5,1-0.7,1.5-0.7c0.4,0,0.8,0.1,1,0.4
			c0.2,0.2,0.4,0.6,0.4,1c0,0.5-0.1,0.8-0.4,1.1c-0.2,0.3-0.5,0.4-0.9,0.4c-0.2,0-0.5-0.1-0.8-0.4c-0.3-0.3-0.5-0.4-0.6-0.4
			c-0.4,0-0.9,0.4-1.4,1.3c-0.5,0.8-0.9,1.9-1.2,3.2l-1,4.3h-2.5l2-8.5c0-0.1,0-0.2,0.1-0.3c0-0.1,0-0.2,0-0.2
			c0-0.3-0.1-0.5-0.3-0.6c-0.2-0.1-0.5-0.2-1-0.2h-0.2l0.1-0.5c0.7-0.1,1.4-0.2,2.1-0.3c0.7-0.1,1.4-0.2,2.1-0.3L241.8,66.6z
			 M231.7,59.2c2.1,0,3.6,0.3,4.6,0.9c1,0.6,1.4,1.6,1.4,3c0,1.5-0.6,2.7-1.8,3.6s-2.8,1.3-5,1.3c-0.3,0-0.6,0-0.9,0
			s-0.7-0.1-1.1-0.1l-0.9,4.2l0,0.1c-0.1,0.4-0.1,0.7-0.1,0.8c0,0.5,0.1,0.9,0.4,1.1s0.7,0.3,1.4,0.3h0.1l-0.1,0.5H223l0.1-0.5
			c0.6-0.1,1.1-0.3,1.4-0.6c0.3-0.3,0.6-1.1,0.9-2.3l2.2-9.3c0.1-0.2,0.1-0.4,0.1-0.5s0-0.3,0-0.4c0-0.4-0.2-0.7-0.5-0.9
			c-0.3-0.2-0.8-0.3-1.5-0.4l0.2-0.5L231.7,59.2L231.7,59.2z M229.2,66.8c0.2,0,0.4,0,0.6,0.1s0.4,0,0.5,0c1.4,0,2.6-0.4,3.4-1.1
			c0.8-0.7,1.2-1.7,1.2-3c0-0.8-0.3-1.5-0.8-2S232.9,60,232,60c-0.5,0-0.9,0.1-1.1,0.3c-0.2,0.2-0.4,0.6-0.5,1.2L229.2,66.8z
			 M213.8,71.9c0.4,0,0.8,0.2,1.1,0.5c0.3,0.3,0.4,0.7,0.4,1.1c0,0.4-0.1,0.8-0.4,1.1c-0.3,0.3-0.7,0.4-1.1,0.4
			c-0.4,0-0.8-0.2-1.1-0.4c-0.3-0.3-0.4-0.7-0.4-1.2c0-0.4,0.1-0.8,0.4-1.1C213,72.1,213.4,71.9,213.8,71.9z M209.1,72.5l0,0.2
			c0,0.1,0,0.1,0,0.1c0,0.2,0,0.3,0.1,0.4c0.1,0.1,0.2,0.2,0.3,0.2c0.2,0,0.4-0.1,0.6-0.3c0.2-0.2,0.5-0.6,0.8-1.1l0.5,0.3
			c-0.5,0.9-1,1.6-1.6,2.1c-0.6,0.5-1.1,0.7-1.6,0.7c-0.4,0-0.7-0.1-0.9-0.4s-0.3-0.6-0.3-1.1c0-0.1,0-0.3,0-0.4
			c0-0.2,0-0.3,0.1-0.6c-0.5,0.8-1.1,1.4-1.7,1.9c-0.6,0.4-1.3,0.7-1.9,0.7c-0.8,0-1.5-0.3-2-0.9c-0.5-0.6-0.8-1.4-0.8-2.4
			c0-0.9,0.2-1.8,0.5-2.8c0.4-0.9,0.9-1.8,1.5-2.7c0.7-0.8,1.3-1.5,2-1.9c0.7-0.4,1.3-0.6,2-0.6c0.4,0,0.8,0.1,1.1,0.3
			c0.3,0.2,0.6,0.5,0.9,0.8l0.3-1.1h2.3L209.1,72.5z M203.2,71.9c0,0.6,0.1,1,0.4,1.3c0.2,0.3,0.6,0.4,1,0.4c0.4,0,0.7-0.2,1.1-0.5
			s0.7-0.7,1-1.3c0.4-0.9,0.8-1.8,1.1-2.9c0.3-1.1,0.4-2,0.4-2.8c0-0.5-0.1-0.9-0.3-1.1c-0.2-0.2-0.5-0.4-0.8-0.4
			c-0.3,0-0.7,0.2-1.1,0.4c-0.4,0.3-0.7,0.7-1.1,1.3c-0.5,0.8-0.9,1.8-1.2,2.8C203.3,70.2,203.2,71.1,203.2,71.9z M194.8,72.7
			l2.7-11.4c0,0,0-0.1,0-0.1c0-0.2,0.1-0.3,0.1-0.4c0-0.3-0.1-0.5-0.3-0.6c-0.2-0.1-0.5-0.2-1-0.2h-0.2l0.1-0.5
			c0.6-0.1,1.3-0.1,2-0.2c0.7-0.1,1.5-0.2,2.3-0.4l-3.2,13.6c0,0.1,0,0.2-0.1,0.3c0,0.1,0,0.2,0,0.2c0,0.2,0,0.3,0.1,0.4
			s0.2,0.1,0.3,0.1c0.2,0,0.4-0.1,0.6-0.3c0.2-0.2,0.5-0.6,0.8-1.2l0.5,0.2c-0.5,0.9-1,1.6-1.6,2.1c-0.6,0.5-1.2,0.8-1.8,0.8
			c-0.5,0-0.8-0.1-1.1-0.4c-0.2-0.2-0.4-0.6-0.4-1.1c0-0.2,0-0.3,0-0.4C194.7,73,194.8,72.8,194.8,72.7z M185.2,75.1l0.6-3.6h0.6
			c0.2,0.9,0.5,1.6,1,2.1c0.4,0.5,1,0.7,1.7,0.7c0.5,0,0.8-0.1,1.1-0.4c0.3-0.3,0.4-0.6,0.4-1c0-0.6-0.5-1.3-1.4-2.3l-0.4-0.4
			c-0.8-0.8-1.3-1.5-1.5-2s-0.4-1-0.4-1.5c0-0.8,0.3-1.5,0.9-2c0.6-0.5,1.3-0.8,2.2-0.8c0.6,0,1.2,0.1,1.8,0.3
			c0.6,0.2,0.9,0.3,0.9,0.3c0.1,0,0.2-0.1,0.3-0.2c0.1-0.1,0.2-0.2,0.2-0.4h0.5l-0.5,3.4h-0.6c-0.1-0.8-0.4-1.5-0.8-1.9
			s-0.9-0.7-1.5-0.7c-0.4,0-0.7,0.1-1,0.3c-0.3,0.2-0.4,0.5-0.4,0.8c0,0.2,0.1,0.4,0.2,0.7c0.1,0.2,0.3,0.5,0.5,0.7
			c0.1,0.1,0.3,0.3,0.4,0.5c1.7,1.8,2.6,3.2,2.6,4.3c0,0.9-0.3,1.7-1,2.3c-0.7,0.6-1.5,0.9-2.6,0.9c-0.5,0-1.1-0.1-1.7-0.3
			c-0.6-0.2-0.9-0.3-1-0.3c-0.1,0-0.2,0.1-0.4,0.2c-0.1,0.1-0.2,0.3-0.3,0.5L185.2,75.1L185.2,75.1z M184.5,72.2
			c-0.5,0.9-1,1.7-1.6,2.2c-0.6,0.5-1.2,0.7-1.9,0.7c-0.5,0-0.9-0.1-1.1-0.4s-0.4-0.6-0.4-1.1c0-0.1,0-0.2,0-0.4
			c0-0.1,0.1-0.3,0.1-0.4l1.8-6.4c0-0.1,0.1-0.2,0.1-0.3c0-0.1,0-0.2,0-0.3c0-0.3-0.1-0.5-0.3-0.6c-0.2-0.1-0.5-0.2-1-0.2h-0.2
			l0.1-0.5c0.8-0.1,1.6-0.2,2.3-0.3c0.7-0.1,1.4-0.2,2.1-0.3l-2.3,8.6c0,0.2-0.1,0.3-0.1,0.3c0,0.1,0,0.1,0,0.2c0,0.2,0,0.3,0.1,0.4
			c0.1,0.1,0.2,0.1,0.3,0.1c0.2,0,0.4-0.1,0.6-0.3c0.2-0.2,0.5-0.6,0.8-1.2L184.5,72.2z M182.5,60.4c0-0.4,0.1-0.8,0.4-1
			c0.3-0.3,0.6-0.5,1.1-0.5c0.4,0,0.8,0.2,1.1,0.4c0.3,0.3,0.4,0.6,0.4,1c0,0.4-0.1,0.8-0.4,1s-0.6,0.4-1,0.4
			c-0.4,0-0.8-0.2-1.1-0.4S182.5,60.8,182.5,60.4z M172.1,62.7l-3.7,6.2h4.9L172.1,62.7z M173.1,59h0.9l2.8,13.8
			c0.1,0.3,0.1,0.5,0.2,0.7c0.1,0.2,0.2,0.3,0.4,0.4c0.1,0.1,0.2,0.1,0.4,0.2c0.2,0.1,0.4,0.1,0.6,0.1l-0.1,0.6h-6.3l0.1-0.6h0.2
			c0.5,0,0.9-0.1,1.2-0.3c0.3-0.2,0.4-0.6,0.4-1c0,0,0-0.1,0-0.2l0-0.2l-0.5-2.5h-5.7l-1.3,2.3c-0.1,0.1-0.1,0.2-0.1,0.3
			c0,0.1-0.1,0.2-0.1,0.4c0,0.4,0.1,0.7,0.4,0.9c0.2,0.2,0.6,0.3,1.1,0.3h0.2l-0.1,0.6h-5.4l0.1-0.6c0.5,0,0.9-0.1,1.3-0.4
			c0.4-0.3,0.8-0.7,1.1-1.2L173.1,59z"/>
		<path class="st1" d="M173.1,59h0.9l2.8,13.8c0.1,0.3,0.1,0.5,0.2,0.7c0.1,0.2,0.2,0.3,0.4,0.4c0.1,0.1,0.2,0.1,0.4,0.2
			c0.2,0.1,0.4,0.1,0.6,0.1l-0.1,0.6h-6.3l0.1-0.6h0.2c0.5,0,0.9-0.1,1.2-0.3c0.3-0.2,0.4-0.6,0.4-1c0,0,0-0.1,0-0.2
			c0-0.1,0-0.2,0-0.2l-0.5-2.5h-5.7l-1.3,2.3c-0.1,0.1-0.1,0.2-0.1,0.3c0,0.1-0.1,0.2-0.1,0.4c0,0.4,0.1,0.7,0.4,0.9
			c0.2,0.2,0.6,0.3,1.1,0.3h0.2l-0.1,0.6h-5.4l0.1-0.6c0.5,0,0.9-0.1,1.3-0.4c0.4-0.3,0.8-0.7,1.1-1.2L173.1,59z M172.1,62.7
			l-3.7,6.2h4.9L172.1,62.7z"/>
		<path class="st1" d="M184.5,72.2c-0.5,0.9-1,1.7-1.6,2.2c-0.6,0.5-1.2,0.7-1.9,0.7c-0.5,0-0.9-0.1-1.1-0.4s-0.4-0.6-0.4-1.1
			c0-0.1,0-0.2,0-0.4c0-0.1,0.1-0.3,0.1-0.4l1.8-6.4c0-0.1,0.1-0.2,0.1-0.3c0-0.1,0-0.2,0-0.3c0-0.3-0.1-0.5-0.3-0.6s-0.5-0.2-1-0.2
			h-0.2l0.1-0.5c0.8-0.1,1.6-0.2,2.3-0.3c0.7-0.1,1.4-0.2,2.1-0.3l-2.3,8.6c0,0.2-0.1,0.3-0.1,0.3c0,0.1,0,0.1,0,0.2
			c0,0.2,0,0.3,0.1,0.4c0.1,0.1,0.2,0.1,0.3,0.1c0.2,0,0.4-0.1,0.6-0.3c0.2-0.2,0.5-0.6,0.8-1.2L184.5,72.2z M182.5,60.4
			c0-0.4,0.1-0.8,0.4-1c0.3-0.3,0.6-0.5,1.1-0.5c0.4,0,0.8,0.2,1.1,0.4c0.3,0.3,0.4,0.6,0.4,1c0,0.4-0.1,0.8-0.4,1s-0.6,0.4-1,0.4
			c-0.4,0-0.8-0.2-1.1-0.4S182.5,60.8,182.5,60.4z"/>
		<path class="st1" d="M185.2,75.1l0.6-3.6h0.6c0.2,0.9,0.5,1.6,1,2.1c0.4,0.5,1,0.7,1.7,0.7c0.5,0,0.8-0.1,1.1-0.4
			c0.3-0.3,0.4-0.6,0.4-1c0-0.6-0.5-1.3-1.4-2.3c-0.2-0.2-0.3-0.3-0.4-0.4c-0.8-0.8-1.3-1.5-1.5-2s-0.4-1-0.4-1.5
			c0-0.8,0.3-1.5,0.9-2c0.6-0.5,1.3-0.8,2.2-0.8c0.6,0,1.2,0.1,1.8,0.3c0.6,0.2,0.9,0.3,0.9,0.3c0.1,0,0.2-0.1,0.3-0.2
			c0.1-0.1,0.2-0.2,0.2-0.4h0.5l-0.5,3.4h-0.6c-0.1-0.8-0.4-1.5-0.8-1.9s-0.9-0.7-1.5-0.7c-0.4,0-0.7,0.1-1,0.3
			c-0.3,0.2-0.4,0.5-0.4,0.8c0,0.2,0.1,0.4,0.2,0.7c0.1,0.2,0.3,0.5,0.5,0.7c0.1,0.1,0.3,0.3,0.4,0.5c1.7,1.8,2.6,3.2,2.6,4.3
			c0,0.9-0.3,1.7-1,2.3c-0.7,0.6-1.5,0.9-2.6,0.9c-0.5,0-1.1-0.1-1.7-0.3c-0.6-0.2-0.9-0.3-1-0.3c-0.1,0-0.2,0.1-0.4,0.2
			c-0.1,0.1-0.2,0.3-0.3,0.5L185.2,75.1L185.2,75.1z"/>
		<path class="st1" d="M194.8,72.7l2.7-11.4c0,0,0-0.1,0-0.1c0-0.2,0.1-0.3,0.1-0.4c0-0.3-0.1-0.5-0.3-0.6c-0.2-0.1-0.5-0.2-1-0.2
			h-0.2l0.1-0.5c0.6-0.1,1.3-0.1,2-0.2c0.7-0.1,1.5-0.2,2.3-0.4l-3.2,13.6c0,0.1,0,0.2-0.1,0.3c0,0.1,0,0.2,0,0.2
			c0,0.2,0,0.3,0.1,0.4s0.2,0.1,0.3,0.1c0.2,0,0.4-0.1,0.6-0.3c0.2-0.2,0.5-0.6,0.8-1.2l0.5,0.2c-0.5,0.9-1,1.6-1.6,2.1
			c-0.6,0.5-1.2,0.8-1.8,0.8c-0.5,0-0.8-0.1-1.1-0.4c-0.2-0.2-0.4-0.6-0.4-1.1c0-0.2,0-0.3,0-0.4C194.7,73,194.8,72.8,194.8,72.7z"
			/>
		<path class="st1" d="M209.1,72.5c0,0.1,0,0.2,0,0.2c0,0.1,0,0.1,0,0.1c0,0.2,0,0.3,0.1,0.4c0.1,0.1,0.2,0.2,0.3,0.2
			c0.2,0,0.4-0.1,0.6-0.3c0.2-0.2,0.5-0.6,0.8-1.1l0.5,0.3c-0.5,0.9-1,1.6-1.6,2.1c-0.6,0.5-1.1,0.7-1.6,0.7c-0.4,0-0.7-0.1-0.9-0.4
			s-0.3-0.6-0.3-1.1c0-0.1,0-0.3,0-0.4c0-0.2,0-0.3,0.1-0.6c-0.5,0.8-1.1,1.4-1.7,1.9c-0.6,0.4-1.3,0.7-1.9,0.7
			c-0.8,0-1.5-0.3-2-0.9c-0.5-0.6-0.8-1.4-0.8-2.4c0-0.9,0.2-1.8,0.5-2.8c0.4-0.9,0.9-1.8,1.5-2.7c0.7-0.8,1.3-1.5,2-1.9
			c0.7-0.4,1.3-0.6,2-0.6c0.4,0,0.8,0.1,1.1,0.3c0.3,0.2,0.6,0.5,0.9,0.8l0.3-1.1h2.3L209.1,72.5z M203.2,71.9c0,0.6,0.1,1,0.4,1.3
			c0.2,0.3,0.6,0.4,1,0.4c0.4,0,0.7-0.2,1.1-0.5s0.7-0.7,1-1.3c0.4-0.9,0.8-1.8,1.1-2.9c0.3-1.1,0.4-2,0.4-2.8
			c0-0.5-0.1-0.9-0.3-1.1c-0.2-0.2-0.5-0.4-0.8-0.4c-0.3,0-0.7,0.2-1.1,0.4c-0.4,0.3-0.7,0.7-1.1,1.3c-0.5,0.8-0.9,1.8-1.2,2.8
			C203.3,70.2,203.2,71.1,203.2,71.9z"/>
		<path class="st1" d="M213.8,71.9c0.4,0,0.8,0.2,1.1,0.5c0.3,0.3,0.4,0.7,0.4,1.1c0,0.4-0.1,0.8-0.4,1.1c-0.3,0.3-0.7,0.4-1.1,0.4
			c-0.4,0-0.8-0.2-1.1-0.4c-0.3-0.3-0.4-0.7-0.4-1.2c0-0.4,0.1-0.8,0.4-1.1C213,72.1,213.4,71.9,213.8,71.9z"/>
		<path class="st1" d="M231.7,59.2c2.1,0,3.6,0.3,4.6,0.9c1,0.6,1.4,1.6,1.4,3c0,1.5-0.6,2.7-1.8,3.6s-2.8,1.3-5,1.3
			c-0.3,0-0.6,0-0.9,0s-0.7-0.1-1.1-0.1l-0.9,4.2c0,0,0,0.1,0,0.1c-0.1,0.4-0.1,0.7-0.1,0.8c0,0.5,0.1,0.9,0.4,1.1s0.7,0.3,1.4,0.3
			h0.1l-0.1,0.5H223l0.1-0.5c0.6-0.1,1.1-0.3,1.4-0.6c0.3-0.3,0.6-1.1,0.9-2.3l2.2-9.3c0.1-0.2,0.1-0.4,0.1-0.5s0-0.3,0-0.4
			c0-0.4-0.2-0.7-0.5-0.9c-0.3-0.2-0.8-0.3-1.5-0.4l0.2-0.5L231.7,59.2L231.7,59.2z M229.2,66.8c0.2,0,0.4,0,0.6,0.1s0.4,0,0.5,0
			c1.4,0,2.6-0.4,3.4-1.1c0.8-0.7,1.2-1.7,1.2-3c0-0.8-0.3-1.5-0.8-2S232.9,60,232,60c-0.5,0-0.9,0.1-1.1,0.3
			c-0.2,0.2-0.4,0.6-0.5,1.2L229.2,66.8z"/>
		<path class="st1" d="M241.8,66.6c0.5-0.9,1.1-1.6,1.6-2.1c0.5-0.5,1-0.7,1.5-0.7c0.4,0,0.8,0.1,1,0.4c0.2,0.2,0.4,0.6,0.4,1
			c0,0.5-0.1,0.8-0.4,1.1c-0.2,0.3-0.5,0.4-0.9,0.4c-0.2,0-0.5-0.1-0.8-0.4c-0.3-0.3-0.5-0.4-0.6-0.4c-0.4,0-0.9,0.4-1.4,1.3
			c-0.5,0.8-0.9,1.9-1.2,3.2l-1,4.3h-2.5l2-8.5c0-0.1,0-0.2,0.1-0.3c0-0.1,0-0.2,0-0.2c0-0.3-0.1-0.5-0.3-0.6
			c-0.2-0.1-0.5-0.2-1-0.2h-0.2l0.1-0.5c0.7-0.1,1.4-0.2,2.1-0.3c0.7-0.1,1.4-0.2,2.1-0.3L241.8,66.6z"/>
		<path class="st1" d="M250.3,75.1c-1.2,0-2.1-0.4-2.9-1.2c-0.8-0.8-1.1-1.8-1.1-3c0-0.9,0.2-1.8,0.6-2.6c0.4-0.9,0.9-1.7,1.6-2.4
			c0.6-0.7,1.3-1.2,2-1.5c0.7-0.3,1.4-0.5,2.2-0.5c1.2,0,2.2,0.4,2.9,1.2c0.7,0.8,1.1,1.8,1.1,3.1c0,0.9-0.2,1.8-0.6,2.7
			c-0.4,0.9-0.9,1.7-1.6,2.4c-0.6,0.6-1.3,1.1-1.9,1.4C251.6,74.9,251,75.1,250.3,75.1z M250.3,74.3c0.4,0,0.9-0.2,1.2-0.4
			s0.7-0.7,1-1.3c0.4-0.9,0.8-1.9,1.1-2.9c0.3-1,0.4-2,0.4-2.8c0-0.7-0.1-1.2-0.4-1.6s-0.7-0.5-1.2-0.5c-0.4,0-0.8,0.1-1.1,0.4
			c-0.3,0.3-0.7,0.7-1,1.2c-0.5,0.9-0.9,1.9-1.2,3c-0.3,1.1-0.5,2-0.5,2.8c0,0.7,0.1,1.3,0.4,1.7C249.4,74.1,249.8,74.3,250.3,74.3z
			"/>
		<path class="st1" d="M259.8,65.1h-1.7l0.1-0.7c1.1-0.2,2-0.6,2.7-1.2c0.7-0.6,1.2-1.4,1.6-2.5h0.8l-0.9,3.4h2.3l-0.2,1h-2.3
			l-1.8,7.4c0,0.1,0,0.2,0,0.2c0,0.1,0,0.1,0,0.1c0,0.2,0,0.3,0.1,0.4c0.1,0.1,0.2,0.1,0.3,0.1c0.2,0,0.5-0.1,0.8-0.4
			c0.3-0.3,0.6-0.7,1-1.2l0.5,0.2c-0.6,1-1.2,1.8-1.8,2.3c-0.6,0.5-1.2,0.7-1.9,0.7c-0.5,0-0.9-0.1-1.1-0.4
			c-0.2-0.3-0.4-0.7-0.4-1.2c0-0.1,0-0.2,0-0.4c0-0.1,0-0.3,0.1-0.5L259.8,65.1z"/>
		<path class="st1" d="M272.7,72.6c-0.7,0.8-1.4,1.4-2.2,1.9c-0.8,0.4-1.6,0.6-2.4,0.6c-1.1,0-1.9-0.3-2.5-1
			c-0.6-0.6-0.9-1.5-0.9-2.7c0-0.9,0.2-1.7,0.6-2.6s0.9-1.7,1.5-2.5c0.7-0.8,1.5-1.4,2.3-1.8c0.8-0.4,1.6-0.6,2.5-0.6
			c0.7,0,1.4,0.2,1.8,0.6c0.5,0.4,0.7,0.8,0.7,1.4c0,1-0.5,1.9-1.5,2.6c-1,0.7-2.8,1.4-5.2,2.1c0,0,0,0.1,0,0.1c0,0.3,0,0.6,0,0.7
			c0,0.8,0.2,1.4,0.5,1.8c0.3,0.4,0.8,0.6,1.4,0.6c0.5,0,0.9-0.1,1.4-0.4s1-0.7,1.7-1.2L272.7,72.6z M267.5,69.6
			c1.3-0.4,2.4-0.9,3.2-1.7c0.8-0.7,1.2-1.5,1.2-2.2c0-0.3-0.1-0.6-0.2-0.7c-0.2-0.2-0.4-0.3-0.7-0.3c-0.6,0-1.3,0.4-1.9,1.3
			C268.4,66.9,267.9,68.1,267.5,69.6z"/>
		<path class="st1" d="M278,71c-0.2,0.2-0.4,0.3-0.5,0.5c-0.1,0.2-0.2,0.3-0.2,0.5c0,0.4,0.5,0.7,1.6,0.8c0.2,0,0.3,0.1,0.4,0.1
			c1.3,0.3,2.1,0.6,2.6,1c0.4,0.4,0.6,0.9,0.6,1.7c0,1.1-0.5,2.1-1.5,2.8c-1,0.7-2.2,1.1-3.8,1.1c-1.3,0-2.3-0.2-3-0.7
			s-1.1-1.1-1.1-1.8c0-0.6,0.2-1.1,0.6-1.6c0.4-0.4,1.1-0.8,2-1.1c-0.2-0.2-0.3-0.3-0.4-0.5c-0.1-0.2-0.1-0.4-0.1-0.6
			c0-0.4,0.2-0.8,0.5-1.2c0.4-0.4,0.9-0.7,1.5-1c-0.6-0.3-1.1-0.7-1.5-1.2s-0.5-1.1-0.5-1.8c0-1.1,0.4-2.1,1.3-2.8
			c0.9-0.8,1.9-1.2,3.1-1.2c0.4,0,0.7,0,1.1,0.1c0.4,0.1,0.8,0.2,1.3,0.3l2.5-0.1l-0.3,1.5h-1c0,0.2,0.1,0.4,0.1,0.6
			c0,0.2,0,0.4,0,0.5c0,1.2-0.4,2.3-1.3,3.1s-2,1.2-3.5,1.2c0,0-0.1,0-0.2,0C278.1,71,278,71,278,71z M279.6,64.6
			c-0.6,0-1.1,0.4-1.5,1.2c-0.4,0.8-0.6,1.8-0.6,2.9c0,0.6,0.1,1,0.3,1.2c0.2,0.3,0.5,0.4,0.9,0.4c0.3,0,0.6-0.1,0.9-0.3
			c0.2-0.2,0.5-0.5,0.7-1c0.2-0.4,0.3-0.9,0.5-1.5c0.1-0.5,0.2-1,0.2-1.5c0-0.5-0.1-0.8-0.3-1.1C280.3,64.7,280,64.6,279.6,64.6z
			 M276.7,74.8c-0.6,0.1-1.1,0.4-1.4,0.7c-0.3,0.3-0.5,0.8-0.5,1.2c0,0.6,0.2,1.1,0.8,1.4s1.2,0.5,2.1,0.5c1,0,1.7-0.2,2.3-0.6
			c0.6-0.4,0.9-0.9,0.9-1.5c0-0.7-1.2-1.2-3.6-1.6C277,74.8,276.8,74.8,276.7,74.8z"/>
		<path class="st1" d="M292.3,72.6c-0.7,0.8-1.4,1.4-2.2,1.9c-0.8,0.4-1.6,0.6-2.4,0.6c-1.1,0-1.9-0.3-2.5-1
			c-0.6-0.6-0.9-1.5-0.9-2.7c0-0.9,0.2-1.7,0.5-2.6c0.4-0.9,0.9-1.7,1.5-2.5c0.7-0.8,1.5-1.4,2.3-1.8c0.8-0.4,1.6-0.6,2.5-0.6
			c0.8,0,1.4,0.2,1.8,0.6c0.5,0.4,0.7,0.8,0.7,1.4c0,1-0.5,1.9-1.5,2.6s-2.8,1.4-5.3,2.1c0,0,0,0.1,0,0.1c0,0.3,0,0.6,0,0.7
			c0,0.8,0.2,1.4,0.5,1.8c0.3,0.4,0.8,0.6,1.4,0.6c0.5,0,0.9-0.1,1.4-0.4c0.5-0.3,1-0.7,1.7-1.2L292.3,72.6z M287.1,69.6
			c1.3-0.4,2.4-0.9,3.2-1.7c0.8-0.7,1.2-1.5,1.2-2.2c0-0.3-0.1-0.6-0.3-0.7c-0.2-0.2-0.4-0.3-0.7-0.3c-0.7,0-1.3,0.4-1.9,1.3
			C288,66.9,287.5,68.1,287.1,69.6z"/>
		<path class="st1" d="M295.6,71.9c0.4,0,0.8,0.2,1.1,0.5c0.3,0.3,0.5,0.7,0.5,1.1c0,0.4-0.1,0.8-0.4,1.1c-0.3,0.3-0.7,0.4-1.1,0.4
			c-0.5,0-0.8-0.2-1.1-0.4c-0.3-0.3-0.4-0.7-0.4-1.2c0-0.4,0.1-0.8,0.5-1.1C294.8,72.1,295.2,71.9,295.6,71.9z"/>
		<path class="st1" d="M314.4,59h0.9l2.9,13.8c0.1,0.3,0.1,0.5,0.2,0.7c0.1,0.2,0.2,0.3,0.4,0.4c0.1,0.1,0.2,0.1,0.4,0.2
			c0.2,0.1,0.4,0.1,0.6,0.1l-0.1,0.6h-6.3l0.1-0.6h0.2c0.5,0,1-0.1,1.2-0.3c0.3-0.2,0.4-0.6,0.4-1c0,0,0-0.1,0-0.2
			c0-0.1,0-0.2,0-0.2l-0.5-2.5H309l-1.3,2.3c-0.1,0.1-0.1,0.2-0.1,0.3c0,0.1,0,0.2,0,0.4c0,0.4,0.1,0.7,0.4,0.9s0.6,0.3,1.1,0.3h0.2
			l-0.1,0.6h-5.4l0.1-0.6c0.5,0,0.9-0.1,1.3-0.4c0.4-0.3,0.8-0.7,1.1-1.2L314.4,59z M313.3,62.7l-3.7,6.2h4.9L313.3,62.7z"/>
		<path class="st1" d="M320.6,74.8l3.1-13.5c0-0.1,0-0.2,0-0.3c0-0.1,0-0.2,0-0.2c0-0.3-0.1-0.5-0.3-0.6s-0.5-0.2-1-0.2h-0.2
			l0.1-0.5c0.8-0.1,1.5-0.2,2.3-0.3s1.4-0.2,2.1-0.3l-1.8,7.7c0.6-0.9,1.3-1.6,2-2c0.7-0.4,1.5-0.7,2.2-0.7c0.7,0,1.2,0.2,1.5,0.5
			c0.4,0.3,0.5,0.8,0.5,1.4c0,0.1,0,0.3,0,0.5s-0.1,0.4-0.1,0.7l-1.3,4.9c0,0.1,0,0.2-0.1,0.3c-0.1,0.4-0.2,0.7-0.2,0.8
			c0,0.2,0,0.3,0.1,0.4c0.1,0.1,0.1,0.1,0.3,0.1c0.2,0,0.4-0.1,0.6-0.3c0.2-0.2,0.5-0.6,0.9-1.1l0.5,0.3c-0.5,0.9-1.1,1.6-1.6,2.1
			c-0.6,0.5-1.1,0.7-1.8,0.7c-0.5,0-0.9-0.1-1.1-0.4S327,74,327,73.5c0-0.2,0-0.3,0-0.5c0-0.2,0.1-0.5,0.2-0.9l1.4-5.2
			c0,0,0-0.1,0-0.2c0.1-0.3,0.1-0.4,0.1-0.6c0-0.3-0.1-0.5-0.2-0.6c-0.1-0.1-0.4-0.2-0.7-0.2c-0.7,0-1.5,0.5-2.2,1.4
			c-0.8,0.9-1.3,2.1-1.6,3.5l-1.1,4.6L320.6,74.8L320.6,74.8z"/>
		<path class="st1" d="M337.1,75.1c-1.2,0-2.1-0.4-2.9-1.2c-0.8-0.8-1.1-1.8-1.1-3c0-0.9,0.2-1.8,0.5-2.6c0.4-0.9,0.9-1.7,1.6-2.4
			c0.6-0.7,1.3-1.2,2-1.5c0.7-0.3,1.4-0.5,2.2-0.5c1.2,0,2.2,0.4,2.9,1.2c0.7,0.8,1.1,1.8,1.1,3.1c0,0.9-0.2,1.8-0.6,2.7
			c-0.4,0.9-1,1.7-1.6,2.4c-0.6,0.6-1.3,1.1-2,1.4C338.4,74.9,337.8,75.1,337.1,75.1z M337.1,74.3c0.5,0,0.9-0.2,1.2-0.4
			c0.4-0.3,0.7-0.7,1-1.3c0.5-0.9,0.8-1.9,1.1-2.9s0.4-2,0.4-2.8c0-0.7-0.1-1.2-0.4-1.6c-0.3-0.4-0.7-0.5-1.2-0.5
			c-0.4,0-0.8,0.1-1.1,0.4c-0.3,0.3-0.7,0.7-1,1.2c-0.5,0.9-0.9,1.9-1.2,3c-0.3,1.1-0.5,2-0.5,2.8c0,0.7,0.1,1.3,0.4,1.7
			C336.1,74.1,336.6,74.3,337.1,74.3z"/>
		<path class="st1" d="M348.6,66.6c0.5-0.9,1.1-1.6,1.6-2.1c0.5-0.5,1-0.7,1.5-0.7c0.4,0,0.8,0.1,1,0.4c0.2,0.2,0.4,0.6,0.4,1
			c0,0.5-0.1,0.8-0.4,1.1c-0.2,0.3-0.5,0.4-0.9,0.4c-0.2,0-0.5-0.1-0.8-0.4c-0.3-0.3-0.5-0.4-0.6-0.4c-0.4,0-0.9,0.4-1.4,1.3
			c-0.5,0.8-0.9,1.9-1.2,3.2l-1,4.3h-2.5l2-8.5c0-0.1,0-0.2,0-0.3c0-0.1,0-0.2,0-0.2c0-0.3-0.1-0.5-0.3-0.6c-0.2-0.1-0.5-0.2-1-0.2
			h-0.2l0.1-0.5c0.7-0.1,1.4-0.2,2.1-0.3c0.7-0.1,1.4-0.2,2.1-0.3L348.6,66.6z"/>
		<path class="st1" d="M357.1,66.6c0.5-0.9,1.1-1.6,1.6-2.1c0.5-0.5,1-0.7,1.5-0.7c0.4,0,0.8,0.1,1,0.4c0.2,0.2,0.4,0.6,0.4,1
			c0,0.5-0.1,0.8-0.4,1.1c-0.2,0.3-0.5,0.4-0.9,0.4c-0.2,0-0.5-0.1-0.8-0.4c-0.3-0.3-0.5-0.4-0.6-0.4c-0.4,0-0.9,0.4-1.4,1.3
			c-0.5,0.8-0.9,1.9-1.2,3.2l-1,4.3h-2.5l2-8.5c0-0.1,0-0.2,0-0.3c0-0.1,0-0.2,0-0.2c0-0.3-0.1-0.5-0.3-0.6s-0.5-0.2-1-0.2h-0.2
			l0.1-0.5c0.7-0.1,1.4-0.2,2.1-0.3c0.7-0.1,1.4-0.2,2.1-0.3L357.1,66.6z"/>
		<path class="st1" d="M369.7,72.5c0,0.1,0,0.2,0,0.2c0,0.1,0,0.1,0,0.1c0,0.2,0,0.3,0.1,0.4c0.1,0.1,0.1,0.2,0.3,0.2
			c0.2,0,0.4-0.1,0.6-0.3s0.5-0.6,0.8-1.1l0.5,0.3c-0.5,0.9-1,1.6-1.6,2.1c-0.6,0.5-1.1,0.7-1.6,0.7c-0.4,0-0.7-0.1-0.9-0.4
			c-0.2-0.3-0.3-0.6-0.3-1.1c0-0.1,0-0.3,0-0.4c0-0.2,0-0.3,0.1-0.6c-0.5,0.8-1,1.4-1.7,1.9s-1.3,0.7-2,0.7c-0.8,0-1.5-0.3-2-0.9
			s-0.8-1.4-0.8-2.4c0-0.9,0.2-1.8,0.5-2.8c0.4-0.9,0.9-1.8,1.5-2.7c0.7-0.8,1.3-1.5,2-1.9c0.7-0.4,1.3-0.6,2-0.6
			c0.4,0,0.8,0.1,1.1,0.3c0.3,0.2,0.6,0.5,0.9,0.8l0.3-1.1h2.3L369.7,72.5z M363.8,71.9c0,0.6,0.1,1,0.4,1.3c0.2,0.3,0.6,0.4,1,0.4
			c0.4,0,0.7-0.2,1.1-0.5c0.4-0.3,0.7-0.7,1-1.3c0.5-0.9,0.8-1.8,1.1-2.9s0.4-2,0.4-2.8c0-0.5-0.1-0.9-0.3-1.1s-0.5-0.4-0.8-0.4
			c-0.3,0-0.7,0.2-1.1,0.4c-0.4,0.3-0.7,0.7-1,1.3c-0.5,0.8-0.9,1.8-1.2,2.8C363.9,70.2,363.8,71.1,363.8,71.9z"/>
		<path class="st1" d="M374.5,71.9c0.4,0,0.8,0.2,1.1,0.5c0.3,0.3,0.5,0.7,0.5,1.1c0,0.4-0.1,0.8-0.4,1.1c-0.3,0.3-0.7,0.4-1.1,0.4
			c-0.5,0-0.8-0.2-1.1-0.4c-0.3-0.3-0.4-0.7-0.4-1.2c0-0.4,0.1-0.8,0.5-1.1C373.7,72.1,374,71.9,374.5,71.9z"/>
		<path class="st2" d="M289.7,18.2v9.4l-2.2-0.2l-1.9-0.2l-1.8-0.1l-1.6-0.2h-1.3l-1.3-0.1h-1.2h-1.2h-1.7H274l-1.1,0.1l-0.7,0.1
			l-0.5,0.2l-0.4,0.2l-0.2,0.1v0.2l-0.1,0.1v0.2v0.1l0.1,0.1v0.2l0.2,0.1l0.4,0.2l0.5,0.2l0.6,0.1h0.9l0.9,0.1l1.1,0.1h0.8h0.7h0.7
			h0.6h1.6l1.4,0.2l1.5,0.1l1.2,0.2l1.2,0.2l1,0.4l1,0.5l0.8,0.5l0.6,0.5l0.6,0.7l0.5,0.7l0.5,0.7l0.4,0.8l0.1,1l0.2,1v1.2v0.7v0.6
			l-0.2,0.7V41l-0.2,0.6l-0.1,0.7l-0.4,0.5l-0.2,0.6l-0.4,0.5l-0.2,0.6l-0.5,0.5l-0.4,0.5l-0.5,0.4l-0.5,0.5l-0.6,0.4l-0.5,0.4
			l-1.3,0.8l-1.5,0.5l-1.5,0.5l-1.8,0.5l-1.8,0.2l-1.9,0.2l-2.2,0.2l-2.3,0.1h-2l-2.1-0.1l-1.9-0.1l-2.2-0.1l-1.9-0.2l-2-0.2
			l-2.2-0.2l-2.1-0.4v-8.8l2.2,0.4l2.2,0.2l2,0.2l2.1,0.2L266,41l1.8,0.2h1.7h1.6h1h0.7l0.6-0.1l0.5-0.1l0.2-0.2l0.2-0.1l0.1-0.2
			v-0.4v-0.4v-0.2l-0.2-0.1l-0.2-0.2l-0.2-0.1l-0.2-0.1l-0.5-0.1h-0.6H272h-0.7h-0.9l-1.2-0.1h-1.3l-1.1-0.1h-1.1l-0.9-0.1l-1.5-0.2
			l-1.2-0.2l-1.1-0.2l-1.1-0.4l-1-0.4l-0.9-0.5l-0.7-0.5l-0.7-0.6l-0.5-0.6l-0.6-0.6l-0.4-0.7l-0.4-0.7l-0.2-1l-0.2-0.9l-0.1-1v-1.1
			V28l0.1-0.7v-0.6l0.2-0.7l0.1-0.7l0.2-0.6l0.1-0.6l0.4-0.6l0.2-0.5l0.5-0.6l0.4-0.5l0.4-0.5l0.6-0.5l0.4-0.5l0.6-0.4l0.6-0.4
			l0.6-0.4l0.7-0.2l0.7-0.4l0.7-0.3l1.7-0.6l1.7-0.4l1.9-0.4l2.2-0.2l2.4-0.1h2.4h1.8l1.9,0.1h1.8l1.9,0.2l1.9,0.1l1.9,0.4l1.9,0.2
			L289.7,18.2z M164.3,49V17.7h16.1l6,8.7l0.5,0.7l0.4,0.6l0.4,0.6l0.5,0.6l0.6,1l0.5,1v-1v-1.2v-0.5v-0.7v-0.7v-1v-8.1h15.2V49h-14
			l-8.2-10.4l-0.8-1.1l-0.7-1.1l-0.6-1.1l-0.6-1v0.8l0.1,0.7v0.6v0.7v1.2v0.7V49H164.3L164.3,49z M314.7,17.7H327L337.1,49h-16.3
			l-1.2-4.1h-5h-5l-1.3,4.1h-16.2l10-31.4C302.2,17.7,314.7,17.7,314.7,17.7z M314.7,36.3h3.3l-2-6l-0.1-0.7l-0.2-0.6l-0.1-0.6
			l-0.1-0.7l-0.1-0.6l-0.2-0.9l-0.1-0.6l-0.1-0.6v-0.1l-0.1,0.7l-0.1,0.8l-0.1,0.6l-0.1,0.7l-0.2,0.7l-0.1,0.6l-0.2,0.6l-0.1,0.6
			l-2,6.1L314.7,36.3L314.7,36.3z M118,31.6h1V41h-1h-17.5v8H84.4V17.7H118h1v11h-1h-17.5v2.9H118z M230,16.7l2.5,0.1l2.5,0.2h1.1
			l1.2,0.2l1,0.2l1.1,0.2l1,0.2l1,0.2l0.9,0.4L243,19l0.9,0.4l0.7,0.5l0.7,0.5l0.7,0.5l0.6,0.5l0.6,0.6l0.6,0.6l0.5,0.6l0.5,0.7
			l0.4,0.6l0.5,0.7L250,26l0.2,0.7l0.4,0.9l0.1,1l0.2,0.8l0.1,0.9l0.1,1v1.1v1v1.1v1l-0.1,1l-0.1,1l-0.2,1l-0.1,0.8l-0.4,0.8
			l-0.2,0.7l-0.4,0.8l-0.5,0.7l-0.4,0.7l-0.5,0.6l-0.5,0.6l-0.6,0.6l-0.6,0.6l-0.6,0.5l-0.7,0.5l-0.7,0.5l-0.7,0.5l-0.9,0.4
			l-0.8,0.4l-0.9,0.4l-1,0.2l-1,0.4l-1.1,0.2l-1,0.1l-1.2,0.2l-1.1,0.1l-2.5,0.3H230h-2.7l-2.4-0.2l-1.2-0.1l-1.2-0.2l-1-0.1
			l-1.1-0.2l-1-0.4l-1-0.2l-0.9-0.4l-0.8-0.4l-0.9-0.4l-0.7-0.5l-0.7-0.5l-0.7-0.5l-0.6-0.5l-0.6-0.6l-0.6-0.6l-0.5-0.6L211,43
			l-0.4-0.7l-0.4-0.7l-0.4-0.8l-0.4-0.7l-0.2-0.8l-0.2-0.8l-0.2-1l-0.1-1v-1l-0.1-1v-1.1v-1l0.1-1.1v-1l0.1-0.9l0.2-0.8l0.2-1
			l0.2-0.9l0.4-0.7l0.4-0.9l0.4-0.7l0.4-0.6l0.5-0.7l0.5-0.6l0.6-0.6l0.6-0.6l0.6-0.5l0.7-0.5l0.7-0.5l0.7-0.5l0.9-0.4l0.8-0.4
			l0.9-0.4l1-0.2l1-0.2l1.1-0.2l1-0.2l1.2-0.2h1.2l2.4-0.2L230,16.7z M230,40.7h0.5l0.6-0.1l0.5-0.1l0.5-0.2l0.5-0.2l0.4-0.2
			l0.4-0.4l0.4-0.5l0.4-0.4l0.2-0.6l0.2-0.5l0.1-0.6l0.2-0.6l0.1-0.6v-0.8l0.1-0.7l-0.1-0.7v-0.7l-0.1-0.7l-0.1-0.6l-0.2-0.6
			l-0.2-0.5l-0.1-0.6l-0.4-0.4l-0.4-0.5l-0.4-0.2l-0.4-0.2l-0.5-0.2l-0.5-0.2l-0.6-0.1h-0.6H230h-0.6h-0.6l-0.6,0.1l-0.5,0.2
			l-0.5,0.2l-0.4,0.2l-0.4,0.2l-0.4,0.5l-0.2,0.4l-0.2,0.6l-0.2,0.5l-0.2,0.6l-0.1,0.6l-0.1,0.7v0.7V34v0.7v0.8l0.1,0.6l0.2,0.6
			l0.1,0.6l0.2,0.5l0.2,0.6l0.4,0.4l0.4,0.5l0.4,0.4l0.4,0.2l0.5,0.2l0.5,0.2l0.5,0.1l0.6,0.1L230,40.7L230,40.7z M139.6,17.7H152
			L162.1,49h-16.3l-1.2-4.1h-4.9h-5.1l-1.2,4.1H118h-1l1-3l9.2-28.3H139.6z M139.6,36.3h3.1l-1.9-6l-0.1-0.7l-0.2-0.6l-0.2-0.6
			l-0.1-0.7L140,27l-0.1-0.9l-0.2-0.6v-0.6l-0.1,0.6l-0.2,0.8l-0.1,0.6l-0.1,0.7l-0.1,0.7l-0.2,0.6l-0.1,0.6l-0.2,0.6l-1.9,6.1
			L139.6,36.3L139.6,36.3z"/>
		<g>
			<path class="st3" d="M64.8,15.4l-0.2-0.5l-0.2-0.7l-0.5-1.2l-0.4-0.6l-0.2-0.5l-1.7-2.3l-1.4-1.4l-1.6-1.1L58,6.8l-0.4-0.3
				l-2.1-0.9L52.1,5H22.5l-0.7,0l-3.4,0.7l-3,1.4l-1.7,1.2l-1.9,1.9l-1.5,2.3l-1,2.5L9,16.1l-0.3,0.7l0,0.6l-0.1,0.9v14.4h10.6
				c0.4-9.6,8.3-17.3,18-17.3s17.6,7.7,18,17.3h9.9V19l0-1.6L64.8,15.4z"/>
			<path class="st4" d="M37.2,51.6c-9.7,0-17.7-7.7-18-17.4H8.6v13.8l0,0.7l0.1,0.6v0.6L9,50.6l0.3,1.5L10,54l1,1.8l0.8,1l0.4,0.4
				l0.4,0.5l1.1,1l2.1,1.5l2.7,1.1l3.4,0.6h30.3l3.5-0.7l2.4-1l2.3-1.6l1.4-1.4l0.4-0.5l0.8-0.9l0.5-0.8l0.2-0.5l0.3-0.4l0.6-1.5
				l0.1-0.5l0.3-0.8l0.4-2V34.2h-9.9C54.9,43.8,47,51.6,37.2,51.6z"/>
			<path class="st0" d="M68.2,17.2v0.9v30.6v0.9v0.8L68,51.2L67.9,52l-0.2,0.8l-0.1,0.8l-0.2,0.8L67,55l-0.4,0.8l-0.4,0.6L65.9,57
				l-0.4,0.6L65,58.3l-0.5,0.6L64,59.4l-0.2,0.3L63.5,60L63,60.5l-0.6,0.6l-0.6,0.4l-0.6,0.5l-0.6,0.4l-0.6,0.4l-0.8,0.4l-0.6,0.4
				l-0.8,0.2L57,64.1l-0.8,0.2l-0.8,0.1l-0.9,0.1l-0.8,0.1L53,64.8h-0.8H21.7h-0.9L20,64.7l-0.9-0.1l-0.8-0.1l-0.8-0.1l-0.8-0.2
				l-0.8-0.2l-0.8-0.2l-0.8-0.4L14,62.8l-0.6-0.4L12.8,62l-0.6-0.5l-0.6-0.4l-0.6-0.6L10.4,60L10,59.7l-0.2-0.2l-0.5-0.5l-0.5-0.6
				l-0.4-0.6L8,57l-0.5-0.6l-0.2-0.6L6.9,55l-0.2-0.8l-0.2-0.8l-0.2-0.8L6,52l-0.1-0.8l-0.1-0.9l-0.1-0.8v-0.9V18.1v-0.9l0.1-0.8
				l0.1-0.8L6,14.8l0.1-0.8l0.2-0.8l0.2-0.8l0.2-0.8l0.4-0.6l0.2-0.8L8,9.8l0.4-0.6l0.4-0.6l0.5-0.6l0.5-0.5l0.1-0.1l0.5-0.5
				l0.5-0.5l0.6-0.5l0.6-0.5l0.6-0.5l0.6-0.4L14,4l0.6-0.4l0.8-0.4L16.2,3l0.8-0.2l0.8-0.1l0.8-0.2l0.8-0.1L20,2.1h0.8L21.7,2h30.6
				L53,2.1h0.9l0.8,0.1l0.9,0.1l0.8,0.2L57,2.8L57.8,3l0.8,0.2l0.6,0.4L59.9,4l0.6,0.4l0.6,0.4l0.6,0.5l0.6,0.5L63,6.3l0.5,0.5
				L63.8,7L64,7.4l0.5,0.5L65,8.5l0.5,0.6l0.4,0.6l0.4,0.6l0.4,0.8l0.4,0.6l0.2,0.8l0.2,0.8l0.1,0.8l0.2,0.8l0.1,0.9l0.1,0.8
				L68.2,17.2L68.2,17.2z M69.7,16.3v-0.9l-0.2-0.9l-0.1-0.9L69,12.8l-0.2-0.8l-0.4-0.9L68,10.4l-0.4-0.8l-0.4-0.8l-0.5-0.6
				l-0.5-0.8l-0.5-0.6l-0.5-0.6l-0.6-0.6l-0.3-0.4L64,5l-0.6-0.5L62.8,4L62,3.5L61.4,3l-0.8-0.4l-0.8-0.4l-0.8-0.4l-0.9-0.4
				l-0.9-0.2L56.6,1l-0.9-0.3l-0.9-0.1L54,0.5h-0.9h-0.9H21.7h-1h-0.9l-0.9,0.1l-0.8,0.1L17.3,1l-0.9,0.2l-0.8,0.2l-0.9,0.4L14,2.3
				l-0.8,0.4L12.5,3l-0.8,0.5L11.1,4l-0.6,0.5L9.9,5L9.8,5.2L9.3,5.7L8.6,6.3L8,6.9L7.5,7.5L7,8.3L6.6,8.9L6.1,9.7l-0.4,0.8
				l-0.2,0.8l-0.4,0.9l-0.2,0.8l-0.2,0.9l-0.2,0.9l-0.1,0.9l-0.1,0.9L4,17.2v0.9v30.6v1l0.1,0.8l0.1,1l0.1,0.9l0.2,0.8L4.9,54
				l0.2,0.8l0.4,0.9l0.2,0.8l0.4,0.8l0.5,0.8L7,58.7l0.5,0.6L8,59.9l0.6,0.6l0.6,0.6l0.5,0.6h0.1l0.6,0.6l0.6,0.4l0.6,0.6l0.8,0.4
				l0.8,0.5l0.8,0.4l0.8,0.2l0.9,0.4l0.8,0.2l0.9,0.2l0.9,0.2l0.8,0.1l0.9,0.1h0.9h1h30.6h0.9H54l0.9-0.1l0.9-0.1l0.9-0.2l0.8-0.2
				l0.9-0.2l0.9-0.4l0.8-0.2l0.8-0.4l0.8-0.5l0.6-0.4l0.8-0.6l0.6-0.4l0.6-0.6l0.6-0.6l0.6-0.6l0.5-0.6l0.5-0.6l0.5-0.6l0.5-0.8
				l0.4-0.8l0.4-0.8l0.4-0.8l0.4-0.9L69,54l0.2-0.9l0.1-0.8l0.2-0.9v-1l0.1-0.8v-1V18.1v-0.9L69.7,16.3z"/>
			<radialGradient id="SVGID_1_" cx="37.315" cy="33.435" r="15.805" gradientUnits="userSpaceOnUse">
				<stop  offset="0.2111" style="stop-color:#FFFFFF"/>
				<stop  offset="0.3558" style="stop-color:#EDEDED"/>
				<stop  offset="0.5922" style="stop-color:#D5D5D5"/>
				<stop  offset="0.8127" style="stop-color:#C7C7C7"/>
				<stop  offset="1" style="stop-color:#C2C2C2"/>
			</radialGradient>
			<circle class="st5" cx="37.3" cy="33.4" r="15.8"/>
		</g>
	</g>
</g>
<g id="Layer_2">
</g>
</svg>
