<?xml version="1.0" encoding="utf-8"?>
<!-- Generator: Adobe Illustrator 23.1.1, SVG Export Plug-In . SVG Version: 6.00 Build 0)  -->
<svg version="1.1" id="Layer_2" xmlns="http://www.w3.org/2000/svg" xmlns:xlink="http://www.w3.org/1999/xlink" x="0px" y="0px"
	 viewBox="0 0 380 80" style="enable-background:new 0 0 380 80;" xml:space="preserve">
<style type="text/css">
	.st0{fill-rule:evenodd;clip-rule:evenodd;fill:#2A66B1;}
	.st1{fill:#ED7F22;}
	.st2{fill:#2A66B1;}
	.st3{fill:#696F75;}
	.st4{fill:url(#SVGID_1_);enable-background:new    ;}
	.st5{fill:#5E5F61;}
</style>
<g>
	<path class="st0" d="M290.6,19.5v9.6l-2.2-0.2l-2-0.2l-1.8-0.1l-1.6-0.3h-1.3l-1.3-0.1h-1.2h-1.2h-1.7h-1.5l-1.1,0.1l-0.7,0.1
		l-0.5,0.3l-0.4,0.2l-0.2,0.1v0.2l-0.1,0.1v0.2v0.1l0.1,0.1V30l0.2,0.1l0.4,0.2l0.5,0.2l0.6,0.1h0.9l0.9,0.1l1.1,0.1h0.8h0.7h0.7
		h0.6h1.6l1.5,0.2l1.5,0.1l1.2,0.3l1.2,0.2l1,0.4l1,0.5l0.8,0.5l0.6,0.5l0.6,0.7l0.5,0.7l0.5,0.7l0.4,0.8l0.1,1l0.2,1v1.2v0.7v0.6
		l-0.2,0.7v0.6l-0.2,0.6l-0.1,0.7l-0.4,0.5l-0.3,0.6l-0.4,0.5l-0.2,0.6l-0.5,0.5l-0.4,0.5l-0.5,0.4l-0.5,0.5l-0.6,0.4l-0.5,0.4
		l-1.3,0.9l-1.5,0.5l-1.5,0.5l-1.8,0.5l-1.8,0.2l-2,0.2l-2.2,0.2l-2.3,0.1h-2.1l-2.1-0.1l-2-0.1l-2.2-0.1l-2-0.2l-2.1-0.2l-2.2-0.2
		l-2.1-0.4v-8.9l2.2,0.4l2.2,0.2l2.1,0.2l2.1,0.2l2,0.1l1.8,0.2h1.7h1.6h1h0.7l0.6-0.1l0.5-0.1l0.3-0.2l0.2-0.1l0.1-0.2v-0.4v-0.4
		v-0.2l-0.2-0.1l-0.3-0.2l-0.2-0.1l-0.2-0.1l-0.5-0.1h-0.6h-0.4H272h-0.9l-1.2-0.1h-1.3l-1.1-0.1h-1.1l-0.9-0.1l-1.5-0.2l-1.2-0.2
		l-1.1-0.2l-1.1-0.4l-1-0.4l-0.9-0.5l-0.7-0.5l-0.7-0.6l-0.5-0.6l-0.6-0.6l-0.4-0.7l-0.4-0.7l-0.3-1l-0.2-0.9l-0.1-1v-1.1v-0.9
		l0.1-0.7v-0.6l0.2-0.7l0.1-0.7l0.2-0.6l0.1-0.6l0.4-0.6l0.2-0.5l0.5-0.6l0.4-0.5l0.4-0.5l0.6-0.5l0.4-0.5l0.6-0.4l0.6-0.4l0.6-0.4
		l0.7-0.2l0.7-0.4l0.7-0.3l1.7-0.6l1.7-0.4l2-0.4l2.2-0.2l2.4-0.1h2.4h1.8l2,0.1h1.8l2,0.2l2,0.1l2,0.4l2,0.2L290.6,19.5z
		 M163.7,50.7V19H180l6.1,8.8l0.5,0.7l0.4,0.6l0.4,0.6l0.5,0.6l0.6,1l0.5,1v-1v-1.2v-0.5v-0.7v-0.7v-1V19h15.4v31.7h-14.2l-8.3-10.5
		l-0.8-1.1l-0.7-1.1l-0.6-1.1l-0.6-1v0.8l0.1,0.7v0.6v0.7v1.2v0.7v9.9H163.7L163.7,50.7z M315.8,19h12.5l10.3,31.7h-16.5l-1.2-4.2
		h-5h-5l-1.3,4.2h-16.4L303.3,19C303.3,19,315.8,19,315.8,19z M315.8,37.9h3.3l-2.1-6.1L317,31l-0.2-0.6l-0.1-0.6l-0.1-0.7l-0.1-0.6
		l-0.3-0.9L316,27l-0.1-0.6v-0.1l-0.1,0.7l-0.1,0.8l-0.1,0.6l-0.1,0.7l-0.2,0.7l-0.1,0.6l-0.2,0.6l-0.1,0.6l-2.1,6.1L315.8,37.9
		L315.8,37.9z M116.9,33.1h1v9.6h-1H99.2v8.1H82.9V19h34h1v11.1h-1H99.2v2.9H116.9z M230.2,18l2.6,0.1l2.6,0.2h1.1l1.2,0.2l1,0.2
		l1.1,0.2l1,0.2l1,0.3l0.9,0.4l0.8,0.4l0.9,0.4l0.7,0.5l0.7,0.5l0.7,0.5l0.6,0.5l0.6,0.6l0.6,0.6l0.5,0.6l0.5,0.7l0.4,0.6l0.5,0.7
		l0.4,0.9l0.2,0.7l0.4,0.9l0.1,1l0.2,0.8l0.1,0.9l0.1,1v1.1v1v1.1v1l-0.1,1l-0.1,1l-0.2,1l-0.1,0.9l-0.4,0.8l-0.2,0.7l-0.4,0.8
		l-0.5,0.7l-0.4,0.7l-0.5,0.6l-0.5,0.6l-0.6,0.6l-0.6,0.6l-0.6,0.5l-0.7,0.5l-0.7,0.5l-0.7,0.5l-0.9,0.4l-0.8,0.4l-0.9,0.4l-1,0.2
		l-1,0.4l-1.1,0.2l-1,0.1l-1.2,0.2l-1.1,0.1l-2.6,0.3h-2.6h-2.7l-2.4-0.2l-1.2-0.1l-1.2-0.2l-1-0.1l-1.1-0.2l-1-0.4l-1-0.2l-0.9-0.4
		l-0.8-0.4L216,49l-0.7-0.5l-0.7-0.5l-0.7-0.5l-0.6-0.5l-0.6-0.6l-0.6-0.6l-0.5-0.6l-0.5-0.6l-0.4-0.7l-0.4-0.7l-0.4-0.8l-0.4-0.7
		l-0.2-0.8l-0.3-0.9l-0.2-1l-0.1-1v-1l-0.1-1v-1.1v-1l0.1-1.1v-1l0.1-0.9l0.2-0.8l0.3-1l0.2-0.9l0.4-0.7l0.4-0.9l0.4-0.7l0.4-0.6
		l0.5-0.7l0.5-0.6l0.6-0.6l0.6-0.6l0.6-0.5l0.7-0.5l0.7-0.5l0.7-0.5l0.9-0.4l0.8-0.4l0.9-0.4l1-0.3l1-0.2l1.1-0.2l1-0.2l1.2-0.2h1.2
		l2.4-0.2L230.2,18z M230.2,42.3h0.5l0.6-0.1l0.5-0.1l0.5-0.2l0.5-0.3l0.4-0.2l0.4-0.4l0.4-0.5l0.4-0.4l0.3-0.6l0.2-0.5l0.1-0.6
		l0.3-0.6l0.1-0.6v-0.9l0.1-0.7l-0.1-0.7v-0.7l-0.1-0.7l-0.1-0.6l-0.2-0.6l-0.2-0.5l-0.1-0.6l-0.4-0.4l-0.4-0.5l-0.4-0.2l-0.4-0.3
		l-0.5-0.2l-0.5-0.2l-0.6-0.1h-0.6h-0.5h-0.6H229l-0.6,0.1l-0.5,0.2l-0.5,0.2l-0.4,0.3l-0.4,0.2l-0.4,0.5L226,31l-0.2,0.6l-0.2,0.5
		l-0.2,0.6l-0.1,0.6l-0.1,0.7v0.7v0.7v0.7v0.8l0.1,0.6l0.2,0.6l0.1,0.6l0.2,0.5l0.2,0.6l0.4,0.4l0.4,0.5l0.4,0.4l0.4,0.2l0.5,0.3
		l0.5,0.2l0.5,0.1l0.6,0.1L230.2,42.3L230.2,42.3z M138.8,19h12.5l10.3,31.7H145l-1.2-4.2h-5h-5.1l-1.2,4.2h-15.5h-1l1-3.1l9.3-28.7
		H138.8z M138.8,37.9h3.2l-2-6.1l-0.1-0.7l-0.2-0.6l-0.2-0.6l-0.1-0.7l-0.1-0.6l-0.1-0.9l-0.2-0.6v-0.6l-0.1,0.6l-0.2,0.8l-0.1,0.6
		l-0.1,0.7l-0.1,0.7l-0.2,0.6l-0.1,0.6l-0.2,0.6l-2,6.1L138.8,37.9L138.8,37.9z"/>
	<g>
		<path class="st1" d="M63.1,16.4l-0.2-0.5l-0.2-0.7L62.2,14l-0.4-0.6l-0.2-0.5l-1.7-2.3l-1.4-1.4L56.9,8l-0.7-0.3l-0.4-0.3
			l-2.1-0.9l-3.4-0.6H20.4l-0.7,0l-3.4,0.7l-3,1.4l-1.7,1.2l-1.9,1.9l-1.5,2.3l-1,2.5l-0.2,1.2l-0.3,0.7l0,0.6l-0.1,0.9v14.5h10.7
			c0.4-9.7,8.4-17.5,18.2-17.5S53,24.1,53.4,33.8h10V20.1l0-1.6L63.1,16.4z"/>
		<path class="st2" d="M35.3,52.9c-9.8,0-17.8-7.8-18.2-17.5H6.4v13.9l0,0.7l0.1,0.6v0.6l0.3,0.7L7,53.4l0.8,1.9l1,1.8l0.8,1
			l0.4,0.4l0.4,0.5l1.1,1l2.1,1.5l2.7,1.1l3.4,0.6h30.5l3.5-0.7l2.4-1l2.3-1.6l1.4-1.4l0.4-0.5l0.8-0.9l0.5-0.8l0.2-0.5l0.3-0.4
			l0.6-1.5l0.1-0.5l0.3-0.8l0.4-2.1V35.4h-10C53.1,45.1,45.1,52.9,35.3,52.9z"/>
		<path class="st3" d="M66.5,18.3v0.9v30.9v0.9v0.8l-0.1,0.9l-0.1,0.8L66,54.1l-0.1,0.8l-0.3,0.8l-0.3,0.8L65,57.2l-0.4,0.6
			l-0.4,0.6l-0.4,0.6l-0.5,0.6l-0.5,0.6l-0.5,0.5l-0.2,0.4l-0.3,0.3L61.3,62l-0.6,0.6L60,63l-0.6,0.5l-0.6,0.4l-0.6,0.4l-0.8,0.4
			L56.7,65L56,65.3l-0.8,0.3l-0.8,0.3l-0.8,0.1L52.8,66l-0.8,0.1l-0.9,0.1h-0.8H19.6h-0.9l-0.8-0.1L17,66l-0.8-0.1l-0.8-0.1
			l-0.8-0.3L14,65.2L13.3,65l-0.8-0.4l-0.6-0.4l-0.6-0.4l-0.6-0.4L10,63l-0.6-0.4L8.7,62l-0.5-0.5l-0.4-0.4l-0.2-0.2l-0.5-0.5
			l-0.5-0.6L6.2,59l-0.4-0.6l-0.5-0.6L5,57.1l-0.4-0.8l-0.3-0.8l-0.3-0.8l-0.3-0.8l-0.1-0.8l-0.1-0.8l-0.1-0.9l-0.1-0.8v-0.9V19.1
			v-0.9l0.1-0.8l0.1-0.8l0.1-0.9l0.1-0.8l0.3-0.8l0.3-0.8l0.3-0.8L5,12.2l0.3-0.8l0.5-0.6l0.4-0.6l0.4-0.6l0.5-0.6l0.5-0.5l0.1-0.1
			l0.5-0.5l0.5-0.5l0.6-0.5L10,6.2l0.6-0.5l0.6-0.4l0.6-0.4l0.6-0.4l0.8-0.4L14,3.9l0.8-0.3l0.8-0.1l0.8-0.3L17,3.2L17.9,3h0.8
			l0.9-0.1h30.8L51.2,3h0.9l0.8,0.1l0.9,0.1l0.8,0.3l0.8,0.1L56,3.9l0.8,0.3l0.6,0.4L58.1,5l0.6,0.4l0.6,0.4L60,6.2l0.6,0.5l0.6,0.5
			l0.5,0.5L62,8l0.3,0.4l0.5,0.5l0.5,0.6l0.5,0.6l0.4,0.6l0.4,0.6l0.4,0.8l0.4,0.6l0.3,0.8l0.3,0.8l0.1,0.8l0.3,0.8l0.1,0.9l0.1,0.8
			L66.5,18.3L66.5,18.3z M68,17.4v-0.9l-0.3-0.9l-0.1-0.9l-0.3-0.9l-0.3-0.8l-0.4-0.9l-0.4-0.8L66,10.7l-0.4-0.8l-0.5-0.6l-0.5-0.8
			l-0.5-0.6l-0.5-0.6l-0.6-0.6l-0.3-0.4L62.3,6l-0.6-0.5L61,5l-0.8-0.5l-0.6-0.5l-0.8-0.4l-0.8-0.4l-0.8-0.4l-0.9-0.4l-0.9-0.3
			l-0.8-0.3L54,1.6l-0.9-0.1l-0.9-0.1h-0.9h-0.9H19.6h-1h-0.9l-0.9,0.1L16,1.7l-0.9,0.3l-0.9,0.3l-0.8,0.3l-0.9,0.4l-0.8,0.4
			l-0.8,0.4L10.3,4L9.6,4.5L9,5L8.3,5.5L7.7,6L7.6,6.1L7.1,6.6L6.4,7.2L5.8,7.9L5.3,8.5L4.8,9.3L4.4,9.9l-0.5,0.8l-0.4,0.8l-0.3,0.8
			l-0.4,0.9l-0.3,0.8l-0.3,0.9l-0.3,0.9L2,16.5l-0.1,0.9l-0.1,0.9v0.9v30.9v1l0.1,0.8l0.1,1l0.1,0.9l0.3,0.8l0.3,0.9l0.3,0.8L3.3,57
			l0.3,0.8l0.4,0.8l0.5,0.8l0.4,0.7l0.5,0.6l0.5,0.6L6.4,62l0.6,0.6l0.5,0.6h0.1l0.6,0.6L9,64.2l0.6,0.6l0.8,0.4l0.8,0.5l0.8,0.4
			l0.8,0.3l0.9,0.4l0.8,0.3l0.9,0.3l0.9,0.3l0.8,0.1l0.9,0.1h0.9h1h30.8h0.9h0.9l0.9-0.1l0.9-0.1l0.9-0.3l0.8-0.3l0.9-0.3l0.9-0.4
			l0.8-0.3l0.8-0.4l0.8-0.5l0.6-0.4l0.8-0.6l0.6-0.4l0.6-0.6l0.6-0.6l0.6-0.6l0.5-0.6l0.5-0.6l0.5-0.6l0.5-0.8l0.4-0.8l0.4-0.8
			l0.4-0.8l0.4-0.9l0.3-0.8l0.3-0.9l0.1-0.8l0.3-0.9v-1l0.1-0.8v-1V19.1v-0.9L68,17.4z"/>
		<radialGradient id="SVGID_1_" cx="35.351" cy="34.6228" r="15.9405" gradientUnits="userSpaceOnUse">
			<stop  offset="0.2111" style="stop-color:#FFFFFF"/>
			<stop  offset="0.3558" style="stop-color:#EDEDED"/>
			<stop  offset="0.5922" style="stop-color:#D5D5D5"/>
			<stop  offset="0.8127" style="stop-color:#C7C7C7"/>
			<stop  offset="1" style="stop-color:#C2C2C2"/>
		</radialGradient>
		<circle class="st4" cx="35.4" cy="34.6" r="15.9"/>
	</g>
</g>
<g>
	<path class="st5" d="M164.4,69.3l2-8.5c0.1-0.3,0.1-0.5,0.1-0.6c0-0.2,0-0.3,0-0.4c0-0.4-0.1-0.7-0.4-0.9c-0.3-0.2-0.8-0.3-1.5-0.4
		l0.1-0.5h6.7v0.5c-0.7,0-1.1,0.2-1.5,0.5c-0.3,0.3-0.6,0.8-0.7,1.4l-2.2,9.5c0,0,0,0.1,0,0.2c-0.1,0.3-0.1,0.5-0.1,0.7
		c0,0.5,0.1,0.8,0.4,1c0.3,0.2,0.7,0.3,1.3,0.3h0.1l-0.1,0.5h-6.5l0.1-0.5c0.6,0,1-0.2,1.3-0.6C163.9,71.1,164.1,70.4,164.4,69.3z"
		/>
	<path class="st5" d="M170.5,72.5l1.8-8c0,0,0,0,0-0.1c0-0.2,0.1-0.3,0.1-0.4c0-0.3-0.1-0.4-0.3-0.5s-0.5-0.2-0.9-0.2H171l0.1-0.5
		c0.6-0.1,1.2-0.1,1.9-0.2c0.7-0.1,1.3-0.2,2-0.3l-0.6,2.8c0.6-0.9,1.3-1.6,2-2.1s1.4-0.7,2.2-0.7c0.6,0,1.1,0.2,1.4,0.5
		c0.3,0.3,0.5,0.7,0.5,1.3c0,0.1,0,0.3,0,0.5s-0.1,0.4-0.1,0.6l-1.3,4.6c0,0.1,0,0.2-0.1,0.3c-0.1,0.4-0.1,0.6-0.1,0.7
		s0,0.3,0.1,0.3c0.1,0.1,0.1,0.1,0.2,0.1c0.2,0,0.4-0.1,0.6-0.3c0.2-0.2,0.5-0.5,0.8-1l0.4,0.2c-0.5,0.9-1,1.5-1.5,1.9
		s-1.1,0.6-1.6,0.6s-0.8-0.1-1-0.4c-0.2-0.2-0.4-0.6-0.4-1.1c0-0.1,0-0.3,0-0.5s0.1-0.5,0.2-0.9l1.3-4.9c0,0,0-0.1,0-0.2
		c0.1-0.2,0.1-0.4,0.1-0.5c0-0.3-0.1-0.5-0.2-0.6c-0.1-0.1-0.3-0.2-0.6-0.2c-0.7,0-1.4,0.4-2.1,1.3c-0.7,0.9-1.2,2-1.5,3.3l-1,4.3
		h-2.2V72.5z"/>
	<path class="st5" d="M181.2,72.8l0.5-3.4h0.6c0.2,0.9,0.5,1.5,0.9,2c0.4,0.4,1,0.7,1.6,0.7c0.4,0,0.8-0.1,1.1-0.4
		c0.3-0.2,0.4-0.6,0.4-1c0-0.5-0.4-1.2-1.3-2.2c-0.2-0.2-0.3-0.3-0.4-0.4c-0.7-0.8-1.2-1.4-1.4-1.9s-0.3-0.9-0.3-1.4
		c0-0.8,0.3-1.4,0.8-1.8c0.5-0.5,1.2-0.7,2.1-0.7c0.6,0,1.1,0.1,1.7,0.3c0.6,0.2,0.8,0.3,0.9,0.3c0.1,0,0.2,0,0.3-0.1
		s0.2-0.2,0.2-0.4h0.5l-0.5,3.2h-0.5c-0.1-0.8-0.4-1.4-0.8-1.8c-0.4-0.4-0.9-0.7-1.4-0.7c-0.4,0-0.7,0.1-0.9,0.3s-0.4,0.5-0.4,0.8
		c0,0.2,0.1,0.4,0.2,0.7c0.1,0.2,0.3,0.4,0.4,0.6c0.1,0.1,0.2,0.2,0.4,0.4c1.6,1.7,2.4,3,2.4,4c0,0.9-0.3,1.6-0.9,2.1
		c-0.6,0.6-1.4,0.8-2.4,0.8c-0.5,0-1-0.1-1.6-0.3c-0.6-0.2-0.9-0.3-0.9-0.3c-0.1,0-0.2,0-0.3,0.1s-0.2,0.2-0.3,0.4h-0.7V72.8z"/>
	<path class="st5" d="M194,62.7l-1.6,7.3v0.1c-0.1,0.3-0.1,0.5-0.1,0.6c0,0.2,0.1,0.4,0.2,0.6c0.1,0.1,0.3,0.2,0.5,0.2
		c0.3,0,0.7-0.2,1.2-0.6c0.4-0.4,0.9-0.9,1.3-1.6c0.2-0.4,0.4-0.7,0.6-1.1c0.2-0.4,0.3-0.8,0.4-1.3l1-4.3h2.3l-1.8,7.9
		c0,0,0,0,0,0.1s0,0.2,0,0.3c0,0.2,0,0.3,0.1,0.4s0.2,0.1,0.3,0.1c0.2,0,0.4-0.1,0.6-0.3c0.2-0.2,0.5-0.5,0.8-1l0.5,0.2
		c-0.5,0.8-1,1.5-1.5,1.9s-1.1,0.7-1.7,0.7c-0.4,0-0.7-0.1-1-0.4c-0.2-0.2-0.3-0.6-0.3-1c0-0.1,0-0.3,0.1-0.6c0-0.2,0.1-0.6,0.2-1
		c-0.7,1-1.3,1.7-2,2.2s-1.3,0.7-2,0.7c-0.6,0-1-0.2-1.4-0.5s-0.5-0.7-0.5-1.2c0-0.2,0-0.4,0.1-0.8v-0.1l1.3-5.6c0,0,0-0.1,0-0.2
		c0-0.2,0.1-0.3,0.1-0.3c0-0.3-0.1-0.4-0.3-0.5s-0.5-0.2-0.9-0.2h-0.2l0.1-0.5c0.8-0.1,1.5-0.2,2.3-0.3s1.2-0.2,1.3-0.2s0.2,0,0.2,0
		l0.1,0.1C194.1,62.5,194.1,62.6,194,62.7C194,62.6,194,62.6,194,62.7z"/>
	<path class="st5" d="M201,70.6l2.5-10.7v-0.1c0-0.2,0.1-0.3,0.1-0.4c0-0.3-0.1-0.4-0.3-0.6c-0.2-0.1-0.5-0.2-0.9-0.2h-0.2l0.1-0.5
		c0.6-0.1,1.2-0.1,1.9-0.2c0.7-0.1,1.4-0.2,2.2-0.4l-3,12.7c0,0.1,0,0.2,0,0.3c0,0.1,0,0.1,0,0.2c0,0.2,0,0.3,0.1,0.3
		c0.1,0.1,0.1,0.1,0.3,0.1s0.4-0.1,0.6-0.3c0.2-0.2,0.5-0.6,0.8-1.1l0.5,0.2c-0.5,0.9-1,1.5-1.5,2c-0.6,0.5-1.1,0.7-1.7,0.7
		c-0.4,0-0.8-0.1-1-0.4c-0.2-0.2-0.3-0.6-0.3-1c0-0.1,0-0.3,0-0.4C200.9,70.9,201,70.7,201,70.6z"/>
	<path class="st5" d="M214.2,70.4c0,0.1,0,0.1,0,0.2v0.1c0,0.2,0,0.3,0.1,0.4s0.1,0.1,0.3,0.1s0.4-0.1,0.6-0.3
		c0.2-0.2,0.5-0.5,0.8-1l0.4,0.2c-0.5,0.8-0.9,1.5-1.5,1.9c-0.5,0.5-1,0.7-1.5,0.7c-0.4,0-0.7-0.1-0.9-0.4c-0.2-0.2-0.3-0.6-0.3-1
		c0-0.1,0-0.3,0-0.4s0-0.3,0.1-0.6c-0.5,0.8-1,1.3-1.6,1.7c-0.6,0.4-1.2,0.6-1.8,0.6c-0.8,0-1.4-0.3-1.9-0.8
		c-0.5-0.6-0.7-1.3-0.7-2.2c0-0.8,0.2-1.7,0.5-2.6s0.8-1.7,1.4-2.5c0.6-0.8,1.2-1.4,1.9-1.8c0.6-0.4,1.3-0.6,1.9-0.6
		c0.4,0,0.8,0.1,1.1,0.3s0.6,0.4,0.8,0.8l0.3-1.1h2.1L214.2,70.4z M208.6,69.8c0,0.5,0.1,0.9,0.3,1.2c0.2,0.3,0.5,0.4,0.9,0.4
		c0.3,0,0.7-0.1,1-0.4s0.6-0.7,0.9-1.2c0.4-0.8,0.8-1.7,1-2.7c0.3-1,0.4-1.9,0.4-2.6c0-0.5-0.1-0.8-0.3-1s-0.4-0.4-0.8-0.4
		c-0.3,0-0.7,0.1-1,0.4c-0.3,0.3-0.7,0.7-1,1.2c-0.5,0.8-0.9,1.7-1.1,2.6C208.8,68.3,208.6,69.1,208.6,69.8z"/>
	<path class="st5" d="M219,63.5h-1.6l0.1-0.6c1-0.2,1.9-0.6,2.6-1.2c0.7-0.6,1.2-1.3,1.5-2.3h0.7l-0.8,3.2h2.2l-0.2,0.9h-2.2l-1.7,7
		c0,0.1,0,0.2,0,0.2v0.1c0,0.2,0,0.3,0.1,0.4s0.2,0.1,0.3,0.1c0.2,0,0.4-0.1,0.7-0.4c0.3-0.2,0.6-0.6,0.9-1.2l0.4,0.2
		c-0.5,1-1.1,1.7-1.7,2.1c-0.6,0.5-1.2,0.7-1.8,0.7c-0.5,0-0.8-0.1-1.1-0.4c-0.2-0.2-0.3-0.6-0.3-1.1c0-0.1,0-0.2,0-0.4
		c0-0.1,0-0.3,0.1-0.5L219,63.5z"/>
	<path class="st5" d="M230.9,70.4c-0.6,0.8-1.3,1.4-2.1,1.8c-0.7,0.4-1.5,0.6-2.2,0.6c-1,0-1.8-0.3-2.3-0.9
		c-0.6-0.6-0.8-1.4-0.8-2.5c0-0.8,0.2-1.6,0.5-2.5c0.3-0.8,0.8-1.6,1.5-2.3c0.7-0.8,1.4-1.3,2.2-1.7s1.5-0.6,2.3-0.6
		c0.7,0,1.3,0.2,1.7,0.5s0.7,0.8,0.7,1.4c0,1-0.5,1.8-1.4,2.4c-0.9,0.7-2.6,1.3-4.9,1.9v0.1c0,0.3,0,0.5,0,0.7
		c0,0.7,0.1,1.3,0.4,1.7c0.3,0.4,0.7,0.6,1.3,0.6c0.4,0,0.9-0.1,1.3-0.4c0.5-0.2,1-0.6,1.6-1.2L230.9,70.4z M226.1,67.6
		c1.2-0.3,2.2-0.9,3-1.5s1.1-1.4,1.1-2.1c0-0.3-0.1-0.5-0.2-0.7c-0.2-0.2-0.4-0.2-0.7-0.2c-0.6,0-1.2,0.4-1.8,1.2
		C226.9,65.1,226.4,66.2,226.1,67.6z"/>
	<path class="st5" d="M231.7,72.8l0.5-3.4h0.6c0.2,0.9,0.5,1.5,0.9,2c0.4,0.4,1,0.7,1.6,0.7c0.4,0,0.8-0.1,1.1-0.4
		c0.3-0.2,0.4-0.6,0.4-1c0-0.5-0.4-1.2-1.3-2.2c-0.2-0.2-0.3-0.3-0.4-0.4c-0.7-0.8-1.2-1.4-1.4-1.9s-0.3-0.9-0.3-1.4
		c0-0.8,0.3-1.4,0.8-1.8c0.5-0.5,1.2-0.7,2.1-0.7c0.6,0,1.1,0.1,1.7,0.3c0.6,0.2,0.8,0.3,0.9,0.3c0.1,0,0.2,0,0.3-0.1
		s0.2-0.2,0.2-0.4h0.5l-0.5,3.2h-0.5c-0.1-0.8-0.4-1.4-0.8-1.8c-0.4-0.4-0.9-0.7-1.4-0.7c-0.4,0-0.7,0.1-0.9,0.3s-0.4,0.5-0.4,0.8
		c0,0.2,0.1,0.4,0.2,0.7c0.1,0.2,0.3,0.4,0.4,0.6c0.1,0.1,0.2,0.2,0.4,0.4c1.6,1.7,2.4,3,2.4,4c0,0.9-0.3,1.6-0.9,2.1
		c-0.6,0.6-1.4,0.8-2.4,0.8c-0.5,0-1-0.1-1.6-0.3c-0.6-0.2-0.9-0.3-0.9-0.3c-0.1,0-0.2,0-0.3,0.1s-0.2,0.2-0.3,0.4h-0.7V72.8z"/>
	<path class="st5" d="M241.6,69.8c0.4,0,0.7,0.1,1,0.4s0.4,0.6,0.4,1.1c0,0.4-0.1,0.8-0.4,1.1c-0.3,0.3-0.6,0.4-1.1,0.4
		c-0.4,0-0.8-0.1-1-0.4c-0.3-0.3-0.4-0.6-0.4-1.1c0-0.4,0.1-0.8,0.4-1C240.8,70,241.2,69.8,241.6,69.8z"/>
	<path class="st5" d="M257.9,57.9c2,0,3.4,0.3,4.3,0.9c0.9,0.6,1.4,1.5,1.4,2.8c0,1.4-0.6,2.6-1.7,3.3c-1.1,0.8-2.7,1.2-4.7,1.2
		c-0.3,0-0.6,0-0.9,0c-0.3,0-0.7-0.1-1-0.1l-0.9,3.9V70c-0.1,0.4-0.1,0.6-0.1,0.8c0,0.5,0.1,0.8,0.4,1c0.3,0.2,0.7,0.3,1.3,0.3h0.1
		l-0.1,0.5h-6.3l0.1-0.5c0.6,0,1-0.2,1.3-0.6c0.3-0.3,0.5-1,0.8-2.1l2-8.7c0-0.2,0.1-0.4,0.1-0.5c0-0.2,0-0.3,0-0.4
		c0-0.4-0.1-0.6-0.4-0.8c-0.3-0.2-0.8-0.3-1.4-0.4l0.1-0.5h5.6V57.9z M255.6,65.1c0.2,0,0.4,0,0.5,0.1c0.2,0,0.3,0,0.5,0
		c1.3,0,2.4-0.3,3.2-1c0.8-0.7,1.2-1.6,1.2-2.8c0-0.8-0.2-1.4-0.7-1.9s-1.1-0.7-1.9-0.7c-0.5,0-0.8,0.1-1,0.2
		c-0.2,0.2-0.4,0.5-0.5,1.1L255.6,65.1z"/>
	<path class="st5" d="M267.2,64.9c0.5-0.9,1-1.5,1.5-2c0.5-0.4,1-0.7,1.4-0.7s0.7,0.1,1,0.3c0.2,0.2,0.3,0.5,0.3,0.9
		s-0.1,0.8-0.3,1.1c-0.2,0.3-0.5,0.4-0.9,0.4c-0.2,0-0.5-0.1-0.7-0.4c-0.3-0.2-0.4-0.4-0.6-0.4c-0.4,0-0.8,0.4-1.3,1.2
		c-0.5,0.8-0.8,1.8-1.1,3l-0.9,4h-2.3l1.9-7.9c0-0.1,0-0.2,0-0.3c0-0.1,0-0.2,0-0.2c0-0.3-0.1-0.4-0.3-0.5c-0.2-0.1-0.5-0.2-0.9-0.2
		h-0.2l0.1-0.5c0.7-0.1,1.3-0.2,2-0.3c0.6-0.1,1.3-0.2,1.9-0.3L267.2,64.9z"/>
	<path class="st5" d="M275,72.8c-1.1,0-2-0.4-2.7-1.1s-1.1-1.7-1.1-2.8c0-0.8,0.2-1.6,0.5-2.5c0.3-0.8,0.8-1.6,1.5-2.3
		c0.6-0.6,1.2-1.1,1.8-1.4c0.7-0.3,1.3-0.5,2-0.5c1.1,0,2,0.4,2.7,1.1c0.7,0.7,1,1.7,1,2.9c0,0.8-0.2,1.7-0.6,2.5s-0.9,1.6-1.5,2.3
		c-0.6,0.6-1.2,1-1.8,1.3C276.3,72.7,275.6,72.8,275,72.8z M275,72c0.4,0,0.8-0.1,1.2-0.4c0.4-0.3,0.7-0.7,1-1.2
		c0.4-0.8,0.8-1.7,1-2.7c0.3-1,0.4-1.8,0.4-2.7c0-0.7-0.1-1.2-0.4-1.5S277.6,63,277,63c-0.4,0-0.7,0.1-1,0.4
		c-0.3,0.3-0.6,0.6-0.9,1.1c-0.5,0.9-0.9,1.8-1.1,2.8c-0.3,1-0.4,1.9-0.4,2.6s0.1,1.2,0.4,1.5C274.1,71.9,274.5,72,275,72z"/>
	<path class="st5" d="M283.7,63.5h-1.6l0.1-0.6c1-0.2,1.9-0.6,2.6-1.2c0.7-0.6,1.2-1.3,1.5-2.3h0.7l-0.8,3.2h2.2l-0.2,0.9H286
		l-1.7,7c0,0.1,0,0.2,0,0.2v0.1c0,0.2,0,0.3,0.1,0.4s0.2,0.1,0.3,0.1c0.2,0,0.4-0.1,0.7-0.4c0.3-0.2,0.6-0.6,0.9-1.2l0.4,0.2
		c-0.5,1-1.1,1.7-1.7,2.1c-0.6,0.5-1.2,0.7-1.8,0.7c-0.5,0-0.8-0.1-1.1-0.4c-0.2-0.2-0.3-0.6-0.3-1.1c0-0.1,0-0.2,0-0.4
		c0-0.1,0-0.3,0.1-0.5L283.7,63.5z"/>
	<path class="st5" d="M295.6,70.4c-0.6,0.8-1.3,1.4-2.1,1.8c-0.7,0.4-1.5,0.6-2.2,0.6c-1,0-1.8-0.3-2.3-0.9
		c-0.6-0.6-0.8-1.4-0.8-2.5c0-0.8,0.2-1.6,0.5-2.5c0.3-0.8,0.8-1.6,1.5-2.3c0.7-0.8,1.4-1.3,2.2-1.7c0.8-0.4,1.5-0.6,2.3-0.6
		c0.7,0,1.3,0.2,1.7,0.5c0.4,0.3,0.7,0.8,0.7,1.4c0,1-0.5,1.8-1.4,2.4c-0.9,0.7-2.6,1.3-4.9,1.9v0.1c0,0.3,0,0.5,0,0.7
		c0,0.7,0.1,1.3,0.4,1.7c0.3,0.4,0.7,0.6,1.3,0.6c0.4,0,0.9-0.1,1.3-0.4c0.5-0.2,1-0.6,1.6-1.2L295.6,70.4z M290.8,67.6
		c1.2-0.3,2.2-0.9,3-1.5c0.8-0.7,1.1-1.4,1.1-2.1c0-0.3-0.1-0.5-0.2-0.7c-0.2-0.2-0.4-0.2-0.7-0.2c-0.6,0-1.2,0.4-1.8,1.2
		C291.6,65.1,291.1,66.2,290.8,67.6z"/>
	<path class="st5" d="M304.6,70.6c-0.7,0.8-1.4,1.3-2.1,1.7c-0.7,0.4-1.4,0.6-2.2,0.6c-1,0-1.9-0.3-2.5-0.9s-0.9-1.5-0.9-2.6
		c0-0.7,0.1-1.3,0.3-2c0.2-0.6,0.5-1.3,0.8-1.9c0.6-1,1.3-1.8,2.2-2.4c0.9-0.6,1.8-0.8,2.8-0.8c0.8,0,1.4,0.2,1.9,0.5
		c0.5,0.4,0.7,0.8,0.7,1.4c0,0.4-0.1,0.7-0.3,0.9c-0.2,0.2-0.5,0.3-0.9,0.3c-0.3,0-0.6-0.1-0.8-0.3c-0.2-0.2-0.3-0.4-0.3-0.7
		c0-0.2,0.1-0.4,0.2-0.7c0.2-0.2,0.2-0.4,0.2-0.4c0-0.1-0.1-0.3-0.2-0.3c-0.1-0.1-0.3-0.1-0.5-0.1c-0.4,0-0.8,0.2-1.3,0.5
		c-0.4,0.3-0.8,0.8-1.2,1.4c-0.4,0.6-0.7,1.3-0.9,2.1c-0.2,0.8-0.3,1.5-0.3,2.3s0.2,1.3,0.5,1.7c0.3,0.4,0.8,0.6,1.4,0.6
		c0.4,0,0.8-0.1,1.2-0.3c0.4-0.2,1-0.6,1.6-1.2L304.6,70.6z"/>
	<path class="st5" d="M307.8,63.5h-1.6l0.1-0.6c1-0.2,1.9-0.6,2.6-1.2c0.7-0.6,1.2-1.3,1.5-2.3h0.7l-0.8,3.2h2.2l-0.2,0.9h-2.2
		l-1.7,7c0,0.1,0,0.2,0,0.2v0.1c0,0.2,0,0.3,0.1,0.4s0.2,0.1,0.3,0.1c0.2,0,0.4-0.1,0.7-0.4c0.3-0.2,0.6-0.6,0.9-1.2l0.4,0.2
		c-0.5,1-1.1,1.7-1.7,2.1c-0.6,0.5-1.2,0.7-1.8,0.7c-0.5,0-0.8-0.1-1.1-0.4c-0.2-0.2-0.3-0.6-0.3-1.1c0-0.1,0-0.2,0-0.4
		c0-0.1,0-0.3,0.1-0.5L307.8,63.5z"/>
	<path class="st5" d="M311.7,72.8l0.5-3.4h0.6c0.2,0.9,0.5,1.5,0.9,2c0.4,0.4,1,0.7,1.6,0.7c0.4,0,0.8-0.1,1.1-0.4
		c0.3-0.2,0.4-0.6,0.4-1c0-0.5-0.4-1.2-1.3-2.2c-0.2-0.2-0.3-0.3-0.4-0.4c-0.7-0.8-1.2-1.4-1.4-1.9c-0.2-0.5-0.3-0.9-0.3-1.4
		c0-0.8,0.3-1.4,0.8-1.8c0.5-0.5,1.2-0.7,2.1-0.7c0.6,0,1.1,0.1,1.7,0.3s0.8,0.3,0.9,0.3s0.2,0,0.3-0.1c0.1-0.1,0.2-0.2,0.2-0.4h0.5
		l-0.5,3.2h-0.5c-0.1-0.8-0.4-1.4-0.8-1.8c-0.4-0.4-0.9-0.7-1.4-0.7c-0.4,0-0.7,0.1-0.9,0.3c-0.2,0.2-0.4,0.5-0.4,0.8
		c0,0.2,0.1,0.4,0.2,0.7c0.1,0.2,0.3,0.4,0.4,0.6c0.1,0.1,0.2,0.2,0.4,0.4c1.6,1.7,2.4,3,2.4,4c0,0.9-0.3,1.6-0.9,2.1
		c-0.6,0.6-1.4,0.8-2.4,0.8c-0.5,0-1-0.1-1.6-0.3c-0.6-0.2-0.9-0.3-0.9-0.3c-0.1,0-0.2,0-0.3,0.1c-0.1,0.1-0.2,0.2-0.3,0.4h-0.7
		V72.8z"/>
	<path class="st5" d="M321.6,69.8c0.4,0,0.7,0.1,1,0.4s0.4,0.6,0.4,1.1c0,0.4-0.1,0.8-0.4,1.1c-0.3,0.3-0.6,0.4-1.1,0.4
		c-0.4,0-0.8-0.1-1-0.4c-0.3-0.3-0.4-0.6-0.4-1.1c0-0.4,0.1-0.8,0.4-1C320.8,70,321.2,69.8,321.6,69.8z"/>
	<path class="st5" d="M330.1,72.9l0.8-4.6h0.5c0.1,1.2,0.5,2.1,1.1,2.8c0.6,0.6,1.4,1,2.4,1c0.8,0,1.5-0.3,2.1-0.8
		c0.5-0.5,0.8-1.2,0.8-2c0-0.6-0.2-1.1-0.5-1.6s-1.1-1.2-2.3-2.2c-0.1,0-0.1-0.1-0.3-0.2c-1.8-1.4-2.7-2.7-2.7-4
		c0-1.1,0.4-2,1.2-2.7c0.8-0.7,1.9-1,3.2-1c0.7,0,1.4,0.1,2.1,0.3s1.2,0.3,1.3,0.3c0.2,0,0.4-0.1,0.6-0.2c0.2-0.1,0.3-0.3,0.4-0.5
		h0.6l-0.7,4.4h-0.6c-0.1-1.1-0.5-2-1.1-2.6s-1.4-0.9-2.4-0.9c-0.7,0-1.3,0.2-1.7,0.6c-0.5,0.4-0.7,1-0.7,1.6c0,0.9,0.7,1.8,2.2,2.9
		c0.4,0.3,0.7,0.5,0.9,0.7c1,0.8,1.7,1.5,2.1,2.1s0.6,1.4,0.6,2.2c0,1.2-0.5,2.3-1.4,3.1c-0.9,0.8-2.1,1.2-3.5,1.2
		c-0.7,0-1.4-0.1-2.2-0.4c-0.8-0.3-1.3-0.4-1.4-0.4c-0.2,0-0.4,0.1-0.5,0.2s-0.3,0.3-0.3,0.6h-0.6V72.9z"/>
	<path class="st5" d="M349.4,70.4c0,0.1,0,0.1,0,0.2v0.1c0,0.2,0,0.3,0.1,0.4s0.1,0.1,0.3,0.1c0.2,0,0.4-0.1,0.6-0.3
		c0.2-0.2,0.5-0.5,0.8-1l0.4,0.2c-0.5,0.8-0.9,1.5-1.5,1.9c-0.5,0.5-1,0.7-1.5,0.7c-0.4,0-0.7-0.1-0.9-0.4c-0.2-0.2-0.3-0.6-0.3-1
		c0-0.1,0-0.3,0-0.4s0-0.3,0.1-0.6c-0.5,0.8-1,1.3-1.6,1.7c-0.6,0.4-1.2,0.6-1.8,0.6c-0.8,0-1.4-0.3-1.9-0.8
		c-0.5-0.6-0.7-1.3-0.7-2.2c0-0.8,0.2-1.7,0.5-2.6s0.8-1.7,1.4-2.5c0.6-0.8,1.2-1.4,1.9-1.8c0.6-0.4,1.3-0.6,1.9-0.6
		c0.4,0,0.8,0.1,1.1,0.3c0.3,0.2,0.6,0.4,0.8,0.8l0.3-1.1h2.1L349.4,70.4z M343.8,69.8c0,0.5,0.1,0.9,0.3,1.2
		c0.2,0.3,0.5,0.4,0.9,0.4c0.3,0,0.7-0.1,1-0.4s0.6-0.7,0.9-1.2c0.4-0.8,0.8-1.7,1-2.7c0.3-1,0.4-1.9,0.4-2.6c0-0.5-0.1-0.8-0.3-1
		c-0.2-0.2-0.4-0.4-0.8-0.4c-0.3,0-0.7,0.1-1,0.4c-0.3,0.3-0.7,0.7-1,1.2c-0.5,0.8-0.9,1.7-1.1,2.6C344,68.3,343.8,69.1,343.8,69.8z
		"/>
	<path class="st5" d="M353.7,72.6c0-1.9,0-3.6-0.1-5.1s-0.2-2.6-0.3-3.4c-0.1-0.4-0.2-0.7-0.4-0.8c-0.2-0.1-0.4-0.2-0.8-0.2v-0.4
		c0.5-0.1,1.1-0.2,1.7-0.3s1-0.2,1-0.2c0.2,0,0.4,0,0.4,0.1c0.1,0.1,0.1,0.2,0.1,0.4c0.1,0.7,0.2,1.6,0.2,2.7
		c0.1,1.1,0.1,2.5,0.2,4.2c0.9-1,1.6-1.9,2.1-2.7c0.5-0.8,0.8-1.4,0.8-1.7c0-0.1-0.2-0.4-0.5-0.8s-0.5-0.7-0.5-1s0.1-0.6,0.3-0.8
		c0.2-0.2,0.5-0.3,0.8-0.3c0.4,0,0.8,0.1,1,0.4c0.3,0.3,0.4,0.6,0.4,1.1c0,0.8-0.5,2-1.6,3.5s-2.7,3.4-4.8,5.5L353.7,72.6z"/>
	<path class="st5" d="M367.9,70.4c-0.6,0.8-1.3,1.4-2.1,1.8c-0.7,0.4-1.5,0.6-2.2,0.6c-1,0-1.8-0.3-2.3-0.9
		c-0.6-0.6-0.8-1.4-0.8-2.5c0-0.8,0.2-1.6,0.5-2.5c0.3-0.8,0.8-1.6,1.5-2.3c0.7-0.8,1.4-1.3,2.2-1.7c0.8-0.4,1.5-0.6,2.3-0.6
		c0.7,0,1.3,0.2,1.7,0.5c0.4,0.3,0.7,0.8,0.7,1.4c0,1-0.5,1.8-1.4,2.4c-0.9,0.7-2.6,1.3-4.9,1.9v0.1c0,0.3,0,0.5,0,0.7
		c0,0.7,0.1,1.3,0.4,1.7c0.3,0.4,0.7,0.6,1.3,0.6c0.4,0,0.9-0.1,1.3-0.4c0.5-0.2,1-0.6,1.6-1.2L367.9,70.4z M363,67.6
		c1.2-0.3,2.2-0.9,3-1.5c0.8-0.7,1.1-1.4,1.1-2.1c0-0.3-0.1-0.5-0.2-0.7c-0.2-0.2-0.4-0.2-0.7-0.2c-0.6,0-1.2,0.4-1.8,1.2
		C363.9,65.1,363.4,66.2,363,67.6z"/>
	<path class="st5" d="M368.7,72.8l0.5-3.4h0.6c0.2,0.9,0.5,1.5,0.9,2c0.4,0.4,1,0.7,1.6,0.7c0.4,0,0.8-0.1,1.1-0.4
		c0.3-0.2,0.4-0.6,0.4-1c0-0.5-0.4-1.2-1.3-2.2c-0.2-0.2-0.3-0.3-0.4-0.4c-0.7-0.8-1.2-1.4-1.4-1.9c-0.2-0.5-0.3-0.9-0.3-1.4
		c0-0.8,0.3-1.4,0.8-1.8c0.5-0.5,1.2-0.7,2.1-0.7c0.6,0,1.1,0.1,1.7,0.3s0.8,0.3,0.9,0.3s0.2,0,0.3-0.1c0.1-0.1,0.2-0.2,0.2-0.4h0.5
		l-0.5,3.2h-0.5c-0.1-0.8-0.4-1.4-0.8-1.8c-0.4-0.4-0.9-0.7-1.4-0.7c-0.4,0-0.7,0.1-0.9,0.3c-0.2,0.2-0.4,0.5-0.4,0.8
		c0,0.2,0.1,0.4,0.2,0.7c0.1,0.2,0.3,0.4,0.4,0.6c0.1,0.1,0.2,0.2,0.4,0.4c1.6,1.7,2.4,3,2.4,4c0,0.9-0.3,1.6-0.9,2.1
		c-0.6,0.6-1.4,0.8-2.4,0.8c-0.5,0-1-0.1-1.6-0.3c-0.6-0.2-0.9-0.3-0.9-0.3c-0.1,0-0.2,0-0.3,0.1c-0.1,0.1-0.2,0.2-0.3,0.4h-0.7
		V72.8z"/>
	<path class="st5" d="M378.5,69.8c0.4,0,0.7,0.1,1,0.4s0.4,0.6,0.4,1.1c0,0.4-0.1,0.8-0.4,1.1c-0.3,0.3-0.6,0.4-1.1,0.4
		c-0.4,0-0.8-0.1-1-0.4c-0.3-0.3-0.4-0.6-0.4-1.1c0-0.4,0.1-0.8,0.4-1C377.8,70,378.1,69.8,378.5,69.8z"/>
</g>
</svg>
