<?xml version="1.0" encoding="utf-8"?>
<!-- Generator: Adobe Illustrator 23.1.1, SVG Export Plug-In . SVG Version: 6.00 Build 0)  -->
<svg version="1.1" id="Layer_2" xmlns="http://www.w3.org/2000/svg" xmlns:xlink="http://www.w3.org/1999/xlink" x="0px" y="0px"
	 viewBox="0 0 380 80" style="enable-background:new 0 0 380 80;" xml:space="preserve">
<style type="text/css">
	.st0{fill:#FFFFFF;}
	.st1{fill-rule:evenodd;clip-rule:evenodd;fill:#FFFFFF;}
</style>
<g>
	<path class="st0" d="M374.46,71.98c0.43,0,0.79,0.16,1.09,0.47c0.3,0.32,0.45,0.69,0.45,1.14c0,0.45-0.15,0.82-0.44,1.13
		c-0.3,0.3-0.67,0.45-1.13,0.45c-0.45,0-0.82-0.15-1.1-0.44c-0.29-0.3-0.43-0.68-0.43-1.15c0-0.43,0.15-0.8,0.45-1.12
		C373.66,72.14,374.03,71.98,374.46,71.98z M369.73,72.6l-0.03,0.21c-0.01,0.05-0.01,0.09-0.01,0.13c0,0.2,0.03,0.34,0.09,0.44
		c0.06,0.1,0.15,0.15,0.27,0.15c0.19,0,0.4-0.11,0.63-0.32c0.23-0.21,0.51-0.58,0.84-1.11l0.46,0.26c-0.49,0.88-1.01,1.56-1.58,2.06
		c-0.56,0.49-1.11,0.73-1.64,0.73c-0.41,0-0.72-0.13-0.94-0.38c-0.21-0.26-0.32-0.63-0.32-1.12c0-0.13,0.01-0.27,0.02-0.43
		c0.01-0.15,0.05-0.34,0.09-0.6c-0.49,0.81-1.05,1.43-1.68,1.87c-0.63,0.44-1.28,0.65-1.95,0.65c-0.82,0-1.49-0.3-1.99-0.9
		c-0.5-0.6-0.76-1.41-0.76-2.39c0-0.89,0.18-1.81,0.53-2.77c0.36-0.95,0.86-1.85,1.51-2.7c0.66-0.85,1.32-1.48,1.99-1.9
		c0.67-0.42,1.34-0.63,2.02-0.63c0.44,0,0.82,0.09,1.14,0.28c0.33,0.18,0.62,0.46,0.86,0.86l0.27-1.14h2.27L369.73,72.6z
		 M363.79,71.98c0,0.55,0.12,0.98,0.35,1.28c0.24,0.3,0.57,0.45,1,0.45c0.36,0,0.72-0.15,1.08-0.46c0.37-0.31,0.68-0.73,0.96-1.27
		c0.45-0.88,0.81-1.86,1.09-2.94c0.28-1.08,0.42-2.02,0.42-2.82c0-0.49-0.1-0.87-0.29-1.12c-0.19-0.25-0.47-0.38-0.83-0.38
		c-0.34,0-0.7,0.15-1.06,0.46c-0.36,0.3-0.71,0.73-1.05,1.3c-0.51,0.84-0.92,1.77-1.22,2.8C363.94,70.29,363.79,71.2,363.79,71.98z
		 M357.13,66.7c0.53-0.92,1.06-1.62,1.58-2.1c0.53-0.47,1.02-0.72,1.5-0.72c0.43,0,0.78,0.13,1.03,0.37
		c0.25,0.25,0.37,0.59,0.37,1.01c0,0.47-0.12,0.85-0.35,1.14c-0.24,0.28-0.55,0.43-0.93,0.43c-0.24,0-0.49-0.13-0.76-0.4
		c-0.27-0.26-0.48-0.39-0.62-0.39c-0.43,0-0.89,0.42-1.38,1.26c-0.5,0.84-0.9,1.91-1.2,3.21l-1.01,4.31h-2.5l1.97-8.5
		c0.02-0.11,0.04-0.21,0.05-0.29c0.01-0.09,0.02-0.17,0.02-0.25c0-0.27-0.1-0.47-0.29-0.58c-0.19-0.12-0.51-0.18-0.97-0.18h-0.19
		l0.15-0.53c0.72-0.07,1.42-0.17,2.11-0.27c0.69-0.11,1.38-0.22,2.06-0.35L357.13,66.7z M348.61,66.7c0.53-0.92,1.06-1.62,1.58-2.1
		c0.52-0.47,1.02-0.72,1.49-0.72c0.44,0,0.78,0.13,1.03,0.37c0.25,0.25,0.37,0.59,0.37,1.01c0,0.47-0.12,0.85-0.35,1.14
		c-0.24,0.28-0.54,0.43-0.92,0.43c-0.24,0-0.5-0.13-0.76-0.4c-0.27-0.26-0.48-0.39-0.62-0.39c-0.43,0-0.89,0.42-1.39,1.26
		c-0.5,0.84-0.89,1.91-1.19,3.21l-1.01,4.31h-2.5l1.97-8.5c0.02-0.11,0.04-0.21,0.05-0.29c0.01-0.09,0.01-0.17,0.01-0.25
		c0-0.27-0.09-0.47-0.29-0.58c-0.19-0.12-0.51-0.18-0.97-0.18h-0.19l0.14-0.53c0.72-0.07,1.42-0.17,2.12-0.27
		c0.69-0.11,1.38-0.22,2.06-0.35L348.61,66.7z M337.08,75.16c-1.18,0-2.15-0.39-2.92-1.18c-0.76-0.79-1.14-1.79-1.14-3.01
		c0-0.88,0.18-1.76,0.55-2.62c0.37-0.87,0.9-1.68,1.59-2.45c0.61-0.65,1.26-1.15,1.96-1.49c0.7-0.34,1.42-0.51,2.16-0.51
		c1.19,0,2.16,0.4,2.9,1.18c0.73,0.78,1.1,1.81,1.1,3.09c0,0.88-0.2,1.78-0.59,2.69c-0.4,0.91-0.95,1.71-1.63,2.41
		c-0.64,0.63-1.28,1.11-1.95,1.43C338.44,75,337.77,75.16,337.08,75.16z M337.08,74.33c0.46,0,0.87-0.15,1.25-0.44
		c0.37-0.29,0.72-0.73,1.02-1.32c0.45-0.9,0.82-1.87,1.09-2.9c0.27-1.03,0.4-1.98,0.4-2.84c0-0.71-0.14-1.25-0.42-1.6
		c-0.27-0.36-0.69-0.53-1.24-0.53c-0.39,0-0.75,0.13-1.1,0.41c-0.34,0.27-0.66,0.68-0.96,1.22c-0.5,0.93-0.91,1.92-1.22,2.98
		c-0.31,1.06-0.46,1.99-0.46,2.8c0,0.72,0.14,1.27,0.42,1.65C336.15,74.14,336.56,74.33,337.08,74.33z M320.6,74.84l3.15-13.51
		c0.02-0.1,0.04-0.19,0.05-0.28c0.01-0.09,0.02-0.17,0.02-0.24c0-0.27-0.1-0.47-0.29-0.59c-0.19-0.12-0.52-0.17-0.98-0.17h-0.18
		l0.13-0.53c0.78-0.08,1.53-0.18,2.26-0.28c0.73-0.1,1.42-0.21,2.08-0.34l-1.84,7.68c0.62-0.88,1.27-1.55,1.98-2.01
		c0.71-0.45,1.46-0.67,2.25-0.67c0.66,0,1.17,0.17,1.53,0.5c0.37,0.34,0.55,0.8,0.55,1.39c0,0.13-0.02,0.31-0.05,0.51
		c-0.03,0.2-0.08,0.43-0.15,0.68l-1.34,4.96l-0.09,0.34c-0.11,0.4-0.16,0.66-0.16,0.76c0,0.15,0.03,0.27,0.1,0.37
		c0.06,0.09,0.15,0.14,0.26,0.14c0.21,0,0.43-0.1,0.65-0.31c0.23-0.21,0.52-0.58,0.87-1.12l0.46,0.26
		c-0.52,0.92-1.06,1.61-1.62,2.06c-0.56,0.46-1.14,0.68-1.75,0.68c-0.49,0-0.85-0.13-1.1-0.39c-0.25-0.26-0.38-0.65-0.38-1.16
		c0-0.15,0.01-0.33,0.05-0.52c0.03-0.19,0.1-0.5,0.2-0.93l1.41-5.2l0.05-0.18c0.06-0.26,0.09-0.46,0.09-0.58
		c0-0.29-0.07-0.5-0.21-0.63c-0.14-0.13-0.36-0.2-0.67-0.2c-0.72,0-1.45,0.47-2.2,1.42c-0.76,0.95-1.3,2.12-1.63,3.5l-1.1,4.59
		H320.6z M314.37,59.03h0.86l2.85,13.83c0.06,0.28,0.14,0.52,0.25,0.7c0.11,0.18,0.25,0.31,0.42,0.4c0.1,0.06,0.24,0.12,0.41,0.17
		c0.17,0.05,0.36,0.1,0.58,0.13l-0.12,0.58h-6.34l0.08-0.58h0.18c0.54,0,0.95-0.12,1.25-0.35c0.29-0.24,0.44-0.57,0.44-1.01
		c0-0.04,0-0.1-0.01-0.17l-0.04-0.25l-0.5-2.49h-5.71l-1.32,2.35c-0.07,0.1-0.12,0.22-0.15,0.34c-0.03,0.12-0.05,0.25-0.05,0.4
		c0,0.39,0.13,0.68,0.38,0.88c0.25,0.2,0.62,0.3,1.11,0.3h0.17l-0.14,0.58h-5.39l0.09-0.58c0.47,0,0.9-0.13,1.3-0.41
		c0.39-0.27,0.76-0.69,1.11-1.26L314.37,59.03z M313.31,62.74l-3.71,6.18h4.89L313.31,62.74z M295.59,71.98
		c0.43,0,0.79,0.16,1.09,0.47c0.3,0.32,0.45,0.69,0.45,1.14c0,0.45-0.15,0.82-0.44,1.13c-0.3,0.3-0.67,0.45-1.13,0.45
		c-0.45,0-0.81-0.15-1.1-0.44c-0.29-0.3-0.43-0.68-0.43-1.15c0-0.43,0.15-0.8,0.45-1.12C294.79,72.14,295.16,71.98,295.59,71.98z
		 M292.28,72.62c-0.69,0.82-1.42,1.45-2.2,1.87c-0.78,0.42-1.57,0.64-2.39,0.64c-1.07,0-1.9-0.32-2.5-0.97
		c-0.6-0.64-0.89-1.54-0.89-2.67c0-0.87,0.19-1.75,0.55-2.64c0.37-0.9,0.89-1.73,1.55-2.5c0.72-0.81,1.49-1.43,2.3-1.85
		c0.82-0.42,1.65-0.64,2.49-0.64c0.75,0,1.35,0.19,1.82,0.56c0.46,0.37,0.69,0.86,0.69,1.45c0,1.03-0.5,1.9-1.51,2.61
		c-1.01,0.71-2.76,1.4-5.26,2.08v0.13c-0.03,0.34-0.04,0.57-0.04,0.7c0,0.78,0.16,1.37,0.47,1.78c0.32,0.41,0.77,0.61,1.37,0.61
		c0.46,0,0.94-0.13,1.43-0.39c0.5-0.27,1.05-0.68,1.67-1.25L292.28,72.62z M287.12,69.63c1.31-0.37,2.36-0.92,3.17-1.65
		c0.81-0.73,1.21-1.48,1.21-2.24c0-0.31-0.09-0.55-0.26-0.73c-0.17-0.18-0.41-0.27-0.7-0.27c-0.66,0-1.3,0.44-1.91,1.31
		C288.01,66.93,287.51,68.12,287.12,69.63z M278,71.1c-0.23,0.16-0.41,0.33-0.54,0.5c-0.13,0.18-0.2,0.34-0.2,0.51
		c0,0.37,0.52,0.65,1.57,0.84c0.19,0.04,0.33,0.06,0.43,0.08c1.29,0.26,2.14,0.58,2.56,0.96c0.42,0.38,0.63,0.95,0.63,1.72
		c0,1.12-0.49,2.05-1.47,2.78c-0.98,0.73-2.24,1.09-3.78,1.09c-1.29,0-2.3-0.23-3.03-0.68c-0.73-0.45-1.1-1.06-1.1-1.86
		c0-0.61,0.21-1.14,0.65-1.59c0.43-0.45,1.08-0.81,1.94-1.08c-0.18-0.17-0.32-0.34-0.4-0.54c-0.09-0.2-0.14-0.4-0.14-0.63
		c0-0.43,0.18-0.83,0.52-1.22c0.35-0.39,0.85-0.73,1.49-1.04c-0.64-0.28-1.13-0.69-1.47-1.21c-0.34-0.52-0.5-1.12-0.5-1.81
		c0-1.12,0.42-2.07,1.27-2.86c0.85-0.79,1.88-1.18,3.09-1.18c0.35,0,0.72,0.04,1.11,0.1c0.38,0.06,0.81,0.17,1.28,0.32l2.55-0.09
		l-0.31,1.52h-1.03c0.05,0.21,0.08,0.41,0.1,0.6c0.02,0.19,0.04,0.36,0.04,0.53c0,1.25-0.45,2.28-1.33,3.08
		c-0.89,0.8-2.05,1.19-3.49,1.19l-0.22-0.01L278,71.1z M279.64,64.63c-0.58,0-1.08,0.4-1.5,1.19c-0.41,0.8-0.62,1.76-0.62,2.9
		c0,0.55,0.1,0.96,0.3,1.23c0.2,0.27,0.5,0.41,0.9,0.41c0.33,0,0.61-0.11,0.85-0.31c0.24-0.21,0.45-0.54,0.66-1.01
		c0.19-0.43,0.34-0.92,0.45-1.46c0.11-0.54,0.17-1.04,0.17-1.49c0-0.49-0.1-0.86-0.31-1.1C280.33,64.75,280.03,64.63,279.64,64.63z
		 M276.68,74.84c-0.63,0.13-1.11,0.37-1.44,0.72c-0.34,0.34-0.51,0.75-0.51,1.22c0,0.6,0.25,1.08,0.76,1.43
		c0.51,0.35,1.2,0.53,2.07,0.53c0.95,0,1.72-0.21,2.34-0.62c0.62-0.42,0.93-0.93,0.93-1.54c0-0.66-1.19-1.21-3.59-1.63L276.68,74.84
		z M272.71,72.62c-0.69,0.82-1.42,1.45-2.2,1.87c-0.78,0.42-1.58,0.64-2.39,0.64c-1.07,0-1.9-0.32-2.5-0.97
		c-0.6-0.64-0.9-1.54-0.9-2.67c0-0.87,0.19-1.75,0.56-2.64c0.37-0.9,0.89-1.73,1.55-2.5c0.72-0.81,1.49-1.43,2.3-1.85
		c0.82-0.42,1.65-0.64,2.49-0.64c0.75,0,1.35,0.19,1.82,0.56c0.46,0.37,0.69,0.86,0.69,1.45c0,1.03-0.5,1.9-1.52,2.61
		c-1.01,0.71-2.76,1.4-5.25,2.08v0.13c-0.03,0.34-0.05,0.57-0.05,0.7c0,0.78,0.16,1.37,0.47,1.78c0.31,0.41,0.77,0.61,1.37,0.61
		c0.46,0,0.94-0.13,1.43-0.39c0.49-0.27,1.05-0.68,1.67-1.25L272.71,72.62z M267.55,69.63c1.31-0.37,2.36-0.92,3.17-1.65
		c0.81-0.73,1.21-1.48,1.21-2.24c0-0.31-0.09-0.55-0.25-0.73c-0.17-0.18-0.41-0.27-0.71-0.27c-0.65,0-1.29,0.44-1.91,1.31
		C268.44,66.93,267.94,68.12,267.55,69.63z M259.79,65.16h-1.66l0.11-0.67c1.12-0.22,2.02-0.63,2.72-1.24
		c0.7-0.6,1.24-1.44,1.61-2.51h0.8l-0.85,3.46h2.34l-0.23,0.97h-2.32l-1.8,7.45l-0.03,0.24l-0.01,0.12c0,0.18,0.04,0.31,0.11,0.4
		c0.07,0.09,0.18,0.14,0.32,0.14c0.22,0,0.48-0.13,0.75-0.4c0.28-0.27,0.6-0.68,0.95-1.23l0.46,0.25c-0.58,1.03-1.17,1.79-1.76,2.27
		c-0.6,0.48-1.23,0.73-1.91,0.73c-0.51,0-0.88-0.13-1.13-0.39c-0.24-0.26-0.37-0.65-0.37-1.19c0-0.12,0-0.24,0.02-0.38
		c0.01-0.13,0.04-0.3,0.09-0.5L259.79,65.16z M250.28,75.16c-1.18,0-2.15-0.39-2.91-1.18c-0.77-0.79-1.15-1.79-1.15-3.01
		c0-0.88,0.18-1.76,0.55-2.62c0.37-0.87,0.9-1.68,1.59-2.45c0.6-0.65,1.26-1.15,1.96-1.49c0.7-0.34,1.42-0.51,2.16-0.51
		c1.19,0,2.16,0.4,2.89,1.18c0.74,0.78,1.11,1.81,1.11,3.09c0,0.88-0.2,1.78-0.6,2.69c-0.39,0.91-0.94,1.71-1.63,2.41
		c-0.63,0.63-1.28,1.11-1.94,1.43C251.64,75,250.97,75.16,250.28,75.16z M250.29,74.33c0.45,0,0.87-0.15,1.25-0.44
		c0.38-0.29,0.72-0.73,1.02-1.32c0.45-0.9,0.82-1.87,1.08-2.9c0.27-1.03,0.4-1.98,0.4-2.84c0-0.71-0.13-1.25-0.41-1.6
		c-0.28-0.36-0.69-0.53-1.24-0.53c-0.39,0-0.76,0.13-1.1,0.41c-0.34,0.27-0.66,0.68-0.96,1.22c-0.5,0.93-0.91,1.92-1.22,2.98
		c-0.31,1.06-0.46,1.99-0.46,2.8c0,0.72,0.14,1.27,0.42,1.65C249.35,74.14,249.75,74.33,250.29,74.33z M241.8,66.7
		c0.53-0.92,1.06-1.62,1.58-2.1c0.52-0.47,1.02-0.72,1.49-0.72c0.44,0,0.78,0.13,1.03,0.37c0.25,0.25,0.37,0.59,0.37,1.01
		c0,0.47-0.12,0.85-0.35,1.14c-0.24,0.28-0.54,0.43-0.93,0.43c-0.24,0-0.49-0.13-0.76-0.4c-0.27-0.26-0.48-0.39-0.62-0.39
		c-0.43,0-0.88,0.42-1.38,1.26c-0.5,0.84-0.89,1.91-1.19,3.21l-1.01,4.31h-2.5l1.97-8.5c0.02-0.11,0.04-0.21,0.05-0.29
		c0.01-0.09,0.02-0.17,0.02-0.25c0-0.27-0.1-0.47-0.29-0.58s-0.51-0.18-0.97-0.18h-0.19l0.14-0.53c0.72-0.07,1.42-0.17,2.11-0.27
		c0.69-0.11,1.38-0.22,2.06-0.35L241.8,66.7z M231.69,59.21c2.1,0,3.64,0.31,4.6,0.94c0.96,0.63,1.45,1.61,1.45,2.96
		c0,1.54-0.59,2.73-1.76,3.57c-1.17,0.84-2.84,1.26-5.01,1.26c-0.29,0-0.61-0.01-0.94-0.03c-0.33-0.02-0.69-0.06-1.07-0.11
		l-0.94,4.15L228,72.07c-0.07,0.39-0.11,0.66-0.11,0.83c0,0.5,0.13,0.87,0.41,1.08c0.28,0.22,0.73,0.33,1.37,0.33h0.12l-0.06,0.53
		h-6.71l0.09-0.53c0.6-0.05,1.05-0.26,1.35-0.6c0.31-0.35,0.59-1.11,0.85-2.28l2.17-9.36c0.05-0.2,0.08-0.38,0.1-0.55
		c0.02-0.17,0.03-0.32,0.03-0.44c0-0.39-0.16-0.69-0.47-0.91c-0.31-0.21-0.82-0.35-1.5-0.43l0.16-0.53L231.69,59.21L231.69,59.21z
		 M229.17,66.87c0.19,0.02,0.37,0.04,0.56,0.06c0.19,0.02,0.37,0.02,0.54,0.02c1.42,0,2.55-0.37,3.38-1.1
		c0.83-0.73,1.25-1.72,1.25-2.96c0-0.84-0.27-1.52-0.8-2.05c-0.53-0.53-1.22-0.79-2.07-0.79c-0.51,0-0.87,0.09-1.07,0.27
		c-0.21,0.17-0.38,0.57-0.53,1.19L229.17,66.87z M213.83,71.98c0.43,0,0.79,0.16,1.09,0.47c0.31,0.32,0.45,0.69,0.45,1.14
		c0,0.45-0.15,0.82-0.44,1.13c-0.3,0.3-0.67,0.45-1.13,0.45c-0.45,0-0.82-0.15-1.1-0.44c-0.29-0.3-0.43-0.68-0.43-1.15
		c0-0.43,0.15-0.8,0.45-1.12C213.03,72.14,213.39,71.98,213.83,71.98z M209.1,72.6l-0.03,0.21c-0.01,0.05-0.01,0.09-0.01,0.13
		c0,0.2,0.03,0.34,0.09,0.44c0.06,0.1,0.16,0.15,0.27,0.15c0.19,0,0.4-0.11,0.63-0.32c0.22-0.21,0.5-0.58,0.84-1.11l0.46,0.26
		c-0.48,0.88-1.01,1.56-1.58,2.06c-0.57,0.49-1.11,0.73-1.64,0.73c-0.41,0-0.72-0.13-0.94-0.38c-0.21-0.26-0.32-0.63-0.32-1.12
		c0-0.13,0.01-0.27,0.02-0.43c0.01-0.15,0.04-0.34,0.09-0.6c-0.49,0.81-1.05,1.43-1.68,1.87c-0.63,0.44-1.27,0.65-1.95,0.65
		c-0.82,0-1.48-0.3-1.99-0.9c-0.5-0.6-0.76-1.41-0.76-2.39c0-0.89,0.18-1.81,0.53-2.77c0.36-0.95,0.86-1.85,1.51-2.7
		c0.66-0.85,1.32-1.48,1.99-1.9c0.67-0.42,1.34-0.63,2.02-0.63c0.44,0,0.82,0.09,1.14,0.28c0.33,0.18,0.62,0.46,0.86,0.86l0.27-1.14
		h2.27L209.1,72.6z M203.16,71.98c0,0.55,0.12,0.98,0.35,1.28c0.24,0.3,0.57,0.45,1.01,0.45c0.36,0,0.72-0.15,1.08-0.46
		c0.36-0.31,0.68-0.73,0.96-1.27c0.45-0.88,0.82-1.86,1.09-2.94c0.28-1.08,0.42-2.02,0.42-2.82c0-0.49-0.1-0.87-0.29-1.12
		c-0.19-0.25-0.47-0.38-0.83-0.38c-0.34,0-0.7,0.15-1.06,0.46c-0.36,0.3-0.71,0.73-1.05,1.3c-0.51,0.84-0.91,1.77-1.22,2.8
		C203.32,70.29,203.16,71.2,203.16,71.98z M194.8,72.76l2.71-11.43c0-0.02,0.01-0.06,0.02-0.11c0.04-0.2,0.07-0.34,0.07-0.42
		c0-0.27-0.1-0.47-0.29-0.59c-0.19-0.12-0.52-0.17-0.98-0.17h-0.18l0.11-0.53c0.64-0.06,1.31-0.14,2.04-0.24
		c0.72-0.1,1.49-0.23,2.3-0.38l-3.22,13.64c-0.02,0.11-0.04,0.2-0.05,0.28c-0.01,0.08-0.01,0.16-0.01,0.21
		c0,0.17,0.03,0.29,0.09,0.37c0.06,0.08,0.16,0.12,0.28,0.12c0.18,0,0.38-0.12,0.6-0.35c0.22-0.23,0.49-0.62,0.82-1.17l0.48,0.24
		c-0.48,0.93-1.02,1.64-1.62,2.14c-0.59,0.5-1.2,0.75-1.84,0.75c-0.47,0-0.83-0.13-1.07-0.37c-0.25-0.25-0.37-0.62-0.37-1.1
		c0-0.15,0.01-0.31,0.03-0.45C194.73,73.05,194.76,72.91,194.8,72.76z M185.18,75.16l0.55-3.64h0.62c0.19,0.93,0.51,1.62,0.97,2.1
		c0.45,0.48,1.02,0.72,1.7,0.72c0.46,0,0.84-0.13,1.13-0.4c0.28-0.27,0.43-0.61,0.43-1.03c0-0.55-0.47-1.32-1.4-2.32l-0.39-0.43
		c-0.77-0.84-1.28-1.51-1.52-1.99c-0.24-0.49-0.36-1-0.36-1.53c0-0.8,0.29-1.46,0.87-1.98c0.57-0.52,1.32-0.77,2.23-0.77
		c0.59,0,1.18,0.1,1.78,0.29c0.6,0.19,0.9,0.28,0.92,0.28c0.12,0,0.23-0.05,0.32-0.15c0.1-0.1,0.18-0.24,0.24-0.42h0.53l-0.5,3.42
		h-0.58c-0.14-0.84-0.42-1.49-0.84-1.95c-0.42-0.47-0.92-0.7-1.51-0.7c-0.4,0-0.74,0.11-0.99,0.34c-0.26,0.22-0.39,0.5-0.39,0.83
		c0,0.22,0.06,0.45,0.17,0.7c0.12,0.25,0.27,0.48,0.47,0.69c0.11,0.11,0.26,0.27,0.45,0.47c1.71,1.78,2.56,3.21,2.56,4.29
		c0,0.92-0.33,1.68-0.99,2.27c-0.66,0.6-1.51,0.89-2.55,0.89c-0.54,0-1.11-0.1-1.71-0.3c-0.6-0.2-0.94-0.3-1-0.3
		c-0.13,0-0.25,0.05-0.36,0.16c-0.11,0.1-0.2,0.26-0.28,0.47L185.18,75.16L185.18,75.16z M184.53,72.22
		c-0.48,0.94-1.02,1.66-1.62,2.15c-0.59,0.49-1.21,0.74-1.86,0.74c-0.5,0-0.86-0.13-1.11-0.38c-0.25-0.25-0.37-0.63-0.37-1.14
		c0-0.11,0.01-0.24,0.03-0.39c0.02-0.14,0.05-0.29,0.09-0.44l1.78-6.42c0.03-0.1,0.05-0.2,0.06-0.28c0.01-0.09,0.02-0.17,0.02-0.26
		c0-0.27-0.1-0.46-0.29-0.58c-0.19-0.12-0.51-0.18-0.98-0.18h-0.18l0.12-0.53c0.8-0.08,1.57-0.18,2.3-0.28
		c0.74-0.1,1.44-0.21,2.1-0.34l-2.3,8.63c-0.04,0.15-0.06,0.26-0.07,0.33c-0.01,0.07-0.01,0.13-0.01,0.17
		c0,0.16,0.03,0.28,0.11,0.36c0.07,0.08,0.17,0.13,0.3,0.13c0.17,0,0.37-0.12,0.57-0.34c0.21-0.22,0.49-0.62,0.83-1.18L184.53,72.22
		z M182.53,60.41c0-0.4,0.15-0.75,0.44-1.05c0.3-0.3,0.65-0.45,1.05-0.45c0.41,0,0.76,0.15,1.06,0.44c0.29,0.29,0.43,0.64,0.43,1.06
		c0,0.4-0.15,0.76-0.45,1.06c-0.3,0.29-0.65,0.44-1.04,0.44c-0.4,0-0.76-0.15-1.05-0.44C182.68,61.17,182.53,60.81,182.53,60.41z
		 M172.09,62.74l-3.71,6.18h4.89L172.09,62.74z M173.15,59.03h0.86l2.84,13.83c0.06,0.28,0.14,0.52,0.25,0.7
		c0.11,0.18,0.25,0.31,0.42,0.4c0.11,0.06,0.25,0.12,0.41,0.17c0.17,0.05,0.36,0.1,0.57,0.13l-0.11,0.58h-6.34l0.08-0.58h0.18
		c0.54,0,0.95-0.12,1.25-0.35c0.3-0.24,0.45-0.57,0.45-1.01c0-0.04,0-0.1-0.01-0.17l-0.04-0.25l-0.5-2.49h-5.71l-1.32,2.35
		c-0.06,0.1-0.12,0.22-0.14,0.34c-0.03,0.12-0.05,0.25-0.05,0.4c0,0.39,0.12,0.68,0.38,0.88c0.25,0.2,0.63,0.3,1.11,0.3h0.17
		l-0.15,0.58h-5.39l0.09-0.58c0.47,0,0.9-0.13,1.3-0.41c0.4-0.27,0.77-0.69,1.11-1.26L173.15,59.03z"/>
	<path class="st1" d="M173.15,59.03h0.86l2.84,13.83c0.06,0.28,0.14,0.52,0.25,0.7c0.11,0.18,0.25,0.31,0.42,0.4
		c0.11,0.06,0.25,0.12,0.41,0.17c0.17,0.05,0.36,0.1,0.57,0.13l-0.11,0.58h-6.34l0.08-0.58h0.18c0.54,0,0.95-0.12,1.25-0.35
		c0.3-0.24,0.45-0.57,0.45-1.01c0-0.04,0-0.1-0.01-0.17c-0.01-0.06-0.02-0.15-0.04-0.25l-0.5-2.49h-5.71l-1.32,2.35
		c-0.06,0.1-0.12,0.22-0.14,0.34c-0.03,0.12-0.05,0.25-0.05,0.4c0,0.39,0.12,0.68,0.38,0.88c0.25,0.2,0.63,0.3,1.11,0.3h0.17
		l-0.15,0.58h-5.39l0.09-0.58c0.47,0,0.9-0.13,1.3-0.41c0.4-0.27,0.77-0.69,1.11-1.26L173.15,59.03z M172.09,62.74l-3.71,6.18h4.89
		L172.09,62.74z"/>
	<path class="st1" d="M184.53,72.22c-0.48,0.94-1.02,1.66-1.62,2.15c-0.59,0.49-1.21,0.74-1.86,0.74c-0.5,0-0.86-0.13-1.11-0.38
		c-0.25-0.25-0.37-0.63-0.37-1.14c0-0.11,0.01-0.24,0.03-0.39c0.02-0.14,0.05-0.29,0.09-0.44l1.78-6.42c0.03-0.1,0.05-0.2,0.06-0.28
		c0.01-0.09,0.02-0.17,0.02-0.26c0-0.27-0.1-0.46-0.29-0.58s-0.51-0.18-0.98-0.18h-0.18l0.12-0.53c0.8-0.08,1.57-0.18,2.3-0.28
		c0.74-0.1,1.44-0.21,2.1-0.34l-2.3,8.63c-0.04,0.15-0.06,0.26-0.07,0.33c-0.01,0.07-0.01,0.13-0.01,0.17
		c0,0.16,0.03,0.28,0.11,0.36c0.07,0.08,0.17,0.13,0.31,0.13c0.17,0,0.37-0.12,0.57-0.34c0.21-0.22,0.49-0.62,0.83-1.18
		L184.53,72.22z M182.53,60.41c0-0.4,0.15-0.75,0.44-1.05c0.3-0.3,0.65-0.45,1.05-0.45c0.41,0,0.76,0.15,1.06,0.44
		c0.29,0.29,0.43,0.64,0.43,1.06c0,0.4-0.15,0.76-0.45,1.06c-0.3,0.29-0.65,0.44-1.04,0.44c-0.4,0-0.76-0.15-1.05-0.44
		C182.68,61.17,182.53,60.81,182.53,60.41z"/>
	<path class="st1" d="M185.18,75.16l0.55-3.64h0.62c0.19,0.93,0.51,1.62,0.97,2.1c0.45,0.48,1.02,0.72,1.7,0.72
		c0.46,0,0.84-0.13,1.13-0.4c0.28-0.27,0.43-0.61,0.43-1.03c0-0.55-0.47-1.32-1.4-2.32c-0.17-0.19-0.31-0.33-0.39-0.43
		c-0.77-0.84-1.28-1.51-1.52-1.99c-0.24-0.49-0.36-1-0.36-1.53c0-0.8,0.29-1.46,0.87-1.98c0.57-0.52,1.32-0.77,2.23-0.77
		c0.59,0,1.18,0.1,1.78,0.29c0.6,0.19,0.9,0.28,0.92,0.28c0.12,0,0.23-0.05,0.32-0.15c0.1-0.1,0.18-0.24,0.24-0.42h0.53l-0.5,3.42
		h-0.58c-0.14-0.84-0.42-1.49-0.84-1.95c-0.42-0.47-0.92-0.7-1.51-0.7c-0.4,0-0.74,0.11-0.99,0.34c-0.26,0.22-0.39,0.5-0.39,0.83
		c0,0.22,0.06,0.45,0.17,0.7c0.12,0.25,0.27,0.48,0.47,0.69c0.11,0.11,0.26,0.27,0.45,0.47c1.71,1.78,2.56,3.21,2.56,4.29
		c0,0.92-0.33,1.68-0.99,2.27c-0.66,0.6-1.51,0.89-2.55,0.89c-0.54,0-1.11-0.1-1.71-0.3c-0.6-0.2-0.94-0.3-1-0.3
		c-0.13,0-0.25,0.05-0.36,0.16c-0.11,0.1-0.2,0.26-0.28,0.47L185.18,75.16L185.18,75.16z"/>
	<path class="st1" d="M194.8,72.76l2.71-11.43c0-0.02,0.01-0.06,0.02-0.11c0.04-0.2,0.07-0.34,0.07-0.42c0-0.27-0.1-0.47-0.29-0.59
		c-0.19-0.12-0.52-0.17-0.98-0.17h-0.18l0.11-0.53c0.64-0.06,1.31-0.14,2.04-0.24c0.72-0.1,1.49-0.23,2.3-0.38l-3.22,13.64
		c-0.02,0.11-0.04,0.2-0.05,0.28c-0.01,0.08-0.01,0.16-0.01,0.21c0,0.17,0.03,0.29,0.09,0.37c0.06,0.08,0.16,0.12,0.28,0.12
		c0.18,0,0.38-0.12,0.6-0.35c0.22-0.23,0.49-0.62,0.82-1.17l0.48,0.24c-0.48,0.93-1.02,1.64-1.62,2.14c-0.59,0.5-1.2,0.75-1.84,0.75
		c-0.47,0-0.83-0.13-1.07-0.37c-0.25-0.25-0.37-0.62-0.37-1.1c0-0.15,0.01-0.31,0.03-0.45C194.73,73.05,194.76,72.91,194.8,72.76z"
		/>
	<path class="st1" d="M209.1,72.6c-0.01,0.09-0.02,0.16-0.03,0.21c-0.01,0.05-0.01,0.09-0.01,0.13c0,0.2,0.03,0.34,0.09,0.44
		c0.06,0.1,0.16,0.15,0.27,0.15c0.19,0,0.4-0.11,0.63-0.32c0.22-0.21,0.5-0.58,0.84-1.11l0.46,0.26c-0.48,0.88-1.01,1.56-1.58,2.06
		c-0.57,0.49-1.11,0.73-1.64,0.73c-0.41,0-0.72-0.13-0.94-0.38s-0.32-0.63-0.32-1.12c0-0.13,0.01-0.27,0.02-0.43
		c0.01-0.15,0.04-0.34,0.09-0.6c-0.49,0.81-1.05,1.43-1.68,1.87c-0.63,0.44-1.27,0.65-1.95,0.65c-0.82,0-1.48-0.3-1.99-0.9
		c-0.5-0.6-0.76-1.41-0.76-2.39c0-0.89,0.18-1.81,0.53-2.77c0.36-0.95,0.86-1.85,1.51-2.7c0.66-0.85,1.32-1.48,1.99-1.9
		c0.67-0.42,1.34-0.63,2.02-0.63c0.44,0,0.82,0.09,1.14,0.28c0.33,0.18,0.62,0.46,0.86,0.86l0.27-1.14h2.27L209.1,72.6z
		 M203.16,71.98c0,0.55,0.12,0.98,0.35,1.28c0.24,0.3,0.57,0.45,1.01,0.45c0.36,0,0.72-0.15,1.08-0.46
		c0.36-0.31,0.68-0.73,0.96-1.27c0.45-0.88,0.82-1.86,1.09-2.94c0.28-1.08,0.42-2.02,0.42-2.82c0-0.49-0.1-0.87-0.29-1.12
		c-0.19-0.25-0.47-0.38-0.83-0.38c-0.34,0-0.7,0.15-1.06,0.46c-0.36,0.3-0.71,0.73-1.05,1.3c-0.51,0.84-0.91,1.77-1.22,2.8
		C203.32,70.29,203.16,71.2,203.16,71.98z"/>
	<path class="st1" d="M213.83,71.98c0.43,0,0.79,0.16,1.09,0.47c0.3,0.32,0.45,0.69,0.45,1.14c0,0.45-0.15,0.82-0.44,1.13
		c-0.3,0.3-0.67,0.45-1.13,0.45c-0.45,0-0.82-0.15-1.1-0.44c-0.29-0.3-0.43-0.68-0.43-1.15c0-0.43,0.15-0.8,0.45-1.12
		C213.03,72.14,213.39,71.98,213.83,71.98z"/>
	<path class="st1" d="M231.69,59.21c2.1,0,3.64,0.31,4.6,0.94c0.96,0.63,1.45,1.61,1.45,2.96c0,1.54-0.59,2.73-1.76,3.57
		c-1.17,0.84-2.84,1.26-5.01,1.26c-0.29,0-0.61-0.01-0.94-0.03c-0.33-0.02-0.69-0.06-1.07-0.11l-0.94,4.15
		c0,0.03-0.01,0.07-0.02,0.11c-0.07,0.39-0.11,0.66-0.11,0.83c0,0.5,0.13,0.87,0.41,1.08c0.28,0.22,0.73,0.33,1.37,0.33h0.12
		l-0.06,0.53h-6.71l0.09-0.53c0.6-0.05,1.05-0.26,1.35-0.6c0.31-0.35,0.59-1.11,0.85-2.28l2.17-9.36c0.05-0.2,0.08-0.38,0.1-0.55
		c0.02-0.17,0.03-0.32,0.03-0.44c0-0.39-0.16-0.69-0.47-0.91c-0.31-0.21-0.82-0.35-1.5-0.43l0.16-0.53L231.69,59.21L231.69,59.21z
		 M229.17,66.87c0.19,0.02,0.37,0.04,0.56,0.06c0.19,0.02,0.37,0.02,0.54,0.02c1.42,0,2.55-0.37,3.38-1.1
		c0.83-0.73,1.25-1.72,1.25-2.96c0-0.84-0.27-1.52-0.8-2.05c-0.53-0.53-1.22-0.79-2.07-0.79c-0.51,0-0.87,0.09-1.07,0.27
		c-0.21,0.17-0.38,0.57-0.53,1.19L229.17,66.87z"/>
	<path class="st1" d="M241.8,66.7c0.53-0.92,1.06-1.62,1.58-2.1c0.52-0.47,1.02-0.72,1.49-0.72c0.44,0,0.78,0.13,1.03,0.37
		c0.25,0.25,0.37,0.59,0.37,1.01c0,0.47-0.12,0.85-0.35,1.14c-0.24,0.28-0.54,0.43-0.93,0.43c-0.24,0-0.49-0.13-0.76-0.4
		c-0.27-0.26-0.48-0.39-0.62-0.39c-0.43,0-0.88,0.42-1.38,1.26c-0.5,0.84-0.89,1.91-1.19,3.21l-1.01,4.31h-2.5l1.97-8.5
		c0.02-0.11,0.04-0.21,0.05-0.29c0.01-0.09,0.02-0.17,0.02-0.25c0-0.27-0.1-0.47-0.29-0.58s-0.51-0.18-0.97-0.18h-0.19l0.14-0.53
		c0.72-0.07,1.42-0.17,2.11-0.27c0.69-0.11,1.38-0.22,2.06-0.35L241.8,66.7z"/>
	<path class="st1" d="M250.28,75.16c-1.18,0-2.15-0.39-2.91-1.18c-0.77-0.79-1.15-1.79-1.15-3.01c0-0.88,0.18-1.76,0.55-2.62
		c0.37-0.87,0.9-1.68,1.59-2.45c0.6-0.65,1.26-1.15,1.96-1.49c0.7-0.34,1.42-0.51,2.16-0.51c1.19,0,2.16,0.4,2.89,1.18
		c0.74,0.78,1.11,1.81,1.11,3.09c0,0.88-0.2,1.78-0.6,2.69c-0.39,0.91-0.94,1.71-1.63,2.41c-0.63,0.63-1.28,1.11-1.94,1.43
		C251.64,75,250.97,75.16,250.28,75.16z M250.29,74.33c0.45,0,0.87-0.15,1.25-0.44c0.38-0.29,0.72-0.73,1.02-1.32
		c0.45-0.9,0.82-1.87,1.08-2.9c0.27-1.03,0.4-1.98,0.4-2.84c0-0.71-0.13-1.25-0.41-1.6c-0.28-0.36-0.69-0.53-1.24-0.53
		c-0.39,0-0.76,0.13-1.1,0.41c-0.34,0.27-0.66,0.68-0.96,1.22c-0.5,0.93-0.91,1.92-1.22,2.98c-0.31,1.06-0.46,1.99-0.46,2.8
		c0,0.72,0.14,1.27,0.42,1.65C249.35,74.14,249.75,74.33,250.29,74.33z"/>
	<path class="st1" d="M259.79,65.16h-1.66l0.11-0.67c1.12-0.22,2.02-0.63,2.72-1.24c0.7-0.6,1.24-1.44,1.61-2.51h0.8l-0.85,3.46
		h2.34l-0.23,0.97h-2.32l-1.8,7.45c-0.01,0.1-0.02,0.18-0.03,0.24c0,0.05-0.01,0.09-0.01,0.12c0,0.18,0.04,0.31,0.11,0.4
		c0.07,0.09,0.18,0.14,0.32,0.14c0.22,0,0.48-0.13,0.75-0.4c0.28-0.27,0.6-0.68,0.95-1.23l0.46,0.25c-0.58,1.03-1.17,1.79-1.76,2.27
		c-0.6,0.48-1.23,0.73-1.91,0.73c-0.51,0-0.88-0.13-1.13-0.39c-0.24-0.26-0.37-0.65-0.37-1.19c0-0.12,0-0.24,0.02-0.38
		c0.01-0.13,0.04-0.3,0.09-0.5L259.79,65.16z"/>
	<path class="st1" d="M272.71,72.62c-0.69,0.82-1.42,1.45-2.2,1.87c-0.78,0.42-1.58,0.64-2.39,0.64c-1.07,0-1.9-0.32-2.5-0.97
		c-0.6-0.64-0.9-1.54-0.9-2.67c0-0.87,0.19-1.75,0.56-2.64c0.37-0.9,0.89-1.73,1.55-2.5c0.72-0.81,1.49-1.43,2.3-1.85
		c0.82-0.42,1.65-0.64,2.49-0.64c0.74,0,1.35,0.19,1.82,0.56c0.46,0.37,0.69,0.86,0.69,1.45c0,1.03-0.5,1.9-1.52,2.61
		c-1.01,0.71-2.76,1.4-5.25,2.08c0,0.03,0,0.07,0,0.13c-0.03,0.34-0.05,0.57-0.05,0.7c0,0.78,0.16,1.37,0.47,1.78
		c0.31,0.41,0.77,0.61,1.37,0.61c0.46,0,0.94-0.13,1.43-0.39c0.49-0.27,1.05-0.68,1.67-1.25L272.71,72.62z M267.55,69.63
		c1.31-0.37,2.36-0.92,3.17-1.65c0.81-0.73,1.21-1.48,1.21-2.24c0-0.31-0.09-0.55-0.25-0.73c-0.17-0.18-0.41-0.27-0.71-0.27
		c-0.65,0-1.29,0.44-1.91,1.31C268.44,66.93,267.94,68.12,267.55,69.63z"/>
	<path class="st1" d="M278,71.1c-0.23,0.16-0.41,0.33-0.54,0.5c-0.13,0.18-0.2,0.34-0.2,0.51c0,0.37,0.52,0.65,1.57,0.84
		c0.19,0.04,0.33,0.06,0.43,0.08c1.29,0.26,2.14,0.58,2.56,0.96c0.42,0.38,0.63,0.95,0.63,1.72c0,1.12-0.49,2.05-1.47,2.78
		c-0.98,0.73-2.24,1.09-3.78,1.09c-1.29,0-2.3-0.23-3.03-0.68c-0.73-0.45-1.1-1.06-1.1-1.86c0-0.61,0.21-1.14,0.65-1.59
		c0.43-0.45,1.08-0.81,1.95-1.08c-0.18-0.17-0.32-0.34-0.4-0.54c-0.09-0.2-0.14-0.4-0.14-0.63c0-0.43,0.18-0.83,0.52-1.22
		c0.35-0.39,0.85-0.73,1.49-1.04c-0.64-0.28-1.13-0.69-1.47-1.21c-0.34-0.52-0.5-1.12-0.5-1.81c0-1.12,0.42-2.07,1.27-2.86
		c0.85-0.79,1.88-1.18,3.09-1.18c0.35,0,0.72,0.04,1.11,0.1c0.38,0.06,0.81,0.17,1.28,0.32l2.55-0.09l-0.31,1.52h-1.03
		c0.05,0.21,0.08,0.41,0.1,0.6c0.02,0.19,0.04,0.36,0.04,0.53c0,1.25-0.44,2.28-1.33,3.08s-2.05,1.19-3.49,1.19
		c-0.05,0-0.12,0-0.22-0.01C278.12,71.11,278.04,71.1,278,71.1z M279.64,64.63c-0.58,0-1.08,0.4-1.5,1.19
		c-0.41,0.8-0.62,1.76-0.62,2.9c0,0.55,0.1,0.96,0.3,1.23c0.2,0.27,0.5,0.41,0.9,0.41c0.33,0,0.61-0.11,0.85-0.31
		c0.24-0.21,0.45-0.54,0.66-1.01c0.19-0.43,0.34-0.92,0.45-1.46c0.11-0.54,0.17-1.04,0.17-1.49c0-0.49-0.1-0.86-0.31-1.1
		C280.33,64.75,280.03,64.63,279.64,64.63z M276.68,74.84c-0.63,0.13-1.11,0.37-1.44,0.72c-0.34,0.34-0.51,0.75-0.51,1.22
		c0,0.6,0.25,1.08,0.76,1.43c0.51,0.35,1.2,0.53,2.07,0.53c0.95,0,1.72-0.21,2.34-0.62c0.62-0.42,0.93-0.93,0.93-1.54
		c0-0.66-1.2-1.21-3.59-1.63C276.99,74.89,276.8,74.86,276.68,74.84z"/>
	<path class="st1" d="M292.28,72.62c-0.69,0.82-1.42,1.45-2.2,1.87c-0.78,0.42-1.57,0.64-2.39,0.64c-1.07,0-1.9-0.32-2.5-0.97
		c-0.6-0.64-0.89-1.54-0.89-2.67c0-0.87,0.19-1.75,0.55-2.64c0.37-0.9,0.89-1.73,1.55-2.5c0.72-0.81,1.49-1.43,2.3-1.85
		c0.82-0.42,1.65-0.64,2.49-0.64c0.75,0,1.35,0.19,1.82,0.56c0.46,0.37,0.69,0.86,0.69,1.45c0,1.03-0.5,1.9-1.51,2.61
		c-1.01,0.71-2.76,1.4-5.26,2.08c0,0.03,0,0.07,0,0.13c-0.03,0.34-0.04,0.57-0.04,0.7c0,0.78,0.16,1.37,0.47,1.78
		c0.32,0.41,0.77,0.61,1.37,0.61c0.46,0,0.94-0.13,1.43-0.39c0.5-0.27,1.05-0.68,1.67-1.25L292.28,72.62z M287.12,69.63
		c1.31-0.37,2.36-0.92,3.17-1.65c0.81-0.73,1.21-1.48,1.21-2.24c0-0.31-0.09-0.55-0.26-0.73c-0.17-0.18-0.41-0.27-0.7-0.27
		c-0.66,0-1.3,0.44-1.91,1.31C288.01,66.93,287.51,68.12,287.12,69.63z"/>
	<path class="st1" d="M295.59,71.98c0.43,0,0.79,0.16,1.09,0.47c0.3,0.32,0.45,0.69,0.45,1.14c0,0.45-0.15,0.82-0.44,1.13
		c-0.3,0.3-0.67,0.45-1.13,0.45c-0.45,0-0.81-0.15-1.1-0.44c-0.29-0.3-0.43-0.68-0.43-1.15c0-0.43,0.15-0.8,0.45-1.12
		C294.79,72.14,295.16,71.98,295.59,71.98z"/>
	<path class="st1" d="M314.37,59.03h0.86l2.85,13.83c0.06,0.28,0.14,0.52,0.25,0.7c0.11,0.18,0.25,0.31,0.42,0.4
		c0.1,0.06,0.24,0.12,0.41,0.17c0.17,0.05,0.36,0.1,0.58,0.13l-0.12,0.58h-6.34l0.08-0.58h0.18c0.54,0,0.95-0.12,1.25-0.35
		c0.29-0.24,0.44-0.57,0.44-1.01c0-0.04,0-0.1-0.01-0.17c-0.01-0.06-0.02-0.15-0.04-0.25l-0.5-2.49h-5.71l-1.32,2.35
		c-0.07,0.1-0.12,0.22-0.15,0.34c-0.03,0.12-0.05,0.25-0.05,0.4c0,0.39,0.13,0.68,0.38,0.88c0.25,0.2,0.62,0.3,1.11,0.3h0.17
		l-0.14,0.58h-5.39l0.09-0.58c0.47,0,0.9-0.13,1.3-0.41c0.39-0.27,0.76-0.69,1.11-1.26L314.37,59.03z M313.31,62.74l-3.71,6.18h4.89
		L313.31,62.74z"/>
	<path class="st1" d="M320.6,74.84l3.15-13.51c0.02-0.1,0.04-0.19,0.05-0.28c0.01-0.09,0.02-0.17,0.02-0.24
		c0-0.27-0.1-0.47-0.29-0.59c-0.19-0.12-0.52-0.17-0.98-0.17h-0.18l0.13-0.53c0.78-0.08,1.53-0.18,2.26-0.28
		c0.73-0.1,1.42-0.21,2.08-0.34l-1.84,7.68c0.62-0.88,1.27-1.55,1.98-2.01c0.71-0.45,1.46-0.67,2.25-0.67c0.66,0,1.17,0.17,1.53,0.5
		c0.37,0.34,0.55,0.8,0.55,1.39c0,0.13-0.02,0.31-0.05,0.51c-0.03,0.2-0.08,0.43-0.15,0.68l-1.34,4.96
		c-0.02,0.08-0.05,0.2-0.09,0.34c-0.11,0.4-0.16,0.66-0.16,0.76c0,0.15,0.03,0.27,0.1,0.37c0.06,0.09,0.15,0.14,0.26,0.14
		c0.21,0,0.43-0.1,0.65-0.31c0.23-0.21,0.52-0.58,0.87-1.12l0.46,0.26c-0.52,0.92-1.06,1.61-1.62,2.06
		c-0.56,0.46-1.14,0.68-1.75,0.68c-0.49,0-0.85-0.13-1.1-0.39c-0.25-0.26-0.38-0.65-0.38-1.16c0-0.15,0.01-0.33,0.05-0.52
		c0.03-0.19,0.1-0.5,0.2-0.93l1.41-5.2c0.01-0.04,0.02-0.1,0.05-0.18c0.06-0.26,0.09-0.46,0.09-0.58c0-0.29-0.07-0.5-0.21-0.63
		c-0.14-0.13-0.36-0.2-0.67-0.2c-0.72,0-1.45,0.47-2.2,1.42c-0.76,0.95-1.3,2.12-1.63,3.5l-1.1,4.59H320.6z"/>
	<path class="st1" d="M337.08,75.16c-1.18,0-2.15-0.39-2.92-1.18c-0.76-0.79-1.14-1.79-1.14-3.01c0-0.88,0.18-1.76,0.55-2.62
		c0.37-0.87,0.9-1.68,1.59-2.45c0.61-0.65,1.26-1.15,1.96-1.49c0.7-0.34,1.42-0.51,2.16-0.51c1.19,0,2.16,0.4,2.9,1.18
		c0.73,0.78,1.1,1.81,1.1,3.09c0,0.88-0.2,1.78-0.59,2.69c-0.4,0.91-0.95,1.71-1.64,2.41c-0.64,0.63-1.28,1.11-1.95,1.43
		C338.44,75,337.77,75.16,337.08,75.16z M337.08,74.33c0.46,0,0.87-0.15,1.25-0.44c0.37-0.29,0.72-0.73,1.02-1.32
		c0.45-0.9,0.82-1.87,1.09-2.9c0.27-1.03,0.4-1.98,0.4-2.84c0-0.71-0.14-1.25-0.42-1.6c-0.27-0.36-0.69-0.53-1.24-0.53
		c-0.39,0-0.75,0.13-1.1,0.41c-0.34,0.27-0.66,0.68-0.96,1.22c-0.5,0.93-0.91,1.92-1.22,2.98c-0.31,1.06-0.46,1.99-0.46,2.8
		c0,0.72,0.14,1.27,0.42,1.65C336.15,74.14,336.56,74.33,337.08,74.33z"/>
	<path class="st1" d="M348.61,66.7c0.53-0.92,1.06-1.62,1.58-2.1c0.52-0.47,1.02-0.72,1.49-0.72c0.44,0,0.78,0.13,1.03,0.37
		c0.25,0.25,0.37,0.59,0.37,1.01c0,0.47-0.12,0.85-0.35,1.14c-0.24,0.28-0.54,0.43-0.92,0.43c-0.24,0-0.5-0.13-0.76-0.4
		c-0.27-0.26-0.48-0.39-0.62-0.39c-0.43,0-0.89,0.42-1.39,1.26c-0.5,0.84-0.89,1.91-1.19,3.21l-1.01,4.31h-2.5l1.97-8.5
		c0.02-0.11,0.04-0.21,0.05-0.29c0.01-0.09,0.01-0.17,0.01-0.25c0-0.27-0.09-0.47-0.29-0.58c-0.19-0.12-0.51-0.18-0.97-0.18h-0.19
		l0.14-0.53c0.72-0.07,1.42-0.17,2.12-0.27c0.69-0.11,1.38-0.22,2.06-0.35L348.61,66.7z"/>
	<path class="st1" d="M357.13,66.7c0.53-0.92,1.06-1.62,1.58-2.1c0.53-0.47,1.02-0.72,1.5-0.72c0.43,0,0.78,0.13,1.03,0.37
		c0.25,0.25,0.37,0.59,0.37,1.01c0,0.47-0.12,0.85-0.35,1.14c-0.24,0.28-0.55,0.43-0.93,0.43c-0.24,0-0.49-0.13-0.76-0.4
		c-0.27-0.26-0.48-0.39-0.62-0.39c-0.43,0-0.89,0.42-1.38,1.26c-0.5,0.84-0.9,1.91-1.19,3.21l-1.01,4.31h-2.5l1.97-8.5
		c0.02-0.11,0.04-0.21,0.05-0.29c0.01-0.09,0.02-0.17,0.02-0.25c0-0.27-0.1-0.47-0.29-0.58c-0.19-0.12-0.51-0.18-0.97-0.18h-0.19
		l0.15-0.53c0.72-0.07,1.42-0.17,2.11-0.27c0.69-0.11,1.38-0.22,2.06-0.35L357.13,66.7z"/>
	<path class="st1" d="M369.73,72.6c-0.01,0.09-0.02,0.16-0.03,0.21c-0.01,0.05-0.01,0.09-0.01,0.13c0,0.2,0.03,0.34,0.09,0.44
		c0.06,0.1,0.15,0.15,0.27,0.15c0.19,0,0.4-0.11,0.63-0.32c0.23-0.21,0.51-0.58,0.84-1.11l0.46,0.26c-0.49,0.88-1.01,1.56-1.58,2.06
		c-0.56,0.49-1.11,0.73-1.64,0.73c-0.41,0-0.72-0.13-0.94-0.38c-0.21-0.26-0.32-0.63-0.32-1.12c0-0.13,0.01-0.27,0.02-0.43
		c0.01-0.15,0.05-0.34,0.09-0.6c-0.49,0.81-1.05,1.43-1.68,1.87c-0.63,0.44-1.28,0.65-1.95,0.65c-0.82,0-1.49-0.3-1.99-0.9
		c-0.5-0.6-0.76-1.41-0.76-2.39c0-0.89,0.18-1.81,0.53-2.77c0.36-0.95,0.86-1.85,1.51-2.7c0.66-0.85,1.32-1.48,1.99-1.9
		c0.67-0.42,1.34-0.63,2.02-0.63c0.44,0,0.82,0.09,1.14,0.28c0.33,0.18,0.62,0.46,0.86,0.86l0.27-1.14h2.27L369.73,72.6z
		 M363.79,71.98c0,0.55,0.12,0.98,0.35,1.28c0.24,0.3,0.57,0.45,1,0.45c0.36,0,0.72-0.15,1.08-0.46c0.37-0.31,0.68-0.73,0.96-1.27
		c0.45-0.88,0.81-1.86,1.09-2.94c0.28-1.08,0.42-2.02,0.42-2.82c0-0.49-0.1-0.87-0.29-1.12c-0.19-0.25-0.47-0.38-0.83-0.38
		c-0.34,0-0.7,0.15-1.06,0.46c-0.36,0.3-0.71,0.73-1.05,1.3c-0.51,0.84-0.92,1.77-1.22,2.8C363.95,70.29,363.79,71.2,363.79,71.98z"
		/>
	<path class="st1" d="M374.46,71.98c0.43,0,0.79,0.16,1.09,0.47c0.31,0.32,0.45,0.69,0.45,1.14c0,0.45-0.15,0.82-0.44,1.13
		c-0.3,0.3-0.67,0.45-1.13,0.45c-0.45,0-0.82-0.15-1.1-0.44c-0.29-0.3-0.43-0.68-0.43-1.15c0-0.43,0.15-0.8,0.45-1.12
		C373.66,72.14,374.03,71.98,374.46,71.98z"/>
	<path class="st1" d="M289.66,18.11v9.46l-2.17-0.24l-1.94-0.24l-1.81-0.12l-1.57-0.25h-1.33l-1.33-0.12h-1.2h-1.21h-1.69h-1.45
		l-1.08,0.12l-0.73,0.12l-0.48,0.25l-0.36,0.24l-0.24,0.12v0.24l-0.12,0.12v0.24v0.12l0.12,0.13v0.24l0.24,0.12l0.36,0.24l0.48,0.24
		l0.6,0.12h0.85l0.85,0.12l1.09,0.12h0.84h0.73h0.72h0.61H280l1.44,0.24l1.45,0.12l1.2,0.25l1.21,0.24l0.97,0.36l0.97,0.48
		l0.84,0.49l0.61,0.48l0.6,0.73l0.48,0.73l0.48,0.73l0.37,0.85l0.12,0.97l0.24,0.97v1.21v0.73v0.61l-0.24,0.73v0.61l-0.24,0.61
		l-0.12,0.73l-0.36,0.48l-0.25,0.61l-0.36,0.48l-0.24,0.61l-0.48,0.48l-0.37,0.48l-0.48,0.36l-0.48,0.49l-0.61,0.36l-0.48,0.36
		l-1.33,0.85l-1.45,0.48l-1.45,0.48l-1.81,0.49l-1.81,0.24l-1.94,0.24l-2.17,0.12l-2.3,0.12h-2.05l-2.06-0.12l-1.93-0.12l-2.17-0.12
		l-1.94-0.24l-2.05-0.24l-2.18-0.24l-2.05-0.37v-8.86l2.18,0.37l2.17,0.24l2.05,0.24l2.06,0.24l1.93,0.12l1.81,0.24h1.7h1.57h0.97
		h0.72l0.61-0.12l0.48-0.12l0.25-0.24l0.24-0.12l0.12-0.24v-0.37V39.7v-0.24l-0.24-0.12l-0.25-0.24l-0.24-0.12l-0.24-0.12
		l-0.48-0.12h-0.6h-0.37h-0.72h-0.85l-1.21-0.12h-1.33l-1.09-0.13h-1.08l-0.85-0.12l-1.45-0.24l-1.2-0.24l-1.09-0.24l-1.09-0.36
		l-0.97-0.37l-0.85-0.48l-0.72-0.48l-0.72-0.61l-0.49-0.61l-0.6-0.61l-0.36-0.73l-0.36-0.73l-0.25-0.97l-0.24-0.85l-0.12-0.97v-1.09
		v-0.85l0.12-0.73V26.6l0.24-0.73l0.12-0.73l0.24-0.6l0.12-0.61l0.36-0.61l0.24-0.48l0.48-0.61l0.37-0.48l0.36-0.48l0.6-0.49
		l0.37-0.48l0.6-0.36l0.61-0.36l0.6-0.37l0.72-0.24l0.73-0.36l0.72-0.24l1.7-0.61l1.69-0.36l1.93-0.36l2.18-0.24l2.41-0.12h2.42
		h1.81l1.93,0.12h1.82l1.93,0.24l1.93,0.12l1.93,0.36l1.94,0.24L289.66,18.11z M164.27,49.05V17.62h16.07l6.04,8.74l0.48,0.73
		l0.37,0.61l0.36,0.61l0.48,0.6l0.61,0.97l0.48,0.97v-0.97v-1.21v-0.49v-0.73v-0.73v-0.97v-8.13h15.22v31.43h-14.01l-8.22-10.44
		l-0.84-1.09l-0.73-1.09l-0.6-1.09l-0.61-0.97v0.85l0.12,0.73v0.61v0.73v1.21v0.73v9.83L164.27,49.05L164.27,49.05z M314.66,17.62
		h12.32l10.15,31.43h-16.31l-1.2-4.13h-4.96h-4.95l-1.33,4.13H292.2l10.03-31.43H314.66z M314.66,36.31h3.26l-2.05-6.07l-0.12-0.73
		l-0.24-0.61l-0.12-0.6l-0.12-0.73l-0.12-0.61l-0.25-0.85l-0.12-0.61l-0.12-0.61v-0.12l-0.12,0.73l-0.12,0.85l-0.12,0.61l-0.12,0.73
		l-0.24,0.73l-0.12,0.6l-0.24,0.61l-0.12,0.61l-2.05,6.07L314.66,36.31L314.66,36.31z M118.01,31.58h0.96v9.46h-0.96H100.5v8.01
		H84.43V17.62h33.58h0.96v11.04h-0.96H100.5v2.91H118.01z M229.99,16.65l2.53,0.12l2.54,0.24h1.09l1.21,0.24l0.96,0.24l1.09,0.24
		l0.97,0.24l0.96,0.25l0.85,0.36l0.84,0.36l0.85,0.36l0.73,0.49l0.72,0.48l0.73,0.48l0.6,0.49l0.6,0.61l0.61,0.61l0.48,0.61
		l0.48,0.73l0.36,0.61l0.49,0.73l0.36,0.85l0.24,0.73l0.37,0.85l0.12,0.97l0.24,0.85l0.12,0.85l0.12,0.97v1.09v0.97v1.09v0.97
		l-0.12,0.97l-0.12,0.97l-0.24,0.97l-0.12,0.85l-0.37,0.85l-0.24,0.73l-0.36,0.85l-0.49,0.73l-0.36,0.73l-0.48,0.61l-0.48,0.61
		l-0.61,0.61l-0.6,0.61l-0.6,0.48l-0.73,0.49l-0.72,0.48l-0.73,0.48l-0.85,0.37l-0.84,0.36l-0.85,0.36l-0.96,0.24l-0.97,0.37
		l-1.09,0.24l-0.96,0.12l-1.21,0.24l-1.09,0.12l-2.54,0.24h-2.53h-2.66l-2.42-0.24l-1.21-0.12l-1.2-0.24l-0.97-0.12l-1.09-0.24
		l-0.97-0.37l-0.96-0.24l-0.85-0.36l-0.84-0.36l-0.85-0.37l-0.73-0.48l-0.72-0.48l-0.72-0.49l-0.61-0.48l-0.6-0.61l-0.61-0.61
		l-0.48-0.61l-0.49-0.61l-0.36-0.73l-0.36-0.73l-0.36-0.85l-0.36-0.73l-0.24-0.85l-0.25-0.85l-0.24-0.97l-0.12-0.97v-0.97
		l-0.12-0.97v-1.09v-0.97l0.12-1.09v-0.97l0.12-0.85l0.24-0.85l0.25-0.97l0.24-0.85l0.36-0.73l0.36-0.85l0.36-0.73l0.36-0.61
		l0.49-0.73l0.48-0.61l0.61-0.61l0.6-0.61l0.61-0.49l0.72-0.48l0.72-0.48l0.73-0.49l0.85-0.36l0.84-0.36l0.85-0.36l0.96-0.25
		l0.97-0.24l1.09-0.24l0.97-0.24l1.2-0.24h1.21l2.42-0.24L229.99,16.65z M229.99,40.68h0.48l0.6-0.12l0.49-0.12l0.48-0.24l0.48-0.25
		l0.37-0.24l0.36-0.36l0.36-0.48l0.36-0.37l0.25-0.61l0.24-0.48l0.12-0.61l0.25-0.61l0.12-0.61v-0.85l0.12-0.73l-0.12-0.73v-0.73
		l-0.12-0.73l-0.12-0.61l-0.24-0.6l-0.24-0.48l-0.12-0.61l-0.36-0.36l-0.36-0.48l-0.36-0.24l-0.37-0.25l-0.48-0.24l-0.48-0.24
		l-0.61-0.12h-0.6h-0.48h-0.61h-0.6l-0.61,0.12l-0.48,0.24l-0.48,0.24l-0.37,0.25l-0.36,0.24l-0.36,0.48l-0.25,0.36l-0.24,0.61
		l-0.24,0.48l-0.24,0.6l-0.12,0.61l-0.12,0.73v0.73V34v0.73v0.85l0.12,0.61l0.24,0.61l0.12,0.61l0.24,0.48l0.24,0.61l0.37,0.37
		l0.36,0.48l0.37,0.36l0.36,0.24l0.48,0.25l0.48,0.24l0.49,0.12l0.6,0.12L229.99,40.68L229.99,40.68z M139.63,17.62h12.32
		l10.14,31.43h-16.31l-1.21-4.13h-4.95h-5.07l-1.21,4.13h-15.34h-0.97l0.97-3.03l9.18-28.4H139.63z M139.63,36.31h3.14l-1.93-6.07
		l-0.12-0.73l-0.24-0.61l-0.24-0.6l-0.12-0.73l-0.12-0.61l-0.12-0.85l-0.24-0.61V24.9l-0.12,0.61l-0.24,0.85l-0.12,0.61l-0.12,0.73
		l-0.12,0.73l-0.24,0.6l-0.12,0.61l-0.24,0.61l-1.93,6.07L139.63,36.31L139.63,36.31z"/>
	<path class="st0" d="M64.78,15.3l-0.2-0.49l-0.16-0.73l-0.48-1.21l-0.39-0.57l-0.21-0.52l-1.73-2.3l-1.4-1.4l-1.57-1.09l-0.69-0.3
		l-0.4-0.3l-2.1-0.86l-3.39-0.62h-29.6l-0.72,0.01l-3.41,0.65l-2.99,1.38l-1.7,1.2l-1.88,1.9l-1.51,2.29l-1.03,2.49l-0.2,1.21
		l-0.29,0.73l0.01,0.63L8.6,18.23v14.41h10.58c0.41-9.66,8.32-17.38,18.04-17.38s17.63,7.72,18.04,17.38h9.93V18.96l-0.01-1.59
		L64.78,15.3z"/>
	<path class="st0" d="M37.22,51.59c-9.74,0-17.66-7.75-18.05-17.44H8.6v13.81l0.01,0.72l0.11,0.62v0.6l0.25,0.73l0.28,1.47L10,53.98
		l1.03,1.8l0.79,1.05l0.42,0.41l0.36,0.48l1.11,0.99l2.05,1.46l2.7,1.1l3.4,0.62h30.27l3.45-0.66l2.39-1.02l2.32-1.57l1.39-1.41
		l0.36-0.49l0.78-0.89l0.52-0.85l0.21-0.52l0.31-0.41l0.61-1.5l0.08-0.49l0.28-0.75l0.37-2.06V34.15h-9.93
		C54.89,43.84,46.96,51.59,37.22,51.59z"/>
	<path class="st0" d="M68.16,17.16v0.88v30.71v0.88v0.75l-0.12,0.88l-0.12,0.75l-0.25,0.76l-0.12,0.75l-0.25,0.76l-0.25,0.75
		l-0.37,0.76l-0.38,0.63l-0.38,0.63l-0.37,0.63l-0.5,0.63l-0.5,0.63l-0.5,0.5l-0.24,0.35l-0.26,0.28l-0.5,0.5l-0.62,0.63l-0.63,0.38
		l-0.63,0.51l-0.63,0.38l-0.63,0.37l-0.75,0.38l-0.63,0.38l-0.75,0.25l-0.75,0.25l-0.75,0.25l-0.76,0.13l-0.87,0.13l-0.76,0.13
		L53,64.87h-0.75H21.67h-0.88l-0.75-0.13l-0.88-0.13l-0.75-0.13l-0.75-0.13l-0.75-0.25l-0.75-0.25l-0.75-0.25l-0.75-0.38l-0.63-0.38
		l-0.62-0.37l-0.63-0.38l-0.63-0.51l-0.62-0.38l-0.63-0.63l-0.5-0.5L10,59.69l-0.24-0.24l-0.5-0.5l-0.5-0.63l-0.38-0.63l-0.38-0.63
		l-0.5-0.63l-0.25-0.63l-0.38-0.76l-0.25-0.75l-0.25-0.76l-0.25-0.75L6,52.03l-0.12-0.75l-0.12-0.88l-0.12-0.75v-0.88V18.04v-0.88
		l0.12-0.75l0.12-0.76L6,14.77l0.12-0.76l0.25-0.75l0.25-0.76l0.25-0.75l0.38-0.63l0.25-0.75l0.5-0.63L8.39,9.1l0.38-0.63l0.5-0.63
		l0.5-0.5l0.13-0.13l0.5-0.51l0.5-0.5l0.63-0.5l0.63-0.51l0.63-0.5l0.63-0.38l0.62-0.37l0.63-0.38l0.75-0.38l0.75-0.25l0.75-0.25
		l0.75-0.12l0.75-0.25l0.75-0.13l0.88-0.13h0.75l0.88-0.13h30.58L53,2.05h0.88l0.76,0.13L55.5,2.3l0.76,0.25l0.75,0.12l0.75,0.25
		l0.75,0.25l0.63,0.38l0.75,0.38l0.63,0.37l0.63,0.38l0.63,0.5L62.4,5.7l0.62,0.5l0.5,0.5l0.23,0.24l0.27,0.4l0.5,0.5l0.5,0.63
		l0.5,0.63l0.37,0.63l0.38,0.63l0.38,0.75l0.37,0.63l0.25,0.75l0.25,0.76l0.12,0.75l0.25,0.76l0.12,0.88l0.12,0.76L68.16,17.16
		L68.16,17.16z M69.67,16.28v-0.88l-0.25-0.88l-0.12-0.88l-0.25-0.88L68.79,12l-0.38-0.88l-0.37-0.75L67.66,9.6l-0.38-0.75
		l-0.5-0.63l-0.5-0.75l-0.5-0.63l-0.5-0.63l-0.63-0.63l-0.33-0.37l-0.29-0.27l-0.63-0.5l-0.63-0.5l-0.75-0.51l-0.63-0.5l-0.75-0.37
		l-0.75-0.38L59.14,1.8l-0.88-0.38l-0.88-0.25l-0.75-0.25l-0.88-0.26l-0.87-0.13L54,0.41h-0.88h-0.88H21.67h-1h-0.88l-0.87,0.13
		l-0.75,0.13l-0.88,0.26l-0.87,0.25l-0.76,0.25L14.78,1.8l-0.76,0.38l-0.75,0.38l-0.75,0.37l-0.75,0.5l-0.63,0.51l-0.62,0.5
		l-0.62,0.5L9.76,5.07l-0.5,0.51L8.64,6.2L8.01,6.84l-0.5,0.63L7,8.22L6.63,8.85L6.13,9.6l-0.38,0.76l-0.25,0.75L5.13,12l-0.25,0.75
		l-0.25,0.88l-0.25,0.88l-0.13,0.88l-0.12,0.88L4,17.16v0.88v30.71v1.01l0.12,0.75l0.12,1.01l0.13,0.88l0.25,0.76l0.25,0.88
		l0.25,0.75l0.38,0.88l0.25,0.75l0.38,0.76l0.5,0.75L7,58.7l0.5,0.63l0.5,0.63l0.63,0.63l0.63,0.63l0.5,0.63h0.13l0.63,0.63
		l0.62,0.37l0.63,0.63l0.75,0.38l0.75,0.5l0.75,0.38L14.78,65l0.87,0.38l0.76,0.25l0.87,0.25l0.88,0.25l0.75,0.13l0.87,0.13h0.88h1
		h30.58h0.88H54l0.87-0.13l0.88-0.13l0.88-0.25l0.75-0.25l0.88-0.25L59.14,65l0.75-0.25l0.75-0.38l0.75-0.5l0.63-0.38l0.75-0.63
		l0.63-0.37l0.63-0.63l0.63-0.63l0.63-0.63l0.5-0.63l0.5-0.63l0.5-0.63l0.5-0.76l0.38-0.75l0.38-0.76l0.37-0.75l0.38-0.88l0.25-0.75
		l0.25-0.88l0.12-0.76l0.25-0.88v-1.01l0.12-0.75v-1.01V18.04v-0.88L69.67,16.28z"/>
	<path class="st0" d="M52.96,32.68c-0.39-8.4-7.28-15.09-15.74-15.09c-8.46,0-15.34,6.7-15.74,15.09c-0.01,0.25-0.04,0.5-0.04,0.75
		c0,0.23,0.02,0.46,0.03,0.69c0.37,8.43,7.26,15.15,15.74,15.15c8.48,0,15.37-6.72,15.74-15.15c0.01-0.23,0.04-0.46,0.04-0.69
		C53,33.17,52.97,32.93,52.96,32.68z"/>
</g>
</svg>
