<?xml version="1.0" encoding="utf-8"?>
<!-- Generator: Adobe Illustrator 23.1.1, SVG Export Plug-In . SVG Version: 6.00 Build 0)  -->
<svg version="1.1" xmlns="http://www.w3.org/2000/svg" xmlns:xlink="http://www.w3.org/1999/xlink" x="0px" y="0px"
	 viewBox="0 0 380 80" style="enable-background:new 0 0 380 80;" xml:space="preserve">
<style type="text/css">
	.st0{fill:#5E5F61;}
	.st1{fill-rule:evenodd;clip-rule:evenodd;fill:#2A61AC;}
	.st2{fill-rule:evenodd;clip-rule:evenodd;fill:#5E5F61;}
	.st3{fill-rule:evenodd;clip-rule:evenodd;fill:#E67D25;}
	.st4{clip-path:url(#SVGID_2_);}
	.st5{clip-path:url(#SVGID_4_);}
</style>
<g id="Layer_1">
</g>
<g id="Layer_2">
	<g>
		<path class="st0" d="M164.4,69.3l2-8.5c0.1-0.3,0.1-0.5,0.1-0.6c0-0.2,0-0.3,0-0.4c0-0.4-0.1-0.7-0.4-0.9
			c-0.3-0.2-0.8-0.3-1.5-0.4l0.1-0.5h6.7v0.5c-0.7,0-1.1,0.2-1.5,0.5c-0.3,0.3-0.6,0.8-0.7,1.4l-2.2,9.5c0,0,0,0.1,0,0.2
			c-0.1,0.3-0.1,0.5-0.1,0.7c0,0.5,0.1,0.8,0.4,1c0.3,0.2,0.7,0.3,1.3,0.3h0.1l-0.1,0.5h-6.5l0.1-0.5c0.6,0,1-0.2,1.3-0.6
			C163.9,71.1,164.1,70.4,164.4,69.3z"/>
		<path class="st0" d="M170.5,72.5l1.8-8c0,0,0,0,0-0.1c0-0.2,0.1-0.3,0.1-0.4c0-0.3-0.1-0.4-0.3-0.5c-0.2-0.1-0.5-0.2-0.9-0.2h-0.2
			l0.1-0.5c0.6-0.1,1.2-0.1,1.9-0.2c0.7-0.1,1.3-0.2,2-0.3l-0.6,2.8c0.6-0.9,1.3-1.6,2-2.1c0.7-0.5,1.4-0.7,2.2-0.7
			c0.6,0,1.1,0.2,1.4,0.5c0.3,0.3,0.5,0.7,0.5,1.3c0,0.1,0,0.3,0,0.5c0,0.2-0.1,0.4-0.1,0.6l-1.3,4.6c0,0.1,0,0.2-0.1,0.3
			c-0.1,0.4-0.1,0.6-0.1,0.7c0,0.1,0,0.3,0.1,0.3c0.1,0.1,0.1,0.1,0.2,0.1c0.2,0,0.4-0.1,0.6-0.3c0.2-0.2,0.5-0.5,0.8-1l0.4,0.2
			c-0.5,0.9-1,1.5-1.5,1.9c-0.5,0.4-1.1,0.6-1.6,0.6c-0.5,0-0.8-0.1-1-0.4c-0.2-0.2-0.4-0.6-0.4-1.1c0-0.1,0-0.3,0-0.5
			c0-0.2,0.1-0.5,0.2-0.9l1.3-4.9c0,0,0-0.1,0-0.2c0.1-0.2,0.1-0.4,0.1-0.5c0-0.3-0.1-0.5-0.2-0.6c-0.1-0.1-0.3-0.2-0.6-0.2
			c-0.7,0-1.4,0.4-2.1,1.3c-0.7,0.9-1.2,2-1.5,3.3l-1,4.3H170.5z"/>
		<path class="st0" d="M181.2,72.8l0.5-3.4h0.6c0.2,0.9,0.5,1.5,0.9,2c0.4,0.4,1,0.7,1.6,0.7c0.4,0,0.8-0.1,1.1-0.4
			c0.3-0.2,0.4-0.6,0.4-1c0-0.5-0.4-1.2-1.3-2.2c-0.2-0.2-0.3-0.3-0.4-0.4c-0.7-0.8-1.2-1.4-1.4-1.9c-0.2-0.5-0.3-0.9-0.3-1.4
			c0-0.8,0.3-1.4,0.8-1.8c0.5-0.5,1.2-0.7,2.1-0.7c0.6,0,1.1,0.1,1.7,0.3c0.6,0.2,0.8,0.3,0.9,0.3c0.1,0,0.2,0,0.3-0.1
			c0.1-0.1,0.2-0.2,0.2-0.4h0.5l-0.5,3.2h-0.5c-0.1-0.8-0.4-1.4-0.8-1.8c-0.4-0.4-0.9-0.7-1.4-0.7c-0.4,0-0.7,0.1-0.9,0.3
			c-0.2,0.2-0.4,0.5-0.4,0.8c0,0.2,0.1,0.4,0.2,0.7c0.1,0.2,0.3,0.4,0.4,0.6c0.1,0.1,0.2,0.2,0.4,0.4c1.6,1.7,2.4,3,2.4,4
			c0,0.9-0.3,1.6-0.9,2.1c-0.6,0.6-1.4,0.8-2.4,0.8c-0.5,0-1-0.1-1.6-0.3c-0.6-0.2-0.9-0.3-0.9-0.3c-0.1,0-0.2,0-0.3,0.1
			c-0.1,0.1-0.2,0.2-0.3,0.4H181.2z"/>
		<path class="st0" d="M194,62.7l-1.6,7.3c0,0,0,0.1,0,0.1c-0.1,0.3-0.1,0.5-0.1,0.6c0,0.2,0.1,0.4,0.2,0.6c0.1,0.1,0.3,0.2,0.5,0.2
			c0.3,0,0.7-0.2,1.2-0.6c0.4-0.4,0.9-0.9,1.3-1.6c0.2-0.4,0.4-0.7,0.6-1.1c0.2-0.4,0.3-0.8,0.4-1.3l1-4.3h2.3l-1.8,7.9
			c0,0,0,0,0,0.1c0,0.1,0,0.2,0,0.3c0,0.2,0,0.3,0.1,0.4c0.1,0.1,0.2,0.1,0.3,0.1c0.2,0,0.4-0.1,0.6-0.3c0.2-0.2,0.5-0.5,0.8-1
			l0.5,0.2c-0.5,0.8-1,1.5-1.5,1.9c-0.5,0.4-1.1,0.7-1.7,0.7c-0.4,0-0.7-0.1-1-0.4c-0.2-0.2-0.3-0.6-0.3-1c0-0.1,0-0.3,0.1-0.6
			c0-0.2,0.1-0.6,0.2-1c-0.7,1-1.3,1.7-2,2.2c-0.7,0.5-1.3,0.7-2,0.7c-0.6,0-1-0.2-1.4-0.5c-0.4-0.3-0.5-0.7-0.5-1.2
			c0-0.2,0-0.4,0.1-0.8l0-0.1l1.3-5.6c0,0,0-0.1,0-0.2c0-0.2,0.1-0.3,0.1-0.3c0-0.3-0.1-0.4-0.3-0.5c-0.2-0.1-0.5-0.2-0.9-0.2h-0.2
			l0.1-0.5c0.8-0.1,1.5-0.2,2.3-0.3c0.8-0.1,1.2-0.2,1.3-0.2c0.1,0,0.2,0,0.2,0c0,0,0.1,0.1,0.1,0.1C194.1,62.5,194.1,62.6,194,62.7
			C194,62.6,194,62.6,194,62.7z"/>
		<path class="st0" d="M201,70.6l2.5-10.7c0,0,0-0.1,0-0.1c0-0.2,0.1-0.3,0.1-0.4c0-0.3-0.1-0.4-0.3-0.6c-0.2-0.1-0.5-0.2-0.9-0.2
			h-0.2l0.1-0.5c0.6-0.1,1.2-0.1,1.9-0.2c0.7-0.1,1.4-0.2,2.2-0.4l-3,12.7c0,0.1,0,0.2,0,0.3c0,0.1,0,0.1,0,0.2c0,0.2,0,0.3,0.1,0.3
			c0.1,0.1,0.1,0.1,0.3,0.1c0.2,0,0.4-0.1,0.6-0.3c0.2-0.2,0.5-0.6,0.8-1.1l0.5,0.2c-0.5,0.9-1,1.5-1.5,2c-0.6,0.5-1.1,0.7-1.7,0.7
			c-0.4,0-0.8-0.1-1-0.4c-0.2-0.2-0.3-0.6-0.3-1c0-0.1,0-0.3,0-0.4C200.9,70.9,201,70.7,201,70.6z"/>
		<path class="st0" d="M214.2,70.4c0,0.1,0,0.1,0,0.2c0,0,0,0.1,0,0.1c0,0.2,0,0.3,0.1,0.4c0.1,0.1,0.1,0.1,0.3,0.1
			c0.2,0,0.4-0.1,0.6-0.3c0.2-0.2,0.5-0.5,0.8-1l0.4,0.2c-0.5,0.8-0.9,1.5-1.5,1.9c-0.5,0.5-1,0.7-1.5,0.7c-0.4,0-0.7-0.1-0.9-0.4
			c-0.2-0.2-0.3-0.6-0.3-1c0-0.1,0-0.3,0-0.4c0-0.1,0-0.3,0.1-0.6c-0.5,0.8-1,1.3-1.6,1.7c-0.6,0.4-1.2,0.6-1.8,0.6
			c-0.8,0-1.4-0.3-1.9-0.8c-0.5-0.6-0.7-1.3-0.7-2.2c0-0.8,0.2-1.7,0.5-2.6c0.3-0.9,0.8-1.7,1.4-2.5c0.6-0.8,1.2-1.4,1.9-1.8
			c0.6-0.4,1.3-0.6,1.9-0.6c0.4,0,0.8,0.1,1.1,0.3c0.3,0.2,0.6,0.4,0.8,0.8l0.3-1.1h2.1L214.2,70.4z M208.6,69.8
			c0,0.5,0.1,0.9,0.3,1.2c0.2,0.3,0.5,0.4,0.9,0.4c0.3,0,0.7-0.1,1-0.4c0.3-0.3,0.6-0.7,0.9-1.2c0.4-0.8,0.8-1.7,1-2.7
			c0.3-1,0.4-1.9,0.4-2.6c0-0.5-0.1-0.8-0.3-1c-0.2-0.2-0.4-0.4-0.8-0.4c-0.3,0-0.7,0.1-1,0.4c-0.3,0.3-0.7,0.7-1,1.2
			c-0.5,0.8-0.9,1.7-1.1,2.6C208.8,68.3,208.6,69.1,208.6,69.8z"/>
		<path class="st0" d="M219,63.5h-1.6l0.1-0.6c1-0.2,1.9-0.6,2.6-1.2c0.7-0.6,1.2-1.3,1.5-2.3h0.7l-0.8,3.2h2.2l-0.2,0.9h-2.2
			l-1.7,7c0,0.1,0,0.2,0,0.2c0,0,0,0.1,0,0.1c0,0.2,0,0.3,0.1,0.4c0.1,0.1,0.2,0.1,0.3,0.1c0.2,0,0.4-0.1,0.7-0.4
			c0.3-0.2,0.6-0.6,0.9-1.2l0.4,0.2c-0.5,1-1.1,1.7-1.7,2.1c-0.6,0.5-1.2,0.7-1.8,0.7c-0.5,0-0.8-0.1-1.1-0.4
			c-0.2-0.2-0.3-0.6-0.3-1.1c0-0.1,0-0.2,0-0.4c0-0.1,0-0.3,0.1-0.5L219,63.5z"/>
		<path class="st0" d="M230.9,70.4c-0.6,0.8-1.3,1.4-2.1,1.8c-0.7,0.4-1.5,0.6-2.2,0.6c-1,0-1.8-0.3-2.3-0.9
			c-0.6-0.6-0.8-1.4-0.8-2.5c0-0.8,0.2-1.6,0.5-2.5c0.3-0.8,0.8-1.6,1.5-2.3c0.7-0.8,1.4-1.3,2.2-1.7c0.8-0.4,1.5-0.6,2.3-0.6
			c0.7,0,1.3,0.2,1.7,0.5c0.4,0.3,0.7,0.8,0.7,1.4c0,1-0.5,1.8-1.4,2.4c-0.9,0.7-2.6,1.3-4.9,1.9c0,0,0,0.1,0,0.1c0,0.3,0,0.5,0,0.7
			c0,0.7,0.1,1.3,0.4,1.7c0.3,0.4,0.7,0.6,1.3,0.6c0.4,0,0.9-0.1,1.3-0.4c0.5-0.2,1-0.6,1.6-1.2L230.9,70.4z M226.1,67.6
			c1.2-0.3,2.2-0.9,3-1.5s1.1-1.4,1.1-2.1c0-0.3-0.1-0.5-0.2-0.7c-0.2-0.2-0.4-0.2-0.7-0.2c-0.6,0-1.2,0.4-1.8,1.2
			C226.9,65.1,226.4,66.2,226.1,67.6z"/>
		<path class="st0" d="M231.7,72.8l0.5-3.4h0.6c0.2,0.9,0.5,1.5,0.9,2c0.4,0.4,1,0.7,1.6,0.7c0.4,0,0.8-0.1,1.1-0.4
			c0.3-0.2,0.4-0.6,0.4-1c0-0.5-0.4-1.2-1.3-2.2c-0.2-0.2-0.3-0.3-0.4-0.4c-0.7-0.8-1.2-1.4-1.4-1.9c-0.2-0.5-0.3-0.9-0.3-1.4
			c0-0.8,0.3-1.4,0.8-1.8c0.5-0.5,1.2-0.7,2.1-0.7c0.6,0,1.1,0.1,1.7,0.3c0.6,0.2,0.8,0.3,0.9,0.3c0.1,0,0.2,0,0.3-0.1
			c0.1-0.1,0.2-0.2,0.2-0.4h0.5l-0.5,3.2h-0.5c-0.1-0.8-0.4-1.4-0.8-1.8c-0.4-0.4-0.9-0.7-1.4-0.7c-0.4,0-0.7,0.1-0.9,0.3
			c-0.2,0.2-0.4,0.5-0.4,0.8c0,0.2,0.1,0.4,0.2,0.7c0.1,0.2,0.3,0.4,0.4,0.6c0.1,0.1,0.2,0.2,0.4,0.4c1.6,1.7,2.4,3,2.4,4
			c0,0.9-0.3,1.6-0.9,2.1c-0.6,0.6-1.4,0.8-2.4,0.8c-0.5,0-1-0.1-1.6-0.3c-0.6-0.2-0.9-0.3-0.9-0.3c-0.1,0-0.2,0-0.3,0.1
			c-0.1,0.1-0.2,0.2-0.3,0.4H231.7z"/>
		<path class="st0" d="M241.6,69.8c0.4,0,0.7,0.1,1,0.4c0.3,0.3,0.4,0.6,0.4,1.1c0,0.4-0.1,0.8-0.4,1.1c-0.3,0.3-0.6,0.4-1.1,0.4
			c-0.4,0-0.8-0.1-1-0.4c-0.3-0.3-0.4-0.6-0.4-1.1c0-0.4,0.1-0.8,0.4-1C240.8,70,241.2,69.8,241.6,69.8z"/>
		<path class="st0" d="M257.9,57.9c2,0,3.4,0.3,4.3,0.9c0.9,0.6,1.4,1.5,1.4,2.8c0,1.4-0.6,2.6-1.7,3.3c-1.1,0.8-2.7,1.2-4.7,1.2
			c-0.3,0-0.6,0-0.9,0c-0.3,0-0.7-0.1-1-0.1l-0.9,3.9c0,0,0,0.1,0,0.1c-0.1,0.4-0.1,0.6-0.1,0.8c0,0.5,0.1,0.8,0.4,1
			c0.3,0.2,0.7,0.3,1.3,0.3h0.1l-0.1,0.5h-6.3l0.1-0.5c0.6,0,1-0.2,1.3-0.6c0.3-0.3,0.5-1,0.8-2.1l2-8.7c0-0.2,0.1-0.4,0.1-0.5
			c0-0.2,0-0.3,0-0.4c0-0.4-0.1-0.6-0.4-0.8c-0.3-0.2-0.8-0.3-1.4-0.4l0.1-0.5H257.9z M255.6,65.1c0.2,0,0.4,0,0.5,0.1
			c0.2,0,0.3,0,0.5,0c1.3,0,2.4-0.3,3.2-1c0.8-0.7,1.2-1.6,1.2-2.8c0-0.8-0.2-1.4-0.7-1.9c-0.5-0.5-1.1-0.7-1.9-0.7
			c-0.5,0-0.8,0.1-1,0.2c-0.2,0.2-0.4,0.5-0.5,1.1L255.6,65.1z"/>
		<path class="st0" d="M267.2,64.9c0.5-0.9,1-1.5,1.5-2c0.5-0.4,1-0.7,1.4-0.7c0.4,0,0.7,0.1,1,0.3c0.2,0.2,0.3,0.5,0.3,0.9
			c0,0.4-0.1,0.8-0.3,1.1c-0.2,0.3-0.5,0.4-0.9,0.4c-0.2,0-0.5-0.1-0.7-0.4c-0.3-0.2-0.4-0.4-0.6-0.4c-0.4,0-0.8,0.4-1.3,1.2
			c-0.5,0.8-0.8,1.8-1.1,3l-0.9,4h-2.3l1.9-7.9c0-0.1,0-0.2,0-0.3c0-0.1,0-0.2,0-0.2c0-0.3-0.1-0.4-0.3-0.5
			c-0.2-0.1-0.5-0.2-0.9-0.2h-0.2l0.1-0.5c0.7-0.1,1.3-0.2,2-0.3c0.6-0.1,1.3-0.2,1.9-0.3L267.2,64.9z"/>
		<path class="st0" d="M275,72.8c-1.1,0-2-0.4-2.7-1.1c-0.7-0.7-1.1-1.7-1.1-2.8c0-0.8,0.2-1.6,0.5-2.5c0.3-0.8,0.8-1.6,1.5-2.3
			c0.6-0.6,1.2-1.1,1.8-1.4c0.7-0.3,1.3-0.5,2-0.5c1.1,0,2,0.4,2.7,1.1c0.7,0.7,1,1.7,1,2.9c0,0.8-0.2,1.7-0.6,2.5
			c-0.4,0.8-0.9,1.6-1.5,2.3c-0.6,0.6-1.2,1-1.8,1.3C276.3,72.7,275.6,72.8,275,72.8z M275,72c0.4,0,0.8-0.1,1.2-0.4
			c0.4-0.3,0.7-0.7,1-1.2c0.4-0.8,0.8-1.7,1-2.7c0.3-1,0.4-1.8,0.4-2.7c0-0.7-0.1-1.2-0.4-1.5c-0.3-0.3-0.6-0.5-1.2-0.5
			c-0.4,0-0.7,0.1-1,0.4c-0.3,0.3-0.6,0.6-0.9,1.1c-0.5,0.9-0.9,1.8-1.1,2.8c-0.3,1-0.4,1.9-0.4,2.6c0,0.7,0.1,1.2,0.4,1.5
			C274.1,71.9,274.5,72,275,72z"/>
		<path class="st0" d="M283.7,63.5h-1.6l0.1-0.6c1-0.2,1.9-0.6,2.6-1.2c0.7-0.6,1.2-1.3,1.5-2.3h0.7l-0.8,3.2h2.2l-0.2,0.9h-2.2
			l-1.7,7c0,0.1,0,0.2,0,0.2c0,0,0,0.1,0,0.1c0,0.2,0,0.3,0.1,0.4c0.1,0.1,0.2,0.1,0.3,0.1c0.2,0,0.4-0.1,0.7-0.4
			c0.3-0.2,0.6-0.6,0.9-1.2l0.4,0.2c-0.5,1-1.1,1.7-1.7,2.1c-0.6,0.5-1.2,0.7-1.8,0.7c-0.5,0-0.8-0.1-1.1-0.4
			c-0.2-0.2-0.3-0.6-0.3-1.1c0-0.1,0-0.2,0-0.4c0-0.1,0-0.3,0.1-0.5L283.7,63.5z"/>
		<path class="st0" d="M295.6,70.4c-0.6,0.8-1.3,1.4-2.1,1.8c-0.7,0.4-1.5,0.6-2.2,0.6c-1,0-1.8-0.3-2.3-0.9
			c-0.6-0.6-0.8-1.4-0.8-2.5c0-0.8,0.2-1.6,0.5-2.5c0.3-0.8,0.8-1.6,1.5-2.3c0.7-0.8,1.4-1.3,2.2-1.7c0.8-0.4,1.5-0.6,2.3-0.6
			c0.7,0,1.3,0.2,1.7,0.5c0.4,0.3,0.7,0.8,0.7,1.4c0,1-0.5,1.8-1.4,2.4c-0.9,0.7-2.6,1.3-4.9,1.9c0,0,0,0.1,0,0.1c0,0.3,0,0.5,0,0.7
			c0,0.7,0.1,1.3,0.4,1.7c0.3,0.4,0.7,0.6,1.3,0.6c0.4,0,0.9-0.1,1.3-0.4c0.5-0.2,1-0.6,1.6-1.2L295.6,70.4z M290.8,67.6
			c1.2-0.3,2.2-0.9,3-1.5c0.8-0.7,1.1-1.4,1.1-2.1c0-0.3-0.1-0.5-0.2-0.7c-0.2-0.2-0.4-0.2-0.7-0.2c-0.6,0-1.2,0.4-1.8,1.2
			C291.6,65.1,291.1,66.2,290.8,67.6z"/>
		<path class="st0" d="M304.6,70.6c-0.7,0.8-1.4,1.3-2.1,1.7c-0.7,0.4-1.4,0.6-2.2,0.6c-1,0-1.9-0.3-2.5-0.9
			c-0.6-0.6-0.9-1.5-0.9-2.6c0-0.7,0.1-1.3,0.3-2c0.2-0.6,0.5-1.3,0.8-1.9c0.6-1,1.3-1.8,2.2-2.4c0.9-0.6,1.8-0.8,2.8-0.8
			c0.8,0,1.4,0.2,1.9,0.5c0.5,0.4,0.7,0.8,0.7,1.4c0,0.4-0.1,0.7-0.3,0.9c-0.2,0.2-0.5,0.3-0.9,0.3c-0.3,0-0.6-0.1-0.8-0.3
			c-0.2-0.2-0.3-0.4-0.3-0.7c0-0.2,0.1-0.4,0.2-0.7c0.2-0.2,0.2-0.4,0.2-0.4c0-0.1-0.1-0.3-0.2-0.3c-0.1-0.1-0.3-0.1-0.5-0.1
			c-0.4,0-0.8,0.2-1.3,0.5c-0.4,0.3-0.8,0.8-1.2,1.4c-0.4,0.6-0.7,1.3-0.9,2.1c-0.2,0.8-0.3,1.5-0.3,2.3c0,0.8,0.2,1.3,0.5,1.7
			c0.3,0.4,0.8,0.6,1.4,0.6c0.4,0,0.8-0.1,1.2-0.3c0.4-0.2,1-0.6,1.6-1.2L304.6,70.6z"/>
		<path class="st0" d="M307.8,63.5h-1.6l0.1-0.6c1-0.2,1.9-0.6,2.6-1.2c0.7-0.6,1.2-1.3,1.5-2.3h0.7l-0.8,3.2h2.2l-0.2,0.9h-2.2
			l-1.7,7c0,0.1,0,0.2,0,0.2c0,0,0,0.1,0,0.1c0,0.2,0,0.3,0.1,0.4c0.1,0.1,0.2,0.1,0.3,0.1c0.2,0,0.4-0.1,0.7-0.4
			c0.3-0.2,0.6-0.6,0.9-1.2l0.4,0.2c-0.5,1-1.1,1.7-1.7,2.1c-0.6,0.5-1.2,0.7-1.8,0.7c-0.5,0-0.8-0.1-1.1-0.4
			c-0.2-0.2-0.3-0.6-0.3-1.1c0-0.1,0-0.2,0-0.4c0-0.1,0-0.3,0.1-0.5L307.8,63.5z"/>
		<path class="st0" d="M311.7,72.8l0.5-3.4h0.6c0.2,0.9,0.5,1.5,0.9,2c0.4,0.4,1,0.7,1.6,0.7c0.4,0,0.8-0.1,1.1-0.4
			c0.3-0.2,0.4-0.6,0.4-1c0-0.5-0.4-1.2-1.3-2.2c-0.2-0.2-0.3-0.3-0.4-0.4c-0.7-0.8-1.2-1.4-1.4-1.9c-0.2-0.5-0.3-0.9-0.3-1.4
			c0-0.8,0.3-1.4,0.8-1.8c0.5-0.5,1.2-0.7,2.1-0.7c0.6,0,1.1,0.1,1.7,0.3c0.6,0.2,0.8,0.3,0.9,0.3c0.1,0,0.2,0,0.3-0.1
			c0.1-0.1,0.2-0.2,0.2-0.4h0.5l-0.5,3.2h-0.5c-0.1-0.8-0.4-1.4-0.8-1.8c-0.4-0.4-0.9-0.7-1.4-0.7c-0.4,0-0.7,0.1-0.9,0.3
			c-0.2,0.2-0.4,0.5-0.4,0.8c0,0.2,0.1,0.4,0.2,0.7c0.1,0.2,0.3,0.4,0.4,0.6c0.1,0.1,0.2,0.2,0.4,0.4c1.6,1.7,2.4,3,2.4,4
			c0,0.9-0.3,1.6-0.9,2.1c-0.6,0.6-1.4,0.8-2.4,0.8c-0.5,0-1-0.1-1.6-0.3c-0.6-0.2-0.9-0.3-0.9-0.3c-0.1,0-0.2,0-0.3,0.1
			c-0.1,0.1-0.2,0.2-0.3,0.4H311.7z"/>
		<path class="st0" d="M321.6,69.8c0.4,0,0.7,0.1,1,0.4c0.3,0.3,0.4,0.6,0.4,1.1c0,0.4-0.1,0.8-0.4,1.1c-0.3,0.3-0.6,0.4-1.1,0.4
			c-0.4,0-0.8-0.1-1-0.4c-0.3-0.3-0.4-0.6-0.4-1.1c0-0.4,0.1-0.8,0.4-1C320.8,70,321.2,69.8,321.6,69.8z"/>
		<path class="st0" d="M330.1,72.9l0.8-4.6h0.5c0.1,1.2,0.5,2.1,1.1,2.8c0.6,0.6,1.4,1,2.4,1c0.8,0,1.5-0.3,2.1-0.8
			c0.5-0.5,0.8-1.2,0.8-2c0-0.6-0.2-1.1-0.5-1.6c-0.3-0.5-1.1-1.2-2.3-2.2c-0.1,0-0.1-0.1-0.3-0.2c-1.8-1.4-2.7-2.7-2.7-4
			c0-1.1,0.4-2,1.2-2.7c0.8-0.7,1.9-1,3.2-1c0.7,0,1.4,0.1,2.1,0.3c0.7,0.2,1.2,0.3,1.3,0.3c0.2,0,0.4-0.1,0.6-0.2
			c0.2-0.1,0.3-0.3,0.4-0.5h0.6l-0.7,4.4h-0.6c-0.1-1.1-0.5-2-1.1-2.6c-0.6-0.6-1.4-0.9-2.4-0.9c-0.7,0-1.3,0.2-1.7,0.6
			c-0.5,0.4-0.7,1-0.7,1.6c0,0.9,0.7,1.8,2.2,2.9c0.4,0.3,0.7,0.5,0.9,0.7c1,0.8,1.7,1.5,2.1,2.1c0.4,0.6,0.6,1.4,0.6,2.2
			c0,1.2-0.5,2.3-1.4,3.1c-0.9,0.8-2.1,1.2-3.5,1.2c-0.7,0-1.4-0.1-2.2-0.4c-0.8-0.3-1.3-0.4-1.4-0.4c-0.2,0-0.4,0.1-0.5,0.2
			c-0.1,0.1-0.3,0.3-0.3,0.6H330.1z"/>
		<path class="st0" d="M349.4,70.4c0,0.1,0,0.1,0,0.2c0,0,0,0.1,0,0.1c0,0.2,0,0.3,0.1,0.4c0.1,0.1,0.1,0.1,0.3,0.1
			c0.2,0,0.4-0.1,0.6-0.3c0.2-0.2,0.5-0.5,0.8-1l0.4,0.2c-0.5,0.8-0.9,1.5-1.5,1.9c-0.5,0.5-1,0.7-1.5,0.7c-0.4,0-0.7-0.1-0.9-0.4
			c-0.2-0.2-0.3-0.6-0.3-1c0-0.1,0-0.3,0-0.4c0-0.1,0-0.3,0.1-0.6c-0.5,0.8-1,1.3-1.6,1.7c-0.6,0.4-1.2,0.6-1.8,0.6
			c-0.8,0-1.4-0.3-1.9-0.8c-0.5-0.6-0.7-1.3-0.7-2.2c0-0.8,0.2-1.7,0.5-2.6c0.3-0.9,0.8-1.7,1.4-2.5c0.6-0.8,1.2-1.4,1.9-1.8
			c0.6-0.4,1.3-0.6,1.9-0.6c0.4,0,0.8,0.1,1.1,0.3c0.3,0.2,0.6,0.4,0.8,0.8l0.3-1.1h2.1L349.4,70.4z M343.8,69.8
			c0,0.5,0.1,0.9,0.3,1.2c0.2,0.3,0.5,0.4,0.9,0.4c0.3,0,0.7-0.1,1-0.4c0.3-0.3,0.6-0.7,0.9-1.2c0.4-0.8,0.8-1.7,1-2.7
			c0.3-1,0.4-1.9,0.4-2.6c0-0.5-0.1-0.8-0.3-1c-0.2-0.2-0.4-0.4-0.8-0.4c-0.3,0-0.7,0.1-1,0.4c-0.3,0.3-0.7,0.7-1,1.2
			c-0.5,0.8-0.9,1.7-1.1,2.6C344,68.3,343.8,69.1,343.8,69.8z"/>
		<path class="st0" d="M353.7,72.6c0-1.9,0-3.6-0.1-5.1c-0.1-1.5-0.2-2.6-0.3-3.4c-0.1-0.4-0.2-0.7-0.4-0.8
			c-0.2-0.1-0.4-0.2-0.8-0.2l0-0.4c0.5-0.1,1.1-0.2,1.7-0.3c0.6-0.1,1-0.2,1-0.2c0.2,0,0.4,0,0.4,0.1c0.1,0.1,0.1,0.2,0.1,0.4
			c0.1,0.7,0.2,1.6,0.2,2.7c0.1,1.1,0.1,2.5,0.2,4.2c0.9-1,1.6-1.9,2.1-2.7c0.5-0.8,0.8-1.4,0.8-1.7c0-0.1-0.2-0.4-0.5-0.8
			c-0.3-0.4-0.5-0.7-0.5-1c0-0.3,0.1-0.6,0.3-0.8c0.2-0.2,0.5-0.3,0.8-0.3c0.4,0,0.8,0.1,1,0.4c0.3,0.3,0.4,0.6,0.4,1.1
			c0,0.8-0.5,2-1.6,3.5c-1.1,1.5-2.7,3.4-4.8,5.5L353.7,72.6z"/>
		<path class="st0" d="M367.9,70.4c-0.6,0.8-1.3,1.4-2.1,1.8c-0.7,0.4-1.5,0.6-2.2,0.6c-1,0-1.8-0.3-2.3-0.9
			c-0.6-0.6-0.8-1.4-0.8-2.5c0-0.8,0.2-1.6,0.5-2.5c0.3-0.8,0.8-1.6,1.5-2.3c0.7-0.8,1.4-1.3,2.2-1.7c0.8-0.4,1.5-0.6,2.3-0.6
			c0.7,0,1.3,0.2,1.7,0.5c0.4,0.3,0.7,0.8,0.7,1.4c0,1-0.5,1.8-1.4,2.4c-0.9,0.7-2.6,1.3-4.9,1.9c0,0,0,0.1,0,0.1c0,0.3,0,0.5,0,0.7
			c0,0.7,0.1,1.3,0.4,1.7c0.3,0.4,0.7,0.6,1.3,0.6c0.4,0,0.9-0.1,1.3-0.4c0.5-0.2,1-0.6,1.6-1.2L367.9,70.4z M363,67.6
			c1.2-0.3,2.2-0.9,3-1.5c0.8-0.7,1.1-1.4,1.1-2.1c0-0.3-0.1-0.5-0.2-0.7c-0.2-0.2-0.4-0.2-0.7-0.2c-0.6,0-1.2,0.4-1.8,1.2
			C363.9,65.1,363.4,66.2,363,67.6z"/>
		<path class="st0" d="M368.7,72.8l0.5-3.4h0.6c0.2,0.9,0.5,1.5,0.9,2c0.4,0.4,1,0.7,1.6,0.7c0.4,0,0.8-0.1,1.1-0.4
			c0.3-0.2,0.4-0.6,0.4-1c0-0.5-0.4-1.2-1.3-2.2c-0.2-0.2-0.3-0.3-0.4-0.4c-0.7-0.8-1.2-1.4-1.4-1.9c-0.2-0.5-0.3-0.9-0.3-1.4
			c0-0.8,0.3-1.4,0.8-1.8c0.5-0.5,1.2-0.7,2.1-0.7c0.6,0,1.1,0.1,1.7,0.3c0.6,0.2,0.8,0.3,0.9,0.3c0.1,0,0.2,0,0.3-0.1
			c0.1-0.1,0.2-0.2,0.2-0.4h0.5l-0.5,3.2h-0.5c-0.1-0.8-0.4-1.4-0.8-1.8c-0.4-0.4-0.9-0.7-1.4-0.7c-0.4,0-0.7,0.1-0.9,0.3
			c-0.2,0.2-0.4,0.5-0.4,0.8c0,0.2,0.1,0.4,0.2,0.7c0.1,0.2,0.3,0.4,0.4,0.6c0.1,0.1,0.2,0.2,0.4,0.4c1.6,1.7,2.4,3,2.4,4
			c0,0.9-0.3,1.6-0.9,2.1c-0.6,0.6-1.4,0.8-2.4,0.8c-0.5,0-1-0.1-1.6-0.3c-0.6-0.2-0.9-0.3-0.9-0.3c-0.1,0-0.2,0-0.3,0.1
			c-0.1,0.1-0.2,0.2-0.3,0.4H368.7z"/>
		<path class="st0" d="M378.5,69.8c0.4,0,0.7,0.1,1,0.4c0.3,0.3,0.4,0.6,0.4,1.1c0,0.4-0.1,0.8-0.4,1.1c-0.3,0.3-0.6,0.4-1.1,0.4
			c-0.4,0-0.8-0.1-1-0.4c-0.3-0.3-0.4-0.6-0.4-1.1c0-0.4,0.1-0.8,0.4-1C377.8,70,378.1,69.8,378.5,69.8z"/>
	</g>
	<polygon class="st1" points="162.9,50.6 162.9,18.7 179.1,18.7 188.2,32.1 188.2,18.7 203.7,18.7 203.7,50.6 189.4,50.6 
		178.3,35.7 178.4,50.6 	"/>
	<path class="st2" d="M2.5,19.8C2.5,11.1,9.6,4,18.4,4H48c8.8,0,15.8,7.1,15.8,15.8v29.7c0,8.8-7.1,15.8-15.8,15.8H18.4
		c-8.8,0-15.8-7.1-15.8-15.8V19.8z M0.9,19.9c0-9.7,7.9-17.5,17.5-17.5H48c9.7,0,17.5,7.9,17.5,17.5v29.5C65.5,59.1,57.6,67,48,67
		H18.4C8.8,67,0.9,59.1,0.9,49.4V19.9z"/>
	<path class="st1" d="M15.2,36.1c0.7,9.3,8.5,16.6,18,16.6c9.5,0,17.3-7.3,18-16.6h10.2v12.6c0,7.8-6.3,14.2-14.1,14.2h-28
		C11.4,62.8,5,56.5,5,48.7V36.1H15.2z"/>
	<path class="st3" d="M51.2,33.2c-0.7-9.3-8.5-16.6-18-16.6c-9.5,0-17.3,7.3-18,16.6H5V20.6c0-7.8,6.3-14.2,14.2-14.2h28
		c7.8,0,14.1,6.3,14.1,14.2v12.6H51.2z"/>
	<path class="st1" d="M115.8,32.9h1v9.6h-1H98v8.1H81.7V18.7h34.2h1v11.2h-1H98v2.9H115.8z"/>
	<path class="st1" d="M137.8,18.7h12.5l10.3,31.8h-16.6l-1.2-4.2h-5h-5.2l-1.2,4.2h-15.6h-1l1-3.1l9.3-28.8H137.8z M141,37.7
		l-3.2-11.8l-3.3,11.8H141z"/>
	<path class="st1" d="M315.9,18.7h12.5l10.3,31.8h-16.6l-1.2-4.2h-5h-5l-1.4,4.2H293l10.2-31.8H315.9z M319.5,37.7l-3.6-11.6
		l-3.3,11.6H319.5z"/>
	<path class="st1" d="M291.8,39.7c-0.1-10.1-11.6-9-11.6-9h-3.8c-3.4,0.1-4.3-0.7-4.3-0.7c-1.4-1.5,0.7-2,0.7-2
		c4.2-1,17.7,0.8,17.7,0.8v-9.6c-6.3-1-11.3-1.4-11.3-1.4c-14.5-1-19.7,2.8-19.7,2.8c-6.6,3.9-5,11.3-4.4,12.8
		c0.1,0.2,0.1,0.3,0.2,0.5c2.8,5.4,9.7,5.7,9.7,5.7c2.8,0.4,8.3,0.4,8.3,0.4c2.3,0,1.6,1.6,1.6,1.6c-0.3,1.1-2.7,1-2.7,1
		c-4.3,0.5-16.5-1.5-16.5-1.5v9l7.5,1c15,1.8,22.2-1.7,22.2-1.7C292.4,46.5,291.8,39.7,291.8,39.7z"/>
	<path class="st1" d="M241.3,19.4c0,0,8.9,2.5,10,12.9c0,0,1.1,6.9-3,12.9c0,0-4.2,6.8-20,6.4c0,0-15.6,0.5-19.4-10.4
		c0,0-3.1-8.7,1.9-16.7c0,0,3.5-6.5,18.3-6.6C229.2,17.8,236.8,17.8,241.3,19.4z M233.2,29.5c1.1,0.9,1.7,2.7,1.6,5.5
		c0,2.1-0.3,3.6-0.8,4.7c-0.8,1.5-2.2,2.2-4.3,2.2c-1.5,0-2.7-0.4-3.4-1.3c-1.5-1.9-1.8-3.3-1.8-6.4c0-2.5,0.8-4.2,2.1-5
		c0.8-0.5,1.9-0.8,3.2-0.8C231.3,28.6,232.4,28.9,233.2,29.5z"/>
	<g>
		<defs>
			<path id="SVGID_1_" d="M17.5,34.7C17.5,26,24.5,19,33.2,19C41.9,19,49,26,49,34.7c0,8.7-7.1,15.7-15.7,15.7
				C24.5,50.5,17.5,43.4,17.5,34.7z"/>
		</defs>
		<clipPath id="SVGID_2_">
			<use xlink:href="#SVGID_1_"  style="overflow:visible;"/>
		</clipPath>
		<g class="st4">
			<g>
				<defs>
					<rect id="SVGID_3_" x="17.1" y="18.3" width="35.3" height="35"/>
				</defs>
				<clipPath id="SVGID_4_">
					<use xlink:href="#SVGID_3_"  style="overflow:visible;"/>
				</clipPath>
				<g class="st5">
					<defs>
						<rect id="SVGID_5_" x="17.1" y="18.3" width="35.3" height="35"/>
					</defs>
					<clipPath id="SVGID_6_">
						<use xlink:href="#SVGID_5_"  style="overflow:visible;"/>
					</clipPath>
					<g style="clip-path:url(#SVGID_6_);">
						
							<image style="overflow:visible;" width="148" height="147" xlink:href="4ED026B73F5B3310.jpg"  transform="matrix(0.24 0 0 0.24 17.04 18.08)">
						</image>
					</g>
				</g>
			</g>
		</g>
	</g>
</g>
</svg>
