<?xml version="1.0" encoding="utf-8"?>
<!-- Generator: Adobe Illustrator 23.1.1, SVG Export Plug-In . SVG Version: 6.00 Build 0)  -->
<svg version="1.1" id="Layer_2" xmlns="http://www.w3.org/2000/svg" xmlns:xlink="http://www.w3.org/1999/xlink" x="0px" y="0px"
	 viewBox="0 0 380 80" style="enable-background:new 0 0 380 80;" xml:space="preserve">
<style type="text/css">
	.st0{fill:#FFFFFF;}
	.st1{fill-rule:evenodd;clip-rule:evenodd;fill:#FFFFFF;}
</style>
<g>
	<path class="st0" d="M163.7,67.4l2-8.6c0.1-0.3,0.1-0.5,0.1-0.6c0-0.2,0-0.3,0-0.4c0-0.4-0.1-0.7-0.4-0.9c-0.3-0.2-0.8-0.3-1.5-0.4
		l0.1-0.5h6.7v0.5c-0.7,0-1.2,0.2-1.5,0.5c-0.3,0.3-0.6,0.8-0.7,1.4l-2.2,9.5c0,0,0,0.1,0,0.2c-0.1,0.3-0.1,0.5-0.1,0.7
		c0,0.5,0.1,0.8,0.4,1c0.3,0.2,0.7,0.3,1.3,0.3h0.1l-0.1,0.5h-6.5l0.1-0.5c0.6,0,1-0.2,1.3-0.6C163.2,69.2,163.5,68.5,163.7,67.4z"
		/>
	<path class="st0" d="M169.9,70.6l1.8-8c0,0,0,0,0-0.1c0-0.2,0.1-0.3,0.1-0.4c0-0.3-0.1-0.4-0.3-0.5c-0.2-0.1-0.5-0.2-0.9-0.2h-0.2
		l0.1-0.5c0.6-0.1,1.2-0.1,1.9-0.2s1.3-0.2,2-0.3l-0.6,2.8c0.6-0.9,1.3-1.6,2-2.1c0.7-0.5,1.4-0.7,2.2-0.7c0.6,0,1.1,0.2,1.4,0.5
		c0.3,0.3,0.5,0.7,0.5,1.3c0,0.1,0,0.3,0,0.5c0,0.2-0.1,0.4-0.1,0.6l-1.3,4.7c0,0.1,0,0.2-0.1,0.3c-0.1,0.4-0.1,0.6-0.1,0.7
		c0,0.1,0,0.3,0.1,0.3c0.1,0.1,0.1,0.1,0.2,0.1c0.2,0,0.4-0.1,0.6-0.3c0.2-0.2,0.5-0.5,0.8-1l0.4,0.2c-0.5,0.9-1,1.5-1.5,1.9
		c-0.5,0.4-1.1,0.6-1.7,0.6c-0.5,0-0.8-0.1-1-0.4c-0.2-0.2-0.4-0.6-0.4-1.1c0-0.1,0-0.3,0-0.5c0-0.2,0.1-0.5,0.2-0.9l1.3-4.9
		c0,0,0-0.1,0-0.2c0.1-0.2,0.1-0.4,0.1-0.5c0-0.3-0.1-0.5-0.2-0.6c-0.1-0.1-0.3-0.2-0.6-0.2c-0.7,0-1.4,0.4-2.1,1.3
		c-0.7,0.9-1.2,2-1.5,3.3l-1,4.3H169.9z"/>
	<path class="st0" d="M180.6,70.9l0.5-3.4h0.6c0.2,0.9,0.5,1.5,0.9,2c0.4,0.4,1,0.7,1.6,0.7c0.4,0,0.8-0.1,1.1-0.4
		c0.3-0.2,0.4-0.6,0.4-1c0-0.5-0.4-1.2-1.3-2.2c-0.2-0.2-0.3-0.3-0.4-0.4c-0.7-0.8-1.2-1.4-1.4-1.9c-0.2-0.5-0.3-0.9-0.3-1.4
		c0-0.8,0.3-1.4,0.8-1.9c0.5-0.5,1.2-0.7,2.1-0.7c0.6,0,1.1,0.1,1.7,0.3c0.6,0.2,0.9,0.3,0.9,0.3c0.1,0,0.2,0,0.3-0.1
		c0.1-0.1,0.2-0.2,0.2-0.4h0.5l-0.5,3.2h-0.5c-0.1-0.8-0.4-1.4-0.8-1.8c-0.4-0.4-0.9-0.7-1.4-0.7c-0.4,0-0.7,0.1-0.9,0.3
		c-0.2,0.2-0.4,0.5-0.4,0.8c0,0.2,0.1,0.4,0.2,0.7c0.1,0.2,0.3,0.4,0.4,0.6c0.1,0.1,0.2,0.2,0.4,0.4c1.6,1.7,2.4,3,2.4,4
		c0,0.9-0.3,1.6-0.9,2.1c-0.6,0.6-1.4,0.8-2.4,0.8c-0.5,0-1-0.1-1.6-0.3c-0.6-0.2-0.9-0.3-0.9-0.3c-0.1,0-0.2,0-0.3,0.1
		c-0.1,0.1-0.2,0.2-0.3,0.4H180.6z"/>
	<path class="st0" d="M193.5,60.7l-1.6,7.4c0,0,0,0.1,0,0.1c-0.1,0.3-0.1,0.5-0.1,0.6c0,0.2,0.1,0.4,0.2,0.6
		c0.1,0.1,0.3,0.2,0.5,0.2c0.3,0,0.7-0.2,1.2-0.6c0.4-0.4,0.9-0.9,1.3-1.6c0.2-0.4,0.4-0.7,0.6-1.1c0.2-0.4,0.3-0.8,0.4-1.3l1-4.3
		h2.3l-1.8,7.9c0,0,0,0,0,0.1c0,0.1,0,0.2,0,0.3c0,0.2,0,0.3,0.1,0.4c0.1,0.1,0.2,0.1,0.3,0.1c0.2,0,0.4-0.1,0.6-0.3
		c0.2-0.2,0.5-0.5,0.8-1l0.5,0.2c-0.5,0.9-1,1.5-1.5,1.9c-0.5,0.4-1.1,0.7-1.7,0.7c-0.4,0-0.7-0.1-1-0.4c-0.2-0.2-0.3-0.6-0.3-1
		c0-0.1,0-0.3,0.1-0.6c0-0.2,0.1-0.6,0.2-1c-0.7,1-1.3,1.7-2,2.2c-0.7,0.5-1.4,0.7-2,0.7c-0.6,0-1-0.2-1.4-0.5
		c-0.4-0.3-0.5-0.7-0.5-1.2c0-0.2,0-0.4,0.1-0.8l0-0.1l1.3-5.7c0,0,0-0.1,0-0.2c0-0.2,0.1-0.3,0.1-0.3c0-0.3-0.1-0.4-0.3-0.5
		c-0.2-0.1-0.5-0.2-0.9-0.2h-0.2l0.1-0.5c0.8-0.1,1.5-0.2,2.3-0.3c0.8-0.1,1.2-0.2,1.3-0.2c0.1,0,0.2,0,0.2,0c0,0,0.1,0.1,0.1,0.1
		C193.5,60.6,193.5,60.6,193.5,60.7C193.5,60.7,193.5,60.7,193.5,60.7z"/>
	<path class="st0" d="M200.5,68.7L203,58c0,0,0-0.1,0-0.1c0-0.2,0.1-0.3,0.1-0.4c0-0.3-0.1-0.4-0.3-0.6c-0.2-0.1-0.5-0.2-0.9-0.2
		h-0.2l0.1-0.5c0.6-0.1,1.2-0.1,1.9-0.2c0.7-0.1,1.4-0.2,2.2-0.4l-3,12.8c0,0.1,0,0.2,0,0.3c0,0.1,0,0.1,0,0.2c0,0.2,0,0.3,0.1,0.3
		c0.1,0.1,0.1,0.1,0.3,0.1c0.2,0,0.4-0.1,0.6-0.3c0.2-0.2,0.5-0.6,0.8-1.1l0.5,0.2c-0.5,0.9-1,1.5-1.5,2c-0.6,0.5-1.1,0.7-1.7,0.7
		c-0.4,0-0.8-0.1-1-0.4c-0.2-0.2-0.3-0.6-0.3-1c0-0.1,0-0.3,0-0.4C200.4,68.9,200.4,68.8,200.5,68.7z"/>
	<path class="st0" d="M213.7,68.5c0,0.1,0,0.1,0,0.2c0,0,0,0.1,0,0.1c0,0.2,0,0.3,0.1,0.4s0.1,0.1,0.3,0.1c0.2,0,0.4-0.1,0.6-0.3
		c0.2-0.2,0.5-0.5,0.8-1l0.4,0.2c-0.5,0.8-1,1.5-1.5,1.9c-0.5,0.5-1,0.7-1.5,0.7c-0.4,0-0.7-0.1-0.9-0.4c-0.2-0.2-0.3-0.6-0.3-1
		c0-0.1,0-0.3,0-0.4c0-0.1,0-0.3,0.1-0.6c-0.5,0.8-1,1.3-1.6,1.8c-0.6,0.4-1.2,0.6-1.8,0.6c-0.8,0-1.4-0.3-1.9-0.8
		c-0.5-0.6-0.7-1.3-0.7-2.2c0-0.8,0.2-1.7,0.5-2.6c0.3-0.9,0.8-1.7,1.4-2.5c0.6-0.8,1.2-1.4,1.9-1.8c0.6-0.4,1.3-0.6,1.9-0.6
		c0.4,0,0.8,0.1,1.1,0.3c0.3,0.2,0.6,0.4,0.8,0.8l0.3-1.1h2.1L213.7,68.5z M208.1,67.9c0,0.5,0.1,0.9,0.3,1.2
		c0.2,0.3,0.5,0.4,0.9,0.4c0.3,0,0.7-0.1,1-0.4c0.3-0.3,0.6-0.7,0.9-1.2c0.4-0.8,0.8-1.7,1-2.8c0.3-1,0.4-1.9,0.4-2.6
		c0-0.5-0.1-0.8-0.3-1c-0.2-0.2-0.4-0.4-0.8-0.4c-0.3,0-0.7,0.1-1,0.4c-0.3,0.3-0.7,0.7-1,1.2c-0.5,0.8-0.9,1.7-1.1,2.6
		C208.2,66.4,208.1,67.2,208.1,67.9z"/>
	<path class="st0" d="M218.5,61.5H217l0.1-0.6c1-0.2,1.9-0.6,2.6-1.2c0.7-0.6,1.2-1.4,1.5-2.4h0.7l-0.8,3.2h2.2l-0.2,0.9h-2.2
		l-1.7,7c0,0.1,0,0.2,0,0.2c0,0,0,0.1,0,0.1c0,0.2,0,0.3,0.1,0.4c0.1,0.1,0.2,0.1,0.3,0.1c0.2,0,0.4-0.1,0.7-0.4
		c0.3-0.2,0.6-0.6,0.9-1.2l0.4,0.2c-0.5,1-1.1,1.7-1.7,2.1c-0.6,0.5-1.2,0.7-1.8,0.7c-0.5,0-0.8-0.1-1.1-0.4
		c-0.2-0.2-0.3-0.6-0.3-1.1c0-0.1,0-0.2,0-0.4c0-0.1,0-0.3,0.1-0.5L218.5,61.5z"/>
	<path class="st0" d="M230.5,68.5c-0.6,0.8-1.3,1.4-2.1,1.8c-0.7,0.4-1.5,0.6-2.3,0.6c-1,0-1.8-0.3-2.4-0.9
		c-0.6-0.6-0.8-1.4-0.8-2.5c0-0.8,0.2-1.6,0.5-2.5c0.3-0.8,0.8-1.6,1.5-2.3c0.7-0.8,1.4-1.3,2.2-1.7c0.8-0.4,1.6-0.6,2.3-0.6
		c0.7,0,1.3,0.2,1.7,0.5c0.4,0.3,0.7,0.8,0.7,1.4c0,1-0.5,1.8-1.4,2.4c-1,0.7-2.6,1.3-5,1.9c0,0,0,0.1,0,0.1c0,0.3,0,0.5,0,0.7
		c0,0.7,0.1,1.3,0.4,1.7c0.3,0.4,0.7,0.6,1.3,0.6c0.4,0,0.9-0.1,1.4-0.4c0.5-0.2,1-0.6,1.6-1.2L230.5,68.5z M225.6,65.7
		c1.2-0.3,2.2-0.9,3-1.5c0.8-0.7,1.1-1.4,1.1-2.1c0-0.3-0.1-0.5-0.2-0.7c-0.2-0.2-0.4-0.2-0.7-0.2c-0.6,0-1.2,0.4-1.8,1.2
		C226.5,63.2,226,64.3,225.6,65.7z"/>
	<path class="st0" d="M231.3,70.9l0.5-3.4h0.6c0.2,0.9,0.5,1.5,0.9,2c0.4,0.4,1,0.7,1.6,0.7c0.4,0,0.8-0.1,1.1-0.4
		c0.3-0.2,0.4-0.6,0.4-1c0-0.5-0.4-1.2-1.3-2.2c-0.2-0.2-0.3-0.3-0.4-0.4c-0.7-0.8-1.2-1.4-1.4-1.9c-0.2-0.5-0.3-0.9-0.3-1.4
		c0-0.8,0.3-1.4,0.8-1.9c0.5-0.5,1.2-0.7,2.1-0.7c0.6,0,1.1,0.1,1.7,0.3c0.6,0.2,0.9,0.3,0.9,0.3c0.1,0,0.2,0,0.3-0.1
		c0.1-0.1,0.2-0.2,0.2-0.4h0.5l-0.5,3.2h-0.5c-0.1-0.8-0.4-1.4-0.8-1.8c-0.4-0.4-0.9-0.7-1.4-0.7c-0.4,0-0.7,0.1-0.9,0.3
		c-0.2,0.2-0.4,0.5-0.4,0.8c0,0.2,0.1,0.4,0.2,0.7c0.1,0.2,0.3,0.4,0.4,0.6c0.1,0.1,0.2,0.2,0.4,0.4c1.6,1.7,2.4,3,2.4,4
		c0,0.9-0.3,1.6-0.9,2.1c-0.6,0.6-1.4,0.8-2.4,0.8c-0.5,0-1-0.1-1.6-0.3c-0.6-0.2-0.9-0.3-0.9-0.3c-0.1,0-0.2,0-0.3,0.1
		c-0.1,0.1-0.2,0.2-0.3,0.4H231.3z"/>
	<path class="st0" d="M241.2,67.9c0.4,0,0.7,0.1,1,0.4c0.3,0.3,0.4,0.7,0.4,1.1c0,0.4-0.1,0.8-0.4,1.1c-0.3,0.3-0.6,0.4-1.1,0.4
		c-0.4,0-0.8-0.1-1-0.4c-0.3-0.3-0.4-0.6-0.4-1.1c0-0.4,0.1-0.8,0.4-1C240.4,68.1,240.8,67.9,241.2,67.9z"/>
	<path class="st0" d="M257.6,56c2,0,3.4,0.3,4.3,0.9c0.9,0.6,1.4,1.5,1.4,2.8c0,1.4-0.6,2.6-1.7,3.3c-1.1,0.8-2.7,1.2-4.7,1.2
		c-0.3,0-0.6,0-0.9,0c-0.3,0-0.7-0.1-1-0.1l-0.9,3.9c0,0,0,0.1,0,0.1c-0.1,0.4-0.1,0.6-0.1,0.8c0,0.5,0.1,0.8,0.4,1
		c0.3,0.2,0.7,0.3,1.3,0.3h0.1l-0.1,0.5h-6.3l0.1-0.5c0.6,0,1-0.2,1.3-0.6c0.3-0.3,0.6-1,0.8-2.1l2-8.8c0-0.2,0.1-0.4,0.1-0.5
		c0-0.2,0-0.3,0-0.4c0-0.4-0.1-0.6-0.4-0.8c-0.3-0.2-0.8-0.3-1.4-0.4L252,56H257.6z M255.2,63.2c0.2,0,0.4,0,0.5,0.1
		c0.2,0,0.3,0,0.5,0c1.3,0,2.4-0.3,3.2-1c0.8-0.7,1.2-1.6,1.2-2.8c0-0.8-0.2-1.4-0.7-1.9c-0.5-0.5-1.2-0.7-2-0.7
		c-0.5,0-0.8,0.1-1,0.2c-0.2,0.2-0.4,0.5-0.5,1.1L255.2,63.2z"/>
	<path class="st0" d="M266.9,63c0.5-0.9,1-1.5,1.5-2c0.5-0.4,1-0.7,1.4-0.7c0.4,0,0.7,0.1,1,0.3c0.2,0.2,0.3,0.5,0.3,0.9
		c0,0.4-0.1,0.8-0.3,1.1c-0.2,0.3-0.5,0.4-0.9,0.4c-0.2,0-0.5-0.1-0.7-0.4c-0.3-0.2-0.4-0.4-0.6-0.4c-0.4,0-0.8,0.4-1.3,1.2
		c-0.5,0.8-0.8,1.8-1.1,3l-0.9,4h-2.4l1.9-8c0-0.1,0-0.2,0-0.3c0-0.1,0-0.2,0-0.2c0-0.3-0.1-0.4-0.3-0.5c-0.2-0.1-0.5-0.2-0.9-0.2
		h-0.2l0.1-0.5c0.7-0.1,1.3-0.2,2-0.3c0.7-0.1,1.3-0.2,1.9-0.3L266.9,63z"/>
	<path class="st0" d="M274.7,70.9c-1.1,0-2-0.4-2.7-1.1c-0.7-0.7-1.1-1.7-1.1-2.8c0-0.8,0.2-1.7,0.5-2.5c0.3-0.8,0.8-1.6,1.5-2.3
		c0.6-0.6,1.2-1.1,1.8-1.4c0.7-0.3,1.3-0.5,2-0.5c1.1,0,2,0.4,2.7,1.1c0.7,0.7,1,1.7,1,2.9c0,0.8-0.2,1.7-0.6,2.5
		c-0.4,0.9-0.9,1.6-1.5,2.3c-0.6,0.6-1.2,1-1.8,1.3C276,70.8,275.3,70.9,274.7,70.9z M274.7,70.1c0.4,0,0.8-0.1,1.2-0.4
		c0.4-0.3,0.7-0.7,1-1.2c0.4-0.8,0.8-1.7,1-2.7c0.3-1,0.4-1.9,0.4-2.7c0-0.7-0.1-1.2-0.4-1.5c-0.3-0.3-0.7-0.5-1.2-0.5
		c-0.4,0-0.7,0.1-1,0.4c-0.3,0.3-0.6,0.6-0.9,1.1c-0.5,0.9-0.9,1.8-1.1,2.8c-0.3,1-0.4,1.9-0.4,2.6c0,0.7,0.1,1.2,0.4,1.5
		C273.8,70,274.2,70.1,274.7,70.1z"/>
	<path class="st0" d="M283.4,61.5h-1.6l0.1-0.6c1-0.2,1.9-0.6,2.6-1.2c0.7-0.6,1.2-1.4,1.5-2.4h0.7l-0.8,3.2h2.2l-0.2,0.9h-2.2
		l-1.7,7c0,0.1,0,0.2,0,0.2c0,0,0,0.1,0,0.1c0,0.2,0,0.3,0.1,0.4c0.1,0.1,0.2,0.1,0.3,0.1c0.2,0,0.4-0.1,0.7-0.4
		c0.3-0.2,0.6-0.6,0.9-1.2l0.4,0.2c-0.5,1-1.1,1.7-1.7,2.1c-0.6,0.5-1.2,0.7-1.8,0.7c-0.5,0-0.8-0.1-1.1-0.4
		c-0.2-0.2-0.3-0.6-0.3-1.1c0-0.1,0-0.2,0-0.4c0-0.1,0-0.3,0.1-0.5L283.4,61.5z"/>
	<path class="st0" d="M295.3,68.5c-0.6,0.8-1.3,1.4-2.1,1.8c-0.7,0.4-1.5,0.6-2.3,0.6c-1,0-1.8-0.3-2.4-0.9
		c-0.6-0.6-0.8-1.4-0.8-2.5c0-0.8,0.2-1.6,0.5-2.5c0.3-0.8,0.8-1.6,1.5-2.3c0.7-0.8,1.4-1.3,2.2-1.7c0.8-0.4,1.6-0.6,2.3-0.6
		c0.7,0,1.3,0.2,1.7,0.5c0.4,0.3,0.7,0.8,0.7,1.4c0,1-0.5,1.8-1.4,2.4c-1,0.7-2.6,1.3-5,1.9c0,0,0,0.1,0,0.1c0,0.3,0,0.5,0,0.7
		c0,0.7,0.1,1.3,0.4,1.7c0.3,0.4,0.7,0.6,1.3,0.6c0.4,0,0.9-0.1,1.4-0.4c0.5-0.2,1-0.6,1.6-1.2L295.3,68.5z M290.5,65.7
		c1.2-0.3,2.2-0.9,3-1.5c0.8-0.7,1.1-1.4,1.1-2.1c0-0.3-0.1-0.5-0.2-0.7c-0.2-0.2-0.4-0.2-0.7-0.2c-0.6,0-1.2,0.4-1.8,1.2
		C291.3,63.2,290.8,64.3,290.5,65.7z"/>
	<path class="st0" d="M304.3,68.7c-0.7,0.8-1.4,1.3-2.1,1.7c-0.7,0.4-1.4,0.6-2.2,0.6c-1,0-1.9-0.3-2.5-0.9
		c-0.6-0.6-0.9-1.5-0.9-2.6c0-0.7,0.1-1.3,0.3-2c0.2-0.7,0.5-1.3,0.8-1.9c0.6-1,1.3-1.8,2.2-2.4c0.9-0.6,1.8-0.8,2.8-0.8
		c0.8,0,1.4,0.2,1.9,0.5c0.5,0.4,0.7,0.8,0.7,1.4c0,0.4-0.1,0.7-0.3,0.9c-0.2,0.2-0.5,0.3-0.9,0.3c-0.3,0-0.6-0.1-0.8-0.3
		c-0.2-0.2-0.3-0.4-0.3-0.7c0-0.2,0.1-0.4,0.2-0.7c0.2-0.2,0.2-0.4,0.2-0.4c0-0.1-0.1-0.3-0.2-0.3c-0.1-0.1-0.3-0.1-0.5-0.1
		c-0.4,0-0.8,0.2-1.3,0.5c-0.4,0.3-0.8,0.8-1.2,1.5c-0.4,0.6-0.7,1.3-0.9,2.1c-0.2,0.8-0.3,1.5-0.3,2.3c0,0.8,0.2,1.3,0.5,1.7
		c0.3,0.4,0.8,0.6,1.4,0.6c0.4,0,0.8-0.1,1.2-0.3c0.4-0.2,1-0.6,1.6-1.2L304.3,68.7z"/>
	<path class="st0" d="M307.6,61.5h-1.6l0.1-0.6c1-0.2,1.9-0.6,2.6-1.2c0.7-0.6,1.2-1.4,1.5-2.4h0.7l-0.8,3.2h2.2l-0.2,0.9H310
		l-1.7,7c0,0.1,0,0.2,0,0.2c0,0,0,0.1,0,0.1c0,0.2,0,0.3,0.1,0.4c0.1,0.1,0.2,0.1,0.3,0.1c0.2,0,0.4-0.1,0.7-0.4
		c0.3-0.2,0.6-0.6,0.9-1.2l0.4,0.2c-0.5,1-1.1,1.7-1.7,2.1c-0.6,0.5-1.2,0.7-1.8,0.7c-0.5,0-0.8-0.1-1.1-0.4
		c-0.2-0.2-0.3-0.6-0.3-1.1c0-0.1,0-0.2,0-0.4c0-0.1,0-0.3,0.1-0.5L307.6,61.5z"/>
	<path class="st0" d="M311.5,70.9l0.5-3.4h0.6c0.2,0.9,0.5,1.5,0.9,2c0.4,0.4,1,0.7,1.6,0.7c0.4,0,0.8-0.1,1.1-0.4
		c0.3-0.2,0.4-0.6,0.4-1c0-0.5-0.4-1.2-1.3-2.2c-0.2-0.2-0.3-0.3-0.4-0.4c-0.7-0.8-1.2-1.4-1.4-1.9c-0.2-0.5-0.3-0.9-0.3-1.4
		c0-0.8,0.3-1.4,0.8-1.9c0.5-0.5,1.2-0.7,2.1-0.7c0.6,0,1.1,0.1,1.7,0.3c0.6,0.2,0.9,0.3,0.9,0.3c0.1,0,0.2,0,0.3-0.1
		c0.1-0.1,0.2-0.2,0.2-0.4h0.5l-0.5,3.2h-0.5c-0.1-0.8-0.4-1.4-0.8-1.8c-0.4-0.4-0.9-0.7-1.4-0.7c-0.4,0-0.7,0.1-0.9,0.3
		c-0.2,0.2-0.4,0.5-0.4,0.8c0,0.2,0.1,0.4,0.2,0.7c0.1,0.2,0.3,0.4,0.4,0.6c0.1,0.1,0.2,0.2,0.4,0.4c1.6,1.7,2.4,3,2.4,4
		c0,0.9-0.3,1.6-0.9,2.1c-0.6,0.6-1.4,0.8-2.4,0.8c-0.5,0-1-0.1-1.6-0.3c-0.6-0.2-0.9-0.3-0.9-0.3c-0.1,0-0.2,0-0.3,0.1
		c-0.1,0.1-0.2,0.2-0.3,0.4H311.5z"/>
	<path class="st0" d="M321.4,67.9c0.4,0,0.7,0.1,1,0.4c0.3,0.3,0.4,0.7,0.4,1.1c0,0.4-0.1,0.8-0.4,1.1c-0.3,0.3-0.6,0.4-1.1,0.4
		c-0.4,0-0.8-0.1-1-0.4c-0.3-0.3-0.4-0.6-0.4-1.1c0-0.4,0.1-0.8,0.4-1C320.6,68.1,321,67.9,321.4,67.9z"/>
	<path class="st0" d="M329.9,71l0.8-4.6h0.5c0.1,1.2,0.5,2.1,1.1,2.8s1.4,1,2.4,1c0.9,0,1.6-0.3,2.1-0.8c0.5-0.5,0.8-1.2,0.8-2
		c0-0.6-0.2-1.1-0.5-1.6c-0.3-0.5-1.1-1.2-2.3-2.2c-0.1,0-0.1-0.1-0.3-0.2c-1.8-1.4-2.7-2.8-2.7-4c0-1.1,0.4-2,1.2-2.7
		c0.8-0.7,1.9-1,3.2-1c0.7,0,1.4,0.1,2.1,0.3c0.7,0.2,1.2,0.3,1.3,0.3c0.2,0,0.4-0.1,0.6-0.2c0.2-0.1,0.3-0.3,0.4-0.5h0.6l-0.7,4.4
		h-0.6c-0.1-1.1-0.5-2-1.1-2.6c-0.6-0.6-1.4-0.9-2.4-0.9c-0.7,0-1.3,0.2-1.7,0.6c-0.5,0.4-0.7,1-0.7,1.6c0,0.9,0.7,1.8,2.2,2.9
		c0.4,0.3,0.7,0.5,0.9,0.7c1,0.8,1.7,1.5,2.1,2.1c0.4,0.6,0.6,1.4,0.6,2.2c0,1.2-0.5,2.3-1.4,3.1c-0.9,0.8-2.1,1.2-3.5,1.2
		c-0.7,0-1.4-0.1-2.2-0.4c-0.8-0.3-1.3-0.4-1.4-0.4c-0.2,0-0.4,0.1-0.5,0.2c-0.1,0.1-0.3,0.3-0.3,0.6H329.9z"/>
	<path class="st0" d="M349.3,68.5c0,0.1,0,0.1,0,0.2c0,0,0,0.1,0,0.1c0,0.2,0,0.3,0.1,0.4c0.1,0.1,0.1,0.1,0.3,0.1
		c0.2,0,0.4-0.1,0.6-0.3c0.2-0.2,0.5-0.5,0.8-1l0.4,0.2c-0.5,0.8-1,1.5-1.5,1.9c-0.5,0.5-1,0.7-1.5,0.7c-0.4,0-0.7-0.1-0.9-0.4
		c-0.2-0.2-0.3-0.6-0.3-1c0-0.1,0-0.3,0-0.4c0-0.1,0-0.3,0.1-0.6c-0.5,0.8-1,1.3-1.6,1.8c-0.6,0.4-1.2,0.6-1.8,0.6
		c-0.8,0-1.4-0.3-1.9-0.8c-0.5-0.6-0.7-1.3-0.7-2.2c0-0.8,0.2-1.7,0.5-2.6c0.3-0.9,0.8-1.7,1.4-2.5c0.6-0.8,1.2-1.4,1.9-1.8
		c0.6-0.4,1.3-0.6,1.9-0.6c0.4,0,0.8,0.1,1.1,0.3c0.3,0.2,0.6,0.4,0.8,0.8l0.3-1.1h2.1L349.3,68.5z M343.7,67.9
		c0,0.5,0.1,0.9,0.3,1.2s0.5,0.4,0.9,0.4c0.3,0,0.7-0.1,1-0.4c0.3-0.3,0.6-0.7,0.9-1.2c0.4-0.8,0.8-1.7,1-2.8c0.3-1,0.4-1.9,0.4-2.6
		c0-0.5-0.1-0.8-0.3-1c-0.2-0.2-0.4-0.4-0.8-0.4c-0.3,0-0.7,0.1-1,0.4c-0.3,0.3-0.7,0.7-1,1.2c-0.5,0.8-0.9,1.7-1.1,2.6
		C343.8,66.4,343.7,67.2,343.7,67.9z"/>
	<path class="st0" d="M353.6,70.7c0-1.9,0-3.6-0.1-5.1c-0.1-1.5-0.2-2.6-0.3-3.4c-0.1-0.4-0.2-0.7-0.4-0.8c-0.2-0.1-0.4-0.2-0.8-0.2
		l0-0.4c0.5-0.1,1.1-0.2,1.7-0.3c0.6-0.1,1-0.2,1-0.2c0.2,0,0.4,0,0.4,0.1c0.1,0.1,0.1,0.2,0.1,0.4c0.1,0.7,0.2,1.6,0.2,2.7
		c0.1,1.1,0.1,2.5,0.2,4.2c0.9-1,1.6-1.9,2.1-2.7c0.5-0.8,0.8-1.4,0.8-1.7c0-0.1-0.2-0.4-0.5-0.8c-0.3-0.4-0.5-0.7-0.5-1
		c0-0.3,0.1-0.6,0.3-0.8c0.2-0.2,0.5-0.3,0.8-0.3c0.4,0,0.8,0.1,1,0.4c0.3,0.3,0.4,0.6,0.4,1.1c0,0.8-0.5,2-1.6,3.5
		c-1.1,1.5-2.7,3.4-4.8,5.6L353.6,70.7z"/>
	<path class="st0" d="M367.8,68.5c-0.6,0.8-1.3,1.4-2.1,1.8c-0.7,0.4-1.5,0.6-2.3,0.6c-1,0-1.8-0.3-2.4-0.9
		c-0.6-0.6-0.8-1.4-0.8-2.5c0-0.8,0.2-1.6,0.5-2.5c0.3-0.8,0.8-1.6,1.5-2.3c0.7-0.8,1.4-1.3,2.2-1.7c0.8-0.4,1.6-0.6,2.3-0.6
		c0.7,0,1.3,0.2,1.7,0.5c0.4,0.3,0.7,0.8,0.7,1.4c0,1-0.5,1.8-1.4,2.4c-1,0.7-2.6,1.3-5,1.9c0,0,0,0.1,0,0.1c0,0.3,0,0.5,0,0.7
		c0,0.7,0.1,1.3,0.4,1.7c0.3,0.4,0.7,0.6,1.3,0.6c0.4,0,0.9-0.1,1.4-0.4c0.5-0.2,1-0.6,1.6-1.2L367.8,68.5z M363,65.7
		c1.2-0.3,2.2-0.9,3-1.5c0.8-0.7,1.1-1.4,1.1-2.1c0-0.3-0.1-0.5-0.2-0.7c-0.2-0.2-0.4-0.2-0.7-0.2c-0.6,0-1.2,0.4-1.8,1.2
		C363.8,63.2,363.3,64.3,363,65.7z"/>
	<path class="st0" d="M368.7,70.9l0.5-3.4h0.6c0.2,0.9,0.5,1.5,0.9,2c0.4,0.4,1,0.7,1.6,0.7c0.4,0,0.8-0.1,1.1-0.4
		c0.3-0.2,0.4-0.6,0.4-1c0-0.5-0.4-1.2-1.3-2.2c-0.2-0.2-0.3-0.3-0.4-0.4c-0.7-0.8-1.2-1.4-1.4-1.9c-0.2-0.5-0.3-0.9-0.3-1.4
		c0-0.8,0.3-1.4,0.8-1.9c0.5-0.5,1.2-0.7,2.1-0.7c0.6,0,1.1,0.1,1.7,0.3c0.6,0.2,0.9,0.3,0.9,0.3c0.1,0,0.2,0,0.3-0.1
		c0.1-0.1,0.2-0.2,0.2-0.4h0.5l-0.5,3.2h-0.5c-0.1-0.8-0.4-1.4-0.8-1.8c-0.4-0.4-0.9-0.7-1.4-0.7c-0.4,0-0.7,0.1-0.9,0.3
		c-0.2,0.2-0.4,0.5-0.4,0.8c0,0.2,0.1,0.4,0.2,0.7c0.1,0.2,0.3,0.4,0.4,0.6c0.1,0.1,0.2,0.2,0.4,0.4c1.6,1.7,2.4,3,2.4,4
		c0,0.9-0.3,1.6-0.9,2.1c-0.6,0.6-1.4,0.8-2.4,0.8c-0.5,0-1-0.1-1.6-0.3c-0.6-0.2-0.9-0.3-0.9-0.3c-0.1,0-0.2,0-0.3,0.1
		c-0.1,0.1-0.2,0.2-0.3,0.4H368.7z"/>
	<path class="st0" d="M378.5,67.9c0.4,0,0.7,0.1,1,0.4c0.3,0.3,0.4,0.7,0.4,1.1c0,0.4-0.1,0.8-0.4,1.1c-0.3,0.3-0.6,0.4-1.1,0.4
		c-0.4,0-0.8-0.1-1-0.4c-0.3-0.3-0.4-0.6-0.4-1.1c0-0.4,0.1-0.8,0.4-1C377.8,68.1,378.1,67.9,378.5,67.9z"/>
</g>
<polygon class="st1" points="162.2,48.6 162.2,16.7 178.4,16.7 187.6,30.1 187.6,16.7 203.2,16.7 203.2,48.6 188.9,48.6 177.6,33.7 
	177.8,48.6 "/>
<path class="st1" d="M115,30.8h1v9.6h-1H97.2v8.1H80.8V16.7H115h1v11.2h-1H97.2v3H115z"/>
<path class="st1" d="M137.1,16.7h12.6L160,48.6h-16.6l-1.2-4.2h-5.1h-5.2l-1.2,4.2H115h-1l1-3.1l9.4-28.8H137.1z M140.3,35.7
	l-3.2-11.8l-3.3,11.8H140.3z"/>
<path class="st1" d="M315.7,16.7h12.6l10.4,31.9H322l-1.2-4.2h-5.1h-5.1l-1.4,4.2h-16.5L303,16.7H315.7z M319.3,35.7l-3.6-11.6
	l-3.3,11.6H319.3z"/>
<path class="st1" d="M291.5,37.7c-0.2-10.2-11.7-9-11.7-9h-3.8c-3.4,0.1-4.4-0.7-4.4-0.7c-1.4-1.5,0.7-2.1,0.7-2.1
	c4.2-1,17.7,0.8,17.7,0.8v-9.6c-6.3-1-11.3-1.4-11.3-1.4c-14.5-1-19.7,2.8-19.7,2.8c-6.6,3.9-5,11.3-4.4,12.9
	c0.1,0.2,0.1,0.3,0.2,0.5c2.8,5.4,9.8,5.7,9.8,5.7c2.8,0.4,8.4,0.4,8.4,0.4c2.3,0,1.6,1.6,1.6,1.6c-0.3,1.1-2.7,1-2.7,1
	c-4.3,0.5-16.6-1.5-16.6-1.5v9l7.5,1c15.1,1.8,22.3-1.7,22.3-1.7C292.1,44.5,291.5,37.7,291.5,37.7z"/>
<path class="st1" d="M240.9,17.3c0,0,9,2.5,10.1,13c0,0,1.1,6.9-3.1,12.9c0,0-4.2,6.9-20.1,6.4c0,0-15.7,0.5-19.4-10.4
	c0,0-3.1-8.7,1.9-16.8c0,0,3.5-6.5,18.4-6.6C228.7,15.7,236.4,15.7,240.9,17.3z M232.7,27.5c1.1,0.9,1.7,2.7,1.7,5.5
	c0,2.1-0.3,3.6-0.8,4.7c-0.8,1.5-2.2,2.3-4.3,2.2c-1.5,0-2.7-0.4-3.5-1.3c-1.5-1.9-1.8-3.3-1.8-6.4c0-2.5,0.8-4.2,2.1-5
	c0.8-0.5,1.9-0.8,3.2-0.8C230.8,26.6,232,26.9,232.7,27.5z"/>
<g>
	<path class="st0" d="M60.2,14.6L60,14.2l-0.2-0.7l-0.5-1.2L59,11.7l-0.2-0.5l-1.7-2.3l-1.4-1.4l-1.5-1.1l-0.7-0.3l-0.4-0.3L51,5
		l-3.3-0.6H18.5l-0.7,0L14.4,5l-2.9,1.4L9.8,7.6L7.9,9.5l-1.5,2.3l-1,2.5l-0.2,1.2l-0.3,0.7l0,0.6l-0.1,0.8v14.2h10.4
		c0.4-9.5,8.2-17.1,17.8-17.1s17.4,7.6,17.8,17.1h9.8V18.3l0-1.6L60.2,14.6z"/>
	<path class="st0" d="M33,50.4c-9.6,0-17.4-7.6-17.8-17.2H4.8v13.6l0,0.7l0.1,0.6v0.6l0.2,0.7l0.3,1.4l0.7,1.9l1,1.8l0.8,1L8.4,56
		l0.4,0.5l1.1,1l2,1.4l2.7,1.1l3.4,0.6h29.9l3.4-0.7l2.4-1l2.3-1.5l1.4-1.4l0.4-0.5l0.8-0.9l0.5-0.8l0.2-0.5l0.3-0.4l0.6-1.5
		l0.1-0.5l0.3-0.7l0.4-2V33.2h-9.8C50.5,42.8,42.7,50.4,33,50.4z"/>
	<path class="st0" d="M63.6,16.5v0.9v30.3v0.9v0.7l-0.1,0.9l-0.1,0.7l-0.2,0.7L63,52.3l-0.2,0.7l-0.2,0.7l-0.4,0.7l-0.4,0.6
		l-0.4,0.6L61,56.4l-0.5,0.6L60,57.7l-0.5,0.5l-0.2,0.3L59,58.8l-0.5,0.5l-0.6,0.6l-0.6,0.4l-0.6,0.5L56,61.2l-0.6,0.4l-0.7,0.4
		l-0.6,0.4l-0.7,0.2l-0.7,0.2L51.8,63l-0.7,0.1l-0.9,0.1l-0.7,0.1l-0.9,0.1h-0.7H17.7h-0.9l-0.7-0.1l-0.9-0.1l-0.7-0.1L13.8,63
		L13,62.8l-0.7-0.2l-0.7-0.2l-0.7-0.4l-0.6-0.4l-0.6-0.4l-0.6-0.4l-0.6-0.5l-0.6-0.4l-0.6-0.6l-0.5-0.5l-0.4-0.4L6,58.2l-0.5-0.5
		L5,57.1l-0.4-0.6l-0.4-0.6l-0.5-0.6l-0.2-0.6l-0.4-0.7l-0.2-0.7l-0.2-0.7l-0.2-0.7l-0.1-0.7l-0.1-0.7L2,49.3l-0.1-0.7v-0.9V17.3
		v-0.9L2,15.7L2.1,15l0.1-0.9l0.1-0.7l0.2-0.7l0.2-0.7l0.2-0.7l0.4-0.6l0.2-0.7l0.5-0.6l0.4-0.6L5,7.9l0.5-0.6L6,6.8l0.1-0.1
		l0.5-0.5l0.5-0.5l0.6-0.5l0.6-0.5L9,4.2l0.6-0.4l0.6-0.4l0.6-0.4l0.7-0.4l0.7-0.2L13,2.2l0.7-0.1l0.7-0.2l0.7-0.1l0.9-0.1h0.7
		l0.9-0.1h30.2l0.7,0.1h0.9l0.7,0.1l0.8,0.1l0.7,0.2l0.7,0.1l0.7,0.2L54,2.7l0.6,0.4l0.7,0.4L56,3.8l0.6,0.4l0.6,0.5l0.6,0.5
		l0.6,0.5L59,6.2l0.2,0.2l0.3,0.4L60,7.3l0.5,0.6L61,8.5l0.4,0.6l0.4,0.6l0.4,0.7l0.4,0.6l0.2,0.7l0.2,0.7l0.1,0.7l0.2,0.7l0.1,0.9
		l0.1,0.7L63.6,16.5L63.6,16.5z M65.1,15.6v-0.9l-0.2-0.9L64.7,13l-0.2-0.9l-0.3-0.7l-0.4-0.9l-0.4-0.7L63.1,9l-0.4-0.7l-0.5-0.6
		l-0.5-0.7l-0.5-0.6l-0.5-0.6l-0.6-0.6l-0.3-0.4l-0.3-0.3l-0.6-0.5l-0.6-0.5l-0.7-0.5l-0.6-0.5l-0.7-0.4l-0.7-0.4l-0.7-0.4L53.8,1
		l-0.9-0.2l-0.7-0.2l-0.9-0.3l-0.9-0.1L49.6,0h-0.9h-0.9H17.7h-1h-0.9L15,0.1l-0.7,0.1l-0.9,0.3l-0.9,0.2L11.8,1l-0.9,0.4l-0.7,0.4
		L9.4,2.1L8.7,2.4L7.9,2.9L7.3,3.4L6.7,3.9L6.1,4.4L6,4.6L5.5,5.1L4.9,5.7L4.2,6.3L3.7,6.9L3.2,7.7L2.9,8.3L2.4,9L2,9.8l-0.2,0.7
		l-0.4,0.9l-0.2,0.7L0.9,13l-0.2,0.9l-0.1,0.9l-0.1,0.9l-0.1,0.9v0.9v30.3v1l0.1,0.7l0.1,1l0.1,0.9L0.9,52l0.2,0.9l0.2,0.7l0.4,0.9
		L2,55.2L2.4,56l0.5,0.7l0.4,0.8l0.5,0.6l0.5,0.6l0.6,0.6l0.6,0.6L6,60.6h0.1l0.6,0.6l0.6,0.4l0.6,0.6l0.7,0.4L9.4,63l0.7,0.4
		l0.7,0.3l0.9,0.4l0.7,0.2l0.9,0.2l0.9,0.2l0.7,0.1l0.9,0.1h0.9h1h30.2h0.9h0.9l0.9-0.1l0.9-0.1l0.9-0.2l0.7-0.2l0.9-0.2l0.9-0.4
		l0.7-0.2l0.7-0.4l0.7-0.5l0.6-0.4l0.7-0.6l0.6-0.4l0.6-0.6l0.6-0.6l0.6-0.6l0.5-0.6l0.5-0.6l0.5-0.6l0.5-0.7l0.4-0.7l0.4-0.7
		l0.4-0.7l0.4-0.9l0.2-0.7l0.2-0.9l0.1-0.7l0.2-0.9v-1l0.1-0.7v-1V17.3v-0.9L65.1,15.6z"/>
	<path class="st0" d="M48.6,31.8c-0.4-8.3-7.2-14.9-15.5-14.9s-15.1,6.6-15.5,14.9c0,0.2,0,0.5,0,0.7c0,0.2,0,0.5,0,0.7
		c0.4,8.3,7.2,14.9,15.5,14.9s15.2-6.6,15.5-14.9c0-0.2,0-0.5,0-0.7C48.6,32.3,48.6,32,48.6,31.8z"/>
</g>
</svg>
