<?xml version="1.0" encoding="utf-8"?>
<!-- Generator: Adobe Illustrator 23.1.1, SVG Export Plug-In . SVG Version: 6.00 Build 0)  -->
<svg version="1.1" id="Layer_1" xmlns="http://www.w3.org/2000/svg" xmlns:xlink="http://www.w3.org/1999/xlink" x="0px" y="0px"
	 viewBox="0 0 120 130" style="enable-background:new 0 0 120 130;" xml:space="preserve">
<style type="text/css">
	.st0{fill:url(#SVGID_1_);}
	.st1{fill:url(#SVGID_2_);}
	.st2{fill:url(#SVGID_3_);}
	.st3{fill:url(#SVGID_4_);}
	.st4{fill:url(#SVGID_5_);}
</style>
<g>
	<linearGradient id="SVGID_1_" gradientUnits="userSpaceOnUse" x1="69.3518" y1="16.3702" x2="92.1547" y2="16.3702">
		<stop  offset="0" style="stop-color:#ED7F22"/>
		<stop  offset="1" style="stop-color:#F19549"/>
	</linearGradient>
	<path class="st0" d="M78.74,27.7h13.41L69.35,5.04v13.28C69.35,23.48,73.58,27.7,78.74,27.7z"/>
	<linearGradient id="SVGID_2_" gradientUnits="userSpaceOnUse" x1="5" y1="65.0092" x2="92.1473" y2="65.0092">
		<stop  offset="0" style="stop-color:#ED7F22"/>
		<stop  offset="1" style="stop-color:#F19549"/>
	</linearGradient>
	<path class="st1" d="M65.01,84.52c0-15,12.15-27.16,27.14-27.18v-25.4H77.99c-7.1,0-12.9-5.81-12.9-12.9V5.05h-50.7
		C9.23,5.05,5,9.28,5,14.45v101.13c0,5.17,4.23,9.39,9.39,9.39h68.36c5.17,0,9.39-4.23,9.39-9.39v-3.87
		C77.15,111.68,65.01,99.52,65.01,84.52z M16.19,41.82c0-0.88,0.72-1.61,1.61-1.61h24.23c0.88,0,1.61,0.72,1.61,1.61v0.8
		c0,0.88-0.72,1.61-1.61,1.61H17.8c-0.88,0-1.61-0.72-1.61-1.61V41.82z M16.19,55.74c0-0.99,0.81-1.8,1.8-1.8h30.72
		c0.99,0,1.8,0.81,1.8,1.8v0.43c0,0.99-0.81,1.8-1.8,1.8H17.99c-0.99,0-1.8-0.81-1.8-1.8V55.74z M57.1,112.91H18.2
		c-1.1,0-2.01-0.9-2.01-2.01s0.9-2.01,2.01-2.01h38.9c1.1,0,2.01,0.9,2.01,2.01S58.21,112.91,57.1,112.91z M59.11,97.57
		c0,0.88-0.72,1.61-1.61,1.61H33.28c-0.88,0-1.61-0.72-1.61-1.61v-0.8c0-0.88,0.72-1.61,1.61-1.61H57.5c0.88,0,1.61,0.72,1.61,1.61
		V97.57z M59.11,83.64c0,0.99-0.81,1.8-1.8,1.8H26.6c-0.99,0-1.8-0.81-1.8-1.8v-0.43c0-0.99,0.81-1.8,1.8-1.8h30.72
		c0.99,0,1.8,0.81,1.8,1.8V83.64z M57.1,71.7H18.2c-1.1,0-2.01-0.9-2.01-2.01c0-1.1,0.9-2.01,2.01-2.01h38.9
		c1.1,0,2.01,0.9,2.01,2.01C59.11,70.8,58.21,71.7,57.1,71.7z M59.11,28.48c0,1.1-0.9,2.01-2.01,2.01H18.2
		c-1.1,0-2.01-0.9-2.01-2.01v0c0-1.1,0.9-2.01,2.01-2.01h38.9C58.21,26.48,59.11,27.38,59.11,28.48L59.11,28.48z"/>
	<g>
		<linearGradient id="SVGID_3_" gradientUnits="userSpaceOnUse" x1="91.4373" y1="85.0238" x2="95.1369" y2="85.0238">
			<stop  offset="0" style="stop-color:#ED7F22"/>
			<stop  offset="1" style="stop-color:#F19549"/>
		</linearGradient>
		<path class="st2" d="M94.13,81.86c-0.31-0.28-0.68-0.47-1.11-0.57c-0.43-0.1-0.89-0.16-1.37-0.16h-0.21v7.77h0.21
			c0.49,0,0.94-0.06,1.37-0.18c0.43-0.12,0.8-0.32,1.11-0.61c0.31-0.29,0.56-0.69,0.74-1.21c0.18-0.51,0.27-1.16,0.27-1.95
			c0-0.79-0.09-1.43-0.27-1.93C94.69,82.53,94.44,82.14,94.13,81.86z"/>
		<linearGradient id="SVGID_4_" gradientUnits="userSpaceOnUse" x1="69.3708" y1="84.5218" x2="115" y2="84.5218">
			<stop  offset="0" style="stop-color:#ED7F22"/>
			<stop  offset="1" style="stop-color:#F19549"/>
		</linearGradient>
		<path class="st3" d="M92.19,61.71c-12.6,0-22.81,10.21-22.81,22.81s10.21,22.81,22.81,22.81S115,97.12,115,84.52
			S104.79,61.71,92.19,61.71z M85.21,84.9c-0.3,0.6-0.7,1.08-1.2,1.47c-0.5,0.38-1.07,0.67-1.73,0.85s-1.33,0.28-2.04,0.28h-1.66
			v4.28h-3.57V78.27h5.24c0.72,0,1.41,0.07,2.07,0.22c0.66,0.15,1.23,0.4,1.73,0.75s0.88,0.82,1.17,1.39
			c0.29,0.58,0.44,1.29,0.44,2.13C85.66,83.59,85.51,84.3,85.21,84.9z M98.3,88.04c-0.33,0.86-0.8,1.57-1.4,2.12
			s-1.32,0.96-2.14,1.23c-0.82,0.26-1.72,0.4-2.69,0.4h-4.2V78.27h3.99c1.03,0,1.96,0.12,2.82,0.37c0.85,0.25,1.58,0.64,2.19,1.18
			c0.61,0.54,1.08,1.23,1.42,2.08c0.34,0.85,0.51,1.86,0.51,3.06C98.8,86.15,98.63,87.18,98.3,88.04z M109.27,83.84v2.99h-4.49v4.95
			h-3.57V78.27h8.81v2.99h-5.24v2.58H109.27z"/>
		<linearGradient id="SVGID_5_" gradientUnits="userSpaceOnUse" x1="78.5923" y1="82.8831" x2="82.1678" y2="82.8831">
			<stop  offset="0" style="stop-color:#ED7F22"/>
			<stop  offset="1" style="stop-color:#F19549"/>
		</linearGradient>
		<path class="st4" d="M81.63,81.47c-0.36-0.25-0.87-0.37-1.54-0.37h-1.5v3.57h1.5c0.71,0,1.23-0.17,1.57-0.5
			c0.34-0.33,0.51-0.8,0.51-1.41C82.17,82.15,81.99,81.72,81.63,81.47z"/>
	</g>
</g>
</svg>
