<?xml version="1.0" encoding="utf-8"?>
<!-- Generator: Adobe Illustrator 23.1.1, SVG Export Plug-In . SVG Version: 6.00 Build 0)  -->
<svg version="1.1" id="Layer_1" xmlns="http://www.w3.org/2000/svg" xmlns:xlink="http://www.w3.org/1999/xlink" x="0px" y="0px"
	 viewBox="0 0 250 250" style="enable-background:new 0 0 250 250;" xml:space="preserve">
<style type="text/css">
	.st0{fill:url(#SVGID_1_);}
	.st1{fill:url(#SVGID_2_);}
	.st2{fill:url(#SVGID_3_);}
	.st3{fill:url(#SVGID_4_);}
	.st4{fill:url(#SVGID_5_);}
	.st5{fill:url(#SVGID_6_);}
	.st6{fill:url(#SVGID_7_);}
	.st7{fill:url(#SVGID_8_);}
	.st8{fill:url(#SVGID_9_);}
	.st9{fill:url(#SVGID_10_);}
	.st10{fill:url(#SVGID_11_);}
</style>
<g>
	<linearGradient id="SVGID_1_" gradientUnits="userSpaceOnUse" x1="113.9417" y1="175.0604" x2="136.0591" y2="175.0604">
		<stop  offset="0" style="stop-color:#ED7F22"/>
		<stop  offset="1" style="stop-color:#F19549"/>
	</linearGradient>
	<path class="st0" d="M125,164c-6.11,0-11.06,4.95-11.06,11.06c0,6.11,4.95,11.06,11.06,11.06s11.06-4.95,11.06-11.06
		C136.06,168.95,131.11,164,125,164z"/>
	<linearGradient id="SVGID_2_" gradientUnits="userSpaceOnUse" x1="113.9417" y1="146.185" x2="136.0591" y2="146.185">
		<stop  offset="0" style="stop-color:#ED7F22"/>
		<stop  offset="1" style="stop-color:#F19549"/>
	</linearGradient>
	<path class="st1" d="M125,135.13c-6.11,0-11.06,4.95-11.06,11.06c0,6.11,4.95,11.06,11.06,11.06s11.06-4.95,11.06-11.06
		C136.06,140.08,131.11,135.13,125,135.13z"/>
	<linearGradient id="SVGID_3_" gradientUnits="userSpaceOnUse" x1="85.4828" y1="117.3096" x2="107.6002" y2="117.3096">
		<stop  offset="0" style="stop-color:#ED7F22"/>
		<stop  offset="1" style="stop-color:#F19549"/>
	</linearGradient>
	<circle class="st2" cx="96.54" cy="117.31" r="11.06"/>
	<linearGradient id="SVGID_4_" gradientUnits="userSpaceOnUse" x1="85.4828" y1="175.0604" x2="107.6002" y2="175.0604">
		<stop  offset="0" style="stop-color:#ED7F22"/>
		<stop  offset="1" style="stop-color:#F19549"/>
	</linearGradient>
	<circle class="st3" cx="96.54" cy="175.06" r="11.06"/>
	<linearGradient id="SVGID_5_" gradientUnits="userSpaceOnUse" x1="113.9417" y1="117.3096" x2="136.0591" y2="117.3096">
		<stop  offset="0" style="stop-color:#ED7F22"/>
		<stop  offset="1" style="stop-color:#F19549"/>
	</linearGradient>
	<path class="st4" d="M125,106.25c-6.11,0-11.06,4.95-11.06,11.06s4.95,11.06,11.06,11.06s11.06-4.95,11.06-11.06
		S131.11,106.25,125,106.25z"/>
	<linearGradient id="SVGID_6_" gradientUnits="userSpaceOnUse" x1="85.4828" y1="146.185" x2="107.6002" y2="146.185">
		<stop  offset="0" style="stop-color:#ED7F22"/>
		<stop  offset="1" style="stop-color:#F19549"/>
	</linearGradient>
	<circle class="st5" cx="96.54" cy="146.18" r="11.06"/>
	<linearGradient id="SVGID_7_" gradientUnits="userSpaceOnUse" x1="78.615" y1="75.5323" x2="171.385" y2="75.5323">
		<stop  offset="0" style="stop-color:#ED7F22"/>
		<stop  offset="1" style="stop-color:#F19549"/>
	</linearGradient>
	<path class="st6" d="M158.18,61.4H91.82c-7.27,0-13.21,5.94-13.21,13.21v1.84c0,7.26,5.94,13.21,13.21,13.21h66.35
		c7.26,0,13.21-5.94,13.21-13.21v-1.84C171.38,67.35,165.44,61.4,158.18,61.4z"/>
	<linearGradient id="SVGID_8_" gradientUnits="userSpaceOnUse" x1="142.3998" y1="117.3096" x2="164.5172" y2="117.3096">
		<stop  offset="0" style="stop-color:#ED7F22"/>
		<stop  offset="1" style="stop-color:#F19549"/>
	</linearGradient>
	<circle class="st7" cx="153.46" cy="117.31" r="11.06"/>
	<linearGradient id="SVGID_9_" gradientUnits="userSpaceOnUse" x1="0" y1="125" x2="250" y2="125">
		<stop  offset="0" style="stop-color:#ED7F22"/>
		<stop  offset="1" style="stop-color:#F19549"/>
	</linearGradient>
	<path class="st8" d="M125,0C55.96,0,0,55.96,0,125s55.96,125,125,125s125-55.96,125-125S194.04,0,125,0z M185.12,194.41
		c0,7.26-5.94,13.21-13.21,13.21H78.09c-7.26,0-13.21-5.94-13.21-13.21V55.59c0-7.26,5.94-13.21,13.21-13.21h93.82
		c7.27,0,13.21,5.94,13.21,13.21V194.41z"/>
	<linearGradient id="SVGID_10_" gradientUnits="userSpaceOnUse" x1="142.3998" y1="146.185" x2="164.5172" y2="146.185">
		<stop  offset="0" style="stop-color:#ED7F22"/>
		<stop  offset="1" style="stop-color:#F19549"/>
	</linearGradient>
	<circle class="st9" cx="153.46" cy="146.18" r="11.06"/>
	<linearGradient id="SVGID_11_" gradientUnits="userSpaceOnUse" x1="142.3998" y1="175.0604" x2="164.5172" y2="175.0604">
		<stop  offset="0" style="stop-color:#ED7F22"/>
		<stop  offset="1" style="stop-color:#F19549"/>
	</linearGradient>
	<circle class="st10" cx="153.46" cy="175.06" r="11.06"/>
</g>
</svg>
