<?xml version="1.0" encoding="utf-8"?>
<!-- Generator: Adobe Illustrator 23.1.1, SVG Export Plug-In . SVG Version: 6.00 Build 0)  -->
<svg version="1.1" id="Layer_1" xmlns="http://www.w3.org/2000/svg" xmlns:xlink="http://www.w3.org/1999/xlink" x="0px" y="0px"
	 viewBox="0 0 70 70" style="enable-background:new 0 0 70 70;" xml:space="preserve">
<style type="text/css">
	.st0{fill:#F1F1F1;}
	.st1{fill:#4B4F53;}
</style>
<g>
	<circle class="st0" cx="35" cy="35" r="35"/>
	<path class="st1" d="M35,5.47C18.69,5.47,5.47,18.69,5.47,35c0,16.31,13.22,29.53,29.53,29.53S64.53,51.31,64.53,35
		C64.53,18.69,51.31,5.47,35,5.47z M51.21,43.55c2.11,2.11,2.11,5.56,0,7.66c-2.11,2.11-5.56,2.11-7.66,0L35,42.66l-8.55,8.55
		c-2.11,2.11-5.56,2.11-7.66,0c-2.11-2.11-2.11-5.56,0-7.66L27.34,35l-8.55-8.55c-2.11-2.11-2.11-5.56,0-7.66
		c2.11-2.11,5.56-2.11,7.66,0L35,27.34l8.55-8.55c2.11-2.11,5.56-2.11,7.66,0c2.11,2.11,2.11,5.56,0,7.66L42.66,35L51.21,43.55z"/>
</g>
</svg>
