<?xml version="1.0" encoding="utf-8"?>
<!-- Generator: Adobe Illustrator 23.1.1, SVG Export Plug-In . SVG Version: 6.00 Build 0)  -->
<svg version="1.1" id="Layer_1" xmlns="http://www.w3.org/2000/svg" xmlns:xlink="http://www.w3.org/1999/xlink" x="0px" y="0px"
	 viewBox="0 0 20 20" style="enable-background:new 0 0 20 20;" xml:space="preserve">
<style type="text/css">
	.st0{fill:#2A66B1;}
</style>
<path class="st0" d="M9.03,2.84l0.43,1.89C9.55,5.11,9.33,5.49,8.96,5.6L7.35,6.09C7,6.19,6.78,6.53,6.83,6.89
	c0.11,0.79,0.16,1.7,1.21,4.06s1.69,3,2.21,3.62c0.23,0.28,0.64,0.34,0.95,0.15l1.44-0.87c0.33-0.2,0.76-0.11,0.98,0.2l1.16,1.63
	l1.3,1.84c0.23,0.32,0.16,0.77-0.15,1.01l-1.36,1.07c-0.36,0.29-0.82,0.43-1.29,0.39c-1.52-0.15-4.6-1.24-7.6-7.99
	s-1.76-9.76-0.86-11c0.28-0.37,0.69-0.62,1.15-0.7l1.7-0.3c0.39-0.07,0.76,0.18,0.85,0.57L9.03,2.84z"/>
</svg>
