<?xml version="1.0" encoding="utf-8"?>
<!-- Generator: Adobe Illustrator 23.1.1, SVG Export Plug-In . SVG Version: 6.00 Build 0)  -->
<svg version="1.1" id="Layer_1" xmlns="http://www.w3.org/2000/svg" xmlns:xlink="http://www.w3.org/1999/xlink" x="0px" y="0px"
	 viewBox="0 0 18 18" style="enable-background:new 0 0 18 18;" xml:space="preserve">
<style type="text/css">
	.st0{fill:#4B4F53;}
</style>
<path class="st0" d="M6.69,11.29c-2.56,0-4.63-2.04-4.63-4.58c0-2.53,2.07-4.58,4.63-4.58s4.63,2.04,4.63,4.58
	C11.32,9.25,9.25,11.29,6.69,11.29z M12.86,11.29h-0.81l-0.29-0.27c1.01-1.16,1.62-2.67,1.62-4.3c0-3.65-2.99-6.61-6.69-6.61
	S0,3.06,0,6.72c0,3.65,2.99,6.61,6.69,6.61c1.66,0,3.18-0.6,4.35-1.6l0.28,0.28v0.8l5.15,5.08L18,16.38L12.86,11.29z"/>
</svg>
