<?xml version="1.0" encoding="utf-8"?>
<!-- Generator: Adobe Illustrator 23.1.1, SVG Export Plug-In . SVG Version: 6.00 Build 0)  -->
<svg version="1.1" id="Layer_1" xmlns="http://www.w3.org/2000/svg" xmlns:xlink="http://www.w3.org/1999/xlink" x="0px" y="0px"
	 viewBox="0 0 30 30" style="enable-background:new 0 0 30 30;" xml:space="preserve">
<style type="text/css">
	.st0{fill:#FFFFFF;}
</style>
<path class="st0" d="M28.35,0H1.66C0.74,0,0,0.74,0,1.65v26.69C0,29.26,0.74,30,1.66,30h14.37V18.38h-3.91v-4.53h3.91v-3.34
	c0-3.87,2.37-5.99,5.82-5.99c1.66,0,3.08,0.12,3.49,0.18v4.05l-2.4,0c-1.88,0-2.25,0.89-2.25,2.2v2.89h4.48l-0.58,4.53h-3.9V30h7.65
	c0.91,0,1.66-0.74,1.66-1.66V1.65C30,0.74,29.26,0,28.35,0z"/>
</svg>
