<?xml version="1.0" encoding="utf-8"?>
<!-- Generator: Adobe Illustrator 23.1.1, SVG Export Plug-In . SVG Version: 6.00 Build 0)  -->
<svg version="1.1" id="Layer_1" xmlns="http://www.w3.org/2000/svg" xmlns:xlink="http://www.w3.org/1999/xlink" x="0px" y="0px"
	 viewBox="0 0 30 30" style="enable-background:new 0 0 30 30;" xml:space="preserve">
<style type="text/css">
	.st0{fill:#FFFFFF;}
</style>
<path class="st0" d="M25.56,25.56h-4.45V18.6c0-1.66-0.03-3.8-2.31-3.8c-2.31,0-2.67,1.81-2.67,3.68v7.08h-4.44V11.25h4.26v1.96
	h0.06c0.59-1.13,2.05-2.31,4.21-2.31c4.5,0,5.34,2.96,5.34,6.82L25.56,25.56L25.56,25.56z M6.67,9.29c-1.43,0-2.58-1.16-2.58-2.58
	c0-1.42,1.15-2.58,2.58-2.58c1.42,0,2.58,1.16,2.58,2.58S8.1,9.29,6.67,9.29z M8.9,25.56H4.45V11.25H8.9V25.56z M27.78,0H2.21
	C0.99,0,0,0.97,0,2.16v25.67C0,29.03,0.99,30,2.21,30h25.57C29,30,30,29.03,30,27.83V2.16C30,0.97,29,0,27.78,0z"/>
</svg>
