<?xml version="1.0" encoding="utf-8"?>
<!-- Generator: Adobe Illustrator 23.1.1, SVG Export Plug-In . SVG Version: 6.00 Build 0)  -->
<svg version="1.1" id="Layer_1" xmlns="http://www.w3.org/2000/svg" xmlns:xlink="http://www.w3.org/1999/xlink" x="0px" y="0px"
	 viewBox="0 0 30 30" style="enable-background:new 0 0 30 30;" xml:space="preserve">
<style type="text/css">
	.st0{fill:#FFFFFF;}
</style>
<path class="st0" d="M11.9,18.98l0-8.63l8.11,4.33L11.9,18.98z M29.7,8.86c0,0-0.29-2.12-1.19-3.05c-1.14-1.22-2.42-1.23-3.01-1.3
	c-4.2-0.31-10.5-0.31-10.5-0.31h-0.01c0,0-6.3,0-10.5,0.31c-0.59,0.07-1.86,0.08-3.01,1.3C0.59,6.74,0.3,8.86,0.3,8.86
	S0,11.35,0,13.83v2.33c0,2.49,0.3,4.97,0.3,4.97s0.29,2.12,1.19,3.05c1.14,1.22,2.64,1.18,3.31,1.31C7.2,25.73,15,25.8,15,25.8
	s6.31-0.01,10.5-0.32c0.59-0.07,1.87-0.08,3.01-1.3c0.9-0.93,1.19-3.05,1.19-3.05s0.3-2.49,0.3-4.97v-2.33
	C30,11.35,29.7,8.86,29.7,8.86z"/>
</svg>
