<?xml version="1.0" encoding="utf-8"?>
<!-- Generator: Adobe Illustrator 23.1.1, SVG Export Plug-In . SVG Version: 6.00 Build 0)  -->
<svg version="1.1" id="Layer_1" xmlns="http://www.w3.org/2000/svg" xmlns:xlink="http://www.w3.org/1999/xlink" x="0px" y="0px"
	 viewBox="0 0 155 155" style="enable-background:new 0 0 155 155;" xml:space="preserve">
<style type="text/css">
	.st0{fill:#FFFFFF;}
	.st1{fill:url(#SVGID_1_);}
</style>
<g>
	<circle class="st0" cx="77.83" cy="77.25" r="77.3"/>
</g>
<linearGradient id="SVGID_1_" gradientUnits="userSpaceOnUse" x1="10.5971" y1="77.4698" x2="145.5971" y2="77.4698">
	<stop  offset="0" style="stop-color:#2A66B1"/>
	<stop  offset="1" style="stop-color:#0066CC"/>
</linearGradient>
<path class="st1" d="M78.1,9.97c-37.28,0-67.5,30.22-67.5,67.5s30.22,67.5,67.5,67.5c37.28,0,67.5-30.22,67.5-67.5
	S115.38,9.97,78.1,9.97z M78.1,34.73c8.72,0,15.81,7.09,15.81,15.81c0,5.91-3.26,11.08-8.08,13.79c-2.29,1.29-4.92,2.02-7.73,2.02
	c-2.81,0-5.44-0.74-7.73-2.02c-4.82-2.71-8.08-7.88-8.08-13.79C62.29,41.82,69.38,34.73,78.1,34.73z M51.58,111.99H40.45
	c-4.35,0-7.89-3.54-7.89-7.89V89.59c0-7.25,5.9-13.15,13.15-13.15h5.87V111.99z M50.33,73.11c-6.52,0-11.83-5.3-11.83-11.83
	c0-6.52,5.3-11.83,11.83-11.83s11.82,5.3,11.82,11.83c0,2.01-0.5,3.9-1.39,5.55c-1.26,2.36-3.3,4.25-5.78,5.31
	C53.56,72.77,51.99,73.11,50.33,73.11z M99.3,109.36c0,1.45-1.18,2.63-2.63,2.63H59.53c-1.45,0-2.63-1.18-2.63-2.63V82.74
	c0-7.25,5.9-13.15,13.15-13.15h16.1c7.25,0,13.15,5.9,13.15,13.15V109.36z M95.43,66.84c-0.89-1.66-1.39-3.55-1.39-5.55
	c0-6.52,5.3-11.83,11.83-11.83c6.52,0,11.83,5.3,11.83,11.83c0,6.52-5.3,11.83-11.83,11.83c-1.65,0-3.23-0.34-4.66-0.96
	C98.73,71.09,96.69,69.21,95.43,66.84z M123.64,104.1c0,4.35-3.54,7.89-7.89,7.89h-11.18V76.44h5.92c7.25,0,13.15,5.9,13.15,13.15
	V104.1z"/>
</svg>
