<?xml version="1.0" encoding="utf-8"?>
<!-- Generator: Adobe Illustrator 23.1.1, SVG Export Plug-In . SVG Version: 6.00 Build 0)  -->
<svg version="1.1" id="Layer_1" xmlns="http://www.w3.org/2000/svg" xmlns:xlink="http://www.w3.org/1999/xlink" x="0px" y="0px"
	 viewBox="0 0 155 155" style="enable-background:new 0 0 155 155;" xml:space="preserve">
<style type="text/css">
	.st0{fill:#FFFFFF;}
	.st1{fill:url(#SVGID_1_);}
</style>
<g>
	<g>
		<circle class="st0" cx="77.48" cy="77.25" r="77.3"/>
	</g>
	<linearGradient id="SVGID_1_" gradientUnits="userSpaceOnUse" x1="11.0057" y1="77.0512" x2="146.0057" y2="77.0512">
		<stop  offset="0" style="stop-color:#2A66B1"/>
		<stop  offset="1" style="stop-color:#0066CC"/>
	</linearGradient>
	<path class="st1" d="M78.51,9.55c-37.28,0-67.5,30.22-67.5,67.5s30.22,67.5,67.5,67.5c37.28,0,67.5-30.22,67.5-67.5
		S115.79,9.55,78.51,9.55z M51.9,108.48c0,1.63-1.32,2.96-2.96,2.96H37.11c-1.63,0-2.96-1.32-2.96-2.96V61.18
		c0-1.63,1.32-2.96,2.96-2.96h11.83c1.63,0,2.96,1.32,2.96,2.96V108.48z M116.32,87.47c0.4,1.01,0.62,2.12,0.62,3.27
		c0,4.08-2.77,7.53-6.54,8.56c2.47,6.24-2.49,12.14-8.87,12.14H82.2c-11.22,0-18.59-2.84-24.39-4.77V62.3
		c3.79-1.89,6.68-3.12,10.06-6.5c5.02-5.02,7.68-17.36,7.68-24.2c0-1.63,1.32-2.96,2.96-2.96h2.44c6.71,0,12.26,5.38,12.34,12.09
		c0.05,4.05-1.01,13.97-2.96,17.48h23.05c4.62,0,8.9,3.25,9.42,7.84c0.3,2.67-0.59,5.14-2.2,6.95
		C124.99,77.92,122.66,85.75,116.32,87.47z"/>
</g>
</svg>
