<?xml version="1.0" encoding="utf-8"?>
<!-- Generator: Adobe Illustrator 23.1.1, SVG Export Plug-In . SVG Version: 6.00 Build 0)  -->
<svg version="1.1" id="Layer_1" xmlns="http://www.w3.org/2000/svg" xmlns:xlink="http://www.w3.org/1999/xlink" x="0px" y="0px"
	 viewBox="0 0 155 155" style="enable-background:new 0 0 155 155;" xml:space="preserve">
<style type="text/css">
	.st0{fill:#FFFFFF;}
	.st1{fill:url(#SVGID_1_);}
</style>
<g>
	<circle class="st0" cx="77.67" cy="77.25" r="77.3"/>
</g>
<linearGradient id="SVGID_1_" gradientUnits="userSpaceOnUse" x1="10.4916" y1="77.0512" x2="145.4916" y2="77.0512">
	<stop  offset="0" style="stop-color:#2A66B1"/>
	<stop  offset="1" style="stop-color:#0066CC"/>
</linearGradient>
<path class="st1" d="M77.99,9.55c-37.28,0-67.5,30.22-67.5,67.5c0,37.28,30.22,67.5,67.5,67.5c37.28,0,67.5-30.22,67.5-67.5
	C145.49,39.77,115.27,9.55,77.99,9.55z M123.8,61.95l-49.42,49.42c-5,5-13.17,5-18.16,0L30.78,85.94c-5-5-5-13.17,0-18.16
	c5-5,13.17-5,18.16,0l16.35,16.35l40.34-40.34c5-5,13.17-5,18.16,0C128.79,48.78,128.79,56.95,123.8,61.95z"/>
</svg>
