<?xml version="1.0" encoding="utf-8"?>
<!-- Generator: Adobe Illustrator 23.1.1, SVG Export Plug-In . SVG Version: 6.00 Build 0)  -->
<svg version="1.1" id="Layer_1" xmlns="http://www.w3.org/2000/svg" xmlns:xlink="http://www.w3.org/1999/xlink" x="0px" y="0px"
	 viewBox="0 0 155 155" style="enable-background:new 0 0 155 155;" xml:space="preserve">
<style type="text/css">
	.st0{fill:#FFFFFF;}
	.st1{fill:url(#SVGID_1_);}
</style>
<g>
	<circle class="st0" cx="77.76" cy="77.25" r="77.3"/>
</g>
<linearGradient id="SVGID_1_" gradientUnits="userSpaceOnUse" x1="9.9119" y1="77.0512" x2="144.9119" y2="77.0512">
	<stop  offset="0" style="stop-color:#2A66B1"/>
	<stop  offset="1" style="stop-color:#0066CC"/>
</linearGradient>
<path class="st1" d="M77.41,9.55c-37.28,0-67.5,30.22-67.5,67.5c0,37.28,30.22,67.5,67.5,67.5c37.28,0,67.5-30.22,67.5-67.5
	C144.91,39.77,114.69,9.55,77.41,9.55z M111.26,85.79l-28.29,28.29c-3.07,3.07-8.05,3.07-11.13,0L43.56,85.79
	c-4.96-4.96-1.45-13.43,5.56-13.43h13.25V44.51c0-3.73,3.05-6.78,6.78-6.78h16.51c3.73,0,6.78,3.05,6.78,6.78v27.85h13.25
	C112.71,72.36,116.22,80.83,111.26,85.79z"/>
</svg>
