<?xml version="1.0" encoding="utf-8"?>
<!-- Generator: Adobe Illustrator 23.1.1, SVG Export Plug-In . SVG Version: 6.00 Build 0)  -->
<svg version="1.1" id="Layer_1" xmlns="http://www.w3.org/2000/svg" xmlns:xlink="http://www.w3.org/1999/xlink" x="0px" y="0px"
	 viewBox="0 0 150 150" style="enable-background:new 0 0 150 150;" xml:space="preserve">
<style type="text/css">
	.st0{fill:url(#SVGID_1_);}
</style>
<linearGradient id="SVGID_1_" gradientUnits="userSpaceOnUse" x1="0" y1="75" x2="150" y2="75">
	<stop  offset="0" style="stop-color:#ED7F22"/>
	<stop  offset="1" style="stop-color:#F19549"/>
</linearGradient>
<path class="st0" d="M110.94,34.15V28.5h32.33c2.44,0,4.41-1.98,4.41-4.41V4.41c0-2.44-1.97-4.41-4.41-4.41h-36.74
	c-2.44,0-4.41,1.98-4.41,4.41v29.74H37.68C16.9,34.15,0,51.05,0,71.83v47.56c0,2.44,1.98,4.41,4.41,4.41h54.04v21.79
	c0,2.44,1.98,4.41,4.41,4.41h24.26c2.44,0,4.41-1.98,4.41-4.41V123.8h54.04c2.44,0,4.41-1.98,4.41-4.41V71.83
	C150,52.44,134.97,34.15,110.94,34.15z M47.37,78.19H22.22c-2.44,0-4.41-1.98-4.41-4.41c0-2.44,1.98-4.41,4.41-4.41
	c4.82,0,19.67,0,25.15,0c2.44,0,4.41,1.97,4.41,4.41C51.78,76.22,49.8,78.19,47.37,78.19z M141.18,114.98c-7.64,0-58.83,0-65.81,0
	c0-1.3,0-41.15,0-43.14c0-11.57-5.24-21.94-13.48-28.86h40.24v23.07c-6.25,1.89-10.8,7.71-10.8,14.56c0,8.39,6.82,15.22,15.21,15.22
	c8.39,0,15.22-6.83,15.22-15.22c0-6.86-4.56-12.67-10.81-14.56V42.97c18.72,0,30.23,13.93,30.23,28.86V114.98z"/>
</svg>
