<?xml version="1.0" encoding="utf-8"?>
<!-- Generator: Adobe Illustrator 23.1.1, SVG Export Plug-In . SVG Version: 6.00 Build 0)  -->
<svg version="1.1" id="Layer_1" xmlns="http://www.w3.org/2000/svg" xmlns:xlink="http://www.w3.org/1999/xlink" x="0px" y="0px"
	 viewBox="0 0 150 150" style="enable-background:new 0 0 150 150;" xml:space="preserve">
<style type="text/css">
	.st0{fill:url(#SVGID_1_);}
</style>
<linearGradient id="SVGID_1_" gradientUnits="userSpaceOnUse" x1="35.692" y1="74.6962" x2="114.308" y2="74.6962">
	<stop  offset="0" style="stop-color:#ED7F22"/>
	<stop  offset="1" style="stop-color:#F19549"/>
</linearGradient>
<path class="st0" d="M68.9,29.4l2.7,11.98c0.54,2.38-0.86,4.78-3.2,5.49l-10.17,3.09c-2.2,0.66-3.59,2.82-3.27,5.1
	c0.71,5.02,1.02,10.73,7.67,25.66c6.64,14.94,10.7,18.97,13.95,22.86c1.48,1.76,4.02,2.17,5.98,0.98l9.1-5.5
	c2.09-1.26,4.81-0.7,6.22,1.3l7.33,10.34l8.24,11.63c1.44,2.03,1.03,4.84-0.93,6.38l-8.6,6.73c-2.3,1.83-5.22,2.71-8.14,2.44
	c-9.64-0.95-29.06-7.85-48.07-50.51s-11.15-61.71-5.41-69.52c1.76-2.35,4.36-3.93,7.26-4.42l10.76-1.89
	c2.46-0.43,4.82,1.14,5.36,3.57L68.9,29.4z"/>
</svg>
