<?xml version="1.0" encoding="utf-8"?>
<!-- Generator: Adobe Illustrator 23.1.1, SVG Export Plug-In . SVG Version: 6.00 Build 0)  -->
<svg version="1.1" id="Layer_1" xmlns="http://www.w3.org/2000/svg" xmlns:xlink="http://www.w3.org/1999/xlink" x="0px" y="0px"
	 viewBox="0 0 150 150" style="enable-background:new 0 0 150 150;" xml:space="preserve">
<style type="text/css">
	.st0{fill:url(#SVGID_1_);}
	.st1{fill:url(#SVGID_2_);}
</style>
<g>
	<linearGradient id="SVGID_1_" gradientUnits="userSpaceOnUse" x1="14.5641" y1="52.9607" x2="135.4785" y2="52.9607">
		<stop  offset="0" style="stop-color:#ED7F22"/>
		<stop  offset="1" style="stop-color:#F19549"/>
	</linearGradient>
	<path class="st0" d="M80.17,80.15l55.31-55.31c-1.57-0.75-3.31-1.19-5.16-1.19H19.68c-1.83,0-3.56,0.43-5.12,1.17L69.9,80.15
		C72.72,82.98,77.34,82.98,80.17,80.15z"/>
	<linearGradient id="SVGID_2_" gradientUnits="userSpaceOnUse" x1="7.6826" y1="81.989" x2="142.3174" y2="81.989">
		<stop  offset="0" style="stop-color:#ED7F22"/>
		<stop  offset="1" style="stop-color:#F19549"/>
	</linearGradient>
	<path class="st1" d="M84.74,96.67c-5.34,5.34-14.07,5.34-19.41,0L7.68,39.02v73.93c0,6.6,5.4,12,12,12h110.63c6.6,0,12-5.4,12-12
		V39.09L84.74,96.67z"/>
</g>
</svg>
