<?xml version="1.0" encoding="utf-8"?>
<!-- Generator: Adobe Illustrator 23.1.1, SVG Export Plug-In . SVG Version: 6.00 Build 0)  -->
<svg version="1.1" id="Layer_1" xmlns="http://www.w3.org/2000/svg" xmlns:xlink="http://www.w3.org/1999/xlink" x="0px" y="0px"
	 viewBox="0 0 150 150" style="enable-background:new 0 0 150 150;" xml:space="preserve">
<style type="text/css">
	.st0{fill:#F1F1F1;}
</style>
<g>
	<path class="st0" d="M70.36,42.18c-4.85-4.85-13.13-1.41-13.13,5.44v55.32c0,6.85,8.29,10.29,13.13,5.44l27.66-27.66
		c3-3,3-7.88,0-10.88L70.36,42.18z"/>
	<path class="st0" d="M89.28,14.86c-4.47-1.08-9.09-1.59-13.85-1.59c-4.76,0-9.45,0.58-13.92,1.59
		C34.03,21.15,13.47,45.8,13.47,75.28c0,34.26,27.77,62.01,61.96,62.01c34.19,0,61.89-27.75,61.89-62.01
		C137.32,45.8,116.77,21.15,89.28,14.86z M75.43,129.13c-29.65,0-53.74-24.14-53.74-53.84c0-25.37,17.6-46.69,41.19-52.33
		c4.04-1.01,8.22-1.52,12.55-1.52c4.33,0,8.51,0.51,12.48,1.52c23.66,5.57,41.26,26.96,41.26,52.33
		C129.17,104.99,105.08,129.13,75.43,129.13z"/>
</g>
</svg>
